<?xml version="1.0" encoding="UTF-8"?>
<!DOCTYPE svg PUBLIC "-//W3C//DTD SVG 1.1//EN" "http://www.w3.org/Graphics/SVG/1.1/DTD/svg11.dtd">
<svg xmlns="http://www.w3.org/2000/svg" version="1.1" width="300px" height="107px" style="shape-rendering:geometricPrecision; text-rendering:geometricPrecision; image-rendering:optimizeQuality; fill-rule:evenodd; clip-rule:evenodd" xmlns:xlink="http://www.w3.org/1999/xlink">
<g><path style="opacity:0.008" fill="#185650" d="M 253.5,6.5 C 252.833,7.16667 252.833,7.16667 253.5,6.5 Z"/></g>
<g><path style="opacity:0.996" fill="#9a1f24" d="M 269.5,-0.5 C 270.5,-0.5 271.5,-0.5 272.5,-0.5C 276.717,1.87657 280.551,4.87657 284,8.5C 284.813,10.4357 285.313,12.4357 285.5,14.5C 281.414,12.1969 277.081,11.8636 272.5,13.5C 275.015,10.6137 275.015,7.78037 272.5,5C 272.833,4.66667 273.167,4.33333 273.5,4C 272.5,3.66667 271.5,3.33333 270.5,3C 270.833,2.66667 271.167,2.33333 271.5,2C 270.619,1.2917 269.953,0.458367 269.5,-0.5 Z"/></g>
<g><path style="opacity:1" fill="#2d7633" d="M 263.5,16.5 C 262.336,12.9046 260.003,11.5713 256.5,12.5C 256.975,9.6874 255.975,7.6874 253.5,6.5C 253.047,5.54163 252.381,4.7083 251.5,4C 256.391,4.02563 260.558,5.85896 264,9.5C 264.796,12.0385 264.629,14.3718 263.5,16.5 Z"/></g>
<g><path style="opacity:1" fill="#bf2533" d="M 285.5,14.5 C 284.99,17.6743 283.323,20.0077 280.5,21.5C 280.44,20.9569 280.107,20.6236 279.5,20.5C 278.167,21.1667 276.833,21.8333 275.5,22.5C 272.32,20.9054 268.987,19.9054 265.5,19.5C 268.02,17.7368 270.353,15.7368 272.5,13.5C 277.081,11.8636 281.414,12.1969 285.5,14.5 Z"/></g>
<g><path style="opacity:0.999" fill="#205d88" d="M 293.5,19.5 C 291.446,27.4039 290.779,35.0706 291.5,42.5C 290.85,42.8039 290.183,43.1373 289.5,43.5C 287.928,41.6592 286.262,40.9925 284.5,41.5C 284.494,35.1881 284.494,28.8548 284.5,22.5C 287.192,20.7974 289.192,18.464 290.5,15.5C 291.984,16.4669 292.984,17.8002 293.5,19.5 Z"/></g>
<g><path style="opacity:0.972" fill="#54aa43" d="M 263.5,16.5 C 262.71,17.7942 261.71,18.9609 260.5,20C 256.104,22.5269 251.771,25.0269 247.5,27.5C 246.508,27.3284 245.842,27.6618 245.5,28.5C 243.447,28.4021 241.78,29.0687 240.5,30.5C 239.508,30.3284 238.842,30.6618 238.5,31.5C 238.167,31.5 237.833,31.5 237.5,31.5C 236.833,31.5 236.5,31.8333 236.5,32.5C 236.167,32.5 235.833,32.5 235.5,32.5C 234.508,32.3284 233.842,32.6618 233.5,33.5C 230.838,34.4986 228.172,35.4986 225.5,36.5C 225.937,34.9256 226.937,33.7589 228.5,33C 239.503,28.3432 248.836,21.5099 256.5,12.5C 260.003,11.5713 262.336,12.9046 263.5,16.5 Z"/></g>
<g><path style="opacity:0.382" fill="#e42941" d="M 265.5,19.5 C 268.987,19.9054 272.32,20.9054 275.5,22.5C 276.833,21.8333 278.167,21.1667 279.5,20.5C 280.107,20.6236 280.44,20.9569 280.5,21.5C 277.454,24.3567 273.787,26.19 269.5,27C 261.992,28.662 254.659,30.4953 247.5,32.5C 247.167,32.5 246.833,32.5 246.5,32.5C 240.561,33.5945 234.894,35.2611 229.5,37.5C 228.209,37.2627 227.209,37.596 226.5,38.5C 222.221,39.2364 221.887,38.5698 225.5,36.5C 228.172,35.4986 230.838,34.4986 233.5,33.5C 234.492,33.6716 235.158,33.3382 235.5,32.5C 235.833,32.5 236.167,32.5 236.5,32.5C 237.167,32.5 237.5,32.1667 237.5,31.5C 237.833,31.5 238.167,31.5 238.5,31.5C 239.492,31.6716 240.158,31.3382 240.5,30.5C 242.553,30.5979 244.22,29.9313 245.5,28.5C 246.492,28.6716 247.158,28.3382 247.5,27.5C 253.729,25.3861 259.729,22.7194 265.5,19.5 Z"/></g>
<g><path style="opacity:1" fill="#237fb4" d="M 284.5,22.5 C 284.494,28.8548 284.494,35.1881 284.5,41.5C 279.569,39.9706 274.902,38.6373 270.5,37.5C 270.953,36.5416 271.619,35.7083 272.5,35C 272.216,33.0438 272.216,30.8771 272.5,28.5C 277.098,27.5346 281.098,25.5346 284.5,22.5 Z"/></g>
<g><path style="opacity:0.994" fill="#1a426a" d="M 293.5,19.5 C 296.277,23.5063 298.277,27.8396 299.5,32.5C 299.5,36.1667 299.5,39.8333 299.5,43.5C 297.856,43.2865 296.356,43.6198 295,44.5C 293.887,43.695 292.721,43.0283 291.5,42.5C 290.779,35.0706 291.446,27.4039 293.5,19.5 Z"/></g>
<g><path style="opacity:1" fill="#66aed5" d="M 272.5,28.5 C 272.216,30.8771 272.216,33.0438 272.5,35C 271.619,35.7083 270.953,36.5416 270.5,37.5C 266.947,36.2776 262.947,35.2776 258.5,34.5C 257.274,34.5195 256.274,34.8529 255.5,35.5C 255.167,35.5 254.833,35.5 254.5,35.5C 253.432,34.5655 252.099,34.2322 250.5,34.5C 249.5,34.5 248.5,34.5 247.5,34.5C 247.167,33.8333 246.833,33.1667 246.5,32.5C 246.833,32.5 247.167,32.5 247.5,32.5C 256.036,32.1831 264.369,30.8498 272.5,28.5 Z"/></g>
<g><path style="opacity:0.984" fill="#1a3158" d="M 168.5,70.5 C 168.5,72.1667 168.5,73.8333 168.5,75.5C 167.527,77.9479 167.194,80.6146 167.5,83.5C 162.678,84.0653 158.178,83.3987 154,81.5C 137.842,87.7102 129.175,82.0436 128,64.5C 127.51,65.7932 127.343,67.1266 127.5,68.5C 118.833,68.5 110.167,68.5 101.5,68.5C 109.65,67.5073 117.983,67.1739 126.5,67.5C 126.5,65.5 126.5,63.5 126.5,61.5C 128.236,58.0277 130.069,54.361 132,50.5C 136.922,45.7981 142.755,44.2981 149.5,46C 150.931,46.4652 152.097,47.2986 153,48.5C 153.499,43.1771 153.666,37.8437 153.5,32.5C 158.167,32.5 162.833,32.5 167.5,32.5C 167.171,45.3443 167.505,58.011 168.5,70.5 Z M 145.5,55.5 C 150.118,54.9491 152.951,56.9491 154,61.5C 155.213,66.3816 154.046,70.5483 150.5,74C 146.316,75.1655 143.483,73.6655 142,69.5C 141.333,66.1667 141.333,62.8333 142,59.5C 142.69,57.6498 143.856,56.3164 145.5,55.5 Z"/></g>
<g><path style="opacity:0.977" fill="#1a3158" d="M -0.5,83.5 C -0.5,82.5 -0.5,81.5 -0.5,80.5C 4.69661,67.6762 9.86328,54.3428 15,40.5C 15.711,38.1009 15.5443,35.7676 14.5,33.5C 20.5,32.1667 26.5,32.1667 32.5,33.5C 37.611,46.0562 42.4443,58.7229 47,71.5C 47.4997,63.1733 47.6664,54.84 47.5,46.5C 51.8333,46.5 56.1667,46.5 60.5,46.5C 60.5,58.8333 60.5,71.1667 60.5,83.5C 52.6424,83.2449 44.6424,83.0782 36.5,83C 35.4067,80.5567 34.4067,78.0567 33.5,75.5C 27.8722,74.5046 22.2055,74.1712 16.5,74.5C 16.1958,77.5792 15.1958,80.4125 13.5,83C 8.8452,83.4992 4.17853,83.6658 -0.5,83.5 Z M 24.5,49.5 C 26.6092,53.5508 28.2759,57.8841 29.5,62.5C 26.5,63.8333 23.5,63.8333 20.5,62.5C 22.2422,58.2746 23.5755,53.9413 24.5,49.5 Z"/></g>
<g><path style="opacity:1" fill="#1a3258" d="M 47.5,32.5 C 52.1667,32.5 56.8333,32.5 61.5,32.5C 61.5,35.8333 61.5,39.1667 61.5,42.5C 56.8333,42.5 52.1667,42.5 47.5,42.5C 47.5,39.1667 47.5,35.8333 47.5,32.5 Z"/></g>
<g><path style="opacity:1" fill="#1a3158" d="M 205.5,32.5 C 209.833,32.5 214.167,32.5 218.5,32.5C 218.5,49.5 218.5,66.5 218.5,83.5C 214.167,83.5 209.833,83.5 205.5,83.5C 205.5,66.5 205.5,49.5 205.5,32.5 Z"/></g>
<g><path style="opacity:0.964" fill="#d8283c" d="M 247.5,34.5 C 248.5,34.5 249.5,34.5 250.5,34.5C 251.568,35.4345 252.901,35.7678 254.5,35.5C 254.833,35.5 255.167,35.5 255.5,35.5C 266.921,38.196 277.921,41.8626 288.5,46.5C 282.911,49.0867 278.578,53.0867 275.5,58.5C 275.167,58.5 274.833,58.5 274.5,58.5C 272.823,56.4602 271.156,54.4602 269.5,52.5C 266.735,48.4022 263.068,45.4022 258.5,43.5C 248.357,37.8668 237.857,37.2002 227,41.5C 225.272,40.6477 225.105,39.6477 226.5,38.5C 227.791,38.7373 228.791,38.404 229.5,37.5C 235.46,36.2845 241.46,35.2845 247.5,34.5 Z"/></g>
<g><path style="opacity:0.996" fill="#1a3158" d="M 126.5,61.5 C 126.5,63.5 126.5,65.5 126.5,67.5C 117.983,67.1739 109.65,67.5073 101.5,68.5C 101.104,72.6285 103.271,74.9619 108,75.5C 110.664,75.2514 112.831,74.0847 114.5,72C 118.486,71.5012 122.486,71.3345 126.5,71.5C 125.566,75.9341 123.232,79.4341 119.5,82C 107.098,88.5984 96.9309,86.0984 89,74.5C 87.2934,69.0052 87.1267,63.5052 88.5,58C 83.8481,56.8069 79.6814,57.6403 76,60.5C 74.6439,68.0952 74.1439,75.7618 74.5,83.5C 70.1667,83.5 65.8333,83.5 61.5,83.5C 61.5,71.1667 61.5,58.8333 61.5,46.5C 65.8333,46.5 70.1667,46.5 74.5,46.5C 74.3433,47.8734 74.51,49.2068 75,50.5C 78.3419,46.0779 82.8419,44.4112 88.5,45.5C 88.3347,49.1817 88.5014,52.8484 89,56.5C 94.7537,46.7939 103.254,43.2939 114.5,46C 121.502,48.8366 125.502,54.0032 126.5,61.5 Z M 104.5,54.5 C 109.709,53.3961 112.709,55.3961 113.5,60.5C 109.154,60.6657 104.821,60.499 100.5,60C 101.665,58.0083 102.998,56.175 104.5,54.5 Z"/></g>
<g><path style="opacity:0.991" fill="#1a3158" d="M 168.5,75.5 C 168.5,73.8333 168.5,72.1667 168.5,70.5C 168.744,67.7374 170.077,65.5707 172.5,64C 177.555,61.6544 182.889,60.3211 188.5,60C 192.617,59.4508 193.284,57.7841 190.5,55C 186.541,53.6376 183.541,54.6376 181.5,58C 177.514,58.4988 173.514,58.6655 169.5,58.5C 169.144,53.0484 171.477,49.2151 176.5,47C 184.658,44.716 192.658,45.0493 200.5,48C 202.049,49.214 203.215,50.714 204,52.5C 204.5,62.828 204.666,73.1613 204.5,83.5C 200.003,84.0555 195.836,83.3888 192,81.5C 184.394,85.8063 177.061,85.4729 170,80.5C 168.991,78.9751 168.491,77.3084 168.5,75.5 Z M 188.5,67.5 C 189.978,67.238 191.311,67.5713 192.5,68.5C 191.479,75.0572 187.812,77.3905 181.5,75.5C 181.34,73.8008 181.506,72.1341 182,70.5C 184.166,69.2685 186.333,68.2685 188.5,67.5 Z"/></g>
<g><path style="opacity:0.998" fill="#1a3158" d="M 233.5,45.5 C 250.985,43.3222 259.651,50.9889 259.5,68.5C 250.475,68.1685 241.475,68.5018 232.5,69.5C 236.101,76.3203 240.768,77.1536 246.5,72C 250.486,71.5012 254.486,71.3345 258.5,71.5C 257.431,78.4038 253.431,82.5704 246.5,84C 227.327,86.823 218.494,78.6564 220,59.5C 222.352,52.6498 226.852,47.9832 233.5,45.5 Z M 236.5,54.5 C 241.372,53.539 244.705,55.3723 246.5,60C 241.833,60.6667 237.167,60.6667 232.5,60C 233.665,58.0083 234.998,56.175 236.5,54.5 Z"/></g>
<g><path style="opacity:1" fill="#b8222f" d="M 288.5,46.5 C 290.861,46.6741 293.194,47.0074 295.5,47.5C 296.398,48.1577 297.398,48.8243 298.5,49.5C 292.719,52.7229 287.385,57.2229 282.5,63C 283.712,64.1068 283.379,64.6068 281.5,64.5C 279.167,62.8333 277.167,60.8333 275.5,58.5C 278.578,53.0867 282.911,49.0867 288.5,46.5 Z"/></g>
<g><path style="opacity:1" fill="#9a1d24" d="M 295.5,47.5 C 296.833,47.5 298.167,47.5 299.5,47.5C 299.5,49.1667 299.5,50.8333 299.5,52.5C 297.885,59.2208 294.551,65.0541 289.5,70C 286.094,69.4479 283.428,67.6146 281.5,64.5C 283.379,64.6068 283.712,64.1068 282.5,63C 287.385,57.2229 292.719,52.7229 298.5,49.5C 297.398,48.8243 296.398,48.1577 295.5,47.5 Z"/></g>
<g><path style="opacity:0.008" fill="#185650" d="M 269.5,52.5 C 268.833,53.1667 268.833,53.1667 269.5,52.5 Z"/></g>
<g><path style="opacity:0.991" fill="#5db249" d="M 258.5,43.5 C 264.547,49.2775 269.88,55.6108 274.5,62.5C 271.067,64.305 268.067,66.6383 265.5,69.5C 266.209,58.9326 262.876,50.4326 255.5,44C 256.448,43.5172 257.448,43.3505 258.5,43.5 Z"/></g>
<g><path style="opacity:0.008" fill="#185650" d="M 274.5,58.5 C 273.833,59.1667 273.833,59.1667 274.5,58.5 Z"/></g>
<g><path style="opacity:1" fill="#3c8d35" d="M 274.5,62.5 C 277.185,66.1831 280.518,69.1831 284.5,71.5C 284.631,72.2389 284.464,72.9056 284,73.5C 283.107,72.9186 282.107,72.5852 281,72.5C 276.446,73.4624 271.946,74.629 267.5,76C 266.874,76.7504 266.374,77.5838 266,78.5C 265.768,77.2625 265.268,76.2625 264.5,75.5C 265.32,73.3855 265.653,71.3855 265.5,69.5C 268.067,66.6383 271.067,64.305 274.5,62.5 Z"/></g>
<g><path style="opacity:1" fill="#2d7432" d="M 284.5,71.5 C 285.289,71.7828 285.956,72.2828 286.5,73C 279.66,78.4201 271.993,82.2534 263.5,84.5C 263.167,84 262.833,83.5 262.5,83C 263.6,80.2687 264.267,77.7687 264.5,75.5C 265.268,76.2625 265.768,77.2625 266,78.5C 266.374,77.5838 266.874,76.7504 267.5,76C 271.946,74.629 276.446,73.4624 281,72.5C 282.107,72.5852 283.107,72.9186 284,73.5C 284.464,72.9056 284.631,72.2389 284.5,71.5 Z"/></g>
<g><path style="opacity:0.64" fill="#0f66ab" d="M 16.5,106.5 C 15.8333,106.5 15.1667,106.5 14.5,106.5C 14.7839,103.223 14.4505,100.057 13.5,97C 16.1319,93.8515 18.9653,93.6849 22,96.5C 22.3423,100.32 20.509,101.986 16.5,101.5C 16.5,103.167 16.5,104.833 16.5,106.5 Z M 16.5,96.5 C 19.9571,96.6672 20.2904,97.6672 17.5,99.5C 16.6143,98.675 16.281,97.675 16.5,96.5 Z"/></g>
<g><path style="opacity:0.652" fill="#0b66ad" d="M 44.5,106.5 C 42.5,106.5 40.5,106.5 38.5,106.5C 38.1758,102.445 38.5091,98.4454 39.5,94.5C 40.487,97.7683 40.8204,101.102 40.5,104.5C 42.4832,104.157 43.8166,104.824 44.5,106.5 Z"/></g>
<g><path style="opacity:0.414" fill="#e12e43" d="M 171.5,106.5 C 169.167,106.5 166.833,106.5 164.5,106.5C 164.793,102.563 164.46,98.73 163.5,95C 164.793,94.51 166.127,94.3433 167.5,94.5C 167.784,97.7766 167.451,100.943 166.5,104C 168.744,104.05 170.411,104.883 171.5,106.5 Z"/></g>
<g><path style="opacity:0.663" fill="#0f66ab" d="M 28.5,106.5 C 27.8333,106.5 27.1667,106.5 26.5,106.5C 25.6341,102.601 25.6341,98.6007 26.5,94.5C 28.5273,94.3379 30.5273,94.5045 32.5,95C 35.3492,99.36 34.0159,101.527 28.5,101.5C 28.5,103.167 28.5,104.833 28.5,106.5 Z M 28.5,96.5 C 31.9571,96.6672 32.2904,97.6672 29.5,99.5C 28.6143,98.675 28.281,97.675 28.5,96.5 Z"/></g>
<g><path style="opacity:0.911" fill="#0e67ad" d="M 62.5,106.5 C 59.8333,106.5 57.1667,106.5 54.5,106.5C 54.5,102.5 54.5,98.5 54.5,94.5C 57.2469,94.1866 59.9135,94.52 62.5,95.5C 55.9514,97.0929 55.9514,98.0929 62.5,98.5C 62.5,99.5 62.5,100.5 62.5,101.5C 60.8333,101.5 59.1667,101.5 57.5,101.5C 57.5,102.5 57.5,103.5 57.5,104.5C 59.7812,104.077 61.4479,104.744 62.5,106.5 Z"/></g>
<g><path style="opacity:0.908" fill="#0f67ab" d="M 73.5,106.5 C 70.8333,106.5 68.1667,106.5 65.5,106.5C 65.5,102.5 65.5,98.5 65.5,94.5C 75.7684,93.7265 78.4351,97.7265 73.5,106.5 Z M 68.5,96.5 C 73.1851,96.9425 74.5185,99.2758 72.5,103.5C 71.2638,104.246 69.9305,104.579 68.5,104.5C 68.5,101.833 68.5,99.1667 68.5,96.5 Z"/></g>
<g><path style="opacity:0.324" fill="#e52c43" d="M 117.5,106.5 C 115.167,106.5 112.833,106.5 110.5,106.5C 109.634,102.601 109.634,98.6007 110.5,94.5C 112.924,94.1924 115.257,94.5258 117.5,95.5C 110.951,97.0929 110.951,98.0929 117.5,98.5C 117.5,99.5 117.5,100.5 117.5,101.5C 115.833,101.5 114.167,101.5 112.5,101.5C 112.5,102.5 112.5,103.5 112.5,104.5C 114.781,104.077 116.448,104.744 117.5,106.5 Z"/></g>
<g><path style="opacity:0.583" fill="#1f8f3e" d="M 184.5,106.5 C 183.5,106.5 182.5,106.5 181.5,106.5C 181.324,102.711 181.324,98.7111 181.5,94.5C 182.5,94.5 183.5,94.5 184.5,94.5C 184.5,98.5 184.5,102.5 184.5,106.5 Z"/></g>
<g><path style="opacity:0.824" fill="#1a8f3d" d="M 198.5,106.5 C 197.833,106.5 197.167,106.5 196.5,106.5C 194.177,104.605 192.344,102.272 191,99.5C 190.503,101.81 190.337,104.143 190.5,106.5C 189.833,106.5 189.167,106.5 188.5,106.5C 188.176,102.445 188.509,98.4454 189.5,94.5C 191.149,96.6499 192.982,98.6499 195,100.5C 195.495,98.5273 195.662,96.5273 195.5,94.5C 196.5,94.5 197.5,94.5 198.5,94.5C 198.5,98.5 198.5,102.5 198.5,106.5 Z"/></g>
<g><path style="opacity:0.706" fill="#1d8e40" d="M 255.5,106.5 C 254.5,106.5 253.5,106.5 252.5,106.5C 252.5,105.5 252.5,104.5 252.5,103.5C 250.801,103.34 249.134,103.506 247.5,104C 246.748,104.671 246.414,105.504 246.5,106.5C 245.5,106.5 244.5,106.5 243.5,106.5C 245.281,101.971 247.114,97.9712 249,94.5C 251.941,98.0468 254.108,102.047 255.5,106.5 Z"/></g>
<g><path style="opacity:0.566" fill="#1c903e" d="M 269.5,106.5 C 268.5,106.5 267.5,106.5 266.5,106.5C 266.5,102.5 266.5,98.5 266.5,94.5C 267.5,94.5 268.5,94.5 269.5,94.5C 269.5,98.5 269.5,102.5 269.5,106.5 Z"/></g>
<g><path style="opacity:0.549" fill="#1a8e3e" d="M 282.5,106.5 C 280.5,106.5 278.5,106.5 276.5,106.5C 273.697,103.796 272.863,100.463 274,96.5C 282.027,92.3378 285.694,94.6711 285,103.5C 283.955,104.373 283.122,105.373 282.5,106.5 Z M 277.5,96.5 C 283.704,97.0695 285.037,99.5695 281.5,104C 275.403,104.147 274.07,101.647 277.5,96.5 Z"/></g>
<g><path style="opacity:0.392" fill="#0d67af" d="M 50.5,106.5 C 49.8333,106.5 49.1667,106.5 48.5,106.5C 49.1667,90.5 49.8333,90.5 50.5,106.5 Z"/></g>
<g><path style="opacity:0.481" fill="#e42942" d="M 91.5,106.5 C 90.5,106.5 89.5,106.5 88.5,106.5C 88.9789,102.566 88.3122,98.8989 86.5,95.5C 88.8333,94.1667 91.1667,94.1667 93.5,95.5C 91.6878,98.8989 91.0211,102.566 91.5,106.5 Z"/></g>
<g><path style="opacity:0.492" fill="#e32c42" d="M 146.5,106.5 C 145.833,106.5 145.167,106.5 144.5,106.5C 143.689,100.04 142.355,100.04 140.5,106.5C 139.833,106.5 139.167,106.5 138.5,106.5C 136.366,98.8247 135.366,98.8247 135.5,106.5C 134.5,106.5 133.5,106.5 132.5,106.5C 133.073,102.397 134.073,98.3968 135.5,94.5C 137.253,97.0048 138.753,99.6714 140,102.5C 140.742,99.3435 142.242,96.6768 144.5,94.5C 145.632,98.4264 146.299,102.426 146.5,106.5 Z"/></g>
<g><path style="opacity:0.858" fill="#1a903e" d="M 212.5,106.5 C 211.833,106.5 211.167,106.5 210.5,106.5C 209.158,103.834 207.325,101.501 205,99.5C 204.503,101.81 204.337,104.143 204.5,106.5C 203.833,106.5 203.167,106.5 202.5,106.5C 202.176,102.445 202.509,98.4454 203.5,94.5C 205.121,96.6239 206.954,98.6239 209,100.5C 209.495,98.5273 209.662,96.5273 209.5,94.5C 210.5,94.5 211.5,94.5 212.5,94.5C 212.5,98.5 212.5,102.5 212.5,106.5 Z"/></g>
<g><path style="opacity:1" fill="#19903d" d="M 225.5,106.5 C 223.5,106.5 221.5,106.5 219.5,106.5C 216.76,104.1 215.927,101.1 217,97.5C 220.315,93.8947 223.982,93.5614 228,96.5C 229.137,100.463 228.303,103.796 225.5,106.5 Z M 220.5,96.5 C 226.488,96.664 227.821,99.164 224.5,104C 218.403,104.147 217.07,101.647 220.5,96.5 Z"/></g>
<g><path style="opacity:0.637" fill="#1e8a43" d="M 261.5,106.5 C 260.5,106.5 259.5,106.5 258.5,106.5C 258.216,103.223 258.549,100.057 259.5,97C 255.502,95.7554 255.669,94.922 260,94.5C 261.167,94.8333 262.333,95.1667 263.5,95.5C 261.688,98.8989 261.021,102.566 261.5,106.5 Z"/></g>
<g><path style="opacity:0.814" fill="#1b903e" d="M 299.5,94.5 C 299.5,98.5 299.5,102.5 299.5,106.5C 298.833,106.5 298.167,106.5 297.5,106.5C 296.627,104.114 295.127,102.114 293,100.5C 292.505,102.473 292.338,104.473 292.5,106.5C 291.5,106.5 290.5,106.5 289.5,106.5C 289.389,105.883 289.056,105.383 288.5,105C 289.133,101.541 289.8,98.041 290.5,94.5C 293.122,96.4113 295.289,98.7446 297,101.5C 296.97,98.6385 297.803,96.3052 299.5,94.5 Z"/></g>
<g><path style="opacity:0.566" fill="#e62a42" d="M 161.5,106.5 C 160.5,106.5 159.5,106.5 158.5,106.5C 158.441,104.278 157.275,103.278 155,103.5C 153.092,103.715 151.926,104.715 151.5,106.5C 150.833,106.5 150.167,106.5 149.5,106.5C 150.995,102.178 152.995,98.1776 155.5,94.5C 158.054,98.2745 160.054,102.274 161.5,106.5 Z"/></g>
<g><path style="opacity:0.913" fill="#1568a8" d="M 10.5,106.5 C 9.83333,106.5 9.16667,106.5 8.5,106.5C 6.16667,102.5 3.83333,102.5 1.5,106.5C 0.833333,106.5 0.166667,106.5 -0.5,106.5C -0.5,105.5 -0.5,104.5 -0.5,103.5C 1.6246,100.912 2.95793,97.9122 3.5,94.5C 4.5,94.5 5.5,94.5 6.5,94.5C 7.83333,98.5 9.16667,102.5 10.5,106.5 Z"/></g>
<g><path style="opacity:0.725" fill="#e62a43" d="M 105.5,106.5 C 104.833,106.5 104.167,106.5 103.5,106.5C 103.5,104.833 103.5,103.167 103.5,101.5C 102.167,101.5 100.833,101.5 99.5,101.5C 99.5,103.167 99.5,104.833 99.5,106.5C 98.5,106.5 97.5,106.5 96.5,106.5C 96.5,102.5 96.5,98.5 96.5,94.5C 97.5,94.5 98.5,94.5 99.5,94.5C 99.5,95.8333 99.5,97.1667 99.5,98.5C 100.833,98.5 102.167,98.5 103.5,98.5C 103.238,97.0222 103.571,95.6888 104.5,94.5C 105.491,98.4454 105.824,102.445 105.5,106.5 Z"/></g>
<g><path style="opacity:0.672" fill="#e82a43" d="M 129.5,106.5 C 128.5,106.5 127.5,106.5 126.5,106.5C 124.646,101.579 123.646,101.579 123.5,106.5C 122.833,106.5 122.167,106.5 121.5,106.5C 121.5,102.5 121.5,98.5 121.5,94.5C 124.365,94.0548 126.865,94.7215 129,96.5C 129.63,98.9034 128.797,100.737 126.5,102C 128.141,103.129 129.141,104.629 129.5,106.5 Z M 123.5,96.5 C 126.957,96.6672 127.29,97.6672 124.5,99.5C 123.614,98.675 123.281,97.675 123.5,96.5 Z"/></g>
<g><path style="opacity:0.89" fill="#1d8f3e" d="M 238.5,106.5 C 237.833,106.5 237.167,106.5 236.5,106.5C 235.321,102.467 233.655,98.634 231.5,95C 232,94.8333 232.5,94.6667 233,94.5C 234.938,96.0581 236.438,98.0581 237.5,100.5C 238.782,98.8208 239.782,96.9874 240.5,95C 241.483,94.4092 242.15,94.7425 242.5,96C 241.062,99.4847 239.728,102.985 238.5,106.5 Z"/></g>
</svg>

