<?xml version="1.0" encoding="UTF-8" standalone="no"?>
<!DOCTYPE svg PUBLIC "-//W3C//DTD SVG 1.1//EN" "http://www.w3.org/Graphics/SVG/1.1/DTD/svg11.dtd">
<svg xmlns="http://www.w3.org/2000/svg" version="1.1" viewBox="0.00 0.00 1170.00 212.00">
<path fill="#008080" d="
  M 695.42 138.92
  Q 694.83 139.17 695.25 139.66
  Q 719.91 168.18 744.07 196.02
  C 747.78 200.29 747.18 206.58 742.59 209.79
  Q 740.37 211.35 736.60 211.32
  Q 715.05 211.15 696.51 211.27
  C 693.77 211.29 691.42 209.93 689.72 207.92
  Q 664.27 177.90 639.45 148.80
  C 637.98 147.08 635.73 145.79 633.43 145.79
  Q 604.04 145.69 574.13 145.80
  Q 569.45 145.82 567.13 144.41
  C 562.67 141.69 561.64 136.65 563.81 132.02
  Q 570.63 117.54 577.31 103.14
  C 578.86 99.79 582.09 97.76 585.89 97.76
  Q 628.28 97.75 662.18 97.74
  Q 667.19 97.74 672.55 95.83
  C 683.63 91.89 687.92 81.90 687.12 70.71
  C 686.11 56.45 675.51 48.63 661.30 48.55
  Q 640.03 48.43 617.42 48.54
  C 612.39 48.57 608.46 45.04 608.04 40.03
  Q 607.84 37.65 609.50 34.17
  Q 616.45 19.50 622.78 5.80
  Q 625.24 0.49 631.30 0.37
  Q 644.59 0.12 659.72 0.30
  Q 670.67 0.44 679.68 2.23
  C 693.87 5.05 707.41 11.52 717.51 21.63
  C 734.52 38.65 740.35 63.31 736.44 86.95
  C 732.50 110.75 717.89 129.38 695.42 138.92
  Z"
/>
<path fill="#008080" d="
  M 924.67 53.24
  L 792.97 53.24
  A 8.22 8.22 0.0 0 1 784.75 45.02
  L 784.74 8.47
  A 8.22 8.22 0.0 0 1 792.96 0.25
  L 941.85 0.25
  A 8.22 8.22 0.0 0 1 949.29 11.97
  L 932.11 48.52
  A 8.22 8.22 0.0 0 1 924.67 53.24
  Z"
/>
<path fill="#50c7f7" d="
  M 98.84 0.48
  L 134.84 0.49
  A 7.98 7.98 0.0 0 1 142.07 5.09
  L 175.31 76.23
  A 7.98 7.98 0.0 0 1 171.07 87.00
  L 44.86 138.04
  A 7.98 7.98 0.0 0 1 34.63 127.27
  L 91.60 5.09
  A 7.98 7.98 0.0 0 1 98.84 0.48
  Z"
/>
<path fill="#50c7f7" d="
  M 269.69 0.49
  L 306.58 0.47
  A 7.96 7.96 0.0 0 1 314.55 8.45
  L 314.49 28.59
  A 7.96 7.96 0.0 0 1 309.50 35.95
  L 272.73 50.79
  A 7.96 7.96 0.0 0 1 261.79 43.42
  L 261.73 8.47
  A 7.96 7.96 0.0 0 1 269.69 0.49
  Z"
/>
<path fill="#008080" d="
  M 464.13 134.12
  Q 464.62 135.17 465.11 134.12
  Q 495.26 69.41 525.19 5.23
  C 526.58 2.26 529.87 0.47 533.08 0.48
  Q 551.69 0.52 571.65 0.50
  C 576.77 0.49 580.76 5.04 580.47 10.00
  Q 580.36 11.83 578.50 15.83
  Q 534.36 110.47 490.21 205.10
  C 488.23 209.34 485.41 211.59 480.55 211.52
  Q 467.40 211.35 454.31 211.62
  Q 449.22 211.73 446.23 211.43
  Q 441.81 210.97 438.93 204.80
  Q 394.93 110.45 350.92 16.10
  Q 348.72 11.38 348.98 8.97
  C 349.51 4.01 353.25 0.66 358.24 0.70
  Q 377.71 0.84 396.03 0.70
  C 399.97 0.67 402.86 2.57 404.55 6.21
  Q 434.52 70.39 464.13 134.12
  Z"
/>
<path fill="#008080" d="
  M 1170.00 133.09
  L 1170.00 153.22
  Q 1168.10 172.49 1156.97 186.71
  Q 1141.94 205.92 1118.43 210.31
  Q 1111.63 211.58 1098.98 211.55
  Q 1044.43 211.45 990.25 211.51
  C 984.10 211.52 981.02 205.59 983.57 200.24
  Q 992.51 181.47 1001.18 163.36
  C 1002.37 160.87 1004.85 159.25 1007.49 159.25
  Q 1055.53 159.23 1104.93 159.29
  Q 1109.12 159.30 1111.63 157.99
  C 1119.26 154.01 1117.74 147.16 1118.01 140.00
  C 1118.28 132.72 1113.58 127.16 1106.14 127.19
  Q 1070.30 127.35 1036.98 127.18
  C 1002.47 126.99 974.32 100.40 973.39 65.93
  C 972.56 34.95 995.37 8.88 1025.29 2.29
  Q 1031.55 0.91 1041.29 0.94
  Q 1090.17 1.07 1144.75 0.98
  C 1148.68 0.97 1151.86 4.09 1152.23 7.94
  Q 1152.44 10.22 1150.92 13.37
  Q 1141.88 32.16 1134.12 48.55
  Q 1131.90 53.23 1126.45 53.24
  Q 1080.13 53.27 1036.97 53.24
  C 1024.23 53.23 1020.99 70.51 1033.17 74.29
  Q 1035.53 75.02 1038.38 75.02
  Q 1071.86 75.02 1103.84 74.96
  Q 1114.02 74.94 1120.55 76.43
  Q 1132.98 79.27 1142.68 86.07
  Q 1166.66 102.88 1170.00 133.09
  Z"
/>
<path fill="#008080" d="
  M 314.51 71.19
  L 314.50 203.53
  A 7.96 7.96 0.0 0 1 306.53 211.49
  L 269.71 211.47
  A 7.96 7.96 0.0 0 1 261.76 203.51
  L 261.74 86.12
  A 7.96 7.96 0.0 0 1 266.71 78.75
  L 303.56 63.82
  A 7.96 7.96 0.0 0 1 314.51 71.19
  Z"
/>
<path fill="#008080" d="
  M 909.35 132.24
  L 792.77 132.26
  A 8.03 8.03 0.0 0 1 784.74 124.23
  L 784.74 87.52
  A 8.03 8.03 0.0 0 1 792.77 79.49
  L 926.57 79.51
  A 8.03 8.03 0.0 0 1 933.84 90.95
  L 916.62 127.62
  A 8.03 8.03 0.0 0 1 909.35 132.24
  Z"
/>
<path fill="#008080" d="
  M 177.98 206.83
  L 143.29 132.43
  A 8.08 8.08 0.0 0 1 147.59 121.52
  L 181.53 107.84
  A 8.08 8.08 0.0 0 1 191.87 111.92
  L 233.01 199.99
  A 8.08 8.08 0.0 0 1 225.69 211.49
  L 185.31 211.49
  A 8.08 8.08 0.0 0 1 177.98 206.83
  Z"
/>
<path fill="#008080" d="
  M 0.00 205.15
  L 0.00 201.49
  Q 5.05 190.54 10.13 179.60
  C 10.98 177.77 12.45 176.27 14.34 175.51
  Q 39.45 165.36 64.26 155.23
  C 67.27 154.00 70.64 154.49 72.98 156.73
  C 75.94 159.57 76.11 163.16 74.46 166.66
  Q 65.38 185.98 55.77 206.62
  C 53.90 210.65 50.78 211.48 46.48 211.48
  Q 27.75 211.53 9.00 211.49
  Q 1.95 211.47 0.00 205.15
  Z"
/>
<path fill="#008080" d="
  M 924.88 211.25
  L 792.83 211.27
  A 8.13 8.13 0.0 0 1 784.70 203.12
  L 784.76 166.60
  A 8.13 8.13 0.0 0 1 792.90 158.48
  L 941.95 158.50
  A 8.13 8.13 0.0 0 1 949.31 170.07
  L 932.24 206.57
  A 8.13 8.13 0.0 0 1 924.88 211.25
  Z"
/>
</svg>

