<?xml version="1.0" encoding="UTF-8" standalone="no"?>
<!DOCTYPE svg PUBLIC "-//W3C//DTD SVG 1.1//EN" "http://www.w3.org/Graphics/SVG/1.1/DTD/svg11.dtd">
<svg xmlns="http://www.w3.org/2000/svg" version="1.1" viewBox="0.00 0.00 125.00 50.00">
<path fill="#000000" d="
  M 25.36 19.75
  L 39.32 19.62
  Q 41.25 19.60 41.48 17.68
  Q 41.51 17.49 41.43 17.31
  Q 40.85 15.92 39.35 15.92
  Q 35.26 15.91 31.18 15.81
  C 25.53 15.68 23.14 8.30 27.57 4.63
  Q 29.55 2.99 33.04 3.10
  C 37.13 3.23 41.25 3.09 45.24 3.17
  Q 45.74 3.18 45.74 3.68
  L 45.78 6.99
  Q 45.78 7.51 45.26 7.51
  L 32.88 7.52
  Q 31.04 7.52 30.66 9.32
  Q 30.50 10.09 31.26 10.98
  A 1.75 1.73 67.2 0 0 32.72 11.59
  C 37.91 11.22 47.02 10.41 46.57 18.13
  C 46.30 22.69 42.46 24.26 38.33 24.14
  C 32.05 23.96 25.72 24.15 19.53 24.10
  Q 18.96 24.09 18.96 23.52
  L 18.98 8.50
  A 0.63 0.62 -2.9 0 0 18.29 7.88
  C 17.27 7.98 16.36 8.69 15.93 9.60
  Q 12.54 16.83 9.08 23.76
  Q 8.97 23.97 8.74 23.97
  L 2.18 24.09
  A 0.12 0.12 0.0 0 1 2.07 23.91
  Q 6.72 15.05 11.46 5.97
  Q 12.94 3.15 15.97 3.12
  Q 19.90 3.07 24.47 3.12
  A 0.35 0.35 0.0 0 1 24.82 3.48
  L 24.71 19.11
  Q 24.71 19.75 25.36 19.75
  Z"
/>
<path fill="#000000" d="
  M 62.14 14.41
  Q 66.26 16.89 66.22 23.54
  A 0.25 0.24 90.0 0 1 65.98 23.79
  L 59.77 23.76
  Q 59.51 23.76 59.52 23.51
  Q 59.62 16.22 53.15 16.12
  Q 52.50 16.11 52.50 16.76
  L 52.53 23.43
  A 0.46 0.45 -0.6 0 1 52.07 23.89
  L 48.02 23.89
  A 0.37 0.37 0.0 0 1 47.65 23.52
  L 47.57 3.53
  Q 47.57 3.08 48.02 3.07
  Q 54.32 2.98 60.19 3.16
  C 63.63 3.26 67.31 5.80 66.36 9.68
  Q 65.57 12.88 62.32 13.44
  Q 60.94 13.68 62.14 14.41
  Z
  M 52.50 8.47
  L 52.50 10.81
  A 0.45 0.45 0.0 0 0 52.95 11.26
  L 57.07 11.26
  A 2.89 1.44 0.0 0 0 59.96 9.82
  L 59.96 9.46
  A 2.89 1.44 -0.0 0 0 57.07 8.02
  L 52.95 8.02
  A 0.45 0.45 0.0 0 0 52.50 8.47
  Z"
/>
<path fill="#000000" d="
  M 119.62 14.58
  C 122.58 17.09 123.53 19.14 122.90 23.36
  Q 122.82 23.90 122.28 23.89
  L 117.92 23.87
  Q 117.13 23.87 117.14 23.08
  C 117.20 19.15 115.77 16.41 111.49 16.40
  Q 110.87 16.40 110.88 17.02
  L 111.01 23.05
  Q 111.02 23.88 110.20 23.88
  L 105.48 23.88
  Q 104.59 23.88 104.59 22.98
  L 104.57 3.48
  Q 104.57 3.04 105.02 3.04
  L 110.55 3.09
  Q 110.99 3.10 110.99 3.55
  L 110.89 11.96
  Q 110.89 12.27 111.20 12.31
  Q 115.69 12.79 117.46 9.10
  Q 117.76 8.49 118.44 8.49
  L 122.48 8.50
  Q 123.05 8.50 123.06 9.06
  Q 123.12 12.51 119.75 13.83
  Q 119.05 14.10 119.62 14.58
  Z"
/>
<path fill="#000000" d="
  M 119.48 4.57
  Q 119.34 4.62 119.23 4.71
  Q 118.88 4.98 119.03 4.57
  Q 119.21 4.11 119.67 3.95
  Q 120.55 3.64 121.37 4.03
  Q 122.04 4.34 121.32 4.48
  C 120.75 4.59 119.93 4.39 119.48 4.57
  Z"
/>
<path fill="#000000" d="
  M 119.39 5.47
  Q 120.54 5.88 121.84 5.49
  Q 122.66 5.24 122.10 5.89
  Q 121.27 6.87 119.46 6.44
  Q 118.53 6.22 118.78 5.24
  Q 118.83 5.05 119.02 5.10
  Q 119.19 5.15 119.22 5.28
  Q 119.25 5.43 119.39 5.47
  Z"
/>
<path fill="#000000" d="
  M 86.5400 16.1778
  A 10.21 7.72 0.1 0 1 76.3165 23.8800
  A 10.21 7.72 0.1 0 1 66.1200 16.1422
  A 10.21 7.72 0.1 0 1 76.3435 8.4400
  A 10.21 7.72 0.1 0 1 86.5400 16.1778
  Z
  M 81.1097 16.1196
  A 4.81 4.47 -0.6 0 0 76.2532 11.7002
  A 4.81 4.47 -0.6 0 0 71.4903 16.2204
  A 4.81 4.47 -0.6 0 0 76.3468 20.6398
  A 4.81 4.47 -0.6 0 0 81.1097 16.1196
  Z"
/>
<path fill="#000000" d="
  M 102.85 12.18
  C 99.88 11.91 96.12 12.17 94.38 14.87
  Q 93.66 15.99 94.26 17.17
  C 95.69 20.01 99.90 20.51 102.84 20.19
  Q 103.77 20.10 103.73 21.03
  L 103.65 23.21
  Q 103.63 23.82 103.02 23.86
  C 98.39 24.11 90.39 23.73 87.99 19.19
  C 85.09 13.73 90.07 9.89 94.91 8.95
  Q 98.58 8.24 102.88 8.51
  Q 103.76 8.56 103.73 9.45
  L 103.67 11.46
  Q 103.64 12.25 102.85 12.18
  Z"
/>
<ellipse fill="#000000" cx="0.00" cy="0.00" transform="translate(76.30,16.16) rotate(1.9)" rx="3.39" ry="3.13"/>
<path fill="#000000" d="
  M 45.88 37.82
  Q 44.65 37.90 45.68 38.58
  Q 49.24 40.91 48.48 45.66
  Q 48.44 45.95 48.15 45.95
  L 43.98 45.94
  Q 43.72 45.94 43.73 45.69
  Q 43.88 40.37 39.10 39.87
  Q 38.45 39.80 38.46 40.45
  L 38.51 45.47
  Q 38.51 45.95 38.03 45.95
  L 35.22 45.94
  Q 34.75 45.94 34.75 45.47
  L 34.74 30.93
  Q 34.74 30.29 35.39 30.27
  Q 41.16 30.10 44.99 30.40
  C 49.60 30.77 50.46 37.52 45.88 37.82
  Z
  M 43.9134 34.8288
  A 0.96 0.96 0.0 0 0 42.9669 33.8555
  L 39.3272 33.8047
  A 0.96 0.96 0.0 0 0 38.3539 34.7512
  L 38.3466 35.2712
  A 0.96 0.96 0.0 0 0 39.2931 36.2445
  L 42.9328 36.2953
  A 0.96 0.96 0.0 0 0 43.9061 35.3488
  L 43.9134 34.8288
  Z"
/>
<path fill="#000000" d="
  M 89.12 39.11
  Q 92.21 41.10 91.71 45.34
  Q 91.64 45.94 91.05 45.94
  L 87.87 45.94
  Q 87.30 45.94 87.25 45.37
  L 87.06 43.36
  Q 86.88 41.48 85.15 40.72
  Q 84.54 40.45 84.08 40.25
  Q 82.48 39.54 82.49 41.29
  L 82.52 45.34
  Q 82.53 45.95 81.91 45.95
  L 78.33 45.95
  Q 77.71 45.95 77.72 45.33
  L 77.77 30.74
  Q 77.77 30.24 78.26 30.24
  L 82.17 30.26
  Q 82.57 30.26 82.56 30.67
  L 82.48 36.54
  Q 82.47 37.22 83.15 37.21
  Q 86.07 37.18 87.29 34.94
  Q 87.67 34.23 88.48 34.24
  L 90.78 34.24
  Q 92.15 34.25 91.68 35.53
  Q 90.99 37.41 89.14 38.45
  Q 88.58 38.77 89.12 39.11
  Z"
/>
<path fill="#000000" d="
  M 58.71 37.15
  Q 57.93 37.60 57.54 38.34
  Q 55.65 41.93 53.67 45.70
  Q 53.51 46.00 53.18 45.99
  L 49.24 45.84
  A 0.15 0.14 -75.2 0 1 49.12 45.63
  L 54.78 35.04
  A 2.24 2.23 -76.1 0 1 56.76 33.84
  L 62.98 33.82
  Q 63.67 33.82 63.62 34.51
  Q 63.21 40.04 63.64 45.30
  Q 63.69 45.97 63.02 45.96
  L 59.78 45.92
  Q 59.16 45.91 59.17 45.28
  L 59.26 37.48
  A 0.37 0.37 0.0 0 0 58.71 37.15
  Z"
/>
<path fill="#000000" d="
  M 69.65 39.79
  C 69.72 42.62 73.67 43.21 75.80 42.99
  Q 76.95 42.88 76.94 44.04
  L 76.92 45.00
  Q 76.91 45.87 76.04 45.91
  Q 70.49 46.11 66.96 44.03
  C 63.31 41.90 63.90 37.42 67.51 35.62
  Q 71.46 33.65 76.51 34.39
  Q 77.32 34.51 77.16 35.32
  L 76.99 36.16
  Q 76.81 37.04 75.91 36.95
  Q 73.39 36.71 70.81 37.92
  A 2.02 2.01 -13.3 0 0 69.65 39.79
  Z"
/>
<rect fill="#000000" x="2.40" y="39.62" width="27.92" height="0.44" rx="0.22"/>
<rect fill="#000000" x="94.93" y="39.62" width="27.76" height="0.44" rx="0.21"/>
</svg>

