

<?xml version="1.0" encoding="UTF-8" standalone="no"?>
<!DOCTYPE svg PUBLIC "-//W3C//DTD SVG 1.1//EN" "http://www.w3.org/Graphics/SVG/1.1/DTD/svg11.dtd">
<svg xmlns="http://www.w3.org/2000/svg" version="1.1" viewBox="0.00 0.00 478.00 288.00">
<g stroke-width="2.00" fill="none" stroke-linecap="butt">
<path stroke="#cfe2a6" vector-effect="non-scaling-stroke" d="
  M 273.72 31.90
  Q 256.90 45.17 251.06 65.75
  A 0.67 0.67 0.0 0 1 250.11 66.15
  L 242.73 62.30"
/>
<path stroke="#e1e8a1" vector-effect="non-scaling-stroke" d="
  M 242.73 62.30
  Q 236.53 59.67 230.49 59.02
  Q 206.15 56.43 189.18 73.83"
/>
<path stroke="#eceba3" vector-effect="non-scaling-stroke" d="
  M 189.18 73.83
  Q 177.85 86.39 176.63 103.29
  A 0.79 0.79 0.0 0 1 175.80 104.02
  L 170.00 103.74"
/>
<path stroke="#f8eda4" vector-effect="non-scaling-stroke" d="
  M 170.00 103.74
  Q 149.04 104.93 137.91 120.41
  Q 132.82 127.49 131.50 135.02
  C 128.44 152.55 136.48 168.11 152.33 176.38
  C 159.04 179.88 168.28 181.19 175.75 181.21
  Q 196.31 181.27 249.21 180.96"
/>
<path stroke="#eceba3" vector-effect="non-scaling-stroke" d="
  M 249.21 180.96
  L 260.82 180.98"
/>
<path stroke="#e1e8a1" vector-effect="non-scaling-stroke" d="
  M 260.82 180.98
  L 277.49 181.21"
/>
<path stroke="#cfe2a6" vector-effect="non-scaling-stroke" d="
  M 277.49 181.21
  L 287.28 181.16"
/>
<path stroke="#c0dcb0" vector-effect="non-scaling-stroke" d="
  M 287.28 181.16
  L 301.02 181.17"
/>
<path stroke="#b5dab5" vector-effect="non-scaling-stroke" d="
  M 301.02 181.17
  L 314.52 181.18"
/>
<path stroke="#a6d5bf" vector-effect="non-scaling-stroke" d="
  M 314.52 181.18
  L 324.27 181.17"
/>
<path stroke="#a4d0ca" vector-effect="non-scaling-stroke" d="
  M 324.27 181.17
  L 343.03 181.16"
/>
<path stroke="#a3ceda" vector-effect="non-scaling-stroke" d="
  M 343.03 181.16
  C 354.04 181.34 366.11 181.82 376.89 178.94
  C 402.01 172.24 419.64 149.81 418.52 123.25
  Q 417.91 108.76 410.02 96.47"
/>
<path stroke="#a4d0ca" vector-effect="non-scaling-stroke" d="
  M 410.02 96.47
  Q 401.12 82.71 386.75 76.02
  Q 384.99 75.20 378.35 72.68"
/>
<path stroke="#a6d5bf" vector-effect="non-scaling-stroke" d="
  M 378.35 72.68
  Q 374.81 52.70 361.30 38.46"
/>
<path stroke="#b5dab5" vector-effect="non-scaling-stroke" d="
  M 361.30 38.46
  Q 345.90 22.52 324.02 18.94"
/>
<path stroke="#c0dcb0" vector-effect="non-scaling-stroke" d="
  M 324.02 18.94
  Q 296.06 15.07 273.72 31.90"
/>
<path stroke="#76b765" vector-effect="non-scaling-stroke" d="
  M 324.02 18.94
  L 323.23 21.48
  Q 323.09 21.94 322.80 22.33
  Q 322.30 22.99 322.28 23.84
  Q 322.26 24.51 322.18 25.16
  Q 321.71 29.05 321.39 32.72
  Q 321.01 37.06 320.41 40.25
  Q 319.20 46.71 318.54 53.02
  Q 318.36 54.72 318.20 56.48
  Q 317.54 64.03 315.91 73.78
  Q 315.62 75.53 315.24 77.14
  Q 314.88 78.70 314.63 80.42
  Q 312.54 95.05 310.75 109.42
  Q 310.63 110.37 310.49 111.25
  Q 309.37 118.30 308.50 125.51
  Q 307.41 134.41 306.02 144.03
  Q 305.85 145.22 305.65 146.47
  Q 305.10 149.98 304.77 153.61
  Q 304.59 155.50 304.11 157.36
  Q 303.63 159.21 303.62 161.00
  Q 303.61 161.31 303.40 161.54
  Q 302.99 161.96 303.10 162.54
  Q 303.33 163.83 302.74 164.94
  Q 302.57 165.26 302.67 165.60
  Q 302.72 165.75 302.77 165.91
  Q 302.88 166.24 302.84 166.61
  Q 302.03 173.92 301.02 181.17"
/>
<path stroke="#8fbf57" vector-effect="non-scaling-stroke" d="
  M 287.28 181.16
  Q 288.32 171.88 287.06 162.69
  C 286.60 159.32 287.03 156.00 286.62 152.58
  Q 286.32 150.05 286.21 147.52
  Q 286.09 145.01 285.71 142.48
  Q 285.02 137.76 284.92 135.68
  Q 284.75 132.09 284.39 128.32
  Q 284.14 125.79 284.02 123.18
  Q 283.90 120.73 283.56 118.11
  Q 282.83 112.52 282.61 106.97
  Q 282.38 101.41 281.63 96.10
  Q 280.69 89.44 280.22 83.02
  Q 280.05 80.65 279.74 78.30
  Q 279.43 75.99 279.31 73.65
  Q 278.83 64.12 277.62 54.89
  Q 277.25 52.14 277.14 49.68
  Q 277.01 47.00 276.96 44.04
  Q 276.93 42.16 276.37 40.85
  Q 276.18 40.40 276.32 39.94
  Q 276.51 39.28 276.35 38.62
  Q 275.62 35.80 275.42 32.54
  Q 275.40 32.04 274.92 31.92
  Q 274.42 31.79 273.72 31.90"
/>
<path stroke="#b0cb48" vector-effect="non-scaling-stroke" d="
  M 277.49 181.21
  Q 276.34 179.51 276.50 178.49
  Q 276.56 178.13 276.52 177.77
  Q 276.29 176.00 275.32 174.47
  Q 275.05 174.04 275.12 173.53
  Q 275.28 172.39 274.44 171.60
  Q 274.08 171.25 274.05 170.75
  Q 274.00 169.57 273.59 168.80
  Q 273.12 167.90 272.95 166.99
  Q 272.58 164.99 271.98 162.99
  Q 270.10 156.72 268.18 150.59
  Q 267.84 149.48 267.33 148.45
  Q 266.79 147.36 266.61 146.19
  Q 266.36 144.53 265.70 142.94
  Q 263.80 138.33 263.09 133.60
  Q 262.90 132.29 262.38 130.97
  Q 261.90 129.75 261.56 128.51
  Q 258.36 116.77 255.06 105.01
  Q 254.65 103.54 254.09 101.81
  Q 252.38 96.55 250.41 91.01
  Q 249.57 88.64 249.16 86.37
  Q 248.72 83.89 247.78 81.82
  Q 245.98 77.83 245.82 73.19
  Q 245.81 72.68 245.50 72.28
  Q 243.93 70.16 244.16 67.12
  Q 244.19 66.73 244.02 66.37
  L 242.83 63.80
  Q 242.76 63.64 242.59 63.59
  Q 242.47 63.55 242.34 63.60
  Q 241.97 63.73 241.71 63.43
  Q 241.56 63.26 241.63 63.06
  Q 241.73 62.76 242.03 62.70
  Q 242.48 62.60 242.73 62.30"
/>
<path stroke="#5caf74" vector-effect="non-scaling-stroke" d="
  M 361.30 38.46
  Q 360.24 37.80 359.52 37.83
  Q 358.99 37.85 358.97 38.38
  Q 358.90 40.24 358.31 42.05
  Q 357.34 45.05 357.22 45.54
  Q 356.50 48.32 355.61 50.73
  C 355.33 51.50 354.58 52.08 354.36 52.89
  Q 353.86 54.75 353.10 56.63
  Q 352.65 57.77 352.56 58.91
  Q 352.46 60.19 351.81 61.25
  Q 351.51 61.74 351.63 62.30
  Q 351.87 63.51 350.82 64.02
  Q 350.38 64.24 350.38 64.72
  L 350.38 67.83
  A 1.79 1.73 -30.5 0 1 350.13 68.73
  Q 348.91 70.75 348.26 72.84
  Q 347.58 75.01 346.71 77.13
  Q 345.55 79.96 344.65 82.61
  C 344.23 83.87 344.54 84.95 344.12 86.25
  Q 340.42 97.77 336.12 109.09
  C 335.72 110.14 336.15 110.93 335.44 111.84
  Q 334.83 112.61 334.52 113.54
  Q 331.82 121.52 329.42 129.45
  Q 329.36 129.63 329.23 129.77
  Q 329.10 129.91 328.97 130.04
  Q 328.74 130.26 328.64 130.56
  Q 327.25 134.78 325.64 138.97
  Q 324.10 142.98 322.82 147.59
  Q 321.10 153.75 318.52 160.01
  Q 318.24 160.69 318.35 161.57
  Q 318.41 162.09 318.17 162.56
  Q 317.55 163.72 317.34 164.91
  Q 317.06 166.52 316.28 168.07
  Q 315.53 169.54 315.12 171.65
  Q 314.64 174.08 313.48 176.29
  Q 312.50 178.17 311.83 180.24
  Q 311.64 180.82 312.25 180.75
  Q 313.78 180.59 314.52 181.18"
/>
<path stroke="#ced445" vector-effect="non-scaling-stroke" d="
  M 260.82 180.98
  L 258.35 180.18
  Q 257.82 180.01 257.88 179.45
  Q 257.94 178.96 257.63 178.64
  Q 257.28 178.29 256.95 177.91
  Q 255.72 176.51 255.21 175.14
  Q 254.87 174.26 254.31 173.24
  Q 252.65 170.19 250.60 166.94
  Q 250.38 166.61 250.02 166.45
  Q 249.83 166.37 249.68 166.23
  Q 249.34 165.93 249.27 165.48
  Q 249.07 164.21 247.90 163.53
  A 0.93 0.92 10.6 0 1 247.45 162.88
  Q 247.21 161.58 246.41 160.66
  Q 245.62 159.75 245.06 158.72
  Q 242.83 154.64 240.32 151.06
  Q 239.95 150.52 239.83 149.89
  Q 239.66 148.98 238.85 148.45
  A 2.12 2.07 5.1 0 1 238.08 147.55
  Q 237.61 146.46 236.69 145.64
  Q 235.67 144.73 234.98 143.43
  Q 234.34 142.22 233.69 141.04
  Q 233.28 140.31 232.54 140.41
  Q 232.25 140.45 232.36 140.18
  Q 232.87 138.84 231.44 138.61
  Q 230.90 138.52 230.66 138.03
  Q 230.04 136.80 229.95 135.55
  Q 229.93 135.27 229.70 135.14
  Q 227.33 133.80 226.91 130.86
  A 0.92 0.83 25.5 0 0 226.75 130.47
  L 224.03 126.90
  Q 223.83 126.65 223.57 126.45
  Q 222.85 125.93 223.10 125.02
  Q 223.25 124.48 222.86 124.09
  L 220.26 121.43
  Q 219.95 121.13 219.79 120.72
  Q 219.02 118.79 217.25 117.30
  Q 215.51 115.84 215.46 113.61
  Q 215.45 113.19 215.17 112.88
  Q 213.08 110.54 212.27 107.62
  Q 212.14 107.12 211.70 106.85
  Q 211.26 106.57 210.84 106.20
  Q 210.21 105.64 210.01 104.85
  C 209.33 102.13 207.52 100.96 205.67 99.03
  A 1.52 1.49 21.5 0 1 205.26 98.11
  Q 205.20 97.41 204.67 97.02
  Q 204.03 96.56 203.59 95.90
  Q 202.49 94.26 201.37 92.58
  Q 201.12 92.19 201.09 91.73
  Q 201.02 90.63 200.17 90.09
  Q 199.87 89.90 199.78 89.56
  Q 199.30 87.80 197.79 86.93
  Q 197.35 86.67 197.20 86.18
  Q 196.53 84.06 195.21 82.54
  Q 194.20 81.36 193.41 79.85
  Q 192.28 77.70 190.33 75.59
  Q 190.02 75.26 189.70 75.57
  Q 189.51 75.74 189.57 75.49
  Q 189.59 75.39 189.67 75.34
  Q 190.11 75.07 189.64 74.73
  Q 189.24 74.45 189.18 73.83"
/>
<path stroke="#4ba68a" vector-effect="non-scaling-stroke" d="
  M 378.35 72.68
  Q 377.68 77.45 375.31 81.89
  Q 375.04 82.40 375.01 82.97
  Q 374.94 84.55 373.78 85.43
  Q 373.32 85.79 373.28 86.37
  Q 373.24 86.85 372.86 87.15
  Q 372.45 87.46 372.28 87.93
  Q 372.12 88.36 372.14 88.80
  Q 372.16 89.31 371.78 89.65
  Q 370.79 90.59 370.61 92.05
  Q 370.55 92.55 370.09 92.77
  Q 367.83 93.86 368.10 96.55
  Q 368.23 97.86 366.99 98.07
  Q 366.56 98.14 366.30 98.49
  Q 364.46 100.98 363.83 104.02
  Q 363.73 104.49 363.40 104.85
  Q 362.73 105.57 362.60 106.53
  Q 362.54 107.01 362.22 107.38
  Q 360.06 109.86 358.20 112.96
  Q 357.17 114.68 356.88 116.81
  Q 356.40 120.30 353.97 123.22
  Q 353.11 124.26 352.62 125.33
  Q 352.07 126.55 351.43 127.78
  Q 351.32 127.99 351.10 128.02
  Q 350.73 128.07 350.65 128.43
  Q 350.30 129.91 349.47 131.60
  Q 347.28 136.06 345.42 140.20
  Q 345.20 140.70 344.71 140.89
  Q 344.24 141.08 344.01 141.54
  Q 342.82 143.96 341.60 146.75
  Q 339.09 152.49 335.61 157.70
  C 335.08 158.51 335.28 159.45 334.56 160.30
  Q 334.00 160.97 333.43 161.61
  Q 332.67 162.46 332.16 163.60
  Q 331.32 165.48 330.42 167.20
  Q 330.19 167.64 330.07 168.11
  Q 329.93 168.62 329.67 169.02
  Q 326.96 173.24 325.43 177.34
  Q 325.28 177.75 324.94 178.03
  Q 324.15 178.68 324.10 179.78
  Q 324.09 180.11 324.41 180.16
  Q 324.70 180.21 324.77 180.50
  Q 324.88 180.95 324.27 181.17"
/>
<path stroke="#e5d948" vector-effect="non-scaling-stroke" d="
  M 249.21 180.96
  Q 245.48 180.89 241.78 180.77
  Q 241.56 180.76 241.56 180.54
  L 241.56 180.53
  Q 241.57 180.33 241.78 180.32
  Q 242.96 180.26 243.84 180.01
  Q 244.56 179.81 244.00 179.31
  Q 242.67 178.12 241.09 177.32
  Q 240.28 176.91 239.70 176.28
  C 238.66 175.16 237.49 174.71 236.46 173.44
  C 234.64 171.21 232.88 168.89 230.76 167.10
  Q 228.50 165.19 226.92 162.84
  Q 225.99 161.46 224.53 160.54
  Q 223.14 159.66 222.16 158.70
  Q 218.46 155.03 214.83 151.20
  Q 214.46 150.81 213.93 150.73
  Q 213.39 150.65 213.28 150.12
  Q 213.16 149.56 212.75 149.16
  Q 210.39 146.89 208.10 144.47
  Q 207.52 143.86 206.89 143.67
  Q 206.42 143.52 206.10 143.14
  Q 204.40 141.14 202.40 139.41
  Q 200.87 138.10 199.90 136.30
  Q 198.82 134.31 196.70 133.03
  Q 196.24 132.75 195.97 132.28
  Q 195.24 131.04 193.85 130.44
  Q 193.42 130.26 193.27 129.81
  Q 192.74 128.16 191.24 127.84
  Q 191.05 127.79 191.08 127.60
  Q 191.29 126.16 190.21 125.11
  Q 189.34 124.27 188.72 123.36
  Q 187.91 122.17 186.51 121.24
  Q 184.79 120.10 183.76 118.23
  Q 183.44 117.64 182.92 117.23
  L 180.59 115.37
  A 1.22 1.19 -78.2 0 1 180.18 114.73
  C 179.85 113.43 178.96 113.14 178.24 112.23
  Q 177.30 111.03 175.98 109.87
  Q 175.55 109.50 175.43 108.95
  Q 174.48 104.84 170.43 104.81
  A 0.59 0.59 0.0 0 1 169.85 104.22
  Q 169.85 103.95 170.00 103.74"
/>
<path stroke="#489fa5" vector-effect="non-scaling-stroke" d="
  M 410.02 96.47
  Q 409.93 98.33 408.85 98.45
  Q 408.04 98.54 408.10 99.20
  Q 408.12 99.43 407.85 99.44
  Q 407.49 99.47 407.32 99.78
  Q 406.29 101.68 404.76 102.95
  Q 403.17 104.27 402.25 105.71
  Q 401.25 107.27 400.15 108.77
  Q 399.71 109.37 399.05 109.43
  A 1.30 1.30 0.0 0 0 398.06 110.05
  Q 397.24 111.38 395.89 112.52
  Q 395.48 112.86 395.35 113.38
  Q 395.22 113.94 395.58 113.90
  Q 396.73 113.76 395.93 114.61
  Q 392.21 118.49 389.46 122.41
  Q 387.72 124.89 385.46 126.93
  Q 382.70 129.43 380.79 133.25
  Q 380.53 133.75 379.01 134.77
  Q 378.80 134.91 378.75 134.67
  Q 378.62 134.04 378.63 134.69
  Q 378.66 135.96 377.33 136.22
  Q 376.82 136.32 376.51 136.73
  Q 374.80 138.98 373.21 141.37
  Q 371.76 143.56 369.62 145.79
  Q 367.25 148.25 365.25 150.94
  Q 363.60 153.15 361.79 155.15
  Q 359.96 157.16 358.37 159.39
  Q 356.62 161.84 354.60 164.20
  Q 352.54 166.61 350.64 168.96
  Q 350.59 169.03 350.51 168.99
  Q 350.35 168.93 350.36 168.79
  Q 350.37 168.70 350.38 168.79
  Q 350.39 169.02 350.35 169.24
  Q 350.31 169.46 350.19 169.65
  Q 347.93 173.11 345.44 176.05
  Q 345.35 176.15 345.47 176.23
  Q 345.52 176.27 345.53 176.32
  Q 345.57 176.48 345.49 176.62
  Q 344.76 177.79 343.85 178.98
  Q 343.59 179.31 343.62 179.74
  Q 343.64 180.06 343.85 180.31
  Q 344.29 180.84 343.62 181.01
  L 343.03 181.16"
/>
<path stroke="#f8eda4" vector-effect="non-scaling-stroke" d="
  M 113.59 158.35
  A 26.38 25.63 0.0 0 0 87.21 132.72
  A 26.38 25.63 0.0 0 0 60.83 158.35
  A 26.38 25.63 0.0 0 0 87.21 183.98
  A 26.38 25.63 0.0 0 0 113.59 158.35"
/>
<path stroke="#96b1d5" vector-effect="non-scaling-stroke" d="
  M 44.82 242.69
  Q 38.32 240.83 29.33 241.31
  Q 22.54 241.68 17.38 245.50
  C 7.84 252.56 9.67 267.51 19.24 273.14
  C 28.61 278.65 41.59 276.63 51.34 272.39
  Q 54.72 270.92 56.18 268.74
  Q 56.47 268.31 56.47 267.79
  Q 56.77 245.76 56.31 235.88
  Q 56.03 230.03 51.78 225.18
  C 47.08 219.83 37.44 218.50 30.70 219.40
  C 26.13 220.01 12.23 221.66 15.39 229.58
  C 16.44 232.22 19.85 232.90 22.34 232.07
  C 28.09 230.17 33.86 228.74 39.76 230.45
  C 45.44 232.10 45.38 237.21 45.53 242.13
  Q 45.55 242.90 44.82 242.69"
/>
<path stroke="#96b1d5" vector-effect="non-scaling-stroke" d="
  M 96.58 258.85
  Q 96.71 263.14 92.67 264.75
  C 87.06 266.99 79.68 265.65 74.21 261.84
  C 71.47 259.93 68.00 260.29 66.40 263.53
  C 64.39 267.64 67.46 270.65 70.84 272.34
  Q 80.49 277.17 90.72 275.79
  C 100.87 274.42 108.64 268.12 107.70 257.22
  C 107.12 250.54 102.22 246.00 96.24 244.25
  Q 91.17 242.78 83.05 240.98
  C 76.65 239.57 76.24 232.38 82.55 230.66
  C 88.42 229.05 92.46 230.74 97.67 232.86
  C 104.79 235.77 108.19 226.84 101.81 223.28
  C 93.57 218.69 80.86 217.96 72.88 224.23
  Q 67.40 228.52 67.13 235.62
  C 66.59 249.72 81.42 251.67 91.49 254.03
  C 93.72 254.55 96.50 256.18 96.58 258.85"
/>
<path stroke="#96b1d5" vector-effect="non-scaling-stroke" d="
  M 192.27 240.90
  C 188.50 239.96 186.28 236.61 188.51 232.95
  C 190.91 229.01 199.19 229.81 202.81 231.21
  C 206.18 232.50 210.90 235.28 213.59 231.54
  C 215.87 228.36 214.10 224.66 210.79 222.98
  Q 201.60 218.31 191.05 220.31
  C 183.63 221.71 177.62 226.59 176.68 234.43
  C 174.89 249.35 190.63 251.61 201.00 254.01
  C 202.98 254.46 205.58 256.04 205.90 258.33
  C 206.54 262.89 202.71 265.27 198.75 265.70
  C 193.59 266.26 188.12 264.97 183.81 261.91
  C 181.38 260.19 177.75 260.14 176.19 262.96
  C 172.87 268.91 179.35 272.42 184.11 274.04
  Q 195.91 278.03 205.90 274.38
  Q 214.11 271.38 216.47 264.09
  C 219.85 253.61 213.35 245.89 203.50 243.60
  Q 197.33 242.16 192.27 240.90"
/>
<path stroke="#c4c4c4" vector-effect="non-scaling-stroke" d="
  M 243.91 220.53
  C 233.50 222.60 227.77 231.58 226.96 241.84
  C 225.94 254.69 227.06 268.16 240.09 274.03
  C 251.25 279.05 264.41 273.80 268.91 262.36
  A 1.75 1.74 -42.0 0 0 268.97 261.24
  Q 268.61 259.88 267.58 259.65
  Q 265.26 259.14 264.24 261.28
  Q 260.80 268.47 254.30 270.23
  Q 242.57 273.43 235.40 264.35
  C 230.97 258.74 231.63 250.41 231.72 243.71
  C 231.82 236.80 234.10 230.99 240.04 227.24
  Q 243.79 224.87 248.71 224.81
  Q 259.18 224.69 264.40 234.85
  Q 265.14 236.29 266.76 236.47
  Q 267.37 236.54 267.83 236.25
  Q 269.77 235.00 268.84 232.89
  C 264.42 222.95 254.49 218.42 243.91 220.53"
/>
<path stroke="#c4c4c4" vector-effect="non-scaling-stroke" d="
  M 335.57 220.14
  C 327.37 220.94 320.28 226.60 317.35 234.19
  Q 315.72 238.44 315.56 244.99
  Q 315.39 252.51 316.01 256.13
  Q 318.19 268.66 328.26 273.52
  C 341.07 279.70 355.49 273.62 360.13 260.16
  C 361.91 255.03 361.44 249.66 361.48 244.45
  C 361.57 229.55 350.93 218.65 335.57 220.14"
/>
<path stroke="#96b1d5" vector-effect="non-scaling-stroke" d="
  M 152.24 262.07
  Q 150.93 263.01 149.36 263.56
  C 141.55 266.33 129.18 266.02 129.07 254.54
  Q 128.94 242.09 129.06 227.13
  Q 129.07 225.11 128.25 223.37
  C 126.39 219.43 120.16 219.44 118.27 223.22
  Q 117.35 225.05 117.42 228.29
  Q 117.70 240.38 117.49 251.84
  Q 117.38 257.86 118.69 262.05
  C 124.45 280.53 150.25 278.20 162.55 269.55
  C 163.43 268.92 164.03 267.30 164.03 266.26
  Q 164.02 246.69 164.08 227.10
  C 164.09 223.83 162.91 220.70 159.13 220.52
  Q 152.75 220.20 152.75 226.79
  Q 152.77 244.62 152.78 261.02
  Q 152.78 261.68 152.24 262.07"
/>
<path stroke="#c4c4c4" vector-effect="non-scaling-stroke" d="
  M 283.49 270.47
  A 0.49 0.48 0.0 0 1 283.00 269.99
  L 283.00 222.27
  A 1.76 1.75 -89.7 0 0 281.27 220.51
  L 280.67 220.50
  A 2.33 2.33 0.0 0 0 278.30 222.83
  L 278.30 270.78
  A 4.24 4.23 89.9 0 0 282.53 275.01
  L 311.02 275.00
  A 2.16 2.15 0.7 0 0 313.18 272.90
  Q 313.19 272.40 313.02 271.88
  A 2.08 2.07 80.9 0 0 311.05 270.45
  L 283.49 270.47"
/>
<path stroke="#c4c4c4" vector-effect="non-scaling-stroke" d="
  M 394.68 270.93
  Q 389.07 271.37 385.35 269.70
  C 376.88 265.91 375.34 258.41 375.43 249.24
  Q 375.56 235.17 375.43 222.40
  Q 375.41 220.58 373.58 220.52
  L 373.08 220.50
  Q 370.73 220.42 370.71 222.77
  Q 370.47 246.51 370.87 255.32
  C 371.37 266.21 378.50 274.07 389.20 275.70
  Q 395.53 276.67 401.05 274.28
  Q 414.26 268.59 414.18 253.45
  Q 414.09 237.56 414.11 222.28
  Q 414.11 220.34 412.17 220.41
  L 411.68 220.43
  Q 409.49 220.51 409.48 222.70
  Q 409.41 237.21 409.51 252.45
  C 409.56 261.58 404.49 270.15 394.68 270.93"
/>
<path stroke="#c4c4c4" vector-effect="non-scaling-stroke" d="
  M 426.16 224.41
  L 426.08 271.27
  A 3.76 3.76 0.0 0 0 429.83 275.04
  L 445.89 275.07
  A 22.98 22.46 -89.9 0 0 468.39 252.13
  L 468.41 243.71
  A 22.98 22.46 -89.9 0 0 445.99 220.69
  L 429.93 220.66
  A 3.76 3.76 0.0 0 0 426.16 224.41"
/>
<path stroke="#96b1d5" vector-effect="non-scaling-stroke" d="
  M 22.85 256.02
  C 21.22 262.37 25.98 265.93 31.79 266.30
  Q 38.91 266.75 44.60 263.91
  Q 45.49 263.48 45.48 262.49
  L 45.45 252.76
  Q 45.44 252.19 44.88 252.06
  C 39.52 250.84 24.88 248.13 22.85 256.02"
/>
<path stroke="#c4c4c4" vector-effect="non-scaling-stroke" d="
  M 336.00 270.90
  C 346.58 271.98 354.76 265.65 356.20 255.27
  C 357.36 246.96 357.32 236.85 351.50 230.68
  C 340.32 218.84 322.68 225.88 320.66 241.35
  Q 319.63 249.28 321.06 256.66
  C 322.50 264.08 328.33 270.11 336.00 270.90"
/>
<path stroke="#c4c4c4" vector-effect="non-scaling-stroke" d="
  M 430.90 225.92
  L 430.74 269.86
  A 0.63 0.63 0.0 0 0 431.37 270.49
  L 445.11 270.54
  A 18.75 18.47 -89.8 0 0 463.65 251.86
  L 463.67 244.16
  A 18.75 18.47 -89.8 0 0 445.27 225.34
  L 431.53 225.30
  A 0.63 0.63 0.0 0 0 430.90 225.92"
/>
</g>
<path fill="#ffffff" d="
  M 0.00 0.00
  L 478.00 0.00
  L 478.00 288.00
  L 0.00 288.00
  L 0.00 0.00
  Z
  M 273.72 31.90
  Q 256.90 45.17 251.06 65.75
  A 0.67 0.67 0.0 0 1 250.11 66.15
  L 242.73 62.30
  Q 236.53 59.67 230.49 59.02
  Q 206.15 56.43 189.18 73.83
  Q 177.85 86.39 176.63 103.29
  A 0.79 0.79 0.0 0 1 175.80 104.02
  L 170.00 103.74
  Q 149.04 104.93 137.91 120.41
  Q 132.82 127.49 131.50 135.02
  C 128.44 152.55 136.48 168.11 152.33 176.38
  C 159.04 179.88 168.28 181.19 175.75 181.21
  Q 196.31 181.27 249.21 180.96
  L 260.82 180.98
  L 277.49 181.21
  L 287.28 181.16
  L 301.02 181.17
  L 314.52 181.18
  L 324.27 181.17
  L 343.03 181.16
  C 354.04 181.34 366.11 181.82 376.89 178.94
  C 402.01 172.24 419.64 149.81 418.52 123.25
  Q 417.91 108.76 410.02 96.47
  Q 401.12 82.71 386.75 76.02
  Q 384.99 75.20 378.35 72.68
  Q 374.81 52.70 361.30 38.46
  Q 345.90 22.52 324.02 18.94
  Q 296.06 15.07 273.72 31.90
  Z
  M 113.59 158.35
  A 26.38 25.63 0.0 0 0 87.21 132.72
  A 26.38 25.63 0.0 0 0 60.83 158.35
  A 26.38 25.63 0.0 0 0 87.21 183.98
  A 26.38 25.63 0.0 0 0 113.59 158.35
  Z
  M 44.82 242.69
  Q 38.32 240.83 29.33 241.31
  Q 22.54 241.68 17.38 245.50
  C 7.84 252.56 9.67 267.51 19.24 273.14
  C 28.61 278.65 41.59 276.63 51.34 272.39
  Q 54.72 270.92 56.18 268.74
  Q 56.47 268.31 56.47 267.79
  Q 56.77 245.76 56.31 235.88
  Q 56.03 230.03 51.78 225.18
  C 47.08 219.83 37.44 218.50 30.70 219.40
  C 26.13 220.01 12.23 221.66 15.39 229.58
  C 16.44 232.22 19.85 232.90 22.34 232.07
  C 28.09 230.17 33.86 228.74 39.76 230.45
  C 45.44 232.10 45.38 237.21 45.53 242.13
  Q 45.55 242.90 44.82 242.69
  Z
  M 96.58 258.85
  Q 96.71 263.14 92.67 264.75
  C 87.06 266.99 79.68 265.65 74.21 261.84
  C 71.47 259.93 68.00 260.29 66.40 263.53
  C 64.39 267.64 67.46 270.65 70.84 272.34
  Q 80.49 277.17 90.72 275.79
  C 100.87 274.42 108.64 268.12 107.70 257.22
  C 107.12 250.54 102.22 246.00 96.24 244.25
  Q 91.17 242.78 83.05 240.98
  C 76.65 239.57 76.24 232.38 82.55 230.66
  C 88.42 229.05 92.46 230.74 97.67 232.86
  C 104.79 235.77 108.19 226.84 101.81 223.28
  C 93.57 218.69 80.86 217.96 72.88 224.23
  Q 67.40 228.52 67.13 235.62
  C 66.59 249.72 81.42 251.67 91.49 254.03
  C 93.72 254.55 96.50 256.18 96.58 258.85
  Z
  M 192.27 240.90
  C 188.50 239.96 186.28 236.61 188.51 232.95
  C 190.91 229.01 199.19 229.81 202.81 231.21
  C 206.18 232.50 210.90 235.28 213.59 231.54
  C 215.87 228.36 214.10 224.66 210.79 222.98
  Q 201.60 218.31 191.05 220.31
  C 183.63 221.71 177.62 226.59 176.68 234.43
  C 174.89 249.35 190.63 251.61 201.00 254.01
  C 202.98 254.46 205.58 256.04 205.90 258.33
  C 206.54 262.89 202.71 265.27 198.75 265.70
  C 193.59 266.26 188.12 264.97 183.81 261.91
  C 181.38 260.19 177.75 260.14 176.19 262.96
  C 172.87 268.91 179.35 272.42 184.11 274.04
  Q 195.91 278.03 205.90 274.38
  Q 214.11 271.38 216.47 264.09
  C 219.85 253.61 213.35 245.89 203.50 243.60
  Q 197.33 242.16 192.27 240.90
  Z
  M 243.91 220.53
  C 233.50 222.60 227.77 231.58 226.96 241.84
  C 225.94 254.69 227.06 268.16 240.09 274.03
  C 251.25 279.05 264.41 273.80 268.91 262.36
  A 1.75 1.74 -42.0 0 0 268.97 261.24
  Q 268.61 259.88 267.58 259.65
  Q 265.26 259.14 264.24 261.28
  Q 260.80 268.47 254.30 270.23
  Q 242.57 273.43 235.40 264.35
  C 230.97 258.74 231.63 250.41 231.72 243.71
  C 231.82 236.80 234.10 230.99 240.04 227.24
  Q 243.79 224.87 248.71 224.81
  Q 259.18 224.69 264.40 234.85
  Q 265.14 236.29 266.76 236.47
  Q 267.37 236.54 267.83 236.25
  Q 269.77 235.00 268.84 232.89
  C 264.42 222.95 254.49 218.42 243.91 220.53
  Z
  M 335.57 220.14
  C 327.37 220.94 320.28 226.60 317.35 234.19
  Q 315.72 238.44 315.56 244.99
  Q 315.39 252.51 316.01 256.13
  Q 318.19 268.66 328.26 273.52
  C 341.07 279.70 355.49 273.62 360.13 260.16
  C 361.91 255.03 361.44 249.66 361.48 244.45
  C 361.57 229.55 350.93 218.65 335.57 220.14
  Z
  M 152.24 262.07
  Q 150.93 263.01 149.36 263.56
  C 141.55 266.33 129.18 266.02 129.07 254.54
  Q 128.94 242.09 129.06 227.13
  Q 129.07 225.11 128.25 223.37
  C 126.39 219.43 120.16 219.44 118.27 223.22
  Q 117.35 225.05 117.42 228.29
  Q 117.70 240.38 117.49 251.84
  Q 117.38 257.86 118.69 262.05
  C 124.45 280.53 150.25 278.20 162.55 269.55
  C 163.43 268.92 164.03 267.30 164.03 266.26
  Q 164.02 246.69 164.08 227.10
  C 164.09 223.83 162.91 220.70 159.13 220.52
  Q 152.75 220.20 152.75 226.79
  Q 152.77 244.62 152.78 261.02
  Q 152.78 261.68 152.24 262.07
  Z
  M 283.49 270.47
  A 0.49 0.48 0.0 0 1 283.00 269.99
  L 283.00 222.27
  A 1.76 1.75 -89.7 0 0 281.27 220.51
  L 280.67 220.50
  A 2.33 2.33 0.0 0 0 278.30 222.83
  L 278.30 270.78
  A 4.24 4.23 89.9 0 0 282.53 275.01
  L 311.02 275.00
  A 2.16 2.15 0.7 0 0 313.18 272.90
  Q 313.19 272.40 313.02 271.88
  A 2.08 2.07 80.9 0 0 311.05 270.45
  L 283.49 270.47
  Z
  M 394.68 270.93
  Q 389.07 271.37 385.35 269.70
  C 376.88 265.91 375.34 258.41 375.43 249.24
  Q 375.56 235.17 375.43 222.40
  Q 375.41 220.58 373.58 220.52
  L 373.08 220.50
  Q 370.73 220.42 370.71 222.77
  Q 370.47 246.51 370.87 255.32
  C 371.37 266.21 378.50 274.07 389.20 275.70
  Q 395.53 276.67 401.05 274.28
  Q 414.26 268.59 414.18 253.45
  Q 414.09 237.56 414.11 222.28
  Q 414.11 220.34 412.17 220.41
  L 411.68 220.43
  Q 409.49 220.51 409.48 222.70
  Q 409.41 237.21 409.51 252.45
  C 409.56 261.58 404.49 270.15 394.68 270.93
  Z
  M 426.16 224.41
  L 426.08 271.27
  A 3.76 3.76 0.0 0 0 429.83 275.04
  L 445.89 275.07
  A 22.98 22.46 -89.9 0 0 468.39 252.13
  L 468.41 243.71
  A 22.98 22.46 -89.9 0 0 445.99 220.69
  L 429.93 220.66
  A 3.76 3.76 0.0 0 0 426.16 224.41
  Z"
/>
<path fill="#80b960" d="
  M 324.02 18.94
  L 323.23 21.48
  Q 323.09 21.94 322.80 22.33
  Q 322.30 22.99 322.28 23.84
  Q 322.26 24.51 322.18 25.16
  Q 321.71 29.05 321.39 32.72
  Q 321.01 37.06 320.41 40.25
  Q 319.20 46.71 318.54 53.02
  Q 318.36 54.72 318.20 56.48
  Q 317.54 64.03 315.91 73.78
  Q 315.62 75.53 315.24 77.14
  Q 314.88 78.70 314.63 80.42
  Q 312.54 95.05 310.75 109.42
  Q 310.63 110.37 310.49 111.25
  Q 309.37 118.30 308.50 125.51
  Q 307.41 134.41 306.02 144.03
  Q 305.85 145.22 305.65 146.47
  Q 305.10 149.98 304.77 153.61
  Q 304.59 155.50 304.11 157.36
  Q 303.63 159.21 303.62 161.00
  Q 303.61 161.31 303.40 161.54
  Q 302.99 161.96 303.10 162.54
  Q 303.33 163.83 302.74 164.94
  Q 302.57 165.26 302.67 165.60
  Q 302.72 165.75 302.77 165.91
  Q 302.88 166.24 302.84 166.61
  Q 302.03 173.92 301.02 181.17
  L 287.28 181.16
  Q 288.32 171.88 287.06 162.69
  C 286.60 159.32 287.03 156.00 286.62 152.58
  Q 286.32 150.05 286.21 147.52
  Q 286.09 145.01 285.71 142.48
  Q 285.02 137.76 284.92 135.68
  Q 284.75 132.09 284.39 128.32
  Q 284.14 125.79 284.02 123.18
  Q 283.90 120.73 283.56 118.11
  Q 282.83 112.52 282.61 106.97
  Q 282.38 101.41 281.63 96.10
  Q 280.69 89.44 280.22 83.02
  Q 280.05 80.65 279.74 78.30
  Q 279.43 75.99 279.31 73.65
  Q 278.83 64.12 277.62 54.89
  Q 277.25 52.14 277.14 49.68
  Q 277.01 47.00 276.96 44.04
  Q 276.93 42.16 276.37 40.85
  Q 276.18 40.40 276.32 39.94
  Q 276.51 39.28 276.35 38.62
  Q 275.62 35.80 275.42 32.54
  Q 275.40 32.04 274.92 31.92
  Q 274.42 31.79 273.72 31.90
  Q 296.06 15.07 324.02 18.94
  Z"
/>
<path fill="#6bb46a" d="
  M 324.02 18.94
  Q 345.90 22.52 361.30 38.46
  Q 360.24 37.80 359.52 37.83
  Q 358.99 37.85 358.97 38.38
  Q 358.90 40.24 358.31 42.05
  Q 357.34 45.05 357.22 45.54
  Q 356.50 48.32 355.61 50.73
  C 355.33 51.50 354.58 52.08 354.36 52.89
  Q 353.86 54.75 353.10 56.63
  Q 352.65 57.77 352.56 58.91
  Q 352.46 60.19 351.81 61.25
  Q 351.51 61.74 351.63 62.30
  Q 351.87 63.51 350.82 64.02
  Q 350.38 64.24 350.38 64.72
  L 350.38 67.83
  A 1.79 1.73 -30.5 0 1 350.13 68.73
  Q 348.91 70.75 348.26 72.84
  Q 347.58 75.01 346.71 77.13
  Q 345.55 79.96 344.65 82.61
  C 344.23 83.87 344.54 84.95 344.12 86.25
  Q 340.42 97.77 336.12 109.09
  C 335.72 110.14 336.15 110.93 335.44 111.84
  Q 334.83 112.61 334.52 113.54
  Q 331.82 121.52 329.42 129.45
  Q 329.36 129.63 329.23 129.77
  Q 329.10 129.91 328.97 130.04
  Q 328.74 130.26 328.64 130.56
  Q 327.25 134.78 325.64 138.97
  Q 324.10 142.98 322.82 147.59
  Q 321.10 153.75 318.52 160.01
  Q 318.24 160.69 318.35 161.57
  Q 318.41 162.09 318.17 162.56
  Q 317.55 163.72 317.34 164.91
  Q 317.06 166.52 316.28 168.07
  Q 315.53 169.54 315.12 171.65
  Q 314.64 174.08 313.48 176.29
  Q 312.50 178.17 311.83 180.24
  Q 311.64 180.82 312.25 180.75
  Q 313.78 180.59 314.52 181.18
  L 301.02 181.17
  Q 302.03 173.92 302.84 166.61
  Q 302.88 166.24 302.77 165.91
  Q 302.72 165.75 302.67 165.60
  Q 302.57 165.26 302.74 164.94
  Q 303.33 163.83 303.10 162.54
  Q 302.99 161.96 303.40 161.54
  Q 303.61 161.31 303.62 161.00
  Q 303.63 159.21 304.11 157.36
  Q 304.59 155.50 304.77 153.61
  Q 305.10 149.98 305.65 146.47
  Q 305.85 145.22 306.02 144.03
  Q 307.41 134.41 308.50 125.51
  Q 309.37 118.30 310.49 111.25
  Q 310.63 110.37 310.75 109.42
  Q 312.54 95.05 314.63 80.42
  Q 314.88 78.70 315.24 77.14
  Q 315.62 75.53 315.91 73.78
  Q 317.54 64.03 318.20 56.48
  Q 318.36 54.72 318.54 53.02
  Q 319.20 46.71 320.41 40.25
  Q 321.01 37.06 321.39 32.72
  Q 321.71 29.05 322.18 25.16
  Q 322.26 24.51 322.28 23.84
  Q 322.30 22.99 322.80 22.33
  Q 323.09 21.94 323.23 21.48
  L 324.02 18.94
  Z"
/>
<path fill="#9ec44d" d="
  M 273.72 31.90
  Q 274.42 31.79 274.92 31.92
  Q 275.40 32.04 275.42 32.54
  Q 275.62 35.80 276.35 38.62
  Q 276.51 39.28 276.32 39.94
  Q 276.18 40.40 276.37 40.85
  Q 276.93 42.16 276.96 44.04
  Q 277.01 47.00 277.14 49.68
  Q 277.25 52.14 277.62 54.89
  Q 278.83 64.12 279.31 73.65
  Q 279.43 75.99 279.74 78.30
  Q 280.05 80.65 280.22 83.02
  Q 280.69 89.44 281.63 96.10
  Q 282.38 101.41 282.61 106.97
  Q 282.83 112.52 283.56 118.11
  Q 283.90 120.73 284.02 123.18
  Q 284.14 125.79 284.39 128.32
  Q 284.75 132.09 284.92 135.68
  Q 285.02 137.76 285.71 142.48
  Q 286.09 145.01 286.21 147.52
  Q 286.32 150.05 286.62 152.58
  C 287.03 156.00 286.60 159.32 287.06 162.69
  Q 288.32 171.88 287.28 181.16
  L 277.49 181.21
  Q 276.34 179.51 276.50 178.49
  Q 276.56 178.13 276.52 177.77
  Q 276.29 176.00 275.32 174.47
  Q 275.05 174.04 275.12 173.53
  Q 275.28 172.39 274.44 171.60
  Q 274.08 171.25 274.05 170.75
  Q 274.00 169.57 273.59 168.80
  Q 273.12 167.90 272.95 166.99
  Q 272.58 164.99 271.98 162.99
  Q 270.10 156.72 268.18 150.59
  Q 267.84 149.48 267.33 148.45
  Q 266.79 147.36 266.61 146.19
  Q 266.36 144.53 265.70 142.94
  Q 263.80 138.33 263.09 133.60
  Q 262.90 132.29 262.38 130.97
  Q 261.90 129.75 261.56 128.51
  Q 258.36 116.77 255.06 105.01
  Q 254.65 103.54 254.09 101.81
  Q 252.38 96.55 250.41 91.01
  Q 249.57 88.64 249.16 86.37
  Q 248.72 83.89 247.78 81.82
  Q 245.98 77.83 245.82 73.19
  Q 245.81 72.68 245.50 72.28
  Q 243.93 70.16 244.16 67.12
  Q 244.19 66.73 244.02 66.37
  L 242.83 63.80
  Q 242.76 63.64 242.59 63.59
  Q 242.47 63.55 242.34 63.60
  Q 241.97 63.73 241.71 63.43
  Q 241.56 63.26 241.63 63.06
  Q 241.73 62.76 242.03 62.70
  Q 242.48 62.60 242.73 62.30
  L 250.11 66.15
  A 0.67 0.67 0.0 0 0 251.06 65.75
  Q 256.90 45.17 273.72 31.90
  Z"
/>
<path fill="#4daa7e" d="
  M 361.30 38.46
  Q 374.81 52.70 378.35 72.68
  Q 377.68 77.45 375.31 81.89
  Q 375.04 82.40 375.01 82.97
  Q 374.94 84.55 373.78 85.43
  Q 373.32 85.79 373.28 86.37
  Q 373.24 86.85 372.86 87.15
  Q 372.45 87.46 372.28 87.93
  Q 372.12 88.36 372.14 88.80
  Q 372.16 89.31 371.78 89.65
  Q 370.79 90.59 370.61 92.05
  Q 370.55 92.55 370.09 92.77
  Q 367.83 93.86 368.10 96.55
  Q 368.23 97.86 366.99 98.07
  Q 366.56 98.14 366.30 98.49
  Q 364.46 100.98 363.83 104.02
  Q 363.73 104.49 363.40 104.85
  Q 362.73 105.57 362.60 106.53
  Q 362.54 107.01 362.22 107.38
  Q 360.06 109.86 358.20 112.96
  Q 357.17 114.68 356.88 116.81
  Q 356.40 120.30 353.97 123.22
  Q 353.11 124.26 352.62 125.33
  Q 352.07 126.55 351.43 127.78
  Q 351.32 127.99 351.10 128.02
  Q 350.73 128.07 350.65 128.43
  Q 350.30 129.91 349.47 131.60
  Q 347.28 136.06 345.42 140.20
  Q 345.20 140.70 344.71 140.89
  Q 344.24 141.08 344.01 141.54
  Q 342.82 143.96 341.60 146.75
  Q 339.09 152.49 335.61 157.70
  C 335.08 158.51 335.28 159.45 334.56 160.30
  Q 334.00 160.97 333.43 161.61
  Q 332.67 162.46 332.16 163.60
  Q 331.32 165.48 330.42 167.20
  Q 330.19 167.64 330.07 168.11
  Q 329.93 168.62 329.67 169.02
  Q 326.96 173.24 325.43 177.34
  Q 325.28 177.75 324.94 178.03
  Q 324.15 178.68 324.10 179.78
  Q 324.09 180.11 324.41 180.16
  Q 324.70 180.21 324.77 180.50
  Q 324.88 180.95 324.27 181.17
  L 314.52 181.18
  Q 313.78 180.59 312.25 180.75
  Q 311.64 180.82 311.83 180.24
  Q 312.50 178.17 313.48 176.29
  Q 314.64 174.08 315.12 171.65
  Q 315.53 169.54 316.28 168.07
  Q 317.06 166.52 317.34 164.91
  Q 317.55 163.72 318.17 162.56
  Q 318.41 162.09 318.35 161.57
  Q 318.24 160.69 318.52 160.01
  Q 321.10 153.75 322.82 147.59
  Q 324.10 142.98 325.64 138.97
  Q 327.25 134.78 328.64 130.56
  Q 328.74 130.26 328.97 130.04
  Q 329.10 129.91 329.23 129.77
  Q 329.36 129.63 329.42 129.45
  Q 331.82 121.52 334.52 113.54
  Q 334.83 112.61 335.44 111.84
  C 336.15 110.93 335.72 110.14 336.12 109.09
  Q 340.42 97.77 344.12 86.25
  C 344.54 84.95 344.23 83.87 344.65 82.61
  Q 345.55 79.96 346.71 77.13
  Q 347.58 75.01 348.26 72.84
  Q 348.91 70.75 350.13 68.73
  A 1.79 1.73 -30.5 0 0 350.38 67.83
  L 350.38 64.72
  Q 350.38 64.24 350.82 64.02
  Q 351.87 63.51 351.63 62.30
  Q 351.51 61.74 351.81 61.25
  Q 352.46 60.19 352.56 58.91
  Q 352.65 57.77 353.10 56.63
  Q 353.86 54.75 354.36 52.89
  C 354.58 52.08 355.33 51.50 355.61 50.73
  Q 356.50 48.32 357.22 45.54
  Q 357.34 45.05 358.31 42.05
  Q 358.90 40.24 358.97 38.38
  Q 358.99 37.85 359.52 37.83
  Q 360.24 37.80 361.30 38.46
  Z"
/>
<path fill="#c2d143" d="
  M 242.73 62.30
  Q 242.48 62.60 242.03 62.70
  Q 241.73 62.76 241.63 63.06
  Q 241.56 63.26 241.71 63.43
  Q 241.97 63.73 242.34 63.60
  Q 242.47 63.55 242.59 63.59
  Q 242.76 63.64 242.83 63.80
  L 244.02 66.37
  Q 244.19 66.73 244.16 67.12
  Q 243.93 70.16 245.50 72.28
  Q 245.81 72.68 245.82 73.19
  Q 245.98 77.83 247.78 81.82
  Q 248.72 83.89 249.16 86.37
  Q 249.57 88.64 250.41 91.01
  Q 252.38 96.55 254.09 101.81
  Q 254.65 103.54 255.06 105.01
  Q 258.36 116.77 261.56 128.51
  Q 261.90 129.75 262.38 130.97
  Q 262.90 132.29 263.09 133.60
  Q 263.80 138.33 265.70 142.94
  Q 266.36 144.53 266.61 146.19
  Q 266.79 147.36 267.33 148.45
  Q 267.84 149.48 268.18 150.59
  Q 270.10 156.72 271.98 162.99
  Q 272.58 164.99 272.95 166.99
  Q 273.12 167.90 273.59 168.80
  Q 274.00 169.57 274.05 170.75
  Q 274.08 171.25 274.44 171.60
  Q 275.28 172.39 275.12 173.53
  Q 275.05 174.04 275.32 174.47
  Q 276.29 176.00 276.52 177.77
  Q 276.56 178.13 276.50 178.49
  Q 276.34 179.51 277.49 181.21
  L 260.82 180.98
  L 258.35 180.18
  Q 257.82 180.01 257.88 179.45
  Q 257.94 178.96 257.63 178.64
  Q 257.28 178.29 256.95 177.91
  Q 255.72 176.51 255.21 175.14
  Q 254.87 174.26 254.31 173.24
  Q 252.65 170.19 250.60 166.94
  Q 250.38 166.61 250.02 166.45
  Q 249.83 166.37 249.68 166.23
  Q 249.34 165.93 249.27 165.48
  Q 249.07 164.21 247.90 163.53
  A 0.93 0.92 10.6 0 1 247.45 162.88
  Q 247.21 161.58 246.41 160.66
  Q 245.62 159.75 245.06 158.72
  Q 242.83 154.64 240.32 151.06
  Q 239.95 150.52 239.83 149.89
  Q 239.66 148.98 238.85 148.45
  A 2.12 2.07 5.1 0 1 238.08 147.55
  Q 237.61 146.46 236.69 145.64
  Q 235.67 144.73 234.98 143.43
  Q 234.34 142.22 233.69 141.04
  Q 233.28 140.31 232.54 140.41
  Q 232.25 140.45 232.36 140.18
  Q 232.87 138.84 231.44 138.61
  Q 230.90 138.52 230.66 138.03
  Q 230.04 136.80 229.95 135.55
  Q 229.93 135.27 229.70 135.14
  Q 227.33 133.80 226.91 130.86
  A 0.92 0.83 25.5 0 0 226.75 130.47
  L 224.03 126.90
  Q 223.83 126.65 223.57 126.45
  Q 222.85 125.93 223.10 125.02
  Q 223.25 124.48 222.86 124.09
  L 220.26 121.43
  Q 219.95 121.13 219.79 120.72
  Q 219.02 118.79 217.25 117.30
  Q 215.51 115.84 215.46 113.61
  Q 215.45 113.19 215.17 112.88
  Q 213.08 110.54 212.27 107.62
  Q 212.14 107.12 211.70 106.85
  Q 211.26 106.57 210.84 106.20
  Q 210.21 105.64 210.01 104.85
  C 209.33 102.13 207.52 100.96 205.67 99.03
  A 1.52 1.49 21.5 0 1 205.26 98.11
  Q 205.20 97.41 204.67 97.02
  Q 204.03 96.56 203.59 95.90
  Q 202.49 94.26 201.37 92.58
  Q 201.12 92.19 201.09 91.73
  Q 201.02 90.63 200.17 90.09
  Q 199.87 89.90 199.78 89.56
  Q 199.30 87.80 197.79 86.93
  Q 197.35 86.67 197.20 86.18
  Q 196.53 84.06 195.21 82.54
  Q 194.20 81.36 193.41 79.85
  Q 192.28 77.70 190.33 75.59
  Q 190.02 75.26 189.70 75.57
  Q 189.51 75.74 189.57 75.49
  Q 189.59 75.39 189.67 75.34
  Q 190.11 75.07 189.64 74.73
  Q 189.24 74.45 189.18 73.83
  Q 206.15 56.43 230.49 59.02
  Q 236.53 59.67 242.73 62.30
  Z"
/>
<path fill="#49a195" d="
  M 378.35 72.68
  Q 384.99 75.20 386.75 76.02
  Q 401.12 82.71 410.02 96.47
  Q 409.93 98.33 408.85 98.45
  Q 408.04 98.54 408.10 99.20
  Q 408.12 99.43 407.85 99.44
  Q 407.49 99.47 407.32 99.78
  Q 406.29 101.68 404.76 102.95
  Q 403.17 104.27 402.25 105.71
  Q 401.25 107.27 400.15 108.77
  Q 399.71 109.37 399.05 109.43
  A 1.30 1.30 0.0 0 0 398.06 110.05
  Q 397.24 111.38 395.89 112.52
  Q 395.48 112.86 395.35 113.38
  Q 395.22 113.94 395.58 113.90
  Q 396.73 113.76 395.93 114.61
  Q 392.21 118.49 389.46 122.41
  Q 387.72 124.89 385.46 126.93
  Q 382.70 129.43 380.79 133.25
  Q 380.53 133.75 379.01 134.77
  Q 378.80 134.91 378.75 134.67
  Q 378.62 134.04 378.63 134.69
  Q 378.66 135.96 377.33 136.22
  Q 376.82 136.32 376.51 136.73
  Q 374.80 138.98 373.21 141.37
  Q 371.76 143.56 369.62 145.79
  Q 367.25 148.25 365.25 150.94
  Q 363.60 153.15 361.79 155.15
  Q 359.96 157.16 358.37 159.39
  Q 356.62 161.84 354.60 164.20
  Q 352.54 166.61 350.64 168.96
  Q 350.59 169.03 350.51 168.99
  Q 350.35 168.93 350.36 168.79
  Q 350.37 168.70 350.38 168.79
  Q 350.39 169.02 350.35 169.24
  Q 350.31 169.46 350.19 169.65
  Q 347.93 173.11 345.44 176.05
  Q 345.35 176.15 345.47 176.23
  Q 345.52 176.27 345.53 176.32
  Q 345.57 176.48 345.49 176.62
  Q 344.76 177.79 343.85 178.98
  Q 343.59 179.31 343.62 179.74
  Q 343.64 180.06 343.85 180.31
  Q 344.29 180.84 343.62 181.01
  L 343.03 181.16
  L 324.27 181.17
  Q 324.88 180.95 324.77 180.50
  Q 324.70 180.21 324.41 180.16
  Q 324.09 180.11 324.10 179.78
  Q 324.15 178.68 324.94 178.03
  Q 325.28 177.75 325.43 177.34
  Q 326.96 173.24 329.67 169.02
  Q 329.93 168.62 330.07 168.11
  Q 330.19 167.64 330.42 167.20
  Q 331.32 165.48 332.16 163.60
  Q 332.67 162.46 333.43 161.61
  Q 334.00 160.97 334.56 160.30
  C 335.28 159.45 335.08 158.51 335.61 157.70
  Q 339.09 152.49 341.60 146.75
  Q 342.82 143.96 344.01 141.54
  Q 344.24 141.08 344.71 140.89
  Q 345.20 140.70 345.42 140.20
  Q 347.28 136.06 349.47 131.60
  Q 350.30 129.91 350.65 128.43
  Q 350.73 128.07 351.10 128.02
  Q 351.32 127.99 351.43 127.78
  Q 352.07 126.55 352.62 125.33
  Q 353.11 124.26 353.97 123.22
  Q 356.40 120.30 356.88 116.81
  Q 357.17 114.68 358.20 112.96
  Q 360.06 109.86 362.22 107.38
  Q 362.54 107.01 362.60 106.53
  Q 362.73 105.57 363.40 104.85
  Q 363.73 104.49 363.83 104.02
  Q 364.46 100.98 366.30 98.49
  Q 366.56 98.14 366.99 98.07
  Q 368.23 97.86 368.10 96.55
  Q 367.83 93.86 370.09 92.77
  Q 370.55 92.55 370.61 92.05
  Q 370.79 90.59 371.78 89.65
  Q 372.16 89.31 372.14 88.80
  Q 372.12 88.36 372.28 87.93
  Q 372.45 87.46 372.86 87.15
  Q 373.24 86.85 373.28 86.37
  Q 373.32 85.79 373.78 85.43
  Q 374.94 84.55 375.01 82.97
  Q 375.04 82.40 375.31 81.89
  Q 377.68 77.45 378.35 72.68
  Z"
/>
<path fill="#d9d646" d="
  M 189.18 73.83
  Q 189.24 74.45 189.64 74.73
  Q 190.11 75.07 189.67 75.34
  Q 189.59 75.39 189.57 75.49
  Q 189.51 75.74 189.70 75.57
  Q 190.02 75.26 190.33 75.59
  Q 192.28 77.70 193.41 79.85
  Q 194.20 81.36 195.21 82.54
  Q 196.53 84.06 197.20 86.18
  Q 197.35 86.67 197.79 86.93
  Q 199.30 87.80 199.78 89.56
  Q 199.87 89.90 200.17 90.09
  Q 201.02 90.63 201.09 91.73
  Q 201.12 92.19 201.37 92.58
  Q 202.49 94.26 203.59 95.90
  Q 204.03 96.56 204.67 97.02
  Q 205.20 97.41 205.26 98.11
  A 1.52 1.49 21.5 0 0 205.67 99.03
  C 207.52 100.96 209.33 102.13 210.01 104.85
  Q 210.21 105.64 210.84 106.20
  Q 211.26 106.57 211.70 106.85
  Q 212.14 107.12 212.27 107.62
  Q 213.08 110.54 215.17 112.88
  Q 215.45 113.19 215.46 113.61
  Q 215.51 115.84 217.25 117.30
  Q 219.02 118.79 219.79 120.72
  Q 219.95 121.13 220.26 121.43
  L 222.86 124.09
  Q 223.25 124.48 223.10 125.02
  Q 222.85 125.93 223.57 126.45
  Q 223.83 126.65 224.03 126.90
  L 226.75 130.47
  A 0.92 0.83 25.5 0 1 226.91 130.86
  Q 227.33 133.80 229.70 135.14
  Q 229.93 135.27 229.95 135.55
  Q 230.04 136.80 230.66 138.03
  Q 230.90 138.52 231.44 138.61
  Q 232.87 138.84 232.36 140.18
  Q 232.25 140.45 232.54 140.41
  Q 233.28 140.31 233.69 141.04
  Q 234.34 142.22 234.98 143.43
  Q 235.67 144.73 236.69 145.64
  Q 237.61 146.46 238.08 147.55
  A 2.12 2.07 5.1 0 0 238.85 148.45
  Q 239.66 148.98 239.83 149.89
  Q 239.95 150.52 240.32 151.06
  Q 242.83 154.64 245.06 158.72
  Q 245.62 159.75 246.41 160.66
  Q 247.21 161.58 247.45 162.88
  A 0.93 0.92 10.6 0 0 247.90 163.53
  Q 249.07 164.21 249.27 165.48
  Q 249.34 165.93 249.68 166.23
  Q 249.83 166.37 250.02 166.45
  Q 250.38 166.61 250.60 166.94
  Q 252.65 170.19 254.31 173.24
  Q 254.87 174.26 255.21 175.14
  Q 255.72 176.51 256.95 177.91
  Q 257.28 178.29 257.63 178.64
  Q 257.94 178.96 257.88 179.45
  Q 257.82 180.01 258.35 180.18
  L 260.82 180.98
  L 249.21 180.96
  Q 245.48 180.89 241.78 180.77
  Q 241.56 180.76 241.56 180.54
  L 241.56 180.53
  Q 241.57 180.33 241.78 180.32
  Q 242.96 180.26 243.84 180.01
  Q 244.56 179.81 244.00 179.31
  Q 242.67 178.12 241.09 177.32
  Q 240.28 176.91 239.70 176.28
  C 238.66 175.16 237.49 174.71 236.46 173.44
  C 234.64 171.21 232.88 168.89 230.76 167.10
  Q 228.50 165.19 226.92 162.84
  Q 225.99 161.46 224.53 160.54
  Q 223.14 159.66 222.16 158.70
  Q 218.46 155.03 214.83 151.20
  Q 214.46 150.81 213.93 150.73
  Q 213.39 150.65 213.28 150.12
  Q 213.16 149.56 212.75 149.16
  Q 210.39 146.89 208.10 144.47
  Q 207.52 143.86 206.89 143.67
  Q 206.42 143.52 206.10 143.14
  Q 204.40 141.14 202.40 139.41
  Q 200.87 138.10 199.90 136.30
  Q 198.82 134.31 196.70 133.03
  Q 196.24 132.75 195.97 132.28
  Q 195.24 131.04 193.85 130.44
  Q 193.42 130.26 193.27 129.81
  Q 192.74 128.16 191.24 127.84
  Q 191.05 127.79 191.08 127.60
  Q 191.29 126.16 190.21 125.11
  Q 189.34 124.27 188.72 123.36
  Q 187.91 122.17 186.51 121.24
  Q 184.79 120.10 183.76 118.23
  Q 183.44 117.64 182.92 117.23
  L 180.59 115.37
  A 1.22 1.19 -78.2 0 1 180.18 114.73
  C 179.85 113.43 178.96 113.14 178.24 112.23
  Q 177.30 111.03 175.98 109.87
  Q 175.55 109.50 175.43 108.95
  Q 174.48 104.84 170.43 104.81
  A 0.59 0.59 0.0 0 1 169.85 104.22
  Q 169.85 103.95 170.00 103.74
  L 175.80 104.02
  A 0.79 0.79 0.0 0 0 176.63 103.29
  Q 177.85 86.39 189.18 73.83
  Z"
/>
<path fill="#479db5" d="
  M 410.02 96.47
  Q 417.91 108.76 418.52 123.25
  C 419.64 149.81 402.01 172.24 376.89 178.94
  C 366.11 181.82 354.04 181.34 343.03 181.16
  L 343.62 181.01
  Q 344.29 180.84 343.85 180.31
  Q 343.64 180.06 343.62 179.74
  Q 343.59 179.31 343.85 178.98
  Q 344.76 177.79 345.49 176.62
  Q 345.57 176.48 345.53 176.32
  Q 345.52 176.27 345.47 176.23
  Q 345.35 176.15 345.44 176.05
  Q 347.93 173.11 350.19 169.65
  Q 350.31 169.46 350.35 169.24
  Q 350.39 169.02 350.38 168.79
  Q 350.37 168.70 350.36 168.79
  Q 350.35 168.93 350.51 168.99
  Q 350.59 169.03 350.64 168.96
  Q 352.54 166.61 354.60 164.20
  Q 356.62 161.84 358.37 159.39
  Q 359.96 157.16 361.79 155.15
  Q 363.60 153.15 365.25 150.94
  Q 367.25 148.25 369.62 145.79
  Q 371.76 143.56 373.21 141.37
  Q 374.80 138.98 376.51 136.73
  Q 376.82 136.32 377.33 136.22
  Q 378.66 135.96 378.63 134.69
  Q 378.62 134.04 378.75 134.67
  Q 378.80 134.91 379.01 134.77
  Q 380.53 133.75 380.79 133.25
  Q 382.70 129.43 385.46 126.93
  Q 387.72 124.89 389.46 122.41
  Q 392.21 118.49 395.93 114.61
  Q 396.73 113.76 395.58 113.90
  Q 395.22 113.94 395.35 113.38
  Q 395.48 112.86 395.89 112.52
  Q 397.24 111.38 398.06 110.05
  A 1.30 1.30 0.0 0 1 399.05 109.43
  Q 399.71 109.37 400.15 108.77
  Q 401.25 107.27 402.25 105.71
  Q 403.17 104.27 404.76 102.95
  Q 406.29 101.68 407.32 99.78
  Q 407.49 99.47 407.85 99.44
  Q 408.12 99.43 408.10 99.20
  Q 408.04 98.54 408.85 98.45
  Q 409.93 98.33 410.02 96.47
  Z"
/>
<path fill="#f1db49" d="
  M 170.00 103.74
  Q 169.85 103.95 169.85 104.22
  A 0.59 0.59 0.0 0 0 170.43 104.81
  Q 174.48 104.84 175.43 108.95
  Q 175.55 109.50 175.98 109.87
  Q 177.30 111.03 178.24 112.23
  C 178.96 113.14 179.85 113.43 180.18 114.73
  A 1.22 1.19 -78.2 0 0 180.59 115.37
  L 182.92 117.23
  Q 183.44 117.64 183.76 118.23
  Q 184.79 120.10 186.51 121.24
  Q 187.91 122.17 188.72 123.36
  Q 189.34 124.27 190.21 125.11
  Q 191.29 126.16 191.08 127.60
  Q 191.05 127.79 191.24 127.84
  Q 192.74 128.16 193.27 129.81
  Q 193.42 130.26 193.85 130.44
  Q 195.24 131.04 195.97 132.28
  Q 196.24 132.75 196.70 133.03
  Q 198.82 134.31 199.90 136.30
  Q 200.87 138.10 202.40 139.41
  Q 204.40 141.14 206.10 143.14
  Q 206.42 143.52 206.89 143.67
  Q 207.52 143.86 208.10 144.47
  Q 210.39 146.89 212.75 149.16
  Q 213.16 149.56 213.28 150.12
  Q 213.39 150.65 213.93 150.73
  Q 214.46 150.81 214.83 151.20
  Q 218.46 155.03 222.16 158.70
  Q 223.14 159.66 224.53 160.54
  Q 225.99 161.46 226.92 162.84
  Q 228.50 165.19 230.76 167.10
  C 232.88 168.89 234.64 171.21 236.46 173.44
  C 237.49 174.71 238.66 175.16 239.70 176.28
  Q 240.28 176.91 241.09 177.32
  Q 242.67 178.12 244.00 179.31
  Q 244.56 179.81 243.84 180.01
  Q 242.96 180.26 241.78 180.32
  Q 241.57 180.33 241.56 180.53
  L 241.56 180.54
  Q 241.56 180.76 241.78 180.77
  Q 245.48 180.89 249.21 180.96
  Q 196.31 181.27 175.75 181.21
  C 168.28 181.19 159.04 179.88 152.33 176.38
  C 136.48 168.11 128.44 152.55 131.50 135.02
  Q 132.82 127.49 137.91 120.41
  Q 149.04 104.93 170.00 103.74
  Z"
/>
<ellipse fill="#f1db49" cx="87.21" cy="158.35" rx="26.38" ry="25.63"/>
<path fill="#2c62aa" d="
  M 45.53 242.13
  C 45.38 237.21 45.44 232.10 39.76 230.45
  C 33.86 228.74 28.09 230.17 22.34 232.07
  C 19.85 232.90 16.44 232.22 15.39 229.58
  C 12.23 221.66 26.13 220.01 30.70 219.40
  C 37.44 218.50 47.08 219.83 51.78 225.18
  Q 56.03 230.03 56.31 235.88
  Q 56.77 245.76 56.47 267.79
  Q 56.47 268.31 56.18 268.74
  Q 54.72 270.92 51.34 272.39
  C 41.59 276.63 28.61 278.65 19.24 273.14
  C 9.67 267.51 7.84 252.56 17.38 245.50
  Q 22.54 241.68 29.33 241.31
  Q 38.32 240.83 44.82 242.69
  Q 45.55 242.90 45.53 242.13
  Z
  M 22.85 256.02
  C 21.22 262.37 25.98 265.93 31.79 266.30
  Q 38.91 266.75 44.60 263.91
  Q 45.49 263.48 45.48 262.49
  L 45.45 252.76
  Q 45.44 252.19 44.88 252.06
  C 39.52 250.84 24.88 248.13 22.85 256.02
  Z"
/>
<path fill="#2c62aa" d="
  M 96.58 258.85
  C 96.50 256.18 93.72 254.55 91.49 254.03
  C 81.42 251.67 66.59 249.72 67.13 235.62
  Q 67.40 228.52 72.88 224.23
  C 80.86 217.96 93.57 218.69 101.81 223.28
  C 108.19 226.84 104.79 235.77 97.67 232.86
  C 92.46 230.74 88.42 229.05 82.55 230.66
  C 76.24 232.38 76.65 239.57 83.05 240.98
  Q 91.17 242.78 96.24 244.25
  C 102.22 246.00 107.12 250.54 107.70 257.22
  C 108.64 268.12 100.87 274.42 90.72 275.79
  Q 80.49 277.17 70.84 272.34
  C 67.46 270.65 64.39 267.64 66.40 263.53
  C 68.00 260.29 71.47 259.93 74.21 261.84
  C 79.68 265.65 87.06 266.99 92.67 264.75
  Q 96.71 263.14 96.58 258.85
  Z"
/>
<path fill="#2c62aa" d="
  M 192.27 240.90
  Q 197.33 242.16 203.50 243.60
  C 213.35 245.89 219.85 253.61 216.47 264.09
  Q 214.11 271.38 205.90 274.38
  Q 195.91 278.03 184.11 274.04
  C 179.35 272.42 172.87 268.91 176.19 262.96
  C 177.75 260.14 181.38 260.19 183.81 261.91
  C 188.12 264.97 193.59 266.26 198.75 265.70
  C 202.71 265.27 206.54 262.89 205.90 258.33
  C 205.58 256.04 202.98 254.46 201.00 254.01
  C 190.63 251.61 174.89 249.35 176.68 234.43
  C 177.62 226.59 183.63 221.71 191.05 220.31
  Q 201.60 218.31 210.79 222.98
  C 214.10 224.66 215.87 228.36 213.59 231.54
  C 210.90 235.28 206.18 232.50 202.81 231.21
  C 199.19 229.81 190.91 229.01 188.51 232.95
  C 186.28 236.61 188.50 239.96 192.27 240.90
  Z"
/>
<path fill="#898989" d="
  M 243.91 220.53
  C 254.49 218.42 264.42 222.95 268.84 232.89
  Q 269.77 235.00 267.83 236.25
  Q 267.37 236.54 266.76 236.47
  Q 265.14 236.29 264.40 234.85
  Q 259.18 224.69 248.71 224.81
  Q 243.79 224.87 240.04 227.24
  C 234.10 230.99 231.82 236.80 231.72 243.71
  C 231.63 250.41 230.97 258.74 235.40 264.35
  Q 242.57 273.43 254.30 270.23
  Q 260.80 268.47 264.24 261.28
  Q 265.26 259.14 267.58 259.65
  Q 268.61 259.88 268.97 261.24
  A 1.75 1.74 -42.0 0 1 268.91 262.36
  C 264.41 273.80 251.25 279.05 240.09 274.03
  C 227.06 268.16 225.94 254.69 226.96 241.84
  C 227.77 231.58 233.50 222.60 243.91 220.53
  Z"
/>
<path fill="#898989" d="
  M 317.35 234.19
  C 320.28 226.60 327.37 220.94 335.57 220.14
  C 350.93 218.65 361.57 229.55 361.48 244.45
  C 361.44 249.66 361.91 255.03 360.13 260.16
  C 355.49 273.62 341.07 279.70 328.26 273.52
  Q 318.19 268.66 316.01 256.13
  Q 315.39 252.51 315.56 244.99
  Q 315.72 238.44 317.35 234.19
  Z
  M 336.00 270.90
  C 346.58 271.98 354.76 265.65 356.20 255.27
  C 357.36 246.96 357.32 236.85 351.50 230.68
  C 340.32 218.84 322.68 225.88 320.66 241.35
  Q 319.63 249.28 321.06 256.66
  C 322.50 264.08 328.33 270.11 336.00 270.90
  Z"
/>
<path fill="#2c62aa" d="
  M 152.78 261.02
  Q 152.77 244.62 152.75 226.79
  Q 152.75 220.20 159.13 220.52
  C 162.91 220.70 164.09 223.83 164.08 227.10
  Q 164.02 246.69 164.03 266.26
  C 164.03 267.30 163.43 268.92 162.55 269.55
  C 150.25 278.20 124.45 280.53 118.69 262.05
  Q 117.38 257.86 117.49 251.84
  Q 117.70 240.38 117.42 228.29
  Q 117.35 225.05 118.27 223.22
  C 120.16 219.44 126.39 219.43 128.25 223.37
  Q 129.07 225.11 129.06 227.13
  Q 128.94 242.09 129.07 254.54
  C 129.18 266.02 141.55 266.33 149.36 263.56
  Q 150.93 263.01 152.24 262.07
  Q 152.78 261.68 152.78 261.02
  Z"
/>
<path fill="#898989" d="
  M 283.49 270.47
  L 311.05 270.45
  A 2.08 2.07 80.9 0 1 313.02 271.88
  Q 313.19 272.40 313.18 272.90
  A 2.16 2.15 0.7 0 1 311.02 275.00
  L 282.53 275.01
  A 4.24 4.23 89.9 0 1 278.30 270.78
  L 278.30 222.83
  A 2.33 2.33 0.0 0 1 280.67 220.50
  L 281.27 220.51
  A 1.76 1.75 -89.7 0 1 283.00 222.27
  L 283.00 269.99
  A 0.49 0.48 0.0 0 0 283.49 270.47
  Z"
/>
<path fill="#898989" d="
  M 394.68 270.93
  C 404.49 270.15 409.56 261.58 409.51 252.45
  Q 409.41 237.21 409.48 222.70
  Q 409.49 220.51 411.68 220.43
  L 412.17 220.41
  Q 414.11 220.34 414.11 222.28
  Q 414.09 237.56 414.18 253.45
  Q 414.26 268.59 401.05 274.28
  Q 395.53 276.67 389.20 275.70
  C 378.50 274.07 371.37 266.21 370.87 255.32
  Q 370.47 246.51 370.71 222.77
  Q 370.73 220.42 373.08 220.50
  L 373.58 220.52
  Q 375.41 220.58 375.43 222.40
  Q 375.56 235.17 375.43 249.24
  C 375.34 258.41 376.88 265.91 385.35 269.70
  Q 389.07 271.37 394.68 270.93
  Z"
/>
<path fill="#898989" d="
  M 426.16 224.41
  A 3.76 3.76 0.0 0 1 429.93 220.66
  L 445.99 220.69
  A 22.98 22.46 -89.9 0 1 468.41 243.71
  L 468.39 252.13
  A 22.98 22.46 -89.9 0 1 445.89 275.07
  L 429.83 275.04
  A 3.76 3.76 0.0 0 1 426.08 271.27
  L 426.16 224.41
  Z
  M 430.90 225.92
  L 430.74 269.86
  A 0.63 0.63 0.0 0 0 431.37 270.49
  L 445.11 270.54
  A 18.75 18.47 -89.8 0 0 463.65 251.86
  L 463.67 244.16
  A 18.75 18.47 -89.8 0 0 445.27 225.34
  L 431.53 225.30
  A 0.63 0.63 0.0 0 0 430.90 225.92
  Z"
/>
<path fill="#ffffff" d="
  M 336.00 270.90
  C 328.33 270.11 322.50 264.08 321.06 256.66
  Q 319.63 249.28 320.66 241.35
  C 322.68 225.88 340.32 218.84 351.50 230.68
  C 357.32 236.85 357.36 246.96 356.20 255.27
  C 354.76 265.65 346.58 271.98 336.00 270.90
  Z"
/>
<path fill="#ffffff" d="
  M 430.90 225.92
  A 0.63 0.63 0.0 0 1 431.53 225.30
  L 445.27 225.34
  A 18.75 18.47 -89.8 0 1 463.67 244.16
  L 463.65 251.86
  A 18.75 18.47 -89.8 0 1 445.11 270.54
  L 431.37 270.49
  A 0.63 0.63 0.0 0 1 430.74 269.86
  L 430.90 225.92
  Z"
/>
<path fill="#ffffff" d="
  M 22.85 256.02
  C 24.88 248.13 39.52 250.84 44.88 252.06
  Q 45.44 252.19 45.45 252.76
  L 45.48 262.49
  Q 45.49 263.48 44.60 263.91
  Q 38.91 266.75 31.79 266.30
  C 25.98 265.93 21.22 262.37 22.85 256.02
  Z"
/>
</svg>

