
<?xml version="1.0" encoding="UTF-8"?>
<svg id="svg8" width="2191.2pt" height="1e3pt" version="1.1" viewBox="0 0 2191.2 1e3" xmlns="http://www.w3.org/2000/svg" xmlns:cc="http://creativecommons.org/ns#" xmlns:dc="http://purl.org/dc/elements/1.1/" xmlns:rdf="http://www.w3.org/1999/02/22-rdf-syntax-ns#">
 <defs id="defs2">
  <clipPath id="clipPath3424">
   <path id="path3422" d="m144 682h105v-45h-105z" clip-rule="evenodd"/>
  </clipPath>
  <clipPath id="clipPath3430">
   <path id="path3428" d="m98 728h398v-614h-398z"/>
  </clipPath>
  <clipPath id="clipPath3436">
   <path id="path3434" d="m0.029999 841.98h595.02v-841.98h-595.02z"/>
  </clipPath>
 </defs>
 <metadata id="metadata5">
  <rdf:RDF>
   <cc:Work rdf:about="">
    <dc:format>image/svg+xml</dc:format>
    <dc:type rdf:resource="http://purl.org/dc/dcmitype/StillImage"/>
    <dc:title/>
   </cc:Work>
  </rdf:RDF>
 </metadata>
 <g id="layer1" transform="translate(29.562 923.51)">
  <g id="g3418" transform="matrix(22.379 0 0 -22.379 -3256.7 14334)">
   <g id="g3420" clip-path="url(#clipPath3424)">
    <g id="g3426" clip-path="url(#clipPath3430)">
     <g id="g3432" clip-path="url(#clipPath3436)">
      <path id="path3438" d="m188.83 658.61c-0.051-1.446-0.24-2.856-0.553-4.22h-3.891c-3.257 0-6.142-0.057-8.328 0.077-3.727 0.23-6.03 0.608-8.61 0.828-2.681 0.232-8.412 0.248-10.903 0.226-1.806-0.016-4.606-0.089-6.268-0.226-1.765-0.148-3.706-0.42-5.55-0.853-0.276 1.213-0.457 2.463-0.526 3.744 1.32-0.205 2.637-0.448 4.212-0.606 0.928-0.091 2.566-0.25 4.302-0.322s4.107-0.046 6.879-0.046c1.566 0 3.458-0.012 5.201 0.071 2.793 0.132 4.568 0.401 6.711 0.661 1.629 0.197 3.968 0.506 6.169 0.594 2.034 0.082 10.325 0.072 11.155 0.072zm-3.639-11.45c-2.393-0.299-10.482-0.605-19.145-0.605-7.389 0-15.269 0.348-18.22 0.605 0.986-1.501 2.148-2.875 3.456-4.095 2.9-0.309 9.293-0.576 15.215-0.559 6.04 0.02 11.767 0.33 15.245 0.566 1.305 1.219 2.464 2.59 3.449 4.088zm-11.235 5.55c-2.138-0.055-4.627-0.142-6.667-0.33-3.126-0.288-6.541-0.699-10.162-0.686-4.938 0.016-8.132 0.592-11.958 1.075 0.451-1.449 1.048-2.835 1.769-4.14 1.712 0.139 3.987 0.249 4.736 0.28 1.434 0.057 3.18 0.057 4.42 0.057 3.36 0 7.16-0.292 10.625-0.518 4.736-0.309 15.721 0.075 19.378 0.212 0.738 1.343 1.342 2.771 1.794 4.264-5.159-1e-3 -9.032-0.084-13.935-0.214zm-7.448-15.642c5.044 0 9.696 1.672 13.436 4.49-2.63-0.281-8.506-0.689-13.201-0.689-4.973 0-11.185 0.333-13.615 0.647 3.73-2.794 8.362-4.448 13.38-4.448zm11.992 27.271c-2.809-0.1-5.143-0.44-5.54-0.488-1.523-0.209-3.653-0.564-6.911-0.644-4.237-0.103-12.937-0.211-14.318-0.154-1.378 0.056-3.37 0.166-4.239 0.268-0.843 0.097-1.945 0.26-2.896 0.459-0.194-0.98-0.323-1.983-0.384-3.005 1.058 0.271 2.937 0.532 4.554 0.6 3.949 0.138 3.395 0.137 6.028 0.138 1.576 0 8.076 0.026 10.389-0.066 2.774-0.109 5.069-0.391 6.102-0.53 2.82-0.373 4.825-0.593 7.375-0.719 1.111-0.053 3.717-0.07 4.686-0.07 1.238 0 2.29 4e-3 5.486 4e-3 -0.046 1.447-0.229 2.858-0.538 4.224-3.427 1e-3 -6.221 0.111-9.794-0.017zm-29.741 2.641c1.784 0.172 2.934 0.176 4.006 0.214 4.448 0.16 12.108 0.191 15.514-0.022 2.96-0.186 4.429-0.455 6.356-0.76 0.783-0.123 3.09-0.354 3.981-0.393 2.256-0.097 4.135-0.098 6.075-0.098h3.192c-0.442 1.453-1.026 2.845-1.74 4.157-0.548 3e-3 -3.614 0.027-5.564 0.027-0.972 0-2.428 0.029-3.606-0.041-2.841-0.138-6.168-0.895-10.197-1.015-5.836-0.17-9.873-0.201-16.265-0.059-1.076 0.024-2.953 0.125-4.011 0.36-0.469-0.942-0.872-1.921-1.206-2.933 0.979 0.223 2.262 0.448 3.465 0.563zm-0.402 5.449c1.028 0.164 2.331 0.33 3.927 0.442 2.868 0.199 11.179 0.166 14.419-0.023 2.283-0.133 4.178-0.435 5.5-0.619 1.323-0.186 6.19-0.64 10.073-0.64h2.959c-1.013 1.555-2.213 2.976-3.571 4.231-1.283 0.045-4.312 0.188-7.522-0.103-2.56-0.232-4.792-0.712-7.427-0.869-1.939-0.113-3.498-0.205-6.303-0.182-2.495 0.021-3.658-0.017-5.767 0.096-1.078 0.057-1.88 0.114-2.617 0.195-0.437 0.049-1.041 0.117-1.407 0.157-0.823-0.833-1.579-1.732-2.264-2.685zm18.85 5.505c3.674-0.401 5.504-0.36 8.665-0.491 1.086-0.046 2.472-0.094 4.062-0.176-3.738 2.815-8.386 4.485-13.426 4.485-4.725 0-9.104-1.471-12.713-3.974 1.846 0.507 4.337 0.811 6.467 0.801 2.998-0.013 5.115-0.444 6.945-0.645" fill="#00abee"/>
      <path id="path3440" d="m209.66 651.22h-4.689l-0.938 3.173h-5.48l-1.085-3.173h-4.759l6.274 17.887h4.833zm17.887 8.587h3.389v-4.257c0-0.649-0.288-1.154-0.288-1.154s0.18-0.075 0.443-0.075c0.216 0 0.568 3e-3 0.568 3e-3v-3.101s-1.054-0.024-1.694 0.052c-0.684 0.081-1.006 0.411-1.337 0.667-1.081-0.647-2.02-1.008-4.183-1.08-2.597-0.144-4.616 0.505-5.771 2.236-1.153 1.585-1.153 4.544 0.722 6.059-1.083 1.731-1.011 3.496-0.18 4.686 0.641 0.922 1.551 1.451 3.354 1.631 1.451 0.146 2.963-0.172 3.895-0.909 0.78-0.618 1.008-1.529 1.008-2.394v-2.263h-3.245c0-0.032 2e-3 1.457 2e-3 1.537 0 0.564-0.138 0.857-0.419 1.101-0.348 0.303-1.32 0.332-1.529-0.433-0.152-0.556 0-1.081 0.505-1.514l4.76-4.112zm-24.524-1.662-1.658 5.551-1.659-5.551zm18.971-1.443c-0.291 0-0.795-1.225 0.071-2.162 0.722-0.721 2.163-0.577 2.884-0.431l-2.955 2.593"/>
      <path id="path3442" d="m205.98 669.11v-3.75h4.688v-14.137h4.616v14.137h4.688v3.75h-13.992"/>
      <path id="path3444" d="m228.12 669.11v-3.75h4.688v-14.137h4.616v14.137h4.688v3.75h-13.992"/>
     </g>
    </g>
   </g>
  </g>
 </g>
</svg>

