
<svg xmlns="http://www.w3.org/2000/svg" width="2.56in" height="0.81in" viewBox="0 0 184.54 58.01"><path d="M19.72,19.44H35.1c7.41,0,10.37,3.68,10.37,7.62,0,3.51-2.31,6.26-5.89,7.24v.09c4.31.43,7.09,3.38,7.09,7.32,0,4.2-2.7,8.65-11.53,8.65H19.72Zm7.87,12.63h4.05c3.46,0,5.51-1.07,5.51-3.47,0-2.57-1.74-3.42-4.86-3.42h-4.7Zm0,12.55h6.24c2.55,0,4.51-.77,4.51-3.51,0-2.57-2.12-3.55-4.12-3.55H27.59Z" transform="translate(-19.72 -19.44)"/><path d="M56.4,25.44H48.3v-6h8.1Zm-7.75,3.42h7.4v21.5h-7.4Z" transform="translate(-19.72 -19.44)"/><path d="M88,40.81V33.7h9l-1.23-4.84H88V21.49l-7.4,3v4.37h-9.9V21.49l-7.41,3v4.37H58.59V33.7h4.74v9.51c0,5.23,3,7.67,8.68,7.67a26.4,26.4,0,0,0,5-.52V45.14a22,22,0,0,1-2.93.25c-3,0-3.31-1.58-3.31-4.58V33.7h9.9v9.51c0,5.23,3,7.67,8.67,7.67a26.54,26.54,0,0,0,5-.52V45.14a22,22,0,0,1-2.93.25C88.39,45.39,88,43.81,88,40.81Z" transform="translate(-19.72 -19.44)"/><polygon points="121.17 0 113.53 0 111.63 9.42 118.7 9.42 121.17 0"/><polygon points="86.86 24.59 86.78 24.59 84.93 14.26 77.44 14.26 81.58 30.92 91.53 30.92 95.64 14.26 89.52 14.26 86.86 24.59"/><polygon points="82.2 0 73.72 0 76.11 9.42 83.96 9.42 82.2 0"/><polygon points="108.56 24.59 108.48 24.59 106.15 14.26 99.4 14.26 103.28 30.92 113.07 30.92 117.43 14.26 110.65 14.26 108.56 24.59"/><polygon points="102.93 0 93.18 0 90.76 9.42 105.06 9.42 102.93 0"/><path d="M138.23,35.2c.38-5.61,6.05-7.15,11.14-7.15,7.55,0,11.87,2,11.87,9.29v8.23c0,1.58,0,3.21.15,4.79h-7.17c-.08-.73-.15-2.31-.15-3.47H154c-1.77,3.26-5.09,4.29-8.36,4.29-5.52,0-8.75-2.49-8.75-7,0-5.1,4.31-7.41,11.56-7.41h5.4c0-3.43-1.43-4.29-4.36-4.29-2.74,0-3.58,1.2-3.62,2.7ZM150.75,41c-5,0-6,1.46-6,3.26,0,1.33,1.12,2.23,3.2,2.23,4.82,0,5.9-3.26,5.9-5.49Z" transform="translate(-19.72 -19.44)"/><path d="M163.13,33.27c0-1.37,0-3-.15-4.41h7.17c.12,1.54.15,3.09.15,4.63h.08c1.81-4.11,3.82-4.93,8.67-4.93v7a10.83,10.83,0,0,0-2-.18c-4,0-6.56,2.49-6.56,6.81v8.14h-7.4Z" transform="translate(-19.72 -19.44)"/><path d="M186.72,41.63c.16,3.34,1.93,5.09,5.05,5.09s3.82-1.45,4.2-2.91h7.87c-1.54,6.81-6.82,7.37-12.18,7.37-6.71,0-12.57-2.74-12.57-11.23,0-8.3,5.82-11.9,12.45-11.9,9.45,0,12.68,5.18,12.72,13.58Zm9.68-4.46c-.08-3.51-2.16-4.67-4.78-4.67-3.43,0-4.43,2.44-4.78,4.67Z" transform="translate(-19.72 -19.44)"/><path d="M152.68,68v1.07a4.71,4.71,0,0,0-1-.4,3.77,3.77,0,0,0-1-.14,2.18,2.18,0,0,0-1.74.72,3.52,3.52,0,0,0,0,4,2.2,2.2,0,0,0,1.74.71,3.77,3.77,0,0,0,1-.14,4.71,4.71,0,0,0,1-.4v1.07a4.51,4.51,0,0,1-1,.33,4.88,4.88,0,0,1-1.1.12,3.3,3.3,0,0,1-2.52-1,4.35,4.35,0,0,1,0-5.39,3.43,3.43,0,0,1,2.58-1,4.84,4.84,0,0,1,2,.44Z" transform="translate(-19.72 -19.44)"/><path d="M157.15,67.6a3,3,0,0,1,2.36,1,4.7,4.7,0,0,1,0,5.42,3.34,3.34,0,0,1-4.73,0,4.7,4.7,0,0,1,0-5.42A3,3,0,0,1,157.15,67.6Zm0,1a1.75,1.75,0,0,0-1.47.73,3.23,3.23,0,0,0-.54,2,3.29,3.29,0,0,0,.54,2,1.84,1.84,0,0,0,2.93,0,3.94,3.94,0,0,0,0-4A1.73,1.73,0,0,0,157.15,68.57Z" transform="translate(-19.72 -19.44)"/><path d="M167.48,69.11a3.05,3.05,0,0,1,1-1.14,2.6,2.6,0,0,1,1.41-.37,2,2,0,0,1,1.69.76,3.5,3.5,0,0,1,.6,2.19v4.23h-1.16V70.59a2.51,2.51,0,0,0-.36-1.5,1.24,1.24,0,0,0-1.09-.49,1.77,1.77,0,0,0-1.41.6,2.34,2.34,0,0,0-.52,1.62v4h-1.16V70.59a2.51,2.51,0,0,0-.36-1.5,1.26,1.26,0,0,0-1.1-.49,1.78,1.78,0,0,0-1.41.6,2.42,2.42,0,0,0-.52,1.62v4H162v-7h1.15v1.09a2.41,2.41,0,0,1,2.26-1.26,2.15,2.15,0,0,1,1.3.39A2.23,2.23,0,0,1,167.48,69.11Z" transform="translate(-19.72 -19.44)"/><path d="M175.38,73.73v3.72h-1.16V67.77h1.16v1.06a2.35,2.35,0,0,1,.92-.93,2.74,2.74,0,0,1,1.32-.3,2.54,2.54,0,0,1,2.08,1,4.86,4.86,0,0,1,0,5.34,2.52,2.52,0,0,1-2.08,1,2.74,2.74,0,0,1-1.32-.31A2.35,2.35,0,0,1,175.38,73.73Zm3.92-2.45a3.31,3.31,0,0,0-.52-2,1.79,1.79,0,0,0-2.88,0,4.09,4.09,0,0,0,0,4,1.8,1.8,0,0,0,2.88,0A3.35,3.35,0,0,0,179.3,71.28Z" transform="translate(-19.72 -19.44)"/><path d="M187.64,70.78v4h-1.15V73.72a2.41,2.41,0,0,1-1,.94,3.13,3.13,0,0,1-1.44.31,2.38,2.38,0,0,1-1.71-.61,2.14,2.14,0,0,1-.64-1.62,2.09,2.09,0,0,1,.8-1.78,3.85,3.85,0,0,1,2.36-.61h1.62v-.11A1.51,1.51,0,0,0,186,69a2.19,2.19,0,0,0-1.46-.44,4.6,4.6,0,0,0-1.18.15,4.85,4.85,0,0,0-1.09.43V68.09a6.85,6.85,0,0,1,1.23-.37,5.76,5.76,0,0,1,1.15-.12,3,3,0,0,1,2.28.79A3.34,3.34,0,0,1,187.64,70.78Zm-2.3.48a4,4,0,0,0-1.93.32,1.15,1.15,0,0,0-.54,1.09,1.22,1.22,0,0,0,.4,1,1.6,1.6,0,0,0,1.1.36,1.94,1.94,0,0,0,1.54-.68,2.71,2.71,0,0,0,.58-1.81v-.25Z" transform="translate(-19.72 -19.44)"/><path d="M195.59,70.55v4.23h-1.15V70.59a2.37,2.37,0,0,0-.39-1.49,1.39,1.39,0,0,0-1.16-.5,1.89,1.89,0,0,0-1.48.6,2.3,2.3,0,0,0-.54,1.62v4h-1.16v-7h1.16v1.09a2.85,2.85,0,0,1,1-1,2.57,2.57,0,0,1,1.29-.31,2.23,2.23,0,0,1,1.83.75A3.34,3.34,0,0,1,195.59,70.55Z" transform="translate(-19.72 -19.44)"/><path d="M200.55,75.44a4.07,4.07,0,0,1-1,1.63,1.86,1.86,0,0,1-1.24.38h-.92v-1h.68a1.13,1.13,0,0,0,.74-.23,2.88,2.88,0,0,0,.58-1.06l.21-.53-2.84-6.9H198l2.19,5.49,2.2-5.49h1.22Z" transform="translate(-19.72 -19.44)"/><path d="M67,70.77v4H65.81V73.71a2.45,2.45,0,0,1-1,.94,3.19,3.19,0,0,1-1.44.31,2.42,2.42,0,0,1-1.72-.61A2.13,2.13,0,0,1,61,72.73,2.08,2.08,0,0,1,61.83,71a3.89,3.89,0,0,1,2.36-.6h1.62v-.12A1.5,1.5,0,0,0,65.29,69a2.24,2.24,0,0,0-1.47-.43,4.57,4.57,0,0,0-1.17.14,4.93,4.93,0,0,0-1.1.43V68.08a6.85,6.85,0,0,1,1.23-.37,5.79,5.79,0,0,1,1.16-.12,3,3,0,0,1,2.27.79A3.34,3.34,0,0,1,67,70.77Zm-2.3.48a4,4,0,0,0-1.93.32,1.15,1.15,0,0,0-.54,1.09,1.22,1.22,0,0,0,.4,1,1.6,1.6,0,0,0,1.1.36,1.91,1.91,0,0,0,1.54-.68,2.66,2.66,0,0,0,.58-1.81v-.25Z" transform="translate(-19.72 -19.44)"/><rect x="90.28" y="38.37" width="4.17" height="16.96" fill="#ea0437"/><path d="M95.23,69.2c0,4.14,2.92,6.27,6.69,6.27s6.69-2.08,6.69-6.52c0-3.78-2.56-6.3-6.71-6.3-4,0-6.67,2.34-6.67,6.55m6.63-4.2c1.53-.09,2.5,1.61,2.5,3.86,0,2.9-1,4.16-2.56,4.16s-2.54-1.26-2.54-4.16c0-1.72.59-3.86,2.6-3.86" transform="translate(-19.72 -19.44)" fill="#ea0437"/><path d="M124.43,67.68h-4.09c0-3.14,4.13-3.17,4.09,0m-1.86,4.83a2.25,2.25,0,0,1-2.23-2.37h8.58c.07-4.38-2.46-7.49-6.65-7.49a6.2,6.2,0,0,0-6.41,6.51c0,4.08,2.81,6.31,6.43,6.31,2.64,0,5.49-1,6.26-4h-4.29a1.79,1.79,0,0,1-1.69,1.05" transform="translate(-19.72 -19.44)" fill="#ea0437"/><path d="M85,74.77V67.32a2,2,0,1,1,4.08,0v7.45h4V65.9a3.91,3.91,0,0,0-1.82-2.62,5.32,5.32,0,0,0-6.56,1.33,6,6,0,0,0-2.78-1.77A5.07,5.07,0,0,0,77,64.22c-.18.16-.32.53-.31.22v-1.5H72.6V74.77h4.11V67.32a2,2,0,1,1,4.09,0v7.45Z" transform="translate(-19.72 -19.44)" fill="#ea0437"/><path d="M137.83,62.94l-2,2.87c-.62-.88-1.18-2-1.74-2.87H129.5l3.62,5.49s-2.7,4.12-4.13,6.34h4L135.29,71c.38.56,1.25,2.3,2.12,3.75h4.46c-1.12-1.9-3.8-6.36-3.8-6.36,1.1-1.87,2.59-3.6,3.74-5.47Z" transform="translate(-19.72 -19.44)" fill="#ea0437"/></svg>
