

<?xml version="1.0" encoding="UTF-8"?>
<!DOCTYPE svg PUBLIC "-//W3C//DTD SVG 1.1//EN" "http://www.w3.org/Graphics/SVG/1.1/DTD/svg11.dtd">
<svg xmlns="http://www.w3.org/2000/svg" version="1.1" width="436px" height="150px" style="shape-rendering:geometricPrecision; text-rendering:geometricPrecision; image-rendering:optimizeQuality; fill-rule:evenodd; clip-rule:evenodd" xmlns:xlink="http://www.w3.org/1999/xlink">
<g><path style="opacity:0.953" fill="#a02383" d="M -0.5,82.5 C -0.5,74.5 -0.5,66.5 -0.5,58.5C 9.41471,19.0333 34.748,0.199964 75.5,2C 81.0529,4.26336 83.7196,8.43003 83.5,14.5C 83.4794,20.355 80.8127,24.5217 75.5,27C 49.7926,26.25 33.2926,38.0833 26,62.5C 24.0947,92.0544 37.7614,108.721 67,112.5C 74.6244,112.469 81.7911,110.636 88.5,107C 110.167,86 131.833,65 153.5,44C 164.333,41.5627 170.333,45.7294 171.5,56.5C 171.705,59.7946 170.872,62.7946 169,65.5C 148.833,85.6667 128.667,105.833 108.5,126C 81.7241,143.611 54.7241,143.944 27.5,127C 12.6886,115.529 3.35522,100.696 -0.5,82.5 Z"/></g>
<g><path style="opacity:0.941" fill="#a02383" d="M 129.5,17.5 C 139.504,16.3215 145.171,20.6548 146.5,30.5C 146.421,34.2384 145.254,37.5718 143,40.5C 126.833,56.6667 110.667,72.8333 94.5,89C 83.4095,92.6263 76.7429,88.7929 74.5,77.5C 74.5791,73.7616 75.7458,70.4282 78,67.5C 94.782,50.2148 111.949,33.5481 129.5,17.5 Z"/></g>
<g><path style="opacity:0.829" fill="#1f1c1b" d="M 313.5,64.5 C 315.144,64.2865 316.644,64.6198 318,65.5C 318.333,69.1667 318.667,72.8333 319,76.5C 325.068,73.5187 330.068,74.852 334,80.5C 336.169,86.3144 335.835,91.9811 333,97.5C 331.421,99.0412 329.587,100.208 327.5,101C 322.539,100.977 317.706,100.81 313,100.5C 312.189,88.4242 312.355,76.4242 313.5,64.5 Z M 321.5,80.5 C 327.091,80.0904 329.758,82.7571 329.5,88.5C 328.176,95.988 324.676,97.3214 319,92.5C 317.273,88.0619 318.106,84.0619 321.5,80.5 Z"/></g>
<g><path style="opacity:0.793" fill="#1f1c1b" d="M 256.5,66.5 C 259.91,66.4571 263.243,66.9571 266.5,68C 270.974,70.0239 271.474,72.5239 268,75.5C 254.988,69.8269 249.321,74.1602 251,88.5C 251.786,91.5827 253.619,93.7494 256.5,95C 260.492,95.7155 264.325,95.2155 268,93.5C 272.182,95.4834 272.015,97.6501 267.5,100C 253.165,104.166 245.165,98.8328 243.5,84C 244.121,75.2049 248.454,69.3715 256.5,66.5 Z"/></g>
<g><path style="opacity:0.941" fill="#a02383" d="M 178.5,69.5 C 194.343,68.5018 199.843,75.5018 195,90.5C 178.804,106.362 162.971,122.529 147.5,139C 138.375,144.428 131.208,142.594 126,133.5C 125.233,129.406 125.566,125.406 127,121.5C 143.7,103.634 160.867,86.3002 178.5,69.5 Z"/></g>
<g><path style="opacity:0.826" fill="#1f1c1b" d="M 280.5,74.5 C 283.545,74.3418 286.379,75.0085 289,76.5C 290.396,74.4732 292.062,74.1398 294,75.5C 294.816,84.0787 294.649,92.5787 293.5,101C 291.633,101.711 290.133,101.211 289,99.5C 281.356,103.181 275.69,101.181 272,93.5C 269.772,84.6191 272.606,78.2857 280.5,74.5 Z M 280.5,80.5 C 288.121,80.9463 290.621,84.9463 288,92.5C 284.206,96.741 280.873,96.4077 278,91.5C 276.946,87.3445 277.78,83.6779 280.5,80.5 Z"/></g>
<g><path style="opacity:0.795" fill="#1f1c1b" d="M 299.5,74.5 C 301.39,74.2965 302.89,74.9632 304,76.5C 309.685,72.9254 311.851,74.2588 310.5,80.5C 308.386,81.0339 306.552,82.0339 305,83.5C 303.814,89.0845 303.148,94.7512 303,100.5C 301.062,101.86 299.396,101.527 298,99.5C 297.333,91.8333 297.333,84.1667 298,76.5C 298.717,75.9558 299.217,75.2891 299.5,74.5 Z"/></g>
<g><path style="opacity:0.798" fill="#1f1c1b" d="M 345.5,74.5 C 356.615,74.7828 361.448,80.4494 360,91.5C 356.371,101.268 349.871,103.768 340.5,99C 336.314,93.3407 335.481,87.174 338,80.5C 340.134,77.8474 342.634,75.8474 345.5,74.5 Z M 345.5,80.5 C 350.961,80.2899 353.961,82.9566 354.5,88.5C 353.185,95.2443 349.685,96.9109 344,93.5C 341.839,88.8196 342.339,84.4863 345.5,80.5 Z"/></g>
<g><path style="opacity:0.833" fill="#1f1c1b" d="M 363.5,74.5 C 365.39,74.2965 366.89,74.9632 368,76.5C 380.021,73.006 385.188,77.6726 383.5,90.5C 383.482,94.0841 383.148,97.5841 382.5,101C 380.888,101.72 379.388,101.554 378,100.5C 377.667,94.5 377.333,88.5 377,82.5C 374.333,79.8333 371.667,79.8333 369,82.5C 368.667,88.1667 368.333,93.8333 368,99.5C 366.604,101.527 364.938,101.86 363,100.5C 362.198,91.7551 362.364,83.0884 363.5,74.5 Z"/></g>
<g><path style="opacity:0.702" fill="#1f1c1b" d="M 286.5,103.5 C 291.028,103.841 292.361,106.008 290.5,110C 284.36,110.808 283.027,108.641 286.5,103.5 Z"/></g>
<g><path style="opacity:0.701" fill="#1f1c1b" d="M 381.5,103.5 C 385.976,103.8 387.31,105.967 385.5,110C 379.339,110.878 378.006,108.711 381.5,103.5 Z"/></g>
<g><path style="opacity:0.834" fill="#1f1c1b" d="M 215.5,104.5 C 220.844,104.334 226.177,104.501 231.5,105C 232.38,106.356 232.714,107.856 232.5,109.5C 228.5,109.5 224.5,109.5 220.5,109.5C 220.5,112.5 220.5,115.5 220.5,118.5C 223.85,118.335 227.183,118.502 230.5,119C 231.991,121.022 231.658,122.688 229.5,124C 226.518,124.498 223.518,124.665 220.5,124.5C 220.5,127.167 220.5,129.833 220.5,132.5C 224.182,132.335 227.848,132.501 231.5,133C 232.833,134.667 232.833,136.333 231.5,138C 225.916,138.806 220.416,138.639 215,137.5C 214.191,126.424 214.358,115.424 215.5,104.5 Z"/></g>
<g><path style="opacity:0.823" fill="#1f1c1b" d="M 235.5,112.5 C 240.688,112.767 246.021,112.933 251.5,113C 253.815,114.109 255.315,115.943 256,118.5C 256.81,125.082 256.643,131.582 255.5,138C 253.888,138.72 252.388,138.554 251,137.5C 250.667,132.167 250.333,126.833 250,121.5C 247,116.167 244,116.167 241,121.5C 240.667,126.833 240.333,132.167 240,137.5C 238.333,138.833 236.667,138.833 235,137.5C 234.199,129.088 234.366,120.755 235.5,112.5 Z"/></g>
<g><path style="opacity:0.827" fill="#1f1c1b" d="M 265.5,112.5 C 270.923,113.038 276.256,113.038 281.5,112.5C 281.666,121.839 281.5,131.173 281,140.5C 278.815,145.515 274.981,147.848 269.5,147.5C 264.645,148.237 260.978,146.57 258.5,142.5C 259.212,140.954 260.378,139.954 262,139.5C 265.222,141.705 268.722,142.539 272.5,142C 273.743,140.846 274.743,139.512 275.5,138C 261.782,139.604 256.282,133.437 259,119.5C 260.694,116.642 262.861,114.309 265.5,112.5 Z M 268.5,117.5 C 273.576,117.608 275.909,120.274 275.5,125.5C 275.871,129.777 274.037,132.444 270,133.5C 264.461,130.12 263.128,125.453 266,119.5C 266.995,118.934 267.828,118.267 268.5,117.5 Z"/></g>
<g><path style="opacity:0.832" fill="#1f1c1b" d="M 285.5,112.5 C 287.167,112.5 288.833,112.5 290.5,112.5C 290.666,120.84 290.5,129.173 290,137.5C 288.333,138.833 286.667,138.833 285,137.5C 284.199,129.088 284.366,120.755 285.5,112.5 Z"/></g>
<g><path style="opacity:0.828" fill="#1f1c1b" d="M 294.5,112.5 C 298.345,113.678 302.178,113.678 306,112.5C 310.7,112.013 313.7,114.013 315,118.5C 315.81,125.082 315.643,131.582 314.5,138C 312.888,138.72 311.388,138.554 310,137.5C 309.667,131.833 309.333,126.167 309,120.5C 305.477,116.299 302.477,116.632 300,121.5C 299.667,126.833 299.333,132.167 299,137.5C 297.333,138.833 295.667,138.833 294,137.5C 293.199,129.088 293.366,120.755 294.5,112.5 Z"/></g>
<g><path style="opacity:0.806" fill="#1f1c1b" d="M 323.5,112.5 C 332.168,110.134 338.001,113.134 341,121.5C 343.579,113.292 349.079,110.459 357.5,113C 363.111,116.213 365.111,120.879 363.5,127C 357.833,127.333 352.167,127.667 346.5,128C 347.76,130.928 349.927,132.761 353,133.5C 356.137,132.839 358.97,131.505 361.5,129.5C 364.21,132.215 363.877,134.715 360.5,137C 350.747,140.949 344.081,138.116 340.5,128.5C 334.872,127.505 329.206,127.171 323.5,127.5C 323.731,130.9 325.564,132.9 329,133.5C 332.137,132.839 334.97,131.505 337.5,129.5C 341.079,131.16 341.412,133.327 338.5,136C 324.569,141.96 317.402,137.46 317,122.5C 317.949,118.243 320.115,114.909 323.5,112.5 Z M 326.5,117.5 C 330.227,117.195 332.894,118.695 334.5,122C 330.789,122.825 327.122,122.659 323.5,121.5C 324.524,120.148 325.524,118.815 326.5,117.5 Z M 350.5,117.5 C 354.577,117.017 356.91,118.684 357.5,122.5C 354.102,122.82 350.768,122.487 347.5,121.5C 348.172,119.84 349.172,118.507 350.5,117.5 Z"/></g>
<g><path style="opacity:0.77" fill="#1f1c1b" d="M 366.5,112.5 C 370.795,113.538 375.129,113.538 379.5,112.5C 379.785,114.288 379.452,115.955 378.5,117.5C 376.386,118.034 374.552,119.034 373,120.5C 372.667,125.833 372.333,131.167 372,136.5C 370,139.167 368,139.167 366,136.5C 365.2,128.421 365.367,120.421 366.5,112.5 Z"/></g>
<g><path style="opacity:0.832" fill="#1f1c1b" d="M 380.5,112.5 C 382.467,112.261 384.301,112.594 386,113.5C 386.667,121.5 386.667,129.5 386,137.5C 384.333,138.833 382.667,138.833 381,137.5C 380.5,129.173 380.334,120.84 380.5,112.5 Z"/></g>
<g><path style="opacity:0.845" fill="#1f1c1b" d="M 389.5,112.5 C 394.75,112.872 400.083,113.039 405.5,113C 406.931,113.465 408.097,114.299 409,115.5C 410.097,119.384 410.597,123.384 410.5,127.5C 410.482,131.084 410.148,134.584 409.5,138C 407.888,138.72 406.388,138.554 405,137.5C 404.667,131.833 404.333,126.167 404,120.5C 401.763,116.98 399.096,116.647 396,119.5C 395.667,125.5 395.333,131.5 395,137.5C 393.333,138.833 391.667,138.833 390,137.5C 389.5,129.173 389.334,120.84 389.5,112.5 Z"/></g>
<g><path style="opacity:0.841" fill="#1f1c1b" d="M 435.5,112.5 C 435.5,122.167 435.5,131.833 435.5,141.5C 434.023,143.807 432.023,145.64 429.5,147C 424.713,147.879 420.047,147.545 415.5,146C 413.398,144.267 413.065,142.267 414.5,140C 417.713,140.338 420.879,141.171 424,142.5C 426.818,142.509 428.652,141.175 429.5,138.5C 419.066,140.26 413.399,135.76 412.5,125C 412.629,120.607 414.295,116.94 417.5,114C 423.48,112.874 429.48,112.374 435.5,112.5 Z M 422.5,117.5 C 429.914,118.994 432.081,123.327 429,130.5C 426.145,134.064 423.145,134.064 420,130.5C 417.817,125.57 418.65,121.236 422.5,117.5 Z"/></g>
</svg>

