

<?xml version="1.0" encoding="UTF-8" standalone="no"?>
<!DOCTYPE svg PUBLIC "-//W3C//DTD SVG 1.1//EN" "http://www.w3.org/Graphics/SVG/1.1/DTD/svg11.dtd">
<svg xmlns="http://www.w3.org/2000/svg" version="1.1" viewBox="0.00 0.00 900.00 500.00">
<g stroke-width="2.00" fill="none" stroke-linecap="butt">
<path stroke="#8ac4b2" vector-effect="non-scaling-stroke" d="
  M 58.16 167.68
  C 71.13 129.49 106.28 103.26 147.23 104.06
  Q 187.73 104.85 214.52 132.83
  A 0.64 0.64 0.0 0 0 215.44 132.84
  L 238.36 110.15
  Q 238.63 109.88 238.36 109.60
  Q 225.34 96.20 208.98 87.30
  Q 176.73 69.77 138.89 72.12
  C 103.76 74.30 71.17 90.62 48.60 117.34
  C 29.52 139.93 18.12 169.19 18.24 199.32
  Q 18.27 205.50 18.67 210.85
  Q 21.91 254.51 49.75 286.46
  C 60.12 298.36 73.84 308.91 88.65 316.12
  Q 94.60 319.02 99.52 320.81
  Q 138.41 335.03 177.99 325.18
  Q 212.01 316.71 237.63 291.10
  A 0.52 0.52 0.0 0 0 237.63 290.37
  L 215.39 267.86
  Q 215.05 267.51 214.70 267.87
  Q 190.01 293.82 153.97 296.53
  Q 142.80 297.37 131.76 295.55
  C 104.82 291.11 82.11 276.31 67.79 253.19
  C 56.80 235.46 52.39 214.56 53.21 193.46
  Q 53.71 180.80 58.16 167.68"
/>
<path stroke="#8ac4b2" vector-effect="non-scaling-stroke" d="
  M 864.62 262.47
  C 875.50 243.03 881.15 219.40 880.41 197.97
  Q 878.28 136.39 832.00 98.95
  C 814.10 84.46 790.86 75.28 768.63 72.77
  Q 723.61 67.70 685.68 90.47
  C 648.90 112.53 624.97 152.90 623.89 196.24
  Q 623.23 222.88 631.79 246.63
  Q 635.42 256.72 640.16 264.97
  Q 662.94 304.69 704.92 320.69
  Q 741.80 334.73 781.99 325.61
  Q 791.86 323.38 801.13 319.46
  Q 842.52 301.99 864.62 262.47"
/>
<path stroke="#8ac4b2" vector-effect="non-scaling-stroke" d="
  M 305.54 283.20
  A 0.30 0.30 0.0 0 1 305.82 283.00
  L 407.83 283.00
  A 0.30 0.30 0.0 0 1 408.11 283.20
  L 424.91 329.03
  A 0.30 0.30 0.0 0 0 425.19 329.23
  L 460.05 329.24
  A 0.30 0.30 0.0 0 0 460.33 328.83
  L 363.28 78.20
  A 0.30 0.30 0.0 0 0 363.00 78.01
  L 353.79 78.02
  A 0.30 0.30 0.0 0 0 353.51 78.21
  L 253.32 328.82
  A 0.30 0.30 0.0 0 0 253.60 329.23
  L 288.40 329.23
  A 0.30 0.30 0.0 0 0 288.68 329.03
  L 305.54 283.20"
/>
<path stroke="#8ac4b2" vector-effect="non-scaling-stroke" d="
  M 513.36 109.00
  A 0.41 0.41 0.0 0 1 513.77 109.41
  L 513.77 328.83
  A 0.41 0.41 0.0 0 0 514.18 329.24
  L 546.95 329.22
  A 0.41 0.41 0.0 0 0 547.36 328.81
  L 547.36 109.41
  A 0.41 0.41 0.0 0 1 547.77 109.00
  L 619.10 109.00
  A 0.41 0.41 0.0 0 0 619.51 108.59
  L 619.51 78.41
  A 0.41 0.41 0.0 0 0 619.10 78.00
  L 441.90 78.00
  A 0.41 0.41 0.0 0 0 441.49 78.41
  L 441.49 108.59
  A 0.41 0.41 0.0 0 0 441.90 109.00
  L 513.36 109.00"
/>
<path stroke="#8ac4b2" vector-effect="non-scaling-stroke" d="
  M 292.87 395.38
  A 0.37 0.37 0.0 0 1 293.24 395.01
  L 304.36 394.99
  A 0.37 0.37 0.0 0 0 304.73 394.62
  L 304.74 387.87
  A 0.37 0.37 0.0 0 0 304.37 387.50
  L 273.49 387.48
  A 0.37 0.37 0.0 0 0 273.12 387.85
  L 273.13 394.62
  A 0.37 0.37 0.0 0 0 273.50 394.99
  L 284.55 395.01
  A 0.37 0.37 0.0 0 1 284.92 395.38
  L 284.91 428.37
  A 0.37 0.37 0.0 0 0 285.28 428.74
  L 292.52 428.76
  A 0.37 0.37 0.0 0 0 292.89 428.39
  L 292.87 395.38"
/>
<path stroke="#8ac4b2" vector-effect="non-scaling-stroke" d="
  M 397.21 401.23
  Q 397.56 400.00 397.89 401.23
  L 405.02 428.20
  Q 405.16 428.74 405.71 428.74
  L 412.22 428.74
  Q 412.95 428.74 413.12 428.04
  L 422.91 387.74
  Q 422.98 387.45 422.68 387.45
  L 414.95 387.51
  Q 414.66 387.51 414.60 387.80
  L 409.02 413.79
  Q 408.75 415.03 408.39 413.82
  L 400.76 388.03
  Q 400.60 387.49 400.03 387.49
  L 394.51 387.49
  Q 393.96 387.49 393.81 388.01
  L 386.00 414.25
  Q 385.78 415.01 385.62 414.24
  L 380.16 387.68
  Q 380.12 387.49 379.92 387.49
  L 372.12 387.50
  A 0.22 0.22 0.0 0 0 371.90 387.77
  L 381.74 428.08
  Q 381.90 428.74 382.58 428.74
  L 388.86 428.74
  Q 389.50 428.74 389.68 428.12
  L 397.21 401.23"
/>
<path stroke="#8ac4b2" vector-effect="non-scaling-stroke" d="
  M 521.2590 401.7725
  A 14.50 14.50 0.0 0 0 506.7337 387.2978
  L 504.1737 387.3023
  A 14.50 14.50 0.0 0 0 489.6991 401.8276
  L 489.7210 414.3875
  A 14.50 14.50 0.0 0 0 504.2463 428.8622
  L 506.8063 428.8577
  A 14.50 14.50 0.0 0 0 521.2809 414.3324
  L 521.2590 401.7725"
/>
<path stroke="#8ac4b2" vector-effect="non-scaling-stroke" d="
  M 695.86 407.23
  L 695.88 387.78
  A 0.33 0.32 89.2 0 0 695.55 387.45
  L 688.20 387.51
  Q 687.92 387.51 687.92 387.80
  L 687.92 428.43
  Q 687.92 428.73 688.22 428.73
  L 695.69 428.76
  Q 695.90 428.76 695.89 428.56
  L 695.86 420.53
  Q 695.86 419.97 696.20 419.52
  L 701.52 412.47
  A 0.63 0.63 0.0 0 1 702.56 412.53
  L 712.09 428.48
  Q 712.25 428.75 712.55 428.75
  L 721.64 428.73
  A 0.16 0.15 74.4 0 0 721.77 428.49
  L 707.55 405.26
  Q 707.27 404.80 707.59 404.36
  Q 714.22 395.45 720.20 387.57
  A 0.04 0.04 0.0 0 0 720.17 387.50
  Q 713.62 387.37 710.22 387.52
  Q 709.94 387.53 709.79 387.76
  L 696.33 407.37
  Q 695.86 408.05 695.86 407.23"
/>
<path stroke="#8ac4b2" vector-effect="non-scaling-stroke" d="
  M 799.11 401.00
  C 797.06 398.39 800.17 395.15 802.78 394.76
  Q 809.97 393.70 816.27 397.72
  Q 816.85 398.09 817.18 397.48
  L 820.01 392.22
  Q 820.39 391.52 819.71 391.12
  Q 809.78 385.26 798.69 388.30
  Q 792.19 390.08 790.79 397.12
  C 789.11 405.58 794.03 410.37 801.72 411.43
  Q 806.06 412.02 810.37 413.25
  Q 812.28 413.79 812.89 415.56
  C 814.73 420.84 806.80 421.90 803.38 421.54
  Q 797.20 420.89 793.20 418.07
  Q 792.38 417.49 791.85 418.34
  L 788.98 422.96
  Q 788.48 423.76 789.28 424.28
  Q 796.61 429.02 805.46 428.82
  C 813.96 428.63 822.04 425.13 821.32 415.03
  Q 820.82 407.92 814.01 406.18
  Q 807.99 404.65 802.51 403.22
  Q 800.42 402.67 799.11 401.00"
/>
<path stroke="#8ac4b2" vector-effect="non-scaling-stroke" d="
  M 85.60 399.89
  L 100.12 428.31
  Q 100.35 428.75 100.84 428.75
  L 109.80 428.73
  Q 110.32 428.73 110.32 428.20
  L 110.32 387.77
  Q 110.32 387.48 110.03 387.48
  L 102.75 387.50
  Q 102.50 387.50 102.50 387.75
  L 102.49 416.32
  Q 102.49 417.69 101.87 416.46
  L 87.56 387.98
  Q 87.31 387.49 86.76 387.49
  L 78.01 387.49
  Q 77.26 387.49 77.26 388.24
  L 77.26 428.25
  Q 77.26 428.74 77.75 428.74
  L 84.79 428.74
  Q 85.09 428.74 85.09 428.44
  L 85.08 400.01
  Q 85.08 398.88 85.60 399.89"
/>
<path stroke="#8ac4b2" vector-effect="non-scaling-stroke" d="
  M 185.86 404.49
  A 0.36 0.36 0.0 0 1 185.50 404.13
  L 185.52 395.36
  A 0.36 0.36 0.0 0 1 185.88 395.00
  L 205.87 395.00
  A 0.36 0.36 0.0 0 0 206.23 394.64
  L 206.23 387.85
  A 0.36 0.36 0.0 0 0 205.87 387.49
  L 177.63 387.49
  A 0.36 0.36 0.0 0 0 177.27 387.85
  L 177.26 428.38
  A 0.36 0.36 0.0 0 0 177.62 428.74
  L 205.88 428.74
  A 0.36 0.36 0.0 0 0 206.24 428.38
  L 206.23 421.61
  A 0.36 0.36 0.0 0 0 205.87 421.25
  L 185.87 421.26
  A 0.36 0.36 0.0 0 1 185.51 420.90
  L 185.51 412.36
  A 0.36 0.36 0.0 0 1 185.87 412.00
  L 202.52 412.00
  A 0.36 0.36 0.0 0 0 202.88 411.64
  L 202.85 404.86
  A 0.36 0.36 0.0 0 0 202.49 404.50
  L 185.86 404.49"
/>
<path stroke="#8ac4b2" vector-effect="non-scaling-stroke" d="
  M 596.76 412.23
  L 600.45 412.23
  Q 601.04 412.23 601.34 412.75
  L 610.64 428.72
  Q 610.69 428.81 610.79 428.84
  Q 612.20 429.24 620.60 428.88
  A 0.05 0.05 0.0 0 0 620.64 428.81
  Q 615.84 420.75 610.90 412.69
  A 0.53 0.53 0.0 0 1 611.13 411.94
  Q 620.69 407.46 618.36 396.32
  Q 617.31 391.30 612.59 388.86
  Q 610.16 387.60 606.15 387.69
  Q 597.36 387.87 588.44 387.77
  A 0.44 0.44 0.0 0 0 588.00 388.21
  L 588.00 428.25
  A 0.75 0.74 -0.0 0 0 588.75 428.99
  L 595.25 429.00
  Q 596.00 429.00 596.00 428.25
  L 596.00 412.99
  Q 596.00 412.23 596.76 412.23"
/>
<path stroke="#8ac4b2" vector-effect="non-scaling-stroke" d="
  M 732.97 105.86
  C 691.65 114.03 662.49 149.05 658.78 190.96
  C 658.34 195.93 658.70 201.20 658.91 206.22
  C 660.61 246.71 686.84 282.27 726.47 293.16
  Q 748.58 299.23 770.90 295.06
  Q 780.52 293.26 789.52 289.23
  Q 800.20 284.46 808.83 277.91
  C 831.99 260.36 845.34 232.07 845.77 203.42
  C 846.22 173.67 835.30 145.83 813.34 126.52
  C 804.49 118.73 792.17 111.60 779.96 108.16
  Q 775.25 106.83 771.17 105.96
  Q 752.57 101.99 732.97 105.86"
/>
<path stroke="#8ac4b2" vector-effect="non-scaling-stroke" d="
  M 317.37 251.80
  A 0.33 0.33 0.0 0 0 317.68 252.25
  L 396.50 252.26
  A 0.33 0.33 0.0 0 0 396.81 251.81
  L 358.93 150.04
  A 0.33 0.33 0.0 0 0 358.31 150.03
  L 317.37 251.80"
/>
<path stroke="#8ac4b2" vector-effect="non-scaling-stroke" d="
  M 512.64 401.84
  A 7.01 7.01 0.0 0 0 505.63 394.83
  L 504.79 394.83
  A 7.01 7.01 0.0 0 0 497.78 401.84
  L 497.78 414.44
  A 7.01 7.01 0.0 0 0 504.79 421.45
  L 505.63 421.45
  A 7.01 7.01 0.0 0 0 512.64 414.44
  L 512.64 401.84"
/>
<path stroke="#8ac4b2" vector-effect="non-scaling-stroke" d="
  M 596.30 395.46
  L 596.34 404.42
  A 0.41 0.41 0.0 0 0 596.76 404.83
  L 606.28 404.78
  A 4.67 4.45 89.7 0 0 610.70 400.08
  L 610.70 399.64
  A 4.67 4.45 89.7 0 0 606.22 395.00
  L 596.70 395.05
  A 0.41 0.41 0.0 0 0 596.30 395.46"
/>
</g>
<path fill="#ffffff" d="
  M 0.00 0.00
  L 900.00 0.00
  L 900.00 500.00
  L 0.00 500.00
  L 0.00 0.00
  Z
  M 58.16 167.68
  C 71.13 129.49 106.28 103.26 147.23 104.06
  Q 187.73 104.85 214.52 132.83
  A 0.64 0.64 0.0 0 0 215.44 132.84
  L 238.36 110.15
  Q 238.63 109.88 238.36 109.60
  Q 225.34 96.20 208.98 87.30
  Q 176.73 69.77 138.89 72.12
  C 103.76 74.30 71.17 90.62 48.60 117.34
  C 29.52 139.93 18.12 169.19 18.24 199.32
  Q 18.27 205.50 18.67 210.85
  Q 21.91 254.51 49.75 286.46
  C 60.12 298.36 73.84 308.91 88.65 316.12
  Q 94.60 319.02 99.52 320.81
  Q 138.41 335.03 177.99 325.18
  Q 212.01 316.71 237.63 291.10
  A 0.52 0.52 0.0 0 0 237.63 290.37
  L 215.39 267.86
  Q 215.05 267.51 214.70 267.87
  Q 190.01 293.82 153.97 296.53
  Q 142.80 297.37 131.76 295.55
  C 104.82 291.11 82.11 276.31 67.79 253.19
  C 56.80 235.46 52.39 214.56 53.21 193.46
  Q 53.71 180.80 58.16 167.68
  Z
  M 864.62 262.47
  C 875.50 243.03 881.15 219.40 880.41 197.97
  Q 878.28 136.39 832.00 98.95
  C 814.10 84.46 790.86 75.28 768.63 72.77
  Q 723.61 67.70 685.68 90.47
  C 648.90 112.53 624.97 152.90 623.89 196.24
  Q 623.23 222.88 631.79 246.63
  Q 635.42 256.72 640.16 264.97
  Q 662.94 304.69 704.92 320.69
  Q 741.80 334.73 781.99 325.61
  Q 791.86 323.38 801.13 319.46
  Q 842.52 301.99 864.62 262.47
  Z
  M 305.54 283.20
  A 0.30 0.30 0.0 0 1 305.82 283.00
  L 407.83 283.00
  A 0.30 0.30 0.0 0 1 408.11 283.20
  L 424.91 329.03
  A 0.30 0.30 0.0 0 0 425.19 329.23
  L 460.05 329.24
  A 0.30 0.30 0.0 0 0 460.33 328.83
  L 363.28 78.20
  A 0.30 0.30 0.0 0 0 363.00 78.01
  L 353.79 78.02
  A 0.30 0.30 0.0 0 0 353.51 78.21
  L 253.32 328.82
  A 0.30 0.30 0.0 0 0 253.60 329.23
  L 288.40 329.23
  A 0.30 0.30 0.0 0 0 288.68 329.03
  L 305.54 283.20
  Z
  M 513.36 109.00
  A 0.41 0.41 0.0 0 1 513.77 109.41
  L 513.77 328.83
  A 0.41 0.41 0.0 0 0 514.18 329.24
  L 546.95 329.22
  A 0.41 0.41 0.0 0 0 547.36 328.81
  L 547.36 109.41
  A 0.41 0.41 0.0 0 1 547.77 109.00
  L 619.10 109.00
  A 0.41 0.41 0.0 0 0 619.51 108.59
  L 619.51 78.41
  A 0.41 0.41 0.0 0 0 619.10 78.00
  L 441.90 78.00
  A 0.41 0.41 0.0 0 0 441.49 78.41
  L 441.49 108.59
  A 0.41 0.41 0.0 0 0 441.90 109.00
  L 513.36 109.00
  Z
  M 292.87 395.38
  A 0.37 0.37 0.0 0 1 293.24 395.01
  L 304.36 394.99
  A 0.37 0.37 0.0 0 0 304.73 394.62
  L 304.74 387.87
  A 0.37 0.37 0.0 0 0 304.37 387.50
  L 273.49 387.48
  A 0.37 0.37 0.0 0 0 273.12 387.85
  L 273.13 394.62
  A 0.37 0.37 0.0 0 0 273.50 394.99
  L 284.55 395.01
  A 0.37 0.37 0.0 0 1 284.92 395.38
  L 284.91 428.37
  A 0.37 0.37 0.0 0 0 285.28 428.74
  L 292.52 428.76
  A 0.37 0.37 0.0 0 0 292.89 428.39
  L 292.87 395.38
  Z
  M 397.21 401.23
  Q 397.56 400.00 397.89 401.23
  L 405.02 428.20
  Q 405.16 428.74 405.71 428.74
  L 412.22 428.74
  Q 412.95 428.74 413.12 428.04
  L 422.91 387.74
  Q 422.98 387.45 422.68 387.45
  L 414.95 387.51
  Q 414.66 387.51 414.60 387.80
  L 409.02 413.79
  Q 408.75 415.03 408.39 413.82
  L 400.76 388.03
  Q 400.60 387.49 400.03 387.49
  L 394.51 387.49
  Q 393.96 387.49 393.81 388.01
  L 386.00 414.25
  Q 385.78 415.01 385.62 414.24
  L 380.16 387.68
  Q 380.12 387.49 379.92 387.49
  L 372.12 387.50
  A 0.22 0.22 0.0 0 0 371.90 387.77
  L 381.74 428.08
  Q 381.90 428.74 382.58 428.74
  L 388.86 428.74
  Q 389.50 428.74 389.68 428.12
  L 397.21 401.23
  Z
  M 521.2590 401.7725
  A 14.50 14.50 0.0 0 0 506.7337 387.2978
  L 504.1737 387.3023
  A 14.50 14.50 0.0 0 0 489.6991 401.8276
  L 489.7210 414.3875
  A 14.50 14.50 0.0 0 0 504.2463 428.8622
  L 506.8063 428.8577
  A 14.50 14.50 0.0 0 0 521.2809 414.3324
  L 521.2590 401.7725
  Z
  M 695.86 407.23
  L 695.88 387.78
  A 0.33 0.32 89.2 0 0 695.55 387.45
  L 688.20 387.51
  Q 687.92 387.51 687.92 387.80
  L 687.92 428.43
  Q 687.92 428.73 688.22 428.73
  L 695.69 428.76
  Q 695.90 428.76 695.89 428.56
  L 695.86 420.53
  Q 695.86 419.97 696.20 419.52
  L 701.52 412.47
  A 0.63 0.63 0.0 0 1 702.56 412.53
  L 712.09 428.48
  Q 712.25 428.75 712.55 428.75
  L 721.64 428.73
  A 0.16 0.15 74.4 0 0 721.77 428.49
  L 707.55 405.26
  Q 707.27 404.80 707.59 404.36
  Q 714.22 395.45 720.20 387.57
  A 0.04 0.04 0.0 0 0 720.17 387.50
  Q 713.62 387.37 710.22 387.52
  Q 709.94 387.53 709.79 387.76
  L 696.33 407.37
  Q 695.86 408.05 695.86 407.23
  Z
  M 799.11 401.00
  C 797.06 398.39 800.17 395.15 802.78 394.76
  Q 809.97 393.70 816.27 397.72
  Q 816.85 398.09 817.18 397.48
  L 820.01 392.22
  Q 820.39 391.52 819.71 391.12
  Q 809.78 385.26 798.69 388.30
  Q 792.19 390.08 790.79 397.12
  C 789.11 405.58 794.03 410.37 801.72 411.43
  Q 806.06 412.02 810.37 413.25
  Q 812.28 413.79 812.89 415.56
  C 814.73 420.84 806.80 421.90 803.38 421.54
  Q 797.20 420.89 793.20 418.07
  Q 792.38 417.49 791.85 418.34
  L 788.98 422.96
  Q 788.48 423.76 789.28 424.28
  Q 796.61 429.02 805.46 428.82
  C 813.96 428.63 822.04 425.13 821.32 415.03
  Q 820.82 407.92 814.01 406.18
  Q 807.99 404.65 802.51 403.22
  Q 800.42 402.67 799.11 401.00
  Z
  M 85.60 399.89
  L 100.12 428.31
  Q 100.35 428.75 100.84 428.75
  L 109.80 428.73
  Q 110.32 428.73 110.32 428.20
  L 110.32 387.77
  Q 110.32 387.48 110.03 387.48
  L 102.75 387.50
  Q 102.50 387.50 102.50 387.75
  L 102.49 416.32
  Q 102.49 417.69 101.87 416.46
  L 87.56 387.98
  Q 87.31 387.49 86.76 387.49
  L 78.01 387.49
  Q 77.26 387.49 77.26 388.24
  L 77.26 428.25
  Q 77.26 428.74 77.75 428.74
  L 84.79 428.74
  Q 85.09 428.74 85.09 428.44
  L 85.08 400.01
  Q 85.08 398.88 85.60 399.89
  Z
  M 185.86 404.49
  A 0.36 0.36 0.0 0 1 185.50 404.13
  L 185.52 395.36
  A 0.36 0.36 0.0 0 1 185.88 395.00
  L 205.87 395.00
  A 0.36 0.36 0.0 0 0 206.23 394.64
  L 206.23 387.85
  A 0.36 0.36 0.0 0 0 205.87 387.49
  L 177.63 387.49
  A 0.36 0.36 0.0 0 0 177.27 387.85
  L 177.26 428.38
  A 0.36 0.36 0.0 0 0 177.62 428.74
  L 205.88 428.74
  A 0.36 0.36 0.0 0 0 206.24 428.38
  L 206.23 421.61
  A 0.36 0.36 0.0 0 0 205.87 421.25
  L 185.87 421.26
  A 0.36 0.36 0.0 0 1 185.51 420.90
  L 185.51 412.36
  A 0.36 0.36 0.0 0 1 185.87 412.00
  L 202.52 412.00
  A 0.36 0.36 0.0 0 0 202.88 411.64
  L 202.85 404.86
  A 0.36 0.36 0.0 0 0 202.49 404.50
  L 185.86 404.49
  Z
  M 596.76 412.23
  L 600.45 412.23
  Q 601.04 412.23 601.34 412.75
  L 610.64 428.72
  Q 610.69 428.81 610.79 428.84
  Q 612.20 429.24 620.60 428.88
  A 0.05 0.05 0.0 0 0 620.64 428.81
  Q 615.84 420.75 610.90 412.69
  A 0.53 0.53 0.0 0 1 611.13 411.94
  Q 620.69 407.46 618.36 396.32
  Q 617.31 391.30 612.59 388.86
  Q 610.16 387.60 606.15 387.69
  Q 597.36 387.87 588.44 387.77
  A 0.44 0.44 0.0 0 0 588.00 388.21
  L 588.00 428.25
  A 0.75 0.74 -0.0 0 0 588.75 428.99
  L 595.25 429.00
  Q 596.00 429.00 596.00 428.25
  L 596.00 412.99
  Q 596.00 412.23 596.76 412.23
  Z"
/>
<path fill="#158864" d="
  M 147.23 104.06
  C 106.28 103.26 71.13 129.49 58.16 167.68
  Q 53.71 180.80 53.21 193.46
  C 52.39 214.56 56.80 235.46 67.79 253.19
  C 82.11 276.31 104.82 291.11 131.76 295.55
  Q 142.80 297.37 153.97 296.53
  Q 190.01 293.82 214.70 267.87
  Q 215.05 267.51 215.39 267.86
  L 237.63 290.37
  A 0.52 0.52 0.0 0 1 237.63 291.10
  Q 212.01 316.71 177.99 325.18
  Q 138.41 335.03 99.52 320.81
  Q 94.60 319.02 88.65 316.12
  C 73.84 308.91 60.12 298.36 49.75 286.46
  Q 21.91 254.51 18.67 210.85
  Q 18.27 205.50 18.24 199.32
  C 18.12 169.19 29.52 139.93 48.60 117.34
  C 71.17 90.62 103.76 74.30 138.89 72.12
  Q 176.73 69.77 208.98 87.30
  Q 225.34 96.20 238.36 109.60
  Q 238.63 109.88 238.36 110.15
  L 215.44 132.84
  A 0.64 0.64 0.0 0 1 214.52 132.83
  Q 187.73 104.85 147.23 104.06
  Z"
/>
<path fill="#158864" d="
  M 864.62 262.47
  Q 842.52 301.99 801.13 319.46
  Q 791.86 323.38 781.99 325.61
  Q 741.80 334.73 704.92 320.69
  Q 662.94 304.69 640.16 264.97
  Q 635.42 256.72 631.79 246.63
  Q 623.23 222.88 623.89 196.24
  C 624.97 152.90 648.90 112.53 685.68 90.47
  Q 723.61 67.70 768.63 72.77
  C 790.86 75.28 814.10 84.46 832.00 98.95
  Q 878.28 136.39 880.41 197.97
  C 881.15 219.40 875.50 243.03 864.62 262.47
  Z
  M 732.97 105.86
  C 691.65 114.03 662.49 149.05 658.78 190.96
  C 658.34 195.93 658.70 201.20 658.91 206.22
  C 660.61 246.71 686.84 282.27 726.47 293.16
  Q 748.58 299.23 770.90 295.06
  Q 780.52 293.26 789.52 289.23
  Q 800.20 284.46 808.83 277.91
  C 831.99 260.36 845.34 232.07 845.77 203.42
  C 846.22 173.67 835.30 145.83 813.34 126.52
  C 804.49 118.73 792.17 111.60 779.96 108.16
  Q 775.25 106.83 771.17 105.96
  Q 752.57 101.99 732.97 105.86
  Z"
/>
<path fill="#158864" d="
  M 305.54 283.20
  L 288.68 329.03
  A 0.30 0.30 0.0 0 1 288.40 329.23
  L 253.60 329.23
  A 0.30 0.30 0.0 0 1 253.32 328.82
  L 353.51 78.21
  A 0.30 0.30 0.0 0 1 353.79 78.02
  L 363.00 78.01
  A 0.30 0.30 0.0 0 1 363.28 78.20
  L 460.33 328.83
  A 0.30 0.30 0.0 0 1 460.05 329.24
  L 425.19 329.23
  A 0.30 0.30 0.0 0 1 424.91 329.03
  L 408.11 283.20
  A 0.30 0.30 0.0 0 0 407.83 283.00
  L 305.82 283.00
  A 0.30 0.30 0.0 0 0 305.54 283.20
  Z
  M 317.37 251.80
  A 0.33 0.33 0.0 0 0 317.68 252.25
  L 396.50 252.26
  A 0.33 0.33 0.0 0 0 396.81 251.81
  L 358.93 150.04
  A 0.33 0.33 0.0 0 0 358.31 150.03
  L 317.37 251.80
  Z"
/>
<path fill="#158864" d="
  M 513.36 109.00
  L 441.90 109.00
  A 0.41 0.41 0.0 0 1 441.49 108.59
  L 441.49 78.41
  A 0.41 0.41 0.0 0 1 441.90 78.00
  L 619.10 78.00
  A 0.41 0.41 0.0 0 1 619.51 78.41
  L 619.51 108.59
  A 0.41 0.41 0.0 0 1 619.10 109.00
  L 547.77 109.00
  A 0.41 0.41 0.0 0 0 547.36 109.41
  L 547.36 328.81
  A 0.41 0.41 0.0 0 1 546.95 329.22
  L 514.18 329.24
  A 0.41 0.41 0.0 0 1 513.77 328.83
  L 513.77 109.41
  A 0.41 0.41 0.0 0 0 513.36 109.00
  Z"
/>
<path fill="#ffffff" d="
  M 658.78 190.96
  C 662.49 149.05 691.65 114.03 732.97 105.86
  Q 752.57 101.99 771.17 105.96
  Q 775.25 106.83 779.96 108.16
  C 792.17 111.60 804.49 118.73 813.34 126.52
  C 835.30 145.83 846.22 173.67 845.77 203.42
  C 845.34 232.07 831.99 260.36 808.83 277.91
  Q 800.20 284.46 789.52 289.23
  Q 780.52 293.26 770.90 295.06
  Q 748.58 299.23 726.47 293.16
  C 686.84 282.27 660.61 246.71 658.91 206.22
  C 658.70 201.20 658.34 195.93 658.78 190.96
  Z"
/>
<path fill="#ffffff" d="
  M 317.37 251.80
  L 358.31 150.03
  A 0.33 0.33 0.0 0 1 358.93 150.04
  L 396.81 251.81
  A 0.33 0.33 0.0 0 1 396.50 252.26
  L 317.68 252.25
  A 0.33 0.33 0.0 0 1 317.37 251.80
  Z"
/>
<path fill="#158864" d="
  M 292.87 395.38
  L 292.89 428.39
  A 0.37 0.37 0.0 0 1 292.52 428.76
  L 285.28 428.74
  A 0.37 0.37 0.0 0 1 284.91 428.37
  L 284.92 395.38
  A 0.37 0.37 0.0 0 0 284.55 395.01
  L 273.50 394.99
  A 0.37 0.37 0.0 0 1 273.13 394.62
  L 273.12 387.85
  A 0.37 0.37 0.0 0 1 273.49 387.48
  L 304.37 387.50
  A 0.37 0.37 0.0 0 1 304.74 387.87
  L 304.73 394.62
  A 0.37 0.37 0.0 0 1 304.36 394.99
  L 293.24 395.01
  A 0.37 0.37 0.0 0 0 292.87 395.38
  Z"
/>
<path fill="#158864" d="
  M 397.21 401.23
  L 389.68 428.12
  Q 389.50 428.74 388.86 428.74
  L 382.58 428.74
  Q 381.90 428.74 381.74 428.08
  L 371.90 387.77
  A 0.22 0.22 0.0 0 1 372.12 387.50
  L 379.92 387.49
  Q 380.12 387.49 380.16 387.68
  L 385.62 414.24
  Q 385.78 415.01 386.00 414.25
  L 393.81 388.01
  Q 393.96 387.49 394.51 387.49
  L 400.03 387.49
  Q 400.60 387.49 400.76 388.03
  L 408.39 413.82
  Q 408.75 415.03 409.02 413.79
  L 414.60 387.80
  Q 414.66 387.51 414.95 387.51
  L 422.68 387.45
  Q 422.98 387.45 422.91 387.74
  L 413.12 428.04
  Q 412.95 428.74 412.22 428.74
  L 405.71 428.74
  Q 405.16 428.74 405.02 428.20
  L 397.89 401.23
  Q 397.56 400.00 397.21 401.23
  Z"
/>
<path fill="#158864" d="
  M 521.2809 414.3324
  A 14.50 14.50 0.0 0 1 506.8063 428.8577
  L 504.2463 428.8622
  A 14.50 14.50 0.0 0 1 489.7210 414.3875
  L 489.6991 401.8276
  A 14.50 14.50 0.0 0 1 504.1737 387.3023
  L 506.7337 387.2978
  A 14.50 14.50 0.0 0 1 521.2590 401.7725
  L 521.2809 414.3324
  Z
  M 512.64 401.84
  A 7.01 7.01 0.0 0 0 505.63 394.83
  L 504.79 394.83
  A 7.01 7.01 0.0 0 0 497.78 401.84
  L 497.78 414.44
  A 7.01 7.01 0.0 0 0 504.79 421.45
  L 505.63 421.45
  A 7.01 7.01 0.0 0 0 512.64 414.44
  L 512.64 401.84
  Z"
/>
<path fill="#158864" d="
  M 695.86 407.23
  Q 695.86 408.05 696.33 407.37
  L 709.79 387.76
  Q 709.94 387.53 710.22 387.52
  Q 713.62 387.37 720.17 387.50
  A 0.04 0.04 0.0 0 1 720.20 387.57
  Q 714.22 395.45 707.59 404.36
  Q 707.27 404.80 707.55 405.26
  L 721.77 428.49
  A 0.16 0.15 74.4 0 1 721.64 428.73
  L 712.55 428.75
  Q 712.25 428.75 712.09 428.48
  L 702.56 412.53
  A 0.63 0.63 0.0 0 0 701.52 412.47
  L 696.20 419.52
  Q 695.86 419.97 695.86 420.53
  L 695.89 428.56
  Q 695.90 428.76 695.69 428.76
  L 688.22 428.73
  Q 687.92 428.73 687.92 428.43
  L 687.92 387.80
  Q 687.92 387.51 688.20 387.51
  L 695.55 387.45
  A 0.33 0.32 89.2 0 1 695.88 387.78
  L 695.86 407.23
  Z"
/>
<path fill="#158864" d="
  M 802.78 394.76
  C 800.17 395.15 797.06 398.39 799.11 401.00
  Q 800.42 402.67 802.51 403.22
  Q 807.99 404.65 814.01 406.18
  Q 820.82 407.92 821.32 415.03
  C 822.04 425.13 813.96 428.63 805.46 428.82
  Q 796.61 429.02 789.28 424.28
  Q 788.48 423.76 788.98 422.96
  L 791.85 418.34
  Q 792.38 417.49 793.20 418.07
  Q 797.20 420.89 803.38 421.54
  C 806.80 421.90 814.73 420.84 812.89 415.56
  Q 812.28 413.79 810.37 413.25
  Q 806.06 412.02 801.72 411.43
  C 794.03 410.37 789.11 405.58 790.79 397.12
  Q 792.19 390.08 798.69 388.30
  Q 809.78 385.26 819.71 391.12
  Q 820.39 391.52 820.01 392.22
  L 817.18 397.48
  Q 816.85 398.09 816.27 397.72
  Q 809.97 393.70 802.78 394.76
  Z"
/>
<path fill="#158864" d="
  M 85.08 400.01
  L 85.09 428.44
  Q 85.09 428.74 84.79 428.74
  L 77.75 428.74
  Q 77.26 428.74 77.26 428.25
  L 77.26 388.24
  Q 77.26 387.49 78.01 387.49
  L 86.76 387.49
  Q 87.31 387.49 87.56 387.98
  L 101.87 416.46
  Q 102.49 417.69 102.49 416.32
  L 102.50 387.75
  Q 102.50 387.50 102.75 387.50
  L 110.03 387.48
  Q 110.32 387.48 110.32 387.77
  L 110.32 428.20
  Q 110.32 428.73 109.80 428.73
  L 100.84 428.75
  Q 100.35 428.75 100.12 428.31
  L 85.60 399.89
  Q 85.08 398.88 85.08 400.01
  Z"
/>
<path fill="#158864" d="
  M 185.86 404.49
  L 202.49 404.50
  A 0.36 0.36 0.0 0 1 202.85 404.86
  L 202.88 411.64
  A 0.36 0.36 0.0 0 1 202.52 412.00
  L 185.87 412.00
  A 0.36 0.36 0.0 0 0 185.51 412.36
  L 185.51 420.90
  A 0.36 0.36 0.0 0 0 185.87 421.26
  L 205.87 421.25
  A 0.36 0.36 0.0 0 1 206.23 421.61
  L 206.24 428.38
  A 0.36 0.36 0.0 0 1 205.88 428.74
  L 177.62 428.74
  A 0.36 0.36 0.0 0 1 177.26 428.38
  L 177.27 387.85
  A 0.36 0.36 0.0 0 1 177.63 387.49
  L 205.87 387.49
  A 0.36 0.36 0.0 0 1 206.23 387.85
  L 206.23 394.64
  A 0.36 0.36 0.0 0 1 205.87 395.00
  L 185.88 395.00
  A 0.36 0.36 0.0 0 0 185.52 395.36
  L 185.50 404.13
  A 0.36 0.36 0.0 0 0 185.86 404.49
  Z"
/>
<path fill="#158864" d="
  M 596.00 412.99
  L 596.00 428.25
  Q 596.00 429.00 595.25 429.00
  L 588.75 428.99
  A 0.75 0.74 -0.0 0 1 588.00 428.25
  L 588.00 388.21
  A 0.44 0.44 0.0 0 1 588.44 387.77
  Q 597.36 387.87 606.15 387.69
  Q 610.16 387.60 612.59 388.86
  Q 617.31 391.30 618.36 396.32
  Q 620.69 407.46 611.13 411.94
  A 0.53 0.53 0.0 0 0 610.90 412.69
  Q 615.84 420.75 620.64 428.81
  A 0.05 0.05 0.0 0 1 620.60 428.88
  Q 612.20 429.24 610.79 428.84
  Q 610.69 428.81 610.64 428.72
  L 601.34 412.75
  Q 601.04 412.23 600.45 412.23
  L 596.76 412.23
  Q 596.00 412.23 596.00 412.99
  Z
  M 596.30 395.46
  L 596.34 404.42
  A 0.41 0.41 0.0 0 0 596.76 404.83
  L 606.28 404.78
  A 4.67 4.45 89.7 0 0 610.70 400.08
  L 610.70 399.64
  A 4.67 4.45 89.7 0 0 606.22 395.00
  L 596.70 395.05
  A 0.41 0.41 0.0 0 0 596.30 395.46
  Z"
/>
<rect fill="#ffffff" x="497.78" y="394.83" width="14.86" height="26.62" rx="7.01"/>
<path fill="#ffffff" d="
  M 596.30 395.46
  A 0.41 0.41 0.0 0 1 596.70 395.05
  L 606.22 395.00
  A 4.67 4.45 89.7 0 1 610.70 399.64
  L 610.70 400.08
  A 4.67 4.45 89.7 0 1 606.28 404.78
  L 596.76 404.83
  A 0.41 0.41 0.0 0 1 596.34 404.42
  L 596.30 395.46
  Z"
/>
</svg>

