
<svg xmlns="http://www.w3.org/2000/svg" xmlns:xlink="http://www.w3.org/1999/xlink" id="Calque_1" x="0px" y="0px" viewBox="0 0 433.5 60.3" style="enable-background:new 0 0 433.5 60.3;" xml:space="preserve"><style type="text/css">	</style><path class="st0" d="M79.1,11.5c4.6,0,9.2,1.9,13.5,5.5l0.9,0.7V7.1l-0.3-0.1c-4.1-2.5-8.8-3.8-13.6-3.8c-8.1-0.2-15.9,3.3-21,9.6  C54.3,17.6,52,24,52,30.5c-0.1,7.2,2.8,14.1,7.9,19.1c5.1,5.1,12,7.9,19.2,7.8c5,0,9.9-1.3,14.2-3.8l0.3-0.1V42.6l-0.9,0.8  c-1.1,1-2.3,1.9-3.5,2.7c-1,0.7-2.1,1.3-3.2,1.8c-2.1,0.9-4.4,1.3-6.7,1.3c-4.9,0.1-9.6-1.9-13-5.4c-3.5-3.5-5.4-8.3-5.3-13.2  c-0.1-5,1.8-9.9,5.3-13.5C69.5,13.4,74.2,11.4,79.1,11.5"></path><polygon class="st0" points="117.8,48 117.8,3.4 108.8,3.4 108.8,56.5 133.1,56.5 133.1,48 "></polygon><path class="st0" d="M168.6,21.6l6.5,14.9h-13.3L168.6,21.6z M168.8,2.3l-25.2,54.2h9.2l5.5-12h20.4l5.2,12h9.3L168.8,2.3z"></path><rect x="206" y="3.4" class="st0" width="9" height="53.1"></rect><rect x="288.8" y="3.4" class="st0" width="9" height="53.1"></rect><path class="st0" d="M258.1,37.2L268.9,56h-10l-15.2-26.2l7.8,0.1c4.8-0.1,8.7-4,8.7-8.8c0-2.3-0.9-4.5-2.6-6.1  c-1.6-1.7-3.8-2.6-6.1-2.6H234l-1-1l-4.5-7.8h22.9c9.6,0,17.4,7.8,17.4,17.4c0.1,3.5-1,7-3.1,9.9C263.9,33.7,261.3,35.9,258.1,37.2"></path><path class="st0" d="M361.9,30.3c0.1,5-1.8,9.8-5.4,13.3c-7.5,7-19.3,6.6-26.4-0.9c-6.8-7.3-6.7-18.6,0.3-25.7  c3.4-3.5,8.2-5.5,13.1-5.4c4.9-0.1,9.7,1.9,13.1,5.4C360.1,20.5,362,25.4,361.9,30.3 M362.7,11.2c-5-5.2-11.9-8.1-19.2-8  c-7.3-0.1-14.2,2.8-19.3,7.9c-5.2,4.9-8.2,11.8-8.1,19c0,8.3,3,15.2,8.9,20.3c10.8,9.7,27.3,9.3,37.7-0.9c5.2-5,8.1-11.9,8-19.1  C370.8,23.2,367.9,16.3,362.7,11.2"></path><polygon class="st0" points="386.4,0 386.4,56.4 395.4,56.4 395.4,21.5 433.5,60.3 433.5,4.3 424.5,4.3 424.5,38.9 "></polygon><polygon class="st0" points="0,3 8.7,12 34.8,12 34.8,3 "></polygon><polygon class="st0" points="8.7,47.8 0,56.8 34.8,56.8 34.8,47.8 "></polygon><rect y="25.4" class="st0" width="34.8" height="8.9"></rect></svg>
