

<?xml version="1.0" encoding="UTF-8"?>
<!DOCTYPE svg PUBLIC "-//W3C//DTD SVG 1.1//EN" "http://www.w3.org/Graphics/SVG/1.1/DTD/svg11.dtd">
<svg xmlns="http://www.w3.org/2000/svg" version="1.1" width="302px" height="129px" style="shape-rendering:geometricPrecision; text-rendering:geometricPrecision; image-rendering:optimizeQuality; fill-rule:evenodd; clip-rule:evenodd" xmlns:xlink="http://www.w3.org/1999/xlink">
<g><path style="opacity:1" fill="#fdfefd" d="M -0.5,-0.5 C 100.167,-0.5 200.833,-0.5 301.5,-0.5C 301.5,42.5 301.5,85.5 301.5,128.5C 200.833,128.5 100.167,128.5 -0.5,128.5C -0.5,85.5 -0.5,42.5 -0.5,-0.5 Z"/></g>
<g><path style="opacity:1" fill="#79b7d6" d="M 44.5,33.5 C 44.8039,34.1499 45.1373,34.8165 45.5,35.5C 44.0905,36.5695 43.0905,37.9028 42.5,39.5C 39.5251,40.6551 36.8584,42.3218 34.5,44.5C 35.0038,40.8015 36.6704,37.6348 39.5,35C 36.8428,34.8253 34.1761,34.9919 31.5,35.5C 31.9175,34.7784 32.5842,34.2784 33.5,34C 37.1516,33.5014 40.8183,33.3347 44.5,33.5 Z"/></g>
<g><path style="opacity:1" fill="#b2d6e7" d="M 44.5,33.5 C 55.3049,37.6562 54.6382,39.6562 42.5,39.5C 43.0905,37.9028 44.0905,36.5695 45.5,35.5C 45.1373,34.8165 44.8039,34.1499 44.5,33.5 Z"/></g>
<g><path style="opacity:1" fill="#3e96c3" d="M 79.5,39.5 C 85.6592,39.0339 91.6592,39.7006 97.5,41.5C 98.6474,43.7649 98.8141,46.0982 98,48.5C 92.8447,45.6954 87.3447,44.8621 81.5,46C 77.1981,47.9351 75.1981,51.2684 75.5,56C 76.9305,65.8956 82.5971,69.5622 92.5,67C 94.6641,66.0857 96.6641,64.919 98.5,63.5C 99.8333,65.8333 99.8333,68.1667 98.5,70.5C 84.6184,77.1554 74.785,73.4887 69,59.5C 67.6048,53.6255 69.1048,48.6255 73.5,44.5C 75.5441,42.7806 77.5441,41.1139 79.5,39.5 Z"/></g>
<g><path style="opacity:1" fill="#4297c4" d="M 153.5,39.5 C 155.5,39.5 157.5,39.5 159.5,39.5C 159.5,50.5 159.5,61.5 159.5,72.5C 157.5,72.5 155.5,72.5 153.5,72.5C 153.5,61.5 153.5,50.5 153.5,39.5 Z"/></g>
<g><path style="opacity:1" fill="#4dac53" d="M 257.5,42.5 C 261.161,42.3501 262.161,43.8501 260.5,47C 256.707,47.4866 255.707,45.9866 257.5,42.5 Z"/></g>
<g><path style="opacity:1" fill="#4098c5" d="M 34.5,44.5 C 26.6737,53.8429 26.6737,63.3429 34.5,73C 37.3388,74.9203 40.3388,76.5869 43.5,78C 24.3632,78.3036 15.8632,68.8036 18,49.5C 20.681,42.9872 25.181,38.3205 31.5,35.5C 34.1761,34.9919 36.8428,34.8253 39.5,35C 36.6704,37.6348 35.0038,40.8015 34.5,44.5 Z"/></g>
<g><path style="opacity:1" fill="#8fcb94" d="M 283.5,45.5 C 288.159,45.0146 289.492,46.848 287.5,51C 282.221,51.5848 280.888,49.7514 283.5,45.5 Z"/></g>
<g><path style="opacity:1" fill="#44a84b" d="M 228.5,50.5 C 230.265,51.4614 232.265,51.7947 234.5,51.5C 234.5,52.5 234.5,53.5 234.5,54.5C 232.265,54.2053 230.265,54.5386 228.5,55.5C 228.334,59.5138 228.501,63.5138 229,67.5C 231.132,68.7797 233.298,68.7797 235.5,67.5C 236.83,69.3469 236.497,70.8469 234.5,72C 229.543,73.683 226.21,72.183 224.5,67.5C 224.5,63.1667 224.5,58.8333 224.5,54.5C 223.209,54.7373 222.209,54.404 221.5,53.5C 223.146,51.1878 225.146,49.1878 227.5,47.5C 228.386,48.325 228.719,49.325 228.5,50.5 Z"/></g>
<g><path style="opacity:1" fill="#5aa7cd" d="M 38.5,50.5 C 39.552,50.3505 40.552,50.5172 41.5,51C 45.3121,59.0924 51.6455,63.259 60.5,63.5C 59.7813,65.8881 58.1146,67.3881 55.5,68C 41.6942,69.6982 36.0275,63.8649 38.5,50.5 Z"/></g>
<g><path style="opacity:1" fill="#3d95c3" d="M 108.5,50.5 C 121.684,49.1756 126.851,54.8423 124,67.5C 117.95,74.5554 111.284,75.222 104,69.5C 99.5976,61.6438 101.098,55.3104 108.5,50.5 Z"/></g>
<g><path style="opacity:1" fill="#3a94c2" d="M 134.5,50.5 C 145.755,48.8312 151.255,53.4979 151,64.5C 147.78,71.6935 142.28,74.5268 134.5,73C 128.456,69.5514 126.29,64.3848 128,57.5C 129.694,54.6424 131.861,52.309 134.5,50.5 Z"/></g>
<g><path style="opacity:1" fill="#46a94d" d="M 167.5,50.5 C 171.215,50.423 174.881,50.7564 178.5,51.5C 178.785,53.288 178.452,54.9547 177.5,56.5C 169.443,53.055 165.609,55.7216 166,64.5C 169.006,68.4813 172.84,69.4813 177.5,67.5C 178.83,69.3469 178.497,70.8469 176.5,72C 165.053,73.8868 160.22,69.0534 162,57.5C 163.666,55.0043 165.5,52.671 167.5,50.5 Z"/></g>
<g><path style="opacity:1" fill="#45a94c" d="M 198.5,56.5 C 198.5,58.1667 198.5,59.8333 198.5,61.5C 193.637,61.1805 188.97,61.5139 184.5,62.5C 184.84,64.679 185.84,66.5123 187.5,68C 191.332,68.7622 194.998,68.2622 198.5,66.5C 199.83,68.3469 199.497,69.8469 197.5,71C 183.222,74.3318 178.056,68.8318 182,54.5C 185.05,50.8697 188.883,49.703 193.5,51C 196.079,52.0757 197.746,53.909 198.5,56.5 Z"/></g>
<g><path style="opacity:1" fill="#40a747" d="M 206.5,56.5 C 205.513,61.3054 205.179,66.3054 205.5,71.5C 204.5,71.5 203.5,71.5 202.5,71.5C 202.5,64.8333 202.5,58.1667 202.5,51.5C 204.143,51.4802 205.476,52.1468 206.5,53.5C 207.107,53.3764 207.44,53.0431 207.5,52.5C 211.867,49.4224 215.7,50.0891 219,54.5C 219.499,60.4908 219.666,66.4908 219.5,72.5C 218.167,72.5 216.833,72.5 215.5,72.5C 215.666,67.1563 215.499,61.8229 215,56.5C 212.17,53.8987 209.337,53.8987 206.5,56.5 Z"/></g>
<g><path style="opacity:1" fill="#3fa647" d="M 247.5,50.5 C 250.596,49.9066 252.929,50.9066 254.5,53.5C 254.081,54.6721 253.415,55.6721 252.5,56.5C 249.959,53.8997 247.459,53.8997 245,56.5C 243.603,61.7081 243.103,67.0414 243.5,72.5C 242.167,72.5 240.833,72.5 239.5,72.5C 239.5,65.5 239.5,58.5 239.5,51.5C 240.833,51.5 242.167,51.5 243.5,51.5C 243.351,52.552 243.517,53.552 244,54.5C 245.376,53.2949 246.542,51.9616 247.5,50.5 Z"/></g>
<g><path style="opacity:1" fill="#49ab50" d="M 269.5,50.5 C 273.215,50.423 276.881,50.7564 280.5,51.5C 280.785,53.288 280.452,54.9547 279.5,56.5C 270.781,53.0415 267.281,56.0415 269,65.5C 271.961,68.6163 275.461,69.2829 279.5,67.5C 280.83,69.3469 280.497,70.8469 278.5,72C 267.053,73.8868 262.22,69.0534 264,57.5C 265.666,55.0043 267.5,52.671 269.5,50.5 Z"/></g>
<g><path style="opacity:1" fill="#c0ddec" d="M 45.5,44.5 C 46.964,43.8401 48.6307,43.5068 50.5,43.5C 53.9877,43.7008 57.321,44.3675 60.5,45.5C 61.8519,48.8354 62.5186,52.3354 62.5,56C 62.4944,58.0326 62.1611,59.866 61.5,61.5C 61.5,58.8333 61.5,56.1667 61.5,53.5C 53.2473,55.0545 47.9139,52.0545 45.5,44.5 Z"/></g>
<g><path style="opacity:1" fill="#83c688" d="M 260.5,51.5 C 261.491,58.3134 261.825,65.3134 261.5,72.5C 259.833,72.5 258.167,72.5 256.5,72.5C 256.5,65.1667 256.5,57.8333 256.5,50.5C 258.099,50.2322 259.432,50.5655 260.5,51.5 Z"/></g>
<g><path style="opacity:1" fill="#33a23d" d="M 260.5,51.5 C 260.5,58.1667 260.5,64.8333 260.5,71.5C 259.5,71.5 258.5,71.5 257.5,71.5C 257.5,64.8333 257.5,58.1667 257.5,51.5C 258.5,51.5 259.5,51.5 260.5,51.5 Z"/></g>
<g><path style="opacity:1" fill="#81c587" d="M 207.5,52.5 C 207.44,53.0431 207.107,53.3764 206.5,53.5C 205.476,52.1468 204.143,51.4802 202.5,51.5C 202.5,58.1667 202.5,64.8333 202.5,71.5C 203.5,71.5 204.5,71.5 205.5,71.5C 205.179,66.3054 205.513,61.3054 206.5,56.5C 206.5,61.8333 206.5,67.1667 206.5,72.5C 204.833,72.5 203.167,72.5 201.5,72.5C 201.5,65.1667 201.5,57.8333 201.5,50.5C 203.886,50.2587 205.886,50.9254 207.5,52.5 Z"/></g>
<g><path style="opacity:1" fill="#f5faf5" d="M 187.5,54.5 C 191.851,53.533 194.185,55.1996 194.5,59.5C 191.102,59.8204 187.768,59.487 184.5,58.5C 185.524,57.1482 186.524,55.8149 187.5,54.5 Z"/></g>
<g><path style="opacity:1" fill="#a4d5a8" d="M 228.5,50.5 C 230.833,50.5 233.167,50.5 235.5,50.5C 235.5,52.1667 235.5,53.8333 235.5,55.5C 233.167,55.5 230.833,55.5 228.5,55.5C 230.265,54.5386 232.265,54.2053 234.5,54.5C 234.5,53.5 234.5,52.5 234.5,51.5C 232.265,51.7947 230.265,51.4614 228.5,50.5 Z"/></g>
<g><path style="opacity:1" fill="#87bfda" d="M 45.5,44.5 C 47.9139,52.0545 53.2473,55.0545 61.5,53.5C 61.5,56.1667 61.5,58.8333 61.5,61.5C 61.6716,62.4916 61.3382,63.1583 60.5,63.5C 51.6455,63.259 45.3121,59.0924 41.5,51C 40.552,50.5172 39.552,50.3505 38.5,50.5C 40.2393,47.7573 42.5726,45.7573 45.5,44.5 Z"/></g>
<g><path style="opacity:1" fill="#f7fafc" d="M 110.5,55.5 C 119.823,55.7408 121.823,59.5742 116.5,67C 109,68.8333 106.167,66 108,58.5C 109.045,57.6266 109.878,56.6266 110.5,55.5 Z"/></g>
<g><path style="opacity:1" fill="#f4f9fb" d="M 136.5,55.5 C 141.713,54.7617 144.713,56.9284 145.5,62C 144.089,67.1409 140.755,68.8075 135.5,67C 131.344,62.7871 131.677,58.9538 136.5,55.5 Z"/></g>
<g><path style="opacity:1" fill="#a8d7ac" d="M 221.5,53.5 C 222.209,54.404 223.209,54.7373 224.5,54.5C 224.5,58.8333 224.5,63.1667 224.5,67.5C 223.517,63.7016 223.183,59.7016 223.5,55.5C 222.325,55.719 221.325,55.3857 220.5,54.5C 220.624,53.8933 220.957,53.56 221.5,53.5 Z"/></g>
<g><path style="opacity:1" fill="#8ac98f" d="M 198.5,56.5 C 199.461,58.2646 199.795,60.2646 199.5,62.5C 194.5,62.5 189.5,62.5 184.5,62.5C 188.97,61.5139 193.637,61.1805 198.5,61.5C 198.5,59.8333 198.5,58.1667 198.5,56.5 Z"/></g>
<g><path style="opacity:1" fill="#489ac6" d="M 33.5,47.5 C 29.8929,64.3748 36.8929,72.8748 54.5,73C 46.9527,77.588 40.1194,76.4214 34,69.5C 29.663,62.189 29.4963,54.8557 33.5,47.5 Z"/></g>
<g><path style="opacity:1" fill="#5cb362" d="M 120.5,81.5 C 123.881,80.8877 126.214,82.0544 127.5,85C 126.219,88.0437 123.885,89.2104 120.5,88.5C 120.5,86.1667 120.5,83.8333 120.5,81.5 Z"/></g>
<g><path style="opacity:1" fill="#eff7ef" d="M 122.5,82.5 C 124.912,82.6941 125.912,84.0274 125.5,86.5C 124.5,86.5 123.5,86.5 122.5,86.5C 122.5,85.1667 122.5,83.8333 122.5,82.5 Z"/></g>
<g><path style="opacity:1" fill="#5cb361" d="M 135.5,82.5 C 136.946,81.3871 138.613,81.2204 140.5,82C 139.887,84.1474 139.221,86.314 138.5,88.5C 138.036,86.0251 137.036,84.0251 135.5,82.5 Z"/></g>
<g><path style="opacity:1" fill="#5cb463" d="M 174.5,82.5 C 176.288,81.3775 178.288,81.2109 180.5,82C 179.036,83.864 178.036,86.0306 177.5,88.5C 177.036,86.0251 176.036,84.0251 174.5,82.5 Z"/></g>
<g><path style="opacity:1" fill="#67b86c" d="M 188.5,81.5 C 190.167,81.5 191.833,81.5 193.5,81.5C 193.663,83.8568 193.497,86.1902 193,88.5C 191.653,84.625 190.486,84.625 189.5,88.5C 188.526,86.2573 188.192,83.924 188.5,81.5 Z"/></g>
<g><path style="opacity:1" fill="#59b25e" d="M 220.5,81.5 C 221.873,81.3433 223.207,81.51 224.5,82C 223.692,82.3076 223.025,82.8076 222.5,83.5C 224.98,84.4154 225.647,85.9154 224.5,88C 223.056,88.7805 221.723,88.6139 220.5,87.5C 221.025,86.8076 221.692,86.3076 222.5,86C 220.963,84.8904 220.297,83.3904 220.5,81.5 Z"/></g>
<g><path style="opacity:1" fill="#59b25f" d="M 245.5,81.5 C 247.411,81.5743 248.578,82.5743 249,84.5C 249.249,83.376 249.749,82.376 250.5,81.5C 251.833,83.8333 251.833,86.1667 250.5,88.5C 249.108,87.3947 247.941,86.0614 247,84.5C 246.667,85.8333 246.333,87.1667 246,88.5C 245.503,86.1902 245.337,83.8568 245.5,81.5 Z"/></g>
<g><path style="opacity:1" fill="#5cb361" d="M 261.5,81.5 C 263.167,81.5 264.833,81.5 266.5,81.5C 266.662,83.5273 266.495,85.5273 266,87.5C 264.644,88.3802 263.144,88.7135 261.5,88.5C 261.5,86.1667 261.5,83.8333 261.5,81.5 Z"/></g>
<g><path style="opacity:1" fill="#6cbb72" d="M 71.5,81.5 C 73.143,81.4802 74.4763,82.1468 75.5,83.5C 76.5237,82.1468 77.857,81.4802 79.5,81.5C 79.8076,83.924 79.4742,86.2573 78.5,88.5C 77.7492,87.624 77.2492,86.624 77,85.5C 76.4177,88.6677 75.4177,89.001 74,86.5C 73.6924,87.3081 73.1924,87.9747 72.5,88.5C 71.5258,86.2573 71.1924,83.924 71.5,81.5 Z"/></g>
<g><path style="opacity:1" fill="#62b668" d="M 89.5,81.5 C 91.2247,82.278 92.8914,82.6114 94.5,82.5C 93.3904,84.4959 93.7237,86.3292 95.5,88C 93.5911,88.4479 92.4244,87.6145 92,85.5C 91.7508,86.624 91.2508,87.624 90.5,88.5C 89.5258,86.2573 89.1924,83.924 89.5,81.5 Z"/></g>
<g><path style="opacity:1" fill="#59b260" d="M 166.5,81.5 C 168.592,81.5614 170.092,82.5614 171,84.5C 171.333,83.5 171.667,82.5 172,81.5C 172.814,83.9018 172.647,86.2351 171.5,88.5C 170.416,87.3349 169.583,86.0016 169,84.5C 168.781,85.938 168.281,87.2713 167.5,88.5C 166.526,86.2573 166.192,83.924 166.5,81.5 Z"/></g>
<g><path style="opacity:1" fill="#5cb464" d="M 226.5,82.5 C 228.288,81.3775 230.288,81.2109 232.5,82C 231.036,83.864 230.036,86.0306 229.5,88.5C 229.036,86.0251 228.036,84.0251 226.5,82.5 Z"/></g>
<g><path style="opacity:1" fill="#5ab260" d="M 82.5,81.5 C 85.7705,81.6787 87.4371,83.512 87.5,87C 87.1667,87.5 86.8333,88 86.5,88.5C 85.0626,85.9557 83.5626,85.9557 82,88.5C 81.6664,86.1527 81.833,83.8194 82.5,81.5 Z"/></g>
<g><path style="opacity:1" fill="#53af59" d="M 101.5,81.5 C 103.074,81.9371 104.241,82.9371 105,84.5C 105.249,83.376 105.749,82.376 106.5,81.5C 107.833,83.8333 107.833,86.1667 106.5,88.5C 105.108,87.3947 103.941,86.0614 103,84.5C 102.667,85.8333 102.333,87.1667 102,88.5C 101.503,86.1902 101.337,83.8568 101.5,81.5 Z"/></g>
<g><path style="opacity:1" fill="#60b565" d="M 130.5,81.5 C 131.5,81.5 132.5,81.5 133.5,81.5C 134.167,83.8194 134.334,86.1527 134,88.5C 132.437,85.9557 130.937,85.9557 129.5,88.5C 128.721,86.1152 129.054,83.7819 130.5,81.5 Z"/></g>
<g><path style="opacity:1" fill="#5fb564" d="M 143.5,81.5 C 144.5,81.5 145.5,81.5 146.5,81.5C 147.167,83.8194 147.334,86.1527 147,88.5C 145.437,85.9557 143.937,85.9557 142.5,88.5C 141.721,86.1152 142.054,83.7819 143.5,81.5 Z"/></g>
<g><path style="opacity:1" fill="#62b667" d="M 234.5,81.5 C 235.675,81.281 236.675,81.6143 237.5,82.5C 238.77,84.5477 239.103,86.5477 238.5,88.5C 236.833,85.8333 235.167,85.8333 233.5,88.5C 233.167,88.1667 232.833,87.8333 232.5,87.5C 233.372,85.5504 234.039,83.5504 234.5,81.5 Z"/></g>
<g><path style="opacity:1" fill="#5db463" d="M 254.5,81.5 C 255.822,81.33 256.989,81.6634 258,82.5C 258.346,84.2182 258.846,85.8849 259.5,87.5C 259.167,87.8333 258.833,88.1667 258.5,88.5C 257.063,85.9557 255.563,85.9557 254,88.5C 253.666,86.1527 253.833,83.8194 254.5,81.5 Z"/></g>
<g><path style="opacity:1" fill="#41a84a" d="M 275.5,81.5 C 280.041,81.3309 280.374,81.9975 276.5,83.5C 277.376,84.2508 278.376,84.7508 279.5,85C 275.5,86 275.5,87 279.5,88C 278.207,88.49 276.873,88.6567 275.5,88.5C 275.5,86.1667 275.5,83.8333 275.5,81.5 Z"/></g>
<g><path style="opacity:1" fill="#5db463" d="M 196.5,81.5 C 199.598,81.4125 199.932,81.9125 197.5,83C 201.747,87.0031 201.081,88.5031 195.5,87.5C 196.376,86.7492 197.376,86.2492 198.5,86C 195.715,85.2742 195.048,83.7742 196.5,81.5 Z"/></g>
<g><path style="opacity:1" fill="#52af5a" d="M 110.5,81.5 C 115.539,81.4511 115.705,82.1177 111,83.5C 110.114,86.4402 110.948,87.4402 113.5,86.5C 112.391,84.7859 113.058,84.1192 115.5,84.5C 115.5,85.8333 115.5,87.1667 115.5,88.5C 109.753,89.1285 108.086,86.7952 110.5,81.5 Z"/></g>
<g><path style="opacity:1" fill="#62b667" d="M 153.5,81.5 C 155.199,81.3398 156.866,81.5065 158.5,82C 155.553,82.1118 154.22,83.6118 154.5,86.5C 155.978,86.238 157.311,86.5713 158.5,87.5C 153.309,88.6358 151.642,86.6358 153.5,81.5 Z"/></g>
<g><path style="opacity:1" fill="#5fb464" d="M 160.5,81.5 C 165.041,81.3309 165.374,81.9975 161.5,83.5C 162.376,84.2508 163.376,84.7508 164.5,85C 163.833,85.3333 163.167,85.6667 162.5,86C 163.624,86.2492 164.624,86.7492 165.5,87.5C 163.955,88.4519 162.288,88.7852 160.5,88.5C 160.5,86.1667 160.5,83.8333 160.5,81.5 Z"/></g>
<g><path style="opacity:1" fill="#65b769" d="M 181.5,81.5 C 183.199,81.3398 184.866,81.5065 186.5,82C 182.5,83 182.5,84 186.5,85C 182.639,85.5691 182.639,86.4024 186.5,87.5C 184.955,88.4519 183.288,88.7852 181.5,88.5C 181.5,86.1667 181.5,83.8333 181.5,81.5 Z"/></g>
<g><path style="opacity:1" fill="#53af5a" d="M 205.5,81.5 C 206.873,81.3433 208.207,81.51 209.5,82C 208.692,82.3076 208.025,82.8076 207.5,83.5C 211.682,86.9736 211.015,88.4736 205.5,88C 209.251,87.2386 209.417,86.0719 206,84.5C 205.517,83.552 205.351,82.552 205.5,81.5 Z"/></g>
<g><path style="opacity:1" fill="#64b769" d="M 212.5,81.5 C 213.999,82.6782 214.999,84.3449 215.5,86.5C 216.167,84.8333 216.833,83.1667 217.5,81.5C 219.831,86.9471 218.331,88.9471 213,87.5C 212.505,85.5273 212.338,83.5273 212.5,81.5 Z"/></g>
<g><path style="opacity:1" fill="#61b667" d="M 268.5,81.5 C 270.256,82.5521 270.923,84.2188 270.5,86.5C 271.675,86.281 272.675,86.6143 273.5,87.5C 271.955,88.4519 270.288,88.7852 268.5,88.5C 268.5,86.1667 268.5,83.8333 268.5,81.5 Z"/></g>
</svg>

