

<?xml version="1.0" encoding="UTF-8" standalone="no"?>
<!DOCTYPE svg PUBLIC "-//W3C//DTD SVG 1.1//EN" "http://www.w3.org/Graphics/SVG/1.1/DTD/svg11.dtd">
<svg xmlns="http://www.w3.org/2000/svg" version="1.1" viewBox="0.00 0.00 114.00 51.00">
<path fill="#13122f" d="
  M 0.00 17.63
  L 0.00 12.37
  Q 4.69 -2.18 20.71 1.99
  Q 21.33 2.15 21.16 2.76
  L 20.14 6.46
  Q 19.95 7.15 19.28 6.91
  C 14.77 5.29 9.90 5.61 7.43 10.00
  C 4.76 14.77 6.44 22.20 12.15 23.52
  Q 15.34 24.25 19.52 23.13
  Q 20.02 22.99 20.12 23.50
  L 20.89 27.37
  Q 21.00 27.95 20.43 28.11
  C 11.18 30.73 2.19 28.23 0.00 17.63
  Z"
/>
<path fill="#13122f" d="
  M 75.42 19.83
  C 75.40 22.48 76.10 23.33 77.93 25.04
  A 0.57 0.57 0.0 0 1 77.91 25.88
  L 74.70 28.69
  Q 74.25 29.09 73.74 28.77
  C 70.99 27.07 69.60 24.60 69.64 21.29
  Q 69.78 10.29 69.63 1.39
  Q 69.62 1.00 70.01 1.00
  L 75.01 1.00
  A 0.43 0.43 0.0 0 1 75.44 1.43
  Q 75.48 10.41 75.42 19.83
  Z"
/>
<path fill="#13122f" d="
  M 84.48 15.86
  C 84.48 13.74 83.98 11.86 82.19 10.60
  Q 81.33 10.01 82.18 9.40
  Q 83.67 8.33 84.72 6.90
  Q 85.24 6.19 85.99 6.66
  Q 90.14 9.26 90.18 13.54
  Q 90.27 24.38 90.27 34.45
  Q 90.26 34.75 89.96 34.75
  L 84.94 34.75
  Q 84.52 34.75 84.52 34.33
  Q 84.48 24.87 84.48 15.86
  Z"
/>
<path fill="#13122f" d="
  M 106.54 11.59
  L 106.55 34.16
  A 0.34 0.34 0.0 0 1 106.21 34.50
  L 100.56 34.50
  A 0.34 0.34 0.0 0 1 100.22 34.16
  L 100.22 11.60
  A 0.34 0.34 0.0 0 0 99.88 11.26
  L 93.91 11.25
  A 0.34 0.34 0.0 0 1 93.57 10.91
  L 93.58 6.59
  A 0.34 0.34 0.0 0 1 93.92 6.25
  L 112.84 6.25
  A 0.34 0.34 0.0 0 1 113.18 6.59
  L 113.21 10.91
  A 0.34 0.34 0.0 0 1 112.87 11.25
  L 106.88 11.25
  A 0.34 0.34 0.0 0 0 106.54 11.59
  Z"
/>
<path fill="#13122f" d="
  M 27.1216 27.1284
  A 10.08 9.92 127.3 0 1 25.3389 13.0986
  A 10.08 9.92 127.3 0 1 39.3384 11.0916
  A 10.08 9.92 127.3 0 1 41.1211 25.1214
  A 10.08 9.92 127.3 0 1 27.1216 27.1284
  Z
  M 33.1608 24.8194
  A 5.67 3.77 90.8 0 0 37.0096 19.2026
  A 5.67 3.77 90.8 0 0 33.3192 13.4806
  A 5.67 3.77 90.8 0 0 29.4704 19.0974
  A 5.67 3.77 90.8 0 0 33.1608 24.8194
  Z"
/>
<path fill="#13122f" d="
  M 66.44 19.13
  A 10.03 10.03 0.0 0 1 56.41 29.16
  A 10.03 10.03 0.0 0 1 46.38 19.13
  A 10.03 10.03 0.0 0 1 56.41 9.10
  A 10.03 10.03 0.0 0 1 66.44 19.13
  Z
  M 56.3205 24.6899
  A 5.63 3.70 90.3 0 0 60.0499 19.0794
  A 5.63 3.70 90.3 0 0 56.3795 13.4301
  A 5.63 3.70 90.3 0 0 52.6501 19.0406
  A 5.63 3.70 90.3 0 0 56.3205 24.6899
  Z"
/>
<path fill="#13122f" d="
  M 73.42 42.83
  L 73.49 46.02
  Q 73.51 46.82 74.30 46.71
  Q 75.49 46.56 75.54 47.78
  A 0.66 0.65 -9.9 0 1 75.08 48.43
  Q 74.06 48.76 73.05 48.69
  A 1.91 1.90 2.1 0 1 71.28 46.79
  L 71.29 42.60
  A 0.74 0.71 18.2 0 0 70.98 42.01
  L 70.38 41.60
  Q 69.86 41.24 70.25 40.74
  Q 70.50 40.41 70.91 40.28
  Q 71.33 40.14 71.31 39.69
  L 71.27 38.51
  Q 71.25 38.02 71.74 38.01
  L 72.76 38.00
  Q 73.55 37.98 73.48 38.77
  L 73.39 39.71
  Q 73.33 40.38 74.00 40.25
  Q 74.77 40.10 75.35 40.53
  A 0.72 0.71 -44.7 0 1 75.34 41.67
  Q 74.84 42.04 74.23 42.02
  Q 73.40 42.00 73.42 42.83
  Z"
/>
<path fill="#13122f" d="
  M 111.44 39.66
  Q 112.04 39.63 112.12 39.06
  Q 112.18 38.70 112.46 38.46
  Q 113.00 37.99 112.94 38.70
  L 112.79 40.24
  Q 112.74 40.74 112.23 40.80
  Q 110.43 41.01 109.97 39.52
  Q 109.83 39.05 109.33 39.09
  Q 108.72 39.15 108.25 38.78
  Q 107.79 38.42 108.36 38.31
  Q 110.34 37.93 111.07 39.44
  Q 111.19 39.68 111.44 39.66
  Z"
/>
<path fill="#13122f" d="
  M 79.11 45.27
  Q 78.93 45.27 78.98 45.43
  Q 79.27 46.38 80.16 46.78
  Q 81.07 47.18 81.95 46.72
  Q 83.14 46.09 83.89 47.22
  Q 84.09 47.52 83.81 47.74
  Q 82.17 49.05 80.21 48.63
  C 73.38 47.20 77.36 37.56 82.23 40.54
  Q 84.35 41.84 84.25 44.63
  Q 84.23 45.25 83.61 45.25
  L 79.11 45.27
  Z
  M 81.93 43.10
  Q 81.05 41.24 79.55 42.41
  Q 77.88 43.72 80.00 43.75
  L 81.50 43.77
  Q 82.25 43.78 81.93 43.10
  Z"
/>
<path fill="#13122f" d="
  M 95.89 42.87
  Q 95.87 41.88 94.87 41.96
  L 94.46 42.00
  Q 93.27 42.10 93.26 43.29
  L 93.24 48.00
  A 0.50 0.50 0.0 0 1 92.75 48.50
  L 91.55 48.53
  Q 91.05 48.54 91.04 48.05
  L 90.91 42.86
  Q 90.89 41.99 90.02 41.96
  Q 89.80 41.95 89.58 41.97
  A 1.37 1.36 -1.8 0 0 88.31 43.32
  L 88.25 48.11
  Q 88.25 48.48 87.88 48.49
  L 86.52 48.52
  A 0.50 0.50 0.0 0 1 86.01 48.02
  L 86.04 40.83
  A 0.77 0.77 0.0 0 1 87.20 40.17
  Q 88.51 40.93 89.79 40.23
  A 1.88 1.83 31.1 0 1 90.69 40.02
  Q 91.39 40.04 91.85 40.56
  Q 92.52 41.31 93.40 40.81
  C 95.67 39.52 98.19 40.33 98.16 43.22
  Q 98.13 45.77 98.24 47.97
  Q 98.27 48.50 97.75 48.50
  L 96.51 48.51
  Q 96.01 48.51 96.00 48.01
  L 95.89 42.87
  Z"
/>
<path fill="#13122f" d="
  M 49.94 42.87
  L 52.54 44.35
  A 2.13 2.13 0.0 0 1 52.98 47.72
  Q 50.88 49.79 47.65 47.97
  A 0.74 0.73 -59.9 0 1 47.38 46.95
  L 47.57 46.63
  A 0.98 0.97 35.2 0 1 49.03 46.38
  Q 49.93 47.12 50.95 46.90
  Q 51.99 46.68 51.21 45.96
  Q 50.37 45.18 49.17 44.89
  C 46.70 44.28 47.08 40.53 49.55 40.25
  Q 51.27 40.06 52.92 40.58
  Q 53.55 40.77 53.40 41.42
  Q 53.26 42.01 52.82 42.45
  A 0.40 0.40 0.0 0 1 52.25 42.44
  Q 51.30 41.44 50.02 41.90
  Q 48.93 42.30 49.94 42.87
  Z"
/>
<path fill="#13122f" d="
  M 58.35 51.00
  L 55.26 51.00
  Q 54.60 49.38 56.99 48.82
  A 0.55 0.54 -17.0 0 0 57.38 48.09
  L 54.64 40.93
  Q 54.40 40.29 55.08 40.27
  L 56.06 40.23
  Q 56.72 40.21 56.93 40.83
  L 58.37 44.95
  Q 58.67 45.81 58.95 44.94
  L 60.30 40.76
  A 0.75 0.74 -80.8 0 1 61.01 40.24
  L 62.07 40.26
  Q 62.71 40.26 62.47 40.86
  L 58.35 51.00
  Z"
/>
<path fill="#13122f" d="
  M 66.93 46.80
  A 0.57 0.57 0.0 0 0 66.91 45.78
  L 64.25 44.59
  A 1.64 1.62 0.6 0 1 63.42 43.75
  C 62.77 42.25 63.52 40.40 65.30 40.23
  Q 67.06 40.06 68.42 40.67
  Q 69.12 40.98 68.98 41.74
  L 68.93 42.01
  A 0.54 0.54 0.0 0 1 68.12 42.37
  Q 67.01 41.71 66.59 41.73
  Q 63.92 41.87 66.22 43.25
  C 67.54 44.05 69.38 44.30 69.22 46.36
  A 2.58 2.58 0.0 0 1 66.81 48.74
  Q 65.00 48.86 63.21 47.91
  Q 62.66 47.61 62.92 47.05
  L 63.11 46.66
  Q 63.55 45.74 64.33 46.39
  Q 65.61 47.46 66.93 46.80
  Z"
/>
<path fill="#13122f" d="
  M 102.61 46.86
  Q 105.60 46.85 102.94 45.48
  Q 102.13 45.06 101.05 44.58
  A 1.57 1.57 0.0 0 1 100.17 43.59
  C 99.16 40.26 102.57 39.84 104.88 40.35
  Q 105.74 40.54 105.89 41.41
  Q 105.94 41.74 105.77 42.00
  Q 105.29 42.74 104.56 42.25
  Q 103.52 41.53 102.37 41.92
  A 0.47 0.47 0.0 0 0 102.28 42.77
  L 105.28 44.51
  Q 105.76 44.79 105.92 45.31
  C 107.04 48.83 102.40 49.45 100.23 48.03
  Q 99.61 47.62 99.88 46.94
  L 100.05 46.52
  A 0.65 0.65 0.0 0 1 101.05 46.25
  Q 101.84 46.86 102.61 46.86
  Z"
/>
</svg>

