

<?xml version="1.0" encoding="UTF-8" standalone="no"?>
<!DOCTYPE svg PUBLIC "-//W3C//DTD SVG 1.1//EN" "http://www.w3.org/Graphics/SVG/1.1/DTD/svg11.dtd">
<svg xmlns="http://www.w3.org/2000/svg" version="1.1" viewBox="0.00 0.00 1217.00 205.00">
<g stroke-width="2.00" fill="none" stroke-linecap="butt">
<path stroke="#b51985" vector-effect="non-scaling-stroke" d="
  M 58.00 0.00
  L 58.30 0.49
  A 0.19 0.19 0.0 0 0 58.62 0.51
  Q 58.74 0.34 58.90 0.41
  Q 60.12 0.90 60.12 1.00
  Q 60.12 69.31 60.11 137.62
  C 60.11 141.09 59.57 147.52 60.13 152.47
  Q 60.19 152.97 60.05 153.46
  Q 59.82 154.23 60.20 154.96
  Q 60.40 155.36 60.85 155.35
  Q 61.10 155.35 61.31 155.49
  Q 61.70 155.76 61.24 155.87
  Q 59.33 156.32 57.43 156.05
  Q 57.37 156.04 57.37 156.10
  Q 57.37 156.11 57.37 156.12
  Q 57.37 156.14 57.39 156.14
  Q 58.05 156.04 58.04 156.49"
/>
<path stroke="#a31587" vector-effect="non-scaling-stroke" d="
  M 159.99 0.00
  Q 161.28 0.71 163.02 0.33
  A 0.73 0.72 -6.2 0 1 163.90 1.03
  Q 163.89 36.57 163.85 71.05
  Q 163.85 71.74 164.00 72.40
  Q 164.10 72.84 163.65 72.81
  Q 162.31 72.73 161.45 73.24"
/>
<path stroke="#a31587" vector-effect="non-scaling-stroke" d="
  M 143.09 83.01
  Q 143.84 83.50 141.59 84.22
  Q 141.12 84.37 141.12 84.86
  Q 141.11 113.26 141.13 141.45
  C 141.13 143.66 140.57 145.72 141.08 147.94
  Q 141.26 148.73 140.99 149.59
  Q 140.81 150.15 140.95 150.73
  Q 141.38 152.48 140.88 154.19
  A 0.34 0.32 35.8 0 0 140.94 154.49
  Q 141.42 155.11 142.11 155.40
  Q 143.09 155.81 142.03 155.87
  Q 141.74 155.89 141.47 155.83
  Q 141.42 155.82 141.38 155.83
  Q 141.34 155.84 141.33 155.89
  Q 141.32 155.94 141.38 155.93
  Q 143.31 155.56 143.28 156.49"
/>
<path stroke="#901188" vector-effect="non-scaling-stroke" d="
  M 234.96 0.00
  L 239.14 1.33
  Q 239.32 1.38 239.44 1.25
  Q 239.54 1.13 239.67 1.09
  Q 240.23 0.93 240.06 1.49
  Q 239.93 1.92 239.93 2.35
  Q 239.87 35.22 239.88 71.40
  Q 239.88 71.80 239.96 72.18
  Q 240.05 72.59 239.67 72.77
  L 238.70 73.24"
/>
<path stroke="#730c8b" vector-effect="non-scaling-stroke" d="
  M 360.75 0.00
  L 360.54 0.38
  Q 360.32 0.75 360.75 0.80
  L 363.74 1.15
  Q 364.06 1.18 364.06 1.50
  L 363.69 73.23"
/>
<path stroke="#901188" vector-effect="non-scaling-stroke" d="
  M 252.06 83.03
  Q 250.11 83.65 249.26 84.33
  Q 248.87 84.66 248.87 85.17
  Q 248.89 114.24 248.88 143.31
  C 248.88 144.25 248.45 145.03 248.65 145.98
  C 249.15 148.26 248.88 151.07 248.88 153.37
  Q 248.88 153.90 249.34 154.19
  Q 249.72 154.43 249.37 154.71
  L 247.13 156.48"
/>
<path stroke="#730c8b" vector-effect="non-scaling-stroke" d="
  M 360.98 83.02
  Q 362.74 83.84 360.17 83.73
  A 1.22 1.22 0.0 0 0 358.90 84.95
  L 358.90 154.40
  Q 358.90 155.41 357.89 155.41
  Q 353.80 155.43 356.27 156.48"
/>
</g>
<path fill="#be1a84" d="
  M 2.37 0.00
  L 58.00 0.00
  L 58.30 0.49
  A 0.19 0.19 0.0 0 0 58.62 0.51
  Q 58.74 0.34 58.90 0.41
  Q 60.12 0.90 60.12 1.00
  Q 60.12 69.31 60.11 137.62
  C 60.11 141.09 59.57 147.52 60.13 152.47
  Q 60.19 152.97 60.05 153.46
  Q 59.82 154.23 60.20 154.96
  Q 60.40 155.36 60.85 155.35
  Q 61.10 155.35 61.31 155.49
  Q 61.70 155.76 61.24 155.87
  Q 59.33 156.32 57.43 156.05
  Q 57.37 156.04 57.37 156.10
  Q 57.37 156.11 57.37 156.12
  Q 57.37 156.14 57.39 156.14
  Q 58.05 156.04 58.04 156.49
  L 0.00 156.48
  L 0.00 2.24
  Q -0.17 -0.08 2.37 0.00
  Z"
/>
<path fill="#ab1786" d="
  M 58.00 0.00
  L 159.99 0.00
  Q 161.28 0.71 163.02 0.33
  A 0.73 0.72 -6.2 0 1 163.90 1.03
  Q 163.89 36.57 163.85 71.05
  Q 163.85 71.74 164.00 72.40
  Q 164.10 72.84 163.65 72.81
  Q 162.31 72.73 161.45 73.24
  L 77.25 73.25
  Q 77.01 73.25 77.01 73.49
  L 77.00 82.75
  Q 77.00 83.00 77.25 83.00
  L 143.09 83.01
  Q 143.84 83.50 141.59 84.22
  Q 141.12 84.37 141.12 84.86
  Q 141.11 113.26 141.13 141.45
  C 141.13 143.66 140.57 145.72 141.08 147.94
  Q 141.26 148.73 140.99 149.59
  Q 140.81 150.15 140.95 150.73
  Q 141.38 152.48 140.88 154.19
  A 0.34 0.32 35.8 0 0 140.94 154.49
  Q 141.42 155.11 142.11 155.40
  Q 143.09 155.81 142.03 155.87
  Q 141.74 155.89 141.47 155.83
  Q 141.42 155.82 141.38 155.83
  Q 141.34 155.84 141.33 155.89
  Q 141.32 155.94 141.38 155.93
  Q 143.31 155.56 143.28 156.49
  L 58.04 156.49
  Q 58.05 156.04 57.39 156.14
  Q 57.37 156.14 57.37 156.12
  Q 57.37 156.11 57.37 156.10
  Q 57.37 156.04 57.43 156.05
  Q 59.33 156.32 61.24 155.87
  Q 61.70 155.76 61.31 155.49
  Q 61.10 155.35 60.85 155.35
  Q 60.40 155.36 60.20 154.96
  Q 59.82 154.23 60.05 153.46
  Q 60.19 152.97 60.13 152.47
  C 59.57 147.52 60.11 141.09 60.11 137.62
  Q 60.12 69.31 60.12 1.00
  Q 60.12 0.90 58.90 0.41
  Q 58.74 0.34 58.62 0.51
  A 0.19 0.19 0.0 0 1 58.30 0.49
  L 58.00 0.00
  Z"
/>
<path fill="#9a1387" d="
  M 159.99 0.00
  L 234.96 0.00
  L 239.14 1.33
  Q 239.32 1.38 239.44 1.25
  Q 239.54 1.13 239.67 1.09
  Q 240.23 0.93 240.06 1.49
  Q 239.93 1.92 239.93 2.35
  Q 239.87 35.22 239.88 71.40
  Q 239.88 71.80 239.96 72.18
  Q 240.05 72.59 239.67 72.77
  L 238.70 73.24
  L 161.45 73.24
  Q 162.31 72.73 163.65 72.81
  Q 164.10 72.84 164.00 72.40
  Q 163.85 71.74 163.85 71.05
  Q 163.89 36.57 163.90 1.03
  A 0.73 0.72 -6.2 0 0 163.02 0.33
  Q 161.28 0.71 159.99 0.00
  Z"
/>
<path fill="#850f89" d="
  M 234.96 0.00
  L 360.75 0.00
  L 360.54 0.38
  Q 360.32 0.75 360.75 0.80
  L 363.74 1.15
  Q 364.06 1.18 364.06 1.50
  L 363.69 73.23
  L 238.70 73.24
  L 239.67 72.77
  Q 240.05 72.59 239.96 72.18
  Q 239.88 71.80 239.88 71.40
  Q 239.87 35.22 239.93 2.35
  Q 239.93 1.92 240.06 1.49
  Q 240.23 0.93 239.67 1.09
  Q 239.54 1.13 239.44 1.25
  Q 239.32 1.38 239.14 1.33
  L 234.96 0.00
  Z"
/>
<path fill="#60088c" d="
  M 360.75 0.00
  L 474.74 0.00
  L 474.70 72.70
  Q 474.70 73.20 474.20 73.20
  L 363.69 73.23
  L 364.06 1.50
  Q 364.06 1.18 363.74 1.15
  L 360.75 0.80
  Q 360.32 0.75 360.54 0.38
  L 360.75 0.00
  Z"
/>
<path fill="#000000" d="
  M 580.59 0.00
  L 587.31 0.00
  Q 615.83 1.82 636.76 21.63
  Q 637.33 22.18 636.74 22.71
  L 613.64 43.65
  Q 613.22 44.03 612.82 43.64
  C 586.93 18.36 550.64 34.06 541.93 65.87
  Q 536.19 86.83 547.29 105.90
  C 555.99 120.86 572.63 130.43 590.20 127.56
  C 599.37 126.06 608.96 120.84 615.01 113.10
  Q 615.36 112.66 615.81 112.99
  L 641.42 131.86
  A 0.44 0.44 0.0 0 1 641.49 132.50
  Q 626.48 149.61 605.63 155.93
  C 584.25 162.41 560.19 158.72 541.76 147.05
  C 516.30 130.92 503.55 103.72 505.39 73.81
  C 506.49 55.85 513.22 38.84 525.38 25.57
  Q 546.90 2.09 580.59 0.00
  Z"
/>
<path fill="#000000" d="
  M 833.50 58.00
  A 0.19 0.19 0.0 0 0 833.15 57.89
  L 802.43 102.30
  Q 802.16 102.70 802.44 103.08
  L 841.31 156.19
  Q 841.72 156.75 841.02 156.75
  L 805.98 156.75
  Q 805.36 156.75 805.02 156.24
  L 782.98 123.51
  Q 782.61 122.96 782.22 123.50
  L 758.55 156.33
  A 1.03 1.03 0.0 0 1 757.72 156.75
  L 723.23 156.75
  A 0.38 0.38 0.0 0 1 722.92 156.14
  L 762.61 103.04
  A 0.60 0.59 46.0 0 0 762.62 102.35
  L 730.89 57.62
  A 0.35 0.35 0.0 0 0 730.26 57.78
  Q 730.24 57.92 730.24 58.11
  Q 730.24 58.28 730.17 58.45
  Q 707.91 116.21 685.69 174.00
  C 681.59 184.66 677.20 196.28 665.84 201.20
  Q 661.51 203.08 655.19 203.93
  Q 638.86 206.12 622.69 201.16
  Q 622.16 201.00 622.25 200.46
  L 626.15 176.23
  Q 626.25 175.59 626.84 175.84
  Q 634.39 179.06 642.41 178.69
  C 650.38 178.32 655.06 175.21 658.07 167.76
  Q 660.49 161.77 662.36 156.44
  Q 662.48 156.09 662.34 155.75
  L 619.88 57.04
  Q 619.65 56.50 620.24 56.50
  L 652.21 56.50
  Q 652.64 56.50 652.80 56.90
  L 677.61 121.34
  Q 677.92 122.14 678.19 121.32
  L 699.42 56.92
  A 0.61 0.61 0.0 0 1 700.00 56.50
  L 765.65 56.49
  Q 766.17 56.49 766.45 56.92
  L 783.17 82.87
  A 0.28 0.28 0.0 0 0 783.65 82.87
  L 799.77 56.95
  Q 800.05 56.50 800.58 56.50
  L 852.50 56.50
  A 0.25 0.25 0.0 0 0 852.75 56.25
  L 852.75 27.50
  A 0.25 0.25 0.0 0 1 853.00 27.25
  L 883.00 27.25
  A 0.25 0.25 0.0 0 1 883.25 27.50
  L 883.25 55.99
  A 0.50 0.49 90.0 0 0 883.74 56.49
  L 909.25 56.50
  A 0.50 0.50 0.0 0 1 909.75 57.00
  L 909.75 80.75
  A 0.50 0.50 0.0 0 1 909.25 81.25
  L 883.74 81.25
  Q 883.28 81.25 883.28 81.71
  Q 883.17 99.60 883.32 117.99
  C 883.37 125.31 885.92 131.32 893.85 132.26
  Q 902.88 133.34 909.19 130.09
  Q 909.75 129.80 909.75 130.44
  L 909.75 154.78
  A 1.01 1.00 82.5 0 1 909.01 155.75
  Q 893.76 160.01 878.12 157.52
  C 866.63 155.69 857.22 149.67 853.90 137.96
  Q 852.64 133.51 852.69 125.28
  Q 852.84 103.57 852.72 81.67
  A 0.42 0.42 0.0 0 0 852.30 81.25
  L 833.75 81.25
  A 0.25 0.25 0.0 0 1 833.50 81.00
  L 833.50 58.00
  Z"
/>
<path fill="#000000" d="
  M 1182.75 43.11
  L 1182.75 63.89
  A 0.36 0.36 0.0 0 1 1182.39 64.25
  L 1179.61 64.25
  A 0.36 0.36 0.0 0 1 1179.25 63.89
  L 1179.25 43.11
  A 0.36 0.36 0.0 0 0 1178.89 42.75
  L 1171.38 42.76
  A 0.36 0.36 0.0 0 1 1171.02 42.40
  L 1171.00 39.86
  A 0.36 0.36 0.0 0 1 1171.36 39.50
  L 1190.39 39.50
  A 0.36 0.36 0.0 0 1 1190.75 39.86
  L 1190.75 42.39
  A 0.36 0.36 0.0 0 1 1190.39 42.75
  L 1183.11 42.75
  A 0.36 0.36 0.0 0 0 1182.75 43.11
  Z"
/>
<path fill="#000000" d="
  M 1217.00 39.56
  L 1217.00 64.28
  L 1214.11 64.20
  Q 1213.50 64.19 1213.50 63.57
  L 1213.50 46.42
  Q 1213.50 44.63 1212.94 46.33
  L 1207.17 63.63
  A 0.94 0.93 -80.1 0 1 1206.27 64.27
  L 1204.14 64.24
  Q 1203.55 64.24 1203.36 63.68
  L 1197.44 46.25
  Q 1196.65 43.94 1196.78 46.38
  Q 1197.20 54.49 1196.94 64.04
  Q 1196.93 64.26 1196.71 64.26
  L 1193.75 64.24
  Q 1193.50 64.24 1193.50 64.00
  L 1193.50 40.13
  Q 1193.50 39.50 1194.12 39.50
  L 1197.69 39.50
  Q 1198.43 39.50 1198.67 40.20
  L 1204.97 58.79
  Q 1205.30 59.75 1205.62 58.79
  L 1211.83 40.11
  A 0.94 0.93 -79.9 0 1 1212.74 39.47
  L 1217.00 39.56
  Z"
/>
<path fill="#000000" d="
  M 940.53 116.40
  C 942.91 127.07 950.95 133.96 961.66 134.68
  C 971.51 135.35 978.68 130.48 984.45 122.94
  A 0.49 0.49 0.0 0 1 985.13 122.84
  L 1005.67 138.08
  A 0.74 0.73 38.1 0 1 1005.80 139.13
  C 990.51 157.90 964.38 163.01 942.15 153.81
  C 922.56 145.71 911.08 128.02 910.82 106.89
  Q 910.53 82.01 928.56 66.23
  C 939.51 56.65 953.10 53.07 967.47 53.78
  C 992.84 55.04 1008.36 73.76 1010.40 98.09
  Q 1011.04 105.71 1010.68 115.17
  Q 1010.65 115.75 1010.07 115.75
  L 941.06 115.75
  Q 940.39 115.75 940.53 116.40
  Z
  M 940.89 94.89
  L 981.87 94.61
  A 0.14 0.14 0.0 0 0 982.00 94.47
  L 982.00 94.41
  A 20.37 18.78 -0.4 0 0 961.50 75.77
  L 960.98 75.77
  A 20.37 18.78 -0.4 0 0 940.75 94.69
  L 940.75 94.75
  A 0.14 0.14 0.0 0 0 940.89 94.89
  Z"
/>
<path fill="#000000" d="
  M 1147.99 144.98
  Q 1147.99 143.94 1147.43 144.82
  Q 1142.49 152.50 1133.76 155.65
  C 1114.21 162.71 1085.10 156.70 1082.40 131.65
  C 1079.12 101.24 1107.91 94.60 1131.15 93.89
  Q 1139.21 93.65 1147.30 93.47
  Q 1148.08 93.45 1147.99 92.68
  C 1146.57 80.43 1136.17 74.86 1124.69 76.44
  C 1118.27 77.32 1112.49 80.17 1107.68 84.55
  A 1.00 0.99 -48.0 0 1 1106.43 84.62
  L 1088.53 71.71
  Q 1087.67 71.09 1088.47 70.39
  Q 1111.69 50.14 1142.48 54.45
  C 1171.35 58.50 1176.05 82.33 1176.01 106.53
  Q 1175.96 131.64 1176.01 156.45
  A 0.30 0.30 0.0 0 1 1175.71 156.75
  L 1148.50 156.75
  Q 1148.01 156.75 1148.01 156.25
  L 1147.99 144.98
  Z
  M 1119.04 116.73
  C 1112.69 119.27 1108.54 126.02 1112.43 132.39
  C 1116.26 138.64 1126.21 139.09 1132.71 137.23
  C 1143.89 134.04 1147.67 125.06 1148.03 114.13
  Q 1148.05 113.48 1147.40 113.48
  C 1137.55 113.52 1128.18 113.07 1119.04 116.73
  Z"
/>
<path fill="#000000" d="
  M 1047.25 72.85
  C 1052.16 63.76 1059.42 56.82 1070.02 55.42
  Q 1077.53 54.44 1084.87 55.94
  Q 1085.50 56.07 1085.50 56.72
  L 1085.50 83.80
  Q 1085.50 84.34 1084.99 84.18
  C 1072.67 80.43 1054.64 80.76 1049.40 94.87
  Q 1046.97 101.41 1046.88 110.33
  Q 1046.64 133.17 1046.77 156.20
  Q 1046.77 156.75 1046.22 156.75
  L 1016.75 156.75
  Q 1016.25 156.75 1016.25 156.25
  L 1016.25 57.00
  Q 1016.25 56.49 1016.75 56.49
  L 1046.50 56.50
  Q 1046.75 56.50 1046.75 56.75
  L 1046.75 72.72
  Q 1046.75 73.77 1047.25 72.85
  Z"
/>
<path fill="#9a1387" d="
  M 143.09 83.01
  L 252.06 83.03
  Q 250.11 83.65 249.26 84.33
  Q 248.87 84.66 248.87 85.17
  Q 248.89 114.24 248.88 143.31
  C 248.88 144.25 248.45 145.03 248.65 145.98
  C 249.15 148.26 248.88 151.07 248.88 153.37
  Q 248.88 153.90 249.34 154.19
  Q 249.72 154.43 249.37 154.71
  L 247.13 156.48
  L 143.28 156.49
  Q 143.31 155.56 141.38 155.93
  Q 141.32 155.94 141.33 155.89
  Q 141.34 155.84 141.38 155.83
  Q 141.42 155.82 141.47 155.83
  Q 141.74 155.89 142.03 155.87
  Q 143.09 155.81 142.11 155.40
  Q 141.42 155.11 140.94 154.49
  A 0.34 0.32 35.8 0 1 140.88 154.19
  Q 141.38 152.48 140.95 150.73
  Q 140.81 150.15 140.99 149.59
  Q 141.26 148.73 141.08 147.94
  C 140.57 145.72 141.13 143.66 141.13 141.45
  Q 141.11 113.26 141.12 84.86
  Q 141.12 84.37 141.59 84.22
  Q 143.84 83.50 143.09 83.01
  Z"
/>
<path fill="#850f89" d="
  M 252.06 83.03
  L 360.98 83.02
  Q 362.74 83.84 360.17 83.73
  A 1.22 1.22 0.0 0 0 358.90 84.95
  L 358.90 154.40
  Q 358.90 155.41 357.89 155.41
  Q 353.80 155.43 356.27 156.48
  L 247.13 156.48
  L 249.37 154.71
  Q 249.72 154.43 249.34 154.19
  Q 248.88 153.90 248.88 153.37
  C 248.88 151.07 249.15 148.26 248.65 145.98
  C 248.45 145.03 248.88 144.25 248.88 143.31
  Q 248.89 114.24 248.87 85.17
  Q 248.87 84.66 249.26 84.33
  Q 250.11 83.65 252.06 83.03
  Z"
/>
<path fill="#60088c" d="
  M 360.98 83.02
  L 474.49 83.03
  Q 474.75 83.03 474.75 83.29
  L 474.75 156.21
  Q 474.75 156.47 474.49 156.47
  L 356.27 156.48
  Q 353.80 155.43 357.89 155.41
  Q 358.90 155.41 358.90 154.40
  L 358.90 84.95
  A 1.22 1.22 0.0 0 1 360.17 83.73
  Q 362.74 83.84 360.98 83.02
  Z"
/>
</svg>

