<?xml version="1.0" encoding="UTF-8" standalone="no"?>
<!DOCTYPE svg PUBLIC "-//W3C//DTD SVG 1.1//EN" "http://www.w3.org/Graphics/SVG/1.1/DTD/svg11.dtd">
<svg xmlns="http://www.w3.org/2000/svg" version="1.1" viewBox="0.00 0.00 126.00 32.00">
<path fill="#0066b3" d="
  M 0.62 0.00
  L 14.23 0.00
  Q 23.58 1.29 26.78 8.61
  C 30.04 16.07 27.72 25.79 20.12 29.42
  C 14.69 32.01 7.35 30.83 1.30 31.06
  Q 0.63 31.08 0.63 30.41
  L 0.62 0.00
  Z
  M 4.47 4.23
  L 4.51 26.99
  A 0.25 0.25 0.0 0 0 4.76 27.24
  L 12.37 27.22
  A 11.40 11.24 -0.1 0 0 23.75 15.96
  L 23.75 15.18
  A 11.40 11.24 -0.1 0 0 12.33 3.96
  L 4.72 3.98
  A 0.25 0.25 0.0 0 0 4.47 4.23
  Z"
/>
<path fill="#0066b3" d="
  M 31.28 0.00
  L 49.04 0.00
  L 48.98 3.51
  Q 48.97 4.00 48.48 4.00
  L 35.75 4.00
  Q 35.50 4.00 35.50 4.26
  L 35.50 13.25
  Q 35.50 13.50 35.75 13.50
  L 48.38 13.50
  Q 48.77 13.50 48.77 13.89
  L 48.78 16.96
  Q 48.78 17.34 48.41 17.34
  L 35.83 17.35
  Q 35.50 17.35 35.50 17.68
  L 35.50 27.00
  A 0.25 0.25 0.0 0 0 35.75 27.25
  L 49.24 27.25
  Q 49.48 27.25 49.48 27.49
  L 49.51 30.49
  Q 49.51 31.00 49.01 31.00
  L 31.95 31.00
  Q 31.31 31.00 31.31 30.36
  L 31.28 0.00
  Z"
/>
<path fill="#0066b3" d="
  M 52.22 0.00
  L 69.98 0.00
  L 69.96 3.50
  Q 69.96 4.00 69.46 4.00
  L 56.71 4.00
  Q 56.42 4.00 56.42 4.29
  L 56.45 13.22
  A 0.28 0.28 0.0 0 0 56.73 13.50
  L 69.19 13.50
  A 0.44 0.44 0.0 0 1 69.63 13.94
  L 69.59 17.01
  Q 69.58 17.35 69.24 17.35
  L 56.81 17.33
  Q 56.45 17.33 56.45 17.69
  L 56.44 26.97
  Q 56.44 27.25 56.72 27.25
  L 70.01 27.25
  A 0.26 0.26 0.0 0 1 70.27 27.51
  L 70.28 30.73
  Q 70.28 31.00 70.02 31.00
  L 52.78 31.00
  Q 52.25 31.00 52.25 30.47
  L 52.22 0.00
  Z"
/>
<path fill="#0066b3" d="
  M 73.02 0.00
  L 83.92 0.00
  C 89.50 0.69 93.29 4.82 92.15 10.46
  C 90.72 17.51 83.76 17.74 77.86 17.39
  Q 77.19 17.34 77.20 18.02
  L 77.20 28.74
  Q 77.20 29.34 77.78 29.21
  Q 94.21 25.71 106.56 15.59
  A 0.43 0.43 0.0 0 0 106.62 14.99
  L 94.26 0.00
  L 100.02 0.00
  L 109.67 11.60
  Q 110.00 11.98 110.35 11.62
  Q 115.29 6.63 117.95 0.00
  L 125.39 0.00
  Q 125.28 1.34 124.89 2.12
  Q 120.83 10.23 114.08 16.13
  A 0.59 0.58 49.7 0 0 114.02 16.94
  L 125.08 30.25
  Q 125.70 31.00 124.72 31.00
  L 120.73 31.00
  Q 119.90 31.00 119.37 30.36
  L 110.46 19.61
  A 0.40 0.39 52.0 0 0 109.92 19.54
  C 100.16 26.64 86.03 31.80 73.54 30.96
  Q 73.04 30.93 73.04 30.42
  L 73.02 0.00
  Z
  M 77.21 4.24
  L 77.15 13.26
  A 0.38 0.38 0.0 0 0 77.53 13.65
  L 82.50 13.68
  A 5.29 4.51 0.4 0 0 87.82 9.21
  L 87.82 8.45
  A 5.29 4.51 0.4 0 0 82.56 3.90
  L 77.59 3.87
  A 0.38 0.38 0.0 0 0 77.21 4.24
  Z"
/>
</svg>

