<?xml version="1.0" encoding="UTF-8" standalone="no"?>
<!DOCTYPE svg PUBLIC "-//W3C//DTD SVG 1.1//EN" "http://www.w3.org/Graphics/SVG/1.1/DTD/svg11.dtd">
<svg xmlns="http://www.w3.org/2000/svg" version="1.1" viewBox="0.00 0.00 129.00 88.00">
<g stroke-width="2.00" fill="none" stroke-linecap="butt">
<path stroke="#671f44" vector-effect="non-scaling-stroke" d="
  M 101.87 49.94
  L 97.82 50.54"
/>
<path stroke="#671f44" vector-effect="non-scaling-stroke" d="
  M 32.94 50.53
  L 28.86 49.88"
/>
</g>
<path fill="#cc1115" d="
  M 101.87 49.94
  L 97.82 50.54
  L 66.49 7.20
  A 0.62 0.62 0.0 0 0 65.50 7.19
  L 32.94 50.53
  L 28.86 49.88
  L 65.83 0.41
  A 0.21 0.21 0.0 0 1 66.17 0.41
  L 101.87 49.94
  Z"
/>
<path fill="#cc1115" d="
  M 69.06 20.70
  Q 74.63 32.99 79.44 45.58
  Q 79.65 46.10 79.09 46.21
  L 78.78 46.28
  A 0.41 0.41 0.0 0 1 78.33 46.04
  L 69.15 23.55
  Q 66.97 18.20 67.87 23.91
  Q 69.44 33.81 70.95 45.32
  A 0.72 0.71 -11.7 0 1 70.43 46.10
  L 70.19 46.17
  Q 69.72 46.30 69.66 45.81
  L 66.47 21.49
  A 0.37 0.36 -27.2 0 0 65.84 21.29
  Q 65.45 21.71 65.38 22.30
  Q 63.95 34.60 62.28 45.34
  Q 62.19 45.95 61.59 46.09
  L 61.33 46.15
  Q 60.81 46.27 60.89 45.74
  L 64.38 21.81
  A 0.31 0.31 0.0 0 0 63.94 21.48
  Q 63.55 21.67 63.40 22.05
  Q 58.58 34.19 53.68 45.83
  Q 53.48 46.30 52.97 46.23
  L 52.62 46.18
  A 0.32 0.31 -75.6 0 1 52.37 45.75
  Q 57.06 34.21 62.03 22.37
  C 62.40 21.49 62.94 20.82 63.49 20.06
  Q 63.98 19.40 63.21 19.70
  Q 62.65 19.93 62.30 20.44
  Q 53.44 33.10 44.27 45.91
  A 0.76 0.75 25.2 0 1 43.47 46.19
  L 43.21 46.11
  A 0.34 0.34 0.0 0 1 43.02 45.59
  Q 53.35 30.89 64.16 15.90
  Q 64.48 15.46 64.52 14.91
  Q 64.55 14.52 64.32 14.20
  A 0.81 0.80 44.7 0 1 64.31 13.22
  Q 65.14 12.10 65.05 10.74
  A 0.89 0.89 0.0 0 1 66.63 10.13
  Q 67.07 10.69 67.00 11.41
  A 1.78 1.78 0.0 0 0 67.49 12.84
  Q 68.20 13.58 67.63 14.37
  Q 67.19 14.98 67.62 15.61
  L 87.99 45.43
  A 0.41 0.40 -40.1 0 1 87.94 45.94
  L 87.68 46.20
  A 0.49 0.48 49.5 0 1 86.93 46.14
  L 69.59 20.55
  Q 69.48 20.40 69.32 20.49
  L 69.09 20.62
  Q 69.04 20.65 69.06 20.70
  Z"
/>
<path fill="#012c73" d="
  M 28.86 49.88
  L 32.94 50.53
  L 7.45 84.53
  Q 7.09 85.01 7.69 85.01
  L 121.96 85.00
  Q 122.79 85.00 122.30 84.33
  L 97.82 50.54
  L 101.87 49.94
  L 129.00 87.48
  L 129.00 88.00
  L 0.65 88.00
  L 0.62 87.74
  Q 0.61 87.61 0.69 87.51
  L 28.86 49.88
  Z"
/>
<path fill="#012c73" d="
  M 35.70 50.89
  A 0.51 0.51 0.0 0 1 36.20 50.38
  L 41.25 50.35
  A 6.24 5.94 89.7 0 1 47.23 56.56
  L 47.23 58.34
  A 6.24 5.94 89.7 0 1 41.33 64.61
  L 36.28 64.64
  A 0.51 0.51 0.0 0 1 35.76 64.13
  L 35.70 50.89
  Z
  M 38.76 53.61
  L 38.72 61.43
  A 0.44 0.44 0.0 0 0 39.16 61.87
  L 40.92 61.88
  A 3.47 3.30 -89.7 0 0 44.24 58.42
  L 44.24 56.66
  A 3.47 3.30 -89.7 0 0 40.96 53.18
  L 39.20 53.17
  A 0.44 0.44 0.0 0 0 38.76 53.61
  Z"
/>
<path fill="#012c73" d="
  M 53.95 53.70
  L 53.98 55.50
  A 0.53 0.53 0.0 0 0 54.52 56.03
  L 59.76 55.98
  A 0.53 0.53 0.0 0 1 60.30 56.51
  L 60.29 58.11
  A 0.53 0.53 0.0 0 1 59.76 58.64
  L 54.49 58.59
  A 0.53 0.53 0.0 0 0 53.96 59.12
  L 53.93 61.32
  A 0.53 0.53 0.0 0 0 54.47 61.86
  L 60.38 61.83
  A 0.53 0.53 0.0 0 1 60.92 62.34
  L 61.00 64.02
  A 0.53 0.53 0.0 0 1 60.47 64.58
  L 51.67 64.59
  A 0.53 0.53 0.0 0 1 51.14 64.06
  L 51.13 50.91
  A 0.53 0.53 0.0 0 1 51.66 50.38
  L 60.40 50.40
  A 0.53 0.53 0.0 0 1 60.93 50.97
  L 60.79 52.71
  A 0.53 0.53 0.0 0 1 60.26 53.20
  L 54.48 53.16
  A 0.53 0.53 0.0 0 0 53.95 53.70
  Z"
/>
<path fill="#012c73" d="
  M 68.17 61.84
  L 73.47 61.85
  A 0.47 0.47 0.0 0 1 73.94 62.31
  L 73.99 64.09
  A 0.47 0.47 0.0 0 1 73.52 64.57
  L 65.21 64.61
  A 0.47 0.47 0.0 0 1 64.74 64.14
  L 64.73 50.83
  A 0.47 0.47 0.0 0 1 65.22 50.36
  L 67.36 50.45
  A 0.47 0.47 0.0 0 1 67.81 50.92
  L 67.70 61.37
  A 0.47 0.47 0.0 0 0 68.17 61.84
  Z"
/>
<path fill="#012c73" d="
  M 77.79 53.17
  L 74.85 53.21
  A 0.47 0.47 0.0 0 1 74.37 52.77
  L 74.24 50.90
  A 0.47 0.47 0.0 0 1 74.71 50.40
  L 84.59 50.38
  A 0.47 0.47 0.0 0 1 85.06 50.86
  L 85.04 52.74
  A 0.47 0.47 0.0 0 1 84.57 53.21
  L 81.58 53.18
  A 0.47 0.47 0.0 0 0 81.10 53.66
  L 81.21 64.15
  A 0.47 0.47 0.0 0 1 80.71 64.63
  L 78.67 64.52
  A 0.47 0.47 0.0 0 1 78.22 64.05
  L 78.27 53.64
  A 0.47 0.47 0.0 0 0 77.79 53.17
  Z"
/>
<path fill="#012c73" d="
  M 93.62 61.50
  L 90.35 61.50
  Q 89.67 61.50 89.46 62.14
  L 88.82 64.13
  Q 88.65 64.63 88.13 64.62
  L 86.24 64.62
  Q 85.61 64.62 85.82 64.02
  L 90.33 51.04
  Q 90.51 50.53 91.04 50.45
  Q 92.03 50.29 93.00 50.45
  A 0.98 0.97 84.9 0 1 93.77 51.10
  L 98.18 64.02
  Q 98.39 64.63 97.75 64.63
  L 95.86 64.63
  Q 95.20 64.63 95.03 63.99
  L 94.59 62.25
  Q 94.39 61.50 93.62 61.50
  Z
  M 90.59 58.49
  A 0.42 0.42 0.0 0 0 91.00 59.02
  L 93.02 59.02
  A 0.42 0.42 0.0 0 0 93.43 58.49
  L 92.42 54.76
  A 0.42 0.42 0.0 0 0 91.60 54.76
  L 90.59 58.49
  Z"
/>
<path fill="#012c73" d="
  M 31.64 73.26
  L 32.11 72.32
  Q 32.29 71.95 32.71 71.98
  L 33.00 71.99
  Q 33.50 72.02 33.43 72.51
  Q 33.19 74.13 31.71 74.84
  Q 31.26 75.05 30.79 74.91
  Q 28.33 74.20 28.74 70.52
  C 29.02 67.96 31.51 66.25 33.18 69.08
  A 0.72 0.71 49.7 0 1 33.12 69.89
  L 32.89 70.16
  Q 32.60 70.52 32.30 70.17
  L 31.47 69.15
  Q 31.02 68.61 30.63 69.19
  Q 30.07 70.00 30.30 71.13
  A 1.53 1.42 49.6 0 1 30.27 71.83
  Q 30.00 72.83 30.79 73.45
  Q 31.33 73.87 31.64 73.26
  Z"
/>
<rect fill="#012c73" x="-0.65" y="-3.45" transform="translate(46.55,71.18) rotate(1.1)" width="1.30" height="6.90" rx="0.39"/>
<path fill="#012c73" d="
  M 60.53 69.26
  Q 60.15 69.18 59.98 68.86
  Q 59.40 67.73 60.65 67.91
  Q 62.01 68.11 63.41 67.90
  Q 64.75 67.71 63.85 68.72
  Q 62.14 70.64 63.01 73.42
  A 0.97 0.96 61.2 0 1 62.72 74.44
  Q 61.95 75.10 61.30 74.43
  A 0.89 0.88 23.4 0 1 61.04 73.78
  L 61.16 70.03
  A 0.77 0.76 6.2 0 0 60.53 69.26
  Z"
/>
<rect fill="#012c73" x="-0.76" y="-3.35" transform="translate(44.05,71.29) rotate(-1.2)" width="1.52" height="6.70" rx="0.46"/>
<rect fill="#012c73" x="-0.67" y="-3.34" transform="translate(92.69,71.28) rotate(0.7)" width="1.34" height="6.68" rx="0.41"/>
<path fill="#012c73" d="
  M 38.18 72.88
  L 37.36 74.15
  A 1.78 1.78 0.0 0 1 34.21 73.83
  Q 33.10 70.96 35.47 69.26
  Q 35.97 68.89 36.47 69.28
  Q 37.47 70.05 38.15 71.23
  Q 38.53 71.90 38.69 71.15
  Q 39.05 69.51 40.45 69.19
  A 1.11 1.10 -27.7 0 1 41.50 69.51
  Q 43.48 71.63 41.95 74.15
  A 1.60 1.60 0.0 0 1 39.44 74.44
  Q 38.83 73.82 38.62 72.95
  Q 38.48 72.41 38.18 72.88
  Z
  M 35.8237 73.4383
  A 1.31 1.00 92.9 0 0 36.8887 72.1806
  A 1.31 1.00 92.9 0 0 35.9563 70.8217
  A 1.31 1.00 92.9 0 0 34.8913 72.0794
  A 1.31 1.00 92.9 0 0 35.8237 73.4383
  Z
  M 40.5800 73.5600
  A 1.43 0.64 90.0 0 0 41.2200 72.1300
  A 1.43 0.64 90.0 0 0 40.5800 70.7000
  A 1.43 0.64 90.0 0 0 39.9400 72.1300
  A 1.43 0.64 90.0 0 0 40.5800 73.5600
  Z"
/>
<path fill="#012c73" d="
  M 68.19 70.76
  Q 68.58 73.70 66.65 74.74
  Q 66.17 75.00 65.65 74.85
  Q 63.46 74.18 63.99 71.28
  Q 64.30 69.62 65.81 69.20
  Q 66.32 69.06 66.65 69.47
  Q 67.36 70.35 68.19 70.76
  Z
  M 65.9903 73.4086
  A 1.28 0.95 87.3 0 0 66.8789 72.0852
  A 1.28 0.95 87.3 0 0 65.8697 70.8514
  A 1.28 0.95 87.3 0 0 64.9811 72.1748
  A 1.28 0.95 87.3 0 0 65.9903 73.4086
  Z"
/>
<path fill="#012c73" d="
  M 84.95 71.40
  Q 85.39 71.83 85.95 71.99
  A 1.11 1.10 21.8 0 1 86.63 73.57
  Q 85.93 74.89 84.58 74.85
  Q 83.19 74.81 82.96 73.47
  A 0.53 0.53 0.0 0 1 83.41 72.86
  Q 84.14 72.76 84.34 73.47
  Q 84.54 74.20 84.98 73.58
  Q 85.09 73.43 85.04 73.21
  Q 84.94 72.81 84.55 72.67
  Q 83.22 72.18 82.93 71.01
  Q 82.64 69.89 81.92 70.80
  Q 81.78 70.98 81.62 71.14
  Q 81.34 71.42 81.31 71.81
  Q 81.22 73.00 81.26 74.31
  Q 81.27 74.83 80.77 74.73
  L 80.43 74.66
  A 0.54 0.53 -84.9 0 1 80.00 74.13
  L 80.06 70.70
  A 1.39 1.38 19.4 0 1 82.30 69.63
  Q 83.44 70.52 84.27 69.37
  Q 84.70 68.77 85.29 69.21
  L 86.56 70.18
  A 0.59 0.58 -40.8 0 1 86.48 71.16
  Q 85.89 71.48 85.16 71.12
  Q 84.20 70.64 84.95 71.40
  Z"
/>
<path fill="#012c73" d="
  M 101.47 73.30
  L 102.43 72.92
  Q 103.38 72.56 103.00 73.50
  Q 102.29 75.30 100.48 74.72
  A 2.00 1.98 -88.0 0 1 99.15 73.28
  Q 98.59 70.92 100.55 69.36
  Q 100.95 69.04 101.43 69.23
  Q 103.10 69.90 103.06 71.28
  Q 103.04 71.92 102.59 71.48
  Q 102.07 70.98 101.38 70.83
  Q 100.74 70.68 100.57 71.32
  Q 100.39 71.99 100.49 72.73
  Q 100.62 73.62 101.47 73.30
  Z"
/>
<path fill="#012c73" d="
  M 50.83 71.36
  A 0.47 0.47 0.0 0 0 50.18 70.90
  L 49.83 71.04
  A 0.85 0.85 0.0 0 0 49.33 72.04
  Q 49.58 73.01 49.46 74.00
  Q 49.39 74.58 48.81 74.59
  L 48.55 74.59
  Q 47.97 74.60 47.98 74.01
  L 48.08 70.52
  A 0.96 0.95 -9.8 0 1 48.69 69.66
  Q 50.09 69.12 51.24 69.44
  A 1.17 1.15 -81.5 0 1 52.09 70.60
  L 51.98 74.32
  Q 51.96 74.88 51.43 74.70
  L 51.10 74.59
  A 0.63 0.62 -79.5 0 1 50.68 73.97
  L 50.83 71.36
  Z"
/>
<path fill="#012c73" d="
  M 53.32 75.47
  L 52.86 70.92
  A 1.25 1.25 0.0 0 1 53.96 69.55
  L 55.54 69.36
  A 1.25 1.25 0.0 0 1 56.94 70.61
  L 56.90 74.87
  A 1.25 1.25 0.0 0 1 56.16 76.00
  L 55.07 76.48
  A 1.25 1.25 0.0 0 1 53.32 75.47
  Z
  M 54.7648 73.2999
  A 1.21 0.80 89.3 0 0 55.5499 72.0802
  A 1.21 0.80 89.3 0 0 54.7352 70.8801
  A 1.21 0.80 89.3 0 0 53.9501 72.0998
  A 1.21 0.80 89.3 0 0 54.7648 73.2999
  Z"
/>
<path fill="#012c73" d="
  M 68.19 70.76
  L 68.51 69.86
  Q 68.71 69.30 69.27 69.50
  Q 70.32 69.86 70.11 71.06
  Q 70.07 71.31 70.28 71.46
  Q 70.41 71.56 70.54 71.53
  Q 70.77 71.48 70.77 71.24
  Q 70.76 70.14 71.46 69.50
  Q 71.98 69.03 72.16 69.70
  L 72.51 70.98
  Q 72.71 71.70 73.08 71.06
  L 73.97 69.51
  A 0.32 0.31 35.4 0 1 74.45 69.43
  L 74.65 69.60
  Q 75.05 69.93 74.90 70.42
  L 73.74 74.30
  A 0.69 0.69 0.0 0 1 72.58 74.57
  Q 71.81 73.75 72.02 72.70
  A 0.19 0.18 78.7 0 0 71.74 72.51
  Q 71.61 72.59 71.51 72.69
  Q 71.35 72.85 71.32 73.07
  Q 71.13 74.36 70.09 74.85
  A 0.26 0.25 -17.9 0 1 69.73 74.67
  Q 69.02 70.70 68.19 70.76
  Z"
/>
<path fill="#012c73" d="
  M 78.9514 73.3139
  A 1.73 1.73 0.0 0 1 77.0367 74.8370
  L 76.7784 74.8075
  A 1.73 1.73 0.0 0 1 75.2554 72.8928
  L 75.4886 70.8461
  A 1.73 1.73 0.0 0 1 77.4033 69.3230
  L 77.6616 69.3525
  A 1.73 1.73 0.0 0 1 79.1846 71.2672
  L 78.9514 73.3139
  Z
  M 77.3273 73.7125
  A 0.75 0.46 110.5 0 0 78.0209 73.1711
  A 0.75 0.46 110.5 0 0 77.8527 72.3075
  A 0.75 0.46 110.5 0 0 77.1591 72.8489
  A 0.75 0.46 110.5 0 0 77.3273 73.7125
  Z"
/>
<path fill="#012c73" d="
  M 96.98 70.95
  Q 96.98 70.67 96.70 70.71
  L 96.26 70.79
  Q 96.04 70.82 96.04 71.04
  L 96.00 74.28
  Q 96.00 74.82 95.47 74.71
  L 95.20 74.66
  A 0.82 0.81 5.9 0 1 94.54 73.85
  L 94.61 70.18
  A 0.56 0.55 85.6 0 1 95.06 69.64
  L 97.00 69.28
  A 0.73 0.72 -21.0 0 1 97.75 69.61
  Q 99.01 71.64 98.34 74.31
  A 0.62 0.61 -81.2 0 1 97.72 74.77
  Q 97.47 74.76 97.28 74.59
  Q 96.99 74.33 96.99 73.93
  L 96.98 70.95
  Z"
/>
<path fill="#012c73" d="
  M 87.57 74.00
  Q 87.49 73.71 87.65 73.43
  A 0.73 0.73 0.0 0 1 88.98 73.61
  Q 89.43 75.21 88.17 76.14
  Q 87.40 76.72 87.49 75.76
  L 87.62 74.41
  Q 87.64 74.20 87.57 74.00
  Z"
/>
<ellipse fill="#012c73" cx="0.00" cy="0.00" transform="translate(104.68,73.87) rotate(83.1)" rx="0.95" ry="0.72"/>
<path fill="#012c73" d="
  M 73.76 80.13
  Q 69.74 85.28 64.95 80.49
  A 0.66 0.66 0.0 0 0 64.00 80.50
  Q 59.67 85.10 55.72 80.31
  Q 55.23 79.73 54.76 80.31
  C 52.10 83.59 48.83 83.39 46.33 80.39
  Q 45.89 79.86 45.44 80.39
  Q 41.37 85.21 36.75 80.40
  Q 36.39 80.02 36.02 80.39
  Q 31.62 84.84 27.34 80.19
  Q 26.97 79.79 26.65 80.24
  C 23.68 84.55 19.68 82.56 17.13 79.32
  A 0.56 0.56 0.0 0 1 17.21 78.54
  L 17.41 78.37
  Q 18.11 77.78 18.58 78.57
  C 20.62 82.01 24.47 81.91 26.36 78.38
  A 0.77 0.76 -44.1 0 1 27.72 78.40
  Q 28.10 79.17 28.75 79.71
  Q 32.63 82.87 35.76 78.44
  Q 36.31 77.66 36.92 78.40
  Q 37.66 79.31 38.49 80.08
  C 40.37 81.81 43.06 81.39 44.52 79.34
  Q 44.95 78.73 45.41 78.16
  Q 45.99 77.44 46.42 78.26
  C 48.42 82.04 52.43 81.92 54.56 78.36
  A 0.66 0.66 0.0 0 1 55.60 78.24
  C 56.81 79.50 58.10 81.31 60.09 81.06
  Q 62.44 80.76 63.95 78.18
  Q 64.37 77.46 64.88 78.12
  Q 65.76 79.24 66.78 80.19
  C 69.03 82.29 72.18 80.76 73.37 78.26
  A 0.74 0.74 0.0 0 1 74.70 78.24
  Q 75.23 79.27 76.12 79.99
  C 78.86 82.21 81.14 80.89 82.79 78.31
  Q 83.18 77.69 83.66 78.24
  C 84.68 79.40 85.77 80.90 87.43 81.08
  Q 90.73 81.43 92.28 78.30
  A 0.62 0.62 0.0 0 1 93.38 78.27
  C 95.45 81.96 99.28 82.40 101.60 78.40
  Q 102.08 77.58 102.67 78.32
  C 105.23 81.48 107.86 82.24 110.69 78.51
  Q 111.08 77.98 111.71 78.18
  L 112.04 78.28
  A 0.40 0.40 0.0 0 1 112.24 78.90
  Q 107.49 85.37 102.61 80.48
  Q 102.23 80.10 101.87 80.50
  Q 97.59 85.35 93.21 80.30
  Q 92.90 79.95 92.60 80.31
  Q 88.41 85.24 83.64 80.47
  Q 83.26 80.08 82.88 80.49
  Q 78.54 85.18 74.36 80.12
  Q 74.06 79.75 73.76 80.13
  Z"
/>
</svg>

