

<?xml version="1.0" encoding="utf-8"?>
<!-- Generator: Adobe Illustrator 26.0.3, SVG Export Plug-In . SVG Version: 6.00 Build 0)  -->
<svg version="1.0" id="Layer_1" xmlns="http://www.w3.org/2000/svg" xmlns:xlink="http://www.w3.org/1999/xlink" x="0px" y="0px"
	 viewBox="0 0 916 602.4" style="enable-background:new 0 0 916 602.4;" xml:space="preserve">
<style type="text/css">
	.st0{fill:#092241;}
	.st1{fill:#378ACA;}
	.st2{fill:#1D48A4;}
</style>
<path class="st0" d="M252.8,285.7h15.8c13.4,0,22.6,9.2,22.6,21.1v0.1c0,12-9.2,21.3-22.6,21.3h-15.8V285.7z M268.6,321.4
	c8.9,0,14.7-6,14.7-14.3V307c0-8.3-5.8-14.5-14.7-14.5h-8.4v28.9L268.6,321.4z M305,328.2h7.4v-42.5H305V328.2z M327.2,307.1
	c0,12.3,8.8,21.8,22,21.8c6.5,0,12.8-2.4,17.7-6.7v-17.8h-18v6.5h10.9v8c-3,2.1-6.5,3.2-10.1,3.2h-0.1c-8.6,0-14.5-6.4-14.5-15.2
	v-0.1c0-8.1,6-15,13.8-15h0.5c4.2,0,8.3,1.6,11.4,4.5l4.7-5.6c-4.5-4-10.4-6.1-16.4-5.8h-0.2c-12,0-21.6,9.7-21.6,21.6L327.2,307.1
	L327.2,307.1z M383.9,328.2h7.5v-42.5h-7.5V328.2z M419.2,328.2h7.5v-35.6h13.5v-6.9h-34.5v6.9h13.5L419.2,328.2L419.2,328.2z
	 M463,285.3h6.9l18.7,42.9h-7.9l-4.3-10.3h-20.1l-4.4,10.3h-7.6L463,285.3z M473.7,311.3l-7.3-17l-7.3,17H473.7z M501.8,328.1h29.8
	v-6.8h-22.3v-35.7h-7.5L501.8,328.1L501.8,328.1z M571.4,285.6h18.9c4.5-0.3,8.9,1.3,12.3,4.3c2.3,2.4,3.5,5.5,3.5,8.8v0.6
	c0,7-4.2,11.2-10.1,12.9l11.4,16.1h-8.8l-10.4-14.9h-9.3v14.9h-7.5L571.4,285.6L571.4,285.6z M589.8,306.7c5.3,0,8.8-2.8,8.8-7v-0.1
	c0-4.6-3.3-7-8.8-7h-10.8v14.3h10.9L589.8,306.7z M620.2,328.2h31.8v-6.7h-24.3v-11.4h21.3v-6.7h-21.3v-11h24v-6.7h-31.5V328.2z
	 M681.8,285.4h6.9l18.7,42.8h-7.9l-4.3-10.3h-20.1l-4.4,10.3h-7.7L681.8,285.4z M692.5,311.3l-7.3-17l-7.3,17H692.5z M719.9,328.2
	h29.8v-6.8h-22.4v-35.7h-7.4L719.9,328.2L719.9,328.2z M769.9,328.2h7.5v-35.6h13.5v-6.9h-34.5v6.9h13.5L769.9,328.2L769.9,328.2z
	 M823.6,328.2h7.6v-17l16.8-25.5h-8.5l-12.1,18.9l-11.9-18.8h-8.8l16.9,25.7L823.6,328.2L823.6,328.2z"/>
<path class="st1" d="M184.3,246.9v12.5l9.1,2.7v12.6l-9.1-1.8V262l-9.1-2.2v-16.6l-27.4-10.7v25.2l-9.1-2.2V229l-9.1-3.5V377
	l9.1-3.7V354l9.1-2.7v18.5l54.8-22.3V254C202.6,254,184.3,246.9,184.3,246.9z M156.9,251.4l9.1,2.7v15.2l-9.1-1.8V251.4L156.9,251.4
	z M138.6,272.5l9.1,1.4V289l-9.1-0.6V272.5L138.6,272.5z M147.8,334.5l-9.1,1.7v-16.5l9.1-1L147.8,334.5L147.8,334.5z M166,336.9
	l-9.1,2.2v-28.9l-9.1,0.6v-14.1l9.1,0.1v13.4l9.1-0.6V336.9z M166,282.8l9.1,1v13.5l-9.1-0.2V282.8L166,282.8z M184.3,340.1
	l-9.1,2.8v-14.1l9.1-1.9V340.1L184.3,340.1z M193.4,325.1l-9.1,1.9v-36.8l9.1,0.6V325.1L193.4,325.1z"/>
<path class="st2" d="M68,254.5v91.9l53.3,28.1V226.9L68,254.5z"/>
</svg>

