<?xml version="1.0" encoding="utf-8"?>
<!-- Generator: Adobe Illustrator 21.1.0, SVG Export Plug-In . SVG Version: 6.00 Build 0)  -->
<svg version="1.1" id="Layer_1" xmlns="http://www.w3.org/2000/svg" xmlns:xlink="http://www.w3.org/1999/xlink" x="0px" y="0px"
	 viewBox="0 0 318.1 113.3" style="enable-background:new 0 0 318.1 113.3;" xml:space="preserve">
<style type="text/css">
	.st0{fill:#FFFFFF;}
	.st1{fill:none;stroke:#000000;stroke-width:0.7304;}
	.st2{fill:#231F20;}
	.st3{fill:#00728E;}
	.st4{fill:none;stroke:#000000;stroke-width:0.4361;}
	.st5{fill:#4C7235;}
	.st6{clip-path:url(#SVGID_2_);fill:url(#SVGID_3_);}
</style>
<g>
	<polygon class="st0" points="160.6,113 13.4,75 13.4,0.5 303.9,0.5 303.9,75.4 	"/>
	<polygon class="st1" points="160.6,113 13.4,75 13.4,0.5 303.9,0.5 303.9,75.4 	"/>
	<path class="st2" d="M316.2,1.7c0.8,0.7,1.2,1.6,1.2,2.6s-0.4,1.9-1.2,2.6c-0.8,0.7-1.7,1.1-2.9,1.1c-1.1,0-2.1-0.4-2.9-1.1
		s-1.2-1.6-1.2-2.6s0.4-1.9,1.2-2.6c0.8-0.7,1.8-1.1,2.9-1.1S315.4,0.9,316.2,1.7 M316.7,1.3c-0.9-0.8-2-1.3-3.3-1.3
		s-2.4,0.4-3.3,1.3c-0.9,0.8-1.4,1.9-1.4,3c0,1.2,0.5,2.2,1.4,3.1c0.9,0.8,2,1.3,3.3,1.3s2.4-0.4,3.3-1.3c0.9-0.8,1.4-1.9,1.4-3.1
		S317.6,2.1,316.7,1.3 M314,4.1c-0.2,0.1-0.5,0.1-0.9,0.1h-0.8V2.5h0.8c0.5,0,0.9,0.1,1.1,0.2c0.2,0.1,0.3,0.3,0.3,0.7
		C314.6,3.7,314.4,4,314,4.1 M311.4,6.6h0.9V4.8h0.7c0.5,0,0.8,0.1,1,0.2c0.3,0.2,0.5,0.5,0.5,1.1v0.4v0.2c0,0,0,0,0,0.1l0,0h0.9
		V6.7c0,0,0-0.1,0-0.2s0-0.2,0-0.4V5.6c0-0.2-0.1-0.5-0.3-0.7c-0.2-0.3-0.5-0.4-0.9-0.5c0.3,0,0.6-0.1,0.8-0.2
		c0.3-0.2,0.5-0.5,0.5-0.9c0-0.6-0.3-1-0.8-1.2c-0.3-0.1-0.8-0.2-1.4-0.2h-1.8v4.7H311.4z"/>
	<path class="st3" d="M154,29.3h13.1v3.4c2.5-2.2,6-3.5,9.7-3.5c9,0,12.6,5.1,12.6,11.8s-3.5,11.8-12.6,11.8c-3.7,0-7.1-1.4-9.7-3.5
		v53.3L297,69.3V8.2H20.3V69L154,102.6V29.3z M210.2,42.3v0.9c0,2,1.6,3.6,3.6,3.6c1.6,0,2.8-1,3.4-2.5c0.6-1.2,0.7-2.2,0.7-2.2
		h13.8v2.3c0,4.5-3.6,8.1-8.1,8.1h-20.5c-4.4,0-8.1-3.6-8.1-8.1v-7.1c0-4.5,3.6-8.1,8.1-8.1h20.5c4.5,0,8.1,3.6,8.1,8.1v1.6
		c0,0-12.5,0-13.7,0c0,0-0.1-0.7-0.7-2c-0.7-1.5-1.8-2.5-3.4-2.5c-2,0-3.6,1.6-3.6,3.6v0.9v3.4C210.3,42.3,210.2,42.3,210.2,42.3z
		 M274.4,44.3c0,4.5-3.6,8.1-8.1,8.1h-20.5c-4.4,0-8.1-3.6-8.1-8.1v-7.1c0-4.5,3.6-8.1,8.1-8.1h20.5c4.5,0,8.1,3.6,8.1,8.1V44.3z
		 M256.1,34.4c-1.8,0-3.3,2.9-3.3,6.4s1.5,6.4,3.3,6.4c1.8,0,3.3-2.9,3.3-6.4C259.4,37.3,257.9,34.4,256.1,34.4 M77.4,42.1H55.9v1.1
		c0,2,1.6,3.6,3.6,3.6c1.6,0,3-1,3.4-2.5h14.4v0.1c0,4.5-3.6,8.1-8.1,8.1H48.8c-4.5,0-8.1-3.6-8.1-8.1v-7.1c0-4.5,3.6-8.1,8.1-8.1
		h20.5c4.5,0,8.1,3.6,8.1,8.1C77.4,37.3,77.4,42.1,77.4,42.1z M55.9,37.6c0-1.8,1.4-3.4,3.2-3.4s3.2,1.7,3.2,3.4H55.9z M88.2,52.4
		l-11-22.8H92l3.9,8.3l3.9-8.3h12.5l-10.2,22.8H88.2z M132,36.4c-1.8,0-3.3,2.1-3.3,4.7c0,2.6,1.5,4.7,3.3,4.7s3.3-2.1,3.3-4.7
		C135.3,38.4,133.8,36.4,132,36.4 M135.7,29.3h13.1v23.3h-13.1v-3.4c-2.5,2.2-6,3.5-9.6,3.5c-9,0-12.6-5.1-12.6-11.8
		s3.5-11.8,12.6-11.8c3.7,0,7.1,1.4,9.7,3.5L135.7,29.3z M170.9,45.7c1.8,0,3.3-2.1,3.3-4.7c0-2.6-1.5-4.7-3.3-4.7s-3.3,2.1-3.3,4.7
		C167.6,43.6,169.1,45.7,170.9,45.7"/>
	<path class="st4" d="M154,29.3h13.1v3.4c2.5-2.2,6-3.5,9.7-3.5c9,0,12.6,5.1,12.6,11.8s-3.5,11.8-12.6,11.8c-3.7,0-7.1-1.4-9.7-3.5
		v53.3L297,69.3V8.2H20.3V69L154,102.6V29.3z M210.2,42.3v0.9c0,2,1.6,3.6,3.6,3.6c1.6,0,2.8-1,3.4-2.5c0.6-1.2,0.7-2.2,0.7-2.2
		h13.8v2.3c0,4.5-3.6,8.1-8.1,8.1h-20.5c-4.4,0-8.1-3.6-8.1-8.1v-7.1c0-4.5,3.6-8.1,8.1-8.1h20.5c4.5,0,8.1,3.6,8.1,8.1v1.6
		c0,0-12.5,0-13.7,0c0,0-0.1-0.7-0.7-2c-0.7-1.5-1.8-2.5-3.4-2.5c-2,0-3.6,1.6-3.6,3.6v0.9v3.4C210.3,42.3,210.2,42.3,210.2,42.3z
		 M274.4,44.3c0,4.5-3.6,8.1-8.1,8.1h-20.5c-4.4,0-8.1-3.6-8.1-8.1v-7.1c0-4.5,3.6-8.1,8.1-8.1h20.5c4.5,0,8.1,3.6,8.1,8.1V44.3z
		 M256.1,34.4c-1.8,0-3.3,2.9-3.3,6.4s1.5,6.4,3.3,6.4c1.8,0,3.3-2.9,3.3-6.4C259.4,37.3,257.9,34.4,256.1,34.4z M77.4,42.1H55.9
		v1.1c0,2,1.6,3.6,3.6,3.6c1.6,0,3-1,3.4-2.5h14.4v0.1c0,4.5-3.6,8.1-8.1,8.1H48.8c-4.5,0-8.1-3.6-8.1-8.1v-7.1
		c0-4.5,3.6-8.1,8.1-8.1h20.5c4.5,0,8.1,3.6,8.1,8.1C77.4,37.3,77.4,42.1,77.4,42.1z M55.9,37.6c0-1.8,1.4-3.4,3.2-3.4
		s3.2,1.7,3.2,3.4H55.9z M88.2,52.4l-11-22.8H92l3.9,8.3l3.9-8.3h12.5l-10.2,22.8H88.2z M132,36.4c-1.8,0-3.3,2.1-3.3,4.7
		c0,2.6,1.5,4.7,3.3,4.7s3.3-2.1,3.3-4.7C135.3,38.4,133.8,36.4,132,36.4z M135.7,29.3h13.1v23.3h-13.1v-3.4c-2.5,2.2-6,3.5-9.6,3.5
		c-9,0-12.6-5.1-12.6-11.8s3.5-11.8,12.6-11.8c3.7,0,7.1,1.4,9.7,3.5L135.7,29.3z M170.9,45.7c1.8,0,3.3-2.1,3.3-4.7
		c0-2.6-1.5-4.7-3.3-4.7s-3.3,2.1-3.3,4.7C167.6,43.6,169.1,45.7,170.9,45.7z"/>
	<path class="st5" d="M237.8,77c-1.1,0.3-3.7,0.5-4.5,1.4s-0.5,5-1.2,4.9c-0.7,0-4-2.4-4.8-1.2c-0.9,1.2,0.2,7.9-0.8,7.8
		s-4.6-3.8-4.7-1.6c-0.1,2.2,1.3,6.8,1.1,7.7c-0.2,1-2.9,5.5-2.9,5.5l-0.4,1c0,0,0.3,1.1,1.1,0.8c0.8-0.3,4.6-2.8,5.7-2.8
		c1.1,0.1,8.5,0.2,8.7-2.6c0.1-0.5,1.2-4,2.6-4.5c1.8-0.5,4.4-3.3,2.9-4.3s1.3-5.3,1.5-6.3s-0.7-2.8-1.1-3.6c-0.4-0.7-1.9-2.4-3-2.4
		C238,77,237.9,77,237.8,77"/>
	<g>
		<g>
			<g>
				<defs>
					<path id="SVGID_1_" d="M236.7,75.7c-1,0.4-1.7-1-2.7-1.1s-1.8,0.6-2.3,1.3c-1.1,1.4-0.8,5.7-2.8,4.2c-2.1-1.4-4.4-0.9-4.8,1.4
						c-0.3,1.8,1.9,5.4-1,4.6c-2.7-0.8-3.4,1.7-3.3,3.8c0.1,2.6,0.4,3.6,0.3,6.3c0.2,3-1,3.8-1.1,6.9c1.8-1.4,3.7-3.2,5.9-5.3
						c-0.4-1.4-0.8-3.4-1.6-6c1.1,2.3,1.7,4.2,2.1,5.5c1.6-1.6,3-3.3,4.7-5.3c-0.5-1.7-1.2-4.7-2.6-8.3c1.6,3.3,2.6,5.9,3.1,7.6
						c1.4-1.8,2.6-3.6,4-5.8c-0.2-1.1-0.3-3-0.6-5.4c0.6,2,1,3.4,1.2,4.5c1.3-2,2.6-4,3.8-6.3c-1.1,2.4-2.1,4.6-3.3,6.6
						c1.1-0.3,2.5-0.7,4.5-1.4c-2.2,1.1-4,1.9-5.1,2.2c-1.3,2.3-2.6,4.1-4,6c1.8,0,4.6,0.1,8.5,0c-4.1,0.6-7.4,0.8-9.1,0.8
						c-1.6,2.1-2.9,3.8-4.5,5.4c1.4,0.3,3.3,0.9,5.9,1.4c-2.8-0.2-5.1-0.6-6.4-0.9c-2.1,2.2-4.1,4-5.9,5.4c1.2,0.3,3.7-1.2,6.3-1.2
						c1.1,0,2.2,0.2,3.3,0.3c1.7,0.3,3.4,0.5,5.3,0.1c2.5-0.5,5.1-2.8,3.7-5.4c-1.5-2.8,3-2.1,4.8-3.6c2.4-1.8,1.9-4.7-0.3-5.7
						s1.9-3.4,2.6-5.4c0.3-1,0.4-2.1-0.2-2.9c-0.7-0.8-2.3-0.4-2.6-1.5c-0.5-1.8,1.6-4.6-0.9-5.7l0,0l0,0c-0.4-0.2-0.7-0.2-1-0.2
						C238.9,72.6,238.2,75.1,236.7,75.7"/>
				</defs>
				<clipPath id="SVGID_2_">
					<use xlink:href="#SVGID_1_"  style="overflow:visible;"/>
				</clipPath>

					<linearGradient id="SVGID_3_" gradientUnits="userSpaceOnUse" x1="-589.2872" y1="389.9381" x2="-587.4426" y2="389.9381" gradientTransform="matrix(14.4225 0 0 -14.4225 8717.9951 5712.2324)">
					<stop  offset="0" style="stop-color:#4C7235"/>
					<stop  offset="0.335" style="stop-color:#728F54"/>
					<stop  offset="0.5" style="stop-color:#869F65"/>
					<stop  offset="1" style="stop-color:#B3C49C"/>
				</linearGradient>
				<rect x="219" y="72.6" class="st6" width="26.8" height="31.5"/>
			</g>
		</g>
	</g>
	<path class="st5" d="M219.8,102.5c-0.2,0.2-1.4,1.1-3.3,2.5c-1.6,1.1-3,1.9-4.2,2.5c-1.4,0.6-2.1,1.3-2.5,1.6
		c-0.4,0.3-0.2,1.1-0.2,1.1c0.2,0.5,0.8,0.9,3.5-1c2-1.8,3.2-2.1,4.7-3.5c0.6-0.6,2.3-2.1,2.9-2.6c0.6-0.5,0.2-0.6-0.2-0.6
		C220.2,102.4,219.8,102.5,219.8,102.5"/>
</g>
</svg>

