
<?xml version="1.0" encoding="utf-8"?>
<!-- Generator: Adobe Illustrator 26.5.0, SVG Export Plug-In . SVG Version: 6.00 Build 0)  -->
<svg version="1.0" id="katman_1" xmlns="http://www.w3.org/2000/svg" xmlns:xlink="http://www.w3.org/1999/xlink" x="0px" y="0px"
	 viewBox="0 0 1190.55 841.89" style="enable-background:new 0 0 1190.55 841.89;" xml:space="preserve">
<style type="text/css">
	.st0{fill:#010202;}
</style>
<g>
	<g>
		<path class="st0" d="M338.15,390.15v26.9h42.7l-6.6,13.9h-36.1v33.8h-16.4v-88.4h66.6l-6.6,13.8H338.15z"/>
		<path class="st0" d="M416.55,426.25v-49.9h16.4v49.3c0,18.2,8.2,26,22.5,26s22.4-7.8,22.4-26v-49.3h16.2v49.9
			c0,25.8-14.5,39.8-38.7,39.8C431.15,466.05,416.55,452.05,416.55,426.25z"/>
		<path class="st0" d="M610.75,376.35v88.4h-13.6l-48.8-59.9v59.9h-16.2v-88.4h13.5l48.8,59.9v-59.9H610.75z"/>
		<path class="st0" d="M709.95,419.55h15.5v35.3c-9.2,7.5-22.1,11.2-34.6,11.2c-27.4,0-47.6-19.1-47.6-45.5
			c0-26.4,20.2-45.5,47.9-45.5c14.8,0,27.2,4.9,35.5,14.4l-10.4,10.1c-6.9-6.9-14.9-10.1-24.4-10.1c-18.8,0-32.1,12.8-32.1,31.1
			c0,17.9,13.3,31.1,32,31.1c6.3,0,12.5-1.3,18.2-4.5L709.95,419.55L709.95,419.55z"/>
		<path class="st0" d="M762.25,376.35h16.4v88.4h-16.4V376.35z"/>
		<path class="st0" d="M896.25,440.75c0,15.2-11.9,24-34.6,24h-44v-88.4h41.5c21.2,0,32.6,9,32.6,23c0,9.1-4.5,15.8-11.4,19.5
			C889.85,421.85,896.25,429.35,896.25,440.75z M834.15,389.25v24.4h23.2c11.4,0,17.8-4,17.8-12.1c0-8.2-6.4-12.3-17.8-12.3H834.15z
			 M879.75,439.15c0-8.8-6.7-12.8-19.1-12.8h-26.5v25.5h26.5C873.05,451.95,879.75,447.95,879.75,439.15z"/>
		<path class="st0" d="M928.95,376.35h16.4v74.5h46.2l-6.6,13.9h-56L928.95,376.35L928.95,376.35z"/>
		<path class="st0" d="M1086.05,451.05l-6.6,13.8h-59.7v-88.5h64.5l-6.6,13.8h-41.5v23h42.7l-6.6,13.5h-36.1v24.4H1086.05z"/>
	</g>
	<g>
		<polygon class="st0" points="206.65,425.55 146.85,425.55 151.05,415.65 210.85,415.65 		"/>
		<path class="st0" d="M212.05,364.55c-5.3-3.1-11-5.4-17-6.9c-3.3-0.8-6.8-1.4-10.2-1.6c-1.8-0.1-3.6-0.2-5.3-0.2
			c-33.5,0-61.8,26.2-64.6,59.5c-2,24.8,10.6,48.9,32.1,61.4c5.3,3.1,11.1,5.4,17,6.9c3.3,0.8,6.8,1.4,10.2,1.6
			c1.8,0.1,3.6,0.2,5.3,0.2l0,0c33.5,0,61.8-26.1,64.6-59.5C246.15,401.15,233.55,377.05,212.05,364.55z M227.75,424.55
			c-2,24.9-23.2,44.5-48.2,44.5c-1.3,0-2.7-0.1-4-0.2c-1.2-0.1-2.5-0.3-3.8-0.5c-6.6-1.1-12.8-3.4-18.4-7.1
			c-15.1-9.7-23.6-26.9-22.1-44.7c2-24.9,23.2-44.5,48.2-44.5c1.3,0,2.7,0.1,4,0.2c1.2,0.1,2.5,0.3,3.8,0.5
			c6.6,1.1,12.8,3.4,18.4,7.1C220.75,389.55,229.25,406.75,227.75,424.55z"/>
		<path class="st0" d="M254.05,318.75c-1.2-3.1-4-5.4-7.2-6.4c-0.7-0.2-1.3-0.4-2-0.6c-6.8-1.8-14.7-1.6-23.2,2.5
			c-9.1,4.3-20.2,12.4-29.5,27.7c-4.8,7.9-8.1,16.5-10.3,25.5l-26,109.2h-0.1l-3.5,11.4c-0.9,2.9-1.9,5.7-3,8.4
			c-1.2,2.9-2.4,5.4-3.6,7.7c-0.4,0.8-0.9,1.6-1.3,2.4c-4.8,8.2-9.4,11.4-14.1,9.5c0,0-0.1,0-0.1-0.1c-1.7-0.7-3.5-2.1-5.3-4.1
			c-1.4-2-3.4-3.6-6-4.4c-5.9-1.8-12.2,1.5-14.1,7.4c-0.8,2.5-0.6,5.2,0.3,7.5c1.2,3.1,4,5.4,7.2,6.5c0.7,0.2,1.3,0.4,2,0.6
			c5.8,1.5,12.5,1.6,19.6-1c1.2-0.4,2.4-0.9,3.6-1.5c24.8-10.7,37.3-43.2,39.5-51.6v-0.1l0.4-1.7l7.3-30.6l0,0
			c1.9-8-3.4-15.9-11.4-17.2l-0.9-0.1h16.5l14.6-61.2l3.5-11.4c0.9-2.8,1.9-5.6,3-8.4c1.2-2.9,2.4-5.4,3.6-7.7
			c5.2-9.9,10.2-13.9,15.4-11.9c1.8,0.7,3.6,2,5.4,4.1c1.4,2,3.4,3.6,5.9,4.4c5.9,1.8,12.2-1.5,14-7.4
			C255.05,323.65,254.95,321.05,254.05,318.75z"/>
	</g>
</g>
</svg>

