

<?xml version="1.0" encoding="UTF-8" standalone="no"?>
<!DOCTYPE svg PUBLIC "-//W3C//DTD SVG 1.1//EN" "http://www.w3.org/Graphics/SVG/1.1/DTD/svg11.dtd">
<svg xmlns="http://www.w3.org/2000/svg" version="1.1" viewBox="0.00 0.00 386.00 404.00">
<g stroke-width="2.00" fill="none" stroke-linecap="butt">
<path stroke="#b1b9b6" vector-effect="non-scaling-stroke" d="
  M 176.70 112.03
  L 176.67 127.92
  Q 176.66 128.41 176.17 128.48
  L 173.98 128.77
  Q 173.39 128.85 173.30 128.27
  Q 172.07 120.71 172.82 113.04
  Q 172.82 112.98 172.76 112.97
  L 172.51 112.95
  Q 172.26 112.92 172.23 113.17
  Q 171.53 120.59 172.19 127.95
  A 0.58 0.58 0.0 0 1 171.62 128.59
  Q 157.27 128.83 139.59 128.77
  C 133.17 128.75 130.22 132.49 130.41 138.58
  Q 130.76 149.53 130.43 159.56
  A 1.27 1.27 0.0 0 1 129.19 160.79
  L 117.18 161.03
  A 0.64 0.64 0.0 0 0 116.64 162.00
  L 116.85 162.35
  Q 117.18 162.90 117.82 162.81
  Q 123.58 162.00 129.54 162.32
  A 1.09 1.09 0.0 0 1 130.57 163.43
  Q 130.50 168.28 130.95 173.23
  Q 131.35 177.62 133.61 180.11"
/>
<path stroke="#8fa69a" vector-effect="non-scaling-stroke" d="
  M 133.61 180.11
  Q 135.37 181.34 137.50 181.35
  Q 161.74 181.52 185.65 181.18
  Q 186.78 181.16 186.80 182.29
  L 186.90 187.98
  A 1.08 1.08 0.0 0 1 185.81 189.08
  Q 167.17 188.86 148.00 189.05
  Q 141.28 189.11 128.67 188.57
  Q 128.21 188.56 128.31 189.00
  L 128.39 189.38
  A 0.95 0.95 0.0 0 0 129.28 190.12
  Q 137.21 190.44 144.99 190.51
  C 146.62 190.52 147.96 191.26 149.59 190.91
  Q 151.23 190.55 152.85 190.58
  Q 168.62 190.84 185.44 190.51
  A 1.65 1.65 0.0 0 1 187.12 192.21
  L 186.74 206.75
  A 0.48 0.48 0.0 0 0 187.22 207.24
  L 187.70 207.23
  Q 188.53 207.22 188.52 206.39
  L 188.36 191.46
  Q 188.35 190.30 189.51 190.25
  C 190.96 190.19 192.53 190.54 193.85 190.54
  Q 214.93 190.55 236.00 190.61
  C 242.08 190.63 242.49 187.19 242.50 182.46
  A 0.87 0.86 88.6 0 1 243.32 181.59
  L 250.33 181.20
  A 0.31 0.31 0.0 0 0 250.61 180.79
  L 250.48 180.42
  Q 250.23 179.66 249.43 179.68
  L 243.27 179.77
  A 1.00 0.99 -0.0 0 1 242.26 178.77
  L 242.28 168.81
  A 0.82 0.81 -88.0 0 1 243.15 167.99
  Q 250.05 168.45 257.62 167.76
  Q 257.88 167.74 257.87 167.48
  L 257.86 167.16
  Q 257.86 167.09 257.78 167.09
  Q 250.81 166.87 243.47 167.53
  A 1.44 1.44 0.0 0 1 241.90 165.98
  Q 242.74 156.11 242.45 146.80
  C 242.30 142.06 235.98 142.69 232.78 142.66
  Q 221.41 142.53 208.12 142.72
  A 3.39 3.38 -0.9 0 1 204.69 139.41
  C 204.57 134.35 204.41 129.49 204.74 124.40
  Q 205.16 117.68 204.64 111.43
  A 1.09 1.09 0.0 0 1 205.73 110.25
  L 243.72 110.28
  A 0.53 0.53 0.0 0 0 244.24 109.62
  C 239.19 89.10 230.92 69.97 219.08 52.85
  Q 215.00 46.95 211.14 41.59
  Q 208.55 37.99 205.41 36.07
  Q 200.59 33.11 196.15 35.07
  C 191.21 37.26 188.76 43.02 185.75 46.93
  Q 182.78 50.80 178.17 49.52
  C 173.58 48.24 169.42 40.83 164.51 42.46
  C 157.18 44.89 152.36 52.90 148.84 59.60
  Q 143.66 69.44 139.08 78.27
  C 133.91 88.22 131.91 98.17 130.70 109.07
  A 1.10 1.09 3.1 0 0 131.79 110.28
  Q 150.28 110.36 167.56 110.25
  C 169.91 110.24 172.21 111.08 174.47 110.36
  Q 175.26 110.11 175.98 110.39
  Q 176.95 110.77 176.70 112.03"
/>
<path stroke="#415f51" vector-effect="non-scaling-stroke" d="
  M 133.61 180.11
  Q 134.58 179.08 135.81 179.38"
/>
<path stroke="#8fa69a" vector-effect="non-scaling-stroke" d="
  M 135.81 179.38
  Q 139.93 179.93 144.11 179.78
  Q 150.93 179.54 152.40 179.58
  Q 165.97 179.89 179.54 179.66"
/>
<path stroke="#415f51" vector-effect="non-scaling-stroke" d="
  M 179.54 179.66
  L 188.28 179.23"
/>
<path stroke="#8fa69a" vector-effect="non-scaling-stroke" d="
  M 188.28 179.23
  C 189.09 179.42 189.51 179.66 190.34 179.66
  Q 215.22 179.58 240.00 179.74
  A 0.71 0.71 0.0 0 0 240.71 179.10
  Q 241.21 174.10 240.87 169.35
  Q 240.47 163.70 240.68 160.08
  Q 241.02 153.86 240.94 146.84
  Q 240.91 144.64 238.71 144.56
  Q 225.04 144.00 210.24 144.27
  Q 207.53 144.32 205.16 143.56
  Q 204.58 143.38 204.25 142.87
  C 202.22 139.72 203.05 135.44 202.76 131.76
  Q 202.56 129.31 202.75 126.68
  Q 203.30 119.10 202.96 111.21
  A 1.12 1.12 0.0 0 0 201.66 110.16
  Q 199.24 110.56 196.80 110.33
  C 195.13 110.17 193.68 111.14 192.13 110.53
  Q 191.11 110.13 190.02 110.23
  Q 188.27 110.38 188.33 111.71"
/>
<path stroke="#415f51" vector-effect="non-scaling-stroke" d="
  M 188.33 111.71
  Q 188.47 112.25 188.00 112.35
  Q 187.28 112.51 186.73 112.04"
/>
<path stroke="#8fa69a" vector-effect="non-scaling-stroke" d="
  M 186.73 112.04
  Q 186.82 110.67 186.04 110.29
  A 1.82 1.82 0.0 0 0 183.41 111.92
  Q 183.38 117.75 183.36 124.01
  Q 183.33 128.51 178.30 130.34"
/>
<path stroke="#415f51" vector-effect="non-scaling-stroke" d="
  M 178.30 130.34
  Q 177.56 130.38 177.64 133.27
  Q 177.66 133.93 177.38 133.33
  Q 177.05 132.62 177.21 131.83
  Q 177.22 131.78 177.19 131.74
  Q 177.14 131.69 177.08 131.71
  Q 176.98 131.76 176.98 131.87
  Q 176.95 132.92 176.76 133.99"
/>
<path stroke="#8fa69a" vector-effect="non-scaling-stroke" d="
  M 176.76 133.99
  Q 177.10 131.70 176.44 130.76"
/>
<path stroke="#415f51" vector-effect="non-scaling-stroke" d="
  M 176.44 130.76
  Q 175.02 129.24 178.53 128.07"
/>
<path stroke="#8fa69a" vector-effect="non-scaling-stroke" d="
  M 178.53 128.07
  Q 181.43 126.61 181.42 124.63
  Q 181.41 117.98 181.64 111.27
  Q 181.66 110.77 181.18 110.59
  Q 179.51 109.95 177.77 111.00"
/>
<path stroke="#415f51" vector-effect="non-scaling-stroke" d="
  M 177.77 111.00
  L 177.52 111.80
  Q 177.39 112.18 177.00 112.12
  Q 176.86 112.09 176.70 112.03"
/>
<path stroke="#b1b9b6" vector-effect="non-scaling-stroke" d="
  M 178.53 128.07
  L 177.96 127.92
  Q 177.43 127.78 177.44 127.24
  L 177.77 111.00"
/>
<path stroke="#b1b9b6" vector-effect="non-scaling-stroke" d="
  M 188.28 179.23
  L 188.33 111.71"
/>
<path stroke="#b1b9b6" vector-effect="non-scaling-stroke" d="
  M 186.73 112.04
  L 186.82 177.91
  A 1.71 1.71 0.0 0 1 185.12 179.62
  L 179.54 179.66"
/>
<path stroke="#b1b9b6" vector-effect="non-scaling-stroke" d="
  M 135.81 179.38
  Q 133.23 176.99 133.04 172.48
  Q 132.86 168.30 133.17 163.83
  Q 133.26 162.46 134.63 162.46
  L 146.85 162.49
  A 1.96 1.96 0.0 0 1 148.78 164.73
  Q 148.06 169.67 148.58 174.97
  Q 148.79 177.10 149.12 174.98
  Q 149.82 170.40 149.06 165.88
  Q 148.74 163.96 150.01 162.77
  Q 150.35 162.46 150.81 162.46
  Q 161.25 162.44 171.69 162.35
  Q 176.69 162.31 177.82 157.53
  Q 178.22 155.88 178.20 155.00
  Q 177.96 142.61 178.30 130.34"
/>
<path stroke="#b1b9b6" vector-effect="non-scaling-stroke" d="
  M 176.44 130.76
  Q 174.40 130.50 172.90 130.99
  Q 172.36 131.17 172.06 131.66
  Q 169.86 135.24 164.86 135.28
  Q 159.65 135.32 154.94 135.04
  C 150.22 134.76 149.04 138.46 149.07 142.50
  Q 149.15 150.63 149.25 159.42
  Q 149.26 160.81 150.65 160.80
  Q 159.58 160.73 170.93 160.76
  C 174.76 160.76 176.56 158.91 176.42 154.74
  Q 176.26 149.86 176.76 133.99"
/>
<path stroke="#b1b9b6" vector-effect="non-scaling-stroke" d="
  M 148.8132 187.4200
  A 1.86 0.38 89.9 0 0 149.1900 185.5593
  A 1.86 0.38 89.9 0 0 148.8068 183.7000
  A 1.86 0.38 89.9 0 0 148.4300 185.5607
  A 1.86 0.38 89.9 0 0 148.8132 187.4200"
/>
<path stroke="#888888" vector-effect="non-scaling-stroke" d="
  M 138.32 261.85
  C 131.92 263.08 121.20 263.82 117.68 256.85
  C 114.77 251.08 115.36 241.32 116.40 235.38
  C 118.65 222.61 133.39 225.35 143.13 227.89
  Q 144.99 228.37 145.40 226.49
  L 145.49 226.07
  Q 146.07 223.41 143.45 222.67
  Q 132.87 219.66 123.41 221.15
  Q 113.20 222.75 110.76 233.18
  Q 108.86 241.32 110.27 252.53
  C 111.24 260.27 115.15 265.59 123.04 266.94
  Q 132.70 268.59 142.57 265.96
  C 144.83 265.35 145.09 262.77 145.12 260.86
  Q 145.29 251.24 145.09 241.62
  Q 145.07 240.75 144.20 240.74
  L 133.08 240.62
  Q 131.02 240.60 130.97 242.66
  L 130.96 243.37
  Q 130.91 245.33 132.86 245.60
  L 138.72 246.43
  Q 139.41 246.53 139.40 247.22
  L 139.20 260.79
  A 1.09 1.09 0.0 0 1 138.32 261.85"
/>
<path stroke="#888888" vector-effect="non-scaling-stroke" d="
  M 161.12 239.11
  L 168.04 238.52
  Q 169.93 238.36 169.99 236.46
  L 170.01 235.50
  Q 170.06 233.76 168.31 233.76
  Q 161.73 233.75 156.18 236.05
  Q 154.19 236.88 154.16 239.06
  C 154.05 247.70 154.60 256.50 153.83 265.01
  Q 153.68 266.69 155.37 266.75
  L 157.95 266.83
  Q 159.53 266.87 159.53 265.29
  L 159.50 240.88
  A 1.78 1.77 87.5 0 1 161.12 239.11"
/>
<path stroke="#888888" vector-effect="non-scaling-stroke" d="
  M 178.05 254.99
  Q 177.96 254.06 178.90 254.05
  L 198.54 254.01
  A 1.22 1.22 0.0 0 0 199.76 252.82
  C 199.90 246.49 200.24 237.09 192.50 234.66
  C 186.98 232.93 176.68 232.89 174.28 239.66
  C 171.62 247.14 170.43 263.39 180.50 266.56
  Q 187.95 268.91 196.51 266.17
  Q 198.05 265.67 198.03 264.05
  L 198.01 263.11
  Q 197.99 261.37 196.31 261.84
  Q 190.60 263.42 185.94 263.15
  Q 178.77 262.72 178.05 254.99"
/>
<path stroke="#888888" vector-effect="non-scaling-stroke" d="
  M 211.09 254.72
  A 0.61 0.60 87.4 0 1 211.69 254.06
  L 231.66 253.97
  A 1.13 1.13 0.0 0 0 232.79 252.93
  Q 233.25 247.14 231.92 241.57
  C 230.01 233.57 220.40 232.84 213.76 234.43
  Q 208.53 235.69 206.95 240.80
  Q 204.77 247.82 206.12 256.75
  C 206.86 261.65 209.60 265.75 214.73 266.88
  Q 222.39 268.58 229.75 266.08
  Q 231.82 265.37 231.24 263.25
  Q 231.02 262.47 230.23 261.98
  A 1.63 1.63 0.0 0 0 228.88 261.82
  C 221.63 264.15 211.99 264.89 211.09 254.72"
/>
<path stroke="#888888" vector-effect="non-scaling-stroke" d="
  M 259.74 239.59
  Q 260.59 242.02 260.59 244.54
  Q 260.58 255.74 260.69 266.09
  Q 260.70 266.90 261.51 266.92
  L 264.84 266.96
  A 1.15 1.14 1.0 0 0 266.00 265.85
  Q 266.27 255.39 266.15 245.72
  C 266.07 239.64 265.99 234.09 258.00 233.78
  Q 249.23 233.44 241.44 236.47
  A 1.75 1.75 0.0 0 0 240.32 238.09
  L 240.14 265.81
  Q 240.13 266.74 241.06 266.75
  L 244.46 266.79
  Q 245.72 266.81 245.72 265.54
  L 245.72 241.06
  Q 245.72 239.40 247.35 239.07
  C 251.06 238.33 255.36 237.74 258.98 238.85
  Q 259.55 239.03 259.74 239.59"
/>
<path stroke="#888888" vector-effect="non-scaling-stroke" d="
  M 280.0325 279.0330
  A 1.26 1.26 0.0 0 0 278.7507 277.7952
  L 275.8312 277.8462
  A 1.26 1.26 0.0 0 0 274.5933 279.1280
  L 274.7075 285.6670
  A 1.26 1.26 0.0 0 0 275.9893 286.9048
  L 278.9088 286.8538
  A 1.26 1.26 0.0 0 0 280.1467 285.5720
  L 280.0325 279.0330"
/>
<path stroke="#888888" vector-effect="non-scaling-stroke" d="
  M 84.60 308.81
  Q 84.11 309.00 83.96 308.49
  L 75.68 279.40
  A 0.93 0.92 -7.9 0 0 74.79 278.73
  L 63.97 278.78
  A 0.50 0.50 0.0 0 0 63.47 279.24
  L 60.08 323.44
  Q 60.04 324.09 60.68 324.06
  L 64.77 323.91
  A 1.01 1.00 -88.7 0 0 65.73 322.98
  L 68.65 284.50
  A 0.99 0.99 0.0 0 1 70.22 283.78
  Q 71.20 284.49 71.57 285.72
  Q 75.68 299.55 80.52 314.95
  A 0.77 0.76 81.2 0 0 81.25 315.49
  L 87.24 315.50
  A 1.06 1.05 -80.8 0 0 88.24 314.77
  L 97.97 284.45
  A 1.09 1.09 0.0 0 1 99.86 284.11
  Q 100.39 284.77 100.48 286.00
  Q 101.91 304.98 103.52 323.26
  Q 103.59 324.03 104.36 324.02
  L 108.52 323.97
  Q 109.38 323.96 109.31 323.10
  L 105.77 279.95
  A 1.32 1.31 87.4 0 0 104.45 278.74
  L 95.06 278.79
  A 1.50 1.50 0.0 0 0 93.63 279.87
  Q 89.20 294.94 85.18 308.19
  Q 85.05 308.64 84.60 308.81"
/>
<path stroke="#888888" vector-effect="non-scaling-stroke" d="
  M 224.26 296.81
  Q 224.25 296.26 224.80 296.26
  L 233.25 296.24
  Q 234.99 296.24 234.99 294.50
  L 234.99 293.66
  Q 234.99 291.83 233.16 291.81
  L 225.00 291.70
  A 0.68 0.68 0.0 0 1 224.33 291.01
  L 224.54 282.70
  Q 224.59 280.46 222.44 281.08
  L 220.49 281.64
  A 2.08 2.07 -8.0 0 0 218.98 283.63
  Q 218.98 299.51 219.09 315.08
  C 219.11 317.66 219.18 321.12 221.43 322.84
  C 224.97 325.55 230.11 324.99 234.13 323.93
  A 1.90 1.89 -9.2 0 0 235.54 321.99
  Q 235.52 321.73 235.46 321.48
  Q 234.95 319.53 232.96 319.89
  C 229.97 320.42 224.42 321.20 224.44 317.28
  Q 224.50 306.90 224.26 296.81"
/>
<path stroke="#888888" vector-effect="non-scaling-stroke" d="
  M 143.9791 302.7439
  A 11.56 11.56 0.0 0 0 132.4392 291.1637
  L 128.1793 291.1563
  A 11.56 11.56 0.0 0 0 116.5991 302.6961
  L 116.5809 313.0961
  A 11.56 11.56 0.0 0 0 128.1208 324.6763
  L 132.3807 324.6837
  A 11.56 11.56 0.0 0 0 143.9609 313.1439
  L 143.9791 302.7439"
/>
<path stroke="#888888" vector-effect="non-scaling-stroke" d="
  M 156.11 306.81
  Q 156.42 300.09 156.20 292.66
  Q 156.15 290.85 154.38 291.20
  L 152.52 291.57
  Q 150.86 291.89 150.86 293.59
  Q 150.86 304.07 150.99 314.41
  Q 151.03 318.10 152.91 320.91
  C 155.91 325.39 164.49 325.29 169.01 324.28
  C 175.37 322.85 176.80 317.81 176.67 312.02
  Q 176.44 301.42 176.72 292.18
  Q 176.76 290.86 175.48 291.18
  L 172.31 291.99
  Q 171.15 292.28 171.17 293.48
  Q 171.37 304.36 171.25 314.67
  Q 171.19 319.67 166.02 320.42
  C 162.73 320.89 157.43 320.71 156.64 316.38
  Q 155.87 312.11 156.11 306.81"
/>
<path stroke="#888888" vector-effect="non-scaling-stroke" d="
  M 190.63 297.01
  Q 190.99 296.57 191.55 296.48
  Q 195.25 295.90 198.82 295.34
  Q 202.38 294.78 204.62 296.87
  A 1.52 1.47 -72.8 0 1 205.07 297.76
  Q 205.47 300.84 205.49 303.88
  Q 205.59 316.39 205.32 322.77
  A 1.24 1.23 1.6 0 0 206.55 324.06
  L 209.71 324.06
  Q 210.90 324.06 210.88 322.86
  Q 210.66 312.19 210.77 299.70
  Q 210.83 292.85 205.41 291.69
  Q 198.56 290.23 188.31 292.93
  C 186.05 293.52 184.89 295.11 184.95 297.50
  Q 185.18 307.77 184.87 322.55
  Q 184.84 324.06 186.35 324.09
  L 188.92 324.15
  Q 190.28 324.18 190.28 322.82
  L 190.28 297.99
  Q 190.28 297.43 190.63 297.01"
/>
<path stroke="#888888" vector-effect="non-scaling-stroke" d="
  M 259.84 302.61
  A 1.27 1.25 4.0 0 1 258.82 303.48
  Q 252.46 304.40 246.38 305.58
  Q 241.14 306.61 239.97 311.00
  C 238.88 315.07 239.70 321.42 244.13 323.42
  C 249.32 325.76 256.66 324.91 262.09 323.69
  C 265.46 322.93 265.46 319.84 265.50 317.04
  Q 265.61 307.66 265.47 298.70
  Q 265.37 292.24 258.95 291.45
  Q 250.46 290.40 242.28 292.73
  A 1.45 1.44 -8.0 0 0 241.23 294.12
  L 241.24 296.05
  A 1.30 1.30 0.0 0 0 242.92 297.29
  Q 250.82 294.93 258.20 296.35
  A 2.30 2.29 -2.3 0 1 259.98 297.99
  Q 260.60 300.21 259.84 302.61"
/>
<path stroke="#888888" vector-effect="non-scaling-stroke" d="
  M 295.05 297.17
  Q 295.52 296.56 296.21 296.41
  Q 301.71 295.24 306.29 295.58
  Q 309.69 295.83 309.79 299.24
  Q 310.16 310.89 309.88 323.11
  Q 309.85 324.10 310.84 324.04
  L 314.47 323.82
  Q 315.43 323.76 315.40 322.80
  Q 315.11 313.78 315.29 302.63
  Q 315.36 297.93 314.31 295.07
  C 311.85 288.40 296.25 291.74 291.67 293.43
  Q 289.43 294.26 289.45 296.75
  Q 289.56 309.00 289.33 322.55
  Q 289.31 324.25 291.00 324.18
  L 293.13 324.08
  Q 294.76 324.02 294.76 322.38
  L 294.74 298.07
  A 1.48 1.46 -26.6 0 1 295.05 297.17"
/>
<path stroke="#888888" vector-effect="non-scaling-stroke" d="
  M 280.03 292.78
  A 0.75 0.75 0.0 0 0 279.28 292.03
  L 275.46 292.03
  A 0.75 0.75 0.0 0 0 274.71 292.78
  L 274.71 323.18
  A 0.75 0.75 0.0 0 0 275.46 323.93
  L 279.28 323.93
  A 0.75 0.75 0.0 0 0 280.03 323.18
  L 280.03 292.78"
/>
<path stroke="#8fa69a" vector-effect="non-scaling-stroke" d="
  M 240.8359 182.7841
  A 1.63 1.63 0.0 0 0 239.2031 181.1569
  L 189.8632 181.2431
  A 1.63 1.63 0.0 0 0 188.2360 182.8759
  L 188.2441 187.4959
  A 1.63 1.63 0.0 0 0 189.8769 189.1231
  L 239.2168 189.0369
  A 1.63 1.63 0.0 0 0 240.8440 187.4041
  L 240.8359 182.7841"
/>
<path stroke="#b1b9b6" vector-effect="non-scaling-stroke" d="
  M 238.39 167.54
  Q 239.88 167.04 238.31 167.04
  Q 222.25 167.00 205.50 166.68
  Q 200.23 166.58 197.75 166.30
  C 194.48 165.92 193.94 161.65 193.91 158.90
  Q 193.85 150.69 193.53 142.68
  C 193.41 139.66 193.89 136.74 193.68 133.77
  Q 193.46 130.47 193.69 127.18
  Q 194.18 120.52 193.81 113.69
  Q 193.77 113.00 193.46 112.41
  Q 192.94 111.45 192.92 112.54
  Q 192.41 140.48 192.69 157.67
  C 192.74 160.48 192.64 165.88 196.31 166.86
  Q 199.05 167.61 201.44 167.70
  Q 215.20 168.26 235.37 168.02
  Q 236.98 168.00 238.39 167.54"
/>
<path stroke="#b1b9b6" vector-effect="non-scaling-stroke" d="
  M 225.6605 175.5177
  A 1.71 0.41 93.0 0 0 226.1594 173.8315
  A 1.71 0.41 93.0 0 0 225.8395 172.1023
  A 1.71 0.41 93.0 0 0 225.3406 173.7885
  A 1.71 0.41 93.0 0 0 225.6605 175.5177"
/>
<path stroke="#b1b9b6" vector-effect="non-scaling-stroke" d="
  M 170.59 130.99
  A 0.43 0.42 7.2 0 0 170.13 130.40
  C 168.60 130.67 167.28 131.10 165.69 131.07
  Q 152.03 130.81 139.31 131.15
  Q 132.74 131.33 132.85 138.08
  Q 132.99 146.90 133.08 158.79
  Q 133.09 160.80 135.11 160.78
  L 147.91 160.66
  A 0.65 0.64 86.4 0 0 148.54 159.94
  Q 147.60 151.44 148.18 141.54
  C 148.37 138.27 149.29 134.25 153.38 134.28
  Q 159.47 134.31 165.72 134.41
  Q 169.07 134.46 170.59 130.99"
/>
<path stroke="#888888" vector-effect="non-scaling-stroke" d="
  M 178.66 249.50
  L 193.72 249.48
  A 0.29 0.29 0.0 0 0 194.01 249.19
  L 194.00 245.89
  A 7.61 6.50 89.9 0 0 187.49 238.29
  L 184.85 238.29
  A 7.61 6.50 89.9 0 0 178.36 245.91
  L 178.37 249.21
  A 0.29 0.29 0.0 0 0 178.66 249.50"
/>
<path stroke="#888888" vector-effect="non-scaling-stroke" d="
  M 211.72 249.64
  L 226.86 249.46
  A 0.26 0.26 0.0 0 0 227.11 249.19
  L 227.07 245.98
  A 7.65 5.70 89.3 0 0 221.28 238.40
  L 217.02 238.46
  A 7.65 5.70 89.3 0 0 211.42 246.18
  L 211.46 249.39
  A 0.26 0.26 0.0 0 0 211.72 249.64"
/>
<path stroke="#888888" vector-effect="non-scaling-stroke" d="
  M 138.3684 302.5320
  A 6.82 6.82 0.0 0 0 131.5842 295.6763
  L 129.2243 295.6640
  A 6.82 6.82 0.0 0 0 122.3686 302.4482
  L 122.3116 313.3480
  A 6.82 6.82 0.0 0 0 129.0958 320.2037
  L 131.4557 320.2160
  A 6.82 6.82 0.0 0 0 138.3114 313.4318
  L 138.3684 302.5320"
/>
<path stroke="#888888" vector-effect="non-scaling-stroke" d="
  M 260.62 319.77
  L 259.84 308.33
  A 0.22 0.22 0.0 0 0 259.61 308.13
  L 252.40 308.62
  A 7.53 4.65 -3.9 0 0 245.20 313.77
  L 245.38 316.37
  A 7.53 4.65 -3.9 0 0 253.20 320.49
  L 260.42 320.00
  A 0.22 0.22 0.0 0 0 260.62 319.77"
/>
</g>
<path fill="#ffffff" d="
  M 0.00 0.00
  L 386.00 0.00
  L 386.00 404.00
  L 0.00 404.00
  L 0.00 0.00
  Z
  M 176.70 112.03
  L 176.67 127.92
  Q 176.66 128.41 176.17 128.48
  L 173.98 128.77
  Q 173.39 128.85 173.30 128.27
  Q 172.07 120.71 172.82 113.04
  Q 172.82 112.98 172.76 112.97
  L 172.51 112.95
  Q 172.26 112.92 172.23 113.17
  Q 171.53 120.59 172.19 127.95
  A 0.58 0.58 0.0 0 1 171.62 128.59
  Q 157.27 128.83 139.59 128.77
  C 133.17 128.75 130.22 132.49 130.41 138.58
  Q 130.76 149.53 130.43 159.56
  A 1.27 1.27 0.0 0 1 129.19 160.79
  L 117.18 161.03
  A 0.64 0.64 0.0 0 0 116.64 162.00
  L 116.85 162.35
  Q 117.18 162.90 117.82 162.81
  Q 123.58 162.00 129.54 162.32
  A 1.09 1.09 0.0 0 1 130.57 163.43
  Q 130.50 168.28 130.95 173.23
  Q 131.35 177.62 133.61 180.11
  Q 135.37 181.34 137.50 181.35
  Q 161.74 181.52 185.65 181.18
  Q 186.78 181.16 186.80 182.29
  L 186.90 187.98
  A 1.08 1.08 0.0 0 1 185.81 189.08
  Q 167.17 188.86 148.00 189.05
  Q 141.28 189.11 128.67 188.57
  Q 128.21 188.56 128.31 189.00
  L 128.39 189.38
  A 0.95 0.95 0.0 0 0 129.28 190.12
  Q 137.21 190.44 144.99 190.51
  C 146.62 190.52 147.96 191.26 149.59 190.91
  Q 151.23 190.55 152.85 190.58
  Q 168.62 190.84 185.44 190.51
  A 1.65 1.65 0.0 0 1 187.12 192.21
  L 186.74 206.75
  A 0.48 0.48 0.0 0 0 187.22 207.24
  L 187.70 207.23
  Q 188.53 207.22 188.52 206.39
  L 188.36 191.46
  Q 188.35 190.30 189.51 190.25
  C 190.96 190.19 192.53 190.54 193.85 190.54
  Q 214.93 190.55 236.00 190.61
  C 242.08 190.63 242.49 187.19 242.50 182.46
  A 0.87 0.86 88.6 0 1 243.32 181.59
  L 250.33 181.20
  A 0.31 0.31 0.0 0 0 250.61 180.79
  L 250.48 180.42
  Q 250.23 179.66 249.43 179.68
  L 243.27 179.77
  A 1.00 0.99 -0.0 0 1 242.26 178.77
  L 242.28 168.81
  A 0.82 0.81 -88.0 0 1 243.15 167.99
  Q 250.05 168.45 257.62 167.76
  Q 257.88 167.74 257.87 167.48
  L 257.86 167.16
  Q 257.86 167.09 257.78 167.09
  Q 250.81 166.87 243.47 167.53
  A 1.44 1.44 0.0 0 1 241.90 165.98
  Q 242.74 156.11 242.45 146.80
  C 242.30 142.06 235.98 142.69 232.78 142.66
  Q 221.41 142.53 208.12 142.72
  A 3.39 3.38 -0.9 0 1 204.69 139.41
  C 204.57 134.35 204.41 129.49 204.74 124.40
  Q 205.16 117.68 204.64 111.43
  A 1.09 1.09 0.0 0 1 205.73 110.25
  L 243.72 110.28
  A 0.53 0.53 0.0 0 0 244.24 109.62
  C 239.19 89.10 230.92 69.97 219.08 52.85
  Q 215.00 46.95 211.14 41.59
  Q 208.55 37.99 205.41 36.07
  Q 200.59 33.11 196.15 35.07
  C 191.21 37.26 188.76 43.02 185.75 46.93
  Q 182.78 50.80 178.17 49.52
  C 173.58 48.24 169.42 40.83 164.51 42.46
  C 157.18 44.89 152.36 52.90 148.84 59.60
  Q 143.66 69.44 139.08 78.27
  C 133.91 88.22 131.91 98.17 130.70 109.07
  A 1.10 1.09 3.1 0 0 131.79 110.28
  Q 150.28 110.36 167.56 110.25
  C 169.91 110.24 172.21 111.08 174.47 110.36
  Q 175.26 110.11 175.98 110.39
  Q 176.95 110.77 176.70 112.03
  Z
  M 148.8132 187.4200
  A 1.86 0.38 89.9 0 0 149.1900 185.5593
  A 1.86 0.38 89.9 0 0 148.8068 183.7000
  A 1.86 0.38 89.9 0 0 148.4300 185.5607
  A 1.86 0.38 89.9 0 0 148.8132 187.4200
  Z
  M 138.32 261.85
  C 131.92 263.08 121.20 263.82 117.68 256.85
  C 114.77 251.08 115.36 241.32 116.40 235.38
  C 118.65 222.61 133.39 225.35 143.13 227.89
  Q 144.99 228.37 145.40 226.49
  L 145.49 226.07
  Q 146.07 223.41 143.45 222.67
  Q 132.87 219.66 123.41 221.15
  Q 113.20 222.75 110.76 233.18
  Q 108.86 241.32 110.27 252.53
  C 111.24 260.27 115.15 265.59 123.04 266.94
  Q 132.70 268.59 142.57 265.96
  C 144.83 265.35 145.09 262.77 145.12 260.86
  Q 145.29 251.24 145.09 241.62
  Q 145.07 240.75 144.20 240.74
  L 133.08 240.62
  Q 131.02 240.60 130.97 242.66
  L 130.96 243.37
  Q 130.91 245.33 132.86 245.60
  L 138.72 246.43
  Q 139.41 246.53 139.40 247.22
  L 139.20 260.79
  A 1.09 1.09 0.0 0 1 138.32 261.85
  Z
  M 161.12 239.11
  L 168.04 238.52
  Q 169.93 238.36 169.99 236.46
  L 170.01 235.50
  Q 170.06 233.76 168.31 233.76
  Q 161.73 233.75 156.18 236.05
  Q 154.19 236.88 154.16 239.06
  C 154.05 247.70 154.60 256.50 153.83 265.01
  Q 153.68 266.69 155.37 266.75
  L 157.95 266.83
  Q 159.53 266.87 159.53 265.29
  L 159.50 240.88
  A 1.78 1.77 87.5 0 1 161.12 239.11
  Z
  M 178.05 254.99
  Q 177.96 254.06 178.90 254.05
  L 198.54 254.01
  A 1.22 1.22 0.0 0 0 199.76 252.82
  C 199.90 246.49 200.24 237.09 192.50 234.66
  C 186.98 232.93 176.68 232.89 174.28 239.66
  C 171.62 247.14 170.43 263.39 180.50 266.56
  Q 187.95 268.91 196.51 266.17
  Q 198.05 265.67 198.03 264.05
  L 198.01 263.11
  Q 197.99 261.37 196.31 261.84
  Q 190.60 263.42 185.94 263.15
  Q 178.77 262.72 178.05 254.99
  Z
  M 211.09 254.72
  A 0.61 0.60 87.4 0 1 211.69 254.06
  L 231.66 253.97
  A 1.13 1.13 0.0 0 0 232.79 252.93
  Q 233.25 247.14 231.92 241.57
  C 230.01 233.57 220.40 232.84 213.76 234.43
  Q 208.53 235.69 206.95 240.80
  Q 204.77 247.82 206.12 256.75
  C 206.86 261.65 209.60 265.75 214.73 266.88
  Q 222.39 268.58 229.75 266.08
  Q 231.82 265.37 231.24 263.25
  Q 231.02 262.47 230.23 261.98
  A 1.63 1.63 0.0 0 0 228.88 261.82
  C 221.63 264.15 211.99 264.89 211.09 254.72
  Z
  M 259.74 239.59
  Q 260.59 242.02 260.59 244.54
  Q 260.58 255.74 260.69 266.09
  Q 260.70 266.90 261.51 266.92
  L 264.84 266.96
  A 1.15 1.14 1.0 0 0 266.00 265.85
  Q 266.27 255.39 266.15 245.72
  C 266.07 239.64 265.99 234.09 258.00 233.78
  Q 249.23 233.44 241.44 236.47
  A 1.75 1.75 0.0 0 0 240.32 238.09
  L 240.14 265.81
  Q 240.13 266.74 241.06 266.75
  L 244.46 266.79
  Q 245.72 266.81 245.72 265.54
  L 245.72 241.06
  Q 245.72 239.40 247.35 239.07
  C 251.06 238.33 255.36 237.74 258.98 238.85
  Q 259.55 239.03 259.74 239.59
  Z
  M 280.0325 279.0330
  A 1.26 1.26 0.0 0 0 278.7507 277.7952
  L 275.8312 277.8462
  A 1.26 1.26 0.0 0 0 274.5933 279.1280
  L 274.7075 285.6670
  A 1.26 1.26 0.0 0 0 275.9893 286.9048
  L 278.9088 286.8538
  A 1.26 1.26 0.0 0 0 280.1467 285.5720
  L 280.0325 279.0330
  Z
  M 84.60 308.81
  Q 84.11 309.00 83.96 308.49
  L 75.68 279.40
  A 0.93 0.92 -7.9 0 0 74.79 278.73
  L 63.97 278.78
  A 0.50 0.50 0.0 0 0 63.47 279.24
  L 60.08 323.44
  Q 60.04 324.09 60.68 324.06
  L 64.77 323.91
  A 1.01 1.00 -88.7 0 0 65.73 322.98
  L 68.65 284.50
  A 0.99 0.99 0.0 0 1 70.22 283.78
  Q 71.20 284.49 71.57 285.72
  Q 75.68 299.55 80.52 314.95
  A 0.77 0.76 81.2 0 0 81.25 315.49
  L 87.24 315.50
  A 1.06 1.05 -80.8 0 0 88.24 314.77
  L 97.97 284.45
  A 1.09 1.09 0.0 0 1 99.86 284.11
  Q 100.39 284.77 100.48 286.00
  Q 101.91 304.98 103.52 323.26
  Q 103.59 324.03 104.36 324.02
  L 108.52 323.97
  Q 109.38 323.96 109.31 323.10
  L 105.77 279.95
  A 1.32 1.31 87.4 0 0 104.45 278.74
  L 95.06 278.79
  A 1.50 1.50 0.0 0 0 93.63 279.87
  Q 89.20 294.94 85.18 308.19
  Q 85.05 308.64 84.60 308.81
  Z
  M 224.26 296.81
  Q 224.25 296.26 224.80 296.26
  L 233.25 296.24
  Q 234.99 296.24 234.99 294.50
  L 234.99 293.66
  Q 234.99 291.83 233.16 291.81
  L 225.00 291.70
  A 0.68 0.68 0.0 0 1 224.33 291.01
  L 224.54 282.70
  Q 224.59 280.46 222.44 281.08
  L 220.49 281.64
  A 2.08 2.07 -8.0 0 0 218.98 283.63
  Q 218.98 299.51 219.09 315.08
  C 219.11 317.66 219.18 321.12 221.43 322.84
  C 224.97 325.55 230.11 324.99 234.13 323.93
  A 1.90 1.89 -9.2 0 0 235.54 321.99
  Q 235.52 321.73 235.46 321.48
  Q 234.95 319.53 232.96 319.89
  C 229.97 320.42 224.42 321.20 224.44 317.28
  Q 224.50 306.90 224.26 296.81
  Z
  M 143.9791 302.7439
  A 11.56 11.56 0.0 0 0 132.4392 291.1637
  L 128.1793 291.1563
  A 11.56 11.56 0.0 0 0 116.5991 302.6961
  L 116.5809 313.0961
  A 11.56 11.56 0.0 0 0 128.1208 324.6763
  L 132.3807 324.6837
  A 11.56 11.56 0.0 0 0 143.9609 313.1439
  L 143.9791 302.7439
  Z
  M 156.11 306.81
  Q 156.42 300.09 156.20 292.66
  Q 156.15 290.85 154.38 291.20
  L 152.52 291.57
  Q 150.86 291.89 150.86 293.59
  Q 150.86 304.07 150.99 314.41
  Q 151.03 318.10 152.91 320.91
  C 155.91 325.39 164.49 325.29 169.01 324.28
  C 175.37 322.85 176.80 317.81 176.67 312.02
  Q 176.44 301.42 176.72 292.18
  Q 176.76 290.86 175.48 291.18
  L 172.31 291.99
  Q 171.15 292.28 171.17 293.48
  Q 171.37 304.36 171.25 314.67
  Q 171.19 319.67 166.02 320.42
  C 162.73 320.89 157.43 320.71 156.64 316.38
  Q 155.87 312.11 156.11 306.81
  Z
  M 190.63 297.01
  Q 190.99 296.57 191.55 296.48
  Q 195.25 295.90 198.82 295.34
  Q 202.38 294.78 204.62 296.87
  A 1.52 1.47 -72.8 0 1 205.07 297.76
  Q 205.47 300.84 205.49 303.88
  Q 205.59 316.39 205.32 322.77
  A 1.24 1.23 1.6 0 0 206.55 324.06
  L 209.71 324.06
  Q 210.90 324.06 210.88 322.86
  Q 210.66 312.19 210.77 299.70
  Q 210.83 292.85 205.41 291.69
  Q 198.56 290.23 188.31 292.93
  C 186.05 293.52 184.89 295.11 184.95 297.50
  Q 185.18 307.77 184.87 322.55
  Q 184.84 324.06 186.35 324.09
  L 188.92 324.15
  Q 190.28 324.18 190.28 322.82
  L 190.28 297.99
  Q 190.28 297.43 190.63 297.01
  Z
  M 259.84 302.61
  A 1.27 1.25 4.0 0 1 258.82 303.48
  Q 252.46 304.40 246.38 305.58
  Q 241.14 306.61 239.97 311.00
  C 238.88 315.07 239.70 321.42 244.13 323.42
  C 249.32 325.76 256.66 324.91 262.09 323.69
  C 265.46 322.93 265.46 319.84 265.50 317.04
  Q 265.61 307.66 265.47 298.70
  Q 265.37 292.24 258.95 291.45
  Q 250.46 290.40 242.28 292.73
  A 1.45 1.44 -8.0 0 0 241.23 294.12
  L 241.24 296.05
  A 1.30 1.30 0.0 0 0 242.92 297.29
  Q 250.82 294.93 258.20 296.35
  A 2.30 2.29 -2.3 0 1 259.98 297.99
  Q 260.60 300.21 259.84 302.61
  Z
  M 295.05 297.17
  Q 295.52 296.56 296.21 296.41
  Q 301.71 295.24 306.29 295.58
  Q 309.69 295.83 309.79 299.24
  Q 310.16 310.89 309.88 323.11
  Q 309.85 324.10 310.84 324.04
  L 314.47 323.82
  Q 315.43 323.76 315.40 322.80
  Q 315.11 313.78 315.29 302.63
  Q 315.36 297.93 314.31 295.07
  C 311.85 288.40 296.25 291.74 291.67 293.43
  Q 289.43 294.26 289.45 296.75
  Q 289.56 309.00 289.33 322.55
  Q 289.31 324.25 291.00 324.18
  L 293.13 324.08
  Q 294.76 324.02 294.76 322.38
  L 294.74 298.07
  A 1.48 1.46 -26.6 0 1 295.05 297.17
  Z
  M 280.03 292.78
  A 0.75 0.75 0.0 0 0 279.28 292.03
  L 275.46 292.03
  A 0.75 0.75 0.0 0 0 274.71 292.78
  L 274.71 323.18
  A 0.75 0.75 0.0 0 0 275.46 323.93
  L 279.28 323.93
  A 0.75 0.75 0.0 0 0 280.03 323.18
  L 280.03 292.78
  Z"
/>
<path fill="#1f4c35" d="
  M 133.61 180.11
  Q 134.58 179.08 135.81 179.38
  Q 139.93 179.93 144.11 179.78
  Q 150.93 179.54 152.40 179.58
  Q 165.97 179.89 179.54 179.66
  L 188.28 179.23
  C 189.09 179.42 189.51 179.66 190.34 179.66
  Q 215.22 179.58 240.00 179.74
  A 0.71 0.71 0.0 0 0 240.71 179.10
  Q 241.21 174.10 240.87 169.35
  Q 240.47 163.70 240.68 160.08
  Q 241.02 153.86 240.94 146.84
  Q 240.91 144.64 238.71 144.56
  Q 225.04 144.00 210.24 144.27
  Q 207.53 144.32 205.16 143.56
  Q 204.58 143.38 204.25 142.87
  C 202.22 139.72 203.05 135.44 202.76 131.76
  Q 202.56 129.31 202.75 126.68
  Q 203.30 119.10 202.96 111.21
  A 1.12 1.12 0.0 0 0 201.66 110.16
  Q 199.24 110.56 196.80 110.33
  C 195.13 110.17 193.68 111.14 192.13 110.53
  Q 191.11 110.13 190.02 110.23
  Q 188.27 110.38 188.33 111.71
  Q 188.47 112.25 188.00 112.35
  Q 187.28 112.51 186.73 112.04
  Q 186.82 110.67 186.04 110.29
  A 1.82 1.82 0.0 0 0 183.41 111.92
  Q 183.38 117.75 183.36 124.01
  Q 183.33 128.51 178.30 130.34
  Q 177.56 130.38 177.64 133.27
  Q 177.66 133.93 177.38 133.33
  Q 177.05 132.62 177.21 131.83
  Q 177.22 131.78 177.19 131.74
  Q 177.14 131.69 177.08 131.71
  Q 176.98 131.76 176.98 131.87
  Q 176.95 132.92 176.76 133.99
  Q 177.10 131.70 176.44 130.76
  Q 175.02 129.24 178.53 128.07
  Q 181.43 126.61 181.42 124.63
  Q 181.41 117.98 181.64 111.27
  Q 181.66 110.77 181.18 110.59
  Q 179.51 109.95 177.77 111.00
  L 177.52 111.80
  Q 177.39 112.18 177.00 112.12
  Q 176.86 112.09 176.70 112.03
  Q 176.95 110.77 175.98 110.39
  Q 175.26 110.11 174.47 110.36
  C 172.21 111.08 169.91 110.24 167.56 110.25
  Q 150.28 110.36 131.79 110.28
  A 1.10 1.09 3.1 0 1 130.70 109.07
  C 131.91 98.17 133.91 88.22 139.08 78.27
  Q 143.66 69.44 148.84 59.60
  C 152.36 52.90 157.18 44.89 164.51 42.46
  C 169.42 40.83 173.58 48.24 178.17 49.52
  Q 182.78 50.80 185.75 46.93
  C 188.76 43.02 191.21 37.26 196.15 35.07
  Q 200.59 33.11 205.41 36.07
  Q 208.55 37.99 211.14 41.59
  Q 215.00 46.95 219.08 52.85
  C 230.92 69.97 239.19 89.10 244.24 109.62
  A 0.53 0.53 0.0 0 1 243.72 110.28
  L 205.73 110.25
  A 1.09 1.09 0.0 0 0 204.64 111.43
  Q 205.16 117.68 204.74 124.40
  C 204.41 129.49 204.57 134.35 204.69 139.41
  A 3.39 3.38 -0.9 0 0 208.12 142.72
  Q 221.41 142.53 232.78 142.66
  C 235.98 142.69 242.30 142.06 242.45 146.80
  Q 242.74 156.11 241.90 165.98
  A 1.44 1.44 0.0 0 0 243.47 167.53
  Q 250.81 166.87 257.78 167.09
  Q 257.86 167.09 257.86 167.16
  L 257.87 167.48
  Q 257.88 167.74 257.62 167.76
  Q 250.05 168.45 243.15 167.99
  A 0.82 0.81 -88.0 0 0 242.28 168.81
  L 242.26 178.77
  A 1.00 0.99 -0.0 0 0 243.27 179.77
  L 249.43 179.68
  Q 250.23 179.66 250.48 180.42
  L 250.61 180.79
  A 0.31 0.31 0.0 0 1 250.33 181.20
  L 243.32 181.59
  A 0.87 0.86 88.6 0 0 242.50 182.46
  C 242.49 187.19 242.08 190.63 236.00 190.61
  Q 214.93 190.55 193.85 190.54
  C 192.53 190.54 190.96 190.19 189.51 190.25
  Q 188.35 190.30 188.36 191.46
  L 188.52 206.39
  Q 188.53 207.22 187.70 207.23
  L 187.22 207.24
  A 0.48 0.48 0.0 0 1 186.74 206.75
  L 187.12 192.21
  A 1.65 1.65 0.0 0 0 185.44 190.51
  Q 168.62 190.84 152.85 190.58
  Q 151.23 190.55 149.59 190.91
  C 147.96 191.26 146.62 190.52 144.99 190.51
  Q 137.21 190.44 129.28 190.12
  A 0.95 0.95 0.0 0 1 128.39 189.38
  L 128.31 189.00
  Q 128.21 188.56 128.67 188.57
  Q 141.28 189.11 148.00 189.05
  Q 167.17 188.86 185.81 189.08
  A 1.08 1.08 0.0 0 0 186.90 187.98
  L 186.80 182.29
  Q 186.78 181.16 185.65 181.18
  Q 161.74 181.52 137.50 181.35
  Q 135.37 181.34 133.61 180.11
  Z
  M 240.8359 182.7841
  A 1.63 1.63 0.0 0 0 239.2031 181.1569
  L 189.8632 181.2431
  A 1.63 1.63 0.0 0 0 188.2360 182.8759
  L 188.2441 187.4959
  A 1.63 1.63 0.0 0 0 189.8769 189.1231
  L 239.2168 189.0369
  A 1.63 1.63 0.0 0 0 240.8440 187.4041
  L 240.8359 182.7841
  Z"
/>
<path fill="#ffffff" d="
  M 178.53 128.07
  L 177.96 127.92
  Q 177.43 127.78 177.44 127.24
  L 177.77 111.00
  Q 179.51 109.95 181.18 110.59
  Q 181.66 110.77 181.64 111.27
  Q 181.41 117.98 181.42 124.63
  Q 181.43 126.61 178.53 128.07
  Z"
/>
<path fill="#ffffff" d="
  M 186.73 112.04
  L 186.82 177.91
  A 1.71 1.71 0.0 0 1 185.12 179.62
  L 179.54 179.66
  Q 165.97 179.89 152.40 179.58
  Q 150.93 179.54 144.11 179.78
  Q 139.93 179.93 135.81 179.38
  Q 133.23 176.99 133.04 172.48
  Q 132.86 168.30 133.17 163.83
  Q 133.26 162.46 134.63 162.46
  L 146.85 162.49
  A 1.96 1.96 0.0 0 1 148.78 164.73
  Q 148.06 169.67 148.58 174.97
  Q 148.79 177.10 149.12 174.98
  Q 149.82 170.40 149.06 165.88
  Q 148.74 163.96 150.01 162.77
  Q 150.35 162.46 150.81 162.46
  Q 161.25 162.44 171.69 162.35
  Q 176.69 162.31 177.82 157.53
  Q 178.22 155.88 178.20 155.00
  Q 177.96 142.61 178.30 130.34
  Q 183.33 128.51 183.36 124.01
  Q 183.38 117.75 183.41 111.92
  A 1.82 1.82 0.0 0 1 186.04 110.29
  Q 186.82 110.67 186.73 112.04
  Z"
/>
<path fill="#ffffff" d="
  M 188.28 179.23
  L 188.33 111.71
  Q 188.27 110.38 190.02 110.23
  Q 191.11 110.13 192.13 110.53
  C 193.68 111.14 195.13 110.17 196.80 110.33
  Q 199.24 110.56 201.66 110.16
  A 1.12 1.12 0.0 0 1 202.96 111.21
  Q 203.30 119.10 202.75 126.68
  Q 202.56 129.31 202.76 131.76
  C 203.05 135.44 202.22 139.72 204.25 142.87
  Q 204.58 143.38 205.16 143.56
  Q 207.53 144.32 210.24 144.27
  Q 225.04 144.00 238.71 144.56
  Q 240.91 144.64 240.94 146.84
  Q 241.02 153.86 240.68 160.08
  Q 240.47 163.70 240.87 169.35
  Q 241.21 174.10 240.71 179.10
  A 0.71 0.71 0.0 0 1 240.00 179.74
  Q 215.22 179.58 190.34 179.66
  C 189.51 179.66 189.09 179.42 188.28 179.23
  Z
  M 238.39 167.54
  Q 239.88 167.04 238.31 167.04
  Q 222.25 167.00 205.50 166.68
  Q 200.23 166.58 197.75 166.30
  C 194.48 165.92 193.94 161.65 193.91 158.90
  Q 193.85 150.69 193.53 142.68
  C 193.41 139.66 193.89 136.74 193.68 133.77
  Q 193.46 130.47 193.69 127.18
  Q 194.18 120.52 193.81 113.69
  Q 193.77 113.00 193.46 112.41
  Q 192.94 111.45 192.92 112.54
  Q 192.41 140.48 192.69 157.67
  C 192.74 160.48 192.64 165.88 196.31 166.86
  Q 199.05 167.61 201.44 167.70
  Q 215.20 168.26 235.37 168.02
  Q 236.98 168.00 238.39 167.54
  Z
  M 225.6605 175.5177
  A 1.71 0.41 93.0 0 0 226.1594 173.8315
  A 1.71 0.41 93.0 0 0 225.8395 172.1023
  A 1.71 0.41 93.0 0 0 225.3406 173.7885
  A 1.71 0.41 93.0 0 0 225.6605 175.5177
  Z"
/>
<path fill="#62726d" d="
  M 177.77 111.00
  L 177.44 127.24
  Q 177.43 127.78 177.96 127.92
  L 178.53 128.07
  Q 175.02 129.24 176.44 130.76
  Q 174.40 130.50 172.90 130.99
  Q 172.36 131.17 172.06 131.66
  Q 169.86 135.24 164.86 135.28
  Q 159.65 135.32 154.94 135.04
  C 150.22 134.76 149.04 138.46 149.07 142.50
  Q 149.15 150.63 149.25 159.42
  Q 149.26 160.81 150.65 160.80
  Q 159.58 160.73 170.93 160.76
  C 174.76 160.76 176.56 158.91 176.42 154.74
  Q 176.26 149.86 176.76 133.99
  Q 176.95 132.92 176.98 131.87
  Q 176.98 131.76 177.08 131.71
  Q 177.14 131.69 177.19 131.74
  Q 177.22 131.78 177.21 131.83
  Q 177.05 132.62 177.38 133.33
  Q 177.66 133.93 177.64 133.27
  Q 177.56 130.38 178.30 130.34
  Q 177.96 142.61 178.20 155.00
  Q 178.22 155.88 177.82 157.53
  Q 176.69 162.31 171.69 162.35
  Q 161.25 162.44 150.81 162.46
  Q 150.35 162.46 150.01 162.77
  Q 148.74 163.96 149.06 165.88
  Q 149.82 170.40 149.12 174.98
  Q 148.79 177.10 148.58 174.97
  Q 148.06 169.67 148.78 164.73
  A 1.96 1.96 0.0 0 0 146.85 162.49
  L 134.63 162.46
  Q 133.26 162.46 133.17 163.83
  Q 132.86 168.30 133.04 172.48
  Q 133.23 176.99 135.81 179.38
  Q 134.58 179.08 133.61 180.11
  Q 131.35 177.62 130.95 173.23
  Q 130.50 168.28 130.57 163.43
  A 1.09 1.09 0.0 0 0 129.54 162.32
  Q 123.58 162.00 117.82 162.81
  Q 117.18 162.90 116.85 162.35
  L 116.64 162.00
  A 0.64 0.64 0.0 0 1 117.18 161.03
  L 129.19 160.79
  A 1.27 1.27 0.0 0 0 130.43 159.56
  Q 130.76 149.53 130.41 138.58
  C 130.22 132.49 133.17 128.75 139.59 128.77
  Q 157.27 128.83 171.62 128.59
  A 0.58 0.58 0.0 0 0 172.19 127.95
  Q 171.53 120.59 172.23 113.17
  Q 172.26 112.92 172.51 112.95
  L 172.76 112.97
  Q 172.82 112.98 172.82 113.04
  Q 172.07 120.71 173.30 128.27
  Q 173.39 128.85 173.98 128.77
  L 176.17 128.48
  Q 176.66 128.41 176.67 127.92
  L 176.70 112.03
  Q 176.86 112.09 177.00 112.12
  Q 177.39 112.18 177.52 111.80
  L 177.77 111.00
  Z
  M 170.59 130.99
  A 0.43 0.42 7.2 0 0 170.13 130.40
  C 168.60 130.67 167.28 131.10 165.69 131.07
  Q 152.03 130.81 139.31 131.15
  Q 132.74 131.33 132.85 138.08
  Q 132.99 146.90 133.08 158.79
  Q 133.09 160.80 135.11 160.78
  L 147.91 160.66
  A 0.65 0.64 86.4 0 0 148.54 159.94
  Q 147.60 151.44 148.18 141.54
  C 148.37 138.27 149.29 134.25 153.38 134.28
  Q 159.47 134.31 165.72 134.41
  Q 169.07 134.46 170.59 130.99
  Z"
/>
<path fill="#62726d" d="
  M 188.33 111.71
  L 188.28 179.23
  L 179.54 179.66
  L 185.12 179.62
  A 1.71 1.71 0.0 0 0 186.82 177.91
  L 186.73 112.04
  Q 187.28 112.51 188.00 112.35
  Q 188.47 112.25 188.33 111.71
  Z"
/>
<path fill="#62726d" d="
  M 238.39 167.54
  Q 236.98 168.00 235.37 168.02
  Q 215.20 168.26 201.44 167.70
  Q 199.05 167.61 196.31 166.86
  C 192.64 165.88 192.74 160.48 192.69 157.67
  Q 192.41 140.48 192.92 112.54
  Q 192.94 111.45 193.46 112.41
  Q 193.77 113.00 193.81 113.69
  Q 194.18 120.52 193.69 127.18
  Q 193.46 130.47 193.68 133.77
  C 193.89 136.74 193.41 139.66 193.53 142.68
  Q 193.85 150.69 193.91 158.90
  C 193.94 161.65 194.48 165.92 197.75 166.30
  Q 200.23 166.58 205.50 166.68
  Q 222.25 167.00 238.31 167.04
  Q 239.88 167.04 238.39 167.54
  Z"
/>
<path fill="#ffffff" d="
  M 170.59 130.99
  Q 169.07 134.46 165.72 134.41
  Q 159.47 134.31 153.38 134.28
  C 149.29 134.25 148.37 138.27 148.18 141.54
  Q 147.60 151.44 148.54 159.94
  A 0.65 0.64 86.4 0 1 147.91 160.66
  L 135.11 160.78
  Q 133.09 160.80 133.08 158.79
  Q 132.99 146.90 132.85 138.08
  Q 132.74 131.33 139.31 131.15
  Q 152.03 130.81 165.69 131.07
  C 167.28 131.10 168.60 130.67 170.13 130.40
  A 0.43 0.42 7.2 0 1 170.59 130.99
  Z"
/>
<path fill="#ffffff" d="
  M 176.44 130.76
  Q 177.10 131.70 176.76 133.99
  Q 176.26 149.86 176.42 154.74
  C 176.56 158.91 174.76 160.76 170.93 160.76
  Q 159.58 160.73 150.65 160.80
  Q 149.26 160.81 149.25 159.42
  Q 149.15 150.63 149.07 142.50
  C 149.04 138.46 150.22 134.76 154.94 135.04
  Q 159.65 135.32 164.86 135.28
  Q 169.86 135.24 172.06 131.66
  Q 172.36 131.17 172.90 130.99
  Q 174.40 130.50 176.44 130.76
  Z"
/>
<ellipse fill="#62726d" cx="0.00" cy="0.00" transform="translate(225.75,173.81) rotate(93.0)" rx="1.71" ry="0.41"/>
<rect fill="#ffffff" x="-26.30" y="-3.94" transform="translate(214.54,185.14) rotate(-0.1)" width="52.60" height="7.88" rx="1.63"/>
<ellipse fill="#62726d" cx="0.00" cy="0.00" transform="translate(148.81,185.56) rotate(89.9)" rx="1.86" ry="0.38"/>
<path fill="#111111" d="
  M 138.32 261.85
  A 1.09 1.09 0.0 0 0 139.20 260.79
  L 139.40 247.22
  Q 139.41 246.53 138.72 246.43
  L 132.86 245.60
  Q 130.91 245.33 130.96 243.37
  L 130.97 242.66
  Q 131.02 240.60 133.08 240.62
  L 144.20 240.74
  Q 145.07 240.75 145.09 241.62
  Q 145.29 251.24 145.12 260.86
  C 145.09 262.77 144.83 265.35 142.57 265.96
  Q 132.70 268.59 123.04 266.94
  C 115.15 265.59 111.24 260.27 110.27 252.53
  Q 108.86 241.32 110.76 233.18
  Q 113.20 222.75 123.41 221.15
  Q 132.87 219.66 143.45 222.67
  Q 146.07 223.41 145.49 226.07
  L 145.40 226.49
  Q 144.99 228.37 143.13 227.89
  C 133.39 225.35 118.65 222.61 116.40 235.38
  C 115.36 241.32 114.77 251.08 117.68 256.85
  C 121.20 263.82 131.92 263.08 138.32 261.85
  Z"
/>
<path fill="#111111" d="
  M 161.12 239.11
  A 1.78 1.77 87.5 0 0 159.50 240.88
  L 159.53 265.29
  Q 159.53 266.87 157.95 266.83
  L 155.37 266.75
  Q 153.68 266.69 153.83 265.01
  C 154.60 256.50 154.05 247.70 154.16 239.06
  Q 154.19 236.88 156.18 236.05
  Q 161.73 233.75 168.31 233.76
  Q 170.06 233.76 170.01 235.50
  L 169.99 236.46
  Q 169.93 238.36 168.04 238.52
  L 161.12 239.11
  Z"
/>
<path fill="#111111" d="
  M 178.05 254.99
  Q 178.77 262.72 185.94 263.15
  Q 190.60 263.42 196.31 261.84
  Q 197.99 261.37 198.01 263.11
  L 198.03 264.05
  Q 198.05 265.67 196.51 266.17
  Q 187.95 268.91 180.50 266.56
  C 170.43 263.39 171.62 247.14 174.28 239.66
  C 176.68 232.89 186.98 232.93 192.50 234.66
  C 200.24 237.09 199.90 246.49 199.76 252.82
  A 1.22 1.22 0.0 0 1 198.54 254.01
  L 178.90 254.05
  Q 177.96 254.06 178.05 254.99
  Z
  M 178.66 249.50
  L 193.72 249.48
  A 0.29 0.29 0.0 0 0 194.01 249.19
  L 194.00 245.89
  A 7.61 6.50 89.9 0 0 187.49 238.29
  L 184.85 238.29
  A 7.61 6.50 89.9 0 0 178.36 245.91
  L 178.37 249.21
  A 0.29 0.29 0.0 0 0 178.66 249.50
  Z"
/>
<path fill="#111111" d="
  M 211.09 254.72
  C 211.99 264.89 221.63 264.15 228.88 261.82
  A 1.63 1.63 0.0 0 1 230.23 261.98
  Q 231.02 262.47 231.24 263.25
  Q 231.82 265.37 229.75 266.08
  Q 222.39 268.58 214.73 266.88
  C 209.60 265.75 206.86 261.65 206.12 256.75
  Q 204.77 247.82 206.95 240.80
  Q 208.53 235.69 213.76 234.43
  C 220.40 232.84 230.01 233.57 231.92 241.57
  Q 233.25 247.14 232.79 252.93
  A 1.13 1.13 0.0 0 1 231.66 253.97
  L 211.69 254.06
  A 0.61 0.60 87.4 0 0 211.09 254.72
  Z
  M 211.72 249.64
  L 226.86 249.46
  A 0.26 0.26 0.0 0 0 227.11 249.19
  L 227.07 245.98
  A 7.65 5.70 89.3 0 0 221.28 238.40
  L 217.02 238.46
  A 7.65 5.70 89.3 0 0 211.42 246.18
  L 211.46 249.39
  A 0.26 0.26 0.0 0 0 211.72 249.64
  Z"
/>
<path fill="#111111" d="
  M 258.98 238.85
  C 255.36 237.74 251.06 238.33 247.35 239.07
  Q 245.72 239.40 245.72 241.06
  L 245.72 265.54
  Q 245.72 266.81 244.46 266.79
  L 241.06 266.75
  Q 240.13 266.74 240.14 265.81
  L 240.32 238.09
  A 1.75 1.75 0.0 0 1 241.44 236.47
  Q 249.23 233.44 258.00 233.78
  C 265.99 234.09 266.07 239.64 266.15 245.72
  Q 266.27 255.39 266.00 265.85
  A 1.15 1.14 1.0 0 1 264.84 266.96
  L 261.51 266.92
  Q 260.70 266.90 260.69 266.09
  Q 260.58 255.74 260.59 244.54
  Q 260.59 242.02 259.74 239.59
  Q 259.55 239.03 258.98 238.85
  Z"
/>
<path fill="#ffffff" d="
  M 178.66 249.50
  A 0.29 0.29 0.0 0 1 178.37 249.21
  L 178.36 245.91
  A 7.61 6.50 89.9 0 1 184.85 238.29
  L 187.49 238.29
  A 7.61 6.50 89.9 0 1 194.00 245.89
  L 194.01 249.19
  A 0.29 0.29 0.0 0 1 193.72 249.48
  L 178.66 249.50
  Z"
/>
<path fill="#ffffff" d="
  M 211.72 249.64
  A 0.26 0.26 0.0 0 1 211.46 249.39
  L 211.42 246.18
  A 7.65 5.70 89.3 0 1 217.02 238.46
  L 221.28 238.40
  A 7.65 5.70 89.3 0 1 227.07 245.98
  L 227.11 249.19
  A 0.26 0.26 0.0 0 1 226.86 249.46
  L 211.72 249.64
  Z"
/>
<rect fill="#111111" x="-2.72" y="-4.53" transform="translate(277.37,282.35) rotate(-1.0)" width="5.44" height="9.06" rx="1.26"/>
<path fill="#111111" d="
  M 84.60 308.81
  Q 85.05 308.64 85.18 308.19
  Q 89.20 294.94 93.63 279.87
  A 1.50 1.50 0.0 0 1 95.06 278.79
  L 104.45 278.74
  A 1.32 1.31 87.4 0 1 105.77 279.95
  L 109.31 323.10
  Q 109.38 323.96 108.52 323.97
  L 104.36 324.02
  Q 103.59 324.03 103.52 323.26
  Q 101.91 304.98 100.48 286.00
  Q 100.39 284.77 99.86 284.11
  A 1.09 1.09 0.0 0 0 97.97 284.45
  L 88.24 314.77
  A 1.06 1.05 -80.8 0 1 87.24 315.50
  L 81.25 315.49
  A 0.77 0.76 81.2 0 1 80.52 314.95
  Q 75.68 299.55 71.57 285.72
  Q 71.20 284.49 70.22 283.78
  A 0.99 0.99 0.0 0 0 68.65 284.50
  L 65.73 322.98
  A 1.01 1.00 -88.7 0 1 64.77 323.91
  L 60.68 324.06
  Q 60.04 324.09 60.08 323.44
  L 63.47 279.24
  A 0.50 0.50 0.0 0 1 63.97 278.78
  L 74.79 278.73
  A 0.93 0.92 -7.9 0 1 75.68 279.40
  L 83.96 308.49
  Q 84.11 309.00 84.60 308.81
  Z"
/>
<path fill="#111111" d="
  M 224.26 296.81
  Q 224.50 306.90 224.44 317.28
  C 224.42 321.20 229.97 320.42 232.96 319.89
  Q 234.95 319.53 235.46 321.48
  Q 235.52 321.73 235.54 321.99
  A 1.90 1.89 -9.2 0 1 234.13 323.93
  C 230.11 324.99 224.97 325.55 221.43 322.84
  C 219.18 321.12 219.11 317.66 219.09 315.08
  Q 218.98 299.51 218.98 283.63
  A 2.08 2.07 -8.0 0 1 220.49 281.64
  L 222.44 281.08
  Q 224.59 280.46 224.54 282.70
  L 224.33 291.01
  A 0.68 0.68 0.0 0 0 225.00 291.70
  L 233.16 291.81
  Q 234.99 291.83 234.99 293.66
  L 234.99 294.50
  Q 234.99 296.24 233.25 296.24
  L 224.80 296.26
  Q 224.25 296.26 224.26 296.81
  Z"
/>
<path fill="#111111" d="
  M 143.9609 313.1439
  A 11.56 11.56 0.0 0 1 132.3807 324.6837
  L 128.1208 324.6763
  A 11.56 11.56 0.0 0 1 116.5809 313.0961
  L 116.5991 302.6961
  A 11.56 11.56 0.0 0 1 128.1793 291.1563
  L 132.4392 291.1637
  A 11.56 11.56 0.0 0 1 143.9791 302.7439
  L 143.9609 313.1439
  Z
  M 138.3684 302.5320
  A 6.82 6.82 0.0 0 0 131.5842 295.6763
  L 129.2243 295.6640
  A 6.82 6.82 0.0 0 0 122.3686 302.4482
  L 122.3116 313.3480
  A 6.82 6.82 0.0 0 0 129.0958 320.2037
  L 131.4557 320.2160
  A 6.82 6.82 0.0 0 0 138.3114 313.4318
  L 138.3684 302.5320
  Z"
/>
<path fill="#111111" d="
  M 156.11 306.81
  Q 155.87 312.11 156.64 316.38
  C 157.43 320.71 162.73 320.89 166.02 320.42
  Q 171.19 319.67 171.25 314.67
  Q 171.37 304.36 171.17 293.48
  Q 171.15 292.28 172.31 291.99
  L 175.48 291.18
  Q 176.76 290.86 176.72 292.18
  Q 176.44 301.42 176.67 312.02
  C 176.80 317.81 175.37 322.85 169.01 324.28
  C 164.49 325.29 155.91 325.39 152.91 320.91
  Q 151.03 318.10 150.99 314.41
  Q 150.86 304.07 150.86 293.59
  Q 150.86 291.89 152.52 291.57
  L 154.38 291.20
  Q 156.15 290.85 156.20 292.66
  Q 156.42 300.09 156.11 306.81
  Z"
/>
<path fill="#111111" d="
  M 190.63 297.01
  Q 190.28 297.43 190.28 297.99
  L 190.28 322.82
  Q 190.28 324.18 188.92 324.15
  L 186.35 324.09
  Q 184.84 324.06 184.87 322.55
  Q 185.18 307.77 184.95 297.50
  C 184.89 295.11 186.05 293.52 188.31 292.93
  Q 198.56 290.23 205.41 291.69
  Q 210.83 292.85 210.77 299.70
  Q 210.66 312.19 210.88 322.86
  Q 210.90 324.06 209.71 324.06
  L 206.55 324.06
  A 1.24 1.23 1.6 0 1 205.32 322.77
  Q 205.59 316.39 205.49 303.88
  Q 205.47 300.84 205.07 297.76
  A 1.52 1.47 -72.8 0 0 204.62 296.87
  Q 202.38 294.78 198.82 295.34
  Q 195.25 295.90 191.55 296.48
  Q 190.99 296.57 190.63 297.01
  Z"
/>
<path fill="#111111" d="
  M 259.84 302.61
  Q 260.60 300.21 259.98 297.99
  A 2.30 2.29 -2.3 0 0 258.20 296.35
  Q 250.82 294.93 242.92 297.29
  A 1.30 1.30 0.0 0 1 241.24 296.05
  L 241.23 294.12
  A 1.45 1.44 -8.0 0 1 242.28 292.73
  Q 250.46 290.40 258.95 291.45
  Q 265.37 292.24 265.47 298.70
  Q 265.61 307.66 265.50 317.04
  C 265.46 319.84 265.46 322.93 262.09 323.69
  C 256.66 324.91 249.32 325.76 244.13 323.42
  C 239.70 321.42 238.88 315.07 239.97 311.00
  Q 241.14 306.61 246.38 305.58
  Q 252.46 304.40 258.82 303.48
  A 1.27 1.25 4.0 0 0 259.84 302.61
  Z
  M 260.62 319.77
  L 259.84 308.33
  A 0.22 0.22 0.0 0 0 259.61 308.13
  L 252.40 308.62
  A 7.53 4.65 -3.9 0 0 245.20 313.77
  L 245.38 316.37
  A 7.53 4.65 -3.9 0 0 253.20 320.49
  L 260.42 320.00
  A 0.22 0.22 0.0 0 0 260.62 319.77
  Z"
/>
<path fill="#111111" d="
  M 295.05 297.17
  A 1.48 1.46 -26.6 0 0 294.74 298.07
  L 294.76 322.38
  Q 294.76 324.02 293.13 324.08
  L 291.00 324.18
  Q 289.31 324.25 289.33 322.55
  Q 289.56 309.00 289.45 296.75
  Q 289.43 294.26 291.67 293.43
  C 296.25 291.74 311.85 288.40 314.31 295.07
  Q 315.36 297.93 315.29 302.63
  Q 315.11 313.78 315.40 322.80
  Q 315.43 323.76 314.47 323.82
  L 310.84 324.04
  Q 309.85 324.10 309.88 323.11
  Q 310.16 310.89 309.79 299.24
  Q 309.69 295.83 306.29 295.58
  Q 301.71 295.24 296.21 296.41
  Q 295.52 296.56 295.05 297.17
  Z"
/>
<rect fill="#111111" x="274.71" y="292.03" width="5.32" height="31.90" rx="0.75"/>
<rect fill="#ffffff" x="-8.00" y="-12.27" transform="translate(130.34,307.94) rotate(0.3)" width="16.00" height="24.54" rx="6.82"/>
<path fill="#ffffff" d="
  M 260.62 319.77
  A 0.22 0.22 0.0 0 1 260.42 320.00
  L 253.20 320.49
  A 7.53 4.65 -3.9 0 1 245.38 316.37
  L 245.20 313.77
  A 7.53 4.65 -3.9 0 1 252.40 308.62
  L 259.61 308.13
  A 0.22 0.22 0.0 0 1 259.84 308.33
  L 260.62 319.77
  Z"
/>
</svg>

