

<?xml version="1.0" encoding="utf-8"?>
<!-- Generator: Adobe Illustrator 26.0.3, SVG Export Plug-In . SVG Version: 6.00 Build 0)  -->
<svg version="1.0" id="katman_1" xmlns="http://www.w3.org/2000/svg" xmlns:xlink="http://www.w3.org/1999/xlink" x="0px" y="0px"
	 viewBox="0 0 800 600" style="enable-background:new 0 0 800 600;" xml:space="preserve">
<style type="text/css">
	.st0{fill:url(#SVGID_1_);}
	.st1{fill:#1D1D1B;}
</style>
<g transform="translate(-140 -59) translate(140 59)">

		<linearGradient id="SVGID_1_" gradientUnits="userSpaceOnUse" x1="25.8721" y1="561.0472" x2="44.078" y2="561.0472" gradientTransform="matrix(5.5861 0 0 -7.1537 -24.9153 4313.1455)">
		<stop  offset="0" style="stop-color:#41BCDF"/>
		<stop  offset="0.331" style="stop-color:#50BCC3"/>
		<stop  offset="1" style="stop-color:#74BD82"/>
	</linearGradient>
	<path class="st0" d="M148.6,364.7c-3.2,0.1-6.3-0.6-9.2-1.9c-5-2.4-10.7-8.4-8.7-23c0.9-4.3,2.2-8.6,3.7-12.7
		c-5-1.4-9.1-4.9-11.3-9.5c-5.8-11.4-3.1-28.3-0.9-37.4c3.3-14.3,9.4-27.8,16.3-36.2c7.9-9.7,14.9-10.2,19.4-9
		c2.4,0.7,4.4,2.3,5.5,4.6c5.8,11-3.6,41.7-16,78.3c10.7-1.8,18.8-6.2,27.9-11.1c4.6-2.5,9.4-5.1,14.9-7.6c18.3-8.3,26-1.1,28.4,2.4
		c5.7,8.2,2.5,21.7-7.6,32.1C203.6,341.1,170.3,364.7,148.6,364.7z M144,327.6c-1.6,4.4-3,8.9-4.2,13.5c-1,7.3,0.3,11.9,3.6,13.5
		c5.4,2.6,17.1-0.2,31.4-7.4c12.6-6.4,24.9-15.1,29.5-19.8c7.5-7.8,9.3-16.6,6.7-20.4c-2.3-3.3-8.9-3.1-17.1,0.7
		c-5.2,2.4-9.9,4.9-14.3,7.3C168.8,320.7,158.7,326.2,144,327.6z M154.3,243.7c-3.4,0-7.2,4.2-8.8,6.1c-12,14.7-21.4,49.5-14.3,63.6
		c1.1,2.5,3.3,4.4,6,5c4.5-13.1,10.5-30.9,14.5-46.1c5.9-22.7,3.8-27.7,3.3-28.5C154.9,243.7,154.6,243.7,154.3,243.7z"/>
	<path class="st1" d="M248.3,336v-65.1h7.5V336H248.3z"/>
	<path class="st1" d="M292.4,336v-58.7h-22.7v-6.4h53v6.4h-22.7V336L292.4,336z"/>
	<path class="st1" d="M386.4,336h-3.9l-8-21.7c-0.7-2.6-2.4-4.9-4.6-6.4c-2.7-1.2-5.6-1.8-8.6-1.6h-20.2V336h-3.8v-65.1h24.2
		c6.7,0,11.9,1.5,15.5,4.5s5.5,7.4,5.5,13c0.1,3.8-1,7.5-3.3,10.5c-2.4,2.9-5.8,5-9.5,5.9c1.8,0.3,3.5,1.1,4.8,2.4
		c1.5,1.6,2.7,3.6,3.3,5.7L386.4,336z M361.7,302.7c5.5,0,9.7-1.2,12.6-3.7c2.8-2.4,4.3-6,4.3-10.7c0-9.3-5.6-13.9-16.8-13.9h-20.5
		v28.3L361.7,302.7z"/>
	<path class="st1" d="M404.7,336v-65.1h39.1v3.6h-35.3v26.7H442v3.7h-33.5v27.6h35.3v3.6H404.7z"/>
	<path class="st1" d="M509,270.9h3.6V336h-3.1l-43.2-58.6V336h-3.6v-65.1h3.2l43.1,58.4V270.9z"/>
	<path class="st1" d="M535,336v-65.1h39.1v3.6h-35.3v26.7h33.5v3.7h-33.5v27.6h35.3v3.6H535z"/>
	<path class="st1" d="M676.2,270.9h3.9L657.6,336H654l-20.5-58.8L612.9,336h-3.5l-22.6-65.1h3.8l20.5,59.6l20.6-59.6l3.4,0.1
		l20.5,59.5L676.2,270.9z"/>
</g>
</svg>

