<?xml version="1.0" encoding="utf-8"?>
<!-- Generator: Adobe Illustrator 19.0.0, SVG Export Plug-In . SVG Version: 6.00 Build 0)  -->
<svg version="1.1" id="layer" xmlns="http://www.w3.org/2000/svg" xmlns:xlink="http://www.w3.org/1999/xlink" x="0px" y="0px"
	 viewBox="-153 -46 652 652" style="enable-background:new -153 -46 652 652;" xml:space="preserve">
<style type="text/css">
	.st0{fill:#0068AD;}
</style>
<path class="st0" d="M-70.8,184.3l-18.3,90.9h55.5l-3.7,18.3h-78l22-109.1H-70.8z"/>
<path class="st0" d="M57.2,217.2L42,294.1H21.9l3.7-13.4h-0.6c-6.5,9.6-17.7,15-29.3,14c-18.9,0-26.2-8.5-23.2-26.2l10.4-51.8H3
	l-9.1,47c-1.2,6.7-1.2,11,0.6,12.8c3.3,2.4,7.5,3.5,11.6,3c12.8,0,20.7-7.3,23.2-21.3l8.5-42.1h19.5V217.2z"/>
<path class="st0" d="M51.1,294.1l22-109.8h20.1l-8.5,43.9h0.6c4.9-7.9,14.6-12.2,28.7-12.2c12.2,0,19.5,2.4,23.2,7.9
	c3.7,5.5,3.7,15.2,0.6,29.9c-3,15.9-7.3,26.8-13.4,32.3c-7.7,6.3-17.5,9.4-27.4,8.5c-12.8,0-20.7-4.3-22.6-12.8h-0.6l-1.8,12.2H51.1
	z M103.6,230.6c-12.8,0-20.7,7.3-23.8,22.6c-2.1,7.3-2.6,15-1.2,22.6c1.8,3,6.1,4.9,14,4.9c5.8,0.7,11.7-0.8,16.5-4.3
	c4.3-6.1,6.8-13.3,7.3-20.7c1.8-10.4,2.4-16.5,0.6-19.5C113.8,232.1,108.7,230,103.6,230.6z"/>
<path class="st0" d="M156,217.2h20.1l-3.7,11h0.6c5.9-7.9,15.2-12.4,25-12.2c14.6,0,20.1,8.5,16.5,25.6l-1.2,5.5h-18.9
	c0.5-1.4,0.9-2.8,1.2-4.3c1.8-7.9-1.2-12.2-7.9-12.2c-9.8,0-15.9,6.1-18.3,18.3l-9.1,45.1h-20.1L156,217.2z"/>
<path id="I" class="st0" d="M245.6,217.2l-15.2,76.8h-20.1l15.2-76.8H245.6z"/>
<path class="st0" d="M256.6,217.2h64.6l-3,15.9l-53.7,47h44.5l-3,14h-68.3l3-15.9l53-46.3h-40.2L256.6,217.2z"/>
<path class="st0" d="M365.8,216c15.9,0,26.2,2.4,29.9,7.3c3.7,4.9,4.3,14.6,1.2,29.9c-3.7,17.1-7.9,28-14,33.5s-16.5,7.9-32.3,7.9
	c-17.1,0-27.4-2.4-31.7-7.3c-4.3-4.9-4.3-15.9-1.2-32.3c3-16.5,7.9-26.8,13.4-31.7C338.3,218.4,349.3,216,365.8,216z M362.7,230.6
	c-8.5,0-14,1.2-16.5,4.3c-4.2,5.7-6.8,12.4-7.3,19.5c-2.1,7.1-2.6,14.6-1.2,22c1.8,3,6.7,4.3,15.2,4.3c5.9,0.8,11.9-1,16.5-4.9
	c3-3,5.5-10.4,7.9-22c1.7-6.2,1.9-12.6,0.6-18.9C376.1,231.9,371.2,230.6,362.7,230.6z"/>
<path class="st0" d="M441.4,184.3l-22,109.8h-20.1l22-109.8H441.4z"/>
<path class="st0" d="M-121.4,327c-0.6,0.1-1.3,0.3-1.8,0.6l-8.5,37.8c255.5-75,600-27.4,600-27.4C227.3,277-121.4,327-121.4,327z"/>
<path class="st0" d="M249.3,200.2c-0.5,2.7-2.8,4.7-5.5,4.9h-11c-2.2-0.1-3.8-1.9-3.8-4c0,0,0,0,0,0c0-0.3,0-0.6,0-0.9l2-11
	c0.5-2.7,2.8-4.7,5.5-4.9h11c2.2,0.1,3.8,1.9,3.8,4c0,0,0,0,0,0c0,0.3,0,0.6,0,0.9L249.3,200.2z"/>
</svg>

