<?xml version="1.0" encoding="UTF-8" standalone="no" ?>
<!DOCTYPE svg PUBLIC "-//W3C//DTD SVG 1.1//EN" "http://www.w3.org/Graphics/SVG/1.1/DTD/svg11.dtd">
<svg xmlns="http://www.w3.org/2000/svg" xmlns:xlink="http://www.w3.org/1999/xlink" version="1.1" width="500" height="115" viewBox="0 0 500 115" xml:space="preserve">
<desc>Created with Fabric.js 4.6.0</desc>
<defs>
</defs>
<g transform="matrix(0.72 0 0 0.72 250.27 55.88)" id="zU4xsHCTvnsJAUKRsJR8T"  >
<g style="" vector-effect="non-scaling-stroke"   >
		<g transform="matrix(1 0 0 1 -241.59 -6.07)" id="MM7KEWCVJGvZ-yu7h0t09"  >
<path style="stroke: none; stroke-width: 1; stroke-dasharray: none; stroke-linecap: butt; stroke-dashoffset: 0; stroke-linejoin: miter; stroke-miterlimit: 4; fill: rgb(245,62,0); fill-rule: nonzero; opacity: 1;" vector-effect="non-scaling-stroke"  transform=" translate(-78.41, -43.93)" d="M 156.81 27.51 L 141.44 0 L 115.17999999999999 26.88 L 100.17999999999999 0.019999999999999574 L 73.92 26.9 L 58.91 0.04 L 0 60.34 L 15.37 87.85000000000001 L 41.63 60.97000000000001 L 56.63 87.83000000000001 L 82.89 60.95000000000002 L 97.89 87.81000000000002 z" stroke-linecap="round" />
</g>
		<g transform="matrix(1 0 0 1 -100.98 0.92)" id="OzwHTGDZM7clDqF_0LGnz"  >
<path style="stroke: none; stroke-width: 1; stroke-dasharray: none; stroke-linecap: butt; stroke-dashoffset: 0; stroke-linejoin: miter; stroke-miterlimit: 4; fill: rgb(0,0,0); fill-rule: nonzero; opacity: 1;" vector-effect="non-scaling-stroke"  transform=" translate(-31.29, -34.58)" d="M 49.74 6.02 L 31.58 40.99 L 31.47 40.77 L 13.42 6.02 L 0 6.02 L 0 63.14 L 11.3 63.14 L 11.3 24.92 L 27.19 54.97 L 35.13 54.97 L 51.18000000000001 24.419999999999998 L 51.18000000000001 63.14 L 62.580000000000005 63.14 L 62.580000000000005 6.02 z" stroke-linecap="round" />
</g>
		<g transform="matrix(1 0 0 1 -37.82 6.86)" id="X5W3A8RNlc-CJ41sdtCAG"  >
<path style="stroke: none; stroke-width: 1; stroke-dasharray: none; stroke-linecap: butt; stroke-dashoffset: 0; stroke-linejoin: miter; stroke-miterlimit: 4; fill: rgb(0,0,0); fill-rule: nonzero; opacity: 1;" vector-effect="non-scaling-stroke"  transform=" translate(-94.45, -40.52)" d="M 106.46 17.87 L 106.46 24.73 L 106.22999999999999 24.35 C 103.28999999999999 19.580000000000002 98.49999999999999 17.060000000000002 92.38 17.060000000000002 C 79.86999999999999 17.060000000000002 71.13 26.720000000000002 71.13 40.55 C 71.13 54.379999999999995 79.84 63.97 92.27 63.97 C 97.94862277783642 64.1278469737689 103.28210257089327 61.25157751394181 106.27 56.42 L 106.5 56.050000000000004 L 106.5 63.150000000000006 L 117.77 63.150000000000006 L 117.77 17.87 L 106.46 17.87 z M 94.69 54.41 C 87.61 54.41 82.84 48.839999999999996 82.84 40.55 C 82.84 32.089999999999996 87.46000000000001 26.61 94.61 26.61 C 101.76 26.61 106.61 32.21 106.61 40.55 C 106.61 48.88999999999999 101.81 54.41 94.67 54.41" stroke-linecap="round" />
</g>
		<g transform="matrix(1 0 0 1 1.93 6.85)" id="Roi6YTpRsgoqGWAS10Xst"  >
<path style="stroke: none; stroke-width: 1; stroke-dasharray: none; stroke-linecap: butt; stroke-dashoffset: 0; stroke-linejoin: miter; stroke-miterlimit: 4; fill: rgb(0,0,0); fill-rule: nonzero; opacity: 1;" vector-effect="non-scaling-stroke"  transform=" translate(-134.2, -40.51)" d="M 128.55 17.87 L 139.85000000000002 17.87 L 139.85000000000002 63.150000000000006 L 128.55 63.150000000000006 z" stroke-linecap="round" />
</g>
		<g transform="matrix(1 0 0 1 39.41 6.45)" id="NaTu9Z3yzfrfxWxiW5t1w"  >
<path style="stroke: none; stroke-width: 1; stroke-dasharray: none; stroke-linecap: butt; stroke-dashoffset: 0; stroke-linejoin: miter; stroke-miterlimit: 4; fill: rgb(0,0,0); fill-rule: nonzero; opacity: 1;" vector-effect="non-scaling-stroke"  transform=" translate(-171.68, -40.11)" d="M 187.84 22.08 C 184.71139383265884 18.771822672738864 180.3215011922283 16.953308737183548 175.77 17.08 C 169.77 17.08 164.93 19.72 162.17000000000002 24.529999999999998 L 161.93 24.95 L 161.93 17.869999999999997 L 150.63 17.869999999999997 L 150.63 63.14 L 161.93 63.14 L 161.93 38.02 C 161.93 31.020000000000003 165.59 26.770000000000003 171.72 26.770000000000003 C 177.85 26.770000000000003 181.42 30.970000000000002 181.42 38.02 L 181.42 63.14 L 192.73 63.14 L 192.73 36.38 C 192.73 30.480000000000004 191.04 25.53 187.84 22.080000000000002" stroke-linecap="round" />
</g>
		<g transform="matrix(1 0 0 1 136.43 15.7)" id="RPrRnuM1tqscSj41vEZpb"  >
<path style="stroke: none; stroke-width: 1; stroke-dasharray: none; stroke-linecap: butt; stroke-dashoffset: 0; stroke-linejoin: miter; stroke-miterlimit: 4; fill: rgb(0,0,0); fill-rule: nonzero; opacity: 1;" vector-effect="non-scaling-stroke"  transform=" translate(-268.7, -49.36)" d="M 270.93 17.06 C 264.84000000000003 17.06 260 19.66 256.93 24.59 L 256.69 24.97 L 256.69 17.869999999999997 L 245.38 17.869999999999997 L 245.38 81.66 L 256.69 81.66 L 256.69 56.29 L 256.93 56.66 C 259.87 61.44 264.66 63.97 270.77 63.97 C 283.28 63.97 292.02 54.3 292.02 40.47 C 292.02 26.64 283.34999999999997 17.06 270.93 17.06 M 268.54 54.41 C 261.35 54.41 256.54 48.809999999999995 256.54 40.47 C 256.54 32.13 261.32 26.659999999999997 268.45000000000005 26.659999999999997 C 275.5800000000001 26.659999999999997 280.27000000000004 32.17999999999999 280.27000000000004 40.47 C 280.27000000000004 48.76 275.65000000000003 54.32 268.51000000000005 54.41" stroke-linecap="round" />
</g>
		<g transform="matrix(1 0 0 1 180.46 6.43)" id="1uEbcgXLIxPqyBB7RlU94"  >
<path style="stroke: none; stroke-width: 1; stroke-dasharray: none; stroke-linecap: butt; stroke-dashoffset: 0; stroke-linejoin: miter; stroke-miterlimit: 4; fill: rgb(0,0,0); fill-rule: nonzero; opacity: 1;" vector-effect="non-scaling-stroke"  transform=" translate(-312.73, -40.09)" d="M 321.83 17.06 C 317.59 17.06 314 19.709999999999997 311.46 24.74 L 311.21999999999997 25.22 L 311.21999999999997 17.869999999999997 L 299.90999999999997 17.869999999999997 L 299.90999999999997 63.14 L 311.27 63.14 L 311.27 40.31 C 311.27 30.740000000000002 316.27 28.730000000000004 320.39 28.730000000000004 C 322.20140166946095 28.738280701061097 323.97954327115224 29.217276210043828 325.55 30.120000000000005 L 325.55 18.120000000000005 C 324.49395693309066 17.335988958833706 323.19192028573696 16.95637609434638 321.88 17.050000000000004" stroke-linecap="round" />
</g>
		<g transform="matrix(1 0 0 1 206.3 6.85)" id="kNxrgrEqp8L3vVfg3Dtl1"  >
<path style="stroke: none; stroke-width: 1; stroke-dasharray: none; stroke-linecap: butt; stroke-dashoffset: 0; stroke-linejoin: miter; stroke-miterlimit: 4; fill: rgb(0,0,0); fill-rule: nonzero; opacity: 1;" vector-effect="non-scaling-stroke"  transform=" translate(-338.57, -40.51)" d="M 332.91 17.87 L 344.22 17.87 L 344.22 63.150000000000006 L 332.91 63.150000000000006 z" stroke-linecap="round" />
</g>
		<g transform="matrix(1 0 0 1 243.76 6.45)" id="NSTIYHpuHLHyBs__amVBT"  >
<path style="stroke: none; stroke-width: 1; stroke-dasharray: none; stroke-linecap: butt; stroke-dashoffset: 0; stroke-linejoin: miter; stroke-miterlimit: 4; fill: rgb(0,0,0); fill-rule: nonzero; opacity: 1;" vector-effect="non-scaling-stroke"  transform=" translate(-376.03, -40.11)" d="M 392.2 22.08 C 389.0713938326588 18.771822672738864 384.6815011922283 16.953308737183548 380.13 17.08 C 374.13 17.08 369.3 19.72 366.54 24.529999999999998 L 366.3 24.95 L 366.3 17.869999999999997 L 355 17.869999999999997 L 355 63.14 L 366.27 63.14 L 366.27 38.02 C 366.27 31.020000000000003 369.93 26.770000000000003 376.06 26.770000000000003 C 382.19 26.770000000000003 385.76 30.970000000000002 385.76 38.02 L 385.76 63.14 L 397.06 63.14 L 397.06 36.38 C 397.06 30.480000000000004 395.37 25.53 392.17 22.080000000000002" stroke-linecap="round" />
</g>
		<g transform="matrix(1 0 0 1 1.93 -28.37)" id="oyEwjC54npskQvLaE9KnT"  >
<path style="stroke: none; stroke-width: 1; stroke-dasharray: none; stroke-linecap: butt; stroke-dashoffset: 0; stroke-linejoin: miter; stroke-miterlimit: 4; fill: rgb(0,0,0); fill-rule: nonzero; opacity: 1;" vector-effect="non-scaling-stroke"  transform=" translate(-134.2, -5.29)" d="M 128.55 0 L 139.85000000000002 0 L 139.85000000000002 10.58 L 128.55 10.58 z" stroke-linecap="round" />
</g>
		<g transform="matrix(1 0 0 1 206.3 -28.37)" id="_1cwd--SVRrWm6igovJyu"  >
<path style="stroke: none; stroke-width: 1; stroke-dasharray: none; stroke-linecap: butt; stroke-dashoffset: 0; stroke-linejoin: miter; stroke-miterlimit: 4; fill: rgb(0,0,0); fill-rule: nonzero; opacity: 1;" vector-effect="non-scaling-stroke"  transform=" translate(-338.57, -5.29)" d="M 332.91 0 L 344.22 0 L 344.22 10.58 L 332.91 10.58 z" stroke-linecap="round" />
</g>
		<g transform="matrix(1 0 0 1 296.2 16.09)" id="yLiDQtwiTkgAKO9wklcOT"  >
<path style="stroke: none; stroke-width: 1; stroke-dasharray: none; stroke-linecap: butt; stroke-dashoffset: 0; stroke-linejoin: miter; stroke-miterlimit: 4; fill: rgb(0,0,0); fill-rule: nonzero; opacity: 1;" vector-effect="non-scaling-stroke"  transform=" translate(-428.47, -49.75)" d="M 440.65 17.87 L 440.65 25.150000000000002 L 440.40999999999997 24.750000000000004 C 437.40999999999997 19.750000000000004 432.47999999999996 17.060000000000002 426.15999999999997 17.060000000000002 C 413.7 17.060000000000002 404.98999999999995 26.28 404.98999999999995 39.49 C 404.98999999999995 50.95 411.4 59.49 421.11999999999995 61.660000000000004 C 422.8256281958673 62.05050288390554 424.5702474216156 62.24509502831593 426.31999999999994 62.24000000000001 C 432.54999999999995 62.24 437.41999999999996 59.64 440.41999999999996 54.71 L 440.65 54.32 L 440.65 60.49 C 440.65 69.17 434.37 72.49000000000001 428.97999999999996 72.72 C 422.12999999999994 72.98 418.43999999999994 70.38 415.27 67.64 L 408.53999999999996 74.53 C 412.53999999999996 79.41 420.34 82.44 428.87999999999994 82.44 C 436.03999999999996 82.44 441.97999999999996 80.22 446.0799999999999 76.03999999999999 C 449.9199999999999 72.11999999999999 451.9599999999999 66.74 451.9599999999999 60.489999999999995 L 451.9599999999999 17.87 L 440.6499999999999 17.87 z M 440.65 41.620000000000005 C 439.91999999999996 47.86000000000001 435.84999999999997 52.06 429.96 52.56 L 428.76 52.56 C 421.61 52.56 416.99 47.440000000000005 416.99 39.56 C 416.99 31.68 421.64 26.560000000000002 428.84000000000003 26.560000000000002 C 436.04 26.560000000000002 440.77000000000004 31.76 440.77000000000004 39.56 C 440.771 40.245000000000005 440.73100000000005 40.93 440.65000000000003 41.61" stroke-linecap="round" />
</g>
		<g transform="matrix(1 0 0 1 86.36 6.95)" id="CoIH7DKDdVMMyWc0o8e3v"  >
<path style="stroke: none; stroke-width: 1; stroke-dasharray: none; stroke-linecap: butt; stroke-dashoffset: 0; stroke-linejoin: miter; stroke-miterlimit: 4; fill: rgb(0,0,0); fill-rule: nonzero; opacity: 1;" vector-effect="non-scaling-stroke"  transform=" translate(-218.63, -40.61)" d="M 237.74 49.89 C 237.74 58.53 230.58 64.11 219.49 64.11 C 213.16 64.11 205.38 62.11 201.10000000000002 58.24 C 200.5127936990356 57.71132383244389 199.9801248211667 57.125053054915206 199.51000000000002 56.49 L 203.97000000000003 51.93 L 206.14000000000001 49.71 L 206.19000000000003 49.71 C 206.69383708678043 50.313541592805606 207.24563377778773 50.87537095092214 207.84000000000003 51.39 C 210.76842039367742 53.886995693758 214.4817041391582 55.274609829342815 218.33000000000004 55.31 C 222.33000000000004 55.31 226.41000000000005 53.64 226.41000000000005 50.84 C 226.41000000000005 46.84 221.69000000000005 45.730000000000004 216.23000000000005 44.45 L 214.92000000000004 44.150000000000006 C 214.04000000000005 43.940000000000005 213.16000000000005 43.720000000000006 212.28000000000006 43.480000000000004 C 205.99000000000007 41.760000000000005 200.16000000000005 38.970000000000006 200.16000000000005 30.750000000000004 C 200.16000000000005 21.370000000000005 209.16000000000005 17.110000000000003 217.59000000000006 17.110000000000003 C 224.38000000000005 17.110000000000003 229.35000000000005 18.610000000000003 233.33000000000007 21.940000000000005 C 233.9346259207741 22.442227629918417 234.5089655021495 22.979836191554675 235.05000000000007 23.550000000000004 L 232.63000000000008 26.020000000000003 L 228.2100000000001 30.540000000000003 C 227.6200000000001 29.94 227.0500000000001 29.400000000000002 226.4900000000001 28.930000000000003 C 224.52551140795606 27.058483523680586 221.9326306199888 25.98851896193343 219.22000000000008 25.930000000000003 C 214.16000000000008 25.930000000000003 211.50000000000009 27.400000000000002 211.50000000000009 30.160000000000004 C 211.50000000000009 33.52 215.20000000000007 34.690000000000005 219.8000000000001 35.77 L 221.3900000000001 36.13 L 222.4900000000001 36.38 C 229.5500000000001 37.980000000000004 237.7400000000001 40.290000000000006 237.7400000000001 49.92" stroke-linecap="round" />
</g>
</g>
</g>
</svg>