
<?xml version="1.0" encoding="utf-8"?>
<!-- Generator: Adobe Illustrator 24.0.0, SVG Export Plug-In . SVG Version: 6.00 Build 0)  -->
<svg version="1.1" id="Layer_1" xmlns="http://www.w3.org/2000/svg" xmlns:xlink="http://www.w3.org/1999/xlink" x="0px" y="0px"
	 viewBox="0 0 33.87 25.89" style="enable-background:new 0 0 33.87 25.89;" xml:space="preserve">
<style type="text/css">
	.st0{fill:#231F20;}
	.st1{fill:#563413;}
	.st2{fill:#A98D75;}
</style>
<g>
	<g>
		<path class="st0" d="M13.34,22.07v2.27h-0.27v-2.7h0.25l1.91,2.29v-2.29h0.27v2.7h-0.25L13.34,22.07z"/>
		<path class="st0" d="M17.16,23.2l-1.13-1.53v-0.03h0.3l0.97,1.32l0.97-1.32h0.3v0.03l-1.13,1.53v1.14h-0.27V23.2H17.16z"/>
		<path class="st0" d="M19.03,23c0,0.16,0.03,0.32,0.09,0.45c0.06,0.14,0.13,0.26,0.23,0.36c0.1,0.1,0.22,0.17,0.36,0.25
			s0.29,0.09,0.45,0.09c0.2,0,0.38-0.03,0.54-0.1c0.16-0.07,0.29-0.16,0.4-0.27l0.13,0.19c-0.13,0.14-0.29,0.25-0.46,0.32
			c-0.17,0.07-0.38,0.12-0.59,0.12c-0.2,0-0.38-0.03-0.55-0.1c-0.17-0.07-0.32-0.17-0.45-0.29c-0.13-0.13-0.22-0.27-0.29-0.45
			c-0.07-0.17-0.1-0.35-0.1-0.55c0-0.2,0.03-0.38,0.1-0.55c0.07-0.17,0.17-0.32,0.29-0.45c0.13-0.13,0.27-0.22,0.45-0.29
			c0.17-0.07,0.36-0.1,0.55-0.1c0.22,0,0.42,0.04,0.59,0.12c0.17,0.07,0.33,0.19,0.46,0.32l-0.14,0.19c-0.1-0.12-0.25-0.2-0.4-0.27
			c-0.16-0.07-0.33-0.1-0.54-0.1c-0.16,0-0.32,0.03-0.45,0.09c-0.13,0.06-0.26,0.14-0.36,0.25s-0.17,0.22-0.23,0.36
			C19.06,22.68,19.03,22.84,19.03,23z"/>
	</g>
	<path class="st0" d="M4.98,19.35l-0.84,1H4.03l-0.83-1v1.7H2.51v-2.77H3.1l0.99,1.16l0.99-1.16h0.59v2.77H4.98V19.35z"/>
	<path class="st0" d="M7.1,18.27h0.81l1.05,2.77h-0.7l-0.19-0.51H6.91l-0.19,0.51h-0.7L7.1,18.27z M7.08,20.03H7.9l-0.4-1.08
		L7.08,20.03z"/>
	<path class="st0" d="M9.31,20.22c0.11,0.07,0.23,0.13,0.39,0.19c0.15,0.06,0.32,0.09,0.49,0.09c0.14,0,0.25-0.02,0.33-0.07
		c0.08-0.04,0.12-0.11,0.12-0.2c0-0.06-0.02-0.11-0.07-0.15c-0.05-0.04-0.13-0.07-0.24-0.1l-0.46-0.12
		c-0.47-0.12-0.71-0.38-0.71-0.77c0-0.12,0.02-0.23,0.07-0.33c0.05-0.11,0.11-0.2,0.21-0.27c0.09-0.08,0.21-0.14,0.34-0.18
		c0.13-0.04,0.3-0.07,0.49-0.07c0.1,0,0.2,0.01,0.29,0.02c0.1,0.01,0.19,0.03,0.28,0.05s0.17,0.04,0.24,0.07
		c0.07,0.03,0.14,0.05,0.19,0.08l-0.19,0.59c-0.11-0.06-0.24-0.12-0.39-0.16c-0.15-0.04-0.3-0.07-0.44-0.07
		c-0.14,0-0.23,0.02-0.29,0.06c-0.06,0.04-0.09,0.09-0.09,0.16c0,0.06,0.02,0.11,0.06,0.14s0.1,0.06,0.19,0.08l0.49,0.14
		c0.26,0.07,0.44,0.17,0.56,0.3c0.12,0.13,0.17,0.29,0.17,0.48c0,0.13-0.03,0.25-0.08,0.37c-0.06,0.11-0.13,0.21-0.24,0.29
		s-0.22,0.14-0.37,0.19c-0.14,0.04-0.3,0.07-0.48,0.07c-0.1,0-0.21-0.01-0.31-0.02c-0.1-0.02-0.2-0.04-0.29-0.06
		C9.48,21,9.4,20.97,9.32,20.94c-0.07-0.03-0.13-0.06-0.18-0.08L9.31,20.22z"/>
	<path class="st0" d="M11.87,20.22c0.11,0.07,0.23,0.13,0.39,0.19c0.15,0.06,0.32,0.09,0.49,0.09c0.14,0,0.25-0.02,0.33-0.07
		c0.08-0.04,0.12-0.11,0.12-0.2c0-0.06-0.02-0.11-0.07-0.15c-0.05-0.04-0.13-0.07-0.24-0.1l-0.45-0.12
		c-0.47-0.12-0.71-0.38-0.71-0.77c0-0.12,0.02-0.23,0.07-0.33c0.05-0.11,0.11-0.2,0.21-0.27c0.09-0.08,0.21-0.14,0.34-0.18
		c0.13-0.04,0.3-0.07,0.49-0.07c0.1,0,0.2,0.01,0.29,0.02c0.1,0.01,0.19,0.03,0.28,0.05s0.17,0.04,0.24,0.07
		c0.07,0.03,0.14,0.05,0.19,0.08l-0.19,0.59c-0.11-0.06-0.24-0.12-0.39-0.16c-0.15-0.04-0.3-0.07-0.44-0.07
		c-0.14,0-0.23,0.02-0.29,0.06c-0.06,0.04-0.09,0.09-0.09,0.16c0,0.06,0.02,0.11,0.06,0.14s0.1,0.06,0.19,0.08l0.49,0.14
		c0.26,0.07,0.44,0.17,0.56,0.3c0.12,0.13,0.17,0.29,0.17,0.48c0,0.13-0.03,0.25-0.08,0.37c-0.06,0.11-0.13,0.21-0.24,0.29
		s-0.22,0.14-0.37,0.19c-0.14,0.04-0.3,0.07-0.48,0.07c-0.1,0-0.21-0.01-0.31-0.02c-0.1-0.02-0.2-0.04-0.29-0.06
		c-0.09-0.02-0.17-0.05-0.25-0.08c-0.07-0.03-0.13-0.06-0.18-0.08L11.87,20.22z"/>
	<path class="st0" d="M16.58,18.87v2.17h-0.69v-2.17h-0.85v-0.6h2.36v0.6C17.4,18.87,16.58,18.87,16.58,18.87z"/>
	<path class="st0" d="M17.85,18.27h0.68v2.77h-0.68V18.27z"/>
	<path class="st0" d="M21.7,19.35l-0.84,1h-0.12l-0.83-1v1.7h-0.68v-2.77h0.59l0.99,1.16l0.99-1.16h0.59v2.77H21.7
		C21.7,21.05,21.7,19.35,21.7,19.35z"/>
	<path class="st0" d="M23.08,18.27h1.23c0.31,0,0.55,0.06,0.72,0.18c0.17,0.12,0.25,0.31,0.25,0.56c0,0.14-0.04,0.26-0.11,0.35
		s-0.17,0.17-0.29,0.23c0.2,0.04,0.35,0.12,0.46,0.23c0.11,0.11,0.16,0.27,0.16,0.46c0,0.23-0.09,0.42-0.26,0.55s-0.42,0.2-0.75,0.2
		h-1.42v-2.76H23.08z M24.2,19.36c0.12,0,0.22-0.02,0.28-0.06c0.06-0.04,0.1-0.11,0.1-0.21s-0.03-0.17-0.09-0.21
		c-0.06-0.04-0.15-0.06-0.28-0.06h-0.44v0.54H24.2z M24.39,20.5c0.26,0,0.38-0.1,0.38-0.29c0-0.1-0.04-0.18-0.11-0.23
		s-0.17-0.07-0.31-0.07h-0.6v0.58h0.64V20.5z"/>
	<path class="st0" d="M26.01,21.04v-2.77h2.23v0.59h-1.57v0.48h1.27v0.58h-1.27v0.53h1.57v0.6h-2.23V21.04z"/>
	<path class="st0" d="M28.8,18.27h1.32c0.16,0,0.31,0.02,0.44,0.05c0.13,0.04,0.25,0.09,0.34,0.17s0.17,0.17,0.22,0.29
		c0.05,0.12,0.08,0.25,0.08,0.41c0,0.1-0.02,0.2-0.05,0.29c-0.03,0.09-0.08,0.17-0.14,0.24s-0.13,0.13-0.21,0.18
		c-0.08,0.05-0.17,0.09-0.26,0.12l0.81,0.89v0.13h-0.73l-0.84-0.98H29.5v0.98h-0.68v-2.77H28.8z M29.48,18.87v0.69h0.62
		c0.11,0,0.2-0.03,0.27-0.09s0.1-0.15,0.1-0.25c0-0.11-0.03-0.19-0.1-0.25c-0.07-0.06-0.16-0.09-0.27-0.09h-0.62V18.87z"/>
	<g>
		<polygon class="st0" points="8.08,6.32 15.94,1.5 25.54,7.15 17.68,12.01 16.03,11.03 22.05,7.37 19.87,6.09 18.03,7.21 
			16.05,6.04 17.89,4.92 15.99,3.81 9.99,7.45 		"/>
	</g>
	<polygon class="st0" points="18.03,7.21 16.05,6.04 13.84,7.39 12.24,6.44 10.29,7.63 15.7,10.83 17.66,9.63 15.83,8.55 	"/>
	<g>
		<path class="st1" d="M9.94,8.86c1.53,0.47,1.84,1.14,1.88,2.21c0.02,0.88-0.3,1.5-1,1.9l0.58,0.34c0.43-0.12,1.08-0.22,1.54,0.1
			c0.31,0.22,0.48,0.59,0.51,1.11l1.44,0.84c-0.06-0.37-0.2-0.76-0.52-1.01c-0.69-0.54-1.36-1.47-1.35-2.32
			c0-0.23,0.01-1.43,0.02-2.32L8.08,6.76v1.08C8.58,8.23,9.26,8.65,9.94,8.86z"/>
		<path class="st1" d="M12.81,13.61c-0.31-0.22-0.76-0.19-1.12-0.12l1.52,0.89C13.16,14.02,13.03,13.75,12.81,13.61z"/>
		<path class="st1" d="M15.96,13.63c-0.32-0.49-0.6-0.93-0.64-1.34c-0.04-0.41,0.08-0.78,0.36-1.02l-1.14-0.67
			c-0.22,0.41-0.42,0.97-0.42,1.58c0,0.46,0.4,0.91,0.85,1.44c0.59,0.67,1.29,1.49,1.46,2.66l0.69,0.41
			C17.07,15.34,16.45,14.4,15.96,13.63z"/>
		<path class="st1" d="M14.52,14.17c0.42,0.34,0.58,0.87,0.64,1.34l1.03,0.6c-0.2-1-0.84-1.73-1.37-2.35
			c-0.48-0.57-0.9-1.05-0.9-1.59c0-0.66,0.23-1.26,0.45-1.7l-1.08-0.64c-0.01,0.87-0.02,1.97-0.02,2.19
			C13.24,12.81,13.88,13.67,14.52,14.17z"/>
		<path class="st1" d="M17.68,14.7v-2.25l-0.81-0.48C16.85,12.6,16.94,13.72,17.68,14.7z"/>
		<path class="st1" d="M8.48,10.79c-0.06-0.14-0.22-0.24-0.4-0.3v0.87l0.19,0.11C8.48,11.2,8.55,10.96,8.48,10.79z"/>
		<path class="st1" d="M11.59,11.07c-0.04-1-0.29-1.56-1.71-2c-0.66-0.2-1.3-0.58-1.81-0.94v1.38c1.1,0.24,2.32,0.66,2.32,1.38
			c0,0.46-0.42,0.89-0.97,1.25l1.16,0.67C11.5,12.38,11.6,11.65,11.59,11.07z"/>
		<path class="st1" d="M16.65,11.84l-0.61-0.36c-0.26,0.2-0.51,0.46-0.48,0.81c0.02,0.35,0.29,0.76,0.6,1.23
			c0.51,0.78,1.18,1.82,1.22,3.31L17.68,17v-1.93C16.66,13.92,16.6,12.53,16.65,11.84z"/>
		<path class="st1" d="M10.17,10.91C10.16,10.37,9.13,10,8.08,9.77v0.49c0.26,0.08,0.52,0.22,0.61,0.46
			c0.11,0.24,0.02,0.54-0.22,0.89l0.73,0.43C9.75,11.68,10.17,11.3,10.17,10.91z"/>
	</g>
	<g>
		<path class="st2" d="M25.07,8.48c0.11,0.08,0.26,0.11,0.47,0.06V7.59L24.88,8C24.89,8.21,24.95,8.37,25.07,8.48z"/>
		<path class="st2" d="M22.53,12.62c-0.69-0.34-1.55-0.2-1.83,0.13c-0.37,0.46-0.45,1.81-0.46,2.65l0.82-0.51
			c0.08-0.49,0.28-1.23,0.7-1.34c0.24-0.06,0.51,0.07,0.79,0.41l0.72-0.45C23.16,13.02,22.79,12.75,22.53,12.62z"/>
		<path class="st2" d="M21.82,13.79c-0.24,0.06-0.41,0.51-0.51,0.96l1.05-0.65C22.15,13.85,21.97,13.74,21.82,13.79z"/>
		<path class="st2" d="M24.28,11.24c0.53,0.14,0.94,0.34,1.25,0.57v-0.73c-0.08-0.08-0.18-0.17-0.28-0.25
			c-0.3-0.28-0.64-0.59-0.97-0.97c-0.29-0.37-0.51-0.73-0.65-1.07l-1.5,0.93C22.34,10.23,22.88,10.86,24.28,11.24z"/>
		<path class="st2" d="M24.93,8.65c-0.14-0.12-0.23-0.31-0.26-0.52l-0.84,0.52c0.13,0.32,0.34,0.69,0.64,1.05
			c0.32,0.39,0.65,0.69,0.95,0.96c0.04,0.04,0.08,0.07,0.12,0.12V8.77c-0.07,0.01-0.13,0.02-0.19,0.02
			C25.18,8.78,25.05,8.73,24.93,8.65z"/>
		<path class="st2" d="M17.68,15.09V17l0.7-0.43C18.24,16,17.92,15.45,17.68,15.09z"/>
		<path class="st2" d="M24.23,11.45c-1.46-0.39-2.03-1.07-2.26-1.59c-0.01-0.02-0.02-0.04-0.02-0.05l-1.14,0.71
			c0.18,0.23,0.45,0.48,0.85,0.63c0.17,0.06,0.4,0.12,0.63,0.19c0.87,0.24,1.97,0.55,2.39,1.34l0.87-0.54v-0.06
			C25.23,11.83,24.8,11.6,24.23,11.45z"/>
		<path class="st2" d="M18.57,16.45l0.61-0.37c0.23-0.83,0.36-1.91-0.19-2.66c-0.41-0.54-0.57-1.03-0.47-1.47v-0.01l-0.84,0.52v2.25
			C17.91,15.02,18.38,15.7,18.57,16.45z"/>
		<path class="st2" d="M22.21,11.55c-0.24-0.07-0.46-0.13-0.64-0.19c-0.46-0.17-0.77-0.46-0.96-0.71l-1.76,1.08
			c-0.05,0.07-0.08,0.16-0.11,0.26c-0.07,0.36,0.07,0.79,0.43,1.28c0.57,0.76,0.51,1.78,0.3,2.62l0.55-0.35
			c0-0.84,0.06-2.38,0.51-2.92c0.37-0.46,1.37-0.54,2.09-0.19c0.43,0.22,0.72,0.55,0.84,0.99l1-0.63
			C24.1,12.08,23.04,11.78,22.21,11.55z"/>
	</g>
</g>
</svg>

