<?xml version="1.0" encoding="UTF-8"?>
<svg id="Layer_1" width="4425.5" height="1e3" data-name="Layer 1" version="1.1" viewBox="0 0 4425.5 1e3" xmlns="http://www.w3.org/2000/svg" xmlns:cc="http://creativecommons.org/ns#" xmlns:dc="http://purl.org/dc/elements/1.1/" xmlns:rdf="http://www.w3.org/1999/02/22-rdf-syntax-ns#">
 <metadata id="metadata49">
  <rdf:RDF>
   <cc:Work rdf:about="">
    <dc:format>image/svg+xml</dc:format>
    <dc:type rdf:resource="http://purl.org/dc/dcmitype/StillImage"/>
    <dc:title/>
   </cc:Work>
  </rdf:RDF>
 </metadata>
 <defs id="defs4">
  <style id="style2">.cls-1,.cls-2{fill:#005daa;}.cls-2{font-size:25.87px;font-family:MyriadPro-Regular, Myriad Pro;}</style>
 </defs>
 <g id="g875" transform="matrix(11.757 0 0 11.757 -121.22 -149.32)" fill="#005daa">
  <path id="path6" class="cls-1" d="m10.31 12.7h39.69l11.56 32.49 11.56-32.49h39.46v85h-25.22v-50.53l-16.86 50.53h-18.2l-16.65-50.53v50.53h-25.34z"/>
  <path id="path8" class="cls-1" d="m143.91 74a32.81 32.81 0 0 1-12.82 2.55c-5.63 0-10.61-2.29-13.37-6-1.33-1.79-1.77-3.74-1.77-7.31 0-7.23 1.88-9.44 10.72-12.33l16.8-5.44v-2c0-2.12-1-3.14-2.87-3.14-2.43 0-3 0.85-3 4.51h-21.21v-4.95c0-5.69 4.42-8.5 13.38-8.5h21.66c5.86 0 8.29 0.51 10.72 2.21 2.54 1.87 3.2 3.74 3.2 9v33.51h-21.44zm-0.44-17.25c-5.08 2-5.75 2.8-5.75 7 0 2 1 3.14 2.77 3.14 2 0 3-1.19 3-3.74z"/>
  <path id="path10" class="cls-1" d="m174.86 52.48-7.3-21.09h21.56l3.64 16.24 3.43-16.24h21.88l-7.4 21.09 8.73 23.63h-22.11l-4.53-18.19-4.42 18.19h-22.34z"/>
  <path id="path12" class="cls-1" d="m216.74 31.39h21.11l4 16.16 4-16.16h17.13l4 16.16 3.87-16.16h21.1l-13 44.72h-19.77l-4.86-17.26-4.86 17.26h-19.9z"/>
  <path id="path14" class="cls-1" d="m339.76 66.08c0 4.16-0.78 6-3.1 7.57-2.76 1.86-5.63 2.46-11.82 2.46h-20.23c-6.41 0-9.06-0.6-11.38-2.63-2.1-1.79-2.66-3.58-2.66-8.08v-24.06c0-7.06 3.76-10 12.94-10h22.43c10.06 0 13.82 2.81 13.82 10.2v13.29h-27.52v9.17c0 2.21 0.88 3.32 2.87 3.32s2.88-1 2.88-3.49v-3.31h21.77zm-21.76-19.47v-3.61a2.56 2.56 0 0 0-2.77-2.89 2.64 2.64 0 0 0-3 3v3.48z"/>
  <path id="path16" class="cls-1" d="m341.87 19.41h21v56.7h-21z"/>
  <path id="path18" class="cls-1" d="m365.72 19.41h21v56.7h-21z"/>
  <path id="path20" class="cls-1" d="m117.18 84v-3h16.43v3h-6.29v13.64h-4v-13.64z"/>
  <path id="path22" class="cls-1" d="m155.27 84h-5.27c-2.74 0-3.77 0.27-4.6 1.21-0.57 0.68-0.68 1.05-0.83 2.69h10.72v2.95h-10.74c0.29 2.84 1.72 3.81 5.61 3.81h5.11v3h-5.27c-4 0-6-0.47-7.51-1.86a8.57 8.57 0 0 1-2.49-6.53 8 8 0 0 1 3.23-6.86c1.35-1 2.66-1.34 5.23-1.34h6.86z"/>
  <path id="path24" class="cls-1" d="m178.22 97.64h-6.63c-3.28 0-4.86-0.39-6.34-1.64-1.63-1.36-2.52-3.65-2.52-6.61 0-3.72 1.52-6.48 4.2-7.58a14.42 14.42 0 0 1 4.83-0.74h6.46v3h-6a5.28 5.28 0 0 0-4.06 1.34 5.6 5.6 0 0 0-1 3.7c0 2.43 0.6 4.15 1.74 4.87a6.23 6.23 0 0 0 3.43 0.75h5.83z"/>
  <path id="path26" class="cls-1" d="m201.74 97.64h-4.06v-6.83h-7.34v6.83h-4.06v-16.57h4.06v6.78h7.34v-6.78h4.06z"/>
  <path id="path28" class="cls-1" d="m214.78 97.64h-3.86v-16.57h5.17l7.6 12.35v-12.35h3.86v16.57h-5l-7.8-12.15z"/>
  <path id="path30" class="cls-1" d="m252.67 83.5a9.37 9.37 0 0 1 1.83 6.09c0 2.91-1.06 5.3-2.95 6.61a10.92 10.92 0 0 1-6.17 1.54c-3.66 0-6.54-1-8-2.9a8.33 8.33 0 0 1-1.65-5.4c0-3.18 1-5.59 2.88-6.88a11.63 11.63 0 0 1 6.52-1.62c3.37 0 6.08 0.92 7.54 2.56zm-11.67 1.92a6.71 6.71 0 0 0-0.89 3.9c0 3.88 1.55 5.64 5 5.64s4.89-1.76 4.89-5.59-1.52-5.62-4.92-5.62a4.85 4.85 0 0 0-4.08 1.67z"/>
  <path id="path32" class="cls-1" d="m266.53 81.07v9.29c0.14 2.89 0.2 3 0.94 3.61s1.6 0.72 4.17 0.72h3.89v3h-4.32a17.17 17.17 0 0 1-4.28-0.27 5.34 5.34 0 0 1-4-3.18 12 12 0 0 1-0.46-3.83v-9.34z"/>
  <path id="path34" class="cls-1" d="m298.67 83.5a9.37 9.37 0 0 1 1.83 6.09c0 2.91-1.05 5.3-2.94 6.61a10.94 10.94 0 0 1-6.17 1.54c-3.66 0-6.55-1-8-2.9a8.27 8.27 0 0 1-1.66-5.4c0-3.18 1-5.59 2.89-6.88a11.57 11.57 0 0 1 6.51-1.62c3.37 0 6.08 0.92 7.54 2.56zm-11.67 1.92a6.71 6.71 0 0 0-0.88 3.9c0 3.88 1.54 5.64 5 5.64s4.92-1.76 4.92-5.59-1.52-5.62-4.92-5.62a4.87 4.87 0 0 0-4.12 1.67z"/>
  <path id="path36" class="cls-1" d="m325 87.8v9.84h-8.5c-2.94 0-4.45-0.32-5.85-1.29-1.95-1.32-3-3.73-3-6.93s1.05-5.59 3-6.94c1.37-0.94 3.34-1.41 6.06-1.41h8.29v3h-7.86c-3.63 0-5.06 1.44-5.06 5.07 0 2.06 0.52 3.8 1.38 4.59s2 1 3.82 1h3.72v-3.97h-5.31v-3z"/>
  <path id="path38" class="cls-1" d="m333.74 81.07h4.05v16.57h-4.05z"/>
  <path id="path40" class="cls-1" d="m361.26 84h-5.26c-2.74 0-3.77 0.27-4.6 1.21-0.57 0.68-0.69 1.05-0.83 2.69h10.72v2.95h-10.75c0.29 2.84 1.71 3.81 5.6 3.81h5.12v3h-5.26c-4.06 0-6-0.47-7.51-1.86a8.57 8.57 0 0 1-2.52-6.51 8 8 0 0 1 3.23-6.86c1.34-1 2.66-1.34 5.23-1.34h6.86z"/>
  <path id="path42" class="cls-1" d="m369.69 94.69h8.69a6.21 6.21 0 0 0 2.82-0.4 1.68 1.68 0 0 0 0.95-1.52 1.89 1.89 0 0 0-1.23-1.77 5.16 5.16 0 0 0-2.05-0.3h-3.52c-2.29 0-3.77-0.35-4.77-1.09a4.55 4.55 0 0 1-1.8-3.66 4.7 4.7 0 0 1 3.31-4.54 13.42 13.42 0 0 1 4.09-0.35h9.43v3h-8.52a10.52 10.52 0 0 0-2.54 0.15 1.61 1.61 0 0 0-1.29 1.69 1.67 1.67 0 0 0 1.09 1.61 6 6 0 0 0 2.4 0.27h3.06c2.8 0 4.31 0.38 5.43 1.37a5.08 5.08 0 0 1 1.42 3.65 4.75 4.75 0 0 1-2.42 4.2c-0.95 0.53-2.15 0.67-5 0.67h-9.57z"/>
 </g>
</svg>

