

<svg width="116" height="36" viewBox="0 0 116 36" fill="none" xmlns="http://www.w3.org/2000/svg">
<path d="M39.7266 29.2006V9.46775H42.535V14.013C42.9538 12.3624 43.6928 11.0937 44.7521 10.2068C45.8361 9.31994 47.2403 8.87651 48.9648 8.87651H49.1126C50.7878 8.87651 52.155 9.29531 53.2143 10.1329C54.2737 10.9705 55.025 12.1776 55.4685 13.7543C55.9365 12.1776 56.7002 10.9705 57.7595 10.1329C58.8435 9.29531 60.2231 8.87651 61.8983 8.87651H62.0461C64.3864 8.87651 66.1232 9.67715 67.2564 11.2784C68.4143 12.8551 68.9932 15.0723 68.9932 17.93V29.2006H65.4457V17.1539C65.4457 15.5527 65.0516 14.3209 64.2632 13.4587C63.4749 12.5718 62.3787 12.1284 60.9744 12.1284C59.521 12.1284 58.3508 12.5964 57.4639 13.5326C56.5771 14.4441 56.1336 15.7251 56.1336 17.3757V29.2006H52.5861V17.1539C52.5861 15.5527 52.192 14.3209 51.4037 13.4587C50.6153 12.5718 49.5191 12.1284 48.1149 12.1284C46.6614 12.1284 45.4912 12.5964 44.6043 13.5326C43.7175 14.4441 43.274 15.7251 43.274 17.3757V29.2006H39.7266Z" fill="white"/>
<path d="M75.5994 6.28981C74.8111 6.28981 74.2198 6.08041 73.8257 5.66161C73.4561 5.24281 73.2714 4.71315 73.2714 4.07264C73.2714 3.43212 73.4561 2.90247 73.8257 2.48367C74.2198 2.06487 74.8111 1.85547 75.5994 1.85547C76.3877 1.85547 76.9666 2.06487 77.3362 2.48367C77.7303 2.90247 77.9274 3.43212 77.9274 4.07264C77.9274 4.71315 77.7303 5.24281 77.3362 5.66161C76.9666 6.08041 76.3877 6.28981 75.5994 6.28981ZM74.6017 29.2006V12.2762H71.5715V9.46775H78.1491V29.2006H74.6017Z" fill="white"/>
<path d="M83.1606 29.2006V9.46775H85.969V14.0499C86.4124 12.3747 87.2007 11.0937 88.334 10.2068C89.4918 9.31994 90.9946 8.87651 92.8422 8.87651H92.99C95.4782 8.87651 97.3135 9.65252 98.496 11.2045C99.7031 12.7566 100.307 14.9984 100.307 17.93V29.2006H96.7592V17.1909C96.7592 15.6635 96.3281 14.4441 95.4659 13.5326C94.6036 12.5964 93.4211 12.1284 91.9184 12.1284C90.3664 12.1284 89.11 12.6087 88.1492 13.5695C87.1884 14.5303 86.708 15.8113 86.708 17.4126V29.2006H83.1606Z" fill="white"/>
<path d="M112.636 29.4223C111.158 29.4223 109.877 29.2129 108.793 28.7941C107.734 28.3753 106.908 27.6609 106.317 26.6508C105.75 25.6161 105.467 24.2243 105.467 22.4752V12.1284H102.067V9.46775H105.467V5.06057L108.867 3.48139V9.46775H115.666V12.1284H108.867V22.9186C108.867 23.9779 109.15 24.8032 109.717 25.3944C110.308 25.961 111.133 26.2443 112.192 26.2443H115.666V29.4223H112.636Z" fill="white"/>
<path fill-rule="evenodd" clip-rule="evenodd" d="M39.4102 29.5158V9.15135H42.8502V12.1918C43.2799 11.2982 43.8448 10.5535 44.5488 9.96407L44.5502 9.96293L44.5516 9.9618C45.7041 9.01883 47.1842 8.5601 48.9642 8.5601H49.112C50.8408 8.5601 52.2822 8.99313 53.4097 9.88459C54.3174 10.6023 55.0032 11.5706 55.4743 12.7758C55.9616 11.5703 56.6555 10.6022 57.5631 9.88459L57.5645 9.88349L57.5659 9.88242C58.7166 8.99324 60.1686 8.5601 61.8977 8.5601H62.0455C64.4647 8.5601 66.3076 9.39289 67.512 11.0931C68.7232 12.7436 69.3085 15.0354 69.3085 17.9294V29.5158H65.1293V17.1534C65.1293 15.6015 64.7477 14.4566 64.0296 13.6712L64.0281 13.6696L64.0266 13.6679C63.3093 12.8609 62.306 12.4436 60.9739 12.4436C59.595 12.4436 58.512 12.8843 57.6926 13.7492L57.6912 13.7507L57.6897 13.7522C56.8758 14.5888 56.4489 15.7813 56.4489 17.3751V29.5158H52.2697V17.1534C52.2697 15.6015 51.8881 14.4566 51.17 13.6712L51.1685 13.6696L51.167 13.6679C50.4497 12.8609 49.4464 12.4436 48.1143 12.4436C46.7354 12.4436 45.6524 12.8843 44.833 13.7492L44.8316 13.7507L44.8301 13.7522C44.0162 14.5888 43.5893 15.7813 43.5893 17.3751V29.5158H39.4102ZM67.2559 11.2779C66.1226 9.67658 64.3858 8.87594 62.0455 8.87594H61.8977C60.2225 8.87594 58.8429 9.29474 57.759 10.1323C56.8198 10.875 56.1129 11.9081 55.6385 13.2317C55.5778 13.4009 55.521 13.575 55.4679 13.7537C55.4174 13.5742 55.3629 13.3995 55.3044 13.2295C54.8494 11.907 54.1525 10.8746 53.2138 10.1323C52.1545 9.29474 50.7872 8.87594 49.112 8.87594H48.9642C47.2397 8.87594 45.8355 9.31937 44.7516 10.2062C43.9208 10.9017 43.2871 11.8321 42.8502 12.9973C42.7301 13.3179 42.6248 13.6562 42.5344 14.0124V9.46718H39.726V29.2H43.2735V17.3751C43.2735 15.7245 43.7169 14.4435 44.6038 13.532C45.4906 12.5959 46.6608 12.1278 48.1143 12.1278C49.5185 12.1278 50.6148 12.5712 51.4031 13.4581C52.1914 14.3203 52.5856 15.5521 52.5856 17.1534V29.2H56.133V17.3751C56.133 15.7245 56.5765 14.4435 57.4634 13.532C58.3502 12.5959 59.5204 12.1278 60.9739 12.1278C62.3781 12.1278 63.4743 12.5712 64.2627 13.4581C65.051 14.3203 65.4452 15.5521 65.4452 17.1534V29.2H68.9926V17.9294C68.9926 15.0717 68.4137 12.8545 67.2559 11.2779ZM73.5916 5.87381L73.5883 5.87C73.1604 5.38507 72.955 4.7775 72.955 4.07207C72.955 3.36663 73.1604 2.75906 73.5883 2.27413L73.5916 2.27033L73.5951 2.26663C74.0685 1.76366 74.7567 1.53906 75.5988 1.53906C76.4372 1.53906 77.118 1.76193 77.569 2.27029C78.0225 2.75393 78.2427 3.36281 78.2427 4.07207C78.2427 4.78134 78.0224 5.39022 77.569 5.87387C77.118 6.38222 76.4372 6.60508 75.5988 6.60508C74.7567 6.60508 74.0685 6.38048 73.5951 5.8775L73.5916 5.87381ZM77.3356 5.66104C77.7298 5.24224 77.9268 4.71258 77.9268 4.07207C77.9268 3.43155 77.7298 2.9019 77.3356 2.4831C76.9661 2.0643 76.3871 1.8549 75.5988 1.8549C74.8105 1.8549 74.2192 2.0643 73.8251 2.4831C73.4556 2.9019 73.2708 3.43155 73.2708 4.07207C73.2708 4.71258 73.4556 5.24224 73.8251 5.66104C74.2192 6.07984 74.8105 6.28924 75.5988 6.28924C76.3871 6.28924 76.9661 6.07984 77.3356 5.66104ZM74.2853 29.5158V12.5914H71.2551V9.15135H78.4644V29.5158H74.2853ZM74.6011 12.2756V29.2H78.1486V9.46718H71.571V12.2756H74.6011ZM82.8442 29.5158V9.15135H86.2843V12.2819C86.7471 11.341 87.364 10.5638 88.1387 9.95752L88.14 9.9565L88.1413 9.95551C89.3676 9.01627 90.9433 8.5601 92.8416 8.5601H92.9895C95.5457 8.5601 97.4873 9.36067 98.7456 11.0112C100.012 12.6399 100.622 14.9612 100.622 17.9294V29.5158H96.4428V17.1903C96.4428 15.7251 96.0311 14.5897 95.2358 13.749L95.2344 13.7475L95.233 13.746C94.4414 12.8865 93.3497 12.4436 91.9178 12.4436C90.4366 12.4436 89.2649 12.8993 88.372 13.7923C87.4809 14.6833 87.0233 15.8784 87.0233 17.412V29.5158H82.8442ZM98.4954 11.204C97.3129 9.65195 95.4776 8.87594 92.9895 8.87594H92.8416C90.994 8.87594 89.4913 9.31937 88.3334 10.2062C87.4323 10.9115 86.7492 11.866 86.2843 13.0697C86.1645 13.3797 86.0592 13.7063 85.9684 14.0493V9.46718H83.16V29.2H86.7075V17.412C86.7075 15.8108 87.1879 14.5297 88.1486 13.5689C89.1094 12.6082 90.3658 12.1278 91.9178 12.1278C93.4206 12.1278 94.6031 12.5959 95.4653 13.532C96.3275 14.4435 96.7586 15.6629 96.7586 17.1903V29.2H100.306V17.9294C100.306 14.9978 99.7026 12.756 98.4954 11.204ZM108.677 29.0877L108.676 29.0872C107.549 28.6417 106.67 27.879 106.044 26.8098L106.042 26.8059L106.039 26.802C105.438 25.7037 105.151 24.253 105.151 22.4746V12.4436H101.751V9.15135H105.151V4.85847L109.182 2.98587V9.15135H115.981V12.4436H109.182V22.918C109.182 23.9175 109.447 24.654 109.939 25.1704C110.456 25.6626 111.192 25.9279 112.192 25.9279H115.981V29.7376H112.635C111.128 29.7376 109.807 29.5242 108.678 29.0881L108.677 29.0877ZM109.716 25.3939C109.149 24.8026 108.866 23.9773 108.866 22.918V12.1278H115.666V9.46718H108.866V3.48082L105.467 5.06V9.46718H102.067V12.1278H105.467V22.4746C105.467 24.2237 105.75 25.6156 106.316 26.6503C106.908 27.6603 107.733 28.3747 108.792 28.7935C109.876 29.2123 111.157 29.4217 112.635 29.4217H115.666V26.2438H112.192C111.133 26.2438 110.307 25.9605 109.716 25.3939Z" fill="white"/>
<circle cx="14.8376" cy="15.0212" r="9.8962" fill="#B5D6D1"/>
<path fill-rule="evenodd" clip-rule="evenodd" d="M14.9029 5.51202C9.71645 5.51202 5.51202 9.71645 5.51202 14.9029C5.51202 20.0893 9.71645 24.2937 14.9029 24.2937C20.0893 24.2937 24.2937 20.0893 24.2937 14.9029C24.2937 9.71645 20.0893 5.51202 14.9029 5.51202ZM0 14.9029C0 6.67224 6.67224 0 14.9029 0C23.1335 0 29.8057 6.67224 29.8057 14.9029C29.8057 23.1335 23.1335 29.8057 14.9029 29.8057C6.67224 29.8057 0 23.1335 0 14.9029Z" fill="#0B5548"/>
<path fill-rule="evenodd" clip-rule="evenodd" d="M12.0039 34.108V18.2031H17.5903V34.108L14.7971 35.9968L12.0039 34.108Z" fill="#B5D6D1"/>
<path d="M19.0899 15.002C19.0899 17.3697 17.1705 19.2891 14.8028 19.2891C12.435 19.2891 10.5156 17.3697 10.5156 15.002C10.5156 12.6343 12.435 10.7148 14.8028 10.7148C17.1705 10.7148 19.0899 12.6343 19.0899 15.002Z" fill="#0B5548"/>
</svg>

