

<?xml version="1.0" encoding="UTF-8" standalone="no"?>
<!DOCTYPE svg PUBLIC "-//W3C//DTD SVG 1.1//EN" "http://www.w3.org/Graphics/SVG/1.1/DTD/svg11.dtd">
<svg xmlns="http://www.w3.org/2000/svg" version="1.1" viewBox="0.00 0.00 381.00 100.00">
<path fill="#09747d" d="
  M 221.20 0.00
  L 252.79 0.00
  L 264.52 45.68
  Q 264.85 46.97 265.18 45.68
  L 276.83 0.00
  L 308.43 0.00
  L 308.41 76.90
  Q 308.41 77.53 307.78 77.53
  L 288.81 77.53
  Q 288.54 77.52 288.54 77.26
  Q 288.57 53.40 288.55 29.49
  C 288.54 27.29 288.89 23.74 288.41 20.83
  Q 288.31 20.21 288.16 20.81
  L 273.81 77.27
  A 0.34 0.33 -83.3 0 1 273.49 77.53
  L 256.02 77.53
  Q 255.76 77.53 255.69 77.27
  L 241.31 20.97
  Q 240.78 18.88 240.78 21.03
  L 240.83 76.98
  A 0.56 0.55 -0.0 0 1 240.27 77.53
  L 221.78 77.53
  Q 221.17 77.53 221.17 76.92
  L 221.20 0.00
  Z"
/>
<path fill="#09747d" d="
  M 315.28 0.00
  L 356.49 0.00
  Q 358.61 0.29 360.75 0.48
  Q 378.67 2.11 381.00 19.88
  L 381.00 27.18
  Q 380.15 36.85 373.71 42.43
  C 364.77 50.17 350.91 49.28 340.03 48.75
  Q 339.47 48.73 339.47 49.28
  L 339.48 77.02
  Q 339.48 77.53 338.97 77.53
  L 315.54 77.52
  Q 315.25 77.52 315.25 77.24
  L 315.28 0.00
  Z
  M 339.44 16.26
  L 339.50 32.50
  A 0.44 0.44 0.0 0 0 339.94 32.94
  L 347.73 32.91
  A 10.01 8.42 -0.2 0 0 357.71 24.46
  L 357.71 24.18
  A 10.01 8.42 -0.2 0 0 347.67 15.79
  L 339.88 15.82
  A 0.44 0.44 0.0 0 0 339.44 16.26
  Z"
/>
<path fill="#09747d" d="
  M 64.24 60.74
  C 57.83 74.35 43.44 80.33 28.92 78.33
  C 15.19 76.44 4.92 65.81 1.76 52.26
  Q -1.20 39.53 2.65 26.75
  Q 6.73 13.21 19.05 6.94
  C 31.54 0.58 48.66 2.88 58.40 13.07
  Q 64.73 19.70 67.16 29.29
  Q 71.31 45.72 64.24 60.74
  Z
  M 11.12 49.72
  C 13.27 62.21 22.60 70.53 35.45 70.25
  C 56.04 69.80 61.45 47.61 57.61 31.51
  C 55.70 23.50 51.11 16.41 43.31 13.54
  C 34.20 10.18 23.15 12.41 16.89 19.63
  Q 12.18 25.06 11.00 33.65
  Q 9.83 42.23 11.12 49.72
  Z"
/>
<path fill="#09747d" d="
  M 75.38 100.00
  L 74.99 100.00
  Q 75.11 99.92 74.82 99.80
  A 0.48 0.47 -79.0 0 1 74.53 99.36
  L 74.42 25.74
  Q 74.42 24.50 75.66 24.62
  Q 78.43 24.90 81.25 24.66
  Q 82.59 24.54 82.56 25.89
  L 82.46 30.03
  Q 82.43 31.67 83.38 30.34
  Q 88.41 23.34 97.93 23.52
  C 109.45 23.73 116.67 32.60 118.63 43.76
  C 120.38 53.71 118.62 66.34 110.74 73.20
  C 102.81 80.12 91.29 81.23 83.93 72.98
  Q 83.29 72.27 83.29 73.23
  L 83.21 99.23
  Q 83.21 99.72 82.72 99.74
  L 75.38 100.00
  Z
  M 94.07 31.28
  Q 91.92 31.49 90.09 32.87
  C 84.03 37.44 82.36 44.40 82.38 51.79
  C 82.39 58.92 84.31 66.29 90.83 69.91
  Q 94.20 71.79 97.85 71.10
  Q 104.79 69.78 107.80 63.16
  C 109.83 58.71 110.71 53.36 110.04 48.40
  Q 109.76 46.31 109.55 44.25
  Q 109.21 40.90 107.06 37.16
  Q 103.64 31.19 96.14 30.75
  Q 95.48 30.71 94.90 31.02
  A 2.30 2.30 0.0 0 1 94.07 31.28
  Z"
/>
<path fill="#09747d" d="
  M 130.90 54.14
  Q 131.47 60.44 133.75 64.10
  Q 138.44 71.63 147.20 71.22
  Q 155.98 70.81 159.71 60.55
  Q 159.78 60.34 160.00 60.37
  Q 167.84 61.25 169.13 61.70
  Q 169.19 61.72 169.17 61.79
  Q 163.51 79.27 145.18 78.75
  C 137.55 78.54 131.01 75.74 126.53 69.40
  Q 122.53 63.74 121.90 57.22
  C 120.63 44.01 123.77 28.93 138.16 24.69
  C 152.37 20.51 165.05 27.55 168.23 42.28
  Q 169.38 47.63 169.24 53.05
  Q 169.23 53.55 168.73 53.55
  L 131.45 53.55
  Q 130.85 53.55 130.90 54.14
  Z
  M 131.81 46.10
  L 159.45 46.00
  A 0.21 0.21 0.0 0 0 159.66 45.79
  L 159.65 45.20
  A 14.06 13.82 89.8 0 0 145.78 31.19
  L 145.36 31.19
  A 14.06 13.82 89.8 0 0 131.59 45.30
  L 131.60 45.89
  A 0.21 0.21 0.0 0 0 131.81 46.10
  Z"
/>
<path fill="#09747d" d="
  M 183.18 31.21
  Q 192.41 20.22 206.32 24.79
  C 214.49 27.47 216.62 34.24 216.67 41.97
  Q 216.80 59.25 216.77 77.21
  Q 216.77 77.53 216.45 77.53
  L 208.05 77.53
  Q 207.72 77.53 207.73 77.20
  Q 207.90 57.94 207.66 41.22
  C 207.55 32.93 198.64 29.69 191.92 32.51
  C 184.74 35.54 183.71 41.92 183.69 48.72
  Q 183.65 63.06 183.71 77.11
  Q 183.71 77.53 183.29 77.53
  L 175.01 77.53
  Q 174.74 77.53 174.74 77.26
  L 174.74 25.00
  A 0.27 0.26 -90.0 0 1 175.00 24.73
  L 182.52 24.73
  Q 182.81 24.73 182.81 25.02
  L 182.67 31.02
  Q 182.65 31.84 183.18 31.21
  Z"
/>
<path fill="#09747d" d="
  M 356.96 72.58
  A 4.44 4.44 0.0 0 1 352.52 77.02
  A 4.44 4.44 0.0 0 1 348.08 72.58
  A 4.44 4.44 0.0 0 1 352.52 68.14
  A 4.44 4.44 0.0 0 1 356.96 72.58
  Z
  M 354.15 71.73
  Q 353.07 73.17 354.37 74.76
  A 0.44 0.43 46.2 0 0 355.04 74.78
  Q 357.55 71.93 354.37 69.84
  Q 352.85 68.83 353.74 70.42
  Q 353.86 70.64 354.05 70.80
  Q 354.52 71.22 354.15 71.73
  Z
  M 350.86 70.52
  A 0.23 0.22 -88.9 0 0 350.60 70.24
  C 348.20 70.84 348.32 73.70 350.26 74.94
  Q 350.89 75.35 350.74 74.61
  Q 350.32 72.51 350.86 70.52
  Z
  M 351.83 70.83
  A 0.58 0.57 46.4 0 0 351.81 71.74
  Q 352.23 72.09 352.72 71.83
  A 0.62 0.61 42.6 0 0 352.67 70.72
  Q 352.23 70.53 351.83 70.83
  Z
  M 353.62 74.88
  Q 353.36 73.40 351.95 73.02
  A 0.41 0.41 0.0 0 0 351.44 73.47
  Q 351.55 74.32 351.02 74.98
  Q 350.73 75.34 351.14 75.54
  Q 352.22 76.09 353.52 75.74
  A 0.47 0.46 74.6 0 0 353.84 75.16
  Q 353.79 74.98 353.62 74.88
  Z"
/>
<path fill="#09747d" d="
  M 0.00 87.23
  L 66.52 87.23
  Q 66.76 87.23 66.76 87.47
  L 66.76 94.52
  A 0.28 0.28 0.0 0 1 66.48 94.80
  L 0.00 94.79
  L 0.00 87.23
  Z"
/>
<path fill="#09747d" d="
  M 381.00 87.30
  L 381.00 94.73
  L 89.80 94.84
  Q 89.59 94.84 89.59 94.63
  L 89.60 87.43
  Q 89.60 87.20 89.82 87.20
  L 381.00 87.30
  Z"
/>
</svg>

