<?xml version="1.0" encoding="UTF-8"?>
<!DOCTYPE svg PUBLIC "-//W3C//DTD SVG 1.1//EN" "http://www.w3.org/Graphics/SVG/1.1/DTD/svg11.dtd">
<svg xmlns="http://www.w3.org/2000/svg" version="1.1" width="226px" height="64px" style="shape-rendering:geometricPrecision; text-rendering:geometricPrecision; image-rendering:optimizeQuality; fill-rule:evenodd; clip-rule:evenodd" xmlns:xlink="http://www.w3.org/1999/xlink">
<g><path style="opacity:1" fill="#fdfdfe" d="M -0.5,-0.5 C 74.8333,-0.5 150.167,-0.5 225.5,-0.5C 225.5,20.8333 225.5,42.1667 225.5,63.5C 150.167,63.5 74.8333,63.5 -0.5,63.5C -0.5,42.1667 -0.5,20.8333 -0.5,-0.5 Z"/></g>
<g><path style="opacity:1" fill="#4f8af1" d="M 54.5,27.5 C 55.9079,31.6859 56.5745,36.0192 56.5,40.5C 56.7709,42.3797 56.1042,43.713 54.5,44.5C 54.6495,43.448 54.4828,42.448 54,41.5C 52.3845,42.8009 50.8845,42.8009 49.5,41.5C 50.8221,41.67 51.9887,41.3366 53,40.5C 55.1812,33.6655 53.1812,28.6655 47,25.5C 44.3516,26.2192 42.8516,27.8859 42.5,30.5C 41.5116,29.205 40.5116,27.8717 39.5,26.5C 45.0629,20.829 50.0629,21.1623 54.5,27.5 Z"/></g>
<g><path style="opacity:1" fill="#3e60c9" d="M 89.5,24.5 C 100.183,25.0062 104.016,30.3396 101,40.5C 98.1034,45.1549 93.9367,46.6549 88.5,45C 82.5997,41.19 81.0997,36.0233 84,29.5C 85.7297,27.5981 87.563,25.9314 89.5,24.5 Z"/></g>
<g><path style="opacity:1" fill="#3a5fc8" d="M 155.5,25.5 C 169.194,23.0223 174.36,28.3556 171,41.5C 170.167,42.3333 169.333,43.1667 168.5,44C 164.27,45.2899 159.936,45.7899 155.5,45.5C 155.5,38.8333 155.5,32.1667 155.5,25.5 Z"/></g>
<g><path style="opacity:1" fill="#345ac7" d="M 179.5,25.5 C 181.766,25.1412 183.599,25.8078 185,27.5C 187.069,33.2057 189.235,38.8724 191.5,44.5C 187.926,45.8607 186.26,44.5273 186.5,40.5C 183.813,40.3359 181.146,40.5026 178.5,41C 178.207,44.0944 176.541,45.5944 173.5,45.5C 175.5,38.8333 177.5,32.1667 179.5,25.5 Z"/></g>
<g><path style="opacity:1" fill="#3e60c9" d="M 198.5,24.5 C 203.863,24.0498 207.863,26.0498 210.5,30.5C 209.833,30.8333 209.167,31.1667 208.5,31.5C 198.831,25.6642 194.998,28.3309 197,39.5C 198.028,41.5159 199.695,42.5159 202,42.5C 204.547,41.7868 206.714,40.4535 208.5,38.5C 209.167,38.8333 209.833,39.1667 210.5,39.5C 207.967,45.2016 203.634,47.0349 197.5,45C 192.847,41.2115 191.347,36.3782 193,30.5C 194.36,27.9774 196.193,25.9774 198.5,24.5 Z"/></g>
<g><path style="opacity:1" fill="#edf2fd" d="M 49.5,41.5 C 47.4302,37.7004 45.0969,34.0338 42.5,30.5C 42.8516,27.8859 44.3516,26.2192 47,25.5C 53.1812,28.6655 55.1812,33.6655 53,40.5C 51.9887,41.3366 50.8221,41.67 49.5,41.5 Z"/></g>
<g><path style="opacity:1" fill="#4478e3" d="M 39.5,26.5 C 40.5116,27.8717 41.5116,29.205 42.5,30.5C 45.0969,34.0338 47.4302,37.7004 49.5,41.5C 50.8845,42.8009 52.3845,42.8009 54,41.5C 54.4828,42.448 54.6495,43.448 54.5,44.5C 52.3718,45.6291 50.0385,45.7958 47.5,45C 44.9917,41.6619 42.325,38.4952 39.5,35.5C 36.675,38.4952 34.0083,41.6619 31.5,45C 24.4037,46.7431 21.0704,43.9098 21.5,36.5C 21.5634,28.6128 25.3968,23.9462 33,22.5C 35.8366,22.8532 38.0032,24.1865 39.5,26.5 Z"/></g>
<g><path style="opacity:1" fill="#f2f5fd" d="M 30.5,26.5 C 33.8434,26.5011 36.1767,28.0011 37.5,31C 34.9305,34.1283 32.5972,37.4616 30.5,41C 29.2068,41.49 27.8734,41.6567 26.5,41.5C 26.335,38.1501 26.5017,34.8168 27,31.5C 27.6972,29.4156 28.8639,27.7489 30.5,26.5 Z"/></g>
<g><path style="opacity:1" fill="#f9fafd" d="M 89.5,28.5 C 97.5623,27.9232 100.396,31.5899 98,39.5C 94.3333,43.5 90.6667,43.5 87,39.5C 85.8118,35.2586 86.6451,31.5919 89.5,28.5 Z"/></g>
<g><path style="opacity:1" fill="#f9fafd" d="M 159.5,28.5 C 165.422,27.2782 168.422,29.6115 168.5,35.5C 168.056,40.8044 165.056,43.1378 159.5,42.5C 159.5,37.8333 159.5,33.1667 159.5,28.5 Z"/></g>
<g><path style="opacity:1" fill="#2e57c6" d="M 105.5,30.5 C 109.014,30.7639 112.681,30.9306 116.5,31C 120.5,35.6667 120.5,40.3333 116.5,45C 113.901,45.769 111.401,45.6023 109,44.5C 108.503,46.8098 108.337,49.1432 108.5,51.5C 107.5,51.5 106.5,51.5 105.5,51.5C 105.5,44.5 105.5,37.5 105.5,30.5 Z"/></g>
<g><path style="opacity:1" fill="#345ac7" d="M 125.5,30.5 C 132.175,29.186 135.509,31.8527 135.5,38.5C 132.167,38.5 128.833,38.5 125.5,38.5C 125.78,42.2253 127.78,43.392 131.5,42C 132.833,40 134.167,40 135.5,42C 131.527,46.4231 127.36,46.5898 123,42.5C 120.511,37.7565 121.345,33.7565 125.5,30.5 Z"/></g>
<g><path style="opacity:1" fill="#395dc8" d="M 138.5,30.5 C 141.154,31.8215 143.821,31.8215 146.5,30.5C 148.374,30.3898 149.874,31.0564 151,32.5C 151.499,36.8206 151.666,41.1539 151.5,45.5C 150.5,45.5 149.5,45.5 148.5,45.5C 148.665,41.8183 148.499,38.1516 148,34.5C 146.333,33.1667 144.667,33.1667 143,34.5C 142.501,38.1516 142.335,41.8183 142.5,45.5C 141.167,45.5 139.833,45.5 138.5,45.5C 138.5,40.5 138.5,35.5 138.5,30.5 Z"/></g>
<g><path style="opacity:1" fill="#dfe5f6" d="M 181.5,30.5 C 183.448,32.3204 184.448,34.6538 184.5,37.5C 182.712,37.7852 181.045,37.4519 179.5,36.5C 180.372,34.5504 181.039,32.5504 181.5,30.5 Z"/></g>
<g><path style="opacity:1" fill="#f2f4fb" d="M 110.5,33.5 C 116.643,34.0262 117.976,36.8595 114.5,42C 109.504,42.6643 107.67,40.4977 109,35.5C 109.717,34.9558 110.217,34.2891 110.5,33.5 Z"/></g>
<g><path style="opacity:1" fill="#73a3f6" d="M 54.5,27.5 C 57.3797,31.5479 58.0464,35.8813 56.5,40.5C 56.5745,36.0192 55.9079,31.6859 54.5,27.5 Z"/></g>
<g><path style="opacity:1" fill="#ccd6f1" d="M 126.5,33.5 C 128.977,33.0508 130.977,33.7175 132.5,35.5C 130.167,36.8333 127.833,36.8333 125.5,35.5C 125.863,34.8165 126.196,34.1499 126.5,33.5 Z"/></g>
</svg>

