

<?xml version="1.0" encoding="UTF-8"?>
<!DOCTYPE svg PUBLIC "-//W3C//DTD SVG 1.1//EN" "http://www.w3.org/Graphics/SVG/1.1/DTD/svg11.dtd">
<svg xmlns="http://www.w3.org/2000/svg" version="1.1" width="1024px" height="582px" style="shape-rendering:geometricPrecision; text-rendering:geometricPrecision; image-rendering:optimizeQuality; fill-rule:evenodd; clip-rule:evenodd" xmlns:xlink="http://www.w3.org/1999/xlink">
<g><path style="opacity:0.931" fill="#d62629" d="M -0.5,279.5 C -0.5,278.833 -0.5,278.167 -0.5,277.5C 43.5168,276.883 87.5168,275.717 131.5,274C 120.379,265.254 115.045,253.754 115.5,239.5C 113.076,239.808 110.743,239.474 108.5,238.5C 114.407,224.941 120.407,211.441 126.5,198C 142.118,195.972 157.785,194.472 173.5,193.5C 172.865,196.493 172.699,199.493 173,202.5C 175.333,203.833 177.667,205.167 180,206.5C 186.692,194.318 197.025,188.318 211,188.5C 231.364,192.425 251.364,197.758 271,204.5C 276.967,194.065 282.801,183.565 288.5,173C 286.647,167.612 285.314,162.112 284.5,156.5C 283.07,156.579 281.736,156.246 280.5,155.5C 263.399,162.14 246.732,169.64 230.5,178C 228.48,179.217 226.48,179.383 224.5,178.5C 221.833,180.167 219.167,181.833 216.5,183.5C 208.48,179.133 200.48,174.8 192.5,170.5C 190.089,161.691 187.756,152.858 185.5,144C 185.585,142.893 185.919,141.893 186.5,141C 211.135,128.349 235.802,115.682 260.5,103C 261.5,102.333 262.5,102.333 263.5,103C 265.365,105.858 267.532,108.358 270,110.5C 273.207,109.264 276.374,107.931 279.5,106.5C 280.641,104.579 280.808,102.579 280,100.5C 276.268,99.312 272.768,97.6454 269.5,95.5C 265.629,85.2198 261.963,74.8865 258.5,64.5C 259.233,60.3011 260.566,56.3011 262.5,52.5C 266.796,51.6725 271.129,51.1725 275.5,51C 273.478,46.9709 270.312,44.4709 266,43.5C 265.667,41.1667 265.333,38.8333 265,36.5C 262.376,32.752 259.876,28.9187 257.5,25C 258.623,23.9563 259.956,23.2896 261.5,23C 269.864,21.4923 278.198,19.8256 286.5,18C 288.5,17.3333 289.833,16 290.5,14C 294.871,13.1725 299.205,13.3391 303.5,14.5C 305.809,20.3655 309.142,21.3655 313.5,17.5C 315.9,18.0183 317.9,19.185 319.5,21C 321.744,21.9057 324.077,22.4057 326.5,22.5C 331.466,20.4455 336.633,18.7788 342,17.5C 353.785,19.7558 365.618,19.9225 377.5,18C 392.167,17.3333 406.833,17.3333 421.5,18C 437.779,22.4865 454.112,26.8199 470.5,31C 501.32,43.0777 531.654,56.2443 561.5,70.5C 562.865,73.6866 563.699,77.0199 564,80.5C 564.333,88.1667 564.667,95.8333 565,103.5C 566.461,99.768 568.294,96.268 570.5,93C 573.482,92.502 576.482,92.3354 579.5,92.5C 578.823,97.8742 578.823,103.208 579.5,108.5C 584.238,107.211 587.238,109.044 588.5,114C 587.251,115.538 587.418,116.705 589,117.5C 594.539,117.711 599.539,119.378 604,122.5C 605.608,125.793 605.775,129.127 604.5,132.5C 605.628,133.262 606.795,133.929 608,134.5C 606.969,142.988 609.302,150.322 615,156.5C 615.356,153.271 617.19,151.771 620.5,152C 617.35,147.54 616.016,142.54 616.5,137C 616.852,124.135 623.186,115.635 635.5,111.5C 636.386,110.675 636.719,109.675 636.5,108.5C 640.5,108.5 644.5,108.5 648.5,108.5C 648.281,109.675 648.614,110.675 649.5,111.5C 663.776,116.373 670.276,126.373 669,141.5C 667.705,147.587 665.205,153.087 661.5,158C 661.93,159.434 662.764,160.601 664,161.5C 664.499,166.155 664.666,170.821 664.5,175.5C 666.5,175.5 668.5,175.5 670.5,175.5C 670.5,164.5 670.5,153.5 670.5,142.5C 671.5,142.5 672.5,142.5 673.5,142.5C 673.333,124.497 673.5,106.497 674,88.5C 675.333,87.1667 676.667,85.8333 678,84.5C 678.667,71.8333 678.667,59.1667 678,46.5C 675.233,43.0802 673.4,39.2468 672.5,35C 673.363,30.5196 674.03,26.0196 674.5,21.5C 675.822,21.33 676.989,21.6634 678,22.5C 682.091,28.3467 686.424,34.0133 691,39.5C 691.333,54.5 691.667,69.5 692,84.5C 693.333,85.8333 694.667,87.1667 696,88.5C 696.501,81.4841 697.168,74.4841 698,67.5C 698.833,66.6667 699.667,65.8333 700.5,65C 724.5,63.8948 748.5,62.8948 772.5,62C 774.373,63.0847 776.04,64.418 777.5,66C 783.254,67.5835 788.754,69.7502 794,72.5C 794.684,73.7839 794.517,74.9505 793.5,76C 790.756,76.8035 788.089,77.8035 785.5,79C 790.534,89.9421 793.867,101.442 795.5,113.5C 816.55,116.245 837.55,119.412 858.5,123C 874.762,125.985 890.762,129.985 906.5,135C 911.427,136.875 915.26,140.042 918,144.5C 918.5,153.827 918.666,163.161 918.5,172.5C 921.448,172.223 924.281,172.556 927,173.5C 927.333,179.833 927.667,186.167 928,192.5C 931.519,196.537 933.685,201.204 934.5,206.5C 933.167,206.5 931.833,206.5 930.5,206.5C 930.833,208.5 931.167,210.5 931.5,212.5C 932.833,212.5 934.167,212.5 935.5,212.5C 935.666,217.844 935.499,223.177 935,228.5C 930.263,229.469 925.43,229.803 920.5,229.5C 922.765,248.124 916.432,262.958 901.5,274C 941.972,275.258 982.305,276.925 1022.5,279C 681.5,279.5 340.5,279.667 -0.5,279.5 Z M 366.5,24.5 C 384.836,24.3334 403.17,24.5001 421.5,25C 436.167,29 450.833,33 465.5,37C 472.734,39.0776 479.734,41.7443 486.5,45C 508.29,55.3948 529.956,66.0615 551.5,77C 549.663,78.4803 547.663,78.4803 545.5,77C 523.5,67 501.5,57 479.5,47C 459.413,41.9783 439.413,36.645 419.5,31C 393.533,29.1825 367.533,28.1825 341.5,28C 349.915,26.6657 358.248,25.499 366.5,24.5 Z M 328.5,40.5 C 359.082,42.4719 389.416,46.3052 419.5,52C 436.443,56.8697 453.443,61.5363 470.5,66C 493.736,75.0205 516.736,84.5205 539.5,94.5C 537.493,99.1888 534.993,103.522 532,107.5C 464.354,82.63 395.188,63.13 324.5,49C 324.167,48.6667 323.833,48.3333 323.5,48C 325.301,45.5574 326.968,43.0574 328.5,40.5 Z M 315.5,66.5 C 383.919,91.9402 453.919,112.107 525.5,127C 522.958,133.665 520.958,140.499 519.5,147.5C 472.542,140.676 426.542,129.842 381.5,115C 358.167,105 334.833,95 311.5,85C 312.777,78.8415 314.111,72.6748 315.5,66.5 Z M 311.5,104.5 C 331.951,116.229 352.618,127.729 373.5,139C 393.698,145.799 414.032,152.132 434.5,158C 460.8,161.829 487.133,165.329 513.5,168.5C 515.185,175.489 512.518,178.489 505.5,177.5C 481.169,175.959 456.836,174.459 432.5,173C 412.505,167.668 392.505,162.334 372.5,157C 351.281,144.894 331.281,131.06 312.5,115.5C 311.511,111.893 311.177,108.226 311.5,104.5 Z M 596.5,123.5 C 599.955,124.128 601.122,126.128 600,129.5C 598.606,127.612 597.44,125.612 596.5,123.5 Z M 588.5,124.5 C 592.135,126.607 594.301,129.607 595,133.5C 591.814,131.161 589.648,128.161 588.5,124.5 Z M 311.5,126.5 C 330.593,141.886 350.593,156.052 371.5,169C 382.392,173.278 393.392,177.278 404.5,181C 386.829,181.262 369.162,180.929 351.5,180C 343.83,179.374 336.33,177.874 329,175.5C 323.92,168.348 319.586,160.682 316,152.5C 313.958,143.916 312.458,135.249 311.5,126.5 Z M 242.5,164.5 C 254.817,155.03 267.317,145.697 280,136.5C 279.543,141.27 278.043,145.77 275.5,150C 264.954,155.903 253.954,160.736 242.5,164.5 Z M 597.5,151.5 C 598.833,151.5 600.167,151.5 601.5,151.5C 601.665,155.182 601.499,158.848 601,162.5C 600.027,159.221 598.527,156.221 596.5,153.5C 596.863,152.817 597.196,152.15 597.5,151.5 Z M 605.5,151.5 C 609.189,156.363 612.523,161.53 615.5,167C 613.778,171.408 610.778,172.575 606.5,170.5C 606.653,164.131 606.32,157.797 605.5,151.5 Z M 600.5,167.5 C 601.773,168.077 601.773,168.743 600.5,169.5C 599.537,169.03 599.537,168.363 600.5,167.5 Z M 695.5,170.5 C 696.8,173.024 696.8,175.691 695.5,178.5C 694.447,177.562 693.78,176.395 693.5,175C 694.414,173.594 695.08,172.094 695.5,170.5 Z M 596.5,173.5 C 601.067,173.274 601.4,174.774 597.5,178C 595.44,179.696 593.107,180.863 590.5,181.5C 588.853,180.722 587.52,179.556 586.5,178C 590.422,177.538 593.755,176.038 596.5,173.5 Z M 612.5,175.5 C 613.5,175.5 614.5,175.5 615.5,175.5C 615.5,177.833 615.5,180.167 615.5,182.5C 611.486,182.666 607.486,182.499 603.5,182C 606.402,179.583 609.402,177.416 612.5,175.5 Z M 203.5,206.5 C 208.054,206.255 212.554,206.588 217,207.5C 228.052,212.609 238.885,218.109 249.5,224C 256.938,226.788 264.605,228.621 272.5,229.5C 270.712,231.576 269.046,233.743 267.5,236C 266.207,236.49 264.873,236.657 263.5,236.5C 263.5,238.5 263.5,240.5 263.5,242.5C 267.226,242.823 270.893,242.489 274.5,241.5C 279.255,234.324 284.255,227.324 289.5,220.5C 304.819,219.501 320.152,219.167 335.5,219.5C 335.5,232.5 335.5,245.5 335.5,258.5C 337.167,258.5 338.833,258.5 340.5,258.5C 340.5,247.167 340.5,235.833 340.5,224.5C 341.5,224.5 342.5,224.5 343.5,224.5C 338.211,244.189 343.211,260.689 358.5,274C 299.5,274.667 240.5,274.667 181.5,274C 197.927,260.012 202.093,242.846 194,222.5C 192.623,220.246 191.123,218.08 189.5,216C 193.402,211.561 198.069,208.394 203.5,206.5 Z M 707.5,217.5 C 713.129,219.402 715.796,223.402 715.5,229.5C 716.833,229.5 718.167,229.5 719.5,229.5C 719.5,233.167 719.5,236.833 719.5,240.5C 733.305,240.544 746.805,241.544 760,243.5C 773.195,241.544 786.695,240.544 800.5,240.5C 800.5,235.5 800.5,230.5 800.5,225.5C 803.967,225.446 806.634,226.946 808.5,230C 812.167,231.5 815.833,233 819.5,234.5C 820.497,242.138 820.831,249.804 820.5,257.5C 822.144,257.714 823.644,257.38 825,256.5C 825.172,252.129 825.672,247.796 826.5,243.5C 827.5,244 828.5,244.5 829.5,245C 832.653,256.807 838.987,266.474 848.5,274C 732.167,274.667 615.833,274.667 499.5,274C 511.718,265.396 517.384,253.562 516.5,238.5C 518.144,238.714 519.644,238.38 521,237.5C 521.499,233.179 521.666,228.846 521.5,224.5C 525.167,224.5 528.833,224.5 532.5,224.5C 532.5,225.5 532.5,226.5 532.5,227.5C 535.167,227.5 537.833,227.5 540.5,227.5C 540.5,226.5 540.5,225.5 540.5,224.5C 556.167,224.5 571.833,224.5 587.5,224.5C 587.5,225.5 587.5,226.5 587.5,227.5C 590.5,227.5 593.5,227.5 596.5,227.5C 596.5,226.5 596.5,225.5 596.5,224.5C 602.279,224.409 607.946,225.075 613.5,226.5C 613.5,229.5 613.5,232.5 613.5,235.5C 618.167,235.5 622.833,235.5 627.5,235.5C 627.5,236.5 627.5,237.5 627.5,238.5C 630.167,238.5 632.833,238.5 635.5,238.5C 635.5,237.5 635.5,236.5 635.5,235.5C 648.5,235.5 661.5,235.5 674.5,235.5C 674.5,236.5 674.5,237.5 674.5,238.5C 676.833,238.5 679.167,238.5 681.5,238.5C 681.5,237.5 681.5,236.5 681.5,235.5C 686.511,235.666 691.511,235.499 696.5,235C 697.297,231.255 697.797,227.421 698,223.5C 700.843,220.837 704.009,218.837 707.5,217.5 Z M 426.5,238.5 C 428.167,238.5 429.833,238.5 431.5,238.5C 431.326,253.152 436.993,264.986 448.5,274C 435.5,274.667 422.5,274.667 409.5,274C 421.724,265.384 427.39,253.551 426.5,238.5 Z"/></g>
<g><path style="opacity:0.967" fill="#d62629" d="M -0.5,489.5 C -0.5,464.167 -0.5,438.833 -0.5,413.5C 16.3928,377.83 44.7262,358.33 84.5,355C 122.604,351.467 154.104,363.967 179,392.5C 202.08,427.119 204.414,463.119 186,500.5C 170.523,525.272 148.356,540.772 119.5,547C 85.854,553.586 55.1873,546.919 27.5,527C 15.1935,516.553 5.86014,504.053 -0.5,489.5 Z M 91.5,413.5 C 116.501,414.5 130.168,427.5 132.5,452.5C 129.902,479.271 115.235,491.771 88.5,490C 64.5088,482.535 55.0088,466.369 60,441.5C 65.0348,425.963 75.5348,416.629 91.5,413.5 Z"/></g>
<g><path style="opacity:0.954" fill="#d62629" d="M 782.5,356.5 C 783.873,356.343 785.207,356.51 786.5,357C 797.333,365.006 808,373.173 818.5,381.5C 805.206,397.129 791.206,412.129 776.5,426.5C 762.907,409.215 746.24,405.382 726.5,415C 710.826,426.541 704.659,442.041 708,461.5C 714.574,486.385 730.741,497.219 756.5,494C 764.092,492.706 769.759,488.706 773.5,482C 759.838,481.924 746.171,482.09 732.5,482.5C 738.142,466.076 744.475,449.909 751.5,434C 779.831,433.5 808.165,433.333 836.5,433.5C 837.635,452.481 835.802,471.148 831,489.5C 818.687,520.798 795.853,539.298 762.5,545C 722.15,550.224 689.317,537.057 664,505.5C 645.529,476.074 642.529,445.074 655,412.5C 670.706,380.207 696.539,362.041 732.5,358C 748.185,356.313 763.518,357.813 778.5,362.5C 779.844,360.471 781.177,358.471 782.5,356.5 Z"/></g>
<g><path style="opacity:0.566" fill="#d62629" d="M 998.5,357.5 C 1017.19,356.686 1024.36,365.353 1020,383.5C 1011.03,394.16 1001.03,395.16 990,386.5C 983.113,373.722 985.947,364.055 998.5,357.5 Z M 1002.5,361.5 C 1016.03,364.22 1019.53,371.553 1013,383.5C 1011.5,381.333 1010,379.167 1008.5,377C 1012.29,374.947 1013.46,371.781 1012,367.5C 1011.17,366.667 1010.33,365.833 1009.5,365C 1005.5,364.667 1001.5,364.333 997.5,364C 999.315,363.243 1000.98,362.41 1002.5,361.5 Z M 995.5,364.5 C 996.654,370.987 996.821,377.654 996,384.5C 990.234,378.003 990.067,371.337 995.5,364.5 Z M 1001.5,368.5 C 1003.83,368.247 1005.83,368.914 1007.5,370.5C 1005.98,372.283 1003.98,372.949 1001.5,372.5C 1001.5,371.167 1001.5,369.833 1001.5,368.5 Z M 1001.5,377.5 C 1004.16,379.089 1006.16,381.422 1007.5,384.5C 1008.38,385.251 1009.38,385.751 1010.5,386C 1006.17,388 1001.83,388 997.5,386C 998.793,385.51 1000.13,385.343 1001.5,385.5C 1001.5,382.833 1001.5,380.167 1001.5,377.5 Z"/></g>
<g><path style="opacity:0.952" fill="#d62629" d="M 222.5,362.5 C 262.5,362.5 302.5,362.5 342.5,362.5C 324.75,404.414 306.417,446.08 287.5,487.5C 305.167,488.167 322.833,488.833 340.5,489.5C 333.79,507.801 326.79,525.968 319.5,544C 278.69,544.993 238.023,544.66 197.5,543C 216.371,501.425 235.371,459.925 254.5,418.5C 236.846,417.5 219.179,417.167 201.5,417.5C 207.663,398.841 214.663,380.508 222.5,362.5 Z"/></g>
<g><path style="opacity:0.952" fill="#d62629" d="M 377.5,362.5 C 396.076,362.174 414.576,362.507 433,363.5C 433.667,423.5 433.667,483.5 433,543.5C 413.243,544.493 393.409,544.826 373.5,544.5C 373.5,502.167 373.5,459.833 373.5,417.5C 366.655,417.958 359.988,417.458 353.5,416C 361.111,397.948 369.111,380.115 377.5,362.5 Z"/></g>
<g><path style="opacity:0.959" fill="#d62629" d="M 463.5,362.5 C 483.178,362.167 502.845,362.5 522.5,363.5C 537.918,388.668 553.085,414.001 568,439.5C 568.333,414.167 568.667,388.833 569,363.5C 587.424,362.507 605.924,362.174 624.5,362.5C 624.5,423.167 624.5,483.833 624.5,544.5C 607.786,544.819 591.119,544.485 574.5,543.5C 558.197,518.032 541.697,492.698 525,467.5C 524.5,493.165 524.333,518.831 524.5,544.5C 503.924,544.827 483.424,544.493 463,543.5C 462.171,483.096 462.338,422.763 463.5,362.5 Z"/></g>
<g><path style="opacity:0.951" fill="#d62629" d="M 1023.5,532.5 C 1023.5,536.5 1023.5,540.5 1023.5,544.5C 1007.16,544.667 990.83,544.5 974.5,544C 970.037,533.572 965.704,523.072 961.5,512.5C 939.833,511.167 918.167,511.167 896.5,512.5C 892.79,523.134 888.79,533.634 884.5,544C 867.167,544.667 849.833,544.667 832.5,544C 832.167,543.667 831.833,543.333 831.5,543C 847.456,501.633 863.123,460.133 878.5,418.5C 872.537,417.504 866.537,417.171 860.5,417.5C 867.597,399.301 875.264,381.301 883.5,363.5C 908.167,362.167 932.833,362.167 957.5,363.5C 979.528,419.933 1001.53,476.266 1023.5,532.5 Z M 928.5,414.5 C 935.243,433.559 941.91,452.725 948.5,472C 935.167,472.667 921.833,472.667 908.5,472C 915.068,452.795 921.735,433.628 928.5,414.5 Z"/></g>
</svg>

