
<svg id="Layer_1" data-name="Layer 1" xmlns="http://www.w3.org/2000/svg" xmlns:xlink="http://www.w3.org/1999/xlink" viewBox="0 0 367.86 54.26"><defs><style>.cls-1{fill:#a5afb9;}.cls-2{fill:url(#radial-gradient);}.cls-3{fill:#6fac41;}.cls-4{fill:#598c33;}</style><radialGradient id="radial-gradient" cx="92.93" cy="21.5" r="59.01" gradientUnits="userSpaceOnUse"><stop offset="0.35" stop-color="#598c33"/><stop offset="1" stop-color="#fff"/></radialGradient></defs><path class="cls-1" d="M279.84,54.12h-1.51V46.43h0l-4.71,6.13-4.67-6.13h0v7.69h-1.5V44.71h1.88l4.34,5.69L278,44.71h1.87Z" transform="translate(-0.13 -0.08)"/><path class="cls-1" d="M293.21,54.12h-1.64L290.52,52h-6.1l-1.05,2.1h-1.64l4.79-9.41h1.9Zm-3.42-3.51-2.31-4.56-2.33,4.56Z" transform="translate(-0.13 -0.08)"/><path class="cls-1" d="M302.64,46.11h-4.33v8h-1.5v-8h-4.33v-1.4h10.16Z" transform="translate(-0.13 -0.08)"/><path class="cls-1" d="M314.05,54.12h-9.49V44.71h9.14v1.4h-7.64v2.42h5.31v1.41h-5.31v2.78h8Z" transform="translate(-0.13 -0.08)"/><path class="cls-1" d="M326.5,54.12h-1.74l-2.46-3.59h-4.57v3.59h-1.5V44.71h7.14a3.05,3.05,0,0,1,2.24.8,2.86,2.86,0,0,1,.82,2.16,2.73,2.73,0,0,1-.67,1.93,2.8,2.8,0,0,1-1.68.86Zm-3.35-5c1.16,0,1.74-.49,1.74-1.45s-.63-1.57-1.88-1.57h-5.28v3Z" transform="translate(-0.13 -0.08)"/><path class="cls-1" d="M330.46,54.12H329V44.71h1.5Z" transform="translate(-0.13 -0.08)"/><path class="cls-1" d="M343.84,54.12H342.2L341.15,52h-6.1L334,54.12h-1.64l4.8-9.41h1.89Zm-3.42-3.51-2.3-4.56-2.34,4.56Z" transform="translate(-0.13 -0.08)"/><path class="cls-1" d="M354.23,54.12h-8.5V44.71h1.51v8h7Z" transform="translate(-0.13 -0.08)"/><path class="cls-1" d="M364.56,46.92a8.68,8.68,0,0,0-4.1-1.07,5.36,5.36,0,0,0-2.13.34,1.06,1.06,0,0,0-.74.94c0,.41.26.72.79.91a7,7,0,0,0,1.84.28c1.25.09,2.08.16,2.48.21a5.44,5.44,0,0,1,2.52.87,2.18,2.18,0,0,1,.81,1.81,2.59,2.59,0,0,1-1.28,2.31,6.77,6.77,0,0,1-3.67.82,8.28,8.28,0,0,1-5.39-1.58l.82-1.13A8.42,8.42,0,0,0,361.1,53a5.31,5.31,0,0,0,2.46-.46,1.33,1.33,0,0,0,.84-1.21c0-.59-.37-1-1.1-1.19a23,23,0,0,0-3.1-.33,8.77,8.77,0,0,1-3.15-.62A1.91,1.91,0,0,1,356,47.34a2.38,2.38,0,0,1,1.2-2.1,6.23,6.23,0,0,1,3.37-.76,8.32,8.32,0,0,1,4.91,1.39Z" transform="translate(-0.13 -0.08)"/><path class="cls-2" d="M.43,7H21.71a7.54,7.54,0,0,1,3.37.78,9.18,9.18,0,0,1,2.77,2.12A10.13,10.13,0,0,1,29.73,13a9.79,9.79,0,0,1,.65,3.76,9.59,9.59,0,0,1-.74,3.52,9.4,9.4,0,0,1-1.9,2.86,9,9,0,0,1-2.8,1.92,8.25,8.25,0,0,1-3.38.7H5.68a.28.28,0,0,0-.31.32v9.8c0,.21-.1.32-.3.32H.43c-.2,0-.3-.11-.3-.32V7.39Q.13,7,.43,7ZM5.37,20a.28.28,0,0,0,.31.32h16A3.23,3.23,0,0,0,23,20a3.9,3.9,0,0,0,1.12-.78,3.49,3.49,0,0,0,.76-1.16,3.9,3.9,0,0,0,.26-1.42,4.24,4.24,0,0,0-.28-1.54,4.63,4.63,0,0,0-.76-1.3,4.18,4.18,0,0,0-1.08-.9,2.6,2.6,0,0,0-1.3-.34h-16a.28.28,0,0,0-.31.32Zm30-12.64c0-.16.07-.24.23-.24H56.91a7.65,7.65,0,0,1,3.44.78A8.91,8.91,0,0,1,63.09,10a10.14,10.14,0,0,1,1.82,3,9.59,9.59,0,0,1,.67,3.5,8.8,8.8,0,0,1-.65,3.4,8.41,8.41,0,0,1-1.79,2.72,8.23,8.23,0,0,1-2.71,1.82,9.34,9.34,0,0,1-3.4.7c-.1,0-.12,0,0,.12L66.3,35.91a.16.16,0,0,1,0,.2.19.19,0,0,1-.17.12H60a.22.22,0,0,1-.15-.08l-9.58-11a.22.22,0,0,0-.15-.08H40.8a.21.21,0,0,0-.23.24V36c0,.16-.07.24-.23.24H35.56c-.16,0-.23-.08-.23-.24ZM40.8,19.59H56.91a4.29,4.29,0,0,0,1.22-.18,3.47,3.47,0,0,0,1.1-.56,2.76,2.76,0,0,0,.8-1,3.1,3.1,0,0,0,.3-1.4,4,4,0,0,0-.28-1.5,3.86,3.86,0,0,0-.78-1.22,4.18,4.18,0,0,0-1.1-.84,2.74,2.74,0,0,0-1.26-.32H40.8a.21.21,0,0,0-.23.24v6.52A.21.21,0,0,0,40.8,19.59ZM122.42,7h3.77a.41.41,0,0,1,.3.16L139.6,23.83c.05.05.11.05.19,0L152.86,7.19a.41.41,0,0,1,.31-.16H157c.25,0,.38.15.38.44V35.79c0,.29-.13.44-.38.44h-4.45c-.25,0-.38-.15-.38-.44V17.15c0-.08,0-.12-.11-.12a.15.15,0,0,0-.12,0L141.16,30.71a.41.41,0,0,1-.31.16h-2.31a.47.47,0,0,1-.35-.16L127.44,17.07l-.08,0c-.07,0-.11,0-.11.12V35.79c0,.29-.14.44-.42.44h-4.41c-.28,0-.41-.15-.41-.44V7.47C122,7.18,122.14,7,122.42,7Zm41.83.52c0-.29.15-.44.46-.44h25.46a.27.27,0,0,1,.26.2l1.48,4.92a.24.24,0,0,1,0,.28.32.32,0,0,1-.25.12H169.91c-.28,0-.42.15-.42.44v5.48c0,.21.09.32.27.32H186a.25.25,0,0,1,.23.12.26.26,0,0,1,0,.24l-1.48,4.92a.3.3,0,0,1-.31.24H169.76c-.18,0-.27.09-.27.28v5.48a.5.5,0,0,0,.12.34.37.37,0,0,0,.3.14h21.74a.32.32,0,0,1,.25.12.18.18,0,0,1,0,.24l-1.48,4.92a.27.27,0,0,1-.26.2H164.71c-.31,0-.46-.15-.46-.44ZM195,11.83l1.56-4.68c0-.05,0-.08.08-.08h28.91a.07.07,0,0,1,.08.08l1.63,4.68c0,.08,0,.12-.11.12h-13.3c-.08,0-.11,0-.11.12V36c0,.16-.07.24-.19.24h-4.83c-.13,0-.19-.08-.19-.24V12.07c0-.08,0-.12-.11-.12h-13.3A.11.11,0,0,1,195,11.83Zm35.87-4.4a.32.32,0,0,1,.35-.36h4.52c.25,0,.38.12.38.36V18.51c0,.27.11.4.34.4h18.39c.26,0,.38-.13.38-.4V7.43c0-.24.12-.36.34-.36h4.53c.22,0,.34.12.34.36V35.87c0,.27-.12.4-.34.4h-4.53c-.22,0-.34-.13-.34-.4V24.79c0-.24-.12-.36-.38-.36H236.45c-.23,0-.34.12-.34.36V35.87c0,.27-.13.4-.38.4h-4.52c-.23,0-.35-.13-.35-.4Zm36.45.12a.4.4,0,0,1,.46-.44h25.46a.26.26,0,0,1,.26.2L295,12.23a.26.26,0,0,1,0,.28.32.32,0,0,1-.25.12H273c-.27,0-.41.15-.41.44v5.48c0,.21.09.32.26.32h16.27a.28.28,0,0,1,.26.36l-1.48,4.92a.3.3,0,0,1-.3.24H272.82c-.17,0-.26.09-.26.28v5.48a.55.55,0,0,0,.11.34.39.39,0,0,0,.3.14h21.74a.32.32,0,0,1,.25.12.2.2,0,0,1,0,.24l-1.49,4.92a.26.26,0,0,1-.26.2H267.77a.4.4,0,0,1-.46-.44Zm32.42-.48h4.33a.45.45,0,0,1,.32.14.47.47,0,0,1,.13.34V22.27a8.6,8.6,0,0,0,1,4.24,8.21,8.21,0,0,0,2.45,2.8,9.9,9.9,0,0,0,3.42,1.56,15.72,15.72,0,0,0,7.71,0,9.9,9.9,0,0,0,3.42-1.56,8.32,8.32,0,0,0,2.45-2.8,8.71,8.71,0,0,0,.95-4.24V7.55c0-.32.15-.48.46-.48h4.33q.45,0,.45.48V22.27a14.91,14.91,0,0,1-1.15,6,13.49,13.49,0,0,1-3.25,4.6,14.87,14.87,0,0,1-5,3,20.49,20.49,0,0,1-13,0,14.68,14.68,0,0,1-5-3,13.17,13.17,0,0,1-3.23-4.6,15.08,15.08,0,0,1-1.14-6V7.55C299.27,7.23,299.42,7.07,299.73,7.07Zm53.36,29.8a45.53,45.53,0,0,1-6-.36c-1.79-.24-3.33-.51-4.64-.82a29.75,29.75,0,0,1-3.11-.88c-.77-.28-1.27-.47-1.5-.58a.21.21,0,0,1-.12-.16l-.57-6.16c0-.19.07-.28.19-.28a.08.08,0,0,1,.06,0l.06,0c.35.21.95.53,1.78.94a22.48,22.48,0,0,0,3.23,1.22,40,40,0,0,0,4.64,1.06,35,35,0,0,0,6,.46,18.57,18.57,0,0,0,6.86-1q2.49-1,2.49-2.7a1.53,1.53,0,0,0-.61-1.14,5.38,5.38,0,0,0-1.93-1,18.84,18.84,0,0,0-3.39-.66,43.53,43.53,0,0,0-5-.24,33.77,33.77,0,0,1-6.18-.48,18.47,18.47,0,0,1-4.22-1.26,9.28,9.28,0,0,1-2.66-1.74A7.21,7.21,0,0,1,337,19.21a6.05,6.05,0,0,1-.59-1.86,10.89,10.89,0,0,1-.11-1.44,7.18,7.18,0,0,1,1.5-4.68,10.35,10.35,0,0,1,3.85-2.9A19.52,19.52,0,0,1,347,6.85a41.15,41.15,0,0,1,5.8-.42,30,30,0,0,1,4.73.34q2.14.35,3.78.78a22.11,22.11,0,0,1,2.66.86c.69.28,1.13.47,1.33.58s.12,0,.12.16l.38,6c0,.16,0,.24-.19.24a.08.08,0,0,1-.06,0l-.06,0a17.23,17.23,0,0,0-1.92-1,22.8,22.8,0,0,0-2.9-1.1,30.44,30.44,0,0,0-3.67-.88,23.63,23.63,0,0,0-4.2-.36,33.3,33.3,0,0,0-5.78.4,14,14,0,0,0-3.42,1A3.49,3.49,0,0,0,342,14.61a2.62,2.62,0,0,0-.4,1.3c0,1.12.89,1.93,2.66,2.44a27.5,27.5,0,0,0,7.3.76c.93,0,2,0,3.15.08a29.89,29.89,0,0,1,3.57.38,25.1,25.1,0,0,1,3.57.86A11.08,11.08,0,0,1,365,22a7.6,7.6,0,0,1,2.2,2.42,6.72,6.72,0,0,1,.84,3.44,8.27,8.27,0,0,1-.15,1.3,6.8,6.8,0,0,1-.67,1.86,8.7,8.7,0,0,1-1.5,2,10,10,0,0,1-2.64,1.9,16.86,16.86,0,0,1-4.08,1.4A27.52,27.52,0,0,1,353.09,36.87ZM93.08,4.08c10.19,0,18.49,7.82,18.49,17.42s-8.3,17.42-18.49,17.42S74.59,31.11,74.59,21.5,82.88,4.08,93.08,4.08m0-4C80.66.08,70.59,9.67,70.59,21.5S80.66,42.92,93.08,42.92s22.49-9.59,22.49-21.42S105.5.08,93.08.08Z" transform="translate(-0.13 -0.08)"/><path class="cls-3" d="M99.41,10.7a.39.39,0,0,0,.4-.38.4.4,0,0,0-.8,0A.39.39,0,0,0,99.41,10.7Z" transform="translate(-0.13 -0.08)"/><path class="cls-3" d="M98,11.29a.47.47,0,0,0,.48-.46.48.48,0,0,0-1,0A.47.47,0,0,0,98,11.29Z" transform="translate(-0.13 -0.08)"/><path class="cls-3" d="M95.84,11.7a.53.53,0,0,0,.55.52.53.53,0,1,0-.55-.52Z" transform="translate(-0.13 -0.08)"/><path class="cls-3" d="M94.94,13.54a.61.61,0,1,0-.64-.6A.62.62,0,0,0,94.94,13.54Z" transform="translate(-0.13 -0.08)"/><path class="cls-3" d="M93,14.57a.73.73,0,1,0,.72-.69A.71.71,0,0,0,93,14.57Z" transform="translate(-0.13 -0.08)"/><path class="cls-3" d="M96.16,9.52h.1a.41.41,0,0,0,.24-.19.35.35,0,0,0,0-.28.4.4,0,0,0-.49-.27.36.36,0,0,0-.24.18.42.42,0,0,0,0,.29A.4.4,0,0,0,96.16,9.52Z" transform="translate(-0.13 -0.08)"/><path class="cls-3" d="M94.89,10.45H95a.46.46,0,0,0,.29-.22.48.48,0,0,0,0-.35.5.5,0,0,0-.59-.32.46.46,0,0,0-.29.22.45.45,0,0,0,.42.68Z" transform="translate(-0.13 -0.08)"/><path class="cls-3" d="M93.08,11.35a.54.54,0,0,0,.53.39h.14a.53.53,0,0,0,.34-.26.49.49,0,0,0,0-.39.56.56,0,0,0-.67-.38.53.53,0,0,0-.34.26A.49.49,0,0,0,93.08,11.35Z" transform="translate(-0.13 -0.08)"/><path class="cls-3" d="M92.55,13.38l.16,0a.67.67,0,0,0,.39-.29.61.61,0,0,0,.06-.46.64.64,0,0,0-.78-.42.6.6,0,0,0-.39.29.59.59,0,0,0-.06.45A.65.65,0,0,0,92.55,13.38Z" transform="translate(-0.13 -0.08)"/><path class="cls-3" d="M91.59,14a.68.68,0,0,0-.45.34.65.65,0,0,0-.07.51.72.72,0,0,0,.7.51l.19,0A.71.71,0,0,0,92.4,15a.68.68,0,0,0,.07-.52A.73.73,0,0,0,91.59,14Z" transform="translate(-0.13 -0.08)"/><path class="cls-3" d="M92.69,9.18a.35.35,0,0,0,.2,0,.39.39,0,0,0,.19-.23.41.41,0,0,0,0-.29.42.42,0,0,0-.55-.14.35.35,0,0,0-.18.23.33.33,0,0,0,0,.29A.4.4,0,0,0,92.69,9.18Z" transform="translate(-0.13 -0.08)"/><path class="cls-3" d="M91.7,10.4a.46.46,0,0,0,.23-.06.43.43,0,0,0,.23-.28.48.48,0,0,0,0-.35.49.49,0,0,0-.65-.17.51.51,0,0,0-.23.29.45.45,0,0,0,0,.34A.48.48,0,0,0,91.7,10.4Z" transform="translate(-0.13 -0.08)"/><path class="cls-3" d="M90.8,12a.54.54,0,0,0,.27-.07.51.51,0,0,0,.2-.72.57.57,0,0,0-.75-.2.57.57,0,0,0-.26.33.51.51,0,0,0,.06.4A.55.55,0,0,0,90.8,12Z" transform="translate(-0.13 -0.08)"/><path class="cls-3" d="M89.64,13.51a.65.65,0,0,0,.55.3.72.72,0,0,0,.32-.08.65.65,0,0,0,.29-.38.59.59,0,0,0-.06-.45.65.65,0,0,0-.86-.23.63.63,0,0,0-.3.38A.62.62,0,0,0,89.64,13.51Z" transform="translate(-0.13 -0.08)"/><path class="cls-3" d="M90.32,15.82a.72.72,0,0,0,.34-.43.68.68,0,0,0-.08-.52.72.72,0,0,0-1-.25.68.68,0,0,0-.34.42.67.67,0,0,0,.07.52.75.75,0,0,0,.63.35A.8.8,0,0,0,90.32,15.82Z" transform="translate(-0.13 -0.08)"/><path class="cls-3" d="M89.25,9.71a.41.41,0,0,0,.28-.11.36.36,0,0,0,.12-.27.34.34,0,0,0-.12-.27.4.4,0,0,0-.56,0,.37.37,0,0,0-.11.27A.39.39,0,0,0,89,9.6.43.43,0,0,0,89.25,9.71Z" transform="translate(-0.13 -0.08)"/><path class="cls-3" d="M88.6,11.14a.49.49,0,0,0,.34-.14.43.43,0,0,0,.14-.32.45.45,0,0,0-.14-.33.48.48,0,0,0-.67,0,.43.43,0,0,0-.15.33.41.41,0,0,0,.15.32A.47.47,0,0,0,88.6,11.14Z" transform="translate(-0.13 -0.08)"/><path class="cls-3" d="M88.14,12.87a.54.54,0,0,0,.38-.15.51.51,0,0,0,0-.76.57.57,0,0,0-.77,0,.53.53,0,0,0,0,.76A.58.58,0,0,0,88.14,12.87Z" transform="translate(-0.13 -0.08)"/><path class="cls-3" d="M88,14.8a.68.68,0,0,0,.45-.17.61.61,0,0,0,.19-.44.57.57,0,0,0-.19-.42.64.64,0,0,0-.89,0,.57.57,0,0,0-.19.42.61.61,0,0,0,.19.44A.66.66,0,0,0,88,14.8Z" transform="translate(-0.13 -0.08)"/><path class="cls-3" d="M88.86,16.69a.68.68,0,0,0,.22-.49.66.66,0,0,0-.22-.49.73.73,0,0,0-1,0,.66.66,0,0,0-.22.49.68.68,0,0,0,.22.49.74.74,0,0,0,1,0Z" transform="translate(-0.13 -0.08)"/><path class="cls-3" d="M85.88,11a.45.45,0,0,0,.19.05.42.42,0,0,0,.35-.19.37.37,0,0,0,0-.29.38.38,0,0,0-.19-.24.41.41,0,0,0-.54.14.37.37,0,0,0,0,.29A.38.38,0,0,0,85.88,11Z" transform="translate(-0.13 -0.08)"/><path class="cls-3" d="M85.58,12.55a.46.46,0,0,0,.23.06.48.48,0,0,0,.42-.23.43.43,0,0,0,0-.35.44.44,0,0,0-.22-.28.48.48,0,0,0-.65.17.45.45,0,0,0-.05.34A.44.44,0,0,0,85.58,12.55Z" transform="translate(-0.13 -0.08)"/><path class="cls-3" d="M85.54,14.33a.54.54,0,0,0,.27.07.58.58,0,0,0,.48-.26.48.48,0,0,0,.06-.4.54.54,0,0,0-.26-.33.57.57,0,0,0-.75.19.56.56,0,0,0-.06.4A.54.54,0,0,0,85.54,14.33Z" transform="translate(-0.13 -0.08)"/><path class="cls-3" d="M85.67,15.38a.61.61,0,0,0-.06.46.58.58,0,0,0,.3.37.55.55,0,0,0,.31.08.63.63,0,0,0,.55-.3.59.59,0,0,0,.06-.45.6.6,0,0,0-.3-.38A.66.66,0,0,0,85.67,15.38Z" transform="translate(-0.13 -0.08)"/><path class="cls-3" d="M86.45,17.2a.67.67,0,0,0-.07.52.62.62,0,0,0,.34.42.64.64,0,0,0,.35.1.74.74,0,0,0,.63-.35.68.68,0,0,0,.07-.52.69.69,0,0,0-.34-.43A.74.74,0,0,0,86.45,17.2Z" transform="translate(-0.13 -0.08)"/><path class="cls-3" d="M83.27,13.15h.1a.4.4,0,0,0,.39-.28.37.37,0,0,0,0-.29.4.4,0,0,0-.24-.18.41.41,0,0,0-.49.27A.37.37,0,0,0,83,13,.4.4,0,0,0,83.27,13.15Z" transform="translate(-0.13 -0.08)"/><path class="cls-3" d="M83.06,14.14a.41.41,0,0,0,0,.34.46.46,0,0,0,.3.22l.12,0a.48.48,0,0,0,.46-.34.44.44,0,0,0,0-.34.5.5,0,0,0-.3-.23A.48.48,0,0,0,83.06,14.14Z" transform="translate(-0.13 -0.08)"/><path class="cls-3" d="M83.46,15.78a.51.51,0,0,0,.05.4.55.55,0,0,0,.34.25l.14,0a.56.56,0,0,0,.53-.39.51.51,0,0,0,0-.4.56.56,0,0,0-1,.12Z" transform="translate(-0.13 -0.08)"/><path class="cls-3" d="M84.26,17.42a.59.59,0,0,0,.06.45.58.58,0,0,0,.39.29.47.47,0,0,0,.16,0,.62.62,0,0,0,.61-.45.55.55,0,0,0,0-.45A.67.67,0,0,0,85,17,.65.65,0,0,0,84.26,17.42Z" transform="translate(-0.13 -0.08)"/><path class="cls-3" d="M86,19.83l.18,0a.72.72,0,0,0,.7-.51.67.67,0,0,0-.06-.52.76.76,0,0,0-.45-.33.73.73,0,0,0-.88.49.65.65,0,0,0,.06.51A.74.74,0,0,0,86,19.83Z" transform="translate(-0.13 -0.08)"/><path class="cls-3" d="M81.34,15.85a.38.38,0,1,0-.4-.38A.39.39,0,0,0,81.34,15.85Z" transform="translate(-0.13 -0.08)"/><path class="cls-3" d="M81.4,16.86a.48.48,0,1,0,.48-.46A.47.47,0,0,0,81.4,16.86Z" transform="translate(-0.13 -0.08)"/><path class="cls-3" d="M82.78,18.88a.53.53,0,1,0,0-1.06.53.53,0,1,0,0,1.06Z" transform="translate(-0.13 -0.08)"/><path class="cls-3" d="M84.09,19.13a.61.61,0,1,0,.63.6A.62.62,0,0,0,84.09,19.13Z" transform="translate(-0.13 -0.08)"/><path class="cls-3" d="M85.08,20.93a.72.72,0,0,0,1.44,0,.72.72,0,0,0-1.44,0Z" transform="translate(-0.13 -0.08)"/><path class="cls-3" d="M80.1,19h.1a.4.4,0,0,0,.24-.18.37.37,0,0,0,0-.29.4.4,0,0,0-.73-.09.37.37,0,0,0,0,.29A.4.4,0,0,0,80.1,19Z" transform="translate(-0.13 -0.08)"/><path class="cls-3" d="M81,20.24h.12a.48.48,0,0,0,.29-.23.45.45,0,0,0,0-.34.48.48,0,0,0-.59-.32.46.46,0,0,0-.29.22.4.4,0,0,0,0,.34A.47.47,0,0,0,81,20.24Z" transform="translate(-0.13 -0.08)"/><path class="cls-3" d="M82.13,20.48a.59.59,0,0,0-.34.26.53.53,0,0,0-.05.39.55.55,0,0,0,.54.39h.14a.59.59,0,0,0,.34-.26.49.49,0,0,0,0-.39A.57.57,0,0,0,82.13,20.48Z" transform="translate(-0.13 -0.08)"/><path class="cls-3" d="M84.07,22.6a.63.63,0,0,0,.39-.3.52.52,0,0,0,.06-.45.64.64,0,0,0-.77-.43.65.65,0,0,0-.39.29.61.61,0,0,0-.06.46.63.63,0,0,0,.61.45Z" transform="translate(-0.13 -0.08)"/><path class="cls-3" d="M85.9,23.44l.18,0a.69.69,0,0,0,.45-.33.65.65,0,0,0,.06-.51.74.74,0,0,0-1.33-.16.67.67,0,0,0-.06.52A.73.73,0,0,0,85.9,23.44Z" transform="translate(-0.13 -0.08)"/><path class="cls-3" d="M80.13,22a.37.37,0,0,0,0-.29.4.4,0,0,0-.54-.14.35.35,0,0,0-.18.23.33.33,0,0,0,0,.29.4.4,0,0,0,.34.19.35.35,0,0,0,.2-.05A.39.39,0,0,0,80.13,22Z" transform="translate(-0.13 -0.08)"/><path class="cls-3" d="M81.4,22.93a.41.41,0,0,0-.05-.34.48.48,0,0,0-.65-.17.44.44,0,0,0-.22.28.43.43,0,0,0,0,.35.5.5,0,0,0,.41.23.53.53,0,0,0,.24-.06A.49.49,0,0,0,81.4,22.93Z" transform="translate(-0.13 -0.08)"/><path class="cls-3" d="M83,23.81a.47.47,0,0,0-.06-.4.56.56,0,0,0-.75-.19.52.52,0,0,0-.26.32.53.53,0,0,0,.54.66.55.55,0,0,0,.53-.39Z" transform="translate(-0.13 -0.08)"/><path class="cls-3" d="M85,24.4a.55.55,0,0,0-.06-.45.64.64,0,0,0-.86-.22.58.58,0,0,0-.3.37.57.57,0,0,0,.07.46.63.63,0,0,0,.54.3.72.72,0,0,0,.32-.08A.59.59,0,0,0,85,24.4Z" transform="translate(-0.13 -0.08)"/><path class="cls-3" d="M86.48,25.17a.7.7,0,0,0,.36-.1.68.68,0,0,0,.34-.42.63.63,0,0,0-.08-.52.75.75,0,0,0-1-.26.72.72,0,0,0-.34.43.68.68,0,0,0,.07.52A.75.75,0,0,0,86.48,25.17Z" transform="translate(-0.13 -0.08)"/><path class="cls-3" d="M80,24.87a.36.36,0,0,0-.12.27.38.38,0,0,0,.12.28.39.39,0,0,0,.28.11.43.43,0,0,0,.28-.11.41.41,0,0,0,.11-.28.39.39,0,0,0-.11-.27A.41.41,0,0,0,80,24.87Z" transform="translate(-0.13 -0.08)"/><path class="cls-3" d="M81.38,25.44a.41.41,0,0,0-.15.32.43.43,0,0,0,.15.33.46.46,0,0,0,.33.13.48.48,0,0,0,.34-.13.45.45,0,0,0,.14-.33.43.43,0,0,0-.14-.32A.48.48,0,0,0,81.38,25.44Z" transform="translate(-0.13 -0.08)"/><path class="cls-3" d="M82.91,26.21a.52.52,0,0,0,.16.37.56.56,0,0,0,.78,0,.52.52,0,0,0,.16-.37.55.55,0,0,0-.16-.38.58.58,0,0,0-.78,0A.55.55,0,0,0,82.91,26.21Z" transform="translate(-0.13 -0.08)"/><path class="cls-3" d="M85,25.88a.57.57,0,0,0-.19.43.61.61,0,0,0,.19.43.67.67,0,0,0,.89,0,.61.61,0,0,0,.19-.43.57.57,0,0,0-.19-.43A.64.64,0,0,0,85,25.88Z" transform="translate(-0.13 -0.08)"/><path class="cls-3" d="M88.23,26a.65.65,0,0,0-.21-.49.74.74,0,0,0-1,0h0a.68.68,0,0,0,0,1,.76.76,0,0,0,.51.2.74.74,0,0,0,.51-.2A.65.65,0,0,0,88.23,26Z" transform="translate(-0.13 -0.08)"/><path class="cls-3" d="M81.92,27.84a.4.4,0,0,0-.54.14.37.37,0,0,0,0,.29.35.35,0,0,0,.18.23.41.41,0,0,0,.54-.14.37.37,0,0,0,0-.29A.39.39,0,0,0,81.92,27.84Z" transform="translate(-0.13 -0.08)"/><path class="cls-3" d="M83.72,28.31a.44.44,0,0,0-.23-.29.5.5,0,0,0-.65.17.45.45,0,0,0,0,.34.48.48,0,0,0,.23.29.5.5,0,0,0,.24.06.48.48,0,0,0,.41-.23A.45.45,0,0,0,83.72,28.31Z" transform="translate(-0.13 -0.08)"/><path class="cls-3" d="M85.54,28.68a.51.51,0,0,0-.2-.72.54.54,0,0,0-.81.59.54.54,0,0,0,.26.33.68.68,0,0,0,.27.07A.56.56,0,0,0,85.54,28.68Z" transform="translate(-0.13 -0.08)"/><path class="cls-3" d="M86.66,28.56a.71.71,0,0,0,.31.08.65.65,0,0,0,.55-.3.58.58,0,0,0-.23-.83.64.64,0,0,0-.86.22.56.56,0,0,0-.07.45A.6.6,0,0,0,86.66,28.56Z" transform="translate(-0.13 -0.08)"/><path class="cls-3" d="M88.56,27.82a.8.8,0,0,0,.36.09.74.74,0,0,0,.63-.34.68.68,0,0,0,.07-.52.7.7,0,0,0-.34-.43.73.73,0,0,0-1,.25.68.68,0,0,0-.08.52A.7.7,0,0,0,88.56,27.82Z" transform="translate(-0.13 -0.08)"/><path class="cls-3" d="M84,30.37a.4.4,0,0,0-.48.27.37.37,0,0,0,0,.29.38.38,0,0,0,.25.18l.1,0a.39.39,0,0,0,.38-.29.35.35,0,0,0,0-.28A.41.41,0,0,0,84,30.37Z" transform="translate(-0.13 -0.08)"/><path class="cls-3" d="M85.6,30.16a.49.49,0,0,0-.59.33.42.42,0,0,0,0,.34.44.44,0,0,0,.29.22h.12a.47.47,0,0,0,.46-.33.43.43,0,0,0,0-.35A.46.46,0,0,0,85.6,30.16Z" transform="translate(-0.13 -0.08)"/><path class="cls-3" d="M87.7,29.9a.49.49,0,0,0-.34-.25.54.54,0,0,0-.67.37.49.49,0,0,0,0,.39.53.53,0,0,0,.34.26l.14,0a.56.56,0,0,0,.53-.39A.51.51,0,0,0,87.7,29.9Z" transform="translate(-0.13 -0.08)"/><path class="cls-3" d="M89.57,29.47a.59.59,0,0,0-.06-.45.61.61,0,0,0-.39-.29.63.63,0,0,0-.77.43.55.55,0,0,0,.05.45.67.67,0,0,0,.39.29l.17,0A.64.64,0,0,0,89.57,29.47Z" transform="translate(-0.13 -0.08)"/><path class="cls-3" d="M91.32,28.23a.72.72,0,0,0-1.4-.36.65.65,0,0,0,.07.51.69.69,0,0,0,.44.34l.19,0A.72.72,0,0,0,91.32,28.23Z" transform="translate(-0.13 -0.08)"/><path class="cls-3" d="M86.74,32.3a.39.39,0,1,0,0,.77.39.39,0,1,0,0-.77Z" transform="translate(-0.13 -0.08)"/><path class="cls-3" d="M88.21,31.71a.46.46,0,1,0,.47.46A.47.47,0,0,0,88.21,31.71Z" transform="translate(-0.13 -0.08)"/><path class="cls-3" d="M90.32,31.31a.55.55,0,1,0-.55.53A.54.54,0,0,0,90.32,31.31Z" transform="translate(-0.13 -0.08)"/><path class="cls-3" d="M91.22,29.46a.61.61,0,1,0,.63.6A.62.62,0,0,0,91.22,29.46Z" transform="translate(-0.13 -0.08)"/><path class="cls-3" d="M93.2,28.43a.72.72,0,1,0-.72.69A.7.7,0,0,0,93.2,28.43Z" transform="translate(-0.13 -0.08)"/><path class="cls-3" d="M89.9,33.5a.36.36,0,0,0-.25.18.37.37,0,0,0,0,.29.38.38,0,0,0,.38.28h.1a.44.44,0,0,0,.25-.19.35.35,0,0,0,0-.28A.38.38,0,0,0,89.9,33.5Z" transform="translate(-0.13 -0.08)"/><path class="cls-3" d="M91.15,32.56a.5.5,0,0,0-.3.23.44.44,0,0,0,0,.34.48.48,0,0,0,.46.34l.12,0a.46.46,0,0,0,.3-.22.41.41,0,0,0,0-.34A.48.48,0,0,0,91.15,32.56Z" transform="translate(-0.13 -0.08)"/><path class="cls-3" d="M93.08,31.65a.55.55,0,0,0-.67-.37.52.52,0,0,0-.34.25.51.51,0,0,0,0,.4.55.55,0,0,0,.53.39l.14,0A.53.53,0,0,0,93,32,.49.49,0,0,0,93.08,31.65Z" transform="translate(-0.13 -0.08)"/><path class="cls-3" d="M93.45,29.64a.63.63,0,0,0-.39.3.59.59,0,0,0-.06.45.63.63,0,0,0,.61.45l.16,0a.63.63,0,0,0,.39-.3.58.58,0,0,0,.06-.45A.64.64,0,0,0,93.45,29.64Z" transform="translate(-0.13 -0.08)"/><path class="cls-3" d="M94.57,29a.76.76,0,0,0,.45-.33.67.67,0,0,0,.06-.52.72.72,0,0,0-.88-.49.74.74,0,0,0-.45.34.65.65,0,0,0-.06.51.71.71,0,0,0,.7.51A.55.55,0,0,0,94.57,29Z" transform="translate(-0.13 -0.08)"/><path class="cls-3" d="M93.27,33.87a.38.38,0,0,0-.19.24.37.37,0,0,0,0,.29.41.41,0,0,0,.35.19.45.45,0,0,0,.19-.05.41.41,0,0,0,.19-.24.37.37,0,0,0,0-.29A.41.41,0,0,0,93.27,33.87Z" transform="translate(-0.13 -0.08)"/><path class="cls-3" d="M94.22,32.66A.46.46,0,0,0,94,33a.41.41,0,0,0,0,.34.48.48,0,0,0,.41.23.53.53,0,0,0,.24-.06.44.44,0,0,0,.22-.28.43.43,0,0,0,0-.35A.49.49,0,0,0,94.22,32.66Z" transform="translate(-0.13 -0.08)"/><path class="cls-3" d="M95.09,31.11a.54.54,0,0,0-.26.33.45.45,0,0,0,.06.39.55.55,0,0,0,.47.27.6.6,0,0,0,.27-.07.48.48,0,0,0,.26-.33.51.51,0,0,0,0-.4A.57.57,0,0,0,95.09,31.11Z" transform="translate(-0.13 -0.08)"/><path class="cls-3" d="M96.51,29.5a.64.64,0,0,0-.86-.22.61.61,0,0,0-.3.37.57.57,0,0,0,.07.46.65.65,0,0,0,.55.3.71.71,0,0,0,.31-.08.6.6,0,0,0,.3-.38A.56.56,0,0,0,96.51,29.5Z" transform="translate(-0.13 -0.08)"/><path class="cls-3" d="M95.84,27.19a.68.68,0,0,0-.34.42.63.63,0,0,0,.08.52.72.72,0,0,0,.62.35.77.77,0,0,0,.36-.09A.72.72,0,0,0,96.9,28a.64.64,0,0,0-.08-.52A.72.72,0,0,0,95.84,27.19Z" transform="translate(-0.13 -0.08)"/><path class="cls-3" d="M96.62,33.4a.39.39,0,0,0-.11.27.41.41,0,0,0,.11.28.43.43,0,0,0,.28.11.41.41,0,0,0,.28-.11.38.38,0,0,0,.12-.28.36.36,0,0,0-.12-.27A.43.43,0,0,0,96.62,33.4Z" transform="translate(-0.13 -0.08)"/><path class="cls-3" d="M97.22,32a.45.45,0,0,0-.14.33.43.43,0,0,0,.14.32.47.47,0,0,0,.33.14.48.48,0,0,0,.34-.14.43.43,0,0,0,.14-.32.45.45,0,0,0-.14-.33A.48.48,0,0,0,97.22,32Z" transform="translate(-0.13 -0.08)"/><path class="cls-3" d="M97.63,30.29h0a.52.52,0,0,0-.16.37.53.53,0,0,0,.16.38.58.58,0,0,0,.78,0,.53.53,0,0,0,.16-.38.52.52,0,0,0-.16-.37A.56.56,0,0,0,97.63,30.29Z" transform="translate(-0.13 -0.08)"/><path class="cls-3" d="M97.68,28.38a.57.57,0,0,0-.19.43.61.61,0,0,0,.19.43.66.66,0,0,0,.44.17.68.68,0,0,0,.45-.17.6.6,0,0,0,.18-.43.57.57,0,0,0-.18-.43A.64.64,0,0,0,97.68,28.38Z" transform="translate(-0.13 -0.08)"/><path class="cls-3" d="M97.8,27.49a.7.7,0,0,0,.51-.2h0a.65.65,0,0,0,.21-.49.67.67,0,0,0-.21-.49.76.76,0,0,0-1,0,.71.71,0,0,0-.21.49.69.69,0,0,0,.21.49A.72.72,0,0,0,97.8,27.49Z" transform="translate(-0.13 -0.08)"/><path class="cls-3" d="M100.28,32a.41.41,0,0,0-.54.14.33.33,0,0,0,0,.29.36.36,0,0,0,.18.24.49.49,0,0,0,.2.05.39.39,0,0,0,.34-.19.37.37,0,0,0,0-.29A.45.45,0,0,0,100.28,32Z" transform="translate(-0.13 -0.08)"/><path class="cls-3" d="M100.58,30.46a.47.47,0,0,0-.7.51.43.43,0,0,0,.23.28.46.46,0,0,0,.23.06.5.5,0,0,0,.42-.22.48.48,0,0,0,0-.35A.49.49,0,0,0,100.58,30.46Z" transform="translate(-0.13 -0.08)"/><path class="cls-3" d="M100.61,28.67a.57.57,0,0,0-.75.2.49.49,0,0,0,0,.39.51.51,0,0,0,.26.33.52.52,0,0,0,.27.07.56.56,0,0,0,.48-.26.51.51,0,0,0,.05-.4A.53.53,0,0,0,100.61,28.67Z" transform="translate(-0.13 -0.08)"/><path class="cls-3" d="M100.48,27.62a.57.57,0,0,0,.07-.46.58.58,0,0,0-.3-.37.64.64,0,0,0-.86.22.58.58,0,0,0,.23.83.6.6,0,0,0,.31.08A.64.64,0,0,0,100.48,27.62Z" transform="translate(-0.13 -0.08)"/><path class="cls-3" d="M99.78,25.29a.67.67,0,0,0-.34-.43.73.73,0,0,0-1,.25.64.64,0,0,0-.08.52.72.72,0,0,0,.34.43.77.77,0,0,0,.36.09.74.74,0,0,0,.63-.34A.68.68,0,0,0,99.78,25.29Z" transform="translate(-0.13 -0.08)"/><path class="cls-3" d="M102.88,29.85a.41.41,0,0,0-.48.27.37.37,0,0,0,0,.29.38.38,0,0,0,.25.18l.1,0a.41.41,0,0,0,.39-.29.39.39,0,0,0,0-.28A.37.37,0,0,0,102.88,29.85Z" transform="translate(-0.13 -0.08)"/><path class="cls-3" d="M102.64,29.2a.47.47,0,0,0,.46-.34.45.45,0,0,0,0-.34.49.49,0,0,0-.88.1.43.43,0,0,0,0,.35.46.46,0,0,0,.29.22Z" transform="translate(-0.13 -0.08)"/><path class="cls-3" d="M102.7,27.22a.49.49,0,0,0,0-.39.56.56,0,0,0-.34-.26.54.54,0,0,0-.63.77.53.53,0,0,0,.35.25.32.32,0,0,0,.14,0A.55.55,0,0,0,102.7,27.22Z" transform="translate(-0.13 -0.08)"/><path class="cls-3" d="M101.89,25.58a.55.55,0,0,0,0-.45.66.66,0,0,0-.4-.29.64.64,0,0,0-.77.43.59.59,0,0,0,.06.45.58.58,0,0,0,.39.29.44.44,0,0,0,.16,0A.62.62,0,0,0,101.89,25.58Z" transform="translate(-0.13 -0.08)"/><path class="cls-3" d="M99.25,23.66a.69.69,0,0,0,.52.85.57.57,0,0,0,.18,0,.73.73,0,0,0,.7-.52.66.66,0,0,0-.07-.51.69.69,0,0,0-.44-.34A.75.75,0,0,0,99.25,23.66Z" transform="translate(-0.13 -0.08)"/><path class="cls-3" d="M104.82,27.15a.39.39,0,0,0-.4.38.4.4,0,0,0,.8,0A.39.39,0,0,0,104.82,27.15Z" transform="translate(-0.13 -0.08)"/><path class="cls-3" d="M104.76,26.14a.48.48,0,1,0-.48.46A.48.48,0,0,0,104.76,26.14Z" transform="translate(-0.13 -0.08)"/><path class="cls-3" d="M103.37,24.12a.53.53,0,1,0,.56.53A.54.54,0,0,0,103.37,24.12Z" transform="translate(-0.13 -0.08)"/><path class="cls-3" d="M102.07,22.66a.61.61,0,1,0,.63.61A.62.62,0,0,0,102.07,22.66Z" transform="translate(-0.13 -0.08)"/><path class="cls-3" d="M101.08,22.07a.73.73,0,1,0-.73.69A.71.71,0,0,0,101.08,22.07Z" transform="translate(-0.13 -0.08)"/><path class="cls-3" d="M106,24.06a.41.41,0,0,0-.25.19.35.35,0,0,0,0,.28.4.4,0,0,0,.38.29l.1,0a.38.38,0,0,0,.25-.18.37.37,0,0,0,0-.29A.4.4,0,0,0,106,24.06Z" transform="translate(-0.13 -0.08)"/><path class="cls-3" d="M105,22.78a.48.48,0,0,0-.3.22.45.45,0,0,0,0,.34.47.47,0,0,0,.46.34h.12a.5.5,0,0,0,.3-.23.44.44,0,0,0,0-.34A.48.48,0,0,0,105,22.78Z" transform="translate(-0.13 -0.08)"/><path class="cls-3" d="M103.74,21.5a.52.52,0,0,0-.39.64.55.55,0,0,0,.53.4l.14,0a.53.53,0,0,0,.34-.26.49.49,0,0,0,0-.39A.55.55,0,0,0,103.74,21.5Z" transform="translate(-0.13 -0.08)"/><path class="cls-3" d="M102.85,20.84a.62.62,0,0,0-.77-.43.58.58,0,0,0-.39.29.59.59,0,0,0-.06.45.64.64,0,0,0,.61.45l.17,0a.67.67,0,0,0,.39-.29A.55.55,0,0,0,102.85,20.84Z" transform="translate(-0.13 -0.08)"/><path class="cls-3" d="M100.26,21l.19,0a.65.65,0,0,0,.44-.33.66.66,0,0,0,.07-.51.73.73,0,0,0-.89-.49.71.71,0,0,0-.44.33.68.68,0,0,0-.07.52A.73.73,0,0,0,100.26,21Z" transform="translate(-0.13 -0.08)"/><path class="cls-3" d="M106.76,20.94a.41.41,0,0,0-.54-.14A.38.38,0,0,0,106,21a.37.37,0,0,0,0,.29.41.41,0,0,0,.35.19.45.45,0,0,0,.19-.05.41.41,0,0,0,.19-.24A.37.37,0,0,0,106.76,20.94Z" transform="translate(-0.13 -0.08)"/><path class="cls-3" d="M104.75,20.07a.48.48,0,0,0,0,.35.5.5,0,0,0,.42.22.46.46,0,0,0,.23-.06.43.43,0,0,0,.23-.28.48.48,0,0,0-.05-.35.49.49,0,0,0-.88.12Z" transform="translate(-0.13 -0.08)"/><path class="cls-3" d="M103.11,19.2a.54.54,0,0,0,.06.39.56.56,0,0,0,.48.27.64.64,0,0,0,.27-.07.53.53,0,0,0,.26-.33.47.47,0,0,0-.06-.4.55.55,0,0,0-.74-.19A.52.52,0,0,0,103.11,19.2Z" transform="translate(-0.13 -0.08)"/><path class="cls-3" d="M101.18,18.6a.57.57,0,0,0,.07.46.64.64,0,0,0,.55.3.71.71,0,0,0,.31-.08.63.63,0,0,0,.3-.38.6.6,0,0,0-.07-.45.64.64,0,0,0-.86-.22A.58.58,0,0,0,101.18,18.6Z" transform="translate(-0.13 -0.08)"/><path class="cls-3" d="M99.32,17.93a.67.67,0,0,0-.34.43.68.68,0,0,0,.07.52.74.74,0,0,0,.63.34.8.8,0,0,0,.36-.09.72.72,0,0,0,.34-.43.68.68,0,0,0-.08-.52A.73.73,0,0,0,99.32,17.93Z" transform="translate(-0.13 -0.08)"/><path class="cls-3" d="M105.86,18.24a.43.43,0,0,0,.28-.11.36.36,0,0,0,.12-.27.34.34,0,0,0-.12-.27.4.4,0,0,0-.56,0,.34.34,0,0,0-.12.27.36.36,0,0,0,.12.27A.43.43,0,0,0,105.86,18.24Z" transform="translate(-0.13 -0.08)"/><path class="cls-3" d="M104.44,17.7a.48.48,0,0,0,.34-.14.43.43,0,0,0,.14-.32.45.45,0,0,0-.14-.33.5.5,0,0,0-.67,0,.45.45,0,0,0-.14.33.43.43,0,0,0,.14.32A.47.47,0,0,0,104.44,17.7Z" transform="translate(-0.13 -0.08)"/><path class="cls-3" d="M103.25,16.8a.53.53,0,0,0-.16-.38.58.58,0,0,0-.78,0,.49.49,0,0,0-.16.38.49.49,0,0,0,.16.37.58.58,0,0,0,.78,0A.52.52,0,0,0,103.25,16.8Z" transform="translate(-0.13 -0.08)"/><path class="cls-3" d="M100.75,17.3a.66.66,0,0,0,.44-.17.57.57,0,0,0,.19-.43.54.54,0,0,0-.19-.43.64.64,0,0,0-.89,0,.57.57,0,0,0-.18.43.6.6,0,0,0,.18.43A.7.7,0,0,0,100.75,17.3Z" transform="translate(-0.13 -0.08)"/><path class="cls-3" d="M99.15,17.49a.66.66,0,0,0,.22-.49.68.68,0,0,0-.22-.49.74.74,0,0,0-1,0,.68.68,0,0,0-.22.49.66.66,0,0,0,.22.49.74.74,0,0,0,1,0Z" transform="translate(-0.13 -0.08)"/><path class="cls-3" d="M104.24,15.16a.34.34,0,0,0,.19.05.4.4,0,0,0,.35-.19.35.35,0,0,0,0-.28.38.38,0,0,0-.19-.24.41.41,0,0,0-.54.14.37.37,0,0,0,0,.29A.36.36,0,0,0,104.24,15.16Z" transform="translate(-0.13 -0.08)"/><path class="cls-3" d="M102.49,14.35a.4.4,0,0,0,0,.35.44.44,0,0,0,.22.28.53.53,0,0,0,.24.06.48.48,0,0,0,.41-.23.41.41,0,0,0,0-.34.46.46,0,0,0-.22-.29A.49.49,0,0,0,102.49,14.35Z" transform="translate(-0.13 -0.08)"/><path class="cls-3" d="M100.61,14.32a.51.51,0,0,0,0,.4.55.55,0,0,0,.53.39.53.53,0,0,0,.54-.66.52.52,0,0,0-.26-.32A.57.57,0,0,0,100.61,14.32Z" transform="translate(-0.13 -0.08)"/><path class="cls-3" d="M98.87,15.5a.68.68,0,0,0,.31.08.64.64,0,0,0,.55-.31.55.55,0,0,0,.06-.45.61.61,0,0,0-.29-.38.66.66,0,0,0-.86.22.58.58,0,0,0-.07.46A.63.63,0,0,0,98.87,15.5Z" transform="translate(-0.13 -0.08)"/><path class="cls-3" d="M96.87,16.38a.7.7,0,0,0,.36.1.75.75,0,0,0,.63-.35.68.68,0,0,0,.07-.52.72.72,0,0,0-.34-.43.74.74,0,0,0-1,.26.66.66,0,0,0,.26.94Z" transform="translate(-0.13 -0.08)"/><path class="cls-3" d="M102.13,12.63h.11a.4.4,0,0,0,.38-.28.37.37,0,0,0,0-.29.4.4,0,0,0-.24-.18.41.41,0,0,0-.49.27.37.37,0,0,0,0,.29A.4.4,0,0,0,102.13,12.63Z" transform="translate(-0.13 -0.08)"/><path class="cls-3" d="M100.56,12.84l.12,0a.47.47,0,0,0,.46-.34.43.43,0,0,0,0-.35.5.5,0,0,0-.29-.22.49.49,0,0,0-.59.33.45.45,0,0,0,0,.34A.44.44,0,0,0,100.56,12.84Z" transform="translate(-0.13 -0.08)"/><path class="cls-3" d="M98.46,13.1a.53.53,0,0,0,.34.26h.14a.55.55,0,0,0,.53-.39.49.49,0,0,0,0-.39.53.53,0,0,0-.34-.26.55.55,0,0,0-.67.38A.49.49,0,0,0,98.46,13.1Z" transform="translate(-0.13 -0.08)"/><path class="cls-3" d="M96.59,13.53a.59.59,0,0,0,.06.45.58.58,0,0,0,.39.29.44.44,0,0,0,.16,0,.62.62,0,0,0,.61-.44.61.61,0,0,0-.45-.75A.64.64,0,0,0,96.59,13.53Z" transform="translate(-0.13 -0.08)"/><path class="cls-3" d="M94.84,14.77a.63.63,0,0,0,.07.52.68.68,0,0,0,.44.33.63.63,0,0,0,.19,0,.72.72,0,0,0,.69-.51.67.67,0,0,0-.06-.52.74.74,0,0,0-1.33.15Z" transform="translate(-0.13 -0.08)"/><ellipse class="cls-4" cx="92.95" cy="21.35" rx="4.62" ry="4.4"/></svg>
