

<?xml version="1.0" encoding="UTF-8"?>
<!DOCTYPE svg PUBLIC "-//W3C//DTD SVG 1.1//EN" "http://www.w3.org/Graphics/SVG/1.1/DTD/svg11.dtd">
<svg xmlns="http://www.w3.org/2000/svg" version="1.1" width="900px" height="500px" style="shape-rendering:geometricPrecision; text-rendering:geometricPrecision; image-rendering:optimizeQuality; fill-rule:evenodd; clip-rule:evenodd" xmlns:xlink="http://www.w3.org/1999/xlink">
<g><path style="opacity:1" fill="#fefefe" d="M -0.5,-0.5 C 299.5,-0.5 599.5,-0.5 899.5,-0.5C 899.5,166.167 899.5,332.833 899.5,499.5C 599.5,499.5 299.5,499.5 -0.5,499.5C -0.5,332.833 -0.5,166.167 -0.5,-0.5 Z"/></g>
<g><path style="opacity:1" fill="#d4e7ab" d="M 394.5,38.5 C 399.167,38.5 403.833,38.5 408.5,38.5C 408.5,122.5 408.5,206.5 408.5,290.5C 403.833,290.5 399.167,290.5 394.5,290.5C 394.5,206.5 394.5,122.5 394.5,38.5 Z"/></g>
<g><path style="opacity:1" fill="#8cc21e" d="M 395.5,39.5 C 399.5,39.5 403.5,39.5 407.5,39.5C 407.5,122.833 407.5,206.167 407.5,289.5C 403.5,289.5 399.5,289.5 395.5,289.5C 395.5,206.167 395.5,122.833 395.5,39.5 Z"/></g>
<g><path style="opacity:1" fill="#8dc221" d="M 166.5,168.5 C 151.167,168.5 135.833,168.5 120.5,168.5C 120.784,166.585 120.451,164.919 119.5,163.5C 116.817,155.327 111.15,150.493 102.5,149C 95.5,148.333 88.5,148.333 81.5,149C 73.2217,151.583 69.3884,157.083 70,165.5C 72.2081,170.702 76.0414,174.202 81.5,176C 94.0277,179.839 106.694,183.173 119.5,186C 136.784,189.888 151.617,198.055 164,210.5C 171.641,221.701 174.308,234.035 172,247.5C 167.712,270.126 154.546,284.959 132.5,292C 108.914,298.886 85.2473,299.22 61.5,293C 36.4976,285.17 22.1643,268.337 18.5,242.5C 18.5,239.833 18.5,237.167 18.5,234.5C 33.8333,234.5 49.1667,234.5 64.5,234.5C 66.3329,252.988 76.6662,261.988 95.5,261.5C 103.993,261.697 111.993,259.864 119.5,256C 125.115,251.032 126.948,244.865 125,237.5C 121.464,232.98 116.964,229.814 111.5,228C 93.4088,222.977 75.4088,217.644 57.5,212C 25.1498,197.793 15.6498,174.293 29,141.5C 41.5195,124.649 58.3528,115.149 79.5,113C 103.674,109.446 126.007,114.113 146.5,127C 159.746,137.659 166.413,151.492 166.5,168.5 Z"/></g>
<g><path style="opacity:1" fill="#a9d156" d="M 285.5,253.5 C 285.5,253.833 285.5,254.167 285.5,254.5C 284.501,208.67 284.168,162.67 284.5,116.5C 269.5,116.5 254.5,116.5 239.5,116.5C 239.5,175.5 239.5,234.5 239.5,293.5C 238.501,234.336 238.168,175.002 238.5,115.5C 254.167,115.5 269.833,115.5 285.5,115.5C 285.5,161.5 285.5,207.5 285.5,253.5 Z"/></g>
<g><path style="opacity:1" fill="#b7d871" d="M 534.5,116.5 C 501.833,116.5 469.167,116.5 436.5,116.5C 436.5,175.5 436.5,234.5 436.5,293.5C 435.501,234.336 435.168,175.002 435.5,115.5C 468.671,115.168 501.671,115.502 534.5,116.5 Z"/></g>
<g><path style="opacity:1" fill="#8cc21e" d="M 285.5,254.5 C 312.833,254.5 340.167,254.5 367.5,254.5C 367.5,267.5 367.5,280.5 367.5,293.5C 324.833,293.5 282.167,293.5 239.5,293.5C 239.5,234.5 239.5,175.5 239.5,116.5C 254.5,116.5 269.5,116.5 284.5,116.5C 284.168,162.67 284.501,208.67 285.5,254.5 Z"/></g>
<g><path style="opacity:1" fill="#8dc220" d="M 534.5,116.5 C 550.742,117.184 564.575,123.184 576,134.5C 584.356,148.179 585.69,162.512 580,177.5C 575.118,185.383 568.618,191.549 560.5,196C 584.76,205.674 594.593,223.507 590,249.5C 586.27,270.565 574.103,284.065 553.5,290C 548.167,291 542.833,292 537.5,293C 503.835,293.5 470.168,293.667 436.5,293.5C 436.5,234.5 436.5,175.5 436.5,116.5C 469.167,116.5 501.833,116.5 534.5,116.5 Z"/></g>
<g><path style="opacity:1" fill="#a0cc45" d="M 195.5,117.5 C 195.5,205.5 195.5,293.5 195.5,381.5C 199.167,381.5 202.833,381.5 206.5,381.5C 206.5,293.5 206.5,205.5 206.5,117.5C 207.499,205.665 207.833,293.998 207.5,382.5C 203.167,382.5 198.833,382.5 194.5,382.5C 194.167,293.998 194.501,205.665 195.5,117.5 Z"/></g>
<g><path style="opacity:1" fill="#8dc21f" d="M 195.5,117.5 C 199.167,117.5 202.833,117.5 206.5,117.5C 206.5,205.5 206.5,293.5 206.5,381.5C 202.833,381.5 199.167,381.5 195.5,381.5C 195.5,293.5 195.5,205.5 195.5,117.5 Z"/></g>
<g><path style="opacity:1" fill="#fdfefc" d="M 482.5,151.5 C 497.225,151.068 511.892,151.568 526.5,153C 537.09,158.436 539.924,166.603 535,177.5C 532.072,181.381 528.239,183.881 523.5,185C 509.837,185.5 496.171,185.667 482.5,185.5C 482.5,174.167 482.5,162.833 482.5,151.5 Z"/></g>
<g><path style="opacity:1" fill="#add25e" d="M 119.5,163.5 C 120.451,164.919 120.784,166.585 120.5,168.5C 135.833,168.5 151.167,168.5 166.5,168.5C 151.009,169.496 135.342,169.83 119.5,169.5C 119.5,167.5 119.5,165.5 119.5,163.5 Z"/></g>
<g><path style="opacity:1" fill="#fefefd" d="M 482.5,215.5 C 496.837,215.333 511.171,215.5 525.5,216C 543.712,220.641 548.878,231.474 541,248.5C 538.222,251.807 534.722,253.974 530.5,255C 514.557,256.438 498.557,256.938 482.5,256.5C 482.5,242.833 482.5,229.167 482.5,215.5 Z"/></g>
<g><path style="opacity:1" fill="#c7e191" d="M 64.5,234.5 C 49.1667,234.5 33.8333,234.5 18.5,234.5C 18.5,237.167 18.5,239.833 18.5,242.5C 17.5233,239.713 17.19,236.713 17.5,233.5C 33.3422,233.17 49.0089,233.504 64.5,234.5 Z"/></g>
<g><path style="opacity:1" fill="#b5d76e" d="M 285.5,254.5 C 285.5,254.167 285.5,253.833 285.5,253.5C 313.167,253.5 340.833,253.5 368.5,253.5C 368.829,267.01 368.496,280.344 367.5,293.5C 367.5,280.5 367.5,267.5 367.5,254.5C 340.167,254.5 312.833,254.5 285.5,254.5 Z"/></g>
<g><path style="opacity:1" fill="#cbc9b2" d="M 398.5,340.5 C 399.812,345.015 399.812,349.682 398.5,354.5C 397.893,354.376 397.56,354.043 397.5,353.5C 398.485,349.366 398.818,345.032 398.5,340.5 Z"/></g>
<g><path style="opacity:1" fill="#b7b595" d="M 406.5,341.5 C 405.167,345.5 405.167,349.5 406.5,353.5C 406.631,354.376 406.298,355.043 405.5,355.5C 404.167,350.5 404.167,345.5 405.5,340.5C 406.107,340.624 406.44,340.957 406.5,341.5 Z"/></g>
<g><path style="opacity:1" fill="#6e6b2b" d="M 258.5,342.5 C 269.284,342.341 279.618,343.341 289.5,345.5C 287.921,348.994 286.087,352.327 284,355.5C 283.167,354.667 282.333,353.833 281.5,353C 273.836,350.744 266.17,350.411 258.5,352C 257.62,353.356 257.286,354.856 257.5,356.5C 265.491,357.696 273.491,358.863 281.5,360C 292.376,365.927 293.376,373.261 284.5,382C 278.776,384.511 272.776,385.678 266.5,385.5C 259.031,385.173 251.698,384.006 244.5,382C 246.329,377.85 248.163,373.684 250,369.5C 252.025,372.438 254.858,374.272 258.5,375C 264.167,375.667 269.833,375.667 275.5,375C 278.89,373.994 279.89,371.994 278.5,369C 270.19,367.469 261.857,366.136 253.5,365C 246.519,361.739 244.686,356.572 248,349.5C 251.154,346.488 254.654,344.155 258.5,342.5 Z"/></g>
<g><path style="opacity:1" fill="#6d6a2a" d="M 318.5,342.5 C 330.821,341.243 339.987,345.909 346,356.5C 348.76,374.76 340.76,384.427 322,385.5C 306.964,385.596 298.797,378.263 297.5,363.5C 297.659,355.844 300.992,350.011 307.5,346C 311.161,344.407 314.828,343.241 318.5,342.5 Z"/></g>
<g><path style="opacity:1" fill="#8d8b58" d="M 397.5,342.5 C 384.167,343.167 370.833,343.833 357.5,344.5C 356.624,344.631 355.957,344.298 355.5,343.5C 369.484,342.501 383.484,342.167 397.5,342.5 Z"/></g>
<g><path style="opacity:1" fill="#6d6a2a" d="M 398.5,340.5 C 398.818,345.032 398.485,349.366 397.5,353.5C 388.682,352.507 379.682,352.173 370.5,352.5C 370.5,354.833 370.5,357.167 370.5,359.5C 376.893,359.793 383.227,359.46 389.5,358.5C 390.661,362.795 390.828,367.129 390,371.5C 383.789,369.566 377.289,368.899 370.5,369.5C 370.181,374.363 370.514,379.03 371.5,383.5C 366.5,384.833 361.5,384.833 356.5,383.5C 357.495,370.677 357.829,357.677 357.5,344.5C 370.833,343.833 384.167,343.167 397.5,342.5C 397.328,341.508 397.662,340.842 398.5,340.5 Z"/></g>
<g><path style="opacity:1" fill="#6d6a29" d="M 434.5,383.5 C 429.833,384.833 425.167,384.833 420.5,383.5C 421.494,373.347 421.828,363.014 421.5,352.5C 416.305,352.179 411.305,352.513 406.5,353.5C 405.167,349.5 405.167,345.5 406.5,341.5C 412.966,342.83 419.799,343.497 427,343.5C 433.833,343.167 440.667,342.833 447.5,342.5C 447.808,341.692 448.308,341.025 449,340.5C 449.667,345.167 449.667,349.833 449,354.5C 448.5,354 448,353.5 447.5,353C 442.845,352.501 438.179,352.334 433.5,352.5C 433.172,363.014 433.506,373.347 434.5,383.5 Z"/></g>
<g><path style="opacity:1" fill="#b3b190" d="M 468.5,344.5 C 464.167,343.167 459.833,343.167 455.5,344.5C 454.957,344.44 454.624,344.107 454.5,343.5C 459.5,342.167 464.5,342.167 469.5,343.5C 469.376,344.107 469.043,344.44 468.5,344.5 Z"/></g>
<g><path style="opacity:1" fill="#6d6a2a" d="M 550.5,342.5 C 566.563,341.005 576.23,348.005 579.5,363.5C 578.946,373.558 573.946,380.392 564.5,384C 554.461,387.028 545.128,385.694 536.5,380C 529.211,372.172 527.711,363.339 532,353.5C 536.468,346.854 542.635,343.187 550.5,342.5 Z"/></g>
<g><path style="opacity:1" fill="#6d6a29" d="M 608.5,342.5 C 627.258,342.092 636.424,351.092 636,369.5C 631.27,380.37 622.936,385.703 611,385.5C 592.92,384.756 584.92,375.422 587,357.5C 591.405,348.393 598.571,343.393 608.5,342.5 Z"/></g>
<g><path style="opacity:1" fill="#b3b191" d="M 674.5,343.5 C 664.652,343.173 654.986,343.506 645.5,344.5C 644.957,344.44 644.624,344.107 644.5,343.5C 654.659,342.177 664.659,342.177 674.5,343.5 Z"/></g>
<g><path style="opacity:1" fill="#6c6928" d="M 468.5,344.5 C 467.903,344.735 467.57,345.235 467.5,346C 470.071,353.215 472.738,360.382 475.5,367.5C 477.959,361.624 480.126,355.624 482,349.5C 482.743,347.559 482.576,345.726 481.5,344C 487.833,343.333 494.167,343.333 500.5,344C 499.424,345.726 499.257,347.559 500,349.5C 501.749,356.25 503.749,362.916 506,369.5C 508.706,361.717 511.206,353.884 513.5,346C 513.355,345.228 513.022,344.561 512.5,344C 516.833,343.333 521.167,343.333 525.5,344C 520.321,355.869 515.821,368.036 512,380.5C 511.28,382.112 511.446,383.612 512.5,385C 507.167,385.667 501.833,385.667 496.5,385C 497.574,384.261 498.241,383.261 498.5,382C 496.329,373.322 493.662,364.822 490.5,356.5C 487.696,363.709 485.196,371.042 483,378.5C 482.242,380.769 482.409,382.936 483.5,385C 477.804,385.83 472.137,385.663 466.5,384.5C 467.485,382.902 467.651,381.235 467,379.5C 463.058,367.842 459.225,356.175 455.5,344.5C 459.833,343.167 464.167,343.167 468.5,344.5 Z"/></g>
<g><path style="opacity:1" fill="#6c6928" d="M 645.5,344.5 C 654.986,343.506 664.652,343.173 674.5,343.5C 686.435,344.771 692.435,351.438 692.5,363.5C 692.436,374.559 687.103,381.559 676.5,384.5C 665.986,384.828 655.653,384.494 645.5,383.5C 646.833,370.5 646.833,357.5 645.5,344.5 Z"/></g>
<g><path style="opacity:1" fill="#fcfcfb" d="M 317.5,352.5 C 329.223,351.074 335.057,356.074 335,367.5C 334.117,370.102 332.617,372.269 330.5,374C 316.264,378.997 309.431,374.163 310,359.5C 311.742,356.254 314.242,353.921 317.5,352.5 Z"/></g>
<g><path style="opacity:1" fill="#fcfcfb" d="M 549.5,352.5 C 561.223,351.074 567.057,356.074 567,367.5C 563.061,375.042 556.895,377.542 548.5,375C 542.113,371.716 539.947,366.549 542,359.5C 543.742,356.254 546.242,353.921 549.5,352.5 Z"/></g>
<g><path style="opacity:1" fill="#fcfcfb" d="M 606.5,352.5 C 613.244,351.297 618.744,353.297 623,358.5C 625.507,372.321 619.673,377.821 605.5,375C 599.092,371.677 596.925,366.511 599,359.5C 600.742,356.254 603.242,353.921 606.5,352.5 Z"/></g>
<g><path style="opacity:1" fill="#fbfbfa" d="M 658.5,352.5 C 664.593,352.139 670.593,352.639 676.5,354C 680.342,358.439 681.509,363.605 680,369.5C 679.215,371.286 678.049,372.786 676.5,374C 670.593,375.361 664.593,375.861 658.5,375.5C 658.5,367.833 658.5,360.167 658.5,352.5 Z"/></g>
<g><path style="opacity:1" fill="#d7d6c4" d="M 406.5,353.5 C 411.305,352.513 416.305,352.179 421.5,352.5C 421.828,363.014 421.494,373.347 420.5,383.5C 420.5,373.5 420.5,363.5 420.5,353.5C 415.833,353.5 411.167,353.5 406.5,353.5 Z"/></g>
<g><path style="opacity:1" fill="#b3b190" d="M 356.5,383.5 C 361.5,384.833 366.5,384.833 371.5,383.5C 372.043,383.56 372.376,383.893 372.5,384.5C 366.833,385.833 361.167,385.833 355.5,384.5C 355.624,383.893 355.957,383.56 356.5,383.5 Z"/></g>
<g><path style="opacity:1" fill="#b5b494" d="M 420.5,383.5 C 425.167,384.833 429.833,384.833 434.5,383.5C 435.043,383.56 435.376,383.893 435.5,384.5C 429.833,385.833 424.167,385.833 418.5,384.5C 418.957,383.702 419.624,383.369 420.5,383.5 Z"/></g>
<g><path style="opacity:1" fill="#b6b494" d="M 645.5,383.5 C 655.653,384.494 665.986,384.828 676.5,384.5C 665.993,385.823 655.326,385.823 644.5,384.5C 644.624,383.893 644.957,383.56 645.5,383.5 Z"/></g>
<g><path style="opacity:1" fill="#a1cd47" d="M 194.5,394.5 C 198.833,394.5 203.167,394.5 207.5,394.5C 207.5,416.5 207.5,438.5 207.5,460.5C 203.167,460.5 198.833,460.5 194.5,460.5C 194.5,438.5 194.5,416.5 194.5,394.5 Z"/></g>
<g><path style="opacity:1" fill="#8cc21e" d="M 195.5,395.5 C 199.167,395.5 202.833,395.5 206.5,395.5C 206.5,416.833 206.5,438.167 206.5,459.5C 202.833,459.5 199.167,459.5 195.5,459.5C 195.5,438.167 195.5,416.833 195.5,395.5 Z"/></g>
<g><path style="opacity:1" fill="#6e6b2b" d="M 507.5,426.5 C 508.833,430.167 508.833,433.833 507.5,437.5C 502.025,436.511 496.358,436.178 490.5,436.5C 490.5,438.833 490.5,441.167 490.5,443.5C 499.932,444.122 509.099,443.456 518,441.5C 518.667,445.833 518.667,450.167 518,454.5C 504.242,453.676 490.408,453.176 476.5,453C 477.813,446.405 478.48,439.572 478.5,432.5C 478.48,425.428 477.813,418.595 476.5,412C 490.575,412.141 504.408,411.307 518,409.5C 518.667,413.833 518.667,418.167 518,422.5C 508.917,421.515 499.751,421.182 490.5,421.5C 490.5,423.5 490.5,425.5 490.5,427.5C 496.358,427.822 502.025,427.489 507.5,426.5 Z"/></g>
<g><path style="opacity:1" fill="#6b6826" d="M 247.5,412.5 C 252.65,411.349 257.984,411.183 263.5,412C 261.538,422.242 260.872,432.742 261.5,443.5C 271.595,444.126 281.428,443.459 291,441.5C 291.667,446.167 291.667,450.833 291,455.5C 276.74,453.691 262.24,452.858 247.5,453C 248.813,446.405 249.48,439.572 249.5,432.5C 249.497,425.465 248.83,418.798 247.5,412.5 Z"/></g>
<g><path style="opacity:1" fill="#6c6928" d="M 298.5,412.5 C 303.65,411.349 308.984,411.183 314.5,412C 313.199,416.414 312.532,421.081 312.5,426C 308.858,439.821 313.858,445.487 327.5,443C 329.667,442.167 331.167,440.667 332,438.5C 332.667,430.167 332.667,421.833 332,413.5C 331.5,413 331,412.5 330.5,412C 335.833,411.333 341.167,411.333 346.5,412C 344.708,420.908 343.874,430.074 344,439.5C 342.945,445.806 339.445,449.973 333.5,452C 324.184,454.571 315.184,453.904 306.5,450C 303.533,447.9 301.7,445.066 301,441.5C 300.667,432.167 300.333,422.833 300,413.5C 299.617,412.944 299.117,412.611 298.5,412.5 Z"/></g>
<g><path style="opacity:1" fill="#6b6827" d="M 369.5,423.5 C 369.217,422.711 368.717,422.044 368,421.5C 367.175,431.675 367.342,441.675 368.5,451.5C 368.918,452.222 369.584,452.722 370.5,453C 365.833,453.667 361.167,453.667 356.5,453C 357,452.5 357.5,452 358,451.5C 358.667,438.833 358.667,426.167 358,413.5C 357.5,413 357,412.5 356.5,412C 363.167,411.333 369.833,411.333 376.5,412C 375.446,413.388 375.28,414.888 376,416.5C 378.077,420.912 380.244,425.246 382.5,429.5C 385.557,424.553 388.224,419.386 390.5,414C 390.095,413.055 389.428,412.388 388.5,412C 395.5,411.333 402.5,411.333 409.5,412C 408.188,418.428 407.521,425.094 407.5,432C 407.667,438.5 407.833,445 408,451.5C 408.75,452.126 409.584,452.626 410.5,453C 405.167,453.667 399.833,453.667 394.5,453C 395.805,448.082 396.471,442.915 396.5,437.5C 396.333,432.5 396.167,427.5 396,422.5C 391.59,432.32 386.923,441.986 382,451.5C 377.547,442.263 373.38,432.93 369.5,423.5 Z"/></g>
<g><path style="opacity:1" fill="#6d6a2a" d="M 420.5,412.5 C 431.326,411.341 442.326,411.174 453.5,412C 464.204,412.908 467.704,418.408 464,428.5C 462.513,429.155 461.347,430.155 460.5,431.5C 468.978,437.201 469.645,443.701 462.5,451C 460.754,451.471 459.087,452.138 457.5,453C 445.167,453.667 432.833,453.667 420.5,453C 421.813,446.405 422.48,439.572 422.5,432.5C 422.497,425.465 421.83,418.798 420.5,412.5 Z"/></g>
<g><path style="opacity:1" fill="#6c6928" d="M 528.5,412.5 C 539.659,411.341 550.992,411.174 562.5,412C 570.761,412.094 574.761,416.261 574.5,424.5C 574.02,431.49 570.353,435.99 563.5,438C 567.167,443 570.833,448 574.5,453C 569.167,453.667 563.833,453.667 558.5,453C 559.554,451.612 559.72,450.112 559,448.5C 556.308,445.308 553.808,441.975 551.5,438.5C 548.572,437.516 545.572,437.183 542.5,437.5C 542.334,442.179 542.501,446.845 543,451.5C 543.5,452 544,452.5 544.5,453C 539.167,453.667 533.833,453.667 528.5,453C 529.813,446.405 530.48,439.572 530.5,432.5C 530.497,425.465 529.83,418.798 528.5,412.5 Z"/></g>
<g><path style="opacity:1" fill="#6d6a29" d="M 610.5,412.5 C 621.659,411.341 632.992,411.174 644.5,412C 653.402,412.904 656.902,417.737 655,426.5C 653.315,428.017 651.815,429.684 650.5,431.5C 658.978,437.201 659.645,443.701 652.5,451C 650.754,451.471 649.087,452.138 647.5,453C 635.167,453.667 622.833,453.667 610.5,453C 611.812,446.572 612.479,439.906 612.5,433C 612.333,426.5 612.167,420 612,413.5C 611.617,412.944 611.117,412.611 610.5,412.5 Z"/></g>
<g><path style="opacity:1" fill="#6c6928" d="M 681.5,411.5 C 690.325,410.473 698.659,411.973 706.5,416C 715.276,424.295 716.776,433.795 711,444.5C 707.008,449.496 701.841,452.329 695.5,453C 684.658,455.385 675.492,452.552 668,444.5C 660.934,428.645 665.434,417.645 681.5,411.5 Z"/></g>
<g><path style="opacity:1" fill="#6c6928" d="M 732.5,412.5 C 739.321,411.345 746.321,411.179 753.5,412C 752.524,414.147 752.691,416.314 754,418.5C 757.863,427.754 761.529,437.088 765,446.5C 765.896,449.14 767.396,451.307 769.5,453C 764.167,453.667 758.833,453.667 753.5,453C 754.399,450.462 754.066,447.962 752.5,445.5C 745.866,444.503 739.2,444.17 732.5,444.5C 732.244,446.937 731.577,449.271 730.5,451.5C 731.025,452.192 731.692,452.692 732.5,453C 727.833,453.667 723.167,453.667 718.5,453C 724.11,440.015 729.444,426.849 734.5,413.5C 734.043,412.702 733.376,412.369 732.5,412.5 Z"/></g>
<g><path style="opacity:1" fill="#6b6826" d="M 777.5,412.5 C 788.993,411.341 800.659,411.174 812.5,412C 822.662,414.49 825.829,420.657 822,430.5C 821.535,431.931 820.701,433.097 819.5,434C 817.039,435.415 814.706,436.915 812.5,438.5C 815.802,443.603 819.469,448.436 823.5,453C 818.167,453.667 812.833,453.667 807.5,453C 808.672,451.132 808.505,449.298 807,447.5C 804.38,444.424 801.88,441.258 799.5,438C 796.854,437.503 794.187,437.336 791.5,437.5C 790.919,442.975 791.586,448.142 793.5,453C 788.167,453.667 782.833,453.667 777.5,453C 778.813,446.405 779.48,439.572 779.5,432.5C 779.497,425.465 778.83,418.798 777.5,412.5 Z"/></g>
<g><path style="opacity:1" fill="#6d6a29" d="M 832.5,412.5 C 842.658,411.341 852.992,411.175 863.5,412C 874.689,413.371 880.356,419.705 880.5,431C 880.83,443.02 875.164,450.353 863.5,453C 853.167,453.667 842.833,453.667 832.5,453C 833.813,446.405 834.48,439.572 834.5,432.5C 834.497,425.465 833.83,418.798 832.5,412.5 Z"/></g>
<g><path style="opacity:1" fill="#f4f4ef" d="M 434.5,419.5 C 440.878,419.295 447.211,419.628 453.5,420.5C 453.917,423.079 453.25,425.246 451.5,427C 445.843,427.499 440.176,427.666 434.5,427.5C 434.5,424.833 434.5,422.167 434.5,419.5 Z"/></g>
<g><path style="opacity:1" fill="#f8f7f4" d="M 542.5,420.5 C 548.176,420.334 553.843,420.501 559.5,421C 563.476,423.617 563.476,426.284 559.5,429C 553.843,429.499 548.176,429.666 542.5,429.5C 542.5,426.5 542.5,423.5 542.5,420.5 Z"/></g>
<g><path style="opacity:1" fill="#f5f5f0" d="M 624.5,419.5 C 630.176,419.334 635.843,419.501 641.5,420C 644.167,422.333 644.167,424.667 641.5,427C 635.843,427.499 630.176,427.666 624.5,427.5C 624.5,424.833 624.5,422.167 624.5,419.5 Z"/></g>
<g><path style="opacity:1" fill="#f8f8f4" d="M 791.5,420.5 C 797.176,420.334 802.843,420.501 808.5,421C 812.476,423.617 812.476,426.284 808.5,429C 802.843,429.499 797.176,429.666 791.5,429.5C 791.5,426.5 791.5,423.5 791.5,420.5 Z"/></g>
<g><path style="opacity:1" fill="#fcfbfa" d="M 685.5,420.5 C 697.543,419.378 703.043,424.711 702,436.5C 698.307,443.759 692.474,446.259 684.5,444C 677.994,440.834 675.494,435.667 677,428.5C 679.074,424.923 681.907,422.256 685.5,420.5 Z"/></g>
<g><path style="opacity:1" fill="#faf9f7" d="M 749.5,437.5 C 744.706,438.097 740.373,437.43 736.5,435.5C 737.72,430.171 739.72,425.171 742.5,420.5C 745.42,425.927 747.753,431.593 749.5,437.5 Z"/></g>
<g><path style="opacity:1" fill="#c7c6ad" d="M 860.5,421.5 C 856.167,421.5 851.833,421.5 847.5,421.5C 847.5,428.833 847.5,436.167 847.5,443.5C 850.833,443.5 854.167,443.5 857.5,443.5C 854.038,444.482 850.371,444.815 846.5,444.5C 846.5,436.5 846.5,428.5 846.5,420.5C 851.363,420.181 856.03,420.514 860.5,421.5 Z"/></g>
<g><path style="opacity:1" fill="#fefefe" d="M 860.5,421.5 C 868.037,424.247 870.537,429.581 868,437.5C 865.96,441.94 862.46,443.94 857.5,443.5C 854.167,443.5 850.833,443.5 847.5,443.5C 847.5,436.167 847.5,428.833 847.5,421.5C 851.833,421.5 856.167,421.5 860.5,421.5 Z"/></g>
<g><path style="opacity:1" fill="#b2b08f" d="M 369.5,423.5 C 368.506,432.652 368.173,441.985 368.5,451.5C 367.342,441.675 367.175,431.675 368,421.5C 368.717,422.044 369.217,422.711 369.5,423.5 Z"/></g>
<g><path style="opacity:1" fill="#b6b494" d="M 507.5,426.5 C 507.56,425.957 507.893,425.624 508.5,425.5C 509.833,429.833 509.833,434.167 508.5,438.5C 507.893,438.376 507.56,438.043 507.5,437.5C 508.833,433.833 508.833,430.167 507.5,426.5 Z"/></g>
<g><path style="opacity:1" fill="#fbfbfa" d="M 434.5,435.5 C 440.842,435.334 447.175,435.5 453.5,436C 455.68,438.418 456.013,441.084 454.5,444C 447.842,444.5 441.175,444.666 434.5,444.5C 434.5,441.5 434.5,438.5 434.5,435.5 Z"/></g>
<g><path style="opacity:1" fill="#fcfcfb" d="M 624.5,435.5 C 630.842,435.334 637.175,435.5 643.5,436C 645.68,438.418 646.013,441.084 644.5,444C 637.842,444.5 631.175,444.666 624.5,444.5C 624.5,441.5 624.5,438.5 624.5,435.5 Z"/></g>
<g><path style="opacity:1" fill="#b6b495" d="M 736.5,435.5 C 740.373,437.43 744.706,438.097 749.5,437.5C 745.03,438.486 740.363,438.819 735.5,438.5C 735.263,437.209 735.596,436.209 736.5,435.5 Z"/></g>
</svg>

