

<?xml version="1.0" encoding="UTF-8"?>
<!DOCTYPE svg PUBLIC "-//W3C//DTD SVG 1.1//EN" "http://www.w3.org/Graphics/SVG/1.1/DTD/svg11.dtd">
<svg xmlns="http://www.w3.org/2000/svg" version="1.1" width="2000px" height="555px" style="shape-rendering:geometricPrecision; text-rendering:geometricPrecision; image-rendering:optimizeQuality; fill-rule:evenodd; clip-rule:evenodd" xmlns:xlink="http://www.w3.org/1999/xlink">
<g><path style="opacity:1" fill="#fefefe" d="M -0.5,-0.5 C 666.167,-0.5 1332.83,-0.5 1999.5,-0.5C 1999.5,184.5 1999.5,369.5 1999.5,554.5C 1332.83,554.5 666.167,554.5 -0.5,554.5C -0.5,369.5 -0.5,184.5 -0.5,-0.5 Z"/></g>
<g><path style="opacity:1" fill="#555859" d="M 508.5,73.5 C 509.159,104.851 508.492,135.851 506.5,166.5C 500.494,165.165 494.494,163.832 488.5,162.5C 488.5,139.833 488.5,117.167 488.5,94.5C 368.001,93.5005 247.334,93.1671 126.5,93.5C 126.5,162.833 126.5,232.167 126.5,301.5C 124.585,301.216 122.919,301.549 121.5,302.5C 116.5,302.5 111.5,302.5 106.5,302.5C 106.5,226.167 106.5,149.833 106.5,73.5C 240.5,73.5 374.5,73.5 508.5,73.5 Z"/></g>
<g><path style="opacity:1" fill="#aaabac" d="M 508.5,73.5 C 509.498,104.662 509.832,135.996 509.5,167.5C 508.209,167.737 507.209,167.404 506.5,166.5C 508.492,135.851 509.159,104.851 508.5,73.5 Z"/></g>
<g><path style="opacity:1" fill="#939596" d="M 488.5,94.5 C 368.167,94.5 247.833,94.5 127.5,94.5C 127.5,163.833 127.5,233.167 127.5,302.5C 125.5,302.5 123.5,302.5 121.5,302.5C 122.919,301.549 124.585,301.216 126.5,301.5C 126.5,232.167 126.5,162.833 126.5,93.5C 247.334,93.1671 368.001,93.5005 488.5,94.5 Z"/></g>
<g><path style="opacity:1" fill="#07ab15" d="M 486.5,216.5 C 495,216.613 495.333,215.947 487.5,214.5C 398.899,201.096 316.233,217.263 239.5,263C 225.167,272.667 210.833,282.333 196.5,292C 187.811,297.121 178.478,299.787 168.5,300C 164.797,296.604 163.631,292.437 165,287.5C 173.512,266.64 186.345,248.807 203.5,234C 240.224,203.406 282.558,185.406 330.5,180C 393.128,174.662 454.462,181.328 514.5,200C 530.175,204.217 544.842,210.551 558.5,219C 559.574,219.739 560.241,220.739 560.5,222C 557.841,226.984 555.174,231.984 552.5,237C 508.849,231.666 465.849,234.999 423.5,247C 401.063,253.812 379.063,261.812 357.5,271C 313.973,291.764 269.973,311.431 225.5,330C 182.038,346.744 137.038,354.077 90.5,352C 74.9538,350.827 59.7872,347.994 45,343.5C 46.1021,338.273 48.1021,333.273 51,328.5C 51.7387,327.426 52.7387,326.759 54,326.5C 98.8664,336.78 143.366,335.28 187.5,322C 208.356,316.049 228.689,308.715 248.5,300C 293.577,278.294 339.244,257.961 385.5,239C 418.103,226.598 451.77,219.098 486.5,216.5 Z"/></g>
<g><path style="opacity:1" fill="#5c5e5d" d="M 1929.5,193.5 C 1951.72,192.873 1959.88,203.206 1954,224.5C 1942.7,237.33 1931.03,237.663 1919,225.5C 1912.22,211.344 1915.72,200.677 1929.5,193.5 Z"/></g>
<g><path style="opacity:1" fill="#f1f2f2" d="M 1932.5,197.5 C 1948.14,198.308 1953.97,206.308 1950,221.5C 1944.62,229.29 1937.46,231.457 1928.5,228C 1921.1,222.467 1918.93,215.3 1922,206.5C 1924.51,202.189 1928.01,199.189 1932.5,197.5 Z"/></g>
<g><path style="opacity:1" fill="#878888" d="M 1663.5,199.5 C 1663.5,248.833 1663.5,298.167 1663.5,347.5C 1670.17,347.5 1676.83,347.5 1683.5,347.5C 1683.5,298.167 1683.5,248.833 1683.5,199.5C 1684.5,248.997 1684.83,298.664 1684.5,348.5C 1677.17,348.5 1669.83,348.5 1662.5,348.5C 1662.17,298.664 1662.5,248.997 1663.5,199.5 Z"/></g>
<g><path style="opacity:1" fill="#56595a" d="M 1435.5,199.5 C 1465.17,199.333 1494.84,199.5 1524.5,200C 1565.58,205.816 1586.92,229.482 1588.5,271C 1587.35,316.814 1564.02,342.147 1518.5,347C 1490.84,347.5 1463.17,347.667 1435.5,347.5C 1435.5,298.167 1435.5,248.833 1435.5,199.5 Z"/></g>
<g><path style="opacity:1" fill="#555959" d="M 1349.5,199.5 C 1349.5,248.833 1349.5,298.167 1349.5,347.5C 1342.5,347.5 1335.5,347.5 1328.5,347.5C 1328.5,298.167 1328.5,248.833 1328.5,199.5C 1335.5,199.5 1342.5,199.5 1349.5,199.5 Z"/></g>
<g><path style="opacity:1" fill="#56595a" d="M 1818.5,199.5 C 1826.42,199.185 1834.25,199.518 1842,200.5C 1867.04,249.254 1891.54,298.254 1915.5,347.5C 1907.83,347.666 1900.16,347.5 1892.5,347C 1886.43,335.7 1880.77,324.2 1875.5,312.5C 1845.17,311.333 1814.84,311.167 1784.5,312C 1778.43,323.3 1772.77,334.8 1767.5,346.5C 1759.86,347.497 1752.2,347.831 1744.5,347.5C 1769.15,298.209 1793.81,248.875 1818.5,199.5 Z"/></g>
<g><path style="opacity:1" fill="#595b5a" d="M 1927.5,202.5 C 1932.18,202.334 1936.85,202.501 1941.5,203C 1942.67,203.5 1943.5,204.333 1944,205.5C 1945.19,209.709 1944.36,213.376 1941.5,216.5C 1942.58,218.996 1943.91,221.33 1945.5,223.5C 1943.5,224.833 1941.5,224.833 1939.5,223.5C 1938.4,219.88 1936.07,217.88 1932.5,217.5C 1932.5,219.833 1932.5,222.167 1932.5,224.5C 1930.83,224.5 1929.17,224.5 1927.5,224.5C 1927.5,217.167 1927.5,209.833 1927.5,202.5 Z"/></g>
<g><path style="opacity:1" fill="#fcfcfc" d="M 1932.5,206.5 C 1934.53,206.338 1936.53,206.505 1938.5,207C 1939.83,208.667 1939.83,210.333 1938.5,212C 1936.53,212.495 1934.53,212.662 1932.5,212.5C 1932.5,210.5 1932.5,208.5 1932.5,206.5 Z"/></g>
<g><path style="opacity:1" fill="#555859" d="M 1169.5,329.5 C 1201.66,330.498 1234,330.832 1266.5,330.5C 1266.5,336.167 1266.5,341.833 1266.5,347.5C 1227.5,347.5 1188.5,347.5 1149.5,347.5C 1149.5,298.167 1149.5,248.833 1149.5,199.5C 1156.17,199.5 1162.83,199.5 1169.5,199.5C 1169.5,242.833 1169.5,286.167 1169.5,329.5 Z"/></g>
<g><path style="opacity:1" fill="#555859" d="M 1663.5,199.5 C 1670.17,199.5 1676.83,199.5 1683.5,199.5C 1683.5,248.833 1683.5,298.167 1683.5,347.5C 1676.83,347.5 1670.17,347.5 1663.5,347.5C 1663.5,298.167 1663.5,248.833 1663.5,199.5 Z"/></g>
<g><path style="opacity:1" fill="#90da97" d="M 487.5,214.5 C 495.333,215.947 495,216.613 486.5,216.5C 486.833,215.833 487.167,215.167 487.5,214.5 Z"/></g>
<g><path style="opacity:1" fill="#fdfdfd" d="M 1456.5,216.5 C 1477.5,216.333 1498.5,216.5 1519.5,217C 1550.77,221.104 1566.77,238.937 1567.5,270.5C 1566.62,307.104 1547.95,326.938 1511.5,330C 1493.17,330.5 1474.84,330.667 1456.5,330.5C 1456.5,292.5 1456.5,254.5 1456.5,216.5 Z"/></g>
<g><path style="opacity:1" fill="#fdfdfd" d="M 1864.5,292.5 C 1841.17,293.833 1817.83,293.833 1794.5,292.5C 1806.34,268.158 1818.17,243.824 1830,219.5C 1840.96,244.087 1852.46,268.42 1864.5,292.5 Z"/></g>
<g><path style="opacity:1" fill="#575a5b" d="M 739.5,195.5 C 764.921,192.879 788.921,197.379 811.5,209C 818.125,213.291 823.791,218.624 828.5,225C 822.289,227.688 816.122,230.521 810,233.5C 800.836,223.832 789.669,217.665 776.5,215C 759.319,212.45 742.319,213.117 725.5,217C 709.322,222.512 704.488,233.012 711,248.5C 718.179,255.007 726.679,258.173 736.5,258C 757,259.136 777.333,261.469 797.5,265C 821.785,271.064 832.619,286.564 830,311.5C 826.26,326.908 817.093,337.741 802.5,344C 770.72,354.31 739.054,353.977 707.5,343C 694.503,338.172 684.17,330.006 676.5,318.5C 681.86,314.982 687.694,312.316 694,310.5C 711.944,326.042 732.944,333.708 757,333.5C 771.257,334.042 784.757,331.209 797.5,325C 809.534,316.765 812.7,305.931 807,292.5C 799.983,285.578 791.483,281.745 781.5,281C 760.136,278.921 738.803,276.587 717.5,274C 691.576,266.988 682.076,250.488 689,224.5C 693.561,214.273 701.061,207.106 711.5,203C 720.704,199.534 730.038,197.034 739.5,195.5 Z"/></g>
<g><path style="opacity:1" fill="#565a5a" d="M 966.5,196.5 C 995.655,192.56 1022.32,198.727 1046.5,215C 1071.48,237.266 1079.98,264.766 1072,297.5C 1062.21,325.62 1042.71,342.787 1013.5,349C 993.086,352.621 972.752,352.287 952.5,348C 911.511,334.306 893.011,305.806 897,262.5C 902.431,232.799 919.264,212.632 947.5,202C 953.911,199.985 960.244,198.152 966.5,196.5 Z"/></g>
<g><path style="opacity:1" fill="#fefefe" d="M 969.5,214.5 C 992.269,211.387 1013.27,215.887 1032.5,228C 1053.77,247.657 1059.27,271.157 1049,298.5C 1038.48,320.316 1020.98,331.816 996.5,333C 974.07,336.118 953.736,331.118 935.5,318C 920.375,302.202 914.542,283.369 918,261.5C 922.583,240.841 934.75,226.674 954.5,219C 959.577,217.32 964.577,215.82 969.5,214.5 Z"/></g>
<g><path style="opacity:1" fill="#a2a3a3" d="M 1349.5,199.5 C 1350.5,248.997 1350.83,298.664 1350.5,348.5C 1342.98,348.825 1335.65,348.492 1328.5,347.5C 1335.5,347.5 1342.5,347.5 1349.5,347.5C 1349.5,298.167 1349.5,248.833 1349.5,199.5 Z"/></g>
<g><path style="opacity:1" fill="#55585a" d="M 494.5,265.5 C 499.167,265.5 503.833,265.5 508.5,265.5C 508.5,334.167 508.5,402.833 508.5,471.5C 374.5,471.5 240.5,471.5 106.5,471.5C 106.5,441.833 106.5,412.167 106.5,382.5C 113.5,382.5 120.5,382.5 127.5,382.5C 127.5,405.5 127.5,428.5 127.5,451.5C 247.833,451.5 368.167,451.5 488.5,451.5C 488.5,389.5 488.5,327.5 488.5,265.5C 490.5,265.5 492.5,265.5 494.5,265.5 Z"/></g>
<g><path style="opacity:1" fill="#abacae" d="M 494.5,265.5 C 499.305,264.513 504.305,264.179 509.5,264.5C 509.833,333.669 509.499,402.669 508.5,471.5C 508.5,402.833 508.5,334.167 508.5,265.5C 503.833,265.5 499.167,265.5 494.5,265.5 Z"/></g>
<g><path style="opacity:1" fill="#ababac" d="M 1794.5,292.5 C 1817.83,293.833 1841.17,293.833 1864.5,292.5C 1865.04,292.56 1865.38,292.893 1865.5,293.5C 1841.5,294.833 1817.5,294.833 1793.5,293.5C 1793.62,292.893 1793.96,292.56 1794.5,292.5 Z"/></g>
<g><path style="opacity:1" fill="#848787" d="M 1169.5,329.5 C 1202.17,329.5 1234.83,329.5 1267.5,329.5C 1267.82,335.69 1267.49,341.69 1266.5,347.5C 1266.5,341.833 1266.5,336.167 1266.5,330.5C 1234,330.832 1201.66,330.498 1169.5,329.5 Z"/></g>
</svg>

