
<?xml version="1.0" encoding="UTF-8" standalone="no"?>
<!DOCTYPE svg PUBLIC "-//W3C//DTD SVG 1.1//EN" "http://www.w3.org/Graphics/SVG/1.1/DTD/svg11.dtd">
<svg xmlns="http://www.w3.org/2000/svg" version="1.1" viewBox="0.00 0.00 650.00 650.00">
<g stroke-width="2.00" fill="none" stroke-linecap="butt">
<path stroke="#f28389" vector-effect="non-scaling-stroke" d="
  M 649.72 0.00
  L 649.69 294.96
  Q 649.69 295.46 649.19 295.46
  L 0.00 295.49"
/>
<path stroke="#f28389" vector-effect="non-scaling-stroke" d="
  M 0.00 649.74
  L 649.24 649.73
  Q 649.75 649.73 649.75 649.22
  L 649.75 531.53
  A 0.29 0.29 0.0 0 0 649.46 531.24
  L 0.00 531.25"
/>
<path stroke="#f28389" vector-effect="non-scaling-stroke" d="
  M 0.00 513.99
  L 649.04 514.00
  A 0.72 0.71 90.0 0 0 649.75 513.28
  L 649.75 313.03
  A 0.30 0.30 0.0 0 0 649.45 312.73
  L 0.00 312.74"
/>
<path stroke="#f28389" vector-effect="non-scaling-stroke" d="
  M 108.67 375.97
  C 112.75 377.49 117.67 381.83 117.47 386.66
  Q 117.45 387.25 118.04 387.25
  L 152.81 387.25
  Q 153.47 387.25 153.33 386.61
  C 146.72 354.98 106.28 352.02 80.75 355.17
  C 61.54 357.55 39.52 367.84 41.32 391.11
  C 42.06 400.66 47.78 407.01 56.11 410.70
  Q 64.69 414.49 75.15 417.48
  Q 93.47 422.70 109.00 427.45
  Q 113.31 428.77 116.26 431.95
  C 119.40 435.32 119.08 441.26 116.99 445.19
  C 114.67 449.57 109.81 451.75 105.06 452.55
  Q 92.99 454.58 84.36 450.28
  Q 77.42 446.82 76.68 440.12
  Q 76.61 439.50 75.99 439.50
  L 41.79 439.51
  Q 41.17 439.51 41.26 440.11
  Q 44.33 461.00 64.27 467.89
  C 75.29 471.69 87.13 472.63 98.69 472.59
  C 118.80 472.51 150.02 469.15 153.11 443.22
  C 155.80 420.65 140.50 412.64 121.96 407.47
  Q 104.53 402.61 87.30 397.73
  C 81.26 396.02 74.29 393.19 75.10 385.63
  Q 75.88 378.37 83.42 375.70
  Q 96.03 371.23 108.67 375.97"
/>
<path stroke="#f28389" vector-effect="non-scaling-stroke" d="
  M 217.50 377.57
  A 0.32 0.32 0.0 0 1 217.82 377.25
  L 245.68 377.25
  A 0.32 0.32 0.0 0 0 246.00 376.93
  L 246.01 355.82
  A 0.32 0.32 0.0 0 0 245.69 355.50
  L 158.07 355.50
  A 0.32 0.32 0.0 0 0 157.75 355.82
  L 157.75 376.93
  A 0.32 0.32 0.0 0 0 158.07 377.25
  L 185.43 377.24
  A 0.32 0.32 0.0 0 1 185.75 377.56
  L 185.75 470.93
  A 0.32 0.32 0.0 0 0 186.07 471.25
  L 217.18 471.25
  A 0.32 0.32 0.0 0 0 217.50 470.93
  L 217.50 377.57"
/>
<path stroke="#f28389" vector-effect="non-scaling-stroke" d="
  M 422.67 458.11
  Q 424.89 451.50 424.92 443.93
  Q 425.09 399.51 424.95 356.00
  Q 424.95 355.50 424.44 355.50
  L 376.55 355.50
  Q 375.99 355.50 375.99 356.06
  Q 376.04 395.59 375.97 434.66
  C 375.96 442.42 375.26 448.85 365.90 450.48
  Q 360.20 451.48 352.77 451.51
  Q 339.14 451.56 325.99 451.39
  C 317.00 451.28 307.27 449.70 307.26 439.27
  Q 307.24 397.89 307.25 356.05
  Q 307.25 355.50 306.71 355.50
  L 258.29 355.50
  A 0.23 0.23 0.0 0 0 258.06 355.73
  Q 257.84 403.27 258.12 439.36
  C 258.17 446.30 258.09 458.11 263.78 463.02
  Q 271.54 469.73 280.82 470.96
  Q 291.74 472.40 306.86 472.47
  C 334.47 472.59 361.93 472.92 389.13 472.15
  Q 397.25 471.92 404.42 470.54
  C 410.39 469.40 420.47 464.69 422.67 458.11"
/>
<path stroke="#f28389" vector-effect="non-scaling-stroke" d="
  M 475.34 449.50
  A 0.34 0.34 0.0 0 1 475.00 449.16
  L 475.00 355.84
  A 0.34 0.34 0.0 0 0 474.66 355.50
  L 443.34 355.50
  A 0.34 0.34 0.0 0 0 443.00 355.84
  L 443.00 470.91
  A 0.34 0.34 0.0 0 0 443.34 471.25
  L 512.41 471.25
  A 0.34 0.34 0.0 0 0 512.75 470.91
  L 512.75 449.84
  A 0.34 0.34 0.0 0 0 512.41 449.50
  L 475.34 449.50"
/>
<path stroke="#f28389" vector-effect="non-scaling-stroke" d="
  M 523.25 376.94
  A 0.31 0.31 0.0 0 0 523.56 377.25
  L 567.20 377.25
  A 0.31 0.31 0.0 0 1 567.46 377.73
  L 520.56 451.73
  A 0.31 0.31 0.0 0 0 520.51 451.90
  L 520.50 470.94
  A 0.31 0.31 0.0 0 0 520.81 471.25
  L 608.19 471.25
  A 0.31 0.31 0.0 0 0 608.50 470.94
  L 608.50 449.81
  A 0.31 0.31 0.0 0 0 608.19 449.50
  L 559.69 449.51
  A 0.31 0.31 0.0 0 1 559.43 449.03
  L 606.70 374.30
  A 0.31 0.31 0.0 0 0 606.75 374.13
  L 606.75 355.81
  A 0.31 0.31 0.0 0 0 606.44 355.50
  L 523.56 355.50
  A 0.31 0.31 0.0 0 0 523.25 355.81
  L 523.25 376.94"
/>
<path stroke="#f28389" vector-effect="non-scaling-stroke" d="
  M 71.01 599.81
  L 65.20 597.00
  Q 64.90 596.85 64.74 597.15
  Q 62.03 602.27 56.08 601.41
  C 49.68 600.48 48.53 593.71 49.06 588.25
  C 49.50 583.76 52.11 579.69 56.92 579.45
  Q 62.51 579.16 64.90 584.33
  A 0.30 0.29 -24.4 0 0 65.29 584.47
  L 71.32 581.88
  Q 71.56 581.78 71.45 581.54
  C 67.28 572.98 57.10 570.79 49.21 575.04
  C 41.49 579.19 39.85 589.41 42.14 597.16
  C 44.83 606.27 53.41 609.54 62.28 607.46
  Q 67.94 606.14 71.15 600.25
  Q 71.31 599.95 71.01 599.81"
/>
<path stroke="#f28389" vector-effect="non-scaling-stroke" d="
  M 292.44 579.75
  Q 295.82 580.41 297.38 584.06
  Q 297.62 584.61 298.17 584.38
  L 303.59 582.09
  Q 304.28 581.80 303.93 581.14
  Q 300.72 575.10 295.08 573.72
  C 280.74 570.21 271.92 581.05 274.30 594.58
  Q 276.40 606.53 287.79 607.90
  Q 298.94 609.25 303.92 600.16
  Q 304.03 599.97 303.83 599.87
  L 297.79 596.95
  Q 297.58 596.84 297.47 597.05
  Q 294.62 602.49 288.46 601.34
  Q 283.93 600.50 282.52 596.07
  C 280.20 588.83 282.08 577.73 292.44 579.75"
/>
<path stroke="#f28389" vector-effect="non-scaling-stroke" d="
  M 352.38 580.70
  C 355.89 577.96 361.60 580.01 364.53 582.68
  Q 365.15 583.25 365.77 582.67
  L 369.69 579.01
  Q 370.37 578.37 369.65 577.77
  Q 362.86 572.08 353.91 573.19
  C 346.16 574.15 340.32 581.10 344.62 588.47
  C 347.37 593.20 355.96 593.80 360.75 594.85
  Q 363.31 595.41 363.45 597.70
  C 363.59 600.03 361.03 601.33 359.02 601.48
  Q 351.85 602.03 347.96 596.92
  Q 347.37 596.15 346.63 596.78
  L 342.43 600.38
  Q 341.53 601.16 342.41 601.95
  Q 351.76 610.47 363.24 607.21
  Q 372.00 604.73 371.48 595.86
  C 371.21 591.42 367.46 588.75 363.41 587.84
  Q 358.94 586.84 354.29 585.90
  C 351.91 585.42 349.97 582.57 352.38 580.70"
/>
<path stroke="#f28389" vector-effect="non-scaling-stroke" d="
  M 437.2256 588.0216
  A 14.82 14.82 0.0 0 0 422.3798 573.2275
  L 419.5198 573.2325
  A 14.82 14.82 0.0 0 0 404.7257 588.0784
  L 404.7344 593.0784
  A 14.82 14.82 0.0 0 0 419.5802 607.8725
  L 422.4402 607.8675
  A 14.82 14.82 0.0 0 0 437.2343 593.0216
  L 437.2256 588.0216"
/>
<path stroke="#f28389" vector-effect="non-scaling-stroke" d="
  M 85.08 600.50
  A 0.33 0.33 0.0 0 1 84.75 600.17
  L 84.75 573.83
  A 0.33 0.33 0.0 0 0 84.42 573.50
  L 77.33 573.50
  A 0.33 0.33 0.0 0 0 77.00 573.83
  L 77.00 607.17
  A 0.33 0.33 0.0 0 0 77.33 607.50
  L 97.92 607.50
  A 0.33 0.33 0.0 0 0 98.25 607.17
  L 98.25 600.83
  A 0.33 0.33 0.0 0 0 97.92 600.50
  L 85.08 600.50"
/>
<path stroke="#f28389" vector-effect="non-scaling-stroke" d="
  M 111.50 573.80
  A 0.30 0.30 0.0 0 0 111.20 573.50
  L 104.06 573.50
  A 0.30 0.30 0.0 0 0 103.76 573.80
  L 103.76 607.20
  A 0.30 0.30 0.0 0 0 104.06 607.50
  L 111.20 607.50
  A 0.30 0.30 0.0 0 0 111.50 607.20
  L 111.50 573.80"
/>
<path stroke="#f28389" vector-effect="non-scaling-stroke" d="
  M 127.01 582.63
  Q 127.07 582.62 127.08 582.68
  Q 129.69 594.84 133.10 607.04
  Q 133.23 607.51 133.72 607.51
  L 139.74 607.50
  A 1.05 1.03 7.4 0 0 140.73 606.75
  L 147.27 583.77
  Q 147.67 582.39 147.55 583.83
  Q 146.65 595.40 147.09 607.30
  Q 147.10 607.50 147.30 607.50
  L 154.25 607.50
  A 0.25 0.25 0.0 0 0 154.50 607.25
  L 154.50 574.00
  Q 154.50 573.50 154.00 573.50
  L 144.02 573.50
  Q 143.52 573.50 143.38 573.98
  Q 139.85 586.23 137.61 595.20
  Q 137.45 595.83 137.42 596.49
  Q 137.35 597.91 137.00 596.54
  L 131.22 574.03
  A 0.70 0.70 0.0 0 0 130.54 573.50
  L 120.25 573.50
  A 0.50 0.50 0.0 0 0 119.75 574.00
  L 119.75 607.25
  Q 119.75 607.50 120.00 607.50
  L 126.71 607.50
  Q 126.87 607.50 126.88 607.34
  Q 127.33 595.11 126.66 582.75
  Q 126.65 582.68 126.72 582.67
  L 127.01 582.63"
/>
<path stroke="#f28389" vector-effect="non-scaling-stroke" d="
  M 169.28 600.98
  A 0.32 0.32 0.0 0 1 169.59 600.75
  L 180.65 600.75
  A 0.32 0.32 0.0 0 1 180.96 600.98
  L 182.82 607.27
  A 0.32 0.32 0.0 0 0 183.13 607.50
  L 190.78 607.52
  A 0.32 0.32 0.0 0 0 191.09 607.10
  L 179.92 573.71
  A 0.32 0.32 0.0 0 0 179.62 573.49
  L 170.89 573.51
  A 0.32 0.32 0.0 0 0 170.59 573.73
  L 159.35 607.10
  A 0.32 0.32 0.0 0 0 159.66 607.52
  L 167.21 607.49
  A 0.32 0.32 0.0 0 0 167.52 607.26
  L 169.28 600.98"
/>
<path stroke="#f28389" vector-effect="non-scaling-stroke" d="
  M 207.00 580.83
  A 0.33 0.33 0.0 0 1 207.33 580.50
  L 215.91 580.51
  A 0.33 0.33 0.0 0 0 216.24 580.18
  L 216.25 573.83
  A 0.33 0.33 0.0 0 0 215.92 573.50
  L 190.33 573.50
  A 0.33 0.33 0.0 0 0 190.00 573.83
  L 190.01 580.17
  A 0.33 0.33 0.0 0 0 190.34 580.50
  L 198.92 580.51
  A 0.33 0.33 0.0 0 1 199.25 580.84
  L 199.25 607.17
  A 0.33 0.33 0.0 0 0 199.58 607.50
  L 206.67 607.50
  A 0.33 0.33 0.0 0 0 207.00 607.17
  L 207.00 580.83"
/>
<path stroke="#f28389" vector-effect="non-scaling-stroke" d="
  M 229.00 580.80
  A 0.30 0.30 0.0 0 1 229.30 580.50
  L 244.94 580.50
  A 0.30 0.30 0.0 0 0 245.24 580.20
  L 245.25 573.80
  A 0.30 0.30 0.0 0 0 244.95 573.50
  L 221.55 573.50
  A 0.30 0.30 0.0 0 0 221.25 573.80
  L 221.25 607.20
  A 0.30 0.30 0.0 0 0 221.55 607.50
  L 245.95 607.50
  A 0.30 0.30 0.0 0 0 246.25 607.20
  L 246.25 600.80
  A 0.30 0.30 0.0 0 0 245.95 600.50
  L 229.30 600.50
  A 0.30 0.30 0.0 0 1 229.00 600.20
  L 229.00 593.80
  A 0.30 0.30 0.0 0 1 229.30 593.50
  L 243.44 593.50
  A 0.30 0.30 0.0 0 0 243.74 593.20
  L 243.75 587.05
  A 0.30 0.30 0.0 0 0 243.45 586.75
  L 229.30 586.76
  A 0.30 0.30 0.0 0 1 229.00 586.46
  L 229.00 580.80"
/>
<path stroke="#f28389" vector-effect="non-scaling-stroke" d="
  M 325.72 600.98
  C 321.96 602.22 317.45 601.04 317.25 596.43
  Q 316.80 586.25 317.05 574.04
  Q 317.07 573.49 316.52 573.49
  L 310.00 573.50
  A 0.56 0.56 0.0 0 0 309.45 574.07
  Q 309.62 583.08 309.42 593.99
  C 309.29 601.49 311.33 606.88 319.56 607.85
  C 324.95 608.47 332.31 608.08 335.04 602.88
  Q 336.75 599.62 336.75 594.15
  Q 336.75 583.98 336.76 573.80
  Q 336.76 573.50 336.46 573.50
  L 329.27 573.50
  A 0.26 0.26 0.0 0 0 329.02 573.76
  Q 328.97 584.34 329.03 594.40
  C 329.04 597.01 328.58 600.03 325.72 600.98"
/>
<path stroke="#f28389" vector-effect="non-scaling-stroke" d="
  M 392.00 580.82
  A 0.32 0.32 0.0 0 1 392.32 580.50
  L 400.93 580.50
  A 0.32 0.32 0.0 0 0 401.25 580.18
  L 401.25 573.82
  A 0.32 0.32 0.0 0 0 400.93 573.50
  L 375.56 573.50
  A 0.32 0.32 0.0 0 0 375.24 573.82
  L 375.25 580.18
  A 0.32 0.32 0.0 0 0 375.57 580.50
  L 384.18 580.51
  A 0.32 0.32 0.0 0 1 384.50 580.83
  L 384.50 607.18
  A 0.32 0.32 0.0 0 0 384.82 607.50
  L 391.68 607.51
  A 0.32 0.32 0.0 0 0 392.00 607.19
  L 392.00 580.82"
/>
<path stroke="#f28389" vector-effect="non-scaling-stroke" d="
  M 471.58 583.84
  C 472.11 587.40 471.44 590.96 471.47 594.71
  Q 471.53 601.03 471.48 607.22
  A 0.28 0.28 0.0 0 0 471.76 607.50
  L 478.50 607.50
  A 0.25 0.25 0.0 0 0 478.75 607.25
  L 478.75 574.00
  Q 478.75 573.50 478.25 573.50
  L 468.48 573.50
  Q 467.93 573.50 467.79 574.03
  L 461.68 596.54
  Q 461.38 597.62 461.14 596.53
  C 460.95 595.68 461.04 594.82 460.82 593.96
  Q 458.42 584.42 455.68 574.03
  A 0.71 0.71 0.0 0 0 454.99 573.50
  L 444.75 573.50
  Q 444.25 573.50 444.25 574.00
  L 444.25 607.25
  A 0.25 0.25 0.0 0 0 444.50 607.50
  L 451.28 607.50
  A 0.28 0.28 0.0 0 0 451.56 607.22
  L 451.36 583.65
  Q 451.35 582.73 451.58 583.62
  L 457.42 606.92
  Q 457.57 607.50 458.16 607.50
  L 464.47 607.51
  A 0.63 0.62 8.0 0 0 465.07 607.06
  Q 468.19 596.45 470.94 586.64
  Q 471.32 585.28 471.36 583.85
  Q 471.40 582.56 471.58 583.84"
/>
<path stroke="#f28389" vector-effect="non-scaling-stroke" d="
  M 495.00 573.83
  A 0.33 0.33 0.0 0 0 494.67 573.50
  L 487.57 573.50
  A 0.33 0.33 0.0 0 0 487.24 573.83
  L 487.24 607.17
  A 0.33 0.33 0.0 0 0 487.57 607.50
  L 494.67 607.50
  A 0.33 0.33 0.0 0 0 495.00 607.17
  L 495.00 573.83"
/>
<path stroke="#f28389" vector-effect="non-scaling-stroke" d="
  M 512.17 600.51
  A 0.31 0.31 0.0 0 1 511.92 600.01
  L 527.43 579.34
  A 0.31 0.31 0.0 0 0 527.49 579.16
  L 527.50 573.81
  A 0.31 0.31 0.0 0 0 527.19 573.50
  L 502.31 573.50
  A 0.31 0.31 0.0 0 0 502.00 573.81
  L 502.02 580.19
  A 0.31 0.31 0.0 0 0 502.33 580.50
  L 516.62 580.50
  A 0.31 0.31 0.0 0 1 516.87 581.00
  L 501.56 601.14
  A 0.31 0.31 0.0 0 0 501.50 601.32
  L 501.50 607.19
  A 0.31 0.31 0.0 0 0 501.81 607.50
  L 527.19 607.50
  A 0.31 0.31 0.0 0 0 527.50 607.19
  L 527.50 600.81
  A 0.31 0.31 0.0 0 0 527.19 600.50
  L 512.17 600.51"
/>
<path stroke="#f28389" vector-effect="non-scaling-stroke" d="
  M 541.75 580.81
  A 0.31 0.31 0.0 0 1 542.06 580.50
  L 557.68 580.50
  A 0.31 0.31 0.0 0 0 557.99 580.19
  L 558.00 573.81
  A 0.31 0.31 0.0 0 0 557.69 573.50
  L 534.31 573.50
  A 0.31 0.31 0.0 0 0 534.00 573.81
  L 534.00 607.19
  A 0.31 0.31 0.0 0 0 534.31 607.50
  L 558.69 607.50
  A 0.31 0.31 0.0 0 0 559.00 607.19
  L 559.00 600.81
  A 0.31 0.31 0.0 0 0 558.69 600.50
  L 542.05 600.50
  A 0.31 0.31 0.0 0 1 541.74 600.19
  L 541.75 593.81
  A 0.31 0.31 0.0 0 1 542.06 593.50
  L 556.20 593.50
  A 0.31 0.31 0.0 0 0 556.51 593.19
  L 556.49 587.06
  A 0.31 0.31 0.0 0 0 556.18 586.75
  L 542.06 586.75
  A 0.31 0.31 0.0 0 1 541.75 586.44
  L 541.75 580.81"
/>
<path stroke="#f28389" vector-effect="non-scaling-stroke" d="
  M 565.97 574.05
  L 566.03 607.01
  A 0.55 0.55 0.0 0 0 566.58 607.55
  L 580.69 607.53
  A 15.20 14.54 89.9 0 0 595.20 592.30
  L 595.20 588.64
  A 15.20 14.54 89.9 0 0 580.63 573.47
  L 566.52 573.49
  A 0.55 0.55 0.0 0 0 565.97 574.05"
/>
<path stroke="#f28389" vector-effect="non-scaling-stroke" d="
  M 261.7426 598.7628
  A 0.27 0.27 0.0 0 0 261.4721 598.4933
  L 253.7522 598.5067
  A 0.27 0.27 0.0 0 0 253.4826 598.7772
  L 253.4974 607.2372
  A 0.27 0.27 0.0 0 0 253.7679 607.5067
  L 261.4878 607.4933
  A 0.27 0.27 0.0 0 0 261.7574 607.2228
  L 261.7426 598.7628"
/>
<path stroke="#f28389" vector-effect="non-scaling-stroke" d="
  M 608.4927 598.7928
  A 0.30 0.30 0.0 0 0 608.1921 598.4933
  L 600.5322 598.5067
  A 0.30 0.30 0.0 0 0 600.2327 598.8072
  L 600.2473 607.2072
  A 0.30 0.30 0.0 0 0 600.5479 607.5067
  L 608.2078 607.4933
  A 0.30 0.30 0.0 0 0 608.5073 607.1928
  L 608.4927 598.7928"
/>
<path stroke="#f28389" vector-effect="non-scaling-stroke" d="
  M 420.9603 601.7900
  A 11.29 8.89 90.1 0 0 429.8700 590.5155
  A 11.29 8.89 90.1 0 0 420.9997 579.2100
  A 11.29 8.89 90.1 0 0 412.0900 590.4845
  A 11.29 8.89 90.1 0 0 420.9603 601.7900"
/>
<path stroke="#f28389" vector-effect="non-scaling-stroke" d="
  M 171.36 594.06
  A 0.33 0.33 0.0 0 0 171.67 594.48
  L 178.50 594.52
  A 0.33 0.33 0.0 0 0 178.82 594.10
  L 175.47 582.60
  A 0.33 0.33 0.0 0 0 174.83 582.60
  L 171.36 594.06"
/>
<path stroke="#f28389" vector-effect="non-scaling-stroke" d="
  M 573.48 581.40
  L 573.52 599.92
  A 0.40 0.40 0.0 0 0 573.92 600.32
  L 579.45 600.31
  A 8.30 7.79 89.9 0 0 587.22 592.00
  L 587.22 589.28
  A 8.30 7.79 89.9 0 0 579.41 580.99
  L 573.88 581.00
  A 0.40 0.40 0.0 0 0 573.48 581.40"
/>
</g>
<path fill="#e40613" d="
  M 0.00 0.00
  L 649.72 0.00
  L 649.69 294.96
  Q 649.69 295.46 649.19 295.46
  L 0.00 295.49
  L 0.00 0.00
  Z"
/>
<path fill="#ffffff" d="
  M 649.72 0.00
  L 650.00 0.00
  L 650.00 650.00
  L 0.00 650.00
  Q 0.00 649.87 0.00 649.74
  L 649.24 649.73
  Q 649.75 649.73 649.75 649.22
  L 649.75 531.53
  A 0.29 0.29 0.0 0 0 649.46 531.24
  L 0.00 531.25
  L 0.00 513.99
  L 649.04 514.00
  A 0.72 0.71 90.0 0 0 649.75 513.28
  L 649.75 313.03
  A 0.30 0.30 0.0 0 0 649.45 312.73
  L 0.00 312.74
  L 0.00 295.49
  L 649.19 295.46
  Q 649.69 295.46 649.69 294.96
  L 649.72 0.00
  Z"
/>
<path fill="#e40613" d="
  M 0.00 312.74
  L 649.45 312.73
  A 0.30 0.30 0.0 0 1 649.75 313.03
  L 649.75 513.28
  A 0.72 0.71 90.0 0 1 649.04 514.00
  L 0.00 513.99
  L 0.00 312.74
  Z
  M 108.67 375.97
  C 112.75 377.49 117.67 381.83 117.47 386.66
  Q 117.45 387.25 118.04 387.25
  L 152.81 387.25
  Q 153.47 387.25 153.33 386.61
  C 146.72 354.98 106.28 352.02 80.75 355.17
  C 61.54 357.55 39.52 367.84 41.32 391.11
  C 42.06 400.66 47.78 407.01 56.11 410.70
  Q 64.69 414.49 75.15 417.48
  Q 93.47 422.70 109.00 427.45
  Q 113.31 428.77 116.26 431.95
  C 119.40 435.32 119.08 441.26 116.99 445.19
  C 114.67 449.57 109.81 451.75 105.06 452.55
  Q 92.99 454.58 84.36 450.28
  Q 77.42 446.82 76.68 440.12
  Q 76.61 439.50 75.99 439.50
  L 41.79 439.51
  Q 41.17 439.51 41.26 440.11
  Q 44.33 461.00 64.27 467.89
  C 75.29 471.69 87.13 472.63 98.69 472.59
  C 118.80 472.51 150.02 469.15 153.11 443.22
  C 155.80 420.65 140.50 412.64 121.96 407.47
  Q 104.53 402.61 87.30 397.73
  C 81.26 396.02 74.29 393.19 75.10 385.63
  Q 75.88 378.37 83.42 375.70
  Q 96.03 371.23 108.67 375.97
  Z
  M 217.50 377.57
  A 0.32 0.32 0.0 0 1 217.82 377.25
  L 245.68 377.25
  A 0.32 0.32 0.0 0 0 246.00 376.93
  L 246.01 355.82
  A 0.32 0.32 0.0 0 0 245.69 355.50
  L 158.07 355.50
  A 0.32 0.32 0.0 0 0 157.75 355.82
  L 157.75 376.93
  A 0.32 0.32 0.0 0 0 158.07 377.25
  L 185.43 377.24
  A 0.32 0.32 0.0 0 1 185.75 377.56
  L 185.75 470.93
  A 0.32 0.32 0.0 0 0 186.07 471.25
  L 217.18 471.25
  A 0.32 0.32 0.0 0 0 217.50 470.93
  L 217.50 377.57
  Z
  M 422.67 458.11
  Q 424.89 451.50 424.92 443.93
  Q 425.09 399.51 424.95 356.00
  Q 424.95 355.50 424.44 355.50
  L 376.55 355.50
  Q 375.99 355.50 375.99 356.06
  Q 376.04 395.59 375.97 434.66
  C 375.96 442.42 375.26 448.85 365.90 450.48
  Q 360.20 451.48 352.77 451.51
  Q 339.14 451.56 325.99 451.39
  C 317.00 451.28 307.27 449.70 307.26 439.27
  Q 307.24 397.89 307.25 356.05
  Q 307.25 355.50 306.71 355.50
  L 258.29 355.50
  A 0.23 0.23 0.0 0 0 258.06 355.73
  Q 257.84 403.27 258.12 439.36
  C 258.17 446.30 258.09 458.11 263.78 463.02
  Q 271.54 469.73 280.82 470.96
  Q 291.74 472.40 306.86 472.47
  C 334.47 472.59 361.93 472.92 389.13 472.15
  Q 397.25 471.92 404.42 470.54
  C 410.39 469.40 420.47 464.69 422.67 458.11
  Z
  M 475.34 449.50
  A 0.34 0.34 0.0 0 1 475.00 449.16
  L 475.00 355.84
  A 0.34 0.34 0.0 0 0 474.66 355.50
  L 443.34 355.50
  A 0.34 0.34 0.0 0 0 443.00 355.84
  L 443.00 470.91
  A 0.34 0.34 0.0 0 0 443.34 471.25
  L 512.41 471.25
  A 0.34 0.34 0.0 0 0 512.75 470.91
  L 512.75 449.84
  A 0.34 0.34 0.0 0 0 512.41 449.50
  L 475.34 449.50
  Z
  M 523.25 376.94
  A 0.31 0.31 0.0 0 0 523.56 377.25
  L 567.20 377.25
  A 0.31 0.31 0.0 0 1 567.46 377.73
  L 520.56 451.73
  A 0.31 0.31 0.0 0 0 520.51 451.90
  L 520.50 470.94
  A 0.31 0.31 0.0 0 0 520.81 471.25
  L 608.19 471.25
  A 0.31 0.31 0.0 0 0 608.50 470.94
  L 608.50 449.81
  A 0.31 0.31 0.0 0 0 608.19 449.50
  L 559.69 449.51
  A 0.31 0.31 0.0 0 1 559.43 449.03
  L 606.70 374.30
  A 0.31 0.31 0.0 0 0 606.75 374.13
  L 606.75 355.81
  A 0.31 0.31 0.0 0 0 606.44 355.50
  L 523.56 355.50
  A 0.31 0.31 0.0 0 0 523.25 355.81
  L 523.25 376.94
  Z"
/>
<path fill="#ffffff" d="
  M 108.67 375.97
  Q 96.03 371.23 83.42 375.70
  Q 75.88 378.37 75.10 385.63
  C 74.29 393.19 81.26 396.02 87.30 397.73
  Q 104.53 402.61 121.96 407.47
  C 140.50 412.64 155.80 420.65 153.11 443.22
  C 150.02 469.15 118.80 472.51 98.69 472.59
  C 87.13 472.63 75.29 471.69 64.27 467.89
  Q 44.33 461.00 41.26 440.11
  Q 41.17 439.51 41.79 439.51
  L 75.99 439.50
  Q 76.61 439.50 76.68 440.12
  Q 77.42 446.82 84.36 450.28
  Q 92.99 454.58 105.06 452.55
  C 109.81 451.75 114.67 449.57 116.99 445.19
  C 119.08 441.26 119.40 435.32 116.26 431.95
  Q 113.31 428.77 109.00 427.45
  Q 93.47 422.70 75.15 417.48
  Q 64.69 414.49 56.11 410.70
  C 47.78 407.01 42.06 400.66 41.32 391.11
  C 39.52 367.84 61.54 357.55 80.75 355.17
  C 106.28 352.02 146.72 354.98 153.33 386.61
  Q 153.47 387.25 152.81 387.25
  L 118.04 387.25
  Q 117.45 387.25 117.47 386.66
  C 117.67 381.83 112.75 377.49 108.67 375.97
  Z"
/>
<path fill="#ffffff" d="
  M 217.50 377.57
  L 217.50 470.93
  A 0.32 0.32 0.0 0 1 217.18 471.25
  L 186.07 471.25
  A 0.32 0.32 0.0 0 1 185.75 470.93
  L 185.75 377.56
  A 0.32 0.32 0.0 0 0 185.43 377.24
  L 158.07 377.25
  A 0.32 0.32 0.0 0 1 157.75 376.93
  L 157.75 355.82
  A 0.32 0.32 0.0 0 1 158.07 355.50
  L 245.69 355.50
  A 0.32 0.32 0.0 0 1 246.01 355.82
  L 246.00 376.93
  A 0.32 0.32 0.0 0 1 245.68 377.25
  L 217.82 377.25
  A 0.32 0.32 0.0 0 0 217.50 377.57
  Z"
/>
<path fill="#ffffff" d="
  M 422.67 458.11
  C 420.47 464.69 410.39 469.40 404.42 470.54
  Q 397.25 471.92 389.13 472.15
  C 361.93 472.92 334.47 472.59 306.86 472.47
  Q 291.74 472.40 280.82 470.96
  Q 271.54 469.73 263.78 463.02
  C 258.09 458.11 258.17 446.30 258.12 439.36
  Q 257.84 403.27 258.06 355.73
  A 0.23 0.23 0.0 0 1 258.29 355.50
  L 306.71 355.50
  Q 307.25 355.50 307.25 356.05
  Q 307.24 397.89 307.26 439.27
  C 307.27 449.70 317.00 451.28 325.99 451.39
  Q 339.14 451.56 352.77 451.51
  Q 360.20 451.48 365.90 450.48
  C 375.26 448.85 375.96 442.42 375.97 434.66
  Q 376.04 395.59 375.99 356.06
  Q 375.99 355.50 376.55 355.50
  L 424.44 355.50
  Q 424.95 355.50 424.95 356.00
  Q 425.09 399.51 424.92 443.93
  Q 424.89 451.50 422.67 458.11
  Z"
/>
<path fill="#ffffff" d="
  M 475.34 449.50
  L 512.41 449.50
  A 0.34 0.34 0.0 0 1 512.75 449.84
  L 512.75 470.91
  A 0.34 0.34 0.0 0 1 512.41 471.25
  L 443.34 471.25
  A 0.34 0.34 0.0 0 1 443.00 470.91
  L 443.00 355.84
  A 0.34 0.34 0.0 0 1 443.34 355.50
  L 474.66 355.50
  A 0.34 0.34 0.0 0 1 475.00 355.84
  L 475.00 449.16
  A 0.34 0.34 0.0 0 0 475.34 449.50
  Z"
/>
<path fill="#ffffff" d="
  M 523.25 376.94
  L 523.25 355.81
  A 0.31 0.31 0.0 0 1 523.56 355.50
  L 606.44 355.50
  A 0.31 0.31 0.0 0 1 606.75 355.81
  L 606.75 374.13
  A 0.31 0.31 0.0 0 1 606.70 374.30
  L 559.43 449.03
  A 0.31 0.31 0.0 0 0 559.69 449.51
  L 608.19 449.50
  A 0.31 0.31 0.0 0 1 608.50 449.81
  L 608.50 470.94
  A 0.31 0.31 0.0 0 1 608.19 471.25
  L 520.81 471.25
  A 0.31 0.31 0.0 0 1 520.50 470.94
  L 520.51 451.90
  A 0.31 0.31 0.0 0 1 520.56 451.73
  L 567.46 377.73
  A 0.31 0.31 0.0 0 0 567.20 377.25
  L 523.56 377.25
  A 0.31 0.31 0.0 0 1 523.25 376.94
  Z"
/>
<path fill="#e40613" d="
  M 0.00 531.25
  L 649.46 531.24
  A 0.29 0.29 0.0 0 1 649.75 531.53
  L 649.75 649.22
  Q 649.75 649.73 649.24 649.73
  L 0.00 649.74
  L 0.00 531.25
  Z
  M 71.01 599.81
  L 65.20 597.00
  Q 64.90 596.85 64.74 597.15
  Q 62.03 602.27 56.08 601.41
  C 49.68 600.48 48.53 593.71 49.06 588.25
  C 49.50 583.76 52.11 579.69 56.92 579.45
  Q 62.51 579.16 64.90 584.33
  A 0.30 0.29 -24.4 0 0 65.29 584.47
  L 71.32 581.88
  Q 71.56 581.78 71.45 581.54
  C 67.28 572.98 57.10 570.79 49.21 575.04
  C 41.49 579.19 39.85 589.41 42.14 597.16
  C 44.83 606.27 53.41 609.54 62.28 607.46
  Q 67.94 606.14 71.15 600.25
  Q 71.31 599.95 71.01 599.81
  Z
  M 292.44 579.75
  Q 295.82 580.41 297.38 584.06
  Q 297.62 584.61 298.17 584.38
  L 303.59 582.09
  Q 304.28 581.80 303.93 581.14
  Q 300.72 575.10 295.08 573.72
  C 280.74 570.21 271.92 581.05 274.30 594.58
  Q 276.40 606.53 287.79 607.90
  Q 298.94 609.25 303.92 600.16
  Q 304.03 599.97 303.83 599.87
  L 297.79 596.95
  Q 297.58 596.84 297.47 597.05
  Q 294.62 602.49 288.46 601.34
  Q 283.93 600.50 282.52 596.07
  C 280.20 588.83 282.08 577.73 292.44 579.75
  Z
  M 352.38 580.70
  C 355.89 577.96 361.60 580.01 364.53 582.68
  Q 365.15 583.25 365.77 582.67
  L 369.69 579.01
  Q 370.37 578.37 369.65 577.77
  Q 362.86 572.08 353.91 573.19
  C 346.16 574.15 340.32 581.10 344.62 588.47
  C 347.37 593.20 355.96 593.80 360.75 594.85
  Q 363.31 595.41 363.45 597.70
  C 363.59 600.03 361.03 601.33 359.02 601.48
  Q 351.85 602.03 347.96 596.92
  Q 347.37 596.15 346.63 596.78
  L 342.43 600.38
  Q 341.53 601.16 342.41 601.95
  Q 351.76 610.47 363.24 607.21
  Q 372.00 604.73 371.48 595.86
  C 371.21 591.42 367.46 588.75 363.41 587.84
  Q 358.94 586.84 354.29 585.90
  C 351.91 585.42 349.97 582.57 352.38 580.70
  Z
  M 437.2256 588.0216
  A 14.82 14.82 0.0 0 0 422.3798 573.2275
  L 419.5198 573.2325
  A 14.82 14.82 0.0 0 0 404.7257 588.0784
  L 404.7344 593.0784
  A 14.82 14.82 0.0 0 0 419.5802 607.8725
  L 422.4402 607.8675
  A 14.82 14.82 0.0 0 0 437.2343 593.0216
  L 437.2256 588.0216
  Z
  M 85.08 600.50
  A 0.33 0.33 0.0 0 1 84.75 600.17
  L 84.75 573.83
  A 0.33 0.33 0.0 0 0 84.42 573.50
  L 77.33 573.50
  A 0.33 0.33 0.0 0 0 77.00 573.83
  L 77.00 607.17
  A 0.33 0.33 0.0 0 0 77.33 607.50
  L 97.92 607.50
  A 0.33 0.33 0.0 0 0 98.25 607.17
  L 98.25 600.83
  A 0.33 0.33 0.0 0 0 97.92 600.50
  L 85.08 600.50
  Z
  M 111.50 573.80
  A 0.30 0.30 0.0 0 0 111.20 573.50
  L 104.06 573.50
  A 0.30 0.30 0.0 0 0 103.76 573.80
  L 103.76 607.20
  A 0.30 0.30 0.0 0 0 104.06 607.50
  L 111.20 607.50
  A 0.30 0.30 0.0 0 0 111.50 607.20
  L 111.50 573.80
  Z
  M 127.01 582.63
  Q 127.07 582.62 127.08 582.68
  Q 129.69 594.84 133.10 607.04
  Q 133.23 607.51 133.72 607.51
  L 139.74 607.50
  A 1.05 1.03 7.4 0 0 140.73 606.75
  L 147.27 583.77
  Q 147.67 582.39 147.55 583.83
  Q 146.65 595.40 147.09 607.30
  Q 147.10 607.50 147.30 607.50
  L 154.25 607.50
  A 0.25 0.25 0.0 0 0 154.50 607.25
  L 154.50 574.00
  Q 154.50 573.50 154.00 573.50
  L 144.02 573.50
  Q 143.52 573.50 143.38 573.98
  Q 139.85 586.23 137.61 595.20
  Q 137.45 595.83 137.42 596.49
  Q 137.35 597.91 137.00 596.54
  L 131.22 574.03
  A 0.70 0.70 0.0 0 0 130.54 573.50
  L 120.25 573.50
  A 0.50 0.50 0.0 0 0 119.75 574.00
  L 119.75 607.25
  Q 119.75 607.50 120.00 607.50
  L 126.71 607.50
  Q 126.87 607.50 126.88 607.34
  Q 127.33 595.11 126.66 582.75
  Q 126.65 582.68 126.72 582.67
  L 127.01 582.63
  Z
  M 169.28 600.98
  A 0.32 0.32 0.0 0 1 169.59 600.75
  L 180.65 600.75
  A 0.32 0.32 0.0 0 1 180.96 600.98
  L 182.82 607.27
  A 0.32 0.32 0.0 0 0 183.13 607.50
  L 190.78 607.52
  A 0.32 0.32 0.0 0 0 191.09 607.10
  L 179.92 573.71
  A 0.32 0.32 0.0 0 0 179.62 573.49
  L 170.89 573.51
  A 0.32 0.32 0.0 0 0 170.59 573.73
  L 159.35 607.10
  A 0.32 0.32 0.0 0 0 159.66 607.52
  L 167.21 607.49
  A 0.32 0.32 0.0 0 0 167.52 607.26
  L 169.28 600.98
  Z
  M 207.00 580.83
  A 0.33 0.33 0.0 0 1 207.33 580.50
  L 215.91 580.51
  A 0.33 0.33 0.0 0 0 216.24 580.18
  L 216.25 573.83
  A 0.33 0.33 0.0 0 0 215.92 573.50
  L 190.33 573.50
  A 0.33 0.33 0.0 0 0 190.00 573.83
  L 190.01 580.17
  A 0.33 0.33 0.0 0 0 190.34 580.50
  L 198.92 580.51
  A 0.33 0.33 0.0 0 1 199.25 580.84
  L 199.25 607.17
  A 0.33 0.33 0.0 0 0 199.58 607.50
  L 206.67 607.50
  A 0.33 0.33 0.0 0 0 207.00 607.17
  L 207.00 580.83
  Z
  M 229.00 580.80
  A 0.30 0.30 0.0 0 1 229.30 580.50
  L 244.94 580.50
  A 0.30 0.30 0.0 0 0 245.24 580.20
  L 245.25 573.80
  A 0.30 0.30 0.0 0 0 244.95 573.50
  L 221.55 573.50
  A 0.30 0.30 0.0 0 0 221.25 573.80
  L 221.25 607.20
  A 0.30 0.30 0.0 0 0 221.55 607.50
  L 245.95 607.50
  A 0.30 0.30 0.0 0 0 246.25 607.20
  L 246.25 600.80
  A 0.30 0.30 0.0 0 0 245.95 600.50
  L 229.30 600.50
  A 0.30 0.30 0.0 0 1 229.00 600.20
  L 229.00 593.80
  A 0.30 0.30 0.0 0 1 229.30 593.50
  L 243.44 593.50
  A 0.30 0.30 0.0 0 0 243.74 593.20
  L 243.75 587.05
  A 0.30 0.30 0.0 0 0 243.45 586.75
  L 229.30 586.76
  A 0.30 0.30 0.0 0 1 229.00 586.46
  L 229.00 580.80
  Z
  M 325.72 600.98
  C 321.96 602.22 317.45 601.04 317.25 596.43
  Q 316.80 586.25 317.05 574.04
  Q 317.07 573.49 316.52 573.49
  L 310.00 573.50
  A 0.56 0.56 0.0 0 0 309.45 574.07
  Q 309.62 583.08 309.42 593.99
  C 309.29 601.49 311.33 606.88 319.56 607.85
  C 324.95 608.47 332.31 608.08 335.04 602.88
  Q 336.75 599.62 336.75 594.15
  Q 336.75 583.98 336.76 573.80
  Q 336.76 573.50 336.46 573.50
  L 329.27 573.50
  A 0.26 0.26 0.0 0 0 329.02 573.76
  Q 328.97 584.34 329.03 594.40
  C 329.04 597.01 328.58 600.03 325.72 600.98
  Z
  M 392.00 580.82
  A 0.32 0.32 0.0 0 1 392.32 580.50
  L 400.93 580.50
  A 0.32 0.32 0.0 0 0 401.25 580.18
  L 401.25 573.82
  A 0.32 0.32 0.0 0 0 400.93 573.50
  L 375.56 573.50
  A 0.32 0.32 0.0 0 0 375.24 573.82
  L 375.25 580.18
  A 0.32 0.32 0.0 0 0 375.57 580.50
  L 384.18 580.51
  A 0.32 0.32 0.0 0 1 384.50 580.83
  L 384.50 607.18
  A 0.32 0.32 0.0 0 0 384.82 607.50
  L 391.68 607.51
  A 0.32 0.32 0.0 0 0 392.00 607.19
  L 392.00 580.82
  Z
  M 471.58 583.84
  C 472.11 587.40 471.44 590.96 471.47 594.71
  Q 471.53 601.03 471.48 607.22
  A 0.28 0.28 0.0 0 0 471.76 607.50
  L 478.50 607.50
  A 0.25 0.25 0.0 0 0 478.75 607.25
  L 478.75 574.00
  Q 478.75 573.50 478.25 573.50
  L 468.48 573.50
  Q 467.93 573.50 467.79 574.03
  L 461.68 596.54
  Q 461.38 597.62 461.14 596.53
  C 460.95 595.68 461.04 594.82 460.82 593.96
  Q 458.42 584.42 455.68 574.03
  A 0.71 0.71 0.0 0 0 454.99 573.50
  L 444.75 573.50
  Q 444.25 573.50 444.25 574.00
  L 444.25 607.25
  A 0.25 0.25 0.0 0 0 444.50 607.50
  L 451.28 607.50
  A 0.28 0.28 0.0 0 0 451.56 607.22
  L 451.36 583.65
  Q 451.35 582.73 451.58 583.62
  L 457.42 606.92
  Q 457.57 607.50 458.16 607.50
  L 464.47 607.51
  A 0.63 0.62 8.0 0 0 465.07 607.06
  Q 468.19 596.45 470.94 586.64
  Q 471.32 585.28 471.36 583.85
  Q 471.40 582.56 471.58 583.84
  Z
  M 495.00 573.83
  A 0.33 0.33 0.0 0 0 494.67 573.50
  L 487.57 573.50
  A 0.33 0.33 0.0 0 0 487.24 573.83
  L 487.24 607.17
  A 0.33 0.33 0.0 0 0 487.57 607.50
  L 494.67 607.50
  A 0.33 0.33 0.0 0 0 495.00 607.17
  L 495.00 573.83
  Z
  M 512.17 600.51
  A 0.31 0.31 0.0 0 1 511.92 600.01
  L 527.43 579.34
  A 0.31 0.31 0.0 0 0 527.49 579.16
  L 527.50 573.81
  A 0.31 0.31 0.0 0 0 527.19 573.50
  L 502.31 573.50
  A 0.31 0.31 0.0 0 0 502.00 573.81
  L 502.02 580.19
  A 0.31 0.31 0.0 0 0 502.33 580.50
  L 516.62 580.50
  A 0.31 0.31 0.0 0 1 516.87 581.00
  L 501.56 601.14
  A 0.31 0.31 0.0 0 0 501.50 601.32
  L 501.50 607.19
  A 0.31 0.31 0.0 0 0 501.81 607.50
  L 527.19 607.50
  A 0.31 0.31 0.0 0 0 527.50 607.19
  L 527.50 600.81
  A 0.31 0.31 0.0 0 0 527.19 600.50
  L 512.17 600.51
  Z
  M 541.75 580.81
  A 0.31 0.31 0.0 0 1 542.06 580.50
  L 557.68 580.50
  A 0.31 0.31 0.0 0 0 557.99 580.19
  L 558.00 573.81
  A 0.31 0.31 0.0 0 0 557.69 573.50
  L 534.31 573.50
  A 0.31 0.31 0.0 0 0 534.00 573.81
  L 534.00 607.19
  A 0.31 0.31 0.0 0 0 534.31 607.50
  L 558.69 607.50
  A 0.31 0.31 0.0 0 0 559.00 607.19
  L 559.00 600.81
  A 0.31 0.31 0.0 0 0 558.69 600.50
  L 542.05 600.50
  A 0.31 0.31 0.0 0 1 541.74 600.19
  L 541.75 593.81
  A 0.31 0.31 0.0 0 1 542.06 593.50
  L 556.20 593.50
  A 0.31 0.31 0.0 0 0 556.51 593.19
  L 556.49 587.06
  A 0.31 0.31 0.0 0 0 556.18 586.75
  L 542.06 586.75
  A 0.31 0.31 0.0 0 1 541.75 586.44
  L 541.75 580.81
  Z
  M 565.97 574.05
  L 566.03 607.01
  A 0.55 0.55 0.0 0 0 566.58 607.55
  L 580.69 607.53
  A 15.20 14.54 89.9 0 0 595.20 592.30
  L 595.20 588.64
  A 15.20 14.54 89.9 0 0 580.63 573.47
  L 566.52 573.49
  A 0.55 0.55 0.0 0 0 565.97 574.05
  Z
  M 261.7426 598.7628
  A 0.27 0.27 0.0 0 0 261.4721 598.4933
  L 253.7522 598.5067
  A 0.27 0.27 0.0 0 0 253.4826 598.7772
  L 253.4974 607.2372
  A 0.27 0.27 0.0 0 0 253.7679 607.5067
  L 261.4878 607.4933
  A 0.27 0.27 0.0 0 0 261.7574 607.2228
  L 261.7426 598.7628
  Z
  M 608.4927 598.7928
  A 0.30 0.30 0.0 0 0 608.1921 598.4933
  L 600.5322 598.5067
  A 0.30 0.30 0.0 0 0 600.2327 598.8072
  L 600.2473 607.2072
  A 0.30 0.30 0.0 0 0 600.5479 607.5067
  L 608.2078 607.4933
  A 0.30 0.30 0.0 0 0 608.5073 607.1928
  L 608.4927 598.7928
  Z"
/>
<path fill="#ffffff" d="
  M 71.01 599.81
  Q 71.31 599.95 71.15 600.25
  Q 67.94 606.14 62.28 607.46
  C 53.41 609.54 44.83 606.27 42.14 597.16
  C 39.85 589.41 41.49 579.19 49.21 575.04
  C 57.10 570.79 67.28 572.98 71.45 581.54
  Q 71.56 581.78 71.32 581.88
  L 65.29 584.47
  A 0.30 0.29 -24.4 0 1 64.90 584.33
  Q 62.51 579.16 56.92 579.45
  C 52.11 579.69 49.50 583.76 49.06 588.25
  C 48.53 593.71 49.68 600.48 56.08 601.41
  Q 62.03 602.27 64.74 597.15
  Q 64.90 596.85 65.20 597.00
  L 71.01 599.81
  Z"
/>
<path fill="#ffffff" d="
  M 292.44 579.75
  C 282.08 577.73 280.20 588.83 282.52 596.07
  Q 283.93 600.50 288.46 601.34
  Q 294.62 602.49 297.47 597.05
  Q 297.58 596.84 297.79 596.95
  L 303.83 599.87
  Q 304.03 599.97 303.92 600.16
  Q 298.94 609.25 287.79 607.90
  Q 276.40 606.53 274.30 594.58
  C 271.92 581.05 280.74 570.21 295.08 573.72
  Q 300.72 575.10 303.93 581.14
  Q 304.28 581.80 303.59 582.09
  L 298.17 584.38
  Q 297.62 584.61 297.38 584.06
  Q 295.82 580.41 292.44 579.75
  Z"
/>
<path fill="#ffffff" d="
  M 352.38 580.70
  C 349.97 582.57 351.91 585.42 354.29 585.90
  Q 358.94 586.84 363.41 587.84
  C 367.46 588.75 371.21 591.42 371.48 595.86
  Q 372.00 604.73 363.24 607.21
  Q 351.76 610.47 342.41 601.95
  Q 341.53 601.16 342.43 600.38
  L 346.63 596.78
  Q 347.37 596.15 347.96 596.92
  Q 351.85 602.03 359.02 601.48
  C 361.03 601.33 363.59 600.03 363.45 597.70
  Q 363.31 595.41 360.75 594.85
  C 355.96 593.80 347.37 593.20 344.62 588.47
  C 340.32 581.10 346.16 574.15 353.91 573.19
  Q 362.86 572.08 369.65 577.77
  Q 370.37 578.37 369.69 579.01
  L 365.77 582.67
  Q 365.15 583.25 364.53 582.68
  C 361.60 580.01 355.89 577.96 352.38 580.70
  Z"
/>
<path fill="#ffffff" d="
  M 437.2343 593.0216
  A 14.82 14.82 0.0 0 1 422.4402 607.8675
  L 419.5802 607.8725
  A 14.82 14.82 0.0 0 1 404.7344 593.0784
  L 404.7257 588.0784
  A 14.82 14.82 0.0 0 1 419.5198 573.2325
  L 422.3798 573.2275
  A 14.82 14.82 0.0 0 1 437.2256 588.0216
  L 437.2343 593.0216
  Z
  M 420.9603 601.7900
  A 11.29 8.89 90.1 0 0 429.8700 590.5155
  A 11.29 8.89 90.1 0 0 420.9997 579.2100
  A 11.29 8.89 90.1 0 0 412.0900 590.4845
  A 11.29 8.89 90.1 0 0 420.9603 601.7900
  Z"
/>
<path fill="#ffffff" d="
  M 85.08 600.50
  L 97.92 600.50
  A 0.33 0.33 0.0 0 1 98.25 600.83
  L 98.25 607.17
  A 0.33 0.33 0.0 0 1 97.92 607.50
  L 77.33 607.50
  A 0.33 0.33 0.0 0 1 77.00 607.17
  L 77.00 573.83
  A 0.33 0.33 0.0 0 1 77.33 573.50
  L 84.42 573.50
  A 0.33 0.33 0.0 0 1 84.75 573.83
  L 84.75 600.17
  A 0.33 0.33 0.0 0 0 85.08 600.50
  Z"
/>
<rect fill="#ffffff" x="103.76" y="573.50" width="7.74" height="34.00" rx="0.30"/>
<path fill="#ffffff" d="
  M 126.66 582.75
  Q 127.33 595.11 126.88 607.34
  Q 126.87 607.50 126.71 607.50
  L 120.00 607.50
  Q 119.75 607.50 119.75 607.25
  L 119.75 574.00
  A 0.50 0.50 0.0 0 1 120.25 573.50
  L 130.54 573.50
  A 0.70 0.70 0.0 0 1 131.22 574.03
  L 137.00 596.54
  Q 137.35 597.91 137.42 596.49
  Q 137.45 595.83 137.61 595.20
  Q 139.85 586.23 143.38 573.98
  Q 143.52 573.50 144.02 573.50
  L 154.00 573.50
  Q 154.50 573.50 154.50 574.00
  L 154.50 607.25
  A 0.25 0.25 0.0 0 1 154.25 607.50
  L 147.30 607.50
  Q 147.10 607.50 147.09 607.30
  Q 146.65 595.40 147.55 583.83
  Q 147.67 582.39 147.27 583.77
  L 140.73 606.75
  A 1.05 1.03 7.4 0 1 139.74 607.50
  L 133.72 607.51
  Q 133.23 607.51 133.10 607.04
  Q 129.69 594.84 127.08 582.68
  Q 127.07 582.62 127.01 582.63
  L 126.72 582.67
  Q 126.65 582.68 126.66 582.75
  Z"
/>
<path fill="#ffffff" d="
  M 169.28 600.98
  L 167.52 607.26
  A 0.32 0.32 0.0 0 1 167.21 607.49
  L 159.66 607.52
  A 0.32 0.32 0.0 0 1 159.35 607.10
  L 170.59 573.73
  A 0.32 0.32 0.0 0 1 170.89 573.51
  L 179.62 573.49
  A 0.32 0.32 0.0 0 1 179.92 573.71
  L 191.09 607.10
  A 0.32 0.32 0.0 0 1 190.78 607.52
  L 183.13 607.50
  A 0.32 0.32 0.0 0 1 182.82 607.27
  L 180.96 600.98
  A 0.32 0.32 0.0 0 0 180.65 600.75
  L 169.59 600.75
  A 0.32 0.32 0.0 0 0 169.28 600.98
  Z
  M 171.36 594.06
  A 0.33 0.33 0.0 0 0 171.67 594.48
  L 178.50 594.52
  A 0.33 0.33 0.0 0 0 178.82 594.10
  L 175.47 582.60
  A 0.33 0.33 0.0 0 0 174.83 582.60
  L 171.36 594.06
  Z"
/>
<path fill="#ffffff" d="
  M 207.00 580.83
  L 207.00 607.17
  A 0.33 0.33 0.0 0 1 206.67 607.50
  L 199.58 607.50
  A 0.33 0.33 0.0 0 1 199.25 607.17
  L 199.25 580.84
  A 0.33 0.33 0.0 0 0 198.92 580.51
  L 190.34 580.50
  A 0.33 0.33 0.0 0 1 190.01 580.17
  L 190.00 573.83
  A 0.33 0.33 0.0 0 1 190.33 573.50
  L 215.92 573.50
  A 0.33 0.33 0.0 0 1 216.25 573.83
  L 216.24 580.18
  A 0.33 0.33 0.0 0 1 215.91 580.51
  L 207.33 580.50
  A 0.33 0.33 0.0 0 0 207.00 580.83
  Z"
/>
<path fill="#ffffff" d="
  M 229.00 580.80
  L 229.00 586.46
  A 0.30 0.30 0.0 0 0 229.30 586.76
  L 243.45 586.75
  A 0.30 0.30 0.0 0 1 243.75 587.05
  L 243.74 593.20
  A 0.30 0.30 0.0 0 1 243.44 593.50
  L 229.30 593.50
  A 0.30 0.30 0.0 0 0 229.00 593.80
  L 229.00 600.20
  A 0.30 0.30 0.0 0 0 229.30 600.50
  L 245.95 600.50
  A 0.30 0.30 0.0 0 1 246.25 600.80
  L 246.25 607.20
  A 0.30 0.30 0.0 0 1 245.95 607.50
  L 221.55 607.50
  A 0.30 0.30 0.0 0 1 221.25 607.20
  L 221.25 573.80
  A 0.30 0.30 0.0 0 1 221.55 573.50
  L 244.95 573.50
  A 0.30 0.30 0.0 0 1 245.25 573.80
  L 245.24 580.20
  A 0.30 0.30 0.0 0 1 244.94 580.50
  L 229.30 580.50
  A 0.30 0.30 0.0 0 0 229.00 580.80
  Z"
/>
<path fill="#ffffff" d="
  M 317.25 596.43
  C 317.45 601.04 321.96 602.22 325.72 600.98
  C 328.58 600.03 329.04 597.01 329.03 594.40
  Q 328.97 584.34 329.02 573.76
  A 0.26 0.26 0.0 0 1 329.27 573.50
  L 336.46 573.50
  Q 336.76 573.50 336.76 573.80
  Q 336.75 583.98 336.75 594.15
  Q 336.75 599.62 335.04 602.88
  C 332.31 608.08 324.95 608.47 319.56 607.85
  C 311.33 606.88 309.29 601.49 309.42 593.99
  Q 309.62 583.08 309.45 574.07
  A 0.56 0.56 0.0 0 1 310.00 573.50
  L 316.52 573.49
  Q 317.07 573.49 317.05 574.04
  Q 316.80 586.25 317.25 596.43
  Z"
/>
<path fill="#ffffff" d="
  M 392.00 580.82
  L 392.00 607.19
  A 0.32 0.32 0.0 0 1 391.68 607.51
  L 384.82 607.50
  A 0.32 0.32 0.0 0 1 384.50 607.18
  L 384.50 580.83
  A 0.32 0.32 0.0 0 0 384.18 580.51
  L 375.57 580.50
  A 0.32 0.32 0.0 0 1 375.25 580.18
  L 375.24 573.82
  A 0.32 0.32 0.0 0 1 375.56 573.50
  L 400.93 573.50
  A 0.32 0.32 0.0 0 1 401.25 573.82
  L 401.25 580.18
  A 0.32 0.32 0.0 0 1 400.93 580.50
  L 392.32 580.50
  A 0.32 0.32 0.0 0 0 392.00 580.82
  Z"
/>
<path fill="#ffffff" d="
  M 471.36 583.85
  Q 471.32 585.28 470.94 586.64
  Q 468.19 596.45 465.07 607.06
  A 0.63 0.62 8.0 0 1 464.47 607.51
  L 458.16 607.50
  Q 457.57 607.50 457.42 606.92
  L 451.58 583.62
  Q 451.35 582.73 451.36 583.65
  L 451.56 607.22
  A 0.28 0.28 0.0 0 1 451.28 607.50
  L 444.50 607.50
  A 0.25 0.25 0.0 0 1 444.25 607.25
  L 444.25 574.00
  Q 444.25 573.50 444.75 573.50
  L 454.99 573.50
  A 0.71 0.71 0.0 0 1 455.68 574.03
  Q 458.42 584.42 460.82 593.96
  C 461.04 594.82 460.95 595.68 461.14 596.53
  Q 461.38 597.62 461.68 596.54
  L 467.79 574.03
  Q 467.93 573.50 468.48 573.50
  L 478.25 573.50
  Q 478.75 573.50 478.75 574.00
  L 478.75 607.25
  A 0.25 0.25 0.0 0 1 478.50 607.50
  L 471.76 607.50
  A 0.28 0.28 0.0 0 1 471.48 607.22
  Q 471.53 601.03 471.47 594.71
  C 471.44 590.96 472.11 587.40 471.58 583.84
  Q 471.40 582.56 471.36 583.85
  Z"
/>
<rect fill="#ffffff" x="487.24" y="573.50" width="7.76" height="34.00" rx="0.33"/>
<path fill="#ffffff" d="
  M 512.17 600.51
  L 527.19 600.50
  A 0.31 0.31 0.0 0 1 527.50 600.81
  L 527.50 607.19
  A 0.31 0.31 0.0 0 1 527.19 607.50
  L 501.81 607.50
  A 0.31 0.31 0.0 0 1 501.50 607.19
  L 501.50 601.32
  A 0.31 0.31 0.0 0 1 501.56 601.14
  L 516.87 581.00
  A 0.31 0.31 0.0 0 0 516.62 580.50
  L 502.33 580.50
  A 0.31 0.31 0.0 0 1 502.02 580.19
  L 502.00 573.81
  A 0.31 0.31 0.0 0 1 502.31 573.50
  L 527.19 573.50
  A 0.31 0.31 0.0 0 1 527.50 573.81
  L 527.49 579.16
  A 0.31 0.31 0.0 0 1 527.43 579.34
  L 511.92 600.01
  A 0.31 0.31 0.0 0 0 512.17 600.51
  Z"
/>
<path fill="#ffffff" d="
  M 541.75 580.81
  L 541.75 586.44
  A 0.31 0.31 0.0 0 0 542.06 586.75
  L 556.18 586.75
  A 0.31 0.31 0.0 0 1 556.49 587.06
  L 556.51 593.19
  A 0.31 0.31 0.0 0 1 556.20 593.50
  L 542.06 593.50
  A 0.31 0.31 0.0 0 0 541.75 593.81
  L 541.74 600.19
  A 0.31 0.31 0.0 0 0 542.05 600.50
  L 558.69 600.50
  A 0.31 0.31 0.0 0 1 559.00 600.81
  L 559.00 607.19
  A 0.31 0.31 0.0 0 1 558.69 607.50
  L 534.31 607.50
  A 0.31 0.31 0.0 0 1 534.00 607.19
  L 534.00 573.81
  A 0.31 0.31 0.0 0 1 534.31 573.50
  L 557.69 573.50
  A 0.31 0.31 0.0 0 1 558.00 573.81
  L 557.99 580.19
  A 0.31 0.31 0.0 0 1 557.68 580.50
  L 542.06 580.50
  A 0.31 0.31 0.0 0 0 541.75 580.81
  Z"
/>
<path fill="#ffffff" d="
  M 565.97 574.05
  A 0.55 0.55 0.0 0 1 566.52 573.49
  L 580.63 573.47
  A 15.20 14.54 89.9 0 1 595.20 588.64
  L 595.20 592.30
  A 15.20 14.54 89.9 0 1 580.69 607.53
  L 566.58 607.55
  A 0.55 0.55 0.0 0 1 566.03 607.01
  L 565.97 574.05
  Z
  M 573.48 581.40
  L 573.52 599.92
  A 0.40 0.40 0.0 0 0 573.92 600.32
  L 579.45 600.31
  A 8.30 7.79 89.9 0 0 587.22 592.00
  L 587.22 589.28
  A 8.30 7.79 89.9 0 0 579.41 580.99
  L 573.88 581.00
  A 0.40 0.40 0.0 0 0 573.48 581.40
  Z"
/>
<ellipse fill="#e40613" cx="0.00" cy="0.00" transform="translate(420.98,590.50) rotate(90.1)" rx="11.29" ry="8.89"/>
<path fill="#e40613" d="
  M 573.48 581.40
  A 0.40 0.40 0.0 0 1 573.88 581.00
  L 579.41 580.99
  A 8.30 7.79 89.9 0 1 587.22 589.28
  L 587.22 592.00
  A 8.30 7.79 89.9 0 1 579.45 600.31
  L 573.92 600.32
  A 0.40 0.40 0.0 0 1 573.52 599.92
  L 573.48 581.40
  Z"
/>
<path fill="#e40613" d="
  M 171.36 594.06
  L 174.83 582.60
  A 0.33 0.33 0.0 0 1 175.47 582.60
  L 178.82 594.10
  A 0.33 0.33 0.0 0 1 178.50 594.52
  L 171.67 594.48
  A 0.33 0.33 0.0 0 1 171.36 594.06
  Z"
/>
<rect fill="#ffffff" x="-4.13" y="-4.50" transform="translate(257.62,603.00) rotate(-0.1)" width="8.26" height="9.00" rx="0.27"/>
<rect fill="#ffffff" x="-4.13" y="-4.50" transform="translate(604.37,603.00) rotate(-0.1)" width="8.26" height="9.00" rx="0.30"/>
</svg>

