

<?xml version="1.0" encoding="UTF-8" standalone="no"?>
<!DOCTYPE svg PUBLIC "-//W3C//DTD SVG 1.1//EN" "http://www.w3.org/Graphics/SVG/1.1/DTD/svg11.dtd">
<svg xmlns="http://www.w3.org/2000/svg" version="1.1" viewBox="0.00 0.00 1702.00 824.00">
<g stroke-width="2.00" fill="none" stroke-linecap="butt">
<path stroke="#eeb2a5" vector-effect="non-scaling-stroke" d="
  M 255.12 428.57
  C 269.28 428.12 284.53 428.22 298.99 428.00
  Q 426.87 426.00 554.77 424.01
  A 0.37 0.37 0.0 0 0 555.13 423.60
  Q 553.58 409.86 550.40 396.57
  Q 549.97 394.74 548.09 394.71
  Q 405.87 392.80 262.53 390.71
  Q 262.39 390.71 262.39 390.56
  L 262.39 390.55
  Q 262.39 390.41 262.53 390.41
  Q 404.83 388.21 547.19 385.74
  Q 547.77 385.73 547.61 385.17
  Q 543.94 372.48 539.18 359.90
  Q 538.74 358.73 537.49 358.71
  Q 403.63 356.76 274.57 354.72
  Q 274.41 354.72 274.41 354.56
  L 274.41 354.55
  Q 274.41 354.40 274.56 354.39
  Q 404.77 352.22 534.95 349.73
  Q 535.56 349.72 535.31 349.17
  Q 508.17 288.86 459.38 247.81
  Q 409.11 205.50 345.02 190.59
  Q 334.63 188.17 325.19 186.79
  Q 260.91 177.43 199.95 197.02
  Q 190.02 200.21 181.20 203.86
  Q 100.76 237.10 53.63 310.07
  C 38.94 332.82 27.98 357.83 20.71 383.97
  Q 17.67 394.92 15.83 406.28
  Q 15.71 407.05 16.44 407.33
  Q 16.93 407.52 16.57 407.97
  Q 15.94 408.76 16.95 408.75
  L 407.07 402.77
  Q 407.38 402.77 407.29 403.07
  L 403.10 416.85
  Q 402.91 417.50 402.23 417.49
  L 15.79 410.75
  A 0.42 0.41 4.9 0 0 15.38 411.09
  Q 12.75 426.59 11.98 444.16
  Q 11.93 445.26 13.03 445.24
  L 395.70 439.52
  Q 396.25 439.51 396.08 440.03
  L 391.49 454.23
  Q 391.32 454.76 390.76 454.75
  L 12.28 448.25
  Q 11.77 448.24 11.71 448.75
  Q 10.88 455.73 11.27 463.11
  Q 11.77 472.54 12.71 481.81
  A 0.77 0.76 86.7 0 0 13.48 482.50
  L 383.96 476.76
  Q 384.44 476.75 384.30 477.22
  L 379.90 491.59
  Q 379.76 492.04 379.29 492.03
  L 13.71 485.52
  Q 12.91 485.51 13.02 486.30
  Q 15.15 502.89 18.75 519.65
  A 0.75 0.74 83.0 0 0 19.50 520.24
  L 372.17 514.27
  Q 372.82 514.26 372.63 514.89
  L 368.35 529.01
  A 0.68 0.68 0.0 0 1 367.69 529.49
  L 20.03 522.74
  Q 19.50 522.73 19.63 523.25
  Q 23.54 539.21 29.76 555.64
  A 0.60 0.59 -11.1 0 0 30.33 556.02
  L 360.70 550.29
  Q 361.39 550.28 361.17 550.93
  L 356.46 565.59
  A 0.56 0.55 -80.1 0 1 355.92 565.97
  L 31.60 559.00
  A 0.43 0.43 0.0 0 0 31.19 559.59
  Q 38.11 576.79 47.26 592.85
  Q 47.50 593.27 47.99 593.27
  L 349.23 587.53
  Q 349.71 587.53 349.57 587.98
  L 344.85 602.76
  A 0.65 0.65 0.0 0 1 344.22 603.21
  L 49.99 596.73
  A 0.44 0.43 -15.5 0 0 49.61 597.39
  Q 60.33 614.65 72.37 629.85
  Q 72.71 630.27 73.25 630.26
  L 337.47 624.29
  Q 337.93 624.28 337.80 624.72
  L 333.37 639.32
  Q 333.18 639.97 332.50 639.95
  L 76.50 633.50
  A 0.44 0.43 70.6 0 0 76.16 634.22
  Q 104.18 667.73 140.60 690.23
  C 173.11 710.31 210.39 724.25 248.38 728.84
  Q 280.15 732.68 308.27 730.23
  Q 329.44 728.38 350.82 723.12
  C 384.31 714.87 418.04 699.15 446.22 678.17
  Q 464.03 664.92 478.16 650.66
  Q 521.70 606.71 543.05 546.54
  A 0.61 0.61 0.0 0 0 542.48 545.73
  L 216.09 541.62
  Q 215.43 541.61 215.60 540.97
  L 215.68 540.66
  Q 215.81 540.15 216.34 540.15
  L 546.03 535.26
  Q 546.55 535.25 546.69 534.75
  Q 550.07 521.94 552.57 508.66
  A 0.56 0.56 0.0 0 0 552.02 507.99
  L 227.77 504.23
  Q 227.31 504.23 227.38 503.77
  L 227.48 503.23
  Q 227.55 502.77 228.02 502.76
  L 553.98 498.04
  A 0.50 0.49 3.4 0 0 554.46 497.62
  Q 556.26 485.13 556.76 471.84
  Q 556.79 471.00 555.94 470.99
  L 240.03 466.85
  Q 239.37 466.84 239.22 466.20
  L 239.13 465.81
  A 0.57 0.56 83.0 0 1 239.67 465.11
  Q 398.01 462.70 556.31 460.53
  Q 556.50 460.53 556.69 460.59
  Q 556.82 460.64 556.95 460.70
  Q 557.55 460.95 557.55 460.29
  Q 557.45 447.52 556.55 435.05
  A 2.78 2.78 0.0 0 0 553.82 432.48
  Q 423.29 430.86 291.62 429.28
  Q 281.97 429.16 273.38 428.90
  Q 263.86 428.62 255.12 428.61
  A 0.02 0.02 0.0 0 1 255.12 428.57"
/>
<path stroke="#eeb2a5" vector-effect="non-scaling-stroke" d="
  M 756.52 413.29
  L 717.23 539.69
  A 0.24 0.23 -80.9 0 0 717.45 540.00
  L 788.47 540.00
  A 1.03 1.02 8.4 0 0 789.45 539.28
  L 829.46 413.08
  Q 829.65 412.50 830.26 412.50
  C 832.87 412.50 835.49 412.01 838.08 412.01
  Q 858.51 411.96 876.93 412.02
  Q 877.55 412.02 877.74 411.43
  L 896.31 350.83
  A 0.52 0.51 22.5 0 0 896.05 350.22
  Q 895.62 350.00 895.14 350.00
  Q 808.06 350.02 720.90 350.00
  Q 719.53 350.00 719.12 351.31
  L 700.58 411.20
  A 0.64 0.64 0.0 0 0 701.20 412.02
  Q 726.24 411.91 750.33 412.06
  Q 753.32 412.08 756.14 412.66
  Q 756.68 412.77 756.52 413.29"
/>
<path stroke="#eeb2a5" vector-effect="non-scaling-stroke" d="
  M 1214.17 504.21
  L 1198.18 350.45
  Q 1198.13 350.00 1197.69 350.00
  L 1118.64 349.99
  Q 1117.99 349.99 1117.65 350.56
  L 1028.42 501.58
  A 0.39 0.39 0.0 0 1 1027.74 501.55
  L 1010.07 464.52
  Q 1009.74 463.83 1010.48 463.61
  Q 1015.94 462.00 1020.85 460.12
  C 1035.35 454.58 1048.43 444.27 1054.82 430.61
  Q 1060.60 418.24 1061.94 404.61
  C 1064.29 380.75 1051.73 362.91 1029.50 355.05
  Q 1015.08 349.95 998.30 349.97
  Q 954.40 350.03 908.80 349.98
  A 0.81 0.80 -81.0 0 0 908.04 350.54
  L 849.15 539.21
  A 0.60 0.59 8.6 0 0 849.72 539.98
  L 920.77 540.00
  A 0.74 0.74 0.0 0 0 921.48 539.48
  L 944.43 467.01
  Q 944.73 466.07 945.06 467.00
  L 970.30 539.50
  Q 970.48 540.01 971.02 540.01
  L 1080.02 540.00
  A 1.00 1.00 0.0 0 0 1080.93 539.42
  L 1096.44 506.68
  A 1.18 1.18 0.0 0 1 1097.51 506.00
  L 1148.32 505.99
  Q 1148.90 505.99 1148.94 506.57
  L 1150.91 539.23
  Q 1150.96 540.00 1151.73 540.00
  L 1272.24 540.00
  A 1.19 1.19 0.0 0 0 1273.38 539.14
  L 1300.01 447.33
  Q 1300.33 446.23 1300.54 447.35
  L 1317.58 539.47
  A 0.66 0.66 0.0 0 0 1318.23 540.01
  L 1388.50 540.00
  A 1.13 1.12 -81.1 0 0 1389.57 539.21
  Q 1418.11 447.50 1446.85 355.52
  Q 1447.65 352.96 1448.11 350.84
  Q 1448.28 350.01 1447.43 350.01
  L 1376.53 350.00
  Q 1376.01 350.00 1375.87 350.51
  L 1353.18 438.24
  Q 1352.87 439.42 1352.56 438.24
  L 1328.94 350.52
  Q 1328.80 350.00 1328.27 350.00
  L 1262.75 349.99
  A 1.06 1.05 -81.4 0 0 1261.74 350.74
  L 1214.50 504.24
  Q 1214.25 505.05 1214.17 504.21"
/>
<path stroke="#eeb2a5" vector-effect="non-scaling-stroke" d="
  M 1495.46 470.11
  A 0.53 0.53 0.0 0 1 1495.97 469.74
  L 1563.00 469.75
  A 0.53 0.53 0.0 0 0 1563.51 469.38
  L 1579.55 419.93
  A 0.53 0.53 0.0 0 0 1579.05 419.24
  L 1511.29 419.24
  A 0.53 0.53 0.0 0 1 1510.79 418.54
  L 1515.84 403.36
  A 0.53 0.53 0.0 0 1 1516.34 403.00
  L 1582.75 402.99
  A 0.53 0.53 0.0 0 0 1583.26 402.62
  L 1599.54 350.71
  A 0.53 0.53 0.0 0 0 1599.04 350.02
  L 1464.17 349.99
  A 0.53 0.53 0.0 0 0 1463.66 350.36
  L 1405.30 539.31
  A 0.53 0.53 0.0 0 0 1405.81 540.00
  L 1543.05 540.00
  A 0.53 0.53 0.0 0 0 1543.56 539.63
  L 1559.32 488.69
  A 0.53 0.53 0.0 0 0 1558.81 488.00
  L 1490.56 488.01
  A 0.53 0.53 0.0 0 1 1490.06 487.32
  L 1495.46 470.11"
/>
<path stroke="#eeb2a5" vector-effect="non-scaling-stroke" d="
  M 1648.02 384.81
  C 1654.66 372.04 1649.52 352.14 1632.71 350.16
  Q 1626.01 349.38 1620.90 351.16
  C 1613.26 353.82 1607.50 361.52 1607.01 370.08
  Q 1606.77 374.29 1607.12 376.56
  Q 1609.34 390.78 1621.69 394.81
  C 1631.65 398.06 1643.01 394.44 1648.02 384.81"
/>
<path stroke="#eeb2a5" vector-effect="non-scaling-stroke" d="
  M 956.78 426.27
  A 0.14 0.14 0.0 0 0 956.91 426.45
  Q 967.47 426.81 978.17 426.22
  C 981.49 426.04 985.19 424.86 988.17 423.32
  Q 995.04 419.80 996.40 411.58
  C 997.54 404.69 991.18 402.15 985.62 402.04
  Q 974.92 401.82 964.70 402.00
  A 0.40 0.37 -80.3 0 0 964.34 402.27
  L 956.78 426.27"
/>
<path stroke="#eeb2a5" vector-effect="non-scaling-stroke" d="
  M 1144.32 404.84
  L 1116.97 463.02
  Q 1116.73 463.53 1117.30 463.53
  L 1146.98 463.54
  Q 1147.50 463.54 1147.48 463.02
  L 1144.91 404.96
  Q 1144.85 403.71 1144.32 404.84"
/>
<path stroke="#eeb2a5" vector-effect="non-scaling-stroke" d="
  M 1628.7587 390.4099
  A 17.55 15.54 90.2 0 0 1644.3599 372.9142
  A 17.55 15.54 90.2 0 0 1628.8813 355.3101
  A 17.55 15.54 90.2 0 0 1613.2801 372.8058
  A 17.55 15.54 90.2 0 0 1628.7587 390.4099"
/>
<path stroke="#eeb2a5" vector-effect="non-scaling-stroke" d="
  M 1633.79 374.25
  C 1641.25 371.83 1640.30 361.87 1632.60 360.62
  Q 1627.06 359.73 1621.10 360.21
  Q 1620.07 360.30 1620.06 361.33
  L 1620.06 384.49
  Q 1620.06 385.42 1620.99 385.44
  L 1624.21 385.51
  Q 1625.46 385.53 1625.46 384.29
  L 1625.45 375.53
  Q 1625.45 375.10 1625.85 374.98
  Q 1627.11 374.59 1627.81 375.73
  Q 1630.28 379.78 1632.33 384.43
  Q 1632.70 385.26 1633.60 385.26
  L 1637.78 385.25
  Q 1639.28 385.24 1638.55 383.93
  L 1633.53 374.91
  A 0.46 0.46 0.0 0 1 1633.79 374.25"
/>
<path stroke="#eeb2a5" vector-effect="non-scaling-stroke" d="
  M 1625.36 365.57
  L 1625.48 369.39
  Q 1625.50 370.14 1626.23 370.27
  Q 1630.36 371.01 1632.80 367.86
  A 0.39 0.39 0.0 0 0 1632.72 367.30
  Q 1629.70 365.18 1626.28 364.74
  A 0.81 0.81 0.0 0 0 1625.36 365.57"
/>
</g>
<path fill="#ffffff" d="
  M 0.00 0.00
  L 1702.00 0.00
  L 1702.00 824.00
  L 0.00 824.00
  L 0.00 0.00
  Z
  M 255.12 428.57
  C 269.28 428.12 284.53 428.22 298.99 428.00
  Q 426.87 426.00 554.77 424.01
  A 0.37 0.37 0.0 0 0 555.13 423.60
  Q 553.58 409.86 550.40 396.57
  Q 549.97 394.74 548.09 394.71
  Q 405.87 392.80 262.53 390.71
  Q 262.39 390.71 262.39 390.56
  L 262.39 390.55
  Q 262.39 390.41 262.53 390.41
  Q 404.83 388.21 547.19 385.74
  Q 547.77 385.73 547.61 385.17
  Q 543.94 372.48 539.18 359.90
  Q 538.74 358.73 537.49 358.71
  Q 403.63 356.76 274.57 354.72
  Q 274.41 354.72 274.41 354.56
  L 274.41 354.55
  Q 274.41 354.40 274.56 354.39
  Q 404.77 352.22 534.95 349.73
  Q 535.56 349.72 535.31 349.17
  Q 508.17 288.86 459.38 247.81
  Q 409.11 205.50 345.02 190.59
  Q 334.63 188.17 325.19 186.79
  Q 260.91 177.43 199.95 197.02
  Q 190.02 200.21 181.20 203.86
  Q 100.76 237.10 53.63 310.07
  C 38.94 332.82 27.98 357.83 20.71 383.97
  Q 17.67 394.92 15.83 406.28
  Q 15.71 407.05 16.44 407.33
  Q 16.93 407.52 16.57 407.97
  Q 15.94 408.76 16.95 408.75
  L 407.07 402.77
  Q 407.38 402.77 407.29 403.07
  L 403.10 416.85
  Q 402.91 417.50 402.23 417.49
  L 15.79 410.75
  A 0.42 0.41 4.9 0 0 15.38 411.09
  Q 12.75 426.59 11.98 444.16
  Q 11.93 445.26 13.03 445.24
  L 395.70 439.52
  Q 396.25 439.51 396.08 440.03
  L 391.49 454.23
  Q 391.32 454.76 390.76 454.75
  L 12.28 448.25
  Q 11.77 448.24 11.71 448.75
  Q 10.88 455.73 11.27 463.11
  Q 11.77 472.54 12.71 481.81
  A 0.77 0.76 86.7 0 0 13.48 482.50
  L 383.96 476.76
  Q 384.44 476.75 384.30 477.22
  L 379.90 491.59
  Q 379.76 492.04 379.29 492.03
  L 13.71 485.52
  Q 12.91 485.51 13.02 486.30
  Q 15.15 502.89 18.75 519.65
  A 0.75 0.74 83.0 0 0 19.50 520.24
  L 372.17 514.27
  Q 372.82 514.26 372.63 514.89
  L 368.35 529.01
  A 0.68 0.68 0.0 0 1 367.69 529.49
  L 20.03 522.74
  Q 19.50 522.73 19.63 523.25
  Q 23.54 539.21 29.76 555.64
  A 0.60 0.59 -11.1 0 0 30.33 556.02
  L 360.70 550.29
  Q 361.39 550.28 361.17 550.93
  L 356.46 565.59
  A 0.56 0.55 -80.1 0 1 355.92 565.97
  L 31.60 559.00
  A 0.43 0.43 0.0 0 0 31.19 559.59
  Q 38.11 576.79 47.26 592.85
  Q 47.50 593.27 47.99 593.27
  L 349.23 587.53
  Q 349.71 587.53 349.57 587.98
  L 344.85 602.76
  A 0.65 0.65 0.0 0 1 344.22 603.21
  L 49.99 596.73
  A 0.44 0.43 -15.5 0 0 49.61 597.39
  Q 60.33 614.65 72.37 629.85
  Q 72.71 630.27 73.25 630.26
  L 337.47 624.29
  Q 337.93 624.28 337.80 624.72
  L 333.37 639.32
  Q 333.18 639.97 332.50 639.95
  L 76.50 633.50
  A 0.44 0.43 70.6 0 0 76.16 634.22
  Q 104.18 667.73 140.60 690.23
  C 173.11 710.31 210.39 724.25 248.38 728.84
  Q 280.15 732.68 308.27 730.23
  Q 329.44 728.38 350.82 723.12
  C 384.31 714.87 418.04 699.15 446.22 678.17
  Q 464.03 664.92 478.16 650.66
  Q 521.70 606.71 543.05 546.54
  A 0.61 0.61 0.0 0 0 542.48 545.73
  L 216.09 541.62
  Q 215.43 541.61 215.60 540.97
  L 215.68 540.66
  Q 215.81 540.15 216.34 540.15
  L 546.03 535.26
  Q 546.55 535.25 546.69 534.75
  Q 550.07 521.94 552.57 508.66
  A 0.56 0.56 0.0 0 0 552.02 507.99
  L 227.77 504.23
  Q 227.31 504.23 227.38 503.77
  L 227.48 503.23
  Q 227.55 502.77 228.02 502.76
  L 553.98 498.04
  A 0.50 0.49 3.4 0 0 554.46 497.62
  Q 556.26 485.13 556.76 471.84
  Q 556.79 471.00 555.94 470.99
  L 240.03 466.85
  Q 239.37 466.84 239.22 466.20
  L 239.13 465.81
  A 0.57 0.56 83.0 0 1 239.67 465.11
  Q 398.01 462.70 556.31 460.53
  Q 556.50 460.53 556.69 460.59
  Q 556.82 460.64 556.95 460.70
  Q 557.55 460.95 557.55 460.29
  Q 557.45 447.52 556.55 435.05
  A 2.78 2.78 0.0 0 0 553.82 432.48
  Q 423.29 430.86 291.62 429.28
  Q 281.97 429.16 273.38 428.90
  Q 263.86 428.62 255.12 428.61
  A 0.02 0.02 0.0 0 1 255.12 428.57
  Z
  M 756.52 413.29
  L 717.23 539.69
  A 0.24 0.23 -80.9 0 0 717.45 540.00
  L 788.47 540.00
  A 1.03 1.02 8.4 0 0 789.45 539.28
  L 829.46 413.08
  Q 829.65 412.50 830.26 412.50
  C 832.87 412.50 835.49 412.01 838.08 412.01
  Q 858.51 411.96 876.93 412.02
  Q 877.55 412.02 877.74 411.43
  L 896.31 350.83
  A 0.52 0.51 22.5 0 0 896.05 350.22
  Q 895.62 350.00 895.14 350.00
  Q 808.06 350.02 720.90 350.00
  Q 719.53 350.00 719.12 351.31
  L 700.58 411.20
  A 0.64 0.64 0.0 0 0 701.20 412.02
  Q 726.24 411.91 750.33 412.06
  Q 753.32 412.08 756.14 412.66
  Q 756.68 412.77 756.52 413.29
  Z
  M 1214.17 504.21
  L 1198.18 350.45
  Q 1198.13 350.00 1197.69 350.00
  L 1118.64 349.99
  Q 1117.99 349.99 1117.65 350.56
  L 1028.42 501.58
  A 0.39 0.39 0.0 0 1 1027.74 501.55
  L 1010.07 464.52
  Q 1009.74 463.83 1010.48 463.61
  Q 1015.94 462.00 1020.85 460.12
  C 1035.35 454.58 1048.43 444.27 1054.82 430.61
  Q 1060.60 418.24 1061.94 404.61
  C 1064.29 380.75 1051.73 362.91 1029.50 355.05
  Q 1015.08 349.95 998.30 349.97
  Q 954.40 350.03 908.80 349.98
  A 0.81 0.80 -81.0 0 0 908.04 350.54
  L 849.15 539.21
  A 0.60 0.59 8.6 0 0 849.72 539.98
  L 920.77 540.00
  A 0.74 0.74 0.0 0 0 921.48 539.48
  L 944.43 467.01
  Q 944.73 466.07 945.06 467.00
  L 970.30 539.50
  Q 970.48 540.01 971.02 540.01
  L 1080.02 540.00
  A 1.00 1.00 0.0 0 0 1080.93 539.42
  L 1096.44 506.68
  A 1.18 1.18 0.0 0 1 1097.51 506.00
  L 1148.32 505.99
  Q 1148.90 505.99 1148.94 506.57
  L 1150.91 539.23
  Q 1150.96 540.00 1151.73 540.00
  L 1272.24 540.00
  A 1.19 1.19 0.0 0 0 1273.38 539.14
  L 1300.01 447.33
  Q 1300.33 446.23 1300.54 447.35
  L 1317.58 539.47
  A 0.66 0.66 0.0 0 0 1318.23 540.01
  L 1388.50 540.00
  A 1.13 1.12 -81.1 0 0 1389.57 539.21
  Q 1418.11 447.50 1446.85 355.52
  Q 1447.65 352.96 1448.11 350.84
  Q 1448.28 350.01 1447.43 350.01
  L 1376.53 350.00
  Q 1376.01 350.00 1375.87 350.51
  L 1353.18 438.24
  Q 1352.87 439.42 1352.56 438.24
  L 1328.94 350.52
  Q 1328.80 350.00 1328.27 350.00
  L 1262.75 349.99
  A 1.06 1.05 -81.4 0 0 1261.74 350.74
  L 1214.50 504.24
  Q 1214.25 505.05 1214.17 504.21
  Z
  M 1495.46 470.11
  A 0.53 0.53 0.0 0 1 1495.97 469.74
  L 1563.00 469.75
  A 0.53 0.53 0.0 0 0 1563.51 469.38
  L 1579.55 419.93
  A 0.53 0.53 0.0 0 0 1579.05 419.24
  L 1511.29 419.24
  A 0.53 0.53 0.0 0 1 1510.79 418.54
  L 1515.84 403.36
  A 0.53 0.53 0.0 0 1 1516.34 403.00
  L 1582.75 402.99
  A 0.53 0.53 0.0 0 0 1583.26 402.62
  L 1599.54 350.71
  A 0.53 0.53 0.0 0 0 1599.04 350.02
  L 1464.17 349.99
  A 0.53 0.53 0.0 0 0 1463.66 350.36
  L 1405.30 539.31
  A 0.53 0.53 0.0 0 0 1405.81 540.00
  L 1543.05 540.00
  A 0.53 0.53 0.0 0 0 1543.56 539.63
  L 1559.32 488.69
  A 0.53 0.53 0.0 0 0 1558.81 488.00
  L 1490.56 488.01
  A 0.53 0.53 0.0 0 1 1490.06 487.32
  L 1495.46 470.11
  Z
  M 1648.02 384.81
  C 1654.66 372.04 1649.52 352.14 1632.71 350.16
  Q 1626.01 349.38 1620.90 351.16
  C 1613.26 353.82 1607.50 361.52 1607.01 370.08
  Q 1606.77 374.29 1607.12 376.56
  Q 1609.34 390.78 1621.69 394.81
  C 1631.65 398.06 1643.01 394.44 1648.02 384.81
  Z"
/>
<path fill="#dd654b" d="
  M 255.12 428.61
  Q 263.86 428.62 273.38 428.90
  Q 281.97 429.16 291.62 429.28
  Q 423.29 430.86 553.82 432.48
  A 2.78 2.78 0.0 0 1 556.55 435.05
  Q 557.45 447.52 557.55 460.29
  Q 557.55 460.95 556.95 460.70
  Q 556.82 460.64 556.69 460.59
  Q 556.50 460.53 556.31 460.53
  Q 398.01 462.70 239.67 465.11
  A 0.57 0.56 83.0 0 0 239.13 465.81
  L 239.22 466.20
  Q 239.37 466.84 240.03 466.85
  L 555.94 470.99
  Q 556.79 471.00 556.76 471.84
  Q 556.26 485.13 554.46 497.62
  A 0.50 0.49 3.4 0 1 553.98 498.04
  L 228.02 502.76
  Q 227.55 502.77 227.48 503.23
  L 227.38 503.77
  Q 227.31 504.23 227.77 504.23
  L 552.02 507.99
  A 0.56 0.56 0.0 0 1 552.57 508.66
  Q 550.07 521.94 546.69 534.75
  Q 546.55 535.25 546.03 535.26
  L 216.34 540.15
  Q 215.81 540.15 215.68 540.66
  L 215.60 540.97
  Q 215.43 541.61 216.09 541.62
  L 542.48 545.73
  A 0.61 0.61 0.0 0 1 543.05 546.54
  Q 521.70 606.71 478.16 650.66
  Q 464.03 664.92 446.22 678.17
  C 418.04 699.15 384.31 714.87 350.82 723.12
  Q 329.44 728.38 308.27 730.23
  Q 280.15 732.68 248.38 728.84
  C 210.39 724.25 173.11 710.31 140.60 690.23
  Q 104.18 667.73 76.16 634.22
  A 0.44 0.43 70.6 0 1 76.50 633.50
  L 332.50 639.95
  Q 333.18 639.97 333.37 639.32
  L 337.80 624.72
  Q 337.93 624.28 337.47 624.29
  L 73.25 630.26
  Q 72.71 630.27 72.37 629.85
  Q 60.33 614.65 49.61 597.39
  A 0.44 0.43 -15.5 0 1 49.99 596.73
  L 344.22 603.21
  A 0.65 0.65 0.0 0 0 344.85 602.76
  L 349.57 587.98
  Q 349.71 587.53 349.23 587.53
  L 47.99 593.27
  Q 47.50 593.27 47.26 592.85
  Q 38.11 576.79 31.19 559.59
  A 0.43 0.43 0.0 0 1 31.60 559.00
  L 355.92 565.97
  A 0.56 0.55 -80.1 0 0 356.46 565.59
  L 361.17 550.93
  Q 361.39 550.28 360.70 550.29
  L 30.33 556.02
  A 0.60 0.59 -11.1 0 1 29.76 555.64
  Q 23.54 539.21 19.63 523.25
  Q 19.50 522.73 20.03 522.74
  L 367.69 529.49
  A 0.68 0.68 0.0 0 0 368.35 529.01
  L 372.63 514.89
  Q 372.82 514.26 372.17 514.27
  L 19.50 520.24
  A 0.75 0.74 83.0 0 1 18.75 519.65
  Q 15.15 502.89 13.02 486.30
  Q 12.91 485.51 13.71 485.52
  L 379.29 492.03
  Q 379.76 492.04 379.90 491.59
  L 384.30 477.22
  Q 384.44 476.75 383.96 476.76
  L 13.48 482.50
  A 0.77 0.76 86.7 0 1 12.71 481.81
  Q 11.77 472.54 11.27 463.11
  Q 10.88 455.73 11.71 448.75
  Q 11.77 448.24 12.28 448.25
  L 390.76 454.75
  Q 391.32 454.76 391.49 454.23
  L 396.08 440.03
  Q 396.25 439.51 395.70 439.52
  L 13.03 445.24
  Q 11.93 445.26 11.98 444.16
  Q 12.75 426.59 15.38 411.09
  A 0.42 0.41 4.9 0 1 15.79 410.75
  L 402.23 417.49
  Q 402.91 417.50 403.10 416.85
  L 407.29 403.07
  Q 407.38 402.77 407.07 402.77
  L 16.95 408.75
  Q 15.94 408.76 16.57 407.97
  Q 16.93 407.52 16.44 407.33
  Q 15.71 407.05 15.83 406.28
  Q 17.67 394.92 20.71 383.97
  C 27.98 357.83 38.94 332.82 53.63 310.07
  Q 100.76 237.10 181.20 203.86
  Q 190.02 200.21 199.95 197.02
  Q 260.91 177.43 325.19 186.79
  Q 334.63 188.17 345.02 190.59
  Q 409.11 205.50 459.38 247.81
  Q 508.17 288.86 535.31 349.17
  Q 535.56 349.72 534.95 349.73
  Q 404.77 352.22 274.56 354.39
  Q 274.41 354.40 274.41 354.55
  L 274.41 354.56
  Q 274.41 354.72 274.57 354.72
  Q 403.63 356.76 537.49 358.71
  Q 538.74 358.73 539.18 359.90
  Q 543.94 372.48 547.61 385.17
  Q 547.77 385.73 547.19 385.74
  Q 404.83 388.21 262.53 390.41
  Q 262.39 390.41 262.39 390.55
  L 262.39 390.56
  Q 262.39 390.71 262.53 390.71
  Q 405.87 392.80 548.09 394.71
  Q 549.97 394.74 550.40 396.57
  Q 553.58 409.86 555.13 423.60
  A 0.37 0.37 0.0 0 1 554.77 424.01
  Q 426.87 426.00 298.99 428.00
  C 284.53 428.22 269.28 428.12 255.12 428.57
  A 0.02 0.02 0.0 0 0 255.12 428.61
  Z"
/>
<path fill="#dd654b" d="
  M 756.14 412.66
  Q 753.32 412.08 750.33 412.06
  Q 726.24 411.91 701.20 412.02
  A 0.64 0.64 0.0 0 1 700.58 411.20
  L 719.12 351.31
  Q 719.53 350.00 720.90 350.00
  Q 808.06 350.02 895.14 350.00
  Q 895.62 350.00 896.05 350.22
  A 0.52 0.51 22.5 0 1 896.31 350.83
  L 877.74 411.43
  Q 877.55 412.02 876.93 412.02
  Q 858.51 411.96 838.08 412.01
  C 835.49 412.01 832.87 412.50 830.26 412.50
  Q 829.65 412.50 829.46 413.08
  L 789.45 539.28
  A 1.03 1.02 8.4 0 1 788.47 540.00
  L 717.45 540.00
  A 0.24 0.23 -80.9 0 1 717.23 539.69
  L 756.52 413.29
  Q 756.68 412.77 756.14 412.66
  Z"
/>
<path fill="#dd654b" d="
  M 1214.50 504.24
  L 1261.74 350.74
  A 1.06 1.05 -81.4 0 1 1262.75 349.99
  L 1328.27 350.00
  Q 1328.80 350.00 1328.94 350.52
  L 1352.56 438.24
  Q 1352.87 439.42 1353.18 438.24
  L 1375.87 350.51
  Q 1376.01 350.00 1376.53 350.00
  L 1447.43 350.01
  Q 1448.28 350.01 1448.11 350.84
  Q 1447.65 352.96 1446.85 355.52
  Q 1418.11 447.50 1389.57 539.21
  A 1.13 1.12 -81.1 0 1 1388.50 540.00
  L 1318.23 540.01
  A 0.66 0.66 0.0 0 1 1317.58 539.47
  L 1300.54 447.35
  Q 1300.33 446.23 1300.01 447.33
  L 1273.38 539.14
  A 1.19 1.19 0.0 0 1 1272.24 540.00
  L 1151.73 540.00
  Q 1150.96 540.00 1150.91 539.23
  L 1148.94 506.57
  Q 1148.90 505.99 1148.32 505.99
  L 1097.51 506.00
  A 1.18 1.18 0.0 0 0 1096.44 506.68
  L 1080.93 539.42
  A 1.00 1.00 0.0 0 1 1080.02 540.00
  L 971.02 540.01
  Q 970.48 540.01 970.30 539.50
  L 945.06 467.00
  Q 944.73 466.07 944.43 467.01
  L 921.48 539.48
  A 0.74 0.74 0.0 0 1 920.77 540.00
  L 849.72 539.98
  A 0.60 0.59 8.6 0 1 849.15 539.21
  L 908.04 350.54
  A 0.81 0.80 -81.0 0 1 908.80 349.98
  Q 954.40 350.03 998.30 349.97
  Q 1015.08 349.95 1029.50 355.05
  C 1051.73 362.91 1064.29 380.75 1061.94 404.61
  Q 1060.60 418.24 1054.82 430.61
  C 1048.43 444.27 1035.35 454.58 1020.85 460.12
  Q 1015.94 462.00 1010.48 463.61
  Q 1009.74 463.83 1010.07 464.52
  L 1027.74 501.55
  A 0.39 0.39 0.0 0 0 1028.42 501.58
  L 1117.65 350.56
  Q 1117.99 349.99 1118.64 349.99
  L 1197.69 350.00
  Q 1198.13 350.00 1198.18 350.45
  L 1214.17 504.21
  Q 1214.25 505.05 1214.50 504.24
  Z
  M 956.78 426.27
  A 0.14 0.14 0.0 0 0 956.91 426.45
  Q 967.47 426.81 978.17 426.22
  C 981.49 426.04 985.19 424.86 988.17 423.32
  Q 995.04 419.80 996.40 411.58
  C 997.54 404.69 991.18 402.15 985.62 402.04
  Q 974.92 401.82 964.70 402.00
  A 0.40 0.37 -80.3 0 0 964.34 402.27
  L 956.78 426.27
  Z
  M 1144.32 404.84
  L 1116.97 463.02
  Q 1116.73 463.53 1117.30 463.53
  L 1146.98 463.54
  Q 1147.50 463.54 1147.48 463.02
  L 1144.91 404.96
  Q 1144.85 403.71 1144.32 404.84
  Z"
/>
<path fill="#dd654b" d="
  M 1495.46 470.11
  L 1490.06 487.32
  A 0.53 0.53 0.0 0 0 1490.56 488.01
  L 1558.81 488.00
  A 0.53 0.53 0.0 0 1 1559.32 488.69
  L 1543.56 539.63
  A 0.53 0.53 0.0 0 1 1543.05 540.00
  L 1405.81 540.00
  A 0.53 0.53 0.0 0 1 1405.30 539.31
  L 1463.66 350.36
  A 0.53 0.53 0.0 0 1 1464.17 349.99
  L 1599.04 350.02
  A 0.53 0.53 0.0 0 1 1599.54 350.71
  L 1583.26 402.62
  A 0.53 0.53 0.0 0 1 1582.75 402.99
  L 1516.34 403.00
  A 0.53 0.53 0.0 0 0 1515.84 403.36
  L 1510.79 418.54
  A 0.53 0.53 0.0 0 0 1511.29 419.24
  L 1579.05 419.24
  A 0.53 0.53 0.0 0 1 1579.55 419.93
  L 1563.51 469.38
  A 0.53 0.53 0.0 0 1 1563.00 469.75
  L 1495.97 469.74
  A 0.53 0.53 0.0 0 0 1495.46 470.11
  Z"
/>
<path fill="#dd654b" d="
  M 1648.02 384.81
  C 1643.01 394.44 1631.65 398.06 1621.69 394.81
  Q 1609.34 390.78 1607.12 376.56
  Q 1606.77 374.29 1607.01 370.08
  C 1607.50 361.52 1613.26 353.82 1620.90 351.16
  Q 1626.01 349.38 1632.71 350.16
  C 1649.52 352.14 1654.66 372.04 1648.02 384.81
  Z
  M 1628.7587 390.4099
  A 17.55 15.54 90.2 0 0 1644.3599 372.9142
  A 17.55 15.54 90.2 0 0 1628.8813 355.3101
  A 17.55 15.54 90.2 0 0 1613.2801 372.8058
  A 17.55 15.54 90.2 0 0 1628.7587 390.4099
  Z"
/>
<path fill="#ffffff" d="
  M 1628.7587 390.4099
  A 17.55 15.54 90.2 0 1 1613.2801 372.8058
  A 17.55 15.54 90.2 0 1 1628.8813 355.3101
  A 17.55 15.54 90.2 0 1 1644.3599 372.9142
  A 17.55 15.54 90.2 0 1 1628.7587 390.4099
  Z
  M 1633.79 374.25
  C 1641.25 371.83 1640.30 361.87 1632.60 360.62
  Q 1627.06 359.73 1621.10 360.21
  Q 1620.07 360.30 1620.06 361.33
  L 1620.06 384.49
  Q 1620.06 385.42 1620.99 385.44
  L 1624.21 385.51
  Q 1625.46 385.53 1625.46 384.29
  L 1625.45 375.53
  Q 1625.45 375.10 1625.85 374.98
  Q 1627.11 374.59 1627.81 375.73
  Q 1630.28 379.78 1632.33 384.43
  Q 1632.70 385.26 1633.60 385.26
  L 1637.78 385.25
  Q 1639.28 385.24 1638.55 383.93
  L 1633.53 374.91
  A 0.46 0.46 0.0 0 1 1633.79 374.25
  Z"
/>
<path fill="#dd654b" d="
  M 1633.79 374.25
  A 0.46 0.46 0.0 0 0 1633.53 374.91
  L 1638.55 383.93
  Q 1639.28 385.24 1637.78 385.25
  L 1633.60 385.26
  Q 1632.70 385.26 1632.33 384.43
  Q 1630.28 379.78 1627.81 375.73
  Q 1627.11 374.59 1625.85 374.98
  Q 1625.45 375.10 1625.45 375.53
  L 1625.46 384.29
  Q 1625.46 385.53 1624.21 385.51
  L 1620.99 385.44
  Q 1620.06 385.42 1620.06 384.49
  L 1620.06 361.33
  Q 1620.07 360.30 1621.10 360.21
  Q 1627.06 359.73 1632.60 360.62
  C 1640.30 361.87 1641.25 371.83 1633.79 374.25
  Z
  M 1625.36 365.57
  L 1625.48 369.39
  Q 1625.50 370.14 1626.23 370.27
  Q 1630.36 371.01 1632.80 367.86
  A 0.39 0.39 0.0 0 0 1632.72 367.30
  Q 1629.70 365.18 1626.28 364.74
  A 0.81 0.81 0.0 0 0 1625.36 365.57
  Z"
/>
<path fill="#ffffff" d="
  M 1626.28 364.74
  Q 1629.70 365.18 1632.72 367.30
  A 0.39 0.39 0.0 0 1 1632.80 367.86
  Q 1630.36 371.01 1626.23 370.27
  Q 1625.50 370.14 1625.48 369.39
  L 1625.36 365.57
  A 0.81 0.81 0.0 0 1 1626.28 364.74
  Z"
/>
<path fill="#ffffff" d="
  M 956.78 426.27
  L 964.34 402.27
  A 0.40 0.37 -80.3 0 1 964.70 402.00
  Q 974.92 401.82 985.62 402.04
  C 991.18 402.15 997.54 404.69 996.40 411.58
  Q 995.04 419.80 988.17 423.32
  C 985.19 424.86 981.49 426.04 978.17 426.22
  Q 967.47 426.81 956.91 426.45
  A 0.14 0.14 0.0 0 1 956.78 426.27
  Z"
/>
<path fill="#ffffff" d="
  M 1116.97 463.02
  L 1144.32 404.84
  Q 1144.85 403.71 1144.91 404.96
  L 1147.48 463.02
  Q 1147.50 463.54 1146.98 463.54
  L 1117.30 463.53
  Q 1116.73 463.53 1116.97 463.02
  Z"
/>
</svg>

