
<svg id="Group_21410" data-name="Group 21410" xmlns="http://www.w3.org/2000/svg" xmlns:xlink="http://www.w3.org/1999/xlink" width="317.169" height="190.574" viewBox="0 0 317.169 190.574">
  <defs>
    <linearGradient id="linear-gradient" x1="-0.269" y1="0.295" x2="2.784" y2="1.299" gradientUnits="objectBoundingBox">
      <stop offset="0" stop-color="#2b87da"/>
      <stop offset="1" stop-color="#00bac0"/>
    </linearGradient>
    <linearGradient id="linear-gradient-2" x1="-1.104" y1="0.04" x2="2.778" y2="1.076" xlink:href="#linear-gradient"/>
    <linearGradient id="linear-gradient-3" x1="-2.949" y1="-1.677" x2="3.576" y2="2.264" xlink:href="#linear-gradient"/>
    <linearGradient id="linear-gradient-4" x1="-3.908" y1="-1.493" x2="2.613" y2="1.578" xlink:href="#linear-gradient"/>
    <linearGradient id="linear-gradient-5" x1="-13.947" y1="-3.005" x2="2.808" y2="1.06" xlink:href="#linear-gradient"/>
    <linearGradient id="linear-gradient-6" x1="-4.949" y1="-2.37" x2="2.06" y2="1.322" xlink:href="#linear-gradient"/>
  </defs>
  <g id="Group_1" data-name="Group 1">
    <path id="Path_1" data-name="Path 1" d="M0,.03,47.907,22.006l55.112,168.577H61.24Z" transform="translate(0 -0.01)" fill="url(#linear-gradient)"/>
    <path id="Path_2" data-name="Path 2" d="M168.276,22.588,216.9,0l-61.6,184.688-19.447-61.6Z" transform="translate(-44.471)" fill="url(#linear-gradient-2)"/>
  </g>
  <g id="Group_2" data-name="Group 2" transform="translate(142.478 91.436)">
    <path id="Path_3" data-name="Path 3" d="M251.585,183.42v-5.684a21.974,21.974,0,0,1-7.137,5.032,20.882,20.882,0,0,1-8.395,1.7,23.386,23.386,0,0,1-17.341-6.969,23.781,23.781,0,0,1-6.9-17.449,24.905,24.905,0,0,1,1.729-9.263,23.286,23.286,0,0,1,4.924-7.7,22.766,22.766,0,0,1,7.641-5.408,24.16,24.16,0,0,1,9.451-1.749,22.481,22.481,0,0,1,8.758,1.682A21.934,21.934,0,0,1,251.6,142.7v-5.6h8.422v46.306h-8.435Zm-31.151-23.442a16.182,16.182,0,0,0,4.648,11.785,15.321,15.321,0,0,0,11.388,4.756,14.768,14.768,0,0,0,10.837-4.776A15.439,15.439,0,0,0,252,160.57a16.3,16.3,0,0,0-4.648-11.684,14.784,14.784,0,0,0-11.052-4.863,15.836,15.836,0,0,0-15.868,15.956Z" transform="translate(-211.81 -135.93)" fill="url(#linear-gradient-3)"/>
    <path id="Path_4" data-name="Path 4" d="M299.394,177.912V198.5H291.06V137.209h8.422v5.684a22.357,22.357,0,0,1,7.137-4.991,20.88,20.88,0,0,1,8.395-1.7,23.676,23.676,0,0,1,24.29,24.378,24.87,24.87,0,0,1-1.729,9.216,23.966,23.966,0,0,1-4.964,7.789,22.77,22.77,0,0,1-7.642,5.408,24.162,24.162,0,0,1-9.451,1.749,22.17,22.17,0,0,1-8.738-1.7A23.266,23.266,0,0,1,299.394,177.912Zm-.249-17.846a16.356,16.356,0,0,0,4.608,11.7,14.671,14.671,0,0,0,11,4.843,15.927,15.927,0,0,0,15.875-15.956,16.248,16.248,0,0,0-4.628-11.785,15.206,15.206,0,0,0-11.321-4.756,14.768,14.768,0,0,0-10.837,4.776A15.382,15.382,0,0,0,299.145,160.066Z" transform="translate(-237.751 -136.018)" fill="url(#linear-gradient-4)"/>
    <path id="Path_5" data-name="Path 5" d="M451.934,183.633H443.6v-46.3h7.83v5.348a13.969,13.969,0,0,1,4.736-4.567,12.838,12.838,0,0,1,6.209-1.534v8.711q-5.6.424-8.018,3.3t-2.422,9.283Z" transform="translate(-287.682 -136.143)" fill="url(#linear-gradient-5)"/>
  </g>
  <g id="Group_3" data-name="Group 3" transform="translate(248.517 89.929)">
    <path id="Path_6" data-name="Path 6" d="M391.89,133.69l-22.44,12.956v25.911l22.44,12.956,22.44-12.956V146.646Zm13.965,33.97L391.9,175.718l-13.958-8.059V151.543l13.958-8.059,13.958,8.059Z" transform="translate(-369.45 -133.69)" fill="url(#linear-gradient-6)"/>
  </g>
</svg>

