<?xml version="1.0" encoding="UTF-8" standalone="no"?>
<!DOCTYPE svg PUBLIC "-//W3C//DTD SVG 1.1//EN" "http://www.w3.org/Graphics/SVG/1.1/DTD/svg11.dtd">
<svg xmlns="http://www.w3.org/2000/svg" version="1.1" viewBox="0.00 0.00 300.00 59.00">
<g stroke-width="2.00" fill="none" stroke-linecap="butt">
<path stroke="#736682" vector-effect="non-scaling-stroke" d="
  M 51.08 1.06
  L 49.66 3.02"
/>
<path stroke="#736682" vector-effect="non-scaling-stroke" d="
  M 48.88 3.66
  L 40.33 12.38"
/>
<path stroke="#736682" vector-effect="non-scaling-stroke" d="
  M 12.54 39.92
  L 3.57 48.47"
/>
<path stroke="#736682" vector-effect="non-scaling-stroke" d="
  M 3.23 49.16
  L 1.59 51.01"
/>
</g>
<path fill="#e6182c" d="
  M 3.89 0.00
  L 50.26 0.00
  L 51.08 1.06
  L 49.66 3.02
  Q 48.72 3.28 48.88 3.66
  L 40.33 12.38
  L 18.88 12.43
  A 1.39 1.35 23.1 0 0 17.95 12.79
  L 14.74 15.85
  Q 14.31 16.26 14.90 16.26
  L 30.50 16.25
  Q 32.08 16.25 31.07 17.46
  L 12.54 39.92
  L 3.57 48.47
  Q 3.43 48.40 3.30 48.41
  A 0.27 0.27 0.0 0 0 3.05 48.68
  Q 3.04 48.96 3.23 49.16
  L 1.59 51.01
  Q 0.73 50.67 0.00 49.61
  L 0.00 3.77
  L 0.63 1.29
  Q 0.75 0.80 1.24 0.67
  L 3.89 0.00
  Z
  M 3.40 3.36
  A 1.48 1.47 18.2 0 1 4.58 2.77
  L 48.00 2.69
  Q 48.12 2.69 48.12 2.57
  L 48.12 2.30
  Q 48.12 2.07 47.89 2.07
  Q 27.57 1.98 6.72 2.19
  Q 5.08 2.20 3.61 2.74
  Q 2.33 3.21 2.32 4.57
  L 2.15 47.65
  Q 2.15 47.86 2.36 47.86
  L 2.71 47.86
  Q 2.78 47.86 2.78 47.79
  Q 2.85 27.19 2.67 6.45
  Q 2.65 4.36 3.40 3.36
  Z"
/>
<path fill="#00b4d8" d="
  M 51.08 1.06
  Q 52.09 1.82 52.09 3.37
  Q 52.13 26.16 52.14 48.23
  A 3.74 3.73 -0.2 0 1 48.42 51.97
  Q 26.03 52.04 3.50 51.97
  Q 2.92 51.97 1.59 51.01
  L 3.23 49.16
  Q 4.31 49.95 5.75 49.94
  Q 25.85 49.89 46.69 49.87
  Q 50.10 49.86 50.07 46.45
  L 49.66 3.02
  L 51.08 1.06
  Z"
/>
<path fill="#00b4d8" d="
  M 48.88 3.66
  L 49.25 47.01
  A 2.01 2.01 0.0 0 1 47.24 49.04
  Q 25.75 49.04 5.25 49.07
  Q 4.17 49.07 3.57 48.47
  L 12.54 39.92
  L 33.77 39.97
  Q 34.00 39.97 34.16 39.82
  L 38.26 35.92
  A 0.11 0.10 22.3 0 0 38.18 35.74
  L 21.81 35.75
  Q 21.22 35.75 21.59 35.29
  L 40.33 12.38
  L 48.88 3.66
  Z"
/>
<path fill="#000000" d="
  M 299.6006 11.7850
  A 1.54 1.54 0.0 0 1 298.2153 13.4655
  L 297.2796 13.5556
  A 1.54 1.54 0.0 0 1 295.5991 12.1703
  L 295.4994 11.1350
  A 1.54 1.54 0.0 0 1 296.8847 9.4545
  L 297.8204 9.3644
  A 1.54 1.54 0.0 0 1 299.5009 10.7497
  L 299.6006 11.7850
  Z
  M 298.42 10.09
  L 296.42 10.17
  A 0.52 0.52 0.0 0 0 295.92 10.71
  L 295.94 11.15
  A 2.10 1.39 87.9 0 0 297.41 13.19
  L 297.67 13.18
  A 2.10 1.39 87.9 0 0 298.98 11.03
  L 298.96 10.59
  A 0.52 0.52 0.0 0 0 298.42 10.09
  Z"
/>
<path fill="#000000" d="
  M 183.65 32.88
  Q 189.80 38.85 197.20 32.85
  Q 197.49 32.62 197.75 32.89
  L 200.95 36.23
  A 0.34 0.33 47.8 0 1 200.93 36.72
  Q 191.75 44.61 182.40 39.87
  C 173.66 35.45 171.96 23.61 178.90 16.72
  C 185.06 10.60 194.61 10.89 200.93 16.81
  A 0.34 0.33 -49.0 0 1 200.96 17.26
  L 197.53 21.55
  Q 197.36 21.76 197.17 21.55
  C 193.30 17.06 186.55 16.56 182.89 21.58
  C 180.51 24.83 180.68 30.00 183.65 32.88
  Z"
/>
<path fill="#000000" d="
  M 233.3200 26.9869
  A 15.42 14.75 0.1 0 1 217.8743 41.7100
  A 15.42 14.75 0.1 0 1 202.4800 26.9331
  A 15.42 14.75 0.1 0 1 217.9257 12.2100
  A 15.42 14.75 0.1 0 1 233.3200 26.9869
  Z
  M 218.7427 35.9343
  A 9.03 8.78 84.9 0 0 226.6852 26.1595
  A 9.03 8.78 84.9 0 0 217.1373 17.9457
  A 9.03 8.78 84.9 0 0 209.1948 27.7205
  A 9.03 8.78 84.9 0 0 218.7427 35.9343
  Z"
/>
<path fill="#000000" d="
  M 73.57 35.75
  L 89.01 35.75
  Q 89.39 35.75 89.38 36.12
  L 89.35 40.89
  Q 89.35 41.25 88.99 41.25
  L 64.99 41.25
  Q 64.48 41.25 64.48 40.74
  L 64.47 37.59
  Q 64.47 36.98 64.86 36.51
  L 80.17 18.42
  A 0.25 0.25 0.0 0 0 79.98 18.01
  L 65.24 18.00
  A 0.26 0.25 -90.0 0 1 64.99 17.74
  L 64.99 13.00
  A 0.26 0.25 0.0 0 1 65.25 12.75
  L 88.53 12.75
  Q 89.26 12.75 89.19 13.47
  C 89.02 15.11 89.62 16.46 88.41 17.87
  Q 80.79 26.79 73.39 35.34
  A 0.25 0.24 -69.3 0 0 73.57 35.75
  Z"
/>
<path fill="#000000" d="
  M 99.80 29.98
  C 99.85 36.79 109.62 38.26 111.84 32.46
  Q 112.62 30.43 112.53 26.90
  Q 112.34 19.23 112.52 12.97
  A 0.23 0.23 0.0 0 1 112.75 12.75
  L 118.47 12.76
  A 0.39 0.38 0.0 0 1 118.86 13.14
  Q 118.92 21.21 118.84 29.53
  C 118.78 36.63 114.45 41.26 107.19 41.69
  C 99.43 42.16 93.48 37.90 93.41 29.70
  Q 93.33 21.19 93.38 13.07
  A 0.33 0.33 0.0 0 1 93.71 12.75
  L 99.50 12.76
  Q 99.78 12.76 99.77 13.04
  Q 99.74 21.48 99.80 29.98
  Z"
/>
<path fill="#000000" d="
  M 130.28 18.25
  L 122.22 18.25
  A 0.34 0.34 0.0 0 1 121.88 17.91
  L 121.86 13.09
  A 0.34 0.34 0.0 0 1 122.20 12.75
  L 145.44 12.75
  A 0.34 0.34 0.0 0 1 145.78 13.09
  L 145.78 17.91
  A 0.34 0.34 0.0 0 1 145.44 18.25
  L 137.36 18.25
  A 0.34 0.34 0.0 0 0 137.02 18.59
  L 137.02 40.91
  A 0.34 0.34 0.0 0 1 136.68 41.25
  L 130.96 41.25
  A 0.34 0.34 0.0 0 1 130.62 40.91
  L 130.62 18.59
  A 0.34 0.34 0.0 0 0 130.28 18.25
  Z"
/>
<path fill="#000000" d="
  M 151.86 35.94
  L 149.79 41.05
  A 0.31 0.31 0.0 0 1 149.50 41.24
  L 143.55 41.26
  A 0.31 0.31 0.0 0 1 143.26 40.82
  L 155.46 12.94
  A 0.31 0.31 0.0 0 1 155.74 12.75
  L 161.97 12.75
  A 0.31 0.31 0.0 0 1 162.25 12.94
  L 174.22 40.82
  A 0.31 0.31 0.0 0 1 173.94 41.25
  L 167.77 41.24
  A 0.31 0.31 0.0 0 1 167.48 41.05
  L 165.36 35.94
  A 0.31 0.31 0.0 0 0 165.07 35.75
  L 152.15 35.75
  A 0.31 0.31 0.0 0 0 151.86 35.94
  Z
  M 154.27 30.05
  A 0.32 0.32 0.0 0 0 154.56 30.49
  L 162.73 30.50
  A 0.32 0.32 0.0 0 0 163.02 30.06
  L 158.96 20.15
  A 0.32 0.32 0.0 0 0 158.37 20.15
  L 154.27 30.05
  Z"
/>
<path fill="#000000" d="
  M 244.01 33.49
  L 244.01 41.00
  Q 244.01 41.25 243.75 41.25
  L 237.81 41.24
  Q 237.62 41.24 237.62 41.05
  L 237.62 13.43
  Q 237.62 12.86 238.19 12.83
  Q 246.23 12.47 252.19 13.04
  Q 262.00 13.98 261.72 23.25
  Q 261.55 28.78 256.90 31.56
  Q 256.46 31.83 256.73 32.26
  L 262.32 40.98
  A 0.16 0.16 0.0 0 1 262.18 41.23
  L 255.46 41.26
  A 0.36 0.35 -13.5 0 1 255.14 41.07
  L 250.95 33.45
  Q 250.70 33.00 250.18 33.00
  L 244.51 33.00
  A 0.50 0.49 0.0 0 0 244.01 33.49
  Z
  M 244.00 18.40
  L 244.02 27.36
  A 0.41 0.41 0.0 0 0 244.43 27.77
  L 250.76 27.76
  A 4.94 4.72 -0.1 0 0 255.69 23.03
  L 255.69 22.69
  A 4.94 4.72 -0.1 0 0 250.74 17.98
  L 244.41 17.99
  A 0.41 0.41 0.0 0 0 244.00 18.40
  Z"
/>
<path fill="#000001" d="
  M 273.74 29.81
  L 273.73 35.69
  A 0.31 0.31 0.0 0 0 274.04 36.00
  L 289.20 36.00
  A 0.31 0.31 0.0 0 1 289.51 36.31
  L 289.51 40.94
  A 0.31 0.31 0.0 0 1 289.20 41.25
  L 267.56 41.25
  A 0.31 0.31 0.0 0 1 267.25 40.94
  L 267.25 13.06
  A 0.31 0.31 0.0 0 1 267.56 12.75
  L 288.72 12.75
  A 0.31 0.31 0.0 0 1 289.03 13.06
  L 289.03 17.69
  A 0.31 0.31 0.0 0 1 288.72 18.00
  L 274.04 18.00
  A 0.31 0.31 0.0 0 0 273.73 18.31
  L 273.74 23.94
  A 0.31 0.31 0.0 0 0 274.05 24.25
  L 287.19 24.25
  A 0.31 0.31 0.0 0 1 287.50 24.56
  L 287.51 29.19
  A 0.31 0.31 0.0 0 1 287.20 29.50
  L 274.05 29.50
  A 0.31 0.31 0.0 0 0 273.74 29.81
  Z"
/>
</svg>

