<svg xmlns="http://www.w3.org/2000/svg" role="img" viewBox="-23.38 -23.38 1215.76 257.76"><title>Aivres (member) logo</title><path fill="teal" d="M695.42 138.92q-.59.25-.17.74 24.66 28.52 48.82 56.36c3.71 4.27 3.11 10.56-1.48 13.77q-2.22 1.56-5.99 1.53-21.55-.17-40.09-.05c-2.74.02-5.09-1.34-6.79-3.35q-25.45-30.02-50.27-59.12c-1.47-1.72-3.72-3.01-6.02-3.01q-29.39-.1-59.3.01-4.68.02-7-1.39c-4.46-2.72-5.49-7.76-3.32-12.39q6.82-14.48 13.5-28.88c1.55-3.35 4.78-5.38 8.58-5.38q42.39-.01 76.29-.02 5.01 0 10.37-1.91c11.08-3.94 15.37-13.93 14.57-25.12-1.01-14.26-11.61-22.08-25.82-22.16q-21.27-.12-43.88-.01c-5.03.03-8.96-3.5-9.38-8.51q-.2-2.38 1.46-5.86 6.95-14.67 13.28-28.37Q625.24.49 631.3.37 644.59.12 659.72.3q10.95.14 19.96 1.93c14.19 2.82 27.73 9.29 37.83 19.4 17.01 17.02 22.84 41.68 18.93 65.32-3.94 23.8-18.55 42.43-41.02 51.97zm229.25-85.68h-131.7a8.22 8.22 0 0 1-8.22-8.22l-.01-36.55a8.22 8.22 0 0 1 8.22-8.22h148.89a8.22 8.22 0 0 1 7.44 11.72l-17.18 36.55a8.22 8.22 0 0 1-7.44 4.72z"/><path fill="#50c7f7" d="M98.84.48l36 .01a7.98 7.98 0 0 1 7.23 4.6l33.24 71.14A7.98 7.98 0 0 1 171.07 87L44.86 138.04a7.98 7.98 0 0 1-10.23-10.77L91.6 5.09A7.98 7.98 0 0 1 98.84.48zm170.85.01l36.89-.02a7.96 7.96 0 0 1 7.97 7.98l-.06 20.14a7.96 7.96 0 0 1-4.99 7.36l-36.77 14.84a7.96 7.96 0 0 1-10.94-7.37l-.06-34.95a7.96 7.96 0 0 1 7.96-7.98z"/><path fill="teal" d="M464.13 134.12q.49 1.05.98 0 30.15-64.71 60.08-128.89c1.39-2.97 4.68-4.76 7.89-4.75q18.61.04 38.57.02c5.12-.01 9.11 4.54 8.82 9.5q-.11 1.83-1.97 5.83-44.14 94.64-88.29 189.27c-1.98 4.24-4.8 6.49-9.66 6.42q-13.15-.17-26.24.1-5.09.11-8.08-.19-4.42-.46-7.3-6.63-44-94.35-88.01-188.7-2.2-4.72-1.94-7.13c.53-4.96 4.27-8.31 9.26-8.27q19.47.14 37.79 0c3.94-.03 6.83 1.87 8.52 5.51q29.97 64.18 59.58 127.91zm705.87-1.03v20.13q-1.9 19.27-13.03 33.49-15.03 19.21-38.54 23.6-6.8 1.27-19.45 1.24-54.55-.1-108.73-.04c-6.15.01-9.23-5.92-6.68-11.27q8.94-18.77 17.61-36.88c1.19-2.49 3.67-4.11 6.31-4.11q48.04-.02 97.44.04 4.19.01 6.7-1.3c7.63-3.98 6.11-10.83 6.38-17.99.27-7.28-4.43-12.84-11.87-12.81q-35.84.16-69.16-.01c-34.51-.19-62.66-26.78-63.59-61.25-.83-30.98 21.98-57.05 51.9-63.64q6.26-1.38 16-1.35 48.88.13 103.46.04c3.93-.01 7.11 3.11 7.48 6.96q.21 2.28-1.31 5.43-9.04 18.79-16.8 35.18-2.22 4.68-7.67 4.69-46.32.03-89.48 0c-12.74-.01-15.98 17.27-3.8 21.05q2.36.73 5.21.73 33.48 0 65.46-.06 10.18-.02 16.71 1.47 12.43 2.84 22.13 9.64 23.98 16.81 27.32 47.02zm-855.49-61.9l-.01 132.34a7.96 7.96 0 0 1-7.97 7.96l-36.82-.02a7.96 7.96 0 0 1-7.95-7.96l-.02-117.39a7.96 7.96 0 0 1 4.97-7.37l36.85-14.93a7.96 7.96 0 0 1 10.95 7.37zm594.84 61.05l-116.58.02a8.03 8.03 0 0 1-8.03-8.03V87.52a8.03 8.03 0 0 1 8.03-8.03l133.8.02a8.03 8.03 0 0 1 7.27 11.44l-17.22 36.67a8.03 8.03 0 0 1-7.27 4.62zm-731.37 74.59l-34.69-74.4a8.08 8.08 0 0 1 4.3-10.91l33.94-13.68a8.08 8.08 0 0 1 10.34 4.08l41.14 88.07a8.08 8.08 0 0 1-7.32 11.5h-40.38a8.08 8.08 0 0 1-7.33-4.66zM0 205.15v-3.66q5.05-10.95 10.13-21.89c.85-1.83 2.32-3.33 4.21-4.09q25.11-10.15 49.92-20.28c3.01-1.23 6.38-.74 8.72 1.5 2.96 2.84 3.13 6.43 1.48 9.93q-9.08 19.32-18.69 39.96c-1.87 4.03-4.99 4.86-9.29 4.86q-18.73.05-37.48.01-7.05-.02-9-6.34zm924.88 6.1l-132.05.02a8.13 8.13 0 0 1-8.13-8.15l.06-36.52a8.13 8.13 0 0 1 8.14-8.12l149.05.02a8.13 8.13 0 0 1 7.36 11.57l-17.07 36.5a8.13 8.13 0 0 1-7.36 4.68z"/></svg>