<svg xmlns="http://www.w3.org/2000/svg" role="img" viewBox="-13.03 -12.53 703.56 229.56"><title>Alfa Laval logo</title><g stroke="none" transform="translate(-52.399 -395.65)"><path fill="#8b7d70" fill-opacity="1" d="M53.39853 556.27391v2.06251h676.06008v-2.06251H53.39853zm676.06008-159.62313c-67.23464 43.36001-141.76159 73.78115-220.09888 89.79256l1.76787 1.76787c77.65725-16.04512 151.5539-46.17752 218.33101-89.05596v-2.50447zM53.39853 411.97225v2.4307c59.29623 34.38374 123.41613 59.00771 190.119 73.14543l1.76786-1.76787c-67.35556-14.1304-132.10128-39.00399-191.88686-73.80826zm204.11458 76.23896l-1.76787 1.76786c11.15922 2.14029 22.37949 4.04133 33.66293 5.59823l-2.50447-2.50447c-9.85076-1.40345-19.63411-3.01008-29.39059-4.86162zm239.47159.66306c-10.16097 1.87229-20.33419 3.47586-30.64295 4.86162l-2.4307 2.4307c11.69689-1.53003 23.33649-3.36931 34.91529-5.52446l-1.84164-1.76786zm-193.13898 6.40839l2.43093 2.35715c4.3124.48038 8.64013.93084 12.96432 1.32589v-2.0625c-5.12209-.46884-10.29108-1.03079-15.39525-1.62054zm145.77511.51574c-16.54106 1.79851-33.26787 2.93418-50.01589 3.46195v2.13628c15.98006-.50136 31.88516-1.59037 47.65874-3.24108l2.35715-2.35715zm-119.62536 1.98873v2.06251c16.21625 1.21157 32.57628 1.8414 48.91086 1.84164 3.63308 0 7.26851 0 10.90182-.0731.14614-.70762.26447-1.44352.44197-2.13605-3.78111.066-7.53346.14614-11.34379.14614-16.33458 0-32.69461-.62677-48.91086-1.84164z"/><path fill="#2f3475" fill-rule="nonzero" d="M237.46413 599.50216c-9.17143 0-17.83797-3.57933-24.35101-10.05678-6.4864-6.49819-10.0754-15.1487-10.0754-24.33263v-25.84237c0-.77244.61144-1.37964 1.38247-1.37964h8.02845c.77079 0 1.38223.6072 1.38223 1.37964v35.31529c0 3.24037 1.54182 8.0697 3.82801 10.37829 2.31284 2.28196 7.15113 4.0833 10.39456 4.0833h35.27688c.77102 0 1.38246.63996 1.38246 1.37987v7.69822c0 .76937-.61144 1.37681-1.38246 1.37681h-25.86619m315.09438 0c-9.18605 0-17.84079-3.57933-24.33898-10.05678-6.5279-6.49819-10.07234-15.1487-10.07234-24.33263v-25.84237c0-.77244.5907-1.37964 1.38812-1.37964h8.00489c.76795 0 1.38812.6072 1.38812 1.37964v35.31529c0 3.24037 1.53592 8.0697 3.84003 10.37829 2.27442 2.28196 7.1186 4.0833 10.36769 4.0833h35.29762c.76796 0 1.38836.63996 1.38836 1.37987v7.69822c0 .76937-.6204 1.37681-1.38836 1.37681h-25.87515M319.3428 575.51439l-25.01549-24.94289c-5.26352-5.27766-14.38191-6.28888-20.62931-.0259l-24.96221 24.91955c-.53178.52777-1.40911.52777-1.94065 0l-5.39669-5.38962c-.23925-.23595-.39859-.60744-.39859-.97893 0-.34791.16028-.71633.39859-.95818l18.31647-18.25612c13.39828-13.40017 35.25047-13.40017 48.67538 0l18.35183 18.28276c.53177.53059.53177 1.40934 0 1.96657l-5.45869 5.38349c-.26565.26542-.58481.42759-.957.42759-.3722 0-.71775-.16264-.98364-.42759m93.44285-11.65469c-.53154-.53366-1.41783-.53366-1.94937 0l-24.95939 24.9106c-6.26224 6.24456-15.33019 5.27459-20.61751 0l-25.01856-24.97259c-.26589-.25952-.62017-.392-.97468-.392-.38398 0-.7385.132-.97468.392l-5.43512 5.41909c-.53154.53955-.53154 1.40344 0 1.94582l18.31364 18.28277c13.43953 13.40016 35.29762 13.40016 48.70768 0l18.28394-18.2533c.26589-.2475.41344-.61027.41344-.96691 0-.37148-.1485-.72246-.41344-.98764l-5.37595-5.37195m89.97218 11.6547l-25.01856-24.94289c-5.25762-5.27766-14.35528-6.28888-20.61728-.0259l-24.95939 24.91955c-.53177.52777-1.41783.52777-1.9496 0l-5.37595-5.38962c-.26565-.23595-.41345-.60744-.41345-.97893 0-.34791.1485-.71633.41345-.95818l18.28394-18.25612c13.4103-13.40017 35.23868-13.40017 48.70791 0l18.31341 18.28276c.53177.53059.53177 1.40934 0 1.96657l-5.43488 5.38349c-.26589.26542-.59071.42759-.94522.42759-.41368 0-.7385-.16264-1.00438-.42759m-149.10671-40.17108c-9.18629 0-17.81133-3.55576-24.33923-10.05984-6.51304-6.49819-10.10203-15.12206-10.10203-24.30316v-25.87161c0-.74604.63808-1.38294 1.4091-1.38294h8.0136c.79743 0 1.38813.6369 1.38813 1.38294v35.31812c0 3.23731 1.53615 8.06664 3.84003 10.37217 2.30388 2.28219 7.1186 4.11299 10.36769 4.11299h35.29785c.76796 0 1.38813.61333 1.38813 1.3827v7.66569c0 .77268-.62017 1.38294-1.38813 1.38294h-25.87514m-48.55729-24.09384l-25.01549-24.96953c-5.29039-5.28355-14.38192-6.26224-20.62931 0l-24.96245 24.88703c-.53154.53059-1.40887.53059-1.94064 0l-5.39646-5.38373c-.23925-.23878-.39883-.5867-.39883-.95819 0-.36865.16028-.71657.39883-.98198l18.28983-18.25307c13.45155-13.40016 35.30351-13.40016 48.70202 0l18.34287 18.2797c.53177.5603.53177 1.40934 0 1.96657l-5.42309 5.4132c-.26589.23878-.61145.39506-.98364.39506-.3722 0-.71776-.15558-.98364-.39506m85.33166 24.49173c-.73826 0-1.35866-.61027-1.35866-1.38271v-25.81574c0-18.91943 15.44829-34.36277 34.41156-34.36277h25.9343c.73826 0 1.35867.61027 1.35867 1.37681v7.77766c0 .76654-.62041 1.37987-1.35867 1.37987h-35.38647c-4.72585 0-8.03411 1.83104-10.33823 4.10993-2.27441 2.30859-4.07622 5.89075-4.07622 10.32526v35.20898c0 .77244-.62016 1.38271-1.38812 1.38271h-7.79816m129.0212-24.49173l-25.01856-24.96953c-5.28709-5.28355-14.38474-6.26224-20.61728 0l-24.95939 24.88703c-.56124.53059-1.38836.53059-1.9496 0l-5.37595-5.38373c-.26565-.23878-.44291-.5867-.44291-.95819 0-.36865.17678-.71657.44291-.98198l18.25447-18.25307c13.46923-13.40016 35.29762-13.40016 48.73738 0l18.28394 18.2797c.56124.5603.56124 1.40934 0 1.96657l-5.43512 5.4132c-.23618.23878-.561.39506-.94521.39506-.35428 0-.7088-.15558-.97468-.39506"/></g></svg>