<svg xmlns="http://www.w3.org/2000/svg" role="img" viewBox="4.05 6.55 491.40 77.90"><title>American Standard logo</title><path fill-rule="evenodd" d="M155.9389648 39.3144531c-2.1499023 2.5410156-4.3012695 5.277832-8.2104492 5.277832-3.9101563 0-.1967773-4.3012695-5.8657227-3.7148438-5.6679688.5869141-3.9101563.3916016-5.277832-.5864258-1.3676758-.9765625-2.2001953.1967773-2.9326172 1.3691406-4.8867188 7.815918-10.2299805 11.722168-15.8349609 17.0092773-3.578125 3.3710938-6.0297852 4.4941406-7.1391602 3.5761719.609375-.546875 1.2260742-1.0927734 1.8613281-1.6230469 6.0600586-5.0820313 12.902832-15.6391602 12.902832-20.7216797 0-5.0834961-8.0161133-3.9101563-12.315918 1.9545898-2.4047852 3.2773438-7.3061523 11.800293-8.9165039 18.6889648-1.6733398 1.2705078-3.0634766 2.2050781-4.1816406 2.8134766-2.1513672 1.1767578-4.6928711 2.1533203-1.9545898-4.2998047 2.7368164-6.4521484 4.4956055-10.7529297 5.277832-13.0966797.7822266-2.3457031-3.3232422-2.7382813-6.2558594-.5869141-2.9321289 2.1484375-7.6245117 8.7958984-6.0600586 3.7128906 1.5629883-5.0805664-.5869141-10.9462891-6.0600586-6.6450195-5.4736328 4.300293-7.0380859 7.0336914-9.1884766 9.1870117-2.1513672 2.1523438-3.1279297 2.3466797-.7822266-1.5654297 2.3457031-3.9082031 4.8881836-7.621582 6.2558594-9.7729492 1.3676758-2.1499023-.5869141-7.6235352-4.105957-4.1044922-.9750977.9765625-4.1054688 5.7832031-7.3671875 11.1557617.1259766-1.1948242-.6826172-2.480957-2.9941406-3.1411133-1.9702148-.5629883-4.2368164-.7993164-6.5512695-.8544922 3.1254883-9.125 7.1381836-21.5263672 7.1381836-23.5820313 0-2.7368164-4.300293-5.6689453-8.2104492-1.7602539-2.1289063 2.1293945-13.7075195 15.5634766-24.5073242 28.1787109-.9316406.1049805-1.7744141.1679688-2.4702148.1679688-3.9101563 0-11.3393555-2.3442383-11.3393555 1.5664063 0 3.7900391 4.6030273 4.6357422 8.6274414 4.3261719C22.565918 60.3393555 16.7602539 67.1645508 15.184082 69.0288086c-4.300293 5.0820313 2.3452148 7.0351563 5.2792969 3.5175781 5.6884766-6.8251953 12.1660156-14.4853516 18.0620117-21.421875 4.6665039-.6083984 9.7080078-1.2285156 12.1074219-1.2539063-.5800781 1.9208984-1.0957031 3.8740234-1.4331055 5.6699219-1.1723633 6.2529297-3.1279297 5.6699219-4.6914063 5.4707031-1.5644531-.1943359-4.1054688.9824219-1.5644531 3.9121094 2.5410156 2.9345703.5864258 10.3583984 6.0600586 10.3583984 4.6914063 0 2.7368164-8.4052734 8.6025391-24.4345703.1474609-.4042969.3115234-.8564453.484375-1.3388672 2.6894531-.1259766 5.3608398-.1318359 7.3349609.3623047 1.2480469.3095703 2.3955078.0048828 3.2026367-.609375-3.5742188 5.9746094-7.0224609 12.1650391-7.699707 14.2910156-1.3676758 4.3056641-.1953125 8.40625 4.105957 8.40625s2.7368164-3.1240234 7.2333984-8.0117188c4.4970703-4.8886719 7.8193359-7.6240234 7.8193359-7.6240234s-2.7368164 6.2529297-2.7368164 8.6005859c0 2.3466797 3.9101563 4.6933594 6.8422852 1.953125 2.9326172-2.7363281 6.2558594-6.0595703 6.2558594-6.0595703s-3.519043 10.9472656 3.9101563 10.9472656c3.8813477 0 7.0146484-1.6591797 9.987793-3.9638672.800293 1.6064453 2.3808594 2.5986328 5.0649414 2.5986328 6.6455078 0 18.5717773-12.3173828 18.5717773-12.3173828s-1.7602539 8.0175781-2.7368164 10.5537109c-.9775391 2.5458984 4.3012695 3.7167969 6.2558594-.1943359 1.9545898-3.90625 6.6469727-19.1591797 9.5791016-19.3535156 2.9326172-.1933594 1.5649414 2.3476563 8.9926758 1.7597656 0 0-4.6923828 12.7050781-5.2792969 16.8115234-.5854492 4.1054688 4.4970703 5.0820313 5.4750977 1.1757813.9765625-3.9111328 7.1518555-21.2871094 11.3378906-27.5654297C163.9550781 37.7495117 158.0888672 36.7719727 155.9389648 39.3144531L155.9389648 39.3144531zM166.1035156 33.2490234c1.8325195 0 3.3193359-1.4858398 3.3193359-3.3183594s-1.4868164-3.3183594-3.3193359-3.3183594c-1.8310547 0-3.3168945 1.4858398-3.3168945 3.3183594S164.2724609 33.2490234 166.1035156 33.2490234L166.1035156 33.2490234zM171.3828125 50.652832c0 0 .5869141 3.3232422 3.3232422 3.3232422 2.7368164 0 5.4736328-5.0820313 7.4282227-8.0146484 1.9555664-2.9326172 1.5644531-5.2792969.1953125-6.2573242-1.3686523-.9765625-3.3232422-2.3442383-5.277832-1.171875-1.9545898 1.171875-20.5263672 12.902832-21.8950195 27.7612305-1.0605469 11.5087891 18.3759766 4.2998047 21.699707.5830078 0 0 2.1499023 11.5341797 15.2480469-1.7597656 0 0 .7822266 11.5351563 7.8203125 4.3007813 7.0380859-7.2304688 12.1206055-13.4882813 12.1206055-13.4882813s-3.519043 12.7060547 2.5410156 12.7060547c3.1279297 0 15.2485352-13.2890625 15.2485352-13.2890625s-3.3237305 13.0947266-3.1279297 15.8349609c.1953125 2.7353516 2.1499023 5.0820313 3.9101563.9765625s7.8188477-18.9638672 10.1660156-23.4580078c2.3452148-4.4985352-.5869141-9.3852539-5.4736328-5.8662109-4.8881836 3.5175781-13.6850586 11.9248047-15.2495117 13.0957031-1.5634766 1.1757813-.1943359-1.3652344 1.1733398-4.2998047 1.3676758-2.9296875 5.4736328-11.925293 1.171875-11.7285156-4.2998047.1943359-11.5332031 8.9931641-17.7890625 15.2460938 0 0-.7822266-3.1240234 1.5644531-6.8417969 2.3457031-3.7128906 3.3232422-8.0141602.1958008-8.4042969-3.1293945-.3911133-3.7148438 1.5634766-3.7148438 1.5634766s-8.2114258-2.1499023-17.0083008 8.0117188c-5.6796875 6.5683594-4.6923828 8.0175781-4.6923828 8.0175781s-10.5561523 9.7763672-16.6162109 9.7763672S165.7124023 55.7348633 171.3828125 50.652832L171.3828125 50.652832zM256.4208984 59.6459961c0 0-5.8642578 3.1240234-5.8642578 5.4707031 0 2.3476563 2.9326172 2.3476563 8.6025391 2.3476563 5.6679688 0 13.2939453-1.3652344 13.2939453-8.6005859 0-7.234375-11.5351563-11.3408203-11.5351563-19.9404297 0-8.6015625 12.3144531-15.6396484 24.0439453-15.6396484 11.7324219 0 11.5351563 7.625 8.6025391 9.1879883-2.9326172 1.5634766-8.2109375 1.1723633-8.0146484-3.1279297 0 0-16.0292969-2.7363281-16.0292969 8.0161133 0 8.7958984 13.0976563 9.3828125 13.0976563 19.9394531 0 10.5585938-14.0761719 17.2050781-25.2207031 17.2050781-11.1411133 0-16.0288086-4.1054688-16.0288086-7.4287109S246.0610352 59.6459961 256.4208984 59.6459961L256.4208984 59.6459961z" clip-rule="evenodd"/><path fill-rule="evenodd" d="M364.5283203 41.6601563c-4.1054688 1.3686523-15.8349609 11.5336914-18.1796875 14.074707 0 0 2.1503906-8.6015625 4.1035156-11.7280273 1.9560547-3.1293945-2.5410156-5.0834961-5.2763672-3.1293945-2.7382813 1.9560547-17.7910156 17.5927734-20.5263672 20.9160156 0 0 2.34375-8.7939453 5.8642578-11.9228516 3.5175781-3.1279297 1.3681641-6.0605469-.390625-5.6694336 0 0 .5849609-6.6455078-11.3388672-2.5410156 0 0-7.9589844-.3911133-14.3876953-.215332 2.4619141-4.84375 4.8769531-9.1870117 6.1767578-10.7319336 4.1054688-4.8881836-.9765625-7.2333984-4.3027344-4.1054688-1.1835938 1.1157227-5.3134766 8.0776367-8.9755859 14.9804688-3.6230469-.012207-9.4794922.2099609-12.3330078 1.6352539-4.2998047 2.1513672-4.1083984 8.40625 0 8.40625 2.1523438 0 4.1054688-2.3476563 4.1054688-2.3476563s1.8408203-.1152344 4.4863281-.2617188c-.1992188.4248047-.3935547.8398438-.5742188 1.2441406-3.7148438 8.2060547-3.9121094 11.7294922-5.8652344 11.9228516-1.9550781.1943359-3.9082031 1.3652344-3.9082031 5.6708984 0 4.2998047 1.953125 6.6464844 5.8613281 3.1240234 3.9121094-3.5175781 5.8671875-8.6005859 8.7998047-15.6357422.7666016-1.8427734 1.8222656-4.1953125 3.0107422-6.7148438 3.6699219-.1787109 7.3222656-.3261719 9.4980469-.3261719 0 0-12.1201172 9.5820313-12.1201172 16.0292969 0 6.453125 7.6259766 8.9941406 17.3994141 1.7646484 0 0 3.3232422 17.0058594 23.2646484-11.734375 0 0-3.5175781 13.4931641 1.9550781 13.4931641 2.7353516 0 15.2470703-13.2939453 17.5947266-15.2519531 0 0-4.6914063 12.9052734-4.4970703 16.2285156.1962891 3.3232422-.1943359 3.7119141 1.9550781 3.7119141 2.1503906 0 5.0830078-9.3828125 7.6240234-15.8349609 2.5410156-6.4472656 3.3232422-6.8408203 3.3232422-9.1884766C366.875 45.1791992 368.6337891 40.2910156 364.5283203 41.6601563L364.5283203 41.6601563zM485.734375 24.6513672c1.953125-2.3442383-2.3466797-5.0820313-5.8642578-.5854492-3.5205078 4.4956055-7.4287109 12.902832-9.1875 16.0292969 0 0-9.0078125-3.7041016-16.6279297 5.2441406-4.9042969-5.5092773-12.6982422-1.3325195-12.6982422-1.3325195.7822266-5.6704102-4.6914063-4.4970703-6.4501953-2.5424805s-10.7529297 12.1181641-12.7060547 14.6591797c-1.9550781 2.5458984-3.7138672 4.4990234-4.8876953 3.5224609s2.1503906-7.4287109 3.9091797-11.7285156c1.7587891-4.3017578-2.5419922-3.5209961-2.5419922-3.5209961s1.3681641-5.277832-3.5175781-4.6923828c-4.8876953.5869141-17.5117188 5.0297852-23.4609375 22.871582-.2490234.7568359-.4199219 1.4384766-.5302734 2.0742188-.8710938.5615234-1.8896484.6035156-2.7929688-.9345703-.5878906-1.2285156-.9580078-3.4179688.1972656-7.1982422 2.1494141-7.0410156 10.7519531-25.21875 13.6845703-29.7143555s-1.5644531-7.4291992-4.4970703-4.1054688c-2.9326172 3.3232422-9.3847656 18.1801758-9.3847656 18.1801758s-8.0146484-2.1499023-15.8349609 6.2558594c-5.0117188 5.3886719-8.6005859 13.8779297-8.6005859 17.4013672 0 3.5175781 3.4208984 14.9521484 15.9326172 1.6591797 2.6806641 4.4677734 4.0585938 5.4707031 6.203125 5.265625 9.6660156-4.1894531 4.7119141-1.0654297 8.2402344-1.0654297 9.2431641 0 12.1416016-2.3994141 14.6855469-6.1533203.5849609 9.1875 5.7675781 6.3525391 9.0908203 3.4179688 3.3232422-2.9296875 10.5556641-10.1650391 10.5556641-10.1650391s-1.7587891 8.40625-3.1259766 11.1416016c-1.3710938 2.7402344 5.4726563 2.1523438 5.8642578 0 .390625-2.1474609 3.1269531-6.8417969 5.8642578-12.3125 3.5683594-7.140625 9.1884766-8.7998047 13.0976563-8.0175781.5800781.1162109 1.0625.1318359 1.4824219.0839844-.5058594.8144531-1.0019531 1.6914063-1.4824219 2.6513672-8.0146484 16.0351563-6.0595703 26.3935547 8.6025391 17.4003906 0 0 .1835938 10.3164063 14.4648438-2.5410156 1.9550781-1.7597656 1.3701172-4.3007813-1.7587891-2.5419922-3.1269531 1.7587891-6.8417969 1.7587891-4.6914063-2.1474609C469.1171875 57.2993164 478.7285156 33.0585938 485.734375 24.6513672L485.734375 24.6513672z" clip-rule="evenodd"/><path fill="#FFF" fill-rule="evenodd" d="M195.8193359 49.2817383c0 0-11.8027344 8.3486328-9.9692383 12.3173828C187.0209961 64.1401367 193.0825195 54.9526367 195.8193359 49.2817383L195.8193359 49.2817383zM319.9550781 49.0874023c0 0-5.4726563.5888672-8.9912109 5.2773438-3.5175781 4.6933594-7.0380859 11.5351563-1.9550781 8.7988281C314.0908203 60.4282227 319.5673828 54.5639648 319.9550781 49.0874023L319.9550781 49.0874023zM382.515625 48.3051758c0 0-4.3027344 1.3710938-7.8203125 6.6474609-3.5205078 5.2763672-4.8876953 14.0761719-.1962891 8.9941406C379.1894531 58.8637695 381.9277344 53.7817383 382.515625 48.3051758L382.515625 48.3051758zM410.2744141 48.4995117c0 0-4.4970703 3.5234375-3.1289063 8.9941406 0 0-4.3007813 5.4765625-7.2324219 5.6699219C396.9804688 63.3579102 404.4101563 47.3286133 410.2744141 48.4995117L410.2744141 48.4995117zM461.1025391 47.7172852c-2.1494141 1.1767578-7.0380859 8.6054688-7.6230469 12.5117188-.5878906 3.9111328.5849609 4.5 3.9091797.9814453 3.3232422-3.5224609 5.0820313-8.4052734 5.8642578-11.5341797C464.0351563 46.5463867 462.578125 46.9145508 461.1025391 47.7172852L461.1025391 47.7172852zM48.8085938 44.0068359c-1.3022461.1181641-2.9848633.3808594-4.8027344.6879883 7.3686523-8.6328125 12.8183594-14.9599609 12.8183594-14.9599609.1958008 1.5634766-1.5644531 7.8208008-2.3452148 9.5795898-.2983398.6665039-.9599609 2.2641602-1.7314453 4.3286133C51.3100586 43.7651367 49.9702148 43.9003906 48.8085938 44.0068359L48.8085938 44.0068359zM118.2084961 45.1791992c1.5527344 1.2070313-2.9873047 5.9199219-7.0327148 9.5634766C114.1069336 46.1542969 116.449707 43.8110352 118.2084961 45.1791992L118.2084961 45.1791992z" clip-rule="evenodd"/></svg>