<svg xmlns="http://www.w3.org/2000/svg" role="img" viewBox="75.02 37.02 1818.96 633.96"><title>Arm logo</title><path d="M728.375 636.4214H582.4219l-44.5781-111.7968H294.5703l-40.539 111.7968H110.7266L329.8125 72.2261h157.0703L728.375 636.4214zM410.1797 206.898l-79.6719 219.0781h167.5L410.1797 206.898zm592.7422-134.6719c111.5703 0 177.6953 77.4141 177.6953 161.8203 0 62.0078-31.0391 108.6094-93.2813 138.25 55.7032 29.0235 72.6641 98.4922 149.1407 264.125h-149.1407c-58.3515-121.0547-79.664-229.2734-153.1875-229.2734h-38.9765v229.2734H759.6484V72.2261h243.2735zm-107.75 231.2969h71.9687c37.3438 0 74.0625-16.3359 74.0625-64.4922 0-42.0937-26.2968-63.6406-77.414-63.6406h-68.6172V303.523zM1741 72.2261h118.1016v564.1953h-135.5235V283.8433l-146.5 176.9922h-21l-146.6562-176.9922v352.5781h-135.6016V72.2261h117.9453L1566.5 281.3511 1741 72.2261z" fill="#118cab" fill-rule="nonzero" stroke-linejoin="bevel" stroke-miterlimit="16" clip-rule="evenodd"/></svg>