<svg xmlns="http://www.w3.org/2000/svg" role="img" viewBox="-0.42 0.58 125.84 47.72"><title>ASRock Rack (member) logo</title><path d="M25.36 19.75l13.96-.13q1.93-.02 2.16-1.94.03-.19-.05-.37-.58-1.39-2.08-1.39-4.09-.01-8.17-.11c-5.65-.13-8.04-7.51-3.61-11.18q1.98-1.64 5.47-1.53c4.09.13 8.21-.01 12.2.07q.5.01.5.51l.04 3.31q0 .52-.52.52l-12.38.01q-1.84 0-2.22 1.8-.16.77.6 1.66a1.75 1.73 67.2 0 0 1.46.61c5.19-.37 14.3-1.18 13.85 6.54-.27 4.56-4.11 6.13-8.24 6.01-6.28-.18-12.61.01-18.8-.04q-.57-.01-.57-.58l.02-15.02a.63.62-2.9 0 0-.69-.62c-1.02.1-1.93.81-2.36 1.72q-3.39 7.23-6.85 14.16-.11.21-.34.21l-6.56.12a.12.12 0 0 1-.11-.18q4.65-8.86 9.39-17.94 1.48-2.82 4.51-2.85 3.93-.05 8.5 0a.35.35 0 0 1 .35.36l-.11 15.63q0 .64.65.64zm36.78-5.34q4.12 2.48 4.08 9.13a.25.24 90 0 1-.24.25l-6.21-.03q-.26 0-.25-.25.1-7.29-6.37-7.39-.65-.01-.65.64l.03 6.67a.46.45-.6 0 1-.46.46h-4.05a.37.37 0 0 1-.37-.37l-.08-19.99q0-.45.45-.46 6.3-.09 12.17.09c3.44.1 7.12 2.64 6.17 6.52q-.79 3.2-4.04 3.76-1.38.24-.18.97zM52.5 8.47v2.34a.45.45 0 0 0 .45.45h4.12a2.89 1.44 0 0 0 2.89-1.44v-.36a2.89 1.44 0 0 0-2.89-1.44h-4.12a.45.45 0 0 0-.45.45zm67.12 6.11c2.96 2.51 3.91 4.56 3.28 8.78q-.08.54-.62.53l-4.36-.02q-.79 0-.78-.79c.06-3.93-1.37-6.67-5.65-6.68q-.62 0-.61.62l.13 6.03q.01.83-.81.83h-4.72q-.89 0-.89-.9l-.02-19.5q0-.44.45-.44l5.53.05q.44.01.44.46l-.1 8.41q0 .31.31.35 4.49.48 6.26-3.21.3-.61.98-.61l4.04.01q.57 0 .58.56.06 3.45-3.31 4.77-.7.27-.13.75zm-.14-10.01q-.14.05-.25.14-.35.27-.2-.14.18-.46.64-.62.88-.31 1.7.08.67.31-.05.45c-.57.11-1.39-.09-1.84.09zm-.09.9q1.15.41 2.45.02.82-.25.26.4-.83.98-2.64.55-.93-.22-.68-1.2.05-.19.24-.14.17.05.2.18.03.15.17.19z"/><path d="M86.54 16.1778A10.21 7.72.1 0 1 76.3165 23.88 10.21 7.72.1 0 1 66.12 16.1422 10.21 7.72.1 0 1 76.3435 8.44 10.21 7.72.1 0 1 86.54 16.1778zm-5.4303-.0582a4.81 4.47-.6 0 0-4.8565-4.4194 4.81 4.47-.6 0 0-4.7629 4.5202 4.81 4.47-.6 0 0 4.8565 4.4194 4.81 4.47-.6 0 0 4.7629-4.5202zM102.85 12.18c-2.97-.27-6.73-.01-8.47 2.69q-.72 1.12-.12 2.3c1.43 2.84 5.64 3.34 8.58 3.02q.93-.09.89.84l-.08 2.18q-.02.61-.63.65c-4.63.25-12.63-.13-15.03-4.67-2.9-5.46 2.08-9.3 6.92-10.24q3.67-.71 7.97-.44.88.05.85.94l-.06 2.01q-.03.79-.82.72z"/><ellipse rx="3.39" ry="3.13" transform="rotate(1.9 -449.121 2308.747)"/><path d="M45.88 37.82q-1.23.08-.2.76 3.56 2.33 2.8 7.08-.04.29-.33.29l-4.17-.01q-.26 0-.25-.25.15-5.32-4.63-5.82-.65-.07-.64.58l.05 5.02q0 .48-.48.48l-2.81-.01q-.47 0-.47-.47l-.01-14.54q0-.64.65-.66 5.77-.17 9.6.13c4.61.37 5.47 7.12.89 7.42zm-1.9666-2.9912a.96.96 0 0 0-.9465-.9733l-3.6397-.0508a.96.96 0 0 0-.9733.9465l-.0073.52a.96.96 0 0 0 .9465.9733l3.6397.0508a.96.96 0 0 0 .9733-.9465l.0073-.52zM89.12 39.11q3.09 1.99 2.59 6.23-.07.6-.66.6h-3.18q-.57 0-.62-.57l-.19-2.01q-.18-1.88-1.91-2.64-.61-.27-1.07-.47-1.6-.71-1.59 1.04l.03 4.05q.01.61-.61.61h-3.58q-.62 0-.61-.62l.05-14.59q0-.5.49-.5l3.91.02q.4 0 .39.41l-.08 5.87q-.01.68.67.67 2.92-.03 4.14-2.27.38-.71 1.19-.7h2.3q1.37.01.9 1.29-.69 1.88-2.54 2.92-.56.32-.02.66zm-30.41-1.96q-.78.45-1.17 1.19-1.89 3.59-3.87 7.36-.16.3-.49.29l-3.94-.15a.15.14-75.2 0 1-.12-.21l5.66-10.59a2.24 2.23-76.1 0 1 1.98-1.2l6.22-.02q.69 0 .64.69-.41 5.53.02 10.79.05.67-.62.66l-3.24-.04q-.62-.01-.61-.64l.09-7.8a.37.37 0 0 0-.55-.33z"/><path d="M69.65 39.79c.07 2.83 4.02 3.42 6.15 3.2q1.15-.11 1.14 1.05l-.02.96q-.01.87-.88.91-5.55.2-9.08-1.88c-3.65-2.13-3.06-6.61.55-8.41q3.95-1.97 9-1.23.81.12.65.93l-.17.84q-.18.88-1.08.79-2.52-.24-5.1.97a2.02 2.01-13.3 0 0-1.16 1.87z"/><rect width="27.92" height=".44" x="2.4" y="39.62" rx=".22"/><rect width="27.76" height=".44" x="94.93" y="39.62" rx=".21"/></svg>