<svg xmlns="http://www.w3.org/2000/svg" role="img" viewBox="-43.80 -43.80 2277.60 1087.60"><title>AT&amp;T logo</title><defs><clipPath id="a"><path d="M144 682h105v-45H144z" clip-rule="evenodd"/></clipPath><clipPath id="b"><path d="M98 728h398V114H98z"/></clipPath><clipPath id="c"><path d="M.03 841.98h595.02V0H.03z"/></clipPath></defs><g clip-path="url(#a)" transform="translate(29.562 923.51) matrix(22.379 0 0 -22.379 -3256.7 14334)"><g clip-path="url(#b)"><g clip-path="url(#c)"><path fill="#00abee" d="M188.83 658.61c-.051-1.446-.24-2.856-.553-4.22h-3.891c-3.257 0-6.142-.057-8.328.077-3.727.23-6.03.608-8.61.828-2.681.232-8.412.248-10.903.226-1.806-.016-4.606-.089-6.268-.226-1.765-.148-3.706-.42-5.55-.853-.276 1.213-.457 2.463-.526 3.744 1.32-.205 2.637-.448 4.212-.606.928-.091 2.566-.25 4.302-.322s4.107-.046 6.879-.046c1.566 0 3.458-.012 5.201.071 2.793.132 4.568.401 6.711.661 1.629.197 3.968.506 6.169.594 2.034.082 10.325.072 11.155.072zm-3.639-11.45c-2.393-.299-10.482-.605-19.145-.605-7.389 0-15.269.348-18.22.605.986-1.501 2.148-2.875 3.456-4.095 2.9-.309 9.293-.576 15.215-.559 6.04.02 11.767.33 15.245.566 1.305 1.219 2.464 2.59 3.449 4.088zm-11.235 5.55c-2.138-.055-4.627-.142-6.667-.33-3.126-.288-6.541-.699-10.162-.686-4.938.016-8.132.592-11.958 1.075.451-1.449 1.048-2.835 1.769-4.14 1.712.139 3.987.249 4.736.28 1.434.057 3.18.057 4.42.057 3.36 0 7.16-.292 10.625-.518 4.736-.309 15.721.075 19.378.212.738 1.343 1.342 2.771 1.794 4.264-5.159-.001-9.032-.084-13.935-.214zm-7.448-15.642c5.044 0 9.696 1.672 13.436 4.49-2.63-.281-8.506-.689-13.201-.689-4.973 0-11.185.333-13.615.647 3.73-2.794 8.362-4.448 13.38-4.448zm11.992 27.271c-2.809-.1-5.143-.44-5.54-.488-1.523-.209-3.653-.564-6.911-.644-4.237-.103-12.937-.211-14.318-.154-1.378.056-3.37.166-4.239.268-.843.097-1.945.26-2.896.459-.194-.98-.323-1.983-.384-3.005 1.058.271 2.937.532 4.554.6 3.949.138 3.395.137 6.028.138 1.576 0 8.076.026 10.389-.066 2.774-.109 5.069-.391 6.102-.53 2.82-.373 4.825-.593 7.375-.719 1.111-.053 3.717-.07 4.686-.07 1.238 0 2.29.004 5.486.004-.046 1.447-.229 2.858-.538 4.224-3.427.001-6.221.111-9.794-.017zm-29.741 2.641c1.784.172 2.934.176 4.006.214 4.448.16 12.108.191 15.514-.022 2.96-.186 4.429-.455 6.356-.76.783-.123 3.09-.354 3.981-.393 2.256-.097 4.135-.098 6.075-.098h3.192c-.442 1.453-1.026 2.845-1.74 4.157-.548.003-3.614.027-5.564.027-.972 0-2.428.029-3.606-.041-2.841-.138-6.168-.895-10.197-1.015-5.836-.17-9.873-.201-16.265-.059-1.076.024-2.953.125-4.011.36-.469-.942-.872-1.921-1.206-2.933.979.223 2.262.448 3.465.563zm-.402 5.449c1.028.164 2.331.33 3.927.442 2.868.199 11.179.166 14.419-.023 2.283-.133 4.178-.435 5.5-.619 1.323-.186 6.19-.64 10.073-.64h2.959c-1.013 1.555-2.213 2.976-3.571 4.231-1.283.045-4.312.188-7.522-.103-2.56-.232-4.792-.712-7.427-.869-1.939-.113-3.498-.205-6.303-.182-2.495.021-3.658-.017-5.767.096-1.078.057-1.88.114-2.617.195-.437.049-1.041.117-1.407.157-.823-.833-1.579-1.732-2.264-2.685zm18.85 5.505c3.674-.401 5.504-.36 8.665-.491 1.086-.046 2.472-.094 4.062-.176-3.738 2.815-8.386 4.485-13.426 4.485-4.725 0-9.104-1.471-12.713-3.974 1.846.507 4.337.811 6.467.801 2.998-.013 5.115-.444 6.945-.645"/><path d="M209.66 651.22h-4.689l-.938 3.173h-5.48l-1.085-3.173h-4.759l6.274 17.887h4.833zm17.887 8.587h3.389v-4.257c0-.649-.288-1.154-.288-1.154s.18-.075.443-.075c.216 0 .568.003.568.003v-3.101s-1.054-.024-1.694.052c-.684.081-1.006.411-1.337.667-1.081-.647-2.02-1.008-4.183-1.08-2.597-.144-4.616.505-5.771 2.236-1.153 1.585-1.153 4.544.722 6.059-1.083 1.731-1.011 3.496-.18 4.686.641.922 1.551 1.451 3.354 1.631 1.451.146 2.963-.172 3.895-.909.78-.618 1.008-1.529 1.008-2.394v-2.263h-3.245c0-.032.002 1.457.002 1.537 0 .564-.138.857-.419 1.101-.348.303-1.32.332-1.529-.433-.152-.556 0-1.081.505-1.514l4.76-4.112zm-24.524-1.662l-1.658 5.551-1.659-5.551zm18.971-1.443c-.291 0-.795-1.225.071-2.162.722-.721 2.163-.577 2.884-.431l-2.955 2.593"/><path d="M205.98 669.11v-3.75h4.688v-14.137h4.616v14.137h4.688v3.75H205.98"/><path d="M228.12 669.11v-3.75h4.688v-14.137h4.616v14.137h4.688v3.75H228.12"/></g></g></g></svg>