<svg xmlns="http://www.w3.org/2000/svg" role="img" viewBox="-3.69 -3.69 191.88 65.13"><title>BittWare (Molex) logo</title><path d="M0 0h15.38c7.41 0 10.37 3.68 10.37 7.62 0 3.51-2.31 6.26-5.89 7.24v.09c4.31.43 7.09 3.38 7.09 7.32 0 4.2-2.7 8.65-11.53 8.65H0zm7.87 12.63h4.05c3.46 0 5.51-1.07 5.51-3.47 0-2.57-1.74-3.42-4.86-3.42h-4.7zm0 12.55h6.24c2.55 0 4.51-.77 4.51-3.51 0-2.57-2.12-3.55-4.12-3.55H7.87zM36.68 6h-8.1V0h8.1zm-7.75 3.42h7.4v21.5h-7.4zm39.35 11.95v-7.11h9l-1.23-4.84h-7.77V2.05l-7.4 3v4.37h-9.9V2.05l-7.41 3v4.37h-4.7v4.84h4.74v9.51c0 5.23 3 7.67 8.68 7.67a26.4 26.4 0 0 0 5-.52V25.7a22 22 0 0 1-2.93.25c-3 0-3.31-1.58-3.31-4.58v-7.11h9.9v9.51c0 5.23 3 7.67 8.67 7.67a26.54 26.54 0 0 0 5-.52V25.7a22 22 0 0 1-2.93.25c-3.02 0-3.41-1.58-3.41-4.58z"/><path d="M121.17 0h-7.64l-1.9 9.42h7.07L121.17 0zM86.86 24.59h-.08l-1.85-10.33h-7.49l4.14 16.66h9.95l4.11-16.66h-6.12l-2.66 10.33zM82.2 0h-8.48l2.39 9.42h7.85L82.2 0zm26.36 24.59h-.08l-2.33-10.33H99.4l3.88 16.66h9.79l4.36-16.66h-6.78l-2.09 10.33zM102.93 0h-9.75l-2.42 9.42h14.3L102.93 0z"/><path d="M118.51 15.76c.38-5.61 6.05-7.15 11.14-7.15 7.55 0 11.87 2 11.87 9.29v8.23c0 1.58 0 3.21.15 4.79h-7.17c-.08-.73-.15-2.31-.15-3.47h-.07c-1.77 3.26-5.09 4.29-8.36 4.29-5.52 0-8.75-2.49-8.75-7 0-5.1 4.31-7.41 11.56-7.41h5.4c0-3.43-1.43-4.29-4.36-4.29-2.74 0-3.58 1.2-3.62 2.7zm12.52 5.8c-5 0-6 1.46-6 3.26 0 1.33 1.12 2.23 3.2 2.23 4.82 0 5.9-3.26 5.9-5.49zm12.38-7.73c0-1.37 0-3-.15-4.41h7.17c.12 1.54.15 3.09.15 4.63h.08c1.81-4.11 3.82-4.93 8.67-4.93v7a10.83 10.83 0 0 0-2-.18c-4 0-6.56 2.49-6.56 6.81v8.14h-7.4zM167 22.19c.16 3.34 1.93 5.09 5.05 5.09s3.82-1.45 4.2-2.91h7.87c-1.54 6.81-6.82 7.37-12.18 7.37-6.71 0-12.57-2.74-12.57-11.23 0-8.3 5.82-11.9 12.45-11.9 9.45 0 12.68 5.18 12.72 13.58zm9.68-4.46c-.08-3.51-2.16-4.67-4.78-4.67-3.43 0-4.43 2.44-4.78 4.67zm-43.72 30.83v1.07a4.71 4.71 0 0 0-1-.4 3.77 3.77 0 0 0-1-.14 2.18 2.18 0 0 0-1.74.72 3.52 3.52 0 0 0 0 4 2.2 2.2 0 0 0 1.74.71 3.77 3.77 0 0 0 1-.14 4.71 4.71 0 0 0 1-.4v1.07a4.51 4.51 0 0 1-1 .33 4.88 4.88 0 0 1-1.1.12 3.3 3.3 0 0 1-2.52-1 4.35 4.35 0 0 1 0-5.39 3.43 3.43 0 0 1 2.58-1 4.84 4.84 0 0 1 2 .44zm4.47-.4a3 3 0 0 1 2.36 1 4.7 4.7 0 0 1 0 5.42 3.34 3.34 0 0 1-4.73 0 4.7 4.7 0 0 1 0-5.42 3 3 0 0 1 2.37-1zm0 1a1.75 1.75 0 0 0-1.47.73 3.23 3.23 0 0 0-.54 2 3.29 3.29 0 0 0 .54 2 1.84 1.84 0 0 0 2.93 0 3.94 3.94 0 0 0 0-4 1.73 1.73 0 0 0-1.46-.76zm10.33.51a3.05 3.05 0 0 1 1-1.14 2.6 2.6 0 0 1 1.41-.37 2 2 0 0 1 1.69.76 3.5 3.5 0 0 1 .6 2.19v4.23h-1.16v-4.19a2.51 2.51 0 0 0-.36-1.5 1.24 1.24 0 0 0-1.09-.49 1.77 1.77 0 0 0-1.41.6 2.34 2.34 0 0 0-.52 1.62v4h-1.16v-4.23a2.51 2.51 0 0 0-.36-1.5 1.26 1.26 0 0 0-1.1-.49 1.78 1.78 0 0 0-1.41.6 2.42 2.42 0 0 0-.52 1.62v4h-1.09v-7h1.15v1.09a2.41 2.41 0 0 1 2.26-1.26 2.15 2.15 0 0 1 1.3.39 2.23 2.23 0 0 1 .77 1.07zm7.9 4.62v3.72h-1.16v-9.68h1.16v1.06a2.35 2.35 0 0 1 .92-.93 2.74 2.74 0 0 1 1.32-.3 2.54 2.54 0 0 1 2.08 1 4.86 4.86 0 0 1 0 5.34 2.52 2.52 0 0 1-2.08 1 2.74 2.74 0 0 1-1.32-.31 2.35 2.35 0 0 1-.92-.9zm3.92-2.45a3.31 3.31 0 0 0-.52-2 1.79 1.79 0 0 0-2.88 0 4.09 4.09 0 0 0 0 4 1.8 1.8 0 0 0 2.88 0 3.35 3.35 0 0 0 .52-2zm8.34-.5v4h-1.15v-1.06a2.41 2.41 0 0 1-1 .94 3.13 3.13 0 0 1-1.44.31 2.38 2.38 0 0 1-1.71-.61 2.14 2.14 0 0 1-.64-1.62 2.09 2.09 0 0 1 .8-1.78 3.85 3.85 0 0 1 2.36-.61h1.62v-.11a1.51 1.51 0 0 0-.48-1.24 2.19 2.19 0 0 0-1.46-.44 4.6 4.6 0 0 0-1.18.15 4.85 4.85 0 0 0-1.09.43v-1.05a6.85 6.85 0 0 1 1.23-.37 5.76 5.76 0 0 1 1.15-.12 3 3 0 0 1 2.28.79 3.34 3.34 0 0 1 .71 2.39zm-2.3.48a4 4 0 0 0-1.93.32 1.15 1.15 0 0 0-.54 1.09 1.22 1.22 0 0 0 .4 1 1.6 1.6 0 0 0 1.1.36 1.94 1.94 0 0 0 1.54-.68 2.71 2.71 0 0 0 .58-1.81v-.25zm10.25-.71v4.23h-1.15v-4.19a2.37 2.37 0 0 0-.39-1.49 1.39 1.39 0 0 0-1.16-.5 1.89 1.89 0 0 0-1.48.6 2.3 2.3 0 0 0-.54 1.62v4h-1.16v-7h1.16v1.09a2.85 2.85 0 0 1 1-1 2.57 2.57 0 0 1 1.29-.31 2.23 2.23 0 0 1 1.83.75 3.34 3.34 0 0 1 .6 2.2zm4.96 4.89a4.07 4.07 0 0 1-1 1.63 1.86 1.86 0 0 1-1.24.38h-.92v-1h.68a1.13 1.13 0 0 0 .74-.23 2.88 2.88 0 0 0 .58-1.06l.21-.53-2.84-6.9h1.24l2.19 5.49 2.2-5.49h1.22zM47.28 51.33v4h-1.19v-1.06a2.45 2.45 0 0 1-1 .94 3.19 3.19 0 0 1-1.44.31 2.42 2.42 0 0 1-1.72-.61 2.13 2.13 0 0 1-.65-1.62 2.08 2.08 0 0 1 .83-1.73 3.89 3.89 0 0 1 2.36-.6h1.62v-.12a1.5 1.5 0 0 0-.52-1.28 2.24 2.24 0 0 0-1.47-.43 4.57 4.57 0 0 0-1.17.14 4.93 4.93 0 0 0-1.1.43v-1.06a6.85 6.85 0 0 1 1.23-.37 5.79 5.79 0 0 1 1.16-.12 3 3 0 0 1 2.27.79 3.34 3.34 0 0 1 .79 2.39zm-2.3.48a4 4 0 0 0-1.93.32 1.15 1.15 0 0 0-.54 1.09 1.22 1.22 0 0 0 .4 1 1.6 1.6 0 0 0 1.1.36 1.91 1.91 0 0 0 1.54-.68 2.66 2.66 0 0 0 .58-1.81v-.25z"/><path fill="#ea0437" d="M90.28 38.37h4.17v16.96h-4.17z"/><path fill="#ea0437" d="M75.51 49.76c0 4.14 2.92 6.27 6.69 6.27s6.69-2.08 6.69-6.52c0-3.78-2.56-6.3-6.71-6.3-4 0-6.67 2.34-6.67 6.55m6.63-4.2c1.53-.09 2.5 1.61 2.5 3.86 0 2.9-1 4.16-2.56 4.16s-2.54-1.26-2.54-4.16c0-1.72.59-3.86 2.6-3.86m22.57 2.68h-4.09c0-3.14 4.13-3.17 4.09 0m-1.86 4.83a2.25 2.25 0 0 1-2.23-2.37h8.58c.07-4.38-2.46-7.49-6.65-7.49a6.2 6.2 0 0 0-6.41 6.51c0 4.08 2.81 6.31 6.43 6.31 2.64 0 5.49-1 6.26-4h-4.29a1.79 1.79 0 0 1-1.69 1.05m-37.57 2.25v-7.45a2.04 2.04 0 1 1 4.08 0v7.45h4v-8.87a3.91 3.91 0 0 0-1.82-2.62 5.32 5.32 0 0 0-6.56 1.33 6 6 0 0 0-2.78-1.77 5.07 5.07 0 0 0-4.92 1.38c-.18.16-.32.53-.31.22v-1.5h-4.09v11.83h4.11v-7.45a2.045 2.045 0 1 1 4.09 0v7.45zm52.83-11.83l-2 2.87c-.62-.88-1.18-2-1.74-2.87h-4.59l3.62 5.49s-2.7 4.12-4.13 6.34h4l2.3-3.77c.38.56 1.25 2.3 2.12 3.75h4.46c-1.12-1.9-3.8-6.36-3.8-6.36 1.1-1.87 2.59-3.6 3.74-5.47z"/></svg>