<svg xmlns="http://www.w3.org/2000/svg" role="img" viewBox="-9.21 -6.97 453.18 163.18"><title>Carbon Engineering Ltd. logo</title><style>svg {shape-rendering:geometricPrecision;text-rendering:geometricPrecision;image-rendering:optimizeQuality;fill-rule:evenodd;clip-rule:evenodd}</style><path fill="#a02383" d="M-.5 82.5v-24C9.41471 19.0333 34.748.19996 75.5 2c5.5529 2.26336 8.2196 6.43003 8 12.5-.0206 5.855-2.6873 10.0217-8 12.5-25.7074-.75-42.2074 11.0833-49.5 35.5-1.9053 29.5544 11.7614 46.221 41 50 7.6244-.031 14.7911-1.864 21.5-5.5 21.667-21 43.333-42 65-63 10.833-2.4373 16.833 1.7294 18 12.5.205 3.2946-.628 6.2946-2.5 9-20.167 20.1667-40.333 40.333-60.5 60.5-26.7759 17.611-53.7759 17.944-81 1-14.8114-11.471-24.14478-26.304-28-44.5z" opacity=".953"/><path fill="#a02383" d="M129.5 17.5c10.004-1.1785 15.671 3.1548 17 13-.079 3.7384-1.246 7.0718-3.5 10-16.167 16.1667-32.333 32.3333-48.5 48.5-11.0905 3.6263-17.7571-.2071-20-11.5.0791-3.7384 1.2458-7.0718 3.5-10 16.782-17.2852 33.949-33.9519 51.5-50z" opacity=".941"/><path fill="#1f1c1b" d="M313.5 64.5c1.644-.2135 3.144.1198 4.5 1 .333 3.6667.667 7.3333 1 11 6.068-2.9813 11.068-1.648 15 4 2.169 5.8144 1.835 11.4811-1 17-1.579 1.5412-3.413 2.708-5.5 3.5-4.961-.023-9.794-.19-14.5-.5-.811-12.0758-.645-24.0758.5-36zm8 16c5.591-.4096 8.258 2.2571 8 8-1.324 7.488-4.824 8.8214-10.5 4-1.727-4.4381-.894-8.4381 2.5-12z" opacity=".829"/><path fill="#1f1c1b" d="M256.5 66.5c3.41-.0429 6.743.4571 10 1.5 4.474 2.0239 4.974 4.5239 1.5 7.5-13.012-5.6731-18.679-1.3398-17 13 .786 3.0827 2.619 5.2494 5.5 6.5 3.992.7155 7.825.2155 11.5-1.5 4.182 1.9834 4.015 4.1501-.5 6.5-14.335 4.166-22.335-1.1672-24-16 .621-8.7951 4.954-14.6285 13-17.5z" opacity=".793"/><path fill="#a02383" d="M178.5 69.5c15.843-.9982 21.343 6.0018 16.5 21-16.196 15.862-32.029 32.029-47.5 48.5-9.125 5.428-16.292 3.594-21.5-5.5-.767-4.094-.434-8.094 1-12 16.7-17.866 33.867-35.1998 51.5-52z" opacity=".941"/><path fill="#1f1c1b" d="M280.5 74.5c3.045-.1582 5.879.5085 8.5 2 1.396-2.0268 3.062-2.3602 5-1 .816 8.5787.649 17.0787-.5 25.5-1.867.711-3.367.211-4.5-1.5-7.644 3.681-13.31 1.681-17-6-2.228-8.8809.606-15.2143 8.5-19zm0 6c7.621.4463 10.121 4.4463 7.5 12-3.794 4.241-7.127 3.9077-10-1-1.054-4.1555-.22-7.8221 2.5-11z" opacity=".826"/><path fill="#1f1c1b" d="M299.5 74.5c1.89-.2035 3.39.4632 4.5 2 5.685-3.5746 7.851-2.2412 6.5 4-2.114.5339-3.948 1.5339-5.5 3-1.186 5.5845-1.852 11.2512-2 17-1.938 1.36-3.604 1.027-5-1-.667-7.6667-.667-15.3333 0-23 .717-.5442 1.217-1.2109 1.5-2z" opacity=".795"/><path fill="#1f1c1b" d="M345.5 74.5c11.115.2828 15.948 5.9494 14.5 17-3.629 9.768-10.129 12.268-19.5 7.5-4.186-5.6593-5.019-11.826-2.5-18.5 2.134-2.6526 4.634-4.6526 7.5-6zm0 6c5.461-.2101 8.461 2.4566 9 8-1.315 6.7443-4.815 8.4109-10.5 5-2.161-4.6804-1.661-9.0137 1.5-13z" opacity=".798"/><path fill="#1f1c1b" d="M363.5 74.5c1.89-.2035 3.39.4632 4.5 2 12.021-3.494 17.188 1.1726 15.5 14-.018 3.5841-.352 7.0841-1 10.5-1.612.72-3.112.554-4.5-.5-.333-6-.667-12-1-18-2.667-2.6667-5.333-2.6667-8 0-.333 5.6667-.667 11.3333-1 17-1.396 2.027-3.062 2.36-5 1-.802-8.7449-.636-17.4116.5-26z" opacity=".833"/><path fill="#1f1c1b" d="M286.5 103.5c4.528.341 5.861 2.508 4 6.5-6.14.808-7.473-1.359-4-6.5z" opacity=".702"/><path fill="#1f1c1b" d="M381.5 103.5c4.476.3 5.81 2.467 4 6.5-6.161.878-7.494-1.289-4-6.5z" opacity=".701"/><path fill="#1f1c1b" d="M215.5 104.5c5.344-.166 10.677.001 16 .5.88 1.356 1.214 2.856 1 4.5h-12v9c3.35-.165 6.683.002 10 .5 1.491 2.022 1.158 3.688-1 5-2.982.498-5.982.665-9 .5v8c3.682-.165 7.348.001 11 .5 1.333 1.667 1.333 3.333 0 5-5.584.806-11.084.639-16.5-.5-.809-11.076-.642-22.076.5-33z" opacity=".834"/><path fill="#1f1c1b" d="M235.5 112.5c5.188.267 10.521.433 16 .5 2.315 1.109 3.815 2.943 4.5 5.5.81 6.582.643 13.082-.5 19.5-1.612.72-3.112.554-4.5-.5-.333-5.333-.667-10.667-1-16-3-5.333-6-5.333-9 0-.333 5.333-.667 10.667-1 16-1.667 1.333-3.333 1.333-5 0-.801-8.412-.634-16.745.5-25z" opacity=".823"/><path fill="#1f1c1b" d="M265.5 112.5c5.423.538 10.756.538 16 0 .166 9.339 0 18.673-.5 28-2.185 5.015-6.019 7.348-11.5 7-4.855.737-8.522-.93-11-5 .712-1.546 1.878-2.546 3.5-3 3.222 2.205 6.722 3.039 10.5 2.5 1.243-1.154 2.243-2.488 3-4-13.718 1.604-19.218-4.563-16.5-18.5 1.694-2.858 3.861-5.191 6.5-7zm3 5c5.076.108 7.409 2.774 7 8 .371 4.277-1.463 6.944-5.5 8-5.539-3.38-6.872-8.047-4-14 .995-.566 1.828-1.233 2.5-2z" opacity=".827"/><path fill="#1f1c1b" d="M285.5 112.5h5c.166 8.34 0 16.673-.5 25-1.667 1.333-3.333 1.333-5 0-.801-8.412-.634-16.745.5-25z" opacity=".832"/><path fill="#1f1c1b" d="M294.5 112.5c3.845 1.178 7.678 1.178 11.5 0 4.7-.487 7.7 1.513 9 6 .81 6.582.643 13.082-.5 19.5-1.612.72-3.112.554-4.5-.5-.333-5.667-.667-11.333-1-17-3.523-4.201-6.523-3.868-9 1-.333 5.333-.667 10.667-1 16-1.667 1.333-3.333 1.333-5 0-.801-8.412-.634-16.745.5-25z" opacity=".828"/><path fill="#1f1c1b" d="M323.5 112.5c8.668-2.366 14.501.634 17.5 9 2.579-8.208 8.079-11.041 16.5-8.5 5.611 3.213 7.611 7.879 6 14-5.667.333-11.333.667-17 1 1.26 2.928 3.427 4.761 6.5 5.5 3.137-.661 5.97-1.995 8.5-4 2.71 2.715 2.377 5.215-1 7.5-9.753 3.949-16.419 1.116-20-8.5-5.628-.995-11.294-1.329-17-1 .231 3.4 2.064 5.4 5.5 6 3.137-.661 5.97-1.995 8.5-4 3.579 1.66 3.912 3.827 1 6.5-13.931 5.96-21.098 1.46-21.5-13.5.949-4.257 3.115-7.591 6.5-10zm3 5c3.727-.305 6.394 1.195 8 4.5-3.711.825-7.378.659-11-.5 1.024-1.352 2.024-2.685 3-4zm24 0c4.077-.483 6.41 1.184 7 5-3.398.32-6.732-.013-10-1 .672-1.66 1.672-2.993 3-4z" opacity=".806"/><path fill="#1f1c1b" d="M366.5 112.5c4.295 1.038 8.629 1.038 13 0 .285 1.788-.048 3.455-1 5-2.114.534-3.948 1.534-5.5 3-.333 5.333-.667 10.667-1 16-2 2.667-4 2.667-6 0-.8-8.079-.633-16.079.5-24z" opacity=".77"/><path fill="#1f1c1b" d="M380.5 112.5c1.967-.239 3.801.094 5.5 1 .667 8 .667 16 0 24-1.667 1.333-3.333 1.333-5 0-.5-8.327-.666-16.66-.5-25z" opacity=".832"/><path fill="#1f1c1b" d="M389.5 112.5c5.25.372 10.583.539 16 .5 1.431.465 2.597 1.299 3.5 2.5 1.097 3.884 1.597 7.884 1.5 12-.018 3.584-.352 7.084-1 10.5-1.612.72-3.112.554-4.5-.5-.333-5.667-.667-11.333-1-17-2.237-3.52-4.904-3.853-8-1-.333 6-.667 12-1 18-1.667 1.333-3.333 1.333-5 0-.5-8.327-.666-16.66-.5-25z" opacity=".845"/><path fill="#1f1c1b" d="M435.5 112.5v29c-1.477 2.307-3.477 4.14-6 5.5-4.787.879-9.453.545-14-1-2.102-1.733-2.435-3.733-1-6 3.213.338 6.379 1.171 9.5 2.5 2.818.009 4.652-1.325 5.5-4-10.434 1.76-16.101-2.74-17-13.5.129-4.393 1.795-8.06 5-11 5.98-1.126 11.98-1.626 18-1.5zm-13 5c7.414 1.494 9.581 5.827 6.5 13-2.855 3.564-5.855 3.564-9 0-2.183-4.93-1.35-9.264 2.5-13z" opacity=".841"/></svg>