<svg xmlns="http://www.w3.org/2000/svg" role="img" viewBox="0.76 54.26 896.48 391.48"><title>Cato Digital VPS (member) logo</title><g fill="none" stroke="#8ac4b2" stroke-width="2"><path d="M58.16 167.68C71.13 129.49 106.28 103.26 147.23 104.06Q187.73 104.85 214.52 132.83A.64.64 0 0 0 215.44 132.84L238.36 110.15Q238.63 109.88 238.36 109.6 225.34 96.2 208.98 87.3 176.73 69.77 138.89 72.12C103.76 74.3 71.17 90.62 48.6 117.34 29.52 139.93 18.12 169.19 18.24 199.32Q18.27 205.5 18.67 210.85 21.91 254.51 49.75 286.46C60.12 298.36 73.84 308.91 88.65 316.12Q94.6 319.02 99.52 320.81 138.41 335.03 177.99 325.18 212.01 316.71 237.63 291.1A.52.52 0 0 0 237.63 290.37L215.39 267.86Q215.05 267.51 214.7 267.87 190.01 293.82 153.97 296.53 142.8 297.37 131.76 295.55C104.82 291.11 82.11 276.31 67.79 253.19 56.8 235.46 52.39 214.56 53.21 193.46Q53.71 180.8 58.16 167.68M864.62 262.47C875.5 243.03 881.15 219.4 880.41 197.97Q878.28 136.39 832 98.95C814.1 84.46 790.86 75.28 768.63 72.77Q723.61 67.7 685.68 90.47C648.9 112.53 624.97 152.9 623.89 196.24Q623.23 222.88 631.79 246.63 635.42 256.72 640.16 264.97 662.94 304.69 704.92 320.69 741.8 334.73 781.99 325.61 791.86 323.38 801.13 319.46 842.52 301.99 864.62 262.47M305.54 283.2A.3.3 0 0 1 305.82 283L407.83 283A.3.3 0 0 1 408.11 283.2L424.91 329.03A.3.3 0 0 0 425.19 329.23L460.05 329.24A.3.3 0 0 0 460.33 328.83L363.28 78.2A.3.3 0 0 0 363 78.01L353.79 78.02A.3.3 0 0 0 353.51 78.21L253.32 328.82A.3.3 0 0 0 253.6 329.23L288.4 329.23A.3.3 0 0 0 288.68 329.03L305.54 283.2M513.36 109A.41.41 0 0 1 513.77 109.41L513.77 328.83A.41.41 0 0 0 514.18 329.24L546.95 329.22A.41.41 0 0 0 547.36 328.81L547.36 109.41A.41.41 0 0 1 547.77 109L619.1 109A.41.41 0 0 0 619.51 108.59L619.51 78.41A.41.41 0 0 0 619.1 78L441.9 78A.41.41 0 0 0 441.49 78.41L441.49 108.59A.41.41 0 0 0 441.9 109L513.36 109M292.87 395.38A.37.37 0 0 1 293.24 395.01L304.36 394.99A.37.37 0 0 0 304.73 394.62L304.74 387.87A.37.37 0 0 0 304.37 387.5L273.49 387.48A.37.37 0 0 0 273.12 387.85L273.13 394.62A.37.37 0 0 0 273.5 394.99L284.55 395.01A.37.37 0 0 1 284.92 395.38L284.91 428.37A.37.37 0 0 0 285.28 428.74L292.52 428.76A.37.37 0 0 0 292.89 428.39L292.87 395.38M397.21 401.23Q397.56 400 397.89 401.23L405.02 428.2Q405.16 428.74 405.71 428.74L412.22 428.74Q412.95 428.74 413.12 428.04L422.91 387.74Q422.98 387.45 422.68 387.45L414.95 387.51Q414.66 387.51 414.6 387.8L409.02 413.79Q408.75 415.03 408.39 413.82L400.76 388.03Q400.6 387.49 400.03 387.49L394.51 387.49Q393.96 387.49 393.81 388.01L386 414.25Q385.78 415.01 385.62 414.24L380.16 387.68Q380.12 387.49 379.92 387.49L372.12 387.5A.22.22 0 0 0 371.9 387.77L381.74 428.08Q381.9 428.74 382.58 428.74L388.86 428.74Q389.5 428.74 389.68 428.12L397.21 401.23M521.259 401.7725A14.5 14.5 0 0 0 506.7337 387.2978L504.1737 387.3023A14.5 14.5 0 0 0 489.6991 401.8276L489.721 414.3875A14.5 14.5 0 0 0 504.2463 428.8622L506.8063 428.8577A14.5 14.5 0 0 0 521.2809 414.3324L521.259 401.7725M695.86 407.23L695.88 387.78A.33.32 89.2 0 0 695.55 387.45L688.2 387.51Q687.92 387.51 687.92 387.8L687.92 428.43Q687.92 428.73 688.22 428.73L695.69 428.76Q695.9 428.76 695.89 428.56L695.86 420.53Q695.86 419.97 696.2 419.52L701.52 412.47A.63.63 0 0 1 702.56 412.53L712.09 428.48Q712.25 428.75 712.55 428.75L721.64 428.73A.16.15 74.4 0 0 721.77 428.49L707.55 405.26Q707.27 404.8 707.59 404.36 714.22 395.45 720.2 387.57A.04.04 0 0 0 720.17 387.5Q713.62 387.37 710.22 387.52 709.94 387.53 709.79 387.76L696.33 407.37Q695.86 408.05 695.86 407.23M799.11 401C797.06 398.39 800.17 395.15 802.78 394.76Q809.97 393.7 816.27 397.72 816.85 398.09 817.18 397.48L820.01 392.22Q820.39 391.52 819.71 391.12 809.78 385.26 798.69 388.3 792.19 390.08 790.79 397.12C789.11 405.58 794.03 410.37 801.72 411.43Q806.06 412.02 810.37 413.25 812.28 413.79 812.89 415.56C814.73 420.84 806.8 421.9 803.38 421.54Q797.2 420.89 793.2 418.07 792.38 417.49 791.85 418.34L788.98 422.96Q788.48 423.76 789.28 424.28 796.61 429.02 805.46 428.82C813.96 428.63 822.04 425.13 821.32 415.03Q820.82 407.92 814.01 406.18 807.99 404.65 802.51 403.22 800.42 402.67 799.11 401M85.6 399.89L100.12 428.31Q100.35 428.75 100.84 428.75L109.8 428.73Q110.32 428.73 110.32 428.2L110.32 387.77Q110.32 387.48 110.03 387.48L102.75 387.5Q102.5 387.5 102.5 387.75L102.49 416.32Q102.49 417.69 101.87 416.46L87.56 387.98Q87.31 387.49 86.76 387.49L78.01 387.49Q77.26 387.49 77.26 388.24L77.26 428.25Q77.26 428.74 77.75 428.74L84.79 428.74Q85.09 428.74 85.09 428.44L85.08 400.01Q85.08 398.88 85.6 399.89M185.86 404.49A.36.36 0 0 1 185.5 404.13L185.52 395.36A.36.36 0 0 1 185.88 395L205.87 395A.36.36 0 0 0 206.23 394.64L206.23 387.85A.36.36 0 0 0 205.87 387.49L177.63 387.49A.36.36 0 0 0 177.27 387.85L177.26 428.38A.36.36 0 0 0 177.62 428.74L205.88 428.74A.36.36 0 0 0 206.24 428.38L206.23 421.61A.36.36 0 0 0 205.87 421.25L185.87 421.26A.36.36 0 0 1 185.51 420.9L185.51 412.36A.36.36 0 0 1 185.87 412L202.52 412A.36.36 0 0 0 202.88 411.64L202.85 404.86A.36.36 0 0 0 202.49 404.5L185.86 404.49M596.76 412.23L600.45 412.23Q601.04 412.23 601.34 412.75L610.64 428.72Q610.69 428.81 610.79 428.84 612.2 429.24 620.6 428.88A.05.05 0 0 0 620.64 428.81Q615.84 420.75 610.9 412.69A.53.53 0 0 1 611.13 411.94Q620.69 407.46 618.36 396.32 617.31 391.3 612.59 388.86 610.16 387.6 606.15 387.69 597.36 387.87 588.44 387.77A.44.44 0 0 0 588 388.21L588 428.25A.75.74 0 0 0 588.75 428.99L595.25 429Q596 429 596 428.25L596 412.99Q596 412.23 596.76 412.23" vector-effect="non-scaling-stroke"/><path d="M732.97 105.86C691.65 114.03 662.49 149.05 658.78 190.96 658.34 195.93 658.7 201.2 658.91 206.22 660.61 246.71 686.84 282.27 726.47 293.16Q748.58 299.23 770.9 295.06 780.52 293.26 789.52 289.23 800.2 284.46 808.83 277.91C831.99 260.36 845.34 232.07 845.77 203.42 846.22 173.67 835.3 145.83 813.34 126.52 804.49 118.73 792.17 111.6 779.96 108.16Q775.25 106.83 771.17 105.96 752.57 101.99 732.97 105.86M317.37 251.8A.33.33 0 0 0 317.68 252.25L396.5 252.26A.33.33 0 0 0 396.81 251.81L358.93 150.04A.33.33 0 0 0 358.31 150.03L317.37 251.8M512.64 401.84A7.01 7.01 0 0 0 505.63 394.83L504.79 394.83A7.01 7.01 0 0 0 497.78 401.84L497.78 414.44A7.01 7.01 0 0 0 504.79 421.45L505.63 421.45A7.01 7.01 0 0 0 512.64 414.44L512.64 401.84M596.3 395.46L596.34 404.42A.41.41 0 0 0 596.76 404.83L606.28 404.78A4.67 4.45 89.7 0 0 610.7 400.08L610.7 399.64A4.67 4.45 89.7 0 0 606.22 395L596.7 395.05A.41.41 0 0 0 596.3 395.46" vector-effect="non-scaling-stroke"/></g><path fill="#fff" d="M 0.00 0.00 L 900.00 0.00 L 900.00 500.00 L 0.00 500.00 L 0.00 0.00 Z M 58.16 167.68 C 71.13 129.49 106.28 103.26 147.23 104.06 Q 187.73 104.85 214.52 132.83 A 0.64 0.64 0.0 0 0 215.44 132.84 L 238.36 110.15 Q 238.63 109.88 238.36 109.60 Q 225.34 96.20 208.98 87.30 Q 176.73 69.77 138.89 72.12 C 103.76 74.30 71.17 90.62 48.60 117.34 C 29.52 139.93 18.12 169.19 18.24 199.32 Q 18.27 205.50 18.67 210.85 Q 21.91 254.51 49.75 286.46 C 60.12 298.36 73.84 308.91 88.65 316.12 Q 94.60 319.02 99.52 320.81 Q 138.41 335.03 177.99 325.18 Q 212.01 316.71 237.63 291.10 A 0.52 0.52 0.0 0 0 237.63 290.37 L 215.39 267.86 Q 215.05 267.51 214.70 267.87 Q 190.01 293.82 153.97 296.53 Q 142.80 297.37 131.76 295.55 C 104.82 291.11 82.11 276.31 67.79 253.19 C 56.80 235.46 52.39 214.56 53.21 193.46 Q 53.71 180.80 58.16 167.68 Z M 864.62 262.47 C 875.50 243.03 881.15 219.40 880.41 197.97 Q 878.28 136.39 832.00 98.95 C 814.10 84.46 790.86 75.28 768.63 72.77 Q 723.61 67.70 685.68 90.47 C 648.90 112.53 624.97 152.90 623.89 196.24 Q 623.23 222.88 631.79 246.63 Q 635.42 256.72 640.16 264.97 Q 662.94 304.69 704.92 320.69 Q 741.80 334.73 781.99 325.61 Q 791.86 323.38 801.13 319.46 Q 842.52 301.99 864.62 262.47 Z M 305.54 283.20 A 0.30 0.30 0.0 0 1 305.82 283.00 L 407.83 283.00 A 0.30 0.30 0.0 0 1 408.11 283.20 L 424.91 329.03 A 0.30 0.30 0.0 0 0 425.19 329.23 L 460.05 329.24 A 0.30 0.30 0.0 0 0 460.33 328.83 L 363.28 78.20 A 0.30 0.30 0.0 0 0 363.00 78.01 L 353.79 78.02 A 0.30 0.30 0.0 0 0 353.51 78.21 L 253.32 328.82 A 0.30 0.30 0.0 0 0 253.60 329.23 L 288.40 329.23 A 0.30 0.30 0.0 0 0 288.68 329.03 L 305.54 283.20 Z M 513.36 109.00 A 0.41 0.41 0.0 0 1 513.77 109.41 L 513.77 328.83 A 0.41 0.41 0.0 0 0 514.18 329.24 L 546.95 329.22 A 0.41 0.41 0.0 0 0 547.36 328.81 L 547.36 109.41 A 0.41 0.41 0.0 0 1 547.77 109.00 L 619.10 109.00 A 0.41 0.41 0.0 0 0 619.51 108.59 L 619.51 78.41 A 0.41 0.41 0.0 0 0 619.10 78.00 L 441.90 78.00 A 0.41 0.41 0.0 0 0 441.49 78.41 L 441.49 108.59 A 0.41 0.41 0.0 0 0 441.90 109.00 L 513.36 109.00 Z M 292.87 395.38 A 0.37 0.37 0.0 0 1 293.24 395.01 L 304.36 394.99 A 0.37 0.37 0.0 0 0 304.73 394.62 L 304.74 387.87 A 0.37 0.37 0.0 0 0 304.37 387.50 L 273.49 387.48 A 0.37 0.37 0.0 0 0 273.12 387.85 L 273.13 394.62 A 0.37 0.37 0.0 0 0 273.50 394.99 L 284.55 395.01 A 0.37 0.37 0.0 0 1 284.92 395.38 L 284.91 428.37 A 0.37 0.37 0.0 0 0 285.28 428.74 L 292.52 428.76 A 0.37 0.37 0.0 0 0 292.89 428.39 L 292.87 395.38 Z M 397.21 401.23 Q 397.56 400.00 397.89 401.23 L 405.02 428.20 Q 405.16 428.74 405.71 428.74 L 412.22 428.74 Q 412.95 428.74 413.12 428.04 L 422.91 387.74 Q 422.98 387.45 422.68 387.45 L 414.95 387.51 Q 414.66 387.51 414.60 387.80 L 409.02 413.79 Q 408.75 415.03 408.39 413.82 L 400.76 388.03 Q 400.60 387.49 400.03 387.49 L 394.51 387.49 Q 393.96 387.49 393.81 388.01 L 386.00 414.25 Q 385.78 415.01 385.62 414.24 L 380.16 387.68 Q 380.12 387.49 379.92 387.49 L 372.12 387.50 A 0.22 0.22 0.0 0 0 371.90 387.77 L 381.74 428.08 Q 381.90 428.74 382.58 428.74 L 388.86 428.74 Q 389.50 428.74 389.68 428.12 L 397.21 401.23 Z M 521.2590 401.7725 A 14.50 14.50 0.0 0 0 506.7337 387.2978 L 504.1737 387.3023 A 14.50 14.50 0.0 0 0 489.6991 401.8276 L 489.7210 414.3875 A 14.50 14.50 0.0 0 0 504.2463 428.8622 L 506.8063 428.8577 A 14.50 14.50 0.0 0 0 521.2809 414.3324 L 521.2590 401.7725 Z M 695.86 407.23 L 695.88 387.78 A 0.33 0.32 89.2 0 0 695.55 387.45 L 688.20 387.51 Q 687.92 387.51 687.92 387.80 L 687.92 428.43 Q 687.92 428.73 688.22 428.73 L 695.69 428.76 Q 695.90 428.76 695.89 428.56 L 695.86 420.53 Q 695.86 419.97 696.20 419.52 L 701.52 412.47 A 0.63 0.63 0.0 0 1 702.56 412.53 L 712.09 428.48 Q 712.25 428.75 712.55 428.75 L 721.64 428.73 A 0.16 0.15 74.4 0 0 721.77 428.49 L 707.55 405.26 Q 707.27 404.80 707.59 404.36 Q 714.22 395.45 720.20 387.57 A 0.04 0.04 0.0 0 0 720.17 387.50 Q 713.62 387.37 710.22 387.52 Q 709.94 387.53 709.79 387.76 L 696.33 407.37 Q 695.86 408.05 695.86 407.23 Z M 799.11 401.00 C 797.06 398.39 800.17 395.15 802.78 394.76 Q 809.97 393.70 816.27 397.72 Q 816.85 398.09 817.18 397.48 L 820.01 392.22 Q 820.39 391.52 819.71 391.12 Q 809.78 385.26 798.69 388.30 Q 792.19 390.08 790.79 397.12 C 789.11 405.58 794.03 410.37 801.72 411.43 Q 806.06 412.02 810.37 413.25 Q 812.28 413.79 812.89 415.56 C 814.73 420.84 806.80 421.90 803.38 421.54 Q 797.20 420.89 793.20 418.07 Q 792.38 417.49 791.85 418.34 L 788.98 422.96 Q 788.48 423.76 789.28 424.28 Q 796.61 429.02 805.46 428.82 C 813.96 428.63 822.04 425.13 821.32 415.03 Q 820.82 407.92 814.01 406.18 Q 807.99 404.65 802.51 403.22 Q 800.42 402.67 799.11 401.00 Z M 85.60 399.89 L 100.12 428.31 Q 100.35 428.75 100.84 428.75 L 109.80 428.73 Q 110.32 428.73 110.32 428.20 L 110.32 387.77 Q 110.32 387.48 110.03 387.48 L 102.75 387.50 Q 102.50 387.50 102.50 387.75 L 102.49 416.32 Q 102.49 417.69 101.87 416.46 L 87.56 387.98 Q 87.31 387.49 86.76 387.49 L 78.01 387.49 Q 77.26 387.49 77.26 388.24 L 77.26 428.25 Q 77.26 428.74 77.75 428.74 L 84.79 428.74 Q 85.09 428.74 85.09 428.44 L 85.08 400.01 Q 85.08 398.88 85.60 399.89 Z M 185.86 404.49 A 0.36 0.36 0.0 0 1 185.50 404.13 L 185.52 395.36 A 0.36 0.36 0.0 0 1 185.88 395.00 L 205.87 395.00 A 0.36 0.36 0.0 0 0 206.23 394.64 L 206.23 387.85 A 0.36 0.36 0.0 0 0 205.87 387.49 L 177.63 387.49 A 0.36 0.36 0.0 0 0 177.27 387.85 L 177.26 428.38 A 0.36 0.36 0.0 0 0 177.62 428.74 L 205.88 428.74 A 0.36 0.36 0.0 0 0 206.24 428.38 L 206.23 421.61 A 0.36 0.36 0.0 0 0 205.87 421.25 L 185.87 421.26 A 0.36 0.36 0.0 0 1 185.51 420.90 L 185.51 412.36 A 0.36 0.36 0.0 0 1 185.87 412.00 L 202.52 412.00 A 0.36 0.36 0.0 0 0 202.88 411.64 L 202.85 404.86 A 0.36 0.36 0.0 0 0 202.49 404.50 L 185.86 404.49 Z M 596.76 412.23 L 600.45 412.23 Q 601.04 412.23 601.34 412.75 L 610.64 428.72 Q 610.69 428.81 610.79 428.84 Q 612.20 429.24 620.60 428.88 A 0.05 0.05 0.0 0 0 620.64 428.81 Q 615.84 420.75 610.90 412.69 A 0.53 0.53 0.0 0 1 611.13 411.94 Q 620.69 407.46 618.36 396.32 Q 617.31 391.30 612.59 388.86 Q 610.16 387.60 606.15 387.69 Q 597.36 387.87 588.44 387.77 A 0.44 0.44 0.0 0 0 588.00 388.21 L 588.00 428.25 A 0.75 0.74 -0.0 0 0 588.75 428.99 L 595.25 429.00 Q 596.00 429.00 596.00 428.25 L 596.00 412.99 Q 596.00 412.23 596.76 412.23 Z"/><path fill="#158864" d="M147.23 104.06C106.28 103.26 71.13 129.49 58.16 167.68Q53.71 180.8 53.21 193.46C52.39 214.56 56.8 235.46 67.79 253.19 82.11 276.31 104.82 291.11 131.76 295.55Q142.8 297.37 153.97 296.53 190.01 293.82 214.7 267.87 215.05 267.51 215.39 267.86L237.63 290.37A.52.52 0 0 1 237.63 291.1Q212.01 316.71 177.99 325.18 138.41 335.03 99.52 320.81 94.6 319.02 88.65 316.12C73.84 308.91 60.12 298.36 49.75 286.46Q21.91 254.51 18.67 210.85 18.27 205.5 18.24 199.32C18.12 169.19 29.52 139.93 48.6 117.34 71.17 90.62 103.76 74.3 138.89 72.12Q176.73 69.77 208.98 87.3 225.34 96.2 238.36 109.6 238.63 109.88 238.36 110.15L215.44 132.84A.64.64 0 0 1 214.52 132.83Q187.73 104.85 147.23 104.06zM864.62 262.47Q842.52 301.99 801.13 319.46 791.86 323.38 781.99 325.61 741.8 334.73 704.92 320.69 662.94 304.69 640.16 264.97 635.42 256.72 631.79 246.63 623.23 222.88 623.89 196.24C624.97 152.9 648.9 112.53 685.68 90.47Q723.61 67.7 768.63 72.77C790.86 75.28 814.1 84.46 832 98.95Q878.28 136.39 880.41 197.97C881.15 219.4 875.5 243.03 864.62 262.47zM732.97 105.86C691.65 114.03 662.49 149.05 658.78 190.96 658.34 195.93 658.7 201.2 658.91 206.22 660.61 246.71 686.84 282.27 726.47 293.16Q748.58 299.23 770.9 295.06 780.52 293.26 789.52 289.23 800.2 284.46 808.83 277.91C831.99 260.36 845.34 232.07 845.77 203.42 846.22 173.67 835.3 145.83 813.34 126.52 804.49 118.73 792.17 111.6 779.96 108.16Q775.25 106.83 771.17 105.96 752.57 101.99 732.97 105.86zM305.54 283.2L288.68 329.03A.3.3 0 0 1 288.4 329.23L253.6 329.23A.3.3 0 0 1 253.32 328.82L353.51 78.21A.3.3 0 0 1 353.79 78.02L363 78.01A.3.3 0 0 1 363.28 78.2L460.33 328.83A.3.3 0 0 1 460.05 329.24L425.19 329.23A.3.3 0 0 1 424.91 329.03L408.11 283.2A.3.3 0 0 0 407.83 283L305.82 283A.3.3 0 0 0 305.54 283.2zM317.37 251.8A.33.33 0 0 0 317.68 252.25L396.5 252.26A.33.33 0 0 0 396.81 251.81L358.93 150.04A.33.33 0 0 0 358.31 150.03L317.37 251.8zM513.36 109L441.9 109A.41.41 0 0 1 441.49 108.59L441.49 78.41A.41.41 0 0 1 441.9 78L619.1 78A.41.41 0 0 1 619.51 78.41L619.51 108.59A.41.41 0 0 1 619.1 109L547.77 109A.41.41 0 0 0 547.36 109.41L547.36 328.81A.41.41 0 0 1 546.95 329.22L514.18 329.24A.41.41 0 0 1 513.77 328.83L513.77 109.41A.41.41 0 0 0 513.36 109z"/><path fill="#fff" d="M658.78 190.96C662.49 149.05 691.65 114.03 732.97 105.86Q752.57 101.99 771.17 105.96 775.25 106.83 779.96 108.16C792.17 111.6 804.49 118.73 813.34 126.52 835.3 145.83 846.22 173.67 845.77 203.42 845.34 232.07 831.99 260.36 808.83 277.91Q800.2 284.46 789.52 289.23 780.52 293.26 770.9 295.06 748.58 299.23 726.47 293.16C686.84 282.27 660.61 246.71 658.91 206.22 658.7 201.2 658.34 195.93 658.78 190.96zM317.37 251.8L358.31 150.03A.33.33 0 0 1 358.93 150.04L396.81 251.81A.33.33 0 0 1 396.5 252.26L317.68 252.25A.33.33 0 0 1 317.37 251.8z"/><path fill="#158864" d="M292.87 395.38L292.89 428.39A.37.37 0 0 1 292.52 428.76L285.28 428.74A.37.37 0 0 1 284.91 428.37L284.92 395.38A.37.37 0 0 0 284.55 395.01L273.5 394.99A.37.37 0 0 1 273.13 394.62L273.12 387.85A.37.37 0 0 1 273.49 387.48L304.37 387.5A.37.37 0 0 1 304.74 387.87L304.73 394.62A.37.37 0 0 1 304.36 394.99L293.24 395.01A.37.37 0 0 0 292.87 395.38zM397.21 401.23L389.68 428.12Q389.5 428.74 388.86 428.74L382.58 428.74Q381.9 428.74 381.74 428.08L371.9 387.77A.22.22 0 0 1 372.12 387.5L379.92 387.49Q380.12 387.49 380.16 387.68L385.62 414.24Q385.78 415.01 386 414.25L393.81 388.01Q393.96 387.49 394.51 387.49L400.03 387.49Q400.6 387.49 400.76 388.03L408.39 413.82Q408.75 415.03 409.02 413.79L414.6 387.8Q414.66 387.51 414.95 387.51L422.68 387.45Q422.98 387.45 422.91 387.74L413.12 428.04Q412.95 428.74 412.22 428.74L405.71 428.74Q405.16 428.74 405.02 428.2L397.89 401.23Q397.56 400 397.21 401.23zM521.2809 414.3324A14.5 14.5 0 0 1 506.8063 428.8577L504.2463 428.8622A14.5 14.5 0 0 1 489.721 414.3875L489.6991 401.8276A14.5 14.5 0 0 1 504.1737 387.3023L506.7337 387.2978A14.5 14.5 0 0 1 521.259 401.7725L521.2809 414.3324zM512.64 401.84A7.01 7.01 0 0 0 505.63 394.83L504.79 394.83A7.01 7.01 0 0 0 497.78 401.84L497.78 414.44A7.01 7.01 0 0 0 504.79 421.45L505.63 421.45A7.01 7.01 0 0 0 512.64 414.44L512.64 401.84zM695.86 407.23Q695.86 408.05 696.33 407.37L709.79 387.76Q709.94 387.53 710.22 387.52 713.62 387.37 720.17 387.5A.04.04 0 0 1 720.2 387.57Q714.22 395.45 707.59 404.36 707.27 404.8 707.55 405.26L721.77 428.49A.16.15 74.4 0 1 721.64 428.73L712.55 428.75Q712.25 428.75 712.09 428.48L702.56 412.53A.63.63 0 0 0 701.52 412.47L696.2 419.52Q695.86 419.97 695.86 420.53L695.89 428.56Q695.9 428.76 695.69 428.76L688.22 428.73Q687.92 428.73 687.92 428.43L687.92 387.8Q687.92 387.51 688.2 387.51L695.55 387.45A.33.32 89.2 0 1 695.88 387.78L695.86 407.23zM802.78 394.76C800.17 395.15 797.06 398.39 799.11 401Q800.42 402.67 802.51 403.22 807.99 404.65 814.01 406.18 820.82 407.92 821.32 415.03C822.04 425.13 813.96 428.63 805.46 428.82Q796.61 429.02 789.28 424.28 788.48 423.76 788.98 422.96L791.85 418.34Q792.38 417.49 793.2 418.07 797.2 420.89 803.38 421.54C806.8 421.9 814.73 420.84 812.89 415.56Q812.28 413.79 810.37 413.25 806.06 412.02 801.72 411.43C794.03 410.37 789.11 405.58 790.79 397.12Q792.19 390.08 798.69 388.3 809.78 385.26 819.71 391.12 820.39 391.52 820.01 392.22L817.18 397.48Q816.85 398.09 816.27 397.72 809.97 393.7 802.78 394.76zM85.08 400.01L85.09 428.44Q85.09 428.74 84.79 428.74L77.75 428.74Q77.26 428.74 77.26 428.25L77.26 388.24Q77.26 387.49 78.01 387.49L86.76 387.49Q87.31 387.49 87.56 387.98L101.87 416.46Q102.49 417.69 102.49 416.32L102.5 387.75Q102.5 387.5 102.75 387.5L110.03 387.48Q110.32 387.48 110.32 387.77L110.32 428.2Q110.32 428.73 109.8 428.73L100.84 428.75Q100.35 428.75 100.12 428.31L85.6 399.89Q85.08 398.88 85.08 400.01zM185.86 404.49L202.49 404.5A.36.36 0 0 1 202.85 404.86L202.88 411.64A.36.36 0 0 1 202.52 412L185.87 412A.36.36 0 0 0 185.51 412.36L185.51 420.9A.36.36 0 0 0 185.87 421.26L205.87 421.25A.36.36 0 0 1 206.23 421.61L206.24 428.38A.36.36 0 0 1 205.88 428.74L177.62 428.74A.36.36 0 0 1 177.26 428.38L177.27 387.85A.36.36 0 0 1 177.63 387.49L205.87 387.49A.36.36 0 0 1 206.23 387.85L206.23 394.64A.36.36 0 0 1 205.87 395L185.88 395A.36.36 0 0 0 185.52 395.36L185.5 404.13A.36.36 0 0 0 185.86 404.49zM596 412.99L596 428.25Q596 429 595.25 429L588.75 428.99A.75.74 0 0 1 588 428.25L588 388.21A.44.44 0 0 1 588.44 387.77Q597.36 387.87 606.15 387.69 610.16 387.6 612.59 388.86 617.31 391.3 618.36 396.32 620.69 407.46 611.13 411.94A.53.53 0 0 0 610.9 412.69Q615.84 420.75 620.64 428.81A.05.05 0 0 1 620.6 428.88Q612.2 429.24 610.79 428.84 610.69 428.81 610.64 428.72L601.34 412.75Q601.04 412.23 600.45 412.23L596.76 412.23Q596 412.23 596 412.99zM596.3 395.46L596.34 404.42A.41.41 0 0 0 596.76 404.83L606.28 404.78A4.67 4.45 89.7 0 0 610.7 400.08L610.7 399.64A4.67 4.45 89.7 0 0 606.22 395L596.7 395.05A.41.41 0 0 0 596.3 395.46z"/><rect width="14.86" height="26.62" x="497.78" y="394.83" fill="#fff" rx="7.01"/><path fill="#fff" d="M 596.30 395.46 A 0.41 0.41 0.0 0 1 596.70 395.05 L 606.22 395.00 A 4.67 4.45 89.7 0 1 610.70 399.64 L 610.70 400.08 A 4.67 4.45 89.7 0 1 606.28 404.78 L 596.76 404.83 A 0.41 0.41 0.0 0 1 596.34 404.42 L 596.30 395.46 Z"/></svg>