<svg xmlns="http://www.w3.org/2000/svg" role="img" viewBox="-9.78 -9.78 508.56 97.06"><title>Climeworks logo</title><path d="M56.51 37a117.53 117.53 0 0 1-50.17-3.27l-.49 8.85a119.24 119.24 0 0 0 28.09 4.69S41.78 44.2 44.47 43c3.09-1.39 12.04-6 12.04-6zm30.21-8.23A109.87 109.87 0 0 0 116 11.84l3.78 8.46C102.78 33.74 88 41 66.11 45a127.62 127.62 0 0 0 11.73-8.26c3.94-3.26 8.88-7.97 8.88-7.97z"/><path d="M2.47 63.06l-2.47-9C38.71 52.92 76.15 32.21 97.83 0l6.07 6.63C80.61 41.24 44.07 61.83 2.47 63.06z"/><path fill-rule="evenodd" d="M90.13 62.92a34.55 34.55 0 0 0 7-17.94l-7.43 1.43a25.32 25.32 0 0 1-5 10.34c-9.18 11.75-26.5 13.56-38.69 4S31.47 34 40.65 22.28c7.23-9.25 20.3-11.74 31.14-8l4-5.67C61.45 2.45 43.24 5.17 33 18.28a36.25 36.25 0 1 0 57.13 44.64z"/><path d="M129.63 59.92c0-11.69 8.23-17.07 16.93-17.07 7.82 0 11.83 4.35 13.73 7.55l-7.68 5.85-.48-.2c-.27-4.62-2.11-11.22-5.92-11.22-3.2 0-5.1 4.49-5.1 10.47 0 8.36 3.67 14 10.47 14 5 0 7.75-3 9.38-6l.61.27c-.95 5.92-4.83 13.8-14.82 13.8-8.62.02-17.12-5.55-17.12-17.45zM162 76.24c2.86-1.77 3.47-2.52 3.47-7.48V38.71c0-6.59-.82-7-3.4-9.25V29a74.23 74.23 0 0 0 16.05-2.92v42.7c0 5 .68 5.71 3.47 7.48v.48H162zm21.66 0c2.86-1.77 3.47-2.52 3.47-7.48V55.3c0-6.53-.82-7-3.4-9.18v-.54a73.49 73.49 0 0 0 16.05-2.86v26c0 5 .68 5.71 3.47 7.48v.48h-19.58v-.48zm2.85-42.57a6.24 6.24 0 0 1 12.45 0 6.24 6.24 0 0 1-12.45 0zm81.03 42.57v.48h-19.65v-.48c2.79-1.77 3.54-2.52 3.6-7.48.07-4.76.14-9.45.14-14.08 0-4.08-2.31-5.64-4.35-5.64-1.7 0-3.33 1-4.69 3.26a5.35 5.35 0 0 1 .07 1.09v15.37c0 5 .68 5.71 3.47 7.48v.48h-19.58v-.48c3-1.84 3.54-2.79 3.6-7.48.07-3.13.07-12.44.07-14.08 0-4.08-2.24-5.64-4.28-5.64-1.7 0-3.33 1.09-4.69 3.33v16.39c0 5 .68 5.71 3.47 7.48v.48h-19.58v-.48c2.86-1.77 3.47-2.52 3.47-7.48V55.23c0-6.25-.68-7-3.4-9.25v-.48a67.58 67.58 0 0 0 15.84-2.79v7.14c3.06-4.69 7.07-7 11.42-7 2.79 0 8.36 1.09 9.86 7.21 3-4.83 7.07-7.21 11.56-7.21 3.2 0 10.2 1.43 10.2 10.54v15.37c-.02 4.96.59 5.71 3.45 7.48zm32.8-11.83c-1 4.55-3.94 13-15.16 13-9.66 0-17.61-6.19-17.61-17.41 0-10.54 6.93-17.2 17.47-17.2 10.95 0 15.23 7.14 15.23 13.12v1h-21.21v.41c0 9.11 6.05 12 11.56 12a10.21 10.21 0 0 0 9.31-5.1zm-21.22-9.59h9.93c-.14-5-1.22-10.06-5.1-10.06-3.06 0-4.55 3.8-4.83 10.06zM323.36 49a10.77 10.77 0 0 0-3.81-4.76v-.54h19.65v.54c-2 1.16-2.92 2.45-2.92 4a6 6 0 0 0 .54 2.31c2.31 5.44 4.76 11.22 6 14 2.79-6.66 4.69-11.29 5.1-12.31a6.7 6.7 0 0 0 .48-2.38c0-1.9-1-3.13-3.34-5.65v-.54h11.14v.54a23.05 23.05 0 0 0-5.71 8.23l-10.61 24.33h-4.35l-8.43-19.24-8.57 19.24h-4.35l-12.1-27.67a10.77 10.77 0 0 0-3.88-4.83v-.54h19.58v.54c-2 1.22-2.92 2.31-2.92 3.81a6.58 6.58 0 0 0 .54 2.31c.6 1.54 6.05 14.06 6.12 14.21l4.22-9.86M353 60.53c0-11.42 7.48-17.68 18.7-17.68 10.54 0 18.09 5.51 18.09 16.93s-7.41 17.61-18.63 17.61C360.58 77.39 353 72 353 60.53zm23.93 7c0-5.24-1.5-22.71-7.21-22.71-2 0-3.88 2.18-3.88 8 0 5.24 1.5 22.57 7.28 22.57 2.01.03 3.78-2.14 3.78-7.86zm13.65 8.71c2.86-1.77 3.47-2.52 3.47-7.48V54.34c0-5.1-.68-6.25-3.4-8.36v-.48a67.49 67.49 0 0 0 15.84-2.79l-.14 6.66h.14a9.8 9.8 0 0 1 9.66-6.53 6.17 6.17 0 0 1 2.92.61l-1.7 12.85h-.48c-2.31-3.13-5.58-6.53-7.75-6.53a2.82 2.82 0 0 0-2.45 1.7v17.27c0 5 .88 5.71 4.69 7.48v.48h-20.81v-.46zm28.97 0c2.86-1.77 3.47-2.52 3.47-7.48V38.71c0-6.59-.82-7-3.4-9.25V29a74.23 74.23 0 0 0 16.05-2.92v34.66l9.38-8.64c1.36-1.29 2-2.31 2-3.4 0-1.56-1.43-2.79-4.35-4.42v-.54H460v.54c-5.44 3.2-8.91 5.1-12 8.63l-2.72 2.58 9.42 14.21a20.59 20.59 0 0 0 6.46 6.53v.48h-16.11l-8.36-14.55h-1v6.6c0 5 .68 5.71 3.47 7.48v.48h-19.6v-.48zm44.35-.75l-1.29-12.1.48-.14c3.94 6.25 9 12.51 13.26 12.51a3.37 3.37 0 0 0 3.6-3.4c0-2.92-3-4.69-7.75-7.34-4.28-2.38-9.86-5.58-9.86-12.17s5.37-10 12.31-10a52.75 52.75 0 0 1 11.42 1.77L487.16 56l-.48.14c-3.26-5-8.36-11.35-12.31-11.35a3 3 0 0 0-3.13 3.13c0 3.26 3.67 4.9 8.16 7.07 5.3 2.52 9.86 6.12 9.86 12.24s-4.49 10.4-12.78 10.4a51.83 51.83 0 0 1-12.58-2.14z"/></svg>