<svg xmlns="http://www.w3.org/2000/svg" role="img" viewBox="-2.26 -1.26 117.65 54.40"><title>CoolIT (member) logo</title><path fill="#13122f" d="M0 17.63L0 12.37Q4.69-2.18 20.71 1.99 21.33 2.15 21.16 2.76L20.14 6.46Q19.95 7.15 19.28 6.91C14.77 5.29 9.9 5.61 7.43 10 4.76 14.77 6.44 22.2 12.15 23.52Q15.34 24.25 19.52 23.13 20.02 22.99 20.12 23.5L20.89 27.37Q21 27.95 20.43 28.11C11.18 30.73 2.19 28.23 0 17.63zM75.42 19.83C75.4 22.48 76.1 23.33 77.93 25.04A.57.57 0 0 1 77.91 25.88L74.7 28.69Q74.25 29.09 73.74 28.77C70.99 27.07 69.6 24.6 69.64 21.29Q69.78 10.29 69.63 1.39 69.62 1 70.01 1L75.01 1A.43.43 0 0 1 75.44 1.43Q75.48 10.41 75.42 19.83zM84.48 15.86C84.48 13.74 83.98 11.86 82.19 10.6Q81.33 10.01 82.18 9.4 83.67 8.33 84.72 6.9 85.24 6.19 85.99 6.66 90.14 9.26 90.18 13.54 90.27 24.38 90.27 34.45 90.26 34.75 89.96 34.75L84.94 34.75Q84.52 34.75 84.52 34.33 84.48 24.87 84.48 15.86zM106.54 11.59L106.55 34.16A.34.34 0 0 1 106.21 34.5L100.56 34.5A.34.34 0 0 1 100.22 34.16L100.22 11.6A.34.34 0 0 0 99.88 11.26L93.91 11.25A.34.34 0 0 1 93.57 10.91L93.58 6.59A.34.34 0 0 1 93.92 6.25L112.84 6.25A.34.34 0 0 1 113.18 6.59L113.21 10.91A.34.34 0 0 1 112.87 11.25L106.88 11.25A.34.34 0 0 0 106.54 11.59z"/><path fill="#13122f" d="M 27.1216 27.1284 A 10.08 9.92 127.3 0 1 25.3389 13.0986 A 10.08 9.92 127.3 0 1 39.3384 11.0916 A 10.08 9.92 127.3 0 1 41.1211 25.1214 A 10.08 9.92 127.3 0 1 27.1216 27.1284 Z M 33.1608 24.8194 A 5.67 3.77 90.8 0 0 37.0096 19.2026 A 5.67 3.77 90.8 0 0 33.3192 13.4806 A 5.67 3.77 90.8 0 0 29.4704 19.0974 A 5.67 3.77 90.8 0 0 33.1608 24.8194 Z"/><path fill="#13122f" d="M66.44 19.13A10.03 10.03 0 0 1 56.41 29.16 10.03 10.03 0 0 1 46.38 19.13 10.03 10.03 0 0 1 56.41 9.1 10.03 10.03 0 0 1 66.44 19.13zM56.3205 24.6899A5.63 3.7 90.3 0 0 60.0499 19.0794 5.63 3.7 90.3 0 0 56.3795 13.4301 5.63 3.7 90.3 0 0 52.6501 19.0406 5.63 3.7 90.3 0 0 56.3205 24.6899zM73.42 42.83L73.49 46.02Q73.51 46.82 74.3 46.71 75.49 46.56 75.54 47.78A.66.65-9.9 0 1 75.08 48.43Q74.06 48.76 73.05 48.69A1.91 1.9 2.1 0 1 71.28 46.79L71.29 42.6A.74.71 18.2 0 0 70.98 42.01L70.38 41.6Q69.86 41.24 70.25 40.74 70.5 40.41 70.91 40.28 71.33 40.14 71.31 39.69L71.27 38.51Q71.25 38.02 71.74 38.01L72.76 38Q73.55 37.98 73.48 38.77L73.39 39.71Q73.33 40.38 74 40.25 74.77 40.1 75.35 40.53A.72.71-44.7 0 1 75.34 41.67Q74.84 42.04 74.23 42.02 73.4 42 73.42 42.83zM111.44 39.66Q112.04 39.63 112.12 39.06 112.18 38.7 112.46 38.46 113 37.99 112.94 38.7L112.79 40.24Q112.74 40.74 112.23 40.8 110.43 41.01 109.97 39.52 109.83 39.05 109.33 39.09 108.72 39.15 108.25 38.78 107.79 38.42 108.36 38.31 110.34 37.93 111.07 39.44 111.19 39.68 111.44 39.66z"/><path fill="#13122f" d="M79.11 45.27Q78.93 45.27 78.98 45.43 79.27 46.38 80.16 46.78 81.07 47.18 81.95 46.72 83.14 46.09 83.89 47.22 84.09 47.52 83.81 47.74 82.17 49.05 80.21 48.63C73.38 47.2 77.36 37.56 82.23 40.54Q84.35 41.84 84.25 44.63 84.23 45.25 83.61 45.25L79.11 45.27zM81.93 43.1Q81.05 41.24 79.55 42.41 77.88 43.72 80 43.75L81.5 43.77Q82.25 43.78 81.93 43.1zM95.89 42.87Q95.87 41.88 94.87 41.96L94.46 42Q93.27 42.1 93.26 43.29L93.24 48A.5.5 0 0 1 92.75 48.5L91.55 48.53Q91.05 48.54 91.04 48.05L90.91 42.86Q90.89 41.99 90.02 41.96 89.8 41.95 89.58 41.97A1.37 1.36-1.8 0 0 88.31 43.32L88.25 48.11Q88.25 48.48 87.88 48.49L86.52 48.52A.5.5 0 0 1 86.01 48.02L86.04 40.83A.77.77 0 0 1 87.2 40.17Q88.51 40.93 89.79 40.23A1.88 1.83 31.1 0 1 90.69 40.02Q91.39 40.04 91.85 40.56 92.52 41.31 93.4 40.81C95.67 39.52 98.19 40.33 98.16 43.22Q98.13 45.77 98.24 47.97 98.27 48.5 97.75 48.5L96.51 48.51Q96.01 48.51 96 48.01L95.89 42.87zM49.94 42.87L52.54 44.35A2.13 2.13 0 0 1 52.98 47.72Q50.88 49.79 47.65 47.97A.74.73-59.9 0 1 47.38 46.95L47.57 46.63A.98.97 35.2 0 1 49.03 46.38Q49.93 47.12 50.95 46.9 51.99 46.68 51.21 45.96 50.37 45.18 49.17 44.89C46.7 44.28 47.08 40.53 49.55 40.25Q51.27 40.06 52.92 40.58 53.55 40.77 53.4 41.42 53.26 42.01 52.82 42.45A.4.4 0 0 1 52.25 42.44Q51.3 41.44 50.02 41.9 48.93 42.3 49.94 42.87zM58.35 51L55.26 51Q54.6 49.38 56.99 48.82A.55.54-17 0 0 57.38 48.09L54.64 40.93Q54.4 40.29 55.08 40.27L56.06 40.23Q56.72 40.21 56.93 40.83L58.37 44.95Q58.67 45.81 58.95 44.94L60.3 40.76A.75.74-80.8 0 1 61.01 40.24L62.07 40.26Q62.71 40.26 62.47 40.86L58.35 51zM66.93 46.8A.57.57 0 0 0 66.91 45.78L64.25 44.59A1.64 1.62.6 0 1 63.42 43.75C62.77 42.25 63.52 40.4 65.3 40.23Q67.06 40.06 68.42 40.67 69.12 40.98 68.98 41.74L68.93 42.01A.54.54 0 0 1 68.12 42.37Q67.01 41.71 66.59 41.73 63.92 41.87 66.22 43.25C67.54 44.05 69.38 44.3 69.22 46.36A2.58 2.58 0 0 1 66.81 48.74Q65 48.86 63.21 47.91 62.66 47.61 62.92 47.05L63.11 46.66Q63.55 45.74 64.33 46.39 65.61 47.46 66.93 46.8zM102.61 46.86Q105.6 46.85 102.94 45.48 102.13 45.06 101.05 44.58A1.57 1.57 0 0 1 100.17 43.59C99.16 40.26 102.57 39.84 104.88 40.35Q105.74 40.54 105.89 41.41 105.94 41.74 105.77 42 105.29 42.74 104.56 42.25 103.52 41.53 102.37 41.92A.47.47 0 0 0 102.28 42.77L105.28 44.51Q105.76 44.79 105.92 45.31C107.04 48.83 102.4 49.45 100.23 48.03Q99.61 47.62 99.88 46.94L100.05 46.52A.65.65 0 0 1 101.05 46.25Q101.84 46.86 102.61 46.86z"/></svg>