<svg xmlns="http://www.w3.org/2000/svg" role="img" viewBox="-3.60 -3.35 213.20 51.45"><title>CyrusOne logo</title><path fill="#a1a1a4" d="M61.26 21c0-3.67-13.55-6.65-30.27-6.65a116.86 116.86 0 0 0-17.27 1.19c.08-.24.15-.48.24-.71C16.81 7.11 25 1.52 34.63 1.52a24 24 0 0 1 7.84 1.3 24.74 24.74 0 0 0-9.87-2C22.26.79 13.54 7 10.88 15.46c-.12.38-.22.76-.32 1.14a18.15 18.15 0 0 0-.52 4.3 17.9 17.9 0 0 0 .09 1.8c.87.3 1.87.54 2.95.78a17.61 17.61 0 0 1-.19-2.58 17.36 17.36 0 0 1 .5-4.12 107 107 0 0 1 18.69-1.47c15.26 0 27.64 2.5 27.64 5.58s-12.38 5.58-27.64 5.58S4.43 24 4.43 20.9c0-1.07 1.51-2.08 4.12-2.93.08-.45.17-.9.28-1.35v-.12C3.81 17.69.72 19.28.72 21c0 2 3.88 3.73 10.05 4.95 2.52 8.65 11.34 15 21.83 15a24.72 24.72 0 0 0 9.87-2 24 24 0 0 1-7.84 1.3c-9.82 0-18.12-5.81-20.82-13.78A117.18 117.18 0 0 0 31 27.69c16.72 0 30.27-3 30.27-6.65z"/><path fill="#192958" d="M131.55 22.58a6 6 0 0 0 4.53 2c2.12 0 3.88-1.11 3.88-3.34 0-4.53-9.52-1.9-9.52-8.23 0-3.31 2.87-5.25 6-5.25 2.19 0 3.67.9 5.39 2.12l-1.19 1.65a7.23 7.23 0 0 0-4.31-1.69c-2 0-3.77 1-3.77 3.05 0 4.53 9.52 1.54 9.52 8.23 0 3.77-2.91 5.53-6.43 5.53a7.43 7.43 0 0 1-5.65-2.73l1.58-1.33zM155.59 1a13 13 0 0 0-13 12.9 13 13 0 0 0 26.09 0 13 13 0 0 0-13-12.9zm0 2.23a10.75 10.75 0 0 1 10.6 10.67 10.6 10.6 0 1 1-21.2 0 10.75 10.75 0 0 1 10.6-10.67zm46.99 8.72a8.28 8.28 0 0 0-7.12-4.2c-5.39 0-9.42 3.77-9.42 9.24s3.77 9.66 9.34 9.66a10.31 10.31 0 0 0 6.68-2.55v-2.52c-1.94 1.62-4.2 3-6.83 3a7.36 7.36 0 0 1-6.4-4.2l13.73-8.41zm-14.3 6.54a6.74 6.74 0 0 1-.14-1.47 7.09 7.09 0 0 1 7.33-7.19 5.23 5.23 0 0 1 3.85 1.58l-11 7.08zM78.22 24.56a10.75 10.75 0 0 1-10.6-10.67 10.75 10.75 0 0 1 10.6-10.68 10.51 10.51 0 0 1 7.25 3v-3a13 13 0 0 0-20.3 10.7 13 13 0 0 0 20.3 10.69v-3a10.52 10.52 0 0 1-7.25 3zm48.27-8.26c0 7.26-2.16 8.48-5.54 8.48-3.09 0-4.38-1.83-4.38-5.07V7.77h-2.08V20c0 4.1 1.72 6.68 6.29 6.68a6.14 6.14 0 0 0 5.64-3.13h.07v3.19h2.08V7.77h-2.08v8.53zm46.02-5.57h-.07v-3h-2.09v18.98h2.09V14.53c0-3.49 3.38-4.92 5.35-4.92 2.87 0 4.56 1.4 4.56 4v13.1h2.09V14.1c0-4.63-2.78-6.14-6-6.34h-1.23a6.39 6.39 0 0 0-4.73 3zm-60.02-2.96c-2.86.15-4.68 1.17-5.87 4h-.07v-4h-2.08v18.94h2.08v-9.55c0-4.53 2.77-7.33 5-7.33h1.72V7.74h-.82zm36.16 37.39h1.23-1.23zM95.01 20.89L87.83 7.77h-2.35l8.35 15.32-4.29 8.96h2.22l11.77-24.28h-2.2l-6.32 13.12zm110.52 4.4a1.42 1.42 0 1 1-1.42-1.43 1.41 1.41 0 0 1 1.42 1.43zm.14 0a1.57 1.57 0 1 0-1.57 1.56 1.55 1.55 0 0 0 1.57-1.56zm-2.23-1v2h.35v-.92h.12c.25 0 .39 0 .44.31v.3a.81.81 0 0 0 .08.27h.4a1.54 1.54 0 0 1-.15-.58.44.44 0 0 0-.29-.41.47.47 0 0 0 .41-.47.48.48 0 0 0-.32-.46 1.37 1.37 0 0 0-.46 0h-.64zm.36.27h.2a.92.92 0 0 1 .35 0 .26.26 0 0 1 .14.23.33.33 0 0 1-.42.28h-.29v-.52zM67.87 41.21a5 5 0 0 0 .76 0c.94 0 1.8-.34 1.8-1.36s-.82-1.35-1.81-1.35h-.75v2.68zm0-3.35h.82a1.3 1.3 0 0 0 1.51-1.19c0-.81-.61-1.15-1.53-1.15a3.87 3.87 0 0 0-.8.06v2.27zM67 35a8 8 0 0 1 1.66-.16 2.85 2.85 0 0 1 1.92.51 1.48 1.48 0 0 1 .59 1.24 1.66 1.66 0 0 1-1.19 1.54 1.79 1.79 0 0 1 1.45 1.75 1.86 1.86 0 0 1-.6 1.41 3.48 3.48 0 0 1-2.42.66 10.79 10.79 0 0 1-1.41-.07V35zm9.81 5.52v1.37H76v-.82a1.88 1.88 0 0 1-1.7.93c-.79 0-1.74-.45-1.74-2.21v-2.94h.92v2.78c0 1 .3 1.61 1.12 1.61a1.32 1.32 0 0 0 1.21-.84 1.26 1.26 0 0 0 .08-.47v-3.08h.92v3.67zm1.52 1.38v-5h.92v5h-.92zm.44-6a.59.59 0 0 1 0-1.18.56.56 0 0 1 .58.58.57.57 0 0 1-.59.59zm1.99-1.4h.92v7.4h-.92v-7.4zm3.55 1.15v1.21h1.31v.7h-1.31v2.72c0 .63.18 1 .69 1a1.71 1.71 0 0 0 .53-.06v.7a2.48 2.48 0 0 1-.81.13 1.31 1.31 0 0 1-1-.39 2 2 0 0 1-.35-1.32v-2.79h-.74v-.7h.78v-.92l.9-.28zm4.63 6.25v-4.35h-.7v-.7h.7v-.24a2.38 2.38 0 0 1 .59-1.76 1.75 1.75 0 0 1 1.22-.47 2.07 2.07 0 0 1 .78.15l-.11.71a1.41 1.41 0 0 0-.59-.11c-.77 0-1 .69-1 1.46v.27h1.22v.7h-1.19v4.34h-.92zm4.92-.58a1.74 1.74 0 0 0 1.53-2 1.57 1.57 0 1 0-3.05 0 1.71 1.71 0 0 0 1.51 1.94zm0 .69a2.4 2.4 0 0 1-2.42-2.59 2.47 2.47 0 0 1 2.5-2.68 2.38 2.38 0 0 1 2.43 2.58A2.47 2.47 0 0 1 93.84 42zm3.64-3.58v-1.57h.8v1a1.53 1.53 0 0 1 1.41-1.1 1 1 0 0 1 .25 0v.85h-.32a1.28 1.28 0 0 0-1.23 1.17 2.89 2.89 0 0 0 0 .44v2.68h-.92v-3.47zm6.55-2.78h-2.14v-.77h5.2v.77h-2.15v6.25h-.91v-6.25zm5.23 5.67a1.74 1.74 0 0 0 1.53-2 1.57 1.57 0 1 0-3.05 0 1.71 1.71 0 0 0 1.51 1.94zm0 .69a2.4 2.4 0 0 1-2.42-2.59 2.47 2.47 0 0 1 2.5-2.68 2.38 2.38 0 0 1 2.43 2.58 2.47 2.47 0 0 1-2.5 2.69zm3.63-3.79v-1.36h.8v.81a1.74 1.74 0 0 1 1.59-.93 1.49 1.49 0 0 1 1.42 1 2 2 0 0 1 .57-.66 1.69 1.69 0 0 1 1.1-.35c.68 0 1.67.44 1.67 2.19v3h-.9V39c0-1-.36-1.55-1.09-1.55a1.21 1.21 0 0 0-1.09.82 1.61 1.61 0 0 0-.07.46v3.17h-.9v-3a1.15 1.15 0 0 0-1.01-1.41 1.37 1.37 0 0 0-1.21 1.36v3h-.9v-3.63zm10.77 3.1a1.74 1.74 0 0 0 1.53-2 1.57 1.57 0 1 0-3.05 0 1.71 1.71 0 0 0 1.51 1.94zm0 .69a2.4 2.4 0 0 1-2.42-2.59 2.47 2.47 0 0 1 2.5-2.68 2.38 2.38 0 0 1 2.43 2.58 2.47 2.47 0 0 1-2.5 2.69zm3.65-3.58v-1.57h.8v1a1.52 1.52 0 0 1 1.41-1.1 1 1 0 0 1 .25 0v.85h-.32a1.28 1.28 0 0 0-1.23 1.17 2.9 2.9 0 0 0 0 .44v2.68h-.92v-3.47zm3.45 0v-1.57h.8v1a1.52 1.52 0 0 1 1.41-1.1 1 1 0 0 1 .25 0v.85h-.32a1.28 1.28 0 0 0-1.23 1.17 2.9 2.9 0 0 0 0 .44v2.68h-.92v-3.47zm5.41 2.89a1.74 1.74 0 0 0 1.53-2 1.57 1.57 0 1 0-3.05 0 1.71 1.71 0 0 0 1.51 1.94zm0 .69a2.4 2.4 0 0 1-2.42-2.59 2.47 2.47 0 0 1 2.5-2.68 2.38 2.38 0 0 1 2.43 2.58 2.47 2.47 0 0 1-2.5 2.69zm3.93-5.16l.68 2.55c.14.56.27 1.09.37 1.62.12-.51.28-1.05.45-1.6l.82-2.56h.77l.79 2.51c.19.59.33 1.14.45 1.65a14.91 14.91 0 0 1 .38-1.64l.72-2.53h.91l-1.62 5h-.83l-.77-2.41c-.18-.57-.32-1.07-.45-1.67a15.05 15.05 0 0 1-.46 1.68l-.81 2.4h-.83l-1.52-5h.94zM147.4 42a.61.61 0 0 1-.6-.66.62.62 0 0 1 .62-.66.61.61 0 0 1 .62.66.62.62 0 0 1-.62.66zm4.15-3.83h.93a1.38 1.38 0 0 0 1.58-1.33c0-.91-.66-1.3-1.61-1.3a3.8 3.8 0 0 0-.9.08v2.55zm-.91-3.17a9.41 9.41 0 0 1 1.74-.16 2.9 2.9 0 0 1 2 .58 1.76 1.76 0 0 1 .55 1.33 1.85 1.85 0 0 1-1.32 1.78 1.79 1.79 0 0 1 1 1.42 12.77 12.77 0 0 0 .53 1.93h-.94a8.58 8.58 0 0 1-.46-1.68 1.37 1.37 0 0 0-1.42-1.36h-.85v3h-.91V35zm8.81 3.87a1.31 1.31 0 0 0-1.26-1.49 1.51 1.51 0 0 0-1.41 1.49h2.67zm-2.68.66a1.61 1.61 0 0 0 1.72 1.75 3.47 3.47 0 0 0 1.4-.25l.17.65a4.12 4.12 0 0 1-1.69.32 2.35 2.35 0 0 1-2.48-2.54 2.46 2.46 0 0 1 2.37-2.73 2.13 2.13 0 0 1 2.07 2.38 2.32 2.32 0 0 1 0 .44h-3.53zm7.35-.21c-1 0-2.14.16-2.14 1.14a.8.8 0 0 0 .85.87 1.27 1.27 0 0 0 1.24-.84 1 1 0 0 0 0-.29v-.88zm.9 1.37a8.41 8.41 0 0 0 .07 1.21h-.82l-.08-.64a1.86 1.86 0 0 1-1.54.75 1.44 1.44 0 0 1-1.54-1.45c0-1.22 1.08-1.89 3-1.87v-.1a1 1 0 0 0-1.11-1.17 2.42 2.42 0 0 0-1.32.38l-.21-.62a3.27 3.27 0 0 1 1.67-.44A1.79 1.79 0 0 1 165 38.8v1.89zm4.91-1.78a1.71 1.71 0 0 0 0-.4 1.35 1.35 0 0 0-1.32-1.05 1.67 1.67 0 0 0-1.51 1.94 1.62 1.62 0 0 0 1.49 1.88 1.39 1.39 0 0 0 1.34-1.09 1.6 1.6 0 0 0 0-.4v-.88zm.92-4.41v7.39h-.82v-.87a1.85 1.85 0 0 1-1.71 1 2.31 2.31 0 0 1-2.17-2.56 2.41 2.41 0 0 1 2.26-2.71 1.67 1.67 0 0 1 1.52.76v-3h.92zm1.84 2.35l1.09 3c.13.33.25.73.33 1 .09-.3.2-.69.32-1.05l1-3h1l-1.37 3.59a7.82 7.82 0 0 1-1.73 3.17 2.6 2.6 0 0 1-1.12.58l-.21-.71a2.11 2.11 0 0 0 .8-.45 2.91 2.91 0 0 0 .77-1 .59.59 0 0 0 .07-.22.55.55 0 0 0-.07-.23l-1.85-4.66h1zm7.72-1.2h-2.14v-.77h5.2v.77h-2.15v6.25h-.91v-6.25zm5.22 5.67a1.74 1.74 0 0 0 1.53-2 1.57 1.57 0 1 0-3.05 0 1.71 1.71 0 0 0 1.51 1.94zm0 .69a2.4 2.4 0 0 1-2.42-2.59 2.47 2.47 0 0 1 2.5-2.68 2.38 2.38 0 0 1 2.43 2.58 2.47 2.47 0 0 1-2.5 2.69zm7.09-3.1a1.68 1.68 0 0 0 0-.4 1.35 1.35 0 0 0-1.32-1.05 1.67 1.67 0 0 0-1.51 1.94 1.62 1.62 0 0 0 1.49 1.88 1.39 1.39 0 0 0 1.34-1.09 1.57 1.57 0 0 0 0-.4v-.88zm.92-4.41v7.39h-.82v-.87a1.85 1.85 0 0 1-1.71 1 2.31 2.31 0 0 1-2.17-2.56 2.41 2.41 0 0 1 2.26-2.71 1.67 1.67 0 0 1 1.52.76v-3h.92zm4.17 4.82c-1 0-2.14.16-2.14 1.14a.8.8 0 0 0 .85.87 1.27 1.27 0 0 0 1.24-.84 1 1 0 0 0 0-.29v-.88zm.9 1.37a8.41 8.41 0 0 0 .07 1.21H198l-.08-.64a1.86 1.86 0 0 1-1.54.75 1.44 1.44 0 0 1-1.54-1.45c0-1.22 1.08-1.89 3-1.87v-.1a1 1 0 0 0-1.15-1.17 2.42 2.42 0 0 0-1.32.38l-.21-.62a3.27 3.27 0 0 1 1.67-.44 1.79 1.79 0 0 1 1.93 2.06v1.89zm1.69-3.84l1.09 3c.13.33.25.73.33 1 .09-.3.2-.69.32-1.05l1-3h1l-1.37 3.59a7.81 7.81 0 0 1-1.77 3.22 2.6 2.6 0 0 1-1.12.58l-.23-.77a2.11 2.11 0 0 0 .8-.45 2.9 2.9 0 0 0 .77-1 .59.59 0 0 0 .07-.22.55.55 0 0 0-.07-.23l-1.85-4.66h1zm4.45 5.15a.61.61 0 0 1-.6-.66.62.62 0 0 1 .63-.66.61.61 0 0 1 .61.66.62.62 0 0 1-.62.66z"/></svg>