<svg xmlns="http://www.w3.org/2000/svg" role="img" viewBox="-24.32 -25.32 1264.64 253.64"><title>Cyxtera logo</title><g fill="none" stroke-width="2"><path stroke="#b51985" d="M58 0l.3.49a.19.19 0 0 0 .32.02q.12-.17.28-.1 1.22.49 1.22.59 0 68.31-.01 136.62c0 3.47-.54 9.9.02 14.85q.06.5-.08.99-.23.77.15 1.5.2.4.65.39.25 0 .46.14.39.27-.07.38-1.91.45-3.81.18-.06-.01-.06.05v.02q0 .02.02.02.66-.1.65.35" vector-effect="non-scaling-stroke"/><path stroke="#a31587" d="M159.99 0q1.29.71 3.03.33a.73.72-6.2 0 1 .88.7q-.01 35.54-.05 70.02 0 .69.15 1.35.1.44-.35.41-1.34-.08-2.2.43m-18.36 9.77q.75.49-1.5 1.21-.47.15-.47.64-.01 28.4.01 56.59c0 2.21-.56 4.27-.05 6.49q.18.79-.09 1.65-.18.56-.04 1.14.43 1.75-.07 3.46a.34.32 35.8 0 0 .06.3q.48.62 1.17.91.98.41-.08.47-.29.02-.56-.04-.05-.01-.09 0-.04.01-.05.06-.01.05.05.04 1.93-.37 1.9.56" vector-effect="non-scaling-stroke"/><path stroke="#901188" d="M234.96 0l4.18 1.33q.18.05.3-.08.1-.12.23-.16.56-.16.39.4-.13.43-.13.86-.06 32.87-.05 69.05 0 .4.08.78.09.41-.29.59l-.97.47" vector-effect="non-scaling-stroke"/><path stroke="#730c8b" d="M360.75 0l-.21.38q-.22.37.21.42l2.99.35q.32.03.32.35l-.37 71.73" vector-effect="non-scaling-stroke"/><path stroke="#901188" d="M252.06 83.03q-1.95.62-2.8 1.3-.39.33-.39.84.02 29.07.01 58.14c0 .94-.43 1.72-.23 2.67.5 2.28.23 5.09.23 7.39q0 .53.46.82.38.24.03.52l-2.24 1.77" vector-effect="non-scaling-stroke"/><path stroke="#730c8b" d="M360.98 83.02q1.76.82-.81.71a1.22 1.22 0 0 0-1.27 1.22v69.45q0 1.01-1.01 1.01-4.09.02-1.62 1.07" vector-effect="non-scaling-stroke"/></g><path fill="#be1a84" d="M2.37 0H58l.3.49a.19.19 0 0 0 .32.02q.12-.17.28-.1 1.22.49 1.22.59 0 68.31-.01 136.62c0 3.47-.54 9.9.02 14.85q.06.5-.08.99-.23.77.15 1.5.2.4.65.39.25 0 .46.14.39.27-.07.38-1.91.45-3.81.18-.06-.01-.06.05v.02q0 .02.02.02.66-.1.65.35L0 156.48V2.24Q-.17-.08 2.37 0z"/><path fill="#ab1786" d="M58 0h101.99q1.29.71 3.03.33a.73.72-6.2 0 1 .88.7q-.01 35.54-.05 70.02 0 .69.15 1.35.1.44-.35.41-1.34-.08-2.2.43l-84.2.01q-.24 0-.24.24L77 82.75q0 .25.25.25l65.84.01q.75.49-1.5 1.21-.47.15-.47.64-.01 28.4.01 56.59c0 2.21-.56 4.27-.05 6.49q.18.79-.09 1.65-.18.56-.04 1.14.43 1.75-.07 3.46a.34.32 35.8 0 0 .06.3q.48.62 1.17.91.98.41-.08.47-.29.02-.56-.04-.05-.01-.09 0-.04.01-.05.06-.01.05.05.04 1.93-.37 1.9.56H58.04q.01-.45-.65-.35-.02 0-.02-.02v-.02q0-.06.06-.05 1.9.27 3.81-.18.46-.11.07-.38-.21-.14-.46-.14-.45.01-.65-.39-.38-.73-.15-1.5.14-.49.08-.99c-.56-4.95-.02-11.38-.02-14.85q.01-68.31.01-136.62 0-.1-1.22-.59-.16-.07-.28.1a.19.19 0 0 1-.32-.02L58 0z"/><path fill="#9a1387" d="M159.99 0h74.97l4.18 1.33q.18.05.3-.08.1-.12.23-.16.56-.16.39.4-.13.43-.13.86-.06 32.87-.05 69.05 0 .4.08.78.09.41-.29.59l-.97.47h-77.25q.86-.51 2.2-.43.45.03.35-.41-.15-.66-.15-1.35.04-34.48.05-70.02a.73.72-6.2 0 0-.88-.7q-1.74.38-3.03-.33z"/><path fill="#850f89" d="M234.96 0h125.79l-.21.38q-.22.37.21.42l2.99.35q.32.03.32.35l-.37 71.73-124.99.01.97-.47q.38-.18.29-.59-.08-.38-.08-.78-.01-36.18.05-69.05 0-.43.13-.86.17-.56-.39-.4-.13.04-.23.16-.12.13-.3.08L234.96 0z"/><path fill="#60088c" d="M360.75 0h113.99l-.04 72.7q0 .5-.5.5l-110.51.03.37-71.73q0-.32-.32-.35L360.75.8q-.43-.05-.21-.42l.21-.38z"/><path d="M580.59 0h6.72q28.52 1.82 49.45 21.63.57.55-.02 1.08l-23.1 20.94q-.42.38-.82-.01c-25.89-25.28-62.18-9.58-70.89 22.23q-5.74 20.96 5.36 40.03c8.7 14.96 25.34 24.53 42.91 21.66 9.17-1.5 18.76-6.72 24.81-14.46q.35-.44.8-.11l25.61 18.87a.44.44 0 0 1 .07.64q-15.01 17.11-35.86 23.43c-21.38 6.48-45.44 2.79-63.87-8.88-25.46-16.13-38.21-43.33-36.37-73.24 1.1-17.96 7.83-34.97 19.99-48.24Q546.9 2.09 580.59 0z"/><path d="M833.5 58a.19.19 0 0 0-.35-.11l-30.72 44.41q-.27.4.01.78l38.87 53.11q.41.56-.29.56h-35.04q-.62 0-.96-.51l-22.04-32.73q-.37-.55-.76-.01l-23.67 32.83a1.03 1.03 0 0 1-.83.42h-34.49a.38.38 0 0 1-.31-.61l39.69-53.1a.6.59 46 0 0 .01-.69l-31.73-44.73a.35.35 0 0 0-.63.16q-.02.14-.02.33 0 .17-.07.34-22.26 57.76-44.48 115.55c-4.1 10.66-8.49 22.28-19.85 27.2q-4.33 1.88-10.65 2.73-16.33 2.19-32.5-2.77-.53-.16-.44-.7l3.9-24.23q.1-.64.69-.39 7.55 3.22 15.57 2.85c7.97-.37 12.65-3.48 15.66-10.93q2.42-5.99 4.29-11.32.12-.35-.02-.69l-42.46-98.71q-.23-.54.36-.54h31.97q.43 0 .59.4l24.81 64.44q.31.8.58-.02l21.23-64.4a.61.61 0 0 1 .58-.42l65.65-.01q.52 0 .8.43l16.72 25.95a.28.28 0 0 0 .48 0l16.12-25.92q.28-.45.81-.45h51.92a.25.25 0 0 0 .25-.25V27.5a.25.25 0 0 1 .25-.25h30a.25.25 0 0 1 .25.25v28.49a.5.49 90 0 0 .49.5l25.51.01a.5.5 0 0 1 .5.5v23.75a.5.5 0 0 1-.5.5h-25.51q-.46 0-.46.46-.11 17.89.04 36.28c.05 7.32 2.6 13.33 10.53 14.27q9.03 1.08 15.34-2.17.56-.29.56.35v24.34a1.01 1 82.5 0 1-.74.97q-15.25 4.26-30.89 1.77c-11.49-1.83-20.9-7.85-24.22-19.56q-1.26-4.45-1.21-12.68.15-21.71.03-43.61a.42.42 0 0 0-.42-.42h-18.55a.25.25 0 0 1-.25-.25V58zm349.25-14.89v20.78a.36.36 0 0 1-.36.36h-2.78a.36.36 0 0 1-.36-.36V43.11a.36.36 0 0 0-.36-.36l-7.51.01a.36.36 0 0 1-.36-.36l-.02-2.54a.36.36 0 0 1 .36-.36h19.03a.36.36 0 0 1 .36.36v2.53a.36.36 0 0 1-.36.36h-7.28a.36.36 0 0 0-.36.36zm34.25-3.55v24.72l-2.89-.08q-.61-.01-.61-.63V46.42q0-1.79-.56-.09l-5.77 17.3a.94.93-80.1 0 1-.9.64l-2.13-.03q-.59 0-.78-.56l-5.92-17.43q-.79-2.31-.66.13.42 8.11.16 17.66-.01.22-.23.22l-2.96-.02q-.25 0-.25-.24V40.13q0-.63.62-.63h3.57q.74 0 .98.7l6.3 18.59q.33.96.65 0l6.21-18.68a.94.93-79.9 0 1 .91-.64l4.26.09zM940.53 116.4c2.38 10.67 10.42 17.56 21.13 18.28 9.85.67 17.02-4.2 22.79-11.74a.49.49 0 0 1 .68-.1l20.54 15.24a.74.73 38.1 0 1 .13 1.05c-15.29 18.77-41.42 23.88-63.65 14.68-19.59-8.1-31.07-25.79-31.33-46.92q-.29-24.88 17.74-40.66c10.95-9.58 24.54-13.16 38.91-12.45 25.37 1.26 40.89 19.98 42.93 44.31q.64 7.62.28 17.08-.03.58-.61.58h-69.01q-.67 0-.53.65zm.36-21.51l40.98-.28a.14.14 0 0 0 .13-.14v-.06a20.37 18.78-.4 0 0-20.5-18.64h-.52a20.37 18.78-.4 0 0-20.23 18.92v.06a.14.14 0 0 0 .14.14zm207.1 50.09q0-1.04-.56-.16-4.94 7.68-13.67 10.83c-19.55 7.06-48.66 1.05-51.36-24-3.28-30.41 25.51-37.05 48.75-37.76q8.06-.24 16.15-.42.78-.02.69-.79c-1.42-12.25-11.82-17.82-23.3-16.24-6.42.88-12.2 3.73-17.01 8.11a1 .99-48 0 1-1.25.07l-17.9-12.91q-.86-.62-.06-1.32 23.22-20.25 54.01-15.94c28.87 4.05 33.57 27.88 33.53 52.08q-.05 25.11 0 49.92a.3.3 0 0 1-.3.3h-27.21q-.49 0-.49-.5l-.02-11.27zm-28.95-28.25c-6.35 2.54-10.5 9.29-6.61 15.66 3.83 6.25 13.78 6.7 20.28 4.84 11.18-3.19 14.96-12.17 15.32-23.1q.02-.65-.63-.65c-9.85.04-19.22-.41-28.36 3.25zm-71.79-43.88c4.91-9.09 12.17-16.03 22.77-17.43q7.51-.98 14.85.52.63.13.63.78V83.8q0 .54-.51.38c-12.32-3.75-30.35-3.42-35.59 10.69q-2.43 6.54-2.52 15.46-.24 22.84-.11 45.87 0 .55-.55.55h-29.47q-.5 0-.5-.5V57q0-.51.5-.51l29.75.01q.25 0 .25.25v15.97q0 1.05.5.13z"/><path fill="#9a1387" d="M143.09 83.01l108.97.02q-1.95.62-2.8 1.3-.39.33-.39.84.02 29.07.01 58.14c0 .94-.43 1.72-.23 2.67.5 2.28.23 5.09.23 7.39q0 .53.46.82.38.24.03.52l-2.24 1.77-103.85.01q.03-.93-1.9-.56-.06.01-.05-.04.01-.05.05-.06.04-.01.09 0 .27.06.56.04 1.06-.06.08-.47-.69-.29-1.17-.91a.34.32 35.8 0 1-.06-.3q.5-1.71.07-3.46-.14-.58.04-1.14.27-.86.09-1.65c-.51-2.22.05-4.28.05-6.49q-.02-28.19-.01-56.59 0-.49.47-.64 2.25-.72 1.5-1.21z"/><path fill="#850f89" d="M252.06 83.03l108.92-.01q1.76.82-.81.71a1.22 1.22 0 0 0-1.27 1.22v69.45q0 1.01-1.01 1.01-4.09.02-1.62 1.07H247.13l2.24-1.77q.35-.28-.03-.52-.46-.29-.46-.82c0-2.3.27-5.11-.23-7.39-.2-.95.23-1.73.23-2.67q.01-29.07-.01-58.14 0-.51.39-.84.85-.68 2.8-1.3z"/><path fill="#60088c" d="M360.98 83.02l113.51.01q.26 0 .26.26v72.92q0 .26-.26.26l-118.22.01q-2.47-1.05 1.62-1.07 1.01 0 1.01-1.01V84.95a1.22 1.22 0 0 1 1.27-1.22q2.57.11.81-.71z"/></svg>