<svg xmlns="http://www.w3.org/2000/svg" role="img" viewBox="-4.95 -4.95 309.66 74.41"><title>Daikin logo</title><g transform="translate(-393.364 -761.77)"><path fill="#44c8f5" fill-opacity="1" fill-rule="nonzero" stroke="none" d="M462.236 762.77h-67.87008v62.61669L462.236 762.77"/><path fill="#231f20" fill-opacity="1" fill-rule="nonzero" stroke="none" d="M428.295 762.77h-33.9305v31.32284L428.295 762.77"/><path fill="#00a0e4" fill-opacity="1" fill-rule="nonzero" stroke="none" d="M557.01 776.361l-8.85955 35.4219h15.65326l8.8523-35.4219H557.01"/><path fill="#00a0e4" fill-opacity="1" fill-rule="nonzero" stroke="none" d="M521.26 796.891h-3.58985l5.78798-10.21866 1.87737 10.21866H521.26zm-2.22712-20.53336l-20.13106 35.42009h10.35275l3.34159-5.90395h14.37208l1.07098 5.90395h15.27996l-6.49471-35.42009h-17.79159"/><path fill="#00a0e4" fill-opacity="1" fill-rule="nonzero" stroke="none" d="M628.495 776.361l-8.836 35.4219h15.64965l8.8378-35.4219H628.495"/><path fill="#00a0e4" fill-opacity="1" fill-rule="nonzero" stroke="none" d="M621.5 776.361h-16.03925l-13.42615 11.58682 2.93023-11.58682h-15.0027l-8.836 35.4219h14.9556l3.05526-12.22832 7.99698 12.22832h18.10327l-13.40802-18.55088L621.5 776.361"/><path fill="#00a0e4" fill-opacity="1" fill-rule="nonzero" stroke="none" d="M486.619 792.459s-1.01661 11.50528-10.82029 11.50528h-5.54696l4.88553-19.1054h5.03413c1.80126.01088 7.01479.47841 6.44759 7.60012zm-.79372-16.08093l-4.04832-.01269h-19.5856l-8.836 35.4074h19.44788l7.69435.01088c10.83297 0 21.4938-8.06402 21.4938-20.41557 0-14.53336-16.1661-14.99002-16.1661-14.99002"/><path fill="#00a0e4" fill-opacity="1" fill-rule="nonzero" stroke="none" d="M681.53 776.356l-5.22078 20.85773-6.95499-20.85773h-17.40742l-8.84324 35.42734h10.82391l5.27152-21.04076 6.97674 21.04076h17.33312l8.85593-35.42734H681.53"/></g></svg>