<svg xmlns="http://www.w3.org/2000/svg" role="img" viewBox="-2.00 -2.50 129.87 35.99"><title>DEEPX logo</title><path fill="#0066b3" d="M.62 0h13.61q9.35 1.29 12.55 8.61c3.26 7.46.94 17.18-6.66 20.81-5.43 2.59-12.77 1.41-18.82 1.64q-.67.02-.67-.65L.62 0zm3.85 4.23l.04 22.76a.25.25 0 0 0 .25.25l7.61-.02a11.4 11.24-.1 0 0 11.38-11.26v-.78A11.4 11.24-.1 0 0 12.33 3.96l-7.61.02a.25.25 0 0 0-.25.25zM31.28 0h17.76l-.06 3.51q-.01.49-.5.49H35.75q-.25 0-.25.26v8.99q0 .25.25.25h12.63q.39 0 .39.39l.01 3.07q0 .38-.37.38l-12.58.01q-.33 0-.33.33V27a.25.25 0 0 0 .25.25h13.49q.24 0 .24.24l.03 3q0 .51-.5.51H31.95q-.64 0-.64-.64L31.28 0zm20.94 0h17.76l-.02 3.5q0 .5-.5.5H56.71q-.29 0-.29.29l.03 8.93a.28.28 0 0 0 .28.28h12.46a.44.44 0 0 1 .44.44l-.04 3.07q-.01.34-.35.34l-12.43-.02q-.36 0-.36.36l-.01 9.28q0 .28.28.28h13.29a.26.26 0 0 1 .26.26l.01 3.22q0 .27-.26.27H52.78q-.53 0-.53-.53L52.22 0zm20.8 0h10.9c5.58.69 9.37 4.82 8.23 10.46-1.43 7.05-8.39 7.28-14.29 6.93q-.67-.05-.66.63v10.72q0 .6.58.47 16.43-3.5 28.78-13.62a.43.43 0 0 0 .06-.6L94.26 0h5.76l9.65 11.6q.33.38.68.02 4.94-4.99 7.6-11.62h7.44q-.11 1.34-.5 2.12-4.06 8.11-10.81 14.01a.59.58 49.7 0 0-.06.81l11.06 13.31q.62.75-.36.75h-3.99q-.83 0-1.36-.64l-8.91-10.75a.4.39 52 0 0-.54-.07c-9.76 7.1-23.89 12.26-36.38 11.42q-.5-.03-.5-.54L73.02 0zm4.19 4.24l-.06 9.02a.38.38 0 0 0 .38.39l4.97.03a5.29 4.51.4 0 0 5.32-4.47v-.76a5.29 4.51.4 0 0-5.26-4.55l-4.97-.03a.38.38 0 0 0-.38.37z"/></svg>