<svg xmlns="http://www.w3.org/2000/svg" role="img" viewBox="-2.07 -2.32 133.51 92.76"><title>Delta Cooling Towers logo</title><path d="M101.87 49.94l-4.05.6m-64.88-.01l-4.08-.65" vector-effect="non-scaling-stroke" fill="none" stroke="#671f44" stroke-width="2"/><path fill="#cc1115" d="M101.87 49.94l-4.05.6L66.49 7.2a.62.62 0 0 0-.99-.01L32.94 50.53l-4.08-.65L65.83.41a.21.21 0 0 1 .34 0l35.7 49.53z"/><path fill="#cc1115" d="M69.06 20.7q5.57 12.29 10.38 24.88.21.52-.35.63l-.31.07a.41.41 0 0 1-.45-.24l-9.18-22.49q-2.18-5.35-1.28.36 1.57 9.9 3.08 21.41a.72.71-11.7 0 1-.52.78l-.24.07q-.47.13-.53-.36l-3.19-24.32a.37.36-27.2 0 0-.63-.2q-.39.42-.46 1.01-1.43 12.3-3.1 23.04-.09.61-.69.75l-.26.06q-.52.12-.44-.41l3.49-23.93a.31.31 0 0 0-.44-.33q-.39.19-.54.57-4.82 12.14-9.72 23.78-.2.47-.71.4l-.35-.05a.32.31-75.6 0 1-.25-.43q4.69-11.54 9.66-23.38c.37-.88.91-1.55 1.46-2.31q.49-.66-.28-.36-.56.23-.91.74-8.86 12.66-18.03 25.47a.76.75 25.2 0 1-.8.28l-.26-.08a.34.34 0 0 1-.19-.52q10.33-14.7 21.14-29.69.32-.44.36-.99.03-.39-.2-.71a.81.8 44.7 0 1-.01-.98q.83-1.12.74-2.48a.89.89 0 0 1 1.58-.61q.44.56.37 1.28a1.78 1.78 0 0 0 .49 1.43q.71.74.14 1.53-.44.61-.01 1.24l20.37 29.82a.41.4-40.1 0 1-.05.51l-.26.26a.49.48 49.5 0 1-.75-.06L69.59 20.55q-.11-.15-.27-.06l-.23.13q-.05.03-.03.08z"/><path fill="#012c73" d="M28.86 49.88l4.08.65-25.49 34q-.36.48.24.48L121.96 85q.83 0 .34-.67L97.82 50.54l4.05-.6L129 87.48V88H.65l-.03-.26q-.01-.13.07-.23l28.17-37.63z"/><path fill="#012c73" d="M35.7 50.89a.51.51 0 0 1 .5-.51l5.05-.03a6.24 5.94 89.7 0 1 5.98 6.21v1.78a6.24 5.94 89.7 0 1-5.9 6.27l-5.05.03a.51.51 0 0 1-.52-.51l-.06-13.24zm3.06 2.72l-.04 7.82a.44.44 0 0 0 .44.44l1.76.01a3.47 3.3-89.7 0 0 3.32-3.46v-1.76a3.47 3.3-89.7 0 0-3.28-3.48l-1.76-.01a.44.44 0 0 0-.44.44z"/><path fill="#012c73" d="M53.95 53.7l.03 1.8a.53.53 0 0 0 .54.53l5.24-.05a.53.53 0 0 1 .54.53l-.01 1.6a.53.53 0 0 1-.53.53l-5.27-.05a.53.53 0 0 0-.53.53l-.03 2.2a.53.53 0 0 0 .54.54l5.91-.03a.53.53 0 0 1 .54.51l.08 1.68a.53.53 0 0 1-.53.56l-8.8.01a.53.53 0 0 1-.53-.53l-.01-13.15a.53.53 0 0 1 .53-.53l8.74.02a.53.53 0 0 1 .53.57l-.14 1.74a.53.53 0 0 1-.53.49l-5.78-.04a.53.53 0 0 0-.53.54zm14.22 8.14l5.3.01a.47.47 0 0 1 .47.46l.05 1.78a.47.47 0 0 1-.47.48l-8.31.04a.47.47 0 0 1-.47-.47l-.01-13.31a.47.47 0 0 1 .49-.47l2.14.09a.47.47 0 0 1 .45.47l-.11 10.45a.47.47 0 0 0 .47.47zm9.62-8.67l-2.94.04a.47.47 0 0 1-.48-.44l-.13-1.87a.47.47 0 0 1 .47-.5l9.88-.02a.47.47 0 0 1 .47.48l-.02 1.88a.47.47 0 0 1-.47.47l-2.99-.03a.47.47 0 0 0-.48.48l.11 10.49a.47.47 0 0 1-.5.48l-2.04-.11a.47.47 0 0 1-.45-.47l.05-10.41a.47.47 0 0 0-.48-.47zm15.83 8.33h-3.27q-.68 0-.89.64l-.64 1.99q-.17.5-.69.49h-1.89q-.63 0-.42-.6l4.51-12.98q.18-.51.71-.59.99-.16 1.96 0a.98.97 84.9 0 1 .77.65l4.41 12.92q.21.61-.43.61h-1.89q-.66 0-.83-.64l-.44-1.74q-.2-.75-.97-.75zm-3.03-3.01a.42.42 0 0 0 .41.53h2.02a.42.42 0 0 0 .41-.53l-1.01-3.73a.42.42 0 0 0-.82 0l-1.01 3.73zM31.64 73.26l.47-.94q.18-.37.6-.34l.29.01q.5.03.43.52-.24 1.62-1.72 2.33-.45.21-.92.07-2.46-.71-2.05-4.39c.28-2.56 2.77-4.27 4.44-1.44a.72.71 49.7 0 1-.06.81l-.23.27q-.29.36-.59.01l-.83-1.02q-.45-.54-.84.04-.56.81-.33 1.94a1.53 1.42 49.6 0 1-.03.7q-.27 1 .52 1.62.54.42.85-.19z"/><rect width="1.3" height="6.9" x="-.65" y="-3.45" fill="#012c73" rx=".39" transform="rotate(1.1 -3684.169 2460.169)"/><path fill="#012c73" d="M60.53 69.26q-.38-.08-.55-.4-.58-1.13.67-.95 1.36.2 2.76-.01 1.34-.19.44.82-1.71 1.92-.84 4.7a.97.96 61.2 0 1-.29 1.02q-.77.66-1.42-.01a.89.88 23.4 0 1-.26-.65l.12-3.75a.77.76 6.2 0 0-.63-.77z"/><rect width="1.52" height="6.7" x="-.76" y="-3.35" fill="#012c73" rx=".46" transform="rotate(-1.2 3425.747 -2067.51)"/><rect width="1.34" height="6.68" x="-.67" y="-3.34" fill="#012c73" rx=".41" transform="rotate(.7 -5787.93 7622.325)"/><path fill="#012c73" d="M38.18 72.88l-.82 1.27a1.78 1.78 0 0 1-3.15-.32q-1.11-2.87 1.26-4.57.5-.37 1 .02 1 .77 1.68 1.95.38.67.54-.08.36-1.64 1.76-1.96a1.11 1.1-27.7 0 1 1.05.32q1.98 2.12.45 4.64a1.6 1.6 0 0 1-2.51.29q-.61-.62-.82-1.49-.14-.54-.44-.07zm-2.3563.5583a1.31 1 92.9 0 0 1.065-1.2577 1.31 1 92.9 0 0-.9324-1.3589 1.31 1 92.9 0 0-1.065 1.2577 1.31 1 92.9 0 0 .9324 1.3589zm4.7563.1217a1.43.64 90 0 0 .64-1.43 1.43.64 90 0 0-.64-1.43 1.43.64 90 0 0-.64 1.43 1.43.64 90 0 0 .64 1.43zm27.61-2.8q.39 2.94-1.54 3.98-.48.26-1 .11-2.19-.67-1.66-3.57.31-1.66 1.82-2.08.51-.14.84.27.71.88 1.54 1.29zm-2.1997 2.6486a1.28.95 87.3 0 0 .8886-1.3234 1.28.95 87.3 0 0-1.0092-1.2338 1.28.95 87.3 0 0-.8886 1.3234 1.28.95 87.3 0 0 1.0092 1.2338zM84.95 71.4q.44.43 1 .59a1.11 1.1 21.8 0 1 .68 1.58q-.7 1.32-2.05 1.28-1.39-.04-1.62-1.38a.53.53 0 0 1 .45-.61q.73-.1.93.61.2.73.64.11.11-.15.06-.37-.1-.4-.49-.54-1.33-.49-1.62-1.66-.29-1.12-1.01-.21-.14.18-.3.34-.28.28-.31.67-.09 1.19-.05 2.5.01.52-.49.42l-.34-.07a.54.53-84.9 0 1-.43-.53l.06-3.43a1.39 1.38 19.4 0 1 2.24-1.07q1.14.89 1.97-.26.43-.6 1.02-.16l1.27.97a.59.58-40.8 0 1-.08.98q-.59.32-1.32-.04-.96-.48-.21.28zm16.52 1.9l.96-.38q.95-.36.57.58-.71 1.8-2.52 1.22a2 1.98-88 0 1-1.33-1.44q-.56-2.36 1.4-3.92.4-.32.88-.13 1.67.67 1.63 2.05-.02.64-.47.2-.52-.5-1.21-.65-.64-.15-.81.49-.18.67-.08 1.41.13.89.98.57zm-50.64-1.94a.47.47 0 0 0-.65-.46l-.35.14a.85.85 0 0 0-.5 1q.25.97.13 1.96-.07.58-.65.59h-.26q-.58.01-.57-.58l.1-3.49a.96.95-9.8 0 1 .61-.86q1.4-.54 2.55-.22a1.17 1.15-81.5 0 1 .85 1.16l-.11 3.72q-.02.56-.55.38l-.33-.11a.63.62-79.5 0 1-.42-.62l.15-2.61zm2.49 4.11l-.46-4.55a1.25 1.25 0 0 1 1.1-1.37l1.58-.19a1.25 1.25 0 0 1 1.4 1.25l-.04 4.26a1.25 1.25 0 0 1-.74 1.13l-1.09.48a1.25 1.25 0 0 1-1.75-1.01zm1.4448-2.1701a1.21.8 89.3 0 0 .7851-1.2197 1.21.8 89.3 0 0-.8147-1.2001 1.21.8 89.3 0 0-.7851 1.2197 1.21.8 89.3 0 0 .8147 1.2001zM68.19 70.76l.32-.9q.2-.56.76-.36 1.05.36.84 1.56-.04.25.17.4.13.1.26.07.23-.05.23-.29-.01-1.1.69-1.74.52-.47.7.2l.35 1.28q.2.72.57.08l.89-1.55a.32.31 35.4 0 1 .48-.08l.2.17q.4.33.25.82l-1.16 3.88a.69.69 0 0 1-1.16.27q-.77-.82-.56-1.87a.19.18 78.7 0 0-.28-.19q-.13.08-.23.18-.16.16-.19.38-.19 1.29-1.23 1.78a.26.25-17.9 0 1-.36-.18q-.71-3.97-1.54-3.91zm10.7614 2.5539a1.73 1.73 0 0 1-1.9147 1.5231l-.2583-.0295a1.73 1.73 0 0 1-1.523-1.9147l.2332-2.0467a1.73 1.73 0 0 1 1.9147-1.5231l.2583.0295a1.73 1.73 0 0 1 1.523 1.9147l-.2332 2.0467zm-1.6241.3986a.75.46 110.5 0 0 .6936-.5414.75.46 110.5 0 0-.1682-.8636.75.46 110.5 0 0-.6936.5414.75.46 110.5 0 0 .1682.8636z"/><path fill="#012c73" d="M96.98 70.95q0-.28-.28-.24l-.44.08q-.22.03-.22.25L96 74.28q0 .54-.53.43l-.27-.05a.82.81 5.9 0 1-.66-.81l.07-3.67a.56.55 85.6 0 1 .45-.54l1.94-.36a.73.72-21 0 1 .75.33q1.26 2.03.59 4.7a.62.61-81.2 0 1-.62.46q-.25-.01-.44-.18-.29-.26-.29-.66l-.01-2.98zM87.57 74q-.08-.29.08-.57a.73.73 0 0 1 1.33.18q.45 1.6-.81 2.53-.77.58-.68-.38l.13-1.35q.02-.21-.05-.41z"/><ellipse fill="#012c73" rx=".95" ry=".72" transform="rotate(83.1 10.666 95.99)"/><path fill="#012c73" d="M73.76 80.13q-4.02 5.15-8.81.36a.66.66 0 0 0-.95.01q-4.33 4.6-8.28-.19-.49-.58-.96 0c-2.66 3.28-5.93 3.08-8.43.08q-.44-.53-.89 0-4.07 4.82-8.69.01-.36-.38-.73-.01-4.4 4.45-8.68-.2-.37-.4-.69.05c-2.97 4.31-6.97 2.32-9.52-.92a.56.56 0 0 1 .08-.78l.2-.17q.7-.59 1.17.2c2.04 3.44 5.89 3.34 7.78-.19a.77.76-44.1 0 1 1.36.02q.38.77 1.03 1.31 3.88 3.16 7.01-1.27.55-.78 1.16-.04.74.91 1.57 1.68c1.88 1.73 4.57 1.31 6.03-.74q.43-.61.89-1.18.58-.72 1.01.1c2 3.78 6.01 3.66 8.14.1a.66.66 0 0 1 1.04-.12c1.21 1.26 2.5 3.07 4.49 2.82q2.35-.3 3.86-2.88.42-.72.93-.06.88 1.12 1.9 2.07c2.25 2.1 5.4.57 6.59-1.93a.74.74 0 0 1 1.33-.02q.53 1.03 1.42 1.75c2.74 2.22 5.02.9 6.67-1.68q.39-.62.87-.07c1.02 1.16 2.11 2.66 3.77 2.84q3.3.35 4.85-2.78a.62.62 0 0 1 1.1-.03c2.07 3.69 5.9 4.13 8.22.13q.48-.82 1.07-.08c2.56 3.16 5.19 3.92 8.02.19q.39-.53 1.02-.33l.33.1a.4.4 0 0 1 .2.62q-4.75 6.47-9.63 1.58-.38-.38-.74.02-4.28 4.85-8.66-.2-.31-.35-.61.01-4.19 4.93-8.96.16-.38-.39-.76.02-4.34 4.69-8.52-.37-.3-.37-.6.01z"/></svg>