<svg xmlns="http://www.w3.org/2000/svg" role="img" viewBox="52.41 209.91 810.68 182.18"><title>Digital Realty logo</title><style>svg {enable-background:new 0 0 916 602.4}</style><path fill="#092241" d="M252.8 285.7h15.8c13.4 0 22.6 9.2 22.6 21.1v.1c0 12-9.2 21.3-22.6 21.3h-15.8v-42.5zm15.8 35.7c8.9 0 14.7-6 14.7-14.3v-.1c0-8.3-5.8-14.5-14.7-14.5h-8.4v28.9h8.4zm36.4 6.8h7.4v-42.5H305v42.5zm22.2-21.1c0 12.3 8.8 21.8 22 21.8 6.5 0 12.8-2.4 17.7-6.7v-17.8h-18v6.5h10.9v8c-3 2.1-6.5 3.2-10.1 3.2h-.1c-8.6 0-14.5-6.4-14.5-15.2v-.1c0-8.1 6-15 13.8-15h.5c4.2 0 8.3 1.6 11.4 4.5l4.7-5.6c-4.5-4-10.4-6.1-16.4-5.8h-.2c-12 0-21.6 9.7-21.6 21.6l-.1.6zm56.7 21.1h7.5v-42.5h-7.5v42.5zm35.3 0h7.5v-35.6h13.5v-6.9h-34.5v6.9h13.5v35.6zm43.8-42.9h6.9l18.7 42.9h-7.9l-4.3-10.3h-20.1l-4.4 10.3h-7.6l18.7-42.9zm10.7 26l-7.3-17-7.3 17h14.6zm28.1 16.8h29.8v-6.8h-22.3v-35.7h-7.5v42.5zm69.6-42.5h18.9c4.5-.3 8.9 1.3 12.3 4.3 2.3 2.4 3.5 5.5 3.5 8.8v.6c0 7-4.2 11.2-10.1 12.9l11.4 16.1h-8.8l-10.4-14.9h-9.3v14.9h-7.5v-42.7zm18.4 21.1c5.3 0 8.8-2.8 8.8-7v-.1c0-4.6-3.3-7-8.8-7H579v14.3h10.9l-.1-.2zm30.4 21.5H652v-6.7h-24.3v-11.4H649v-6.7h-21.3v-11h24v-6.7h-31.5v42.5zm61.6-42.8h6.9l18.7 42.8h-7.9l-4.3-10.3h-20.1l-4.4 10.3H663l18.8-42.8zm10.7 25.9l-7.3-17-7.3 17h14.6zm27.4 16.9h29.8v-6.8h-22.4v-35.7h-7.4v42.5zm50 0h7.5v-35.6h13.5v-6.9h-34.5v6.9h13.5v35.6zm53.7 0h7.6v-17l16.8-25.5h-8.5l-12.1 18.9-11.9-18.8h-8.8l16.9 25.7v16.7z"/><path fill="#378aca" d="M184.3 246.9v12.5l9.1 2.7v12.6l-9.1-1.8V262l-9.1-2.2v-16.6l-27.4-10.7v25.2l-9.1-2.2V229l-9.1-3.5V377l9.1-3.7V354l9.1-2.7v18.5l54.8-22.3V254l-18.3-7.1zm-27.4 4.5l9.1 2.7v15.2l-9.1-1.8v-16.1zm-18.3 21.1l9.1 1.4V289l-9.1-.6v-15.9zm9.2 62l-9.1 1.7v-16.5l9.1-1v15.8zm18.2 2.4l-9.1 2.2v-28.9l-9.1.6v-14.1l9.1.1v13.4l9.1-.6v27.3zm0-54.1l9.1 1v13.5l-9.1-.2v-14.3zm18.3 57.3l-9.1 2.8v-14.1l9.1-1.9v13.2zm9.1-15l-9.1 1.9v-36.8l9.1.6v34.3z"/><path fill="#1d48a4" d="M68 254.5v91.9l53.3 28.1V226.9L68 254.5z"/></svg>