<svg xmlns="http://www.w3.org/2000/svg" role="img" viewBox="-3.36 -3.48 174.59 85.34"><title>Doosan logo</title><g><path fill="#014DA2" d="M7.336 7.333H63.384V63.381H7.336z" transform="rotate(107.987 35.362 35.358)"/><path fill="none" stroke="#2E499A" stroke-width=".081" d="M7.336 7.333H63.384V63.381H7.336z" transform="rotate(107.987 35.362 35.358)"/><path fill="#009FDB" d="M55.124 20.534H111.168V76.582H55.124z" transform="rotate(85.848 83.144 48.557)"/><path fill="none" stroke="#0D99D6" stroke-width=".081" d="M55.124 20.534H111.168V76.582H55.124z" transform="rotate(85.848 83.144 48.557)"/><path fill="#00AD7E" d="M106.062 68.371L112.212 12.663 167.911 18.814 161.769 74.52z"/><path fill="none" stroke="#00A886" stroke-width=".081" d="M106.062 68.371L112.212 12.663 167.911 18.814 161.769 74.52z"/><path fill="#FFF" d="M14.165 30.639H26.77c10.044 0 8.875 4.764 7.015 10.005-1.855 5.238-4.059 10-14.097 10H7.082L14.165 30.639zM17.096 46.89h1.728c3.364 0 4.075-.84 5.994-6.247 1.918-5.405 1.791-6.252-1.572-6.252h-1.722L17.096 46.89zM50.625 30.25c8.87 0 10.875 2.913 8.226 10.394-2.651 7.48-6.718 10.394-15.59 10.394-8.875 0-10.875-2.914-8.224-10.394C37.681 33.163 41.747 30.25 50.625 30.25M44.509 47.505c2.66 0 3.457-1.455 5.371-6.862 1.915-5.405 2.152-6.866-.508-6.866-2.66 0-3.456 1.46-5.371 6.866C42.087 46.05 41.85 47.505 44.509 47.505M75.735 30.25c8.869 0 10.877 2.913 8.226 10.394-2.651 7.48-6.718 10.394-15.588 10.394-8.877 0-10.876-2.914-8.225-10.394C62.795 33.163 66.864 30.25 75.735 30.25M69.619 47.505c2.668 0 3.456-1.455 5.377-6.862 1.913-5.405 2.151-6.866-.51-6.866-2.665 0-3.462 1.46-5.375 6.866C67.195 46.05 66.958 47.505 69.619 47.505M100.104 36.412l.164-.479c.416-1.177-.025-2.155-1.71-2.155-1.864 0-3.016.868-3.33 1.767-1.4 3.946 13.479 2.019 10.893 9.326-1.514 4.261-6.343 6.167-14.002 6.167-7.191 0-10.677-1.486-9.208-5.63l.246-.707h8.404l-.169.474c-.604 1.715.347 2.33 2.024 2.33 1.777 0 3.1-.839 3.49-1.932 1.398-3.951-12.937-1.987-10.429-9.077 1.432-4.037 5.812-6.248 13.148-6.248 7.564 0 10.12 1.872 8.604 6.162H100.104zM118.741 30.639h10.928l1.037 20.005h-9.242l.347-3.5h-6.904l-2.128 3.5h-9.249L118.741 30.639zM122.801 34.731h-.093l-5.388 8.488h4.854L122.801 34.731zM138.869 30.639L148.58 30.639 149.817 42.968 149.91 42.968 154.278 30.639 162.403 30.639 155.315 50.644 145.785 50.644 144.378 38.289 144.284 38.289 139.905 50.644 131.781 50.644z"/></g></svg>