<svg xmlns="http://www.w3.org/2000/svg" role="img" viewBox="-8.66 -8.66 450.58 77.58"><title>Eclairion/CGG logo</title><style>svg {enable-background:new 0 0 433.5 60.3}</style><style/><path d="M79.1 11.5c4.6 0 9.2 1.9 13.5 5.5l.9.7V7.1l-.3-.1c-4.1-2.5-8.8-3.8-13.6-3.8-8.1-.2-15.9 3.3-21 9.6C54.3 17.6 52 24 52 30.5c-.1 7.2 2.8 14.1 7.9 19.1 5.1 5.1 12 7.9 19.2 7.8 5 0 9.9-1.3 14.2-3.8l.3-.1V42.6l-.9.8c-1.1 1-2.3 1.9-3.5 2.7-1 .7-2.1 1.3-3.2 1.8-2.1.9-4.4 1.3-6.7 1.3-4.9.1-9.6-1.9-13-5.4-3.5-3.5-5.4-8.3-5.3-13.2-.1-5 1.8-9.9 5.3-13.5 3.2-3.7 7.9-5.7 12.8-5.6M117.8 48V3.4h-9v53.1h24.3V48zm50.8-26.4l6.5 14.9h-13.3l6.8-14.9zm.2-19.3l-25.2 54.2h9.2l5.5-12h20.4l5.2 12h9.3L168.8 2.3zM206 3.4h9v53.1h-9zm82.8 0h9v53.1h-9zm-30.7 33.8L268.9 56h-10l-15.2-26.2 7.8.1c4.8-.1 8.7-4 8.7-8.8 0-2.3-.9-4.5-2.6-6.1-1.6-1.7-3.8-2.6-6.1-2.6H234l-1-1-4.5-7.8h22.9c9.6 0 17.4 7.8 17.4 17.4.1 3.5-1 7-3.1 9.9-1.8 2.8-4.4 5-7.6 6.3m103.8-6.9c.1 5-1.8 9.8-5.4 13.3-7.5 7-19.3 6.6-26.4-.9-6.8-7.3-6.7-18.6.3-25.7 3.4-3.5 8.2-5.5 13.1-5.4 4.9-.1 9.7 1.9 13.1 5.4 3.5 3.5 5.4 8.4 5.3 13.3m.8-19.1c-5-5.2-11.9-8.1-19.2-8-7.3-.1-14.2 2.8-19.3 7.9-5.2 4.9-8.2 11.8-8.1 19 0 8.3 3 15.2 8.9 20.3 10.8 9.7 27.3 9.3 37.7-.9 5.2-5 8.1-11.9 8-19.1.1-7.2-2.8-14.1-8-19.2M386.4 0v56.4h9V21.5l38.1 38.8v-56h-9v34.6zM0 3l8.7 9h26.1V3zm8.7 44.8l-8.7 9h34.8v-9zM0 25.4h34.8v8.9H0z" class="st0"/></svg>