<svg xmlns="http://www.w3.org/2000/svg" role="img" viewBox="-52.10 -52.10 2709.20 571.70"><title>EdgeConneX logo</title><defs><path id="a" d="M.06.805h1432.69V470H.06z"/></defs><g fill="none" fill-rule="evenodd" stroke="none" stroke-width="1"><path fill="#41444D" d="M1213.04 272.683v-51.089c0-26.896-22.63-46.105-41.09-46.105-16.9 0-29.21 9.604-29.21 36.516v76.051c0 20.735 10.03 32.65 30.36 32.65 20.01 0 39.94-19.979 39.94-48.023m-112.14 17.683v-79.917c0-38.389 27.66-65.27 61.84-65.27 19.21 0 38.43 10.737 49.53 27.259h.38v-97.18h42.27v273.869h-38.43l-1.91-31.879h-1.14c-13.07 24.207-34.19 36.486-56.48 36.486-38.76 0-56.06-29.584-56.06-63.368"/><path fill="#41444D" d="M1631.35 287.277v-68.728c0-41.515 22.26-66.07 59.92-66.07 40.34 0 57.22 23.015 57.22 49.533v8.835h-10.75v-9.605c0-14.21-10.01-38.796-47.25-38.796-36.09 0-47.6 27.274-47.6 56.465v68.758c0 33.406 12.67 56.072 49.5 56.072 38.44 0 45.35-22.666 45.35-39.55v-10.768h10.75v9.605c0 27.666-13.83 50.334-56.46 50.334-40.71 0-60.68-23.83-60.68-66.085"/><path fill="#41444D" d="M1893.69 283.823v-65.27c0-30.354-13.82-56.103-50.7-56.103-36.91 0-49.95 26.882-49.95 58.006v63.759c0 36.486 14.6 58.762 51.48 58.762 37.66 0 49.17-26.504 49.17-59.154m-112.13 2.31v-65.677c0-42.239 24.16-67.988 61.81-67.988 39.57 0 62.23 25.341 62.23 67.218v64.892c0 44.958-23.42 68.788-61.85 68.788-40.32 0-62.19-25.356-62.19-67.233"/><path fill="#41444D" d="M1948.97 157.066h10.39v35.338h.39c11.51-26.88 36.12-39.929 61.08-39.929 30.74 0 46.86 21.113 46.86 45.306v151.348h-11.91v-144.81c0-31.502-16.16-41.499-39.19-41.499-27.67 0-56.07 27.666-56.07 60.316v125.993h-11.55V157.066"/><path fill="#41444D" d="M2117.99 157.066h10.39v35.338h.36c11.54-26.88 36.11-39.929 61.08-39.929 30.72 0 46.88 21.113 46.88 45.306v151.348h-11.9v-144.81c0-31.502-16.16-41.499-39.19-41.499-27.66 0-56.09 27.666-56.09 60.316v125.993h-11.53V157.066"/><path fill="#41444D" d="M2470.99 249.645l-51.87-92.573h13.84l46.05 84.886 46.51-84.886h12.31l-51.84 92.181 55.66 99.867h-13.06l-50.67-92.181-51.47 92.181h-12.33l56.87-99.475"/><path fill="#41444D" d="M967.692 213.525c0-19.209 11.145-36.878 34.598-36.878 25.73 0 34.58 18.832 34.58 38.055v16.523h-69.178v-17.7zm68.728 77.88c-2.07 16.445-11.64 30.837-34.13 30.837-23.453 0-34.598-17.684-34.598-36.878v-24.585h109.468v-42.647c0-45.683-29.17-72.957-73.71-72.957-42.629 0-77.997 28.028-77.997 79.872v48.81c0 51.843 35.368 79.887 77.997 79.887 40.94 0 68.87-23.075 73.11-62.339h-40.14z"/><path fill="#41444D" d="M1498.05 213.525c0-19.209 11.14-36.878 34.58-36.878 25.72 0 34.54 18.832 34.54 38.055v16.523h-69.12v-17.7zm68.73 77.88c-2.06 16.445-11.68 30.837-34.15 30.837-23.44 0-34.58-17.684-34.58-36.878v-24.585h109.49v-42.647c0-45.683-29.23-72.957-73.73-72.957-42.66 0-78.02 28.028-78.02 79.872v48.81c0 51.843 35.36 79.887 78.02 79.887 40.94 0 68.85-23.075 73.08-62.339h-40.11z"/><path fill="#41444D" d="M2284.12 218.136c0-25.733 13.82-55.317 49.17-55.317 38.41 0 49.91 27.666 49.91 53.793v26.14h-99.08v-24.616zm99.08 66.765v4.289c0 26.141-11.5 53.777-49.91 53.777-35.35 0-49.17-29.569-49.17-55.303v-34.748h99.08v.181h11.15v-34.961c0-40.321-20.39-65.662-58.38-65.662-38.03 0-63.75 24.964-63.75 69.891v61.102c0 44.927 25.72 69.905 63.75 69.905 37.99 0 58.38-25.371 58.38-65.708v-2.763h-11.15z"/><mask id="b" fill="#fff"><use href="#a"/></mask><path fill="#41444D" d="M1390.51 260.006c0 29.177-20.36 51.483-39.96 51.483-22.24 0-29.95-14.967-29.95-33.783V213.16c0-24.223 9.62-37.648 30.74-37.648 17.3 0 39.17 17.276 39.17 44.172v40.322zm6.55-110.226l-1.55 27.65h-.4c-9.6-21.127-33.01-32.256-52.99-32.256-33.42 0-63.39 23.029-63.39 61.433v77.969c0 33.829 19.98 58.399 58.39 58.399 19.97 0 41.88-10.737 53.39-34.945h.39v42.254c0 24.541-12.99 35.444-36.85 36.955h-2.56c-14.85-.485-23.76-7.461-28.55-17.051h-41.6c8.67 30.838 34.48 48.597 70.33 48.688h.18c.18 0 .33-.03.54-.03 51.42-.242 80.36-26.156 80.36-76.988V149.78h-35.69z" mask="url(#b)"/><path fill="#2A507B" d="M234.589.805C105.017.805 0 105.823 0 235.396 0 364.952 105.017 470 234.589 470c100.804 0 186.748-63.608 219.927-152.905h-89.448c-27.243 43.448-75.418 72.443-130.479 72.443-85.112 0-154.172-69.03-154.172-154.142 0-85.114 69.06-154.129 154.172-154.129 72.942 0 133.937 50.712 149.9 118.79H190.598v70.676h275.924c1.751-11.523 2.657-23.332 2.657-35.337C469.179 105.823 364.132.805 234.589.805" mask="url(#b)"/><path fill="#1E90C3" d="M585.08.805c-58.972 0-112.779 21.792-154.022 57.704 18.213 20.207 33.3 43.267 44.611 68.381 27.938-28.166 66.628-45.623 109.411-45.623 85.113 0 154.113 69.015 154.113 154.129 0 85.112-69 154.112-154.113 154.112-42.783 0-81.473-17.442-109.411-45.606-11.311 25.113-26.398 48.173-44.611 68.364C472.271 448.193 526.108 470 585.08 470c129.573 0 234.59-105.048 234.59-234.62C819.67 105.823 714.653.805 585.08.805" mask="url(#b)"/><path fill="#41444D" d="M2574.83 122.695c3.15 0 5.12-1.812 5.12-4.515 0-3.322-2.1-4.681-5.12-4.681h-5.42v9.196h5.42zm-14.18-15.977h15.39c6.76 0 12.67 3.76 12.67 10.843 0 4.379-2.24 8.442-6.66 10.269l7.83 13.713h-9.33l-6.95-12.52h-4.19v12.52h-8.76v-34.825zm37.09 18.243c0-15.993-11-25.945-24.27-25.945-13.28 0-23.97 9.816-23.97 25.945 0 15.977 11.33 25.476 23.97 25.476 12.67 0 24.27-9.665 24.27-25.476zm-56.09 0c0-17.638 13.3-32.122 31.82-32.122 19.45 0 32.12 14.484 32.12 32.122 0 17.337-12.97 32.106-32.12 32.106-19.89 0-31.82-14.769-31.82-32.106z"/></g></svg>