<svg xmlns="http://www.w3.org/2000/svg" role="img" viewBox="1.74 3.62 97.76 52.26"><title>EkkoSense logo</title><defs><style>.cls-2{fill:#fff}</style></defs><path fill="#54c1ea" d="M16.33 18.79c-.07-.07.14-.32.21-.4s.36-.36.5-.57a.42.42 0 0 0 .08-.5.49.49 0 0 0-.44-.29 2.36 2.36 0 0 0-1 .36 1.34 1.34 0 0 1-.65.29 1.22 1.22 0 0 1-1.36-.68 4.28 4.28 0 0 1-.79-1.87 15 15 0 0 1-.36-1.72c-.07-.5-.86-.72-1.29-.36a1.5 1.5 0 0 0-.5.86c-.08.07-.08.22-.15.29a.74.74 0 0 1-.72.5.77.77 0 0 1-.71-.5.67.67 0 0 1 .28-.93 2.74 2.74 0 0 1 .79-.43 1.63 1.63 0 0 0 .43-.29 1 1 0 0 0 0-1.73 4.43 4.43 0 0 0-1.72-.5 1.07 1.07 0 0 1-.79-.29.92.92 0 0 1-.29-1.29 1 1 0 0 1 1.22-.43 1.15 1.15 0 0 1 .79.69 2.58 2.58 0 0 0 1.44 1.29.62.62 0 0 0 .86-.57 3.23 3.23 0 0 0-.29-1.66 5.06 5.06 0 0 0-.57-1.14.87.87 0 0 1-.14-.92.75.75 0 0 1 .5-.43c.07-.07.14 0 .21-.07h.51a1 1 0 0 1 .43 1.44A2.92 2.92 0 0 0 12.88 9c.29.64.65.64 1.08.21a3.19 3.19 0 0 0 .86-2.08c0-.43.29-.65.72-.72a.83.83 0 0 1 .86.43c.07.15.07.29.14.43a.72.72 0 0 1-.36.79 4.58 4.58 0 0 0-2 2.3.6.6 0 0 0 .43.79A2.24 2.24 0 0 0 16 11a3.21 3.21 0 0 1 .79-.22.86.86 0 0 1 .93 1.15c-.07.5-.43.65-.93.58a1.69 1.69 0 0 1-.79-.36c-.65-.58-1.73.07-1.8.79a1.45 1.45 0 0 0 .72 1.5.89.89 0 0 0 1.22-.07 9.2 9.2 0 0 1 3.88-2 8.76 8.76 0 0 1 3-.21 1.83 1.83 0 0 0 1.3-.43 3.48 3.48 0 0 0 1-1.22 8.33 8.33 0 0 1 2.3-2.73 5.69 5.69 0 0 1 2.15-.94 24.91 24.91 0 0 1 3-.64c.71-.07 1.43-.22 2.15-.29a1.77 1.77 0 0 1 2 1.65 4.28 4.28 0 0 1-.5 2.51c-.58 1.3-1.29 2.45-1.87 3.67a5.83 5.83 0 0 1-3.66 2.8c-.58.14-1.15.28-1.72.36a2.37 2.37 0 0 0-1.15.79 5.32 5.32 0 0 0-.9 2.08 8.72 8.72 0 0 1-1.37 0c-.86-.07-1.76-.08-2.62-.15-.58-.07-5.43-.68-5.57-.68-.49.12-.94-.15-1.23-.15z"/><path d="M97.6 32.54a.07.07 0 0 0-.07.07 1.31 1.31 0 0 1-1.36.93h-6.11a2.26 2.26 0 0 0 .79.86 2.65 2.65 0 0 0 1.51.44h1.29A1.35 1.35 0 0 1 95 36.13a1.31 1.31 0 0 1-1.37 1.29h-1.05a3.17 3.17 0 0 1-1.15 0 5.18 5.18 0 0 1-4.31-4.31 5.33 5.33 0 1 1 10.55-1.58c0 .07 0 .07.08.15a1.88 1.88 0 0 0-.15.86zm-3-1.58v-.07a2.68 2.68 0 0 0-4.45-.08c0 .08-.08.08-.08.15s.15 0 .15 0h4.38z" class="cls-2"/><path fill="#aabe14" d="M16.38 18.59c.35.07 2.1.31 2.46.38.57.07 3.59.36 4.09.43l2.66.21c.5.08 1.47 0 1.47.12a14 14 0 0 0 0 3 2 2 0 0 0 .51 1 .91.91 0 0 0 1.29-.08 1 1 0 0 0 0-1.29 2.21 2.21 0 0 1-.65-.57.79.79 0 0 1-.07-1 1.22 1.22 0 0 1 1.08-.36.69.69 0 0 1 .43.65v1a1.21 1.21 0 0 0 .21.71c.22.36.51.51.87.22a3.33 3.33 0 0 0 1.36-2.23c.07-.5.29-.72.72-.64a.92.92 0 0 1 .79.86 1 1 0 0 1-.5.79A3.16 3.16 0 0 0 31.69 23c-.14.21-.29.43-.14.72s.43.28.72.28a2.75 2.75 0 0 0 1.93-.64l.43-.22a.79.79 0 0 1 .87 1 .92.92 0 0 1-1.22.72 4 4 0 0 0-2.09 0 3.59 3.59 0 0 0-.5.21.45.45 0 0 0-.14.65 2 2 0 0 0 1.51 1 1.07 1.07 0 0 1 1 .79.78.78 0 0 1-.22.86.89.89 0 0 1-.93.15 1.5 1.5 0 0 1-.72-.86 3.25 3.25 0 0 0-.93-1.3.9.9 0 0 0-1.44.65c-.07.36-.07.79-.14 1.15a.84.84 0 0 1-.65.64.71.71 0 0 1-.71-.43.62.62 0 0 1 .14-.71 3.86 3.86 0 0 0 .57-.58.76.76 0 0 0 .29-.86.81.81 0 0 0-1.22-.65 1.47 1.47 0 0 1-1.87-.57 7 7 0 0 1-.71-1.22c-.08-.22-.22-.22-.36 0a3.77 3.77 0 0 0-.51 1.08 27.32 27.32 0 0 0-1 3.44 14.36 14.36 0 0 0-.29 3.51v.22c0 .11-.42-.07-.56-.07-.58-.14-1.22-.21-1.8-.36l-1-.21c-.65-.14-1.22-.22-1.87-.36l-1.79-.43c-.43-.14-.87-.22-1.37-.36s-.72-.29-1.08-.36a10.38 10.38 0 0 1-1.57-.57c-.15-.07-.22-.15-.22-.29a15.92 15.92 0 0 1 .29-2.94 14 14 0 0 1 .79-2.52 14.23 14.23 0 0 1 2.44-4c.38-.45.54-.75.76-.97z"/><path fill="#f6c312" d="M12.09 29.06a7.45 7.45 0 0 0 1.94.68c4.21 1.08 9.19 2.15 9.33 2.15a12.63 12.63 0 0 0 .15 1.73 6.43 6.43 0 0 0 .57 1.93 5.78 5.78 0 0 0 1.29 1.94 1.62 1.62 0 0 0 .36.29c.15.07.15.14.07.29a.26.26 0 0 0-.07.21 19.7 19.7 0 0 1-2.8 3.59 23.25 23.25 0 0 1-3.28 2.77c0-.07-.11 0-.18 0-.93-.72-3.79-3.51-4.44-4a2.72 2.72 0 0 0-2.94-.07 4.59 4.59 0 0 0-1.22.86.83.83 0 0 0-.36.79 1.4 1.4 0 0 0 .79.79A2.52 2.52 0 0 0 12 43c.79.07 1 .65.64 1.29s-.64.58-1.07.15a7.57 7.57 0 0 1-.65-.94A1.19 1.19 0 0 0 10 43a.65.65 0 0 0-.72.57 3 3 0 0 0 .21 2.23c.08.07.08.21.15.29a.72.72 0 0 1-.72.93 1 1 0 0 1-.79-.22.76.76 0 0 1-.13-.91 3.36 3.36 0 0 0 .5-2 .59.59 0 0 0-.14-.36c-.08-.21-.36-.21-.65-.07a2.93 2.93 0 0 0-1.22 1.22 5.6 5.6 0 0 1-.43.94.8.8 0 0 1-.86.28.85.85 0 0 1-.58-.72.78.78 0 0 1 .43-.86c.29-.14.58-.21.86-.36a3.27 3.27 0 0 0 1.3-1.14c.36-.58.07-.87-.43-.94a3.37 3.37 0 0 0-1.87.22 1 1 0 0 1-1.29-.94 1 1 0 0 1 1.15-.79 5.43 5.43 0 0 1 1.07.43 2.47 2.47 0 0 0 1.44.29.9.9 0 0 0 .65-1.09 5 5 0 0 0-.58-1.08.9.9 0 0 1 .07-.92c.22-.28.65-.21.94-.07a.68.68 0 0 1 .28.72 2.87 2.87 0 0 0-.14 1.08 1.54 1.54 0 0 0 .93 1.07c.29.08.51-.14.65-.5a4.73 4.73 0 0 0 .14-1.43 2.37 2.37 0 0 1 .15-1A1.86 1.86 0 0 1 13 37a2.32 2.32 0 0 0 .72.36.47.47 0 0 0 .43 0c.15-.07.07-.22.07-.36a3.49 3.49 0 0 0-.5-1.08A19.72 19.72 0 0 1 12.66 33a33.29 33.29 0 0 1-.57-3.94z"/><path fill="#e3534f" d="M22.72 41.94a20.49 20.49 0 0 0 2.87-4.25 8.84 8.84 0 0 1 1-1.35 2.1 2.1 0 0 1 2.59-.57 4.81 4.81 0 0 1 1.65 1c.36.29.72.65 1.15.94a2 2 0 0 0 1.58.28.91.91 0 0 0 .72-1.14 2.69 2.69 0 0 1-.15-1.08.63.63 0 0 1 .65-.58c.79 0 1.15.58.72 1.3a6.23 6.23 0 0 1-.51.71 2.3 2.3 0 0 0-.28.72.66.66 0 0 0 .79.79 3.49 3.49 0 0 0 2.15-1.15.73.73 0 0 1 .72-.28.75.75 0 0 1 .57.57.82.82 0 0 1 0 .58.71.71 0 0 1-.86.57 4 4 0 0 0-1.29 0 2.31 2.31 0 0 0-.79.29c-.43.21-.43.5-.07.79a2.83 2.83 0 0 0 2 .64h.57c.36.15.58.36.58.65a1.17 1.17 0 0 1-.58.93.71.71 0 0 1-.86-.28 5.86 5.86 0 0 0-1.22-1 3.67 3.67 0 0 0-.93-.36c-.58-.14-.94.14-.87.72a2.4 2.4 0 0 0 .72 1.44 1.16 1.16 0 0 1 .36 1.07.84.84 0 0 1-.79.65 1 1 0 0 1-.93-.65A2.09 2.09 0 0 1 34 43a2.83 2.83 0 0 0-.15-1.72.86.86 0 0 0-1.36-.36 3.14 3.14 0 0 0-.65.71 1.1 1.1 0 0 1-.64.51.73.73 0 0 1-.86-.43.64.64 0 0 1 .36-.87 1.21 1.21 0 0 1 .5-.07 1 1 0 0 0 .93-.5.69.69 0 0 0-.29-1.08 4.29 4.29 0 0 0-1.84-.62 3.15 3.15 0 0 0-3.31 2.66 6.17 6.17 0 0 0 .72 3.37 10.69 10.69 0 0 0 3.88 4.31 17.4 17.4 0 0 0 5.82 2.51 10.17 10.17 0 0 0 4.66.07 9.09 9.09 0 0 0 3.88-2 13.8 13.8 0 0 0 3-4l.64-1.29c.07-.14.15-.22.29-.14s.14.21.07.35a17.7 17.7 0 0 1-3.8 6.4A10.58 10.58 0 0 1 40 53.93a12.63 12.63 0 0 1-4.38 0 24.45 24.45 0 0 1-8-3 40.29 40.29 0 0 1-4.24-2.8c-.79-.65-1.5-1.37-2.22-2l-1.68-1.53a27.57 27.57 0 0 0 3.24-2.66z"/><path d="M45.91 37.56h-3.38a1.39 1.39 0 0 1-1.36-1.14A1.33 1.33 0 0 1 42.25 35H49a1.2 1.2 0 0 0 .94-.36 1.39 1.39 0 0 0 .43-1.44 1.25 1.25 0 0 0-1.22-.86h-4a3.88 3.88 0 0 1-2.73-1.07 3.92 3.92 0 0 1-1-4.31 4 4 0 0 1 3.74-2.59h6a1.29 1.29 0 0 1 1.29 1.3 1.3 1.3 0 0 1-1.36 1.29h-5.9a1.34 1.34 0 0 0-1.37 1.15 1.3 1.3 0 0 0 1.37 1.43h4a4 4 0 0 1 2.3.72 4 4 0 0 1 1.72 4.16 4.2 4.2 0 0 1-3.45 3.16h-3.8zm-4.45-23.83V8.56a1.32 1.32 0 0 1 1.43-1.44h7.68a1.46 1.46 0 0 1 1.3.65 1.35 1.35 0 0 1-.94 1.94h-6.46c-.21 0-.29.07-.29.28v2.16c0 .21.08.28.29.28h5a1.3 1.3 0 1 1-.04 2.57h-5c-.22 0-.29.07-.29.29v2.22c0 .22.07.22.22.22h6.32a1.4 1.4 0 0 1 1.36 1 1.29 1.29 0 0 1-1.29 1.58h-7.86a1.4 1.4 0 0 1-1.51-1.51c.08-1.65.08-3.37.08-5.09zm26.27 2.15l1.73-1.72 4-3.95a1.3 1.3 0 0 1 2.22.43 1.35 1.35 0 0 1-.36 1.44c-.93.93-1.79 1.86-2.73 2.8a.27.27 0 0 0 0 .43c.94.93 1.87 1.86 2.88 2.8a1.31 1.31 0 0 1-.51 2.22 1.11 1.11 0 0 1-1.34-.33c-.93-1-1.94-2-2.94-3-.15-.14-.22-.07-.29.07-1 1-1.94 2-2.94 2.94a1.33 1.33 0 0 1-1.73.22 1.37 1.37 0 0 1-.57-1.08v-12a1.29 1.29 0 0 1 2.58 0v8.55c-.07-.07-.07.07 0 .14zm-11.91 0l.93-.93c1.58-1.58 3.16-3.16 4.67-4.74a1.22 1.22 0 0 1 1.5-.36 1.25 1.25 0 0 1 .51 2 12.57 12.57 0 0 1-1.37 1.36l-1.65 1.66c-.14.14-.14.21 0 .28.93.94 1.87 1.87 2.87 2.8a1.52 1.52 0 0 1 .43 1.44 1.35 1.35 0 0 1-2.22.5c-.94-1-1.94-2-3-2.94-.14-.15-.14-.07-.21 0l-2.87 2.87a1.33 1.33 0 0 1-2.09-.14 1.51 1.51 0 0 1-.21-.79V7.12a1.33 1.33 0 0 1 1.15-1.36 1.44 1.44 0 0 1 1.43.86 1.1 1.1 0 0 1 .08.5v8.33c-.03.22-.03.29.05.43zm.79 17.74a2.69 2.69 0 0 0 1.86 1.29c.58.07 1.22 0 1.8.07a1.33 1.33 0 0 1 1.22 1.79 1.46 1.46 0 0 1-1.22.87h-1.15c-.29 0-.58.07-.94.07a5.35 5.35 0 0 1-4.59-4.6 5.3 5.3 0 1 1 10.55-.79 1.36 1.36 0 0 1-1.43 1.44h-5.82c-.07-.14-.14-.14-.28-.14zM58.9 31h2.23c0-.07 0-.07-.07-.15a2.68 2.68 0 0 0-4.38 0c0 .08-.07.08-.07.15s.07 0 .14 0zm21.83 6.56h-2.44A1.26 1.26 0 0 1 77 36.42 1.32 1.32 0 0 1 78.07 35H83a.66.66 0 0 0 .71-.86.64.64 0 0 0-.71-.51h-2.63a3.31 3.31 0 0 1-.29-6.6c1.44-.07 2.88 0 4.31 0a1.3 1.3 0 0 1 .07 2.58h-4a.64.64 0 0 0-.72.79c0 .36.22.51.58.58H83a3.28 3.28 0 0 1 .5 6.53c-.22 0-.43.07-.65.07z" class="cls-2"/><path d="M86.47 15.09a5.31 5.31 0 1 1-10.62 0 5.39 5.39 0 0 1 5.31-5.31 5.26 5.26 0 0 1 5.31 5.31zM83.82 15a2.7 2.7 0 1 0-2.66 2.73A2.67 2.67 0 0 0 83.82 15zM76 34.12v2.08a1.34 1.34 0 0 1-1.29 1.36 1.3 1.3 0 0 1-1.29-1.36v-4A2.7 2.7 0 0 0 68 32v4.2a1.35 1.35 0 0 1-1.36 1.36 1.39 1.39 0 0 1-1.3-1.22v-4.45a3.86 3.86 0 0 1 .58-2c.07-.14.07-.21-.07-.29a1.48 1.48 0 0 1-.65-1.5 1.52 1.52 0 0 1 1.22-1.22 1.39 1.39 0 0 1 1.51.64c.07.15.14.15.29.07a5.38 5.38 0 0 1 6.89 1.8 5.58 5.58 0 0 1 .86 2.8 17.94 17.94 0 0 1 .03 1.93z" class="cls-2"/></svg>