<svg xmlns="http://www.w3.org/2000/svg" role="img" viewBox="84.38 290.38 1020.24 259.24"><title>Fungible (Microsoft) logo</title><style>svg {enable-background:new 0 0 1190.55 841.89}</style><style>.st0{fill:#010202}</style><path d="M338.15 390.15v26.9h42.7l-6.6 13.9h-36.1v33.8h-16.4v-88.4h66.6l-6.6 13.8h-43.6zm78.4 36.1v-49.9h16.4v49.3c0 18.2 8.2 26 22.5 26s22.4-7.8 22.4-26v-49.3h16.2v49.9c0 25.8-14.5 39.8-38.7 39.8-24.2 0-38.8-14-38.8-39.8zm194.2-49.9v88.4h-13.6l-48.8-59.9v59.9h-16.2v-88.4h13.5l48.8 59.9v-59.9h16.3zm99.2 43.2h15.5v35.3c-9.2 7.5-22.1 11.2-34.6 11.2-27.4 0-47.6-19.1-47.6-45.5s20.2-45.5 47.9-45.5c14.8 0 27.2 4.9 35.5 14.4l-10.4 10.1c-6.9-6.9-14.9-10.1-24.4-10.1-18.8 0-32.1 12.8-32.1 31.1 0 17.9 13.3 31.1 32 31.1 6.3 0 12.5-1.3 18.2-4.5v-27.6zm52.3-43.2h16.4v88.4h-16.4v-88.4zm134 64.4c0 15.2-11.9 24-34.6 24h-44v-88.4h41.5c21.2 0 32.6 9 32.6 23 0 9.1-4.5 15.8-11.4 19.5 9.5 3 15.9 10.5 15.9 21.9zm-62.1-51.5v24.4h23.2c11.4 0 17.8-4 17.8-12.1 0-8.2-6.4-12.3-17.8-12.3h-23.2zm45.6 49.9c0-8.8-6.7-12.8-19.1-12.8h-26.5v25.5h26.5c12.4.1 19.1-3.9 19.1-12.7zm49.2-62.8h16.4v74.5h46.2l-6.6 13.9h-56v-88.4zm157.1 74.7l-6.6 13.8h-59.7v-88.5h64.5l-6.6 13.8h-41.5v23h42.7l-6.6 13.5h-36.1v24.4h49.9z" class="st0"/><path d="M206.65 425.55h-59.8l4.2-9.9h59.8z" class="st0"/><path d="M212.05 364.55c-5.3-3.1-11-5.4-17-6.9-3.3-.8-6.8-1.4-10.2-1.6-1.8-.1-3.6-.2-5.3-.2-33.5 0-61.8 26.2-64.6 59.5-2 24.8 10.6 48.9 32.1 61.4 5.3 3.1 11.1 5.4 17 6.9 3.3.8 6.8 1.4 10.2 1.6 1.8.1 3.6.2 5.3.2 33.5 0 61.8-26.1 64.6-59.5 2-24.8-10.6-48.9-32.1-61.4zm15.7 60c-2 24.9-23.2 44.5-48.2 44.5-1.3 0-2.7-.1-4-.2-1.2-.1-2.5-.3-3.8-.5-6.6-1.1-12.8-3.4-18.4-7.1-15.1-9.7-23.6-26.9-22.1-44.7 2-24.9 23.2-44.5 48.2-44.5 1.3 0 2.7.1 4 .2 1.2.1 2.5.3 3.8.5 6.6 1.1 12.8 3.4 18.4 7.1 15.1 9.7 23.6 26.9 22.1 44.7z" class="st0"/><path d="M254.05 318.75c-1.2-3.1-4-5.4-7.2-6.4-.7-.2-1.3-.4-2-.6-6.8-1.8-14.7-1.6-23.2 2.5-9.1 4.3-20.2 12.4-29.5 27.7-4.8 7.9-8.1 16.5-10.3 25.5l-26 109.2h-.1l-3.5 11.4c-.9 2.9-1.9 5.7-3 8.4-1.2 2.9-2.4 5.4-3.6 7.7-.4.8-.9 1.6-1.3 2.4-4.8 8.2-9.4 11.4-14.1 9.5 0 0-.1 0-.1-.1-1.7-.7-3.5-2.1-5.3-4.1-1.4-2-3.4-3.6-6-4.4-5.9-1.8-12.2 1.5-14.1 7.4-.8 2.5-.6 5.2.3 7.5 1.2 3.1 4 5.4 7.2 6.5.7.2 1.3.4 2 .6 5.8 1.5 12.5 1.6 19.6-1 1.2-.4 2.4-.9 3.6-1.5 24.8-10.7 37.3-43.2 39.5-51.6v-.1l.4-1.7 7.3-30.6c1.9-8-3.4-15.9-11.4-17.2l-.9-.1h16.5l14.6-61.2 3.5-11.4c.9-2.8 1.9-5.6 3-8.4 1.2-2.9 2.4-5.4 3.6-7.7 5.2-9.9 10.2-13.9 15.4-11.9 1.8.7 3.6 2 5.4 4.1 1.4 2 3.4 3.6 5.9 4.4 5.9 1.8 12.2-1.5 14-7.4.8-2.5.7-5.1-.2-7.4z" class="st0"/></svg>