<svg xmlns="http://www.w3.org/2000/svg" role="img" viewBox="54.19 28.44 266.87 302.12"><title>Green Mountain logo</title><g fill="none" stroke-width="2"><path stroke="#b1b9b6" d="M176.7 112.03l-.03 15.89q-.01.49-.5.56l-2.19.29q-.59.08-.68-.5-1.23-7.56-.48-15.23 0-.06-.06-.07l-.25-.02q-.25-.03-.28.22-.7 7.42-.04 14.78a.58.58 0 0 1-.57.64q-14.35.24-32.03.18c-6.42-.02-9.37 3.72-9.18 9.81q.35 10.95.02 20.98a1.27 1.27 0 0 1-1.24 1.23l-12.01.24a.64.64 0 0 0-.54.97l.21.35q.33.55.97.46 5.76-.81 11.72-.49a1.09 1.09 0 0 1 1.03 1.11q-.07 4.85.38 9.8.4 4.39 2.66 6.88" vector-effect="non-scaling-stroke"/><path stroke="#8fa69a" d="M133.61 180.11q1.76 1.23 3.89 1.24 24.24.17 48.15-.17 1.13-.02 1.15 1.11l.1 5.69a1.08 1.08 0 0 1-1.09 1.1q-18.64-.22-37.81-.03-6.72.06-19.33-.48-.46-.01-.36.43l.08.38a.95.95 0 0 0 .89.74q7.93.32 15.71.39c1.63.01 2.97.75 4.6.4q1.64-.36 3.26-.33 15.77.26 32.59-.07a1.65 1.65 0 0 1 1.68 1.7l-.38 14.54a.48.48 0 0 0 .48.49l.48-.01q.83-.01.82-.84l-.16-14.93q-.01-1.16 1.15-1.21c1.45-.06 3.02.29 4.34.29q21.08.01 42.15.07c6.08.02 6.49-3.42 6.5-8.15a.87.86 88.6 0 1 .82-.87l7.01-.39a.31.31 0 0 0 .28-.41l-.13-.37q-.25-.76-1.05-.74l-6.16.09a1 .99 0 0 1-1.01-1l.02-9.96a.82.81-88 0 1 .87-.82q6.9.46 14.47-.23.26-.02.25-.28l-.01-.32q0-.07-.08-.07-6.97-.22-14.31.44a1.44 1.44 0 0 1-1.57-1.55q.84-9.87.55-19.18c-.15-4.74-6.47-4.11-9.67-4.14q-11.37-.13-24.66.06a3.39 3.38-.9 0 1-3.43-3.31c-.12-5.06-.28-9.92.05-15.01q.42-6.72-.1-12.97a1.09 1.09 0 0 1 1.09-1.18l37.99.03a.53.53 0 0 0 .52-.66c-5.05-20.52-13.32-39.65-25.16-56.77q-4.08-5.9-7.94-11.26-2.59-3.6-5.73-5.52-4.82-2.96-9.26-1c-4.94 2.19-7.39 7.95-10.4 11.86q-2.97 3.87-7.58 2.59c-4.59-1.28-8.75-8.69-13.66-7.06-7.33 2.43-12.15 10.44-15.67 17.14q-5.18 9.84-9.76 18.67c-5.17 9.95-7.17 19.9-8.38 30.8a1.1 1.09 3.1 0 0 1.09 1.21q18.49.08 35.77-.03c2.35-.01 4.65.83 6.91.11q.79-.25 1.51.03.97.38.72 1.64" vector-effect="non-scaling-stroke"/><path stroke="#415f51" d="M133.61 180.11q.97-1.03 2.2-.73" vector-effect="non-scaling-stroke"/><path stroke="#8fa69a" d="M135.81 179.38q4.12.55 8.3.4 6.82-.24 8.29-.2 13.57.31 27.14.08" vector-effect="non-scaling-stroke"/><path stroke="#415f51" d="M179.54 179.66l8.74-.43" vector-effect="non-scaling-stroke"/><path stroke="#8fa69a" d="M188.28 179.23c.81.19 1.23.43 2.06.43q24.88-.08 49.66.08a.71.71 0 0 0 .71-.64q.5-5 .16-9.75-.4-5.65-.19-9.27.34-6.22.26-13.24-.03-2.2-2.23-2.28-13.67-.56-28.47-.29-2.71.05-5.08-.71-.58-.18-.91-.69c-2.03-3.15-1.2-7.43-1.49-11.11q-.2-2.45-.01-5.08.55-7.58.21-15.47a1.12 1.12 0 0 0-1.3-1.05q-2.42.4-4.86.17c-1.67-.16-3.12.81-4.67.2q-1.02-.4-2.11-.3-1.75.15-1.69 1.48" vector-effect="non-scaling-stroke"/><path stroke="#415f51" d="M188.33 111.71q.14.54-.33.64-.72.16-1.27-.31" vector-effect="non-scaling-stroke"/><path stroke="#8fa69a" d="M186.73 112.04q.09-1.37-.69-1.75a1.82 1.82 0 0 0-2.63 1.63q-.03 5.83-.05 12.09-.03 4.5-5.06 6.33" vector-effect="non-scaling-stroke"/><path stroke="#415f51" d="M178.3 130.34q-.74.04-.66 2.93.02.66-.26.06-.33-.71-.17-1.5.01-.05-.02-.09-.05-.05-.11-.03-.1.05-.1.16-.03 1.05-.22 2.12" vector-effect="non-scaling-stroke"/><path stroke="#8fa69a" d="M176.76 133.99q.34-2.29-.32-3.23" vector-effect="non-scaling-stroke"/><path stroke="#415f51" d="M176.44 130.76q-1.42-1.52 2.09-2.69" vector-effect="non-scaling-stroke"/><path stroke="#8fa69a" d="M178.53 128.07q2.9-1.46 2.89-3.44-.01-6.65.22-13.36.02-.5-.46-.68-1.67-.64-3.41.41" vector-effect="non-scaling-stroke"/><path stroke="#415f51" d="M177.77 111l-.25.8q-.13.38-.52.32-.14-.03-.3-.09" vector-effect="non-scaling-stroke"/><path stroke="#b1b9b6" d="M178.53 128.07l-.57-.15q-.53-.14-.52-.68l.33-16.24m10.51 68.23l.05-67.52m-1.6.33l.09 65.87a1.71 1.71 0 0 1-1.7 1.71l-5.58.04m-43.73-.28q-2.58-2.39-2.77-6.9-.18-4.18.13-8.65.09-1.37 1.46-1.37l12.22.03a1.96 1.96 0 0 1 1.93 2.24q-.72 4.94-.2 10.24.21 2.13.54.01.7-4.58-.06-9.1-.32-1.92.95-3.11.34-.31.8-.31 10.44-.02 20.88-.11 5-.04 6.13-4.82.4-1.65.38-2.53-.24-12.39.1-24.66" vector-effect="non-scaling-stroke"/><path stroke="#b1b9b6" d="M176.44 130.76q-2.04-.26-3.54.23-.54.18-.84.67-2.2 3.58-7.2 3.62-5.21.04-9.92-.24c-4.72-.28-5.9 3.42-5.87 7.46q.08 8.13.18 16.92.01 1.39 1.4 1.38 8.93-.07 20.28-.04c3.83 0 5.63-1.85 5.49-6.02q-.16-4.88.34-20.75m-27.9468 53.43a1.86.38 89.9 0 0 .3768-1.8607 1.86.38 89.9 0 0-.3832-1.8593 1.86.38 89.9 0 0-.3768 1.8607 1.86.38 89.9 0 0 .3832 1.8593" vector-effect="non-scaling-stroke"/><path stroke="#888" d="M138.32 261.85c-6.4 1.23-17.12 1.97-20.64-5-2.91-5.77-2.32-15.53-1.28-21.47 2.25-12.77 16.99-10.03 26.73-7.49q1.86.48 2.27-1.4l.09-.42q.58-2.66-2.04-3.4-10.58-3.01-20.04-1.52-10.21 1.6-12.65 12.03-1.9 8.14-.49 19.35c.97 7.74 4.88 13.06 12.77 14.41q9.66 1.65 19.53-.98c2.26-.61 2.52-3.19 2.55-5.1q.17-9.62-.03-19.24-.02-.87-.89-.88l-11.12-.12q-2.06-.02-2.11 2.04l-.01.71q-.05 1.96 1.9 2.23l5.86.83q.69.1.68.79l-.2 13.57a1.09 1.09 0 0 1-.88 1.06m22.8-22.74l6.92-.59q1.89-.16 1.95-2.06l.02-.96q.05-1.74-1.7-1.74-6.58-.01-12.13 2.29-1.99.83-2.02 3.01c-.11 8.64.44 17.44-.33 25.95q-.15 1.68 1.54 1.74l2.58.08q1.58.04 1.58-1.54l-.03-24.41a1.78 1.77 87.5 0 1 1.62-1.77m16.93 15.88q-.09-.93.85-.94l19.64-.04a1.22 1.22 0 0 0 1.22-1.19c.14-6.33.48-15.73-7.26-18.16-5.52-1.73-15.82-1.77-18.22 5-2.66 7.48-3.85 23.73 6.22 26.9q7.45 2.35 16.01-.39 1.54-.5 1.52-2.12l-.02-.94q-.02-1.74-1.7-1.27-5.71 1.58-10.37 1.31-7.17-.43-7.89-8.16m33.04-.27a.61.6 87.4 0 1 .6-.66l19.97-.09a1.13 1.13 0 0 0 1.13-1.04q.46-5.79-.87-11.36c-1.91-8-11.52-8.73-18.16-7.14q-5.23 1.26-6.81 6.37-2.18 7.02-.83 15.95c.74 4.9 3.48 9 8.61 10.13q7.66 1.7 15.02-.8 2.07-.71 1.49-2.83-.22-.78-1.01-1.27a1.63 1.63 0 0 0-1.35-.16c-7.25 2.33-16.89 3.07-17.79-7.1m48.65-15.13q.85 2.43.85 4.95-.01 11.2.1 21.55.01.81.82.83l3.33.04a1.15 1.14 1 0 0 1.16-1.11q.27-10.46.15-20.13c-.08-6.08-.16-11.63-8.15-11.94q-8.77-.34-16.56 2.69a1.75 1.75 0 0 0-1.12 1.62l-.18 27.72q-.01.93.92.94l3.4.04q1.26.02 1.26-1.25v-24.48q0-1.66 1.63-1.99c3.71-.74 8.01-1.33 11.63-.22q.57.18.76.74m20.2925 39.443a1.26 1.26 0 0 0-1.2818-1.2378l-2.9195.051a1.26 1.26 0 0 0-1.2379 1.2818l.1142 6.539a1.26 1.26 0 0 0 1.2818 1.2378l2.9195-.051a1.26 1.26 0 0 0 1.2379-1.2818l-.1142-6.539M84.6 308.81q-.49.19-.64-.32l-8.28-29.09a.93.92-7.9 0 0-.89-.67l-10.82.05a.5.5 0 0 0-.5.46l-3.39 44.2q-.04.65.6.62l4.09-.15a1.01 1-88.7 0 0 .96-.93l2.92-38.48a.99.99 0 0 1 1.57-.72q.98.71 1.35 1.94 4.11 13.83 8.95 29.23a.77.76 81.2 0 0 .73.54l5.99.01a1.06 1.05-80.8 0 0 1-.73l9.73-30.32a1.09 1.09 0 0 1 1.89-.34q.53.66.62 1.89 1.43 18.98 3.04 37.26.07.77.84.76l4.16-.05q.86-.01.79-.87l-3.54-43.15a1.32 1.31 87.4 0 0-1.32-1.21l-9.39.05a1.5 1.5 0 0 0-1.43 1.08q-4.43 15.07-8.45 28.32-.13.45-.58.62m139.66-12q-.01-.55.54-.55l8.45-.02q1.74 0 1.74-1.74v-.84q0-1.83-1.83-1.85l-8.16-.11a.68.68 0 0 1-.67-.69l.21-8.31q.05-2.24-2.1-1.62l-1.95.56a2.08 2.07-8 0 0-1.51 1.99q0 15.88.11 31.45c.02 2.58.09 6.04 2.34 7.76 3.54 2.71 8.68 2.15 12.7 1.09a1.9 1.89-9.2 0 0 1.41-1.94q-.02-.26-.08-.51-.51-1.95-2.5-1.59c-2.99.53-8.54 1.31-8.52-2.61q.06-10.38-.18-20.47m-80.2809 5.9339a11.56 11.56 0 0 0-11.5399-11.5802l-4.2599-.0074a11.56 11.56 0 0 0-11.5802 11.5398l-.0182 10.4a11.56 11.56 0 0 0 11.5399 11.5802l4.2599.0074a11.56 11.56 0 0 0 11.5802-11.5398l.0182-10.4M156.11 306.81q.31-6.72.09-14.15-.05-1.81-1.82-1.46l-1.86.37q-1.66.32-1.66 2.02 0 10.48.13 20.82.04 3.69 1.92 6.5c3 4.48 11.58 4.38 16.1 3.37 6.36-1.43 7.79-6.47 7.66-12.26q-.23-10.6.05-19.84.04-1.32-1.24-1l-3.17.81q-1.16.29-1.14 1.49.2 10.88.08 21.19-.06 5-5.23 5.75c-3.29.47-8.59.29-9.38-4.04q-.77-4.27-.53-9.57m34.52-9.8q.36-.44.92-.53 3.7-.58 7.27-1.14 3.56-.56 5.8 1.53a1.52 1.47-72.8 0 1 .45.89q.4 3.08.42 6.12.1 12.51-.17 18.89a1.24 1.23 1.6 0 0 1.23 1.29h3.16q1.19 0 1.17-1.2-.22-10.67-.11-23.16.06-6.85-5.36-8.01-6.85-1.46-17.1 1.24c-2.26.59-3.42 2.18-3.36 4.57q.23 10.27-.08 25.05-.03 1.51 1.48 1.54l2.57.06q1.36.03 1.36-1.33v-24.83q0-.56.35-.98m69.21 5.6a1.27 1.25 4 0 1-1.02.87q-6.36.92-12.44 2.1-5.24 1.03-6.41 5.42c-1.09 4.07-.27 10.42 4.16 12.42 5.19 2.34 12.53 1.49 17.96.27 3.37-.76 3.37-3.85 3.41-6.65q.11-9.38-.03-18.34-.1-6.46-6.52-7.25-8.49-1.05-16.67 1.28a1.45 1.44-8 0 0-1.05 1.39l.01 1.93a1.3 1.3 0 0 0 1.68 1.24q7.9-2.36 15.28-.94a2.3 2.29-2.3 0 1 1.78 1.64q.62 2.22-.14 4.62m35.21-5.44q.47-.61 1.16-.76 5.5-1.17 10.08-.83 3.4.25 3.5 3.66.37 11.65.09 23.87-.03.99.96.93l3.63-.22q.96-.06.93-1.02-.29-9.02-.11-20.17.07-4.7-.98-7.56c-2.46-6.67-18.06-3.33-22.64-1.64q-2.24.83-2.22 3.32.11 12.25-.12 25.8-.02 1.7 1.67 1.63l2.13-.1q1.63-.06 1.63-1.7l-.02-24.31a1.48 1.46-26.6 0 1 .31-.9m-15.02-4.39a.75.75 0 0 0-.75-.75h-3.82a.75.75 0 0 0-.75.75v30.4a.75.75 0 0 0 .75.75h3.82a.75.75 0 0 0 .75-.75v-30.4" vector-effect="non-scaling-stroke"/><path stroke="#8fa69a" d="M240.8359 182.7841a1.63 1.63 0 0 0-1.6328-1.6272l-49.3399.0862a1.63 1.63 0 0 0-1.6272 1.6328l.0081 4.62a1.63 1.63 0 0 0 1.6328 1.6272l49.3399-.0862a1.63 1.63 0 0 0 1.6272-1.6328l-.0081-4.62" vector-effect="non-scaling-stroke"/><path stroke="#b1b9b6" d="M238.39 167.54q1.49-.5-.08-.5-16.06-.04-32.81-.36-5.27-.1-7.75-.38c-3.27-.38-3.81-4.65-3.84-7.4q-.06-8.21-.38-16.22c-.12-3.02.36-5.94.15-8.91q-.22-3.3.01-6.59.49-6.66.12-13.49-.04-.69-.35-1.28-.52-.96-.54.13-.51 27.94-.23 45.13c.05 2.81-.05 8.21 3.62 9.19q2.74.75 5.13.84 13.76.56 33.93.32 1.61-.02 3.02-.48m-12.7295 7.9777a1.71.41 93 0 0 .4989-1.6862 1.71.41 93 0 0-.3199-1.7292 1.71.41 93 0 0-.4989 1.6862 1.71.41 93 0 0 .3199 1.7292M170.59 130.99a.43.42 7.2 0 0-.46-.59c-1.53.27-2.85.7-4.44.67q-13.66-.26-26.38.08-6.57.18-6.46 6.93.14 8.82.23 20.71.01 2.01 2.03 1.99l12.8-.12a.65.64 86.4 0 0 .63-.72q-.94-8.5-.36-18.4c.19-3.27 1.11-7.29 5.2-7.26q6.09.03 12.34.13 3.35.05 4.87-3.42" vector-effect="non-scaling-stroke"/><path stroke="#888" d="M178.66 249.5l15.06-.02a.29.29 0 0 0 .29-.29l-.01-3.3a7.61 6.5 89.9 0 0-6.51-7.6h-2.64a7.61 6.5 89.9 0 0-6.49 7.62l.01 3.3a.29.29 0 0 0 .29.29m33.06.14l15.14-.18a.26.26 0 0 0 .25-.27l-.04-3.21a7.65 5.7 89.3 0 0-5.79-7.58l-4.26.06a7.65 5.7 89.3 0 0-5.6 7.72l.04 3.21a.26.26 0 0 0 .26.25m-73.3516 52.892a6.82 6.82 0 0 0-6.7842-6.8557l-2.3599-.0123a6.82 6.82 0 0 0-6.8557 6.7842l-.057 10.8998a6.82 6.82 0 0 0 6.7842 6.8557l2.3599.0123a6.82 6.82 0 0 0 6.8557-6.7842l.057-10.8998M260.62 319.77l-.78-11.44a.22.22 0 0 0-.23-.2l-7.21.49a7.53 4.65-3.9 0 0-7.2 5.15l.18 2.6a7.53 4.65-3.9 0 0 7.82 4.12l7.22-.49a.22.22 0 0 0 .2-.23" vector-effect="non-scaling-stroke"/></g><path fill="#fff" d="M0 0h386v404H0V0zm176.7 112.03l-.03 15.89q-.01.49-.5.56l-2.19.29q-.59.08-.68-.5-1.23-7.56-.48-15.23 0-.06-.06-.07l-.25-.02q-.25-.03-.28.22-.7 7.42-.04 14.78a.58.58 0 0 1-.57.64q-14.35.24-32.03.18c-6.42-.02-9.37 3.72-9.18 9.81q.35 10.95.02 20.98a1.27 1.27 0 0 1-1.24 1.23l-12.01.24a.64.64 0 0 0-.54.97l.21.35q.33.55.97.46 5.76-.81 11.72-.49a1.09 1.09 0 0 1 1.03 1.11q-.07 4.85.38 9.8.4 4.39 2.66 6.88 1.76 1.23 3.89 1.24 24.24.17 48.15-.17 1.13-.02 1.15 1.11l.1 5.69a1.08 1.08 0 0 1-1.09 1.1q-18.64-.22-37.81-.03-6.72.06-19.33-.48-.46-.01-.36.43l.08.38a.95.95 0 0 0 .89.74q7.93.32 15.71.39c1.63.01 2.97.75 4.6.4q1.64-.36 3.26-.33 15.77.26 32.59-.07a1.65 1.65 0 0 1 1.68 1.7l-.38 14.54a.48.48 0 0 0 .48.49l.48-.01q.83-.01.82-.84l-.16-14.93q-.01-1.16 1.15-1.21c1.45-.06 3.02.29 4.34.29q21.08.01 42.15.07c6.08.02 6.49-3.42 6.5-8.15a.87.86 88.6 0 1 .82-.87l7.01-.39a.31.31 0 0 0 .28-.41l-.13-.37q-.25-.76-1.05-.74l-6.16.09a1 .99 0 0 1-1.01-1l.02-9.96a.82.81-88 0 1 .87-.82q6.9.46 14.47-.23.26-.02.25-.28l-.01-.32q0-.07-.08-.07-6.97-.22-14.31.44a1.44 1.44 0 0 1-1.57-1.55q.84-9.87.55-19.18c-.15-4.74-6.47-4.11-9.67-4.14q-11.37-.13-24.66.06a3.39 3.38-.9 0 1-3.43-3.31c-.12-5.06-.28-9.92.05-15.01q.42-6.72-.1-12.97a1.09 1.09 0 0 1 1.09-1.18l37.99.03a.53.53 0 0 0 .52-.66c-5.05-20.52-13.32-39.65-25.16-56.77q-4.08-5.9-7.94-11.26-2.59-3.6-5.73-5.52-4.82-2.96-9.26-1c-4.94 2.19-7.39 7.95-10.4 11.86q-2.97 3.87-7.58 2.59c-4.59-1.28-8.75-8.69-13.66-7.06-7.33 2.43-12.15 10.44-15.67 17.14q-5.18 9.84-9.76 18.67c-5.17 9.95-7.17 19.9-8.38 30.8a1.1 1.09 3.1 0 0 1.09 1.21q18.49.08 35.77-.03c2.35-.01 4.65.83 6.91.11q.79-.25 1.51.03.97.38.72 1.64zm-27.8868 75.39a1.86.38 89.9 0 0 .3768-1.8607 1.86.38 89.9 0 0-.3832-1.8593 1.86.38 89.9 0 0-.3768 1.8607 1.86.38 89.9 0 0 .3832 1.8593zM138.32 261.85c-6.4 1.23-17.12 1.97-20.64-5-2.91-5.77-2.32-15.53-1.28-21.47 2.25-12.77 16.99-10.03 26.73-7.49q1.86.48 2.27-1.4l.09-.42q.58-2.66-2.04-3.4-10.58-3.01-20.04-1.52-10.21 1.6-12.65 12.03-1.9 8.14-.49 19.35c.97 7.74 4.88 13.06 12.77 14.41q9.66 1.65 19.53-.98c2.26-.61 2.52-3.19 2.55-5.1q.17-9.62-.03-19.24-.02-.87-.89-.88l-11.12-.12q-2.06-.02-2.11 2.04l-.01.71q-.05 1.96 1.9 2.23l5.86.83q.69.1.68.79l-.2 13.57a1.09 1.09 0 0 1-.88 1.06zm22.8-22.74l6.92-.59q1.89-.16 1.95-2.06l.02-.96q.05-1.74-1.7-1.74-6.58-.01-12.13 2.29-1.99.83-2.02 3.01c-.11 8.64.44 17.44-.33 25.95q-.15 1.68 1.54 1.74l2.58.08q1.58.04 1.58-1.54l-.03-24.41a1.78 1.77 87.5 0 1 1.62-1.77zm16.93 15.88q-.09-.93.85-.94l19.64-.04a1.22 1.22 0 0 0 1.22-1.19c.14-6.33.48-15.73-7.26-18.16-5.52-1.73-15.82-1.77-18.22 5-2.66 7.48-3.85 23.73 6.22 26.9q7.45 2.35 16.01-.39 1.54-.5 1.52-2.12l-.02-.94q-.02-1.74-1.7-1.27-5.71 1.58-10.37 1.31-7.17-.43-7.89-8.16zm33.04-.27a.61.6 87.4 0 1 .6-.66l19.97-.09a1.13 1.13 0 0 0 1.13-1.04q.46-5.79-.87-11.36c-1.91-8-11.52-8.73-18.16-7.14q-5.23 1.26-6.81 6.37-2.18 7.02-.83 15.95c.74 4.9 3.48 9 8.61 10.13q7.66 1.7 15.02-.8 2.07-.71 1.49-2.83-.22-.78-1.01-1.27a1.63 1.63 0 0 0-1.35-.16c-7.25 2.33-16.89 3.07-17.79-7.1zm48.65-15.13q.85 2.43.85 4.95-.01 11.2.1 21.55.01.81.82.83l3.33.04a1.15 1.14 1 0 0 1.16-1.11q.27-10.46.15-20.13c-.08-6.08-.16-11.63-8.15-11.94q-8.77-.34-16.56 2.69a1.75 1.75 0 0 0-1.12 1.62l-.18 27.72q-.01.93.92.94l3.4.04q1.26.02 1.26-1.25v-24.48q0-1.66 1.63-1.99c3.71-.74 8.01-1.33 11.63-.22q.57.18.76.74zm20.2925 39.443a1.26 1.26 0 0 0-1.2818-1.2378l-2.9195.051a1.26 1.26 0 0 0-1.2379 1.2818l.1142 6.539a1.26 1.26 0 0 0 1.2818 1.2378l2.9195-.051a1.26 1.26 0 0 0 1.2379-1.2818l-.1142-6.539zM84.6 308.81q-.49.19-.64-.32l-8.28-29.09a.93.92-7.9 0 0-.89-.67l-10.82.05a.5.5 0 0 0-.5.46l-3.39 44.2q-.04.65.6.62l4.09-.15a1.01 1-88.7 0 0 .96-.93l2.92-38.48a.99.99 0 0 1 1.57-.72q.98.71 1.35 1.94 4.11 13.83 8.95 29.23a.77.76 81.2 0 0 .73.54l5.99.01a1.06 1.05-80.8 0 0 1-.73l9.73-30.32a1.09 1.09 0 0 1 1.89-.34q.53.66.62 1.89 1.43 18.98 3.04 37.26.07.77.84.76l4.16-.05q.86-.01.79-.87l-3.54-43.15a1.32 1.31 87.4 0 0-1.32-1.21l-9.39.05a1.5 1.5 0 0 0-1.43 1.08q-4.43 15.07-8.45 28.32-.13.45-.58.62zm139.66-12q-.01-.55.54-.55l8.45-.02q1.74 0 1.74-1.74v-.84q0-1.83-1.83-1.85l-8.16-.11a.68.68 0 0 1-.67-.69l.21-8.31q.05-2.24-2.1-1.62l-1.95.56a2.08 2.07-8 0 0-1.51 1.99q0 15.88.11 31.45c.02 2.58.09 6.04 2.34 7.76 3.54 2.71 8.68 2.15 12.7 1.09a1.9 1.89-9.2 0 0 1.41-1.94q-.02-.26-.08-.51-.51-1.95-2.5-1.59c-2.99.53-8.54 1.31-8.52-2.61q.06-10.38-.18-20.47zm-80.2809 5.9339a11.56 11.56 0 0 0-11.5399-11.5802l-4.2599-.0074a11.56 11.56 0 0 0-11.5802 11.5398l-.0182 10.4a11.56 11.56 0 0 0 11.5399 11.5802l4.2599.0074a11.56 11.56 0 0 0 11.5802-11.5398l.0182-10.4zM156.11 306.81q.31-6.72.09-14.15-.05-1.81-1.82-1.46l-1.86.37q-1.66.32-1.66 2.02 0 10.48.13 20.82.04 3.69 1.92 6.5c3 4.48 11.58 4.38 16.1 3.37 6.36-1.43 7.79-6.47 7.66-12.26q-.23-10.6.05-19.84.04-1.32-1.24-1l-3.17.81q-1.16.29-1.14 1.49.2 10.88.08 21.19-.06 5-5.23 5.75c-3.29.47-8.59.29-9.38-4.04q-.77-4.27-.53-9.57zm34.52-9.8q.36-.44.92-.53 3.7-.58 7.27-1.14 3.56-.56 5.8 1.53a1.52 1.47-72.8 0 1 .45.89q.4 3.08.42 6.12.1 12.51-.17 18.89a1.24 1.23 1.6 0 0 1.23 1.29h3.16q1.19 0 1.17-1.2-.22-10.67-.11-23.16.06-6.85-5.36-8.01-6.85-1.46-17.1 1.24c-2.26.59-3.42 2.18-3.36 4.57q.23 10.27-.08 25.05-.03 1.51 1.48 1.54l2.57.06q1.36.03 1.36-1.33v-24.83q0-.56.35-.98zm69.21 5.6a1.27 1.25 4 0 1-1.02.87q-6.36.92-12.44 2.1-5.24 1.03-6.41 5.42c-1.09 4.07-.27 10.42 4.16 12.42 5.19 2.34 12.53 1.49 17.96.27 3.37-.76 3.37-3.85 3.41-6.65q.11-9.38-.03-18.34-.1-6.46-6.52-7.25-8.49-1.05-16.67 1.28a1.45 1.44-8 0 0-1.05 1.39l.01 1.93a1.3 1.3 0 0 0 1.68 1.24q7.9-2.36 15.28-.94a2.3 2.29-2.3 0 1 1.78 1.64q.62 2.22-.14 4.62zm35.21-5.44q.47-.61 1.16-.76 5.5-1.17 10.08-.83 3.4.25 3.5 3.66.37 11.65.09 23.87-.03.99.96.93l3.63-.22q.96-.06.93-1.02-.29-9.02-.11-20.17.07-4.7-.98-7.56c-2.46-6.67-18.06-3.33-22.64-1.64q-2.24.83-2.22 3.32.11 12.25-.12 25.8-.02 1.7 1.67 1.63l2.13-.1q1.63-.06 1.63-1.7l-.02-24.31a1.48 1.46-26.6 0 1 .31-.9zm-15.02-4.39a.75.75 0 0 0-.75-.75h-3.82a.75.75 0 0 0-.75.75v30.4a.75.75 0 0 0 .75.75h3.82a.75.75 0 0 0 .75-.75v-30.4z"/><path fill="#1f4c35" d="M133.61 180.11q.97-1.03 2.2-.73 4.12.55 8.3.4 6.82-.24 8.29-.2 13.57.31 27.14.08l8.74-.43c.81.19 1.23.43 2.06.43q24.88-.08 49.66.08a.71.71 0 0 0 .71-.64q.5-5 .16-9.75-.4-5.65-.19-9.27.34-6.22.26-13.24-.03-2.2-2.23-2.28-13.67-.56-28.47-.29-2.71.05-5.08-.71-.58-.18-.91-.69c-2.03-3.15-1.2-7.43-1.49-11.11q-.2-2.45-.01-5.08.55-7.58.21-15.47a1.12 1.12 0 0 0-1.3-1.05q-2.42.4-4.86.17c-1.67-.16-3.12.81-4.67.2q-1.02-.4-2.11-.3-1.75.15-1.69 1.48.14.54-.33.64-.72.16-1.27-.31.09-1.37-.69-1.75a1.82 1.82 0 0 0-2.63 1.63q-.03 5.83-.05 12.09-.03 4.5-5.06 6.33-.74.04-.66 2.93.02.66-.26.06-.33-.71-.17-1.5.01-.05-.02-.09-.05-.05-.11-.03-.1.05-.1.16-.03 1.05-.22 2.12.34-2.29-.32-3.23-1.42-1.52 2.09-2.69 2.9-1.46 2.89-3.44-.01-6.65.22-13.36.02-.5-.46-.68-1.67-.64-3.41.41l-.25.8q-.13.38-.52.32-.14-.03-.3-.09.25-1.26-.72-1.64-.72-.28-1.51-.03c-2.26.72-4.56-.12-6.91-.11q-17.28.11-35.77.03a1.1 1.09 3.1 0 1-1.09-1.21c1.21-10.9 3.21-20.85 8.38-30.8q4.58-8.83 9.76-18.67c3.52-6.7 8.34-14.71 15.67-17.14 4.91-1.63 9.07 5.78 13.66 7.06q4.61 1.28 7.58-2.59c3.01-3.91 5.46-9.67 10.4-11.86q4.44-1.96 9.26 1 3.14 1.92 5.73 5.52 3.86 5.36 7.94 11.26c11.84 17.12 20.11 36.25 25.16 56.77a.53.53 0 0 1-.52.66l-37.99-.03a1.09 1.09 0 0 0-1.09 1.18q.52 6.25.1 12.97c-.33 5.09-.17 9.95-.05 15.01a3.39 3.38-.9 0 0 3.43 3.31q13.29-.19 24.66-.06c3.2.03 9.52-.6 9.67 4.14q.29 9.31-.55 19.18a1.44 1.44 0 0 0 1.57 1.55q7.34-.66 14.31-.44.08 0 .08.07l.01.32q.01.26-.25.28-7.57.69-14.47.23a.82.81-88 0 0-.87.82l-.02 9.96a1 .99 0 0 0 1.01 1l6.16-.09q.8-.02 1.05.74l.13.37a.31.31 0 0 1-.28.41l-7.01.39a.87.86 88.6 0 0-.82.87c-.01 4.73-.42 8.17-6.5 8.15q-21.07-.06-42.15-.07c-1.32 0-2.89-.35-4.34-.29q-1.16.05-1.15 1.21l.16 14.93q.01.83-.82.84l-.48.01a.48.48 0 0 1-.48-.49l.38-14.54a1.65 1.65 0 0 0-1.68-1.7q-16.82.33-32.59.07-1.62-.03-3.26.33c-1.63.35-2.97-.39-4.6-.4q-7.78-.07-15.71-.39a.95.95 0 0 1-.89-.74l-.08-.38q-.1-.44.36-.43 12.61.54 19.33.48 19.17-.19 37.81.03a1.08 1.08 0 0 0 1.09-1.1l-.1-5.69q-.02-1.13-1.15-1.11-23.91.34-48.15.17-2.13-.01-3.89-1.24zm107.2259 2.6741a1.63 1.63 0 0 0-1.6328-1.6272l-49.3399.0862a1.63 1.63 0 0 0-1.6272 1.6328l.0081 4.62a1.63 1.63 0 0 0 1.6328 1.6272l49.3399-.0862a1.63 1.63 0 0 0 1.6272-1.6328l-.0081-4.62z"/><path fill="#fff" d="M178.53 128.07l-.57-.15q-.53-.14-.52-.68l.33-16.24q1.74-1.05 3.41-.41.48.18.46.68-.23 6.71-.22 13.36.01 1.98-2.89 3.44z"/><path fill="#fff" d="M186.73 112.04l.09 65.87a1.71 1.71 0 0 1-1.7 1.71l-5.58.04q-13.57.23-27.14-.08-1.47-.04-8.29.2-4.18.15-8.3-.4-2.58-2.39-2.77-6.9-.18-4.18.13-8.65.09-1.37 1.46-1.37l12.22.03a1.96 1.96 0 0 1 1.93 2.24q-.72 4.94-.2 10.24.21 2.13.54.01.7-4.58-.06-9.1-.32-1.92.95-3.11.34-.31.8-.31 10.44-.02 20.88-.11 5-.04 6.13-4.82.4-1.65.38-2.53-.24-12.39.1-24.66 5.03-1.83 5.06-6.33.02-6.26.05-12.09a1.82 1.82 0 0 1 2.63-1.63q.78.38.69 1.75zm1.55 67.19l.05-67.52q-.06-1.33 1.69-1.48 1.09-.1 2.11.3c1.55.61 3-.36 4.67-.2q2.44.23 4.86-.17a1.12 1.12 0 0 1 1.3 1.05q.34 7.89-.21 15.47-.19 2.63.01 5.08c.29 3.68-.54 7.96 1.49 11.11q.33.51.91.69 2.37.76 5.08.71 14.8-.27 28.47.29 2.2.08 2.23 2.28.08 7.02-.26 13.24-.21 3.62.19 9.27.34 4.75-.16 9.75a.71.71 0 0 1-.71.64q-24.78-.16-49.66-.08c-.83 0-1.25-.24-2.06-.43zm50.11-11.69q1.49-.5-.08-.5-16.06-.04-32.81-.36-5.27-.1-7.75-.38c-3.27-.38-3.81-4.65-3.84-7.4q-.06-8.21-.38-16.22c-.12-3.02.36-5.94.15-8.91q-.22-3.3.01-6.59.49-6.66.12-13.49-.04-.69-.35-1.28-.52-.96-.54.13-.51 27.94-.23 45.13c.05 2.81-.05 8.21 3.62 9.19q2.74.75 5.13.84 13.76.56 33.93.32 1.61-.02 3.02-.48zm-12.7295 7.9777a1.71.41 93 0 0 .4989-1.6862 1.71.41 93 0 0-.3199-1.7292 1.71.41 93 0 0-.4989 1.6862 1.71.41 93 0 0 .3199 1.7292z"/><path fill="#62726d" d="M177.77 111l-.33 16.24q-.01.54.52.68l.57.15q-3.51 1.17-2.09 2.69-2.04-.26-3.54.23-.54.18-.84.67-2.2 3.58-7.2 3.62-5.21.04-9.92-.24c-4.72-.28-5.9 3.42-5.87 7.46q.08 8.13.18 16.92.01 1.39 1.4 1.38 8.93-.07 20.28-.04c3.83 0 5.63-1.85 5.49-6.02q-.16-4.88.34-20.75.19-1.07.22-2.12 0-.11.1-.16.06-.02.11.03.03.04.02.09-.16.79.17 1.5.28.6.26-.06-.08-2.89.66-2.93-.34 12.27-.1 24.66.02.88-.38 2.53-1.13 4.78-6.13 4.82-10.44.09-20.88.11-.46 0-.8.31-1.27 1.19-.95 3.11.76 4.52.06 9.1-.33 2.12-.54-.01-.52-5.3.2-10.24a1.96 1.96 0 0 0-1.93-2.24l-12.22-.03q-1.37 0-1.46 1.37-.31 4.47-.13 8.65.19 4.51 2.77 6.9-1.23-.3-2.2.73-2.26-2.49-2.66-6.88-.45-4.95-.38-9.8a1.09 1.09 0 0 0-1.03-1.11q-5.96-.32-11.72.49-.64.09-.97-.46l-.21-.35a.64.64 0 0 1 .54-.97l12.01-.24a1.27 1.27 0 0 0 1.24-1.23q.33-10.03-.02-20.98c-.19-6.09 2.76-9.83 9.18-9.81q17.68.06 32.03-.18a.58.58 0 0 0 .57-.64q-.66-7.36.04-14.78.03-.25.28-.22l.25.02q.06.01.06.07-.75 7.67.48 15.23.09.58.68.5l2.19-.29q.49-.07.5-.56l.03-15.89q.16.06.3.09.39.06.52-.32l.25-.8zm-7.18 19.99a.43.42 7.2 0 0-.46-.59c-1.53.27-2.85.7-4.44.67q-13.66-.26-26.38.08-6.57.18-6.46 6.93.14 8.82.23 20.71.01 2.01 2.03 1.99l12.8-.12a.65.64 86.4 0 0 .63-.72q-.94-8.5-.36-18.4c.19-3.27 1.11-7.29 5.2-7.26q6.09.03 12.34.13 3.35.05 4.87-3.42zm17.74-19.28l-.05 67.52-8.74.43 5.58-.04a1.71 1.71 0 0 0 1.7-1.71l-.09-65.87q.55.47 1.27.31.47-.1.33-.64zm50.06 55.83q-1.41.46-3.02.48-20.17.24-33.93-.32-2.39-.09-5.13-.84c-3.67-.98-3.57-6.38-3.62-9.19q-.28-17.19.23-45.13.02-1.09.54-.13.31.59.35 1.28.37 6.83-.12 13.49-.23 3.29-.01 6.59c.21 2.97-.27 5.89-.15 8.91q.32 8.01.38 16.22c.03 2.75.57 7.02 3.84 7.4q2.48.28 7.75.38 16.75.32 32.81.36 1.57 0 .08.5z"/><path fill="#fff" d="M170.59 130.99q-1.52 3.47-4.87 3.42-6.25-.1-12.34-.13c-4.09-.03-5.01 3.99-5.2 7.26q-.58 9.9.36 18.4a.65.64 86.4 0 1-.63.72l-12.8.12q-2.02.02-2.03-1.99-.09-11.89-.23-20.71-.11-6.75 6.46-6.93 12.72-.34 26.38-.08c1.59.03 2.91-.4 4.44-.67a.43.42 7.2 0 1 .46.59z"/><path fill="#fff" d="M176.44 130.76q.66.94.32 3.23-.5 15.87-.34 20.75c.14 4.17-1.66 6.02-5.49 6.02q-11.35-.03-20.28.04-1.39.01-1.4-1.38-.1-8.79-.18-16.92c-.03-4.04 1.15-7.74 5.87-7.46q4.71.28 9.92.24 5-.04 7.2-3.62.3-.49.84-.67 1.5-.49 3.54-.23z"/><ellipse fill="#62726d" rx="1.71" ry=".41" transform="rotate(93 30.405 194.02)"/><rect width="52.6" height="7.88" x="-26.3" y="-3.94" fill="#fff" rx="1.63" transform="rotate(-.1 106184.65 -122829.764)"/><ellipse fill="#62726d" rx="1.86" ry=".38" transform="rotate(89.9 -18.537 167.315)"/><path fill="#111" d="M138.32 261.85a1.09 1.09 0 0 0 .88-1.06l.2-13.57q.01-.69-.68-.79l-5.86-.83q-1.95-.27-1.9-2.23l.01-.71q.05-2.06 2.11-2.04l11.12.12q.87.01.89.88.2 9.62.03 19.24c-.03 1.91-.29 4.49-2.55 5.1q-9.87 2.63-19.53.98c-7.89-1.35-11.8-6.67-12.77-14.41q-1.41-11.21.49-19.35 2.44-10.43 12.65-12.03 9.46-1.49 20.04 1.52 2.62.74 2.04 3.4l-.09.42q-.41 1.88-2.27 1.4c-9.74-2.54-24.48-5.28-26.73 7.49-1.04 5.94-1.63 15.7 1.28 21.47 3.52 6.97 14.24 6.23 20.64 5zm22.8-22.74a1.78 1.77 87.5 0 0-1.62 1.77l.03 24.41q0 1.58-1.58 1.54l-2.58-.08q-1.69-.06-1.54-1.74c.77-8.51.22-17.31.33-25.95q.03-2.18 2.02-3.01 5.55-2.3 12.13-2.29 1.75 0 1.7 1.74l-.02.96q-.06 1.9-1.95 2.06l-6.92.59zm16.93 15.88q.72 7.73 7.89 8.16 4.66.27 10.37-1.31 1.68-.47 1.7 1.27l.02.94q.02 1.62-1.52 2.12-8.56 2.74-16.01.39c-10.07-3.17-8.88-19.42-6.22-26.9 2.4-6.77 12.7-6.73 18.22-5 7.74 2.43 7.4 11.83 7.26 18.16a1.22 1.22 0 0 1-1.22 1.19l-19.64.04q-.94.01-.85.94zm.61-5.49l15.06-.02a.29.29 0 0 0 .29-.29l-.01-3.3a7.61 6.5 89.9 0 0-6.51-7.6h-2.64a7.61 6.5 89.9 0 0-6.49 7.62l.01 3.3a.29.29 0 0 0 .29.29zm32.43 5.22c.9 10.17 10.54 9.43 17.79 7.1a1.63 1.63 0 0 1 1.35.16q.79.49 1.01 1.27.58 2.12-1.49 2.83-7.36 2.5-15.02.8c-5.13-1.13-7.87-5.23-8.61-10.13q-1.35-8.93.83-15.95 1.58-5.11 6.81-6.37c6.64-1.59 16.25-.86 18.16 7.14q1.33 5.57.87 11.36a1.13 1.13 0 0 1-1.13 1.04l-19.97.09a.61.6 87.4 0 0-.6.66zm.63-5.08l15.14-.18a.26.26 0 0 0 .25-.27l-.04-3.21a7.65 5.7 89.3 0 0-5.79-7.58l-4.26.06a7.65 5.7 89.3 0 0-5.6 7.72l.04 3.21a.26.26 0 0 0 .26.25zm47.26-10.79c-3.62-1.11-7.92-.52-11.63.22q-1.63.33-1.63 1.99v24.48q0 1.27-1.26 1.25l-3.4-.04q-.93-.01-.92-.94l.18-27.72a1.75 1.75 0 0 1 1.12-1.62q7.79-3.03 16.56-2.69c7.99.31 8.07 5.86 8.15 11.94q.12 9.67-.15 20.13a1.15 1.14 1 0 1-1.16 1.11l-3.33-.04q-.81-.02-.82-.83-.11-10.35-.1-21.55 0-2.52-.85-4.95-.19-.56-.76-.74z"/><path fill="#fff" d="M178.66 249.5a.29.29 0 0 1-.29-.29l-.01-3.3a7.61 6.5 89.9 0 1 6.49-7.62h2.64a7.61 6.5 89.9 0 1 6.51 7.6l.01 3.3a.29.29 0 0 1-.29.29l-15.06.02zm33.06.14a.26.26 0 0 1-.26-.25l-.04-3.21a7.65 5.7 89.3 0 1 5.6-7.72l4.26-.06a7.65 5.7 89.3 0 1 5.79 7.58l.04 3.21a.26.26 0 0 1-.25.27l-15.14.18z"/><rect width="5.44" height="9.06" x="-2.72" y="-4.53" fill="#111" rx="1.26" transform="rotate(-1 16315.738 -15750.552)"/><path fill="#111" d="M84.6 308.81q.45-.17.58-.62 4.02-13.25 8.45-28.32a1.5 1.5 0 0 1 1.43-1.08l9.39-.05a1.32 1.31 87.4 0 1 1.32 1.21l3.54 43.15q.07.86-.79.87l-4.16.05q-.77.01-.84-.76-1.61-18.28-3.04-37.26-.09-1.23-.62-1.89a1.09 1.09 0 0 0-1.89.34l-9.73 30.32a1.06 1.05-80.8 0 1-1 .73l-5.99-.01a.77.76 81.2 0 1-.73-.54q-4.84-15.4-8.95-29.23-.37-1.23-1.35-1.94a.99.99 0 0 0-1.57.72l-2.92 38.48a1.01 1-88.7 0 1-.96.93l-4.09.15q-.64.03-.6-.62l3.39-44.2a.5.5 0 0 1 .5-.46l10.82-.05a.93.92-7.9 0 1 .89.67l8.28 29.09q.15.51.64.32zm139.66-12q.24 10.09.18 20.47c-.02 3.92 5.53 3.14 8.52 2.61q1.99-.36 2.5 1.59.06.25.08.51a1.9 1.89-9.2 0 1-1.41 1.94c-4.02 1.06-9.16 1.62-12.7-1.09-2.25-1.72-2.32-5.18-2.34-7.76q-.11-15.57-.11-31.45a2.08 2.07-8 0 1 1.51-1.99l1.95-.56q2.15-.62 2.1 1.62l-.21 8.31a.68.68 0 0 0 .67.69l8.16.11q1.83.02 1.83 1.85v.84q0 1.74-1.74 1.74l-8.45.02q-.55 0-.54.55zm-80.2991 16.3339a11.56 11.56 0 0 1-11.5802 11.5398l-4.2599-.0074a11.56 11.56 0 0 1-11.5399-11.5802l.0182-10.4a11.56 11.56 0 0 1 11.5802-11.5398l4.2599.0074a11.56 11.56 0 0 1 11.5399 11.5802l-.0182 10.4zm-5.5925-10.6119a6.82 6.82 0 0 0-6.7842-6.8557l-2.3599-.0123a6.82 6.82 0 0 0-6.8557 6.7842l-.057 10.8998a6.82 6.82 0 0 0 6.7842 6.8557l2.3599.0123a6.82 6.82 0 0 0 6.8557-6.7842l.057-10.8998zm17.7416 4.278q-.24 5.3.53 9.57c.79 4.33 6.09 4.51 9.38 4.04q5.17-.75 5.23-5.75.12-10.31-.08-21.19-.02-1.2 1.14-1.49l3.17-.81q1.28-.32 1.24 1-.28 9.24-.05 19.84c.13 5.79-1.3 10.83-7.66 12.26-4.52 1.01-13.1 1.11-16.1-3.37q-1.88-2.81-1.92-6.5-.13-10.34-.13-20.82 0-1.7 1.66-2.02l1.86-.37q1.77-.35 1.82 1.46.22 7.43-.09 14.15zm34.52-9.8q-.35.42-.35.98v24.83q0 1.36-1.36 1.33l-2.57-.06q-1.51-.03-1.48-1.54.31-14.78.08-25.05c-.06-2.39 1.1-3.98 3.36-4.57q10.25-2.7 17.1-1.24 5.42 1.16 5.36 8.01-.11 12.49.11 23.16.02 1.2-1.17 1.2h-3.16a1.24 1.23 1.6 0 1-1.23-1.29q.27-6.38.17-18.89-.02-3.04-.42-6.12a1.52 1.47-72.8 0 0-.45-.89q-2.24-2.09-5.8-1.53-3.57.56-7.27 1.14-.56.09-.92.53zm69.21 5.6q.76-2.4.14-4.62a2.3 2.29-2.3 0 0-1.78-1.64q-7.38-1.42-15.28.94a1.3 1.3 0 0 1-1.68-1.24l-.01-1.93a1.45 1.44-8 0 1 1.05-1.39q8.18-2.33 16.67-1.28 6.42.79 6.52 7.25.14 8.96.03 18.34c-.04 2.8-.04 5.89-3.41 6.65-5.43 1.22-12.77 2.07-17.96-.27-4.43-2-5.25-8.35-4.16-12.42q1.17-4.39 6.41-5.42 6.08-1.18 12.44-2.1a1.27 1.25 4 0 0 1.02-.87zm.78 17.16l-.78-11.44a.22.22 0 0 0-.23-.2l-7.21.49a7.53 4.65-3.9 0 0-7.2 5.15l.18 2.6a7.53 4.65-3.9 0 0 7.82 4.12l7.22-.49a.22.22 0 0 0 .2-.23zm34.43-22.6a1.48 1.46-26.6 0 0-.31.9l.02 24.31q0 1.64-1.63 1.7l-2.13.1q-1.69.07-1.67-1.63.23-13.55.12-25.8-.02-2.49 2.22-3.32c4.58-1.69 20.18-5.03 22.64 1.64q1.05 2.86.98 7.56-.18 11.15.11 20.17.03.96-.93 1.02l-3.63.22q-.99.06-.96-.93.28-12.22-.09-23.87-.1-3.41-3.5-3.66-4.58-.34-10.08.83-.69.15-1.16.76z"/><rect width="5.32" height="31.9" x="274.71" y="292.03" fill="#111" rx=".75"/><rect width="16" height="24.54" x="-8" y="-12.27" fill="#fff" rx="6.82" transform="rotate(.3 -58746.903 25047.02)"/><path fill="#fff" d="M260.62 319.77a.22.22 0 0 1-.2.23l-7.22.49a7.53 4.65-3.9 0 1-7.82-4.12l-.18-2.6a7.53 4.65-3.9 0 1 7.2-5.15l7.21-.49a.22.22 0 0 1 .23.2l.78 11.44z"/></svg>