<svg xmlns="http://www.w3.org/2000/svg" role="img" viewBox="20.90 13.40 577.20 222.20"><title>HKS logo</title><style>svg {enable-background:new 0 0 622 250}</style><style>.st3{fill:#01426a}</style><path d="M461 158.1c-2.6 1.9-5.4 3.6-8.3 5-2.9 1.4-6.8 2.1-11.7 2.1-5.2 0-9-1.9-11.4-5.6-2.4-3.8-3.5-9.1-3.5-16.1V89.8h27l17-25.2h-44V24.8h-30.9v39.8h-28.1l-41 61.2-41.7-61.2h-50.8l-40.9 61.6 40.9 61.6h38.5l-40.9-61.6L260.7 82l46.9 71.6-47.9 71.4h33.4l90.5-135.3h11.6v55.8c0 6.8.7 13.1 2.1 18.7 1.4 5.7 3.7 10.5 6.9 14.5s7.5 7.1 12.7 9.3c5.2 2.2 11.6 3.3 19.1 3.3 7.3 0 14-1.1 19.9-3.3 5.9-2.2 12-5.8 18.1-10.9l-13-19z" class="st3"/><path fill="#00b5e2" d="M190.4 64.6h-38.5l40.9 61.5-40.9 61.6h38.5l40.9-61.6z"/><path fill="#006ba6" d="M231.3 126.1l-19.2-29-19.3 29 19.3 29z"/><path d="M141.8 82.7c-4.7-6.6-11-12-18.7-16.1-7.8-4.1-17.3-6.2-28.4-6.2-9.3 0-17.7 1.7-25.3 5-7.6 3.3-14.1 7.9-19.7 13.6-5.5 5.8-9.8 12.5-12.8 20.3-3.1 7.8-4.6 16.2-4.6 25.3 0 10 1.5 19 4.6 27.2C40 160 44.3 167 50 172.9c5.7 5.9 12.5 10.4 20.6 13.8 8 3.3 16.9 5 26.7 5 9.6 0 17.9-1 24.8-3.1 6.9-2.1 12.6-4.5 17-7.1 4.5-2.6 7.9-5.1 10.2-7.5l4.3-4.3-16.8-18.9c-1 1-2.6 2.4-4.6 4.1-2 1.7-4.6 3.2-7.7 4.7-3.1 1.5-6.9 2.8-11.4 3.9s-9.7 1.7-15.6 1.7c-4 0-8.1-.7-12.2-2.1-4.1-1.4-7.8-3.4-11-6s-5.9-5.8-7.9-9.4c-2-3.7-3-7.8-3-12.3h91.7v-4.5c0-8.7-1-17.3-3.1-25.7-2.1-8.4-5.5-15.9-10.2-22.5zm-78.6 30.4c0-3.1.7-6.3 2.1-9.4 1.4-3.1 3.4-6 6-8.5s5.9-4.6 9.8-6.3c3.9-1.7 8.4-2.5 13.5-2.5 4.7 0 8.9.8 12.6 2.5 3.7 1.7 6.7 3.8 9 6.3 2.4 2.5 4.1 5.4 5.4 8.5 1.2 3.1 1.8 6.3 1.8 9.4H63.2z" class="st3"/><path d="M555.6 113.1h-60.3c0-3.1.7-6.3 2.1-9.4 1.4-3.1 3.4-6 6-8.5s5.9-4.6 9.8-6.3c3.9-1.7 8.4-2.5 13.5-2.5 4.7 0 8.9.8 12.6 2.5 3.7 1.7 6.7 3.8 9 6.3 2.4 2.5 4.1 5.4 5.4 8.5 1.3 3.1 1.9 6.2 1.9 9.4m31.7 22.3v-4.5c0-8.7-1-17.3-3.1-25.7s-5.5-15.9-10.2-22.5c-4.7-6.6-11-12-18.7-16.1-7.8-4.1-17.3-6.2-28.4-6.2-9.3 0-17.7 1.7-25.3 5-7.6 3.3-14.1 7.9-19.6 13.6-5.5 5.8-9.8 12.5-12.8 20.3-3.1 7.8-4.6 16.2-4.6 25.3 0 10 1.5 19 4.6 27.2 3.1 8.2 7.4 15.2 13.1 21.1 5.7 5.9 12.5 10.4 20.6 13.8 8 3.3 16.9 5 26.7 5 9.6 0 17.9-1 24.8-3.1 6.9-2.1 12.6-4.5 17-7.1s7.9-5.1 10.2-7.5l4.3-4.3-16.9-18.9c-1 1-2.6 2.4-4.6 4.1-2 1.7-4.6 3.2-7.7 4.7-3.1 1.5-6.9 2.8-11.4 3.9s-9.7 1.7-15.6 1.7c-4 0-8.1-.7-12.2-2.1-4.1-1.4-7.8-3.4-11-6s-5.9-5.8-7.9-9.4c-2-3.7-3-7.8-3-12.3h91.7z" class="st3"/></svg>