<svg xmlns="http://www.w3.org/2000/svg" role="img" viewBox="-14.21 -14.21 920.92 179.92"><title>Jabil logo</title><defs><clipPath id="a"><path d="M-625.536 792.015h1237.5v-810h-1237.5v810z"/></clipPath><clipPath id="b"><path d="M611.964 792h-1237.5V-18h1237.5v810z"/></clipPath><clipPath id="c"><path d="M0 774h594V.015H0V774z"/></clipPath></defs><g clip-path="url(#a)" transform="translate(31.388 -491.484) matrix(6.76953 0 0 -6.76953 -2917.953 1335.136)"><g clip-path="url(#b)"><g clip-path="url(#c)"><path fill="#0d4d84" fill-opacity="1" fill-rule="nonzero" stroke="none" d="M432.231 102.702c-2.077 0-3.481.354-4.209 1.062-.728.707-1.093 2.037-1.093 3.993v4.438l5.019.953v-6.426h9.771v17.371h4.989v-16.336c0-1.956-.369-3.286-1.105-3.993-.737-.708-2.14-1.062-4.208-1.062h-9.164"/><path fill="#0d4d84" fill-opacity="1" fill-rule="nonzero" stroke="none" d="M451.929 102.702l12.091 21.391h4.794l12.253-21.391h-5.58l-3.756 6.979-12.301-2.275-.68-1.23-1.867-3.474h-4.954zm9.564 8.539h9.363l-4.611 8.703-4.752-8.703"/><path fill="#0d4d84" fill-opacity="1" fill-rule="nonzero" stroke="none" d="M487.95 102.702v21.391h18.314c1.691 0 2.915-.332 3.673-.994.758-.662 1.136-1.716 1.136-3.162v-2.599c0-1.024-.316-1.841-.948-2.453-.633-.613-1.541-.993-2.724-1.141 1.228-.162 2.177-.601 2.846-1.317.668-.717 1.002-1.648 1.002-2.797v-2.739c0-1.417-.522-2.469-1.564-3.157-1.043-.688-2.628-1.032-4.754-1.032H487.95zm16.233 17.9h-11.332v-5.077h11.332c.862 0 1.458.114 1.788.343.33.227.495.623.495 1.188v2.014c0 .55-.165.944-.495 1.179-.33.235-.926.353-1.788.353m0-8.598h-11.332v-5.458h11.332c.953 0 1.596.141 1.93.425.333.285.5.786.5 1.502v1.623c0 .718-.167 1.215-.5 1.491-.334.278-.977.417-1.93.417"/><path fill="#0d4d84" fill-opacity="1" fill-rule="nonzero" stroke="none" d="M525.833 102.702h-4.9888v21.391h4.9888v-21.391z"/><path fill="#0d4d84" fill-opacity="1" fill-rule="nonzero" stroke="none" d="M536.745 102.702v21.391h4.989v-17.371h16.05v-4.02h-21.039"/><path fill="#00875d" fill-opacity="1" fill-rule="nonzero" stroke="none" d="M463.151 114.285l-4.401-8.109 31.234 8.097-26.833.012"/></g></g></g></svg>