<svg xmlns="http://www.w3.org/2000/svg" role="img" viewBox="-0.87 -0.87 51.48 18.36"><title>JLG Industries logo</title><defs><clipPath><path d="M541 57h6v6.3125h-6zm0 0"/></clipPath><clipPath><path d="M547 57h6v6.3125h-6zm0 0"/></clipPath><clipPath><path d="M552 57h5v6.3125h-5zm0 0"/></clipPath><clipPath><path d="M556 55h6v8.3125h-6zm0 0"/></clipPath><clipPath><path d="M562 55h2v8.3125h-2zm0 0"/></clipPath><clipPath><path d="M568 55h6v8.3125h-6zm0 0"/></clipPath><clipPath><path d="M564 57h5v6.3125h-5zm0 0"/></clipPath><clipPath><path d="M517.76562 57H523v6.3125h-5.23438zm0 0"/></clipPath><clipPath><path d="M523 57h6v6.3125h-6zm0 0"/></clipPath><clipPath><path d="M533 57h6v6.3125h-6zm0 0"/></clipPath><clipPath><path d="M528 57h6v6.3125h-6zm0 0"/></clipPath><clipPath><path d="M531 21.29297h10V31h-10zm0 0"/></clipPath><clipPath><path d="M375.69531 49.3125H403V95h-27.30469zm0 0"/></clipPath><clipPath><path d="M391 62h27v46.48828h-27zm0 0"/></clipPath></defs><g fill="#f35c17" fill-opacity="1" fill-rule="nonzero" stroke="none" stroke-width=".353" transform="translate(7.978 -130.027) translate(-1048.532 -598.588) scale(1.53532)"><path d="M690.41212 474.65546h-4.6371l-2.95451 6.94118h-3.41615l-1.57372 3.74137h6.75238c.54157 0 1.49104-.51538 1.7887-1.16582l4.0404-9.51673"/><path d="M702.35007 478.61318c.10748-.24391.1695-.46026.48094-.46026h5.80291l1.47726-3.49746h-8.58104c-.81443 0-2.38677.73174-3.0372 2.16903l-2.05328 4.77215-3.54155.001 2.96415-6.94256h-4.63572l-4.58335 10.68256h8.6775l.82821-1.93752c.15709 1.12034 1.01423 1.93752 2.39778 1.93752h7.02248l2.72577-6.4258h-5.19934l-.88195 2.08773h1.16031l-.21773.59669h-1.72255c-.31143 0-.23013-.25769-.17501-.40652l1.09141-2.57693"/><path d="M707.58248 484.50016c.0827 0 .12402-.0276.12402-.10335 0-.04-.0193-.1006-.11162-.1006h-.19981v.20395zm-.34175-.33486h.38447c.20257 0 .23978.14883.23978.21497 0 .0841-.0427.1571-.11713.18191.062.0275.0965.051.0965.19292 0 .11162 0 .13918.0331.15159v.0207h-.17501c-.011-.0358-.0179-.0758-.0179-.15434 0-.10335-.005-.14469-.12402-.14469h-.16537v.29903h-.15434v-.76205"/><path d="M706.88244 484.54839c0-.17225.0675-.3321.18879-.45475.12127-.11989.28112-.18603.45199-.18603.17088 0 .33211.0661.45338.18603.12126.12265.18741.2825.18741.45475 0 .35278-.28663.64079-.64079.64079-.17087 0-.33072-.0675-.45199-.18741-.12127-.12127-.18879-.2825-.18879-.45338m.64078.78135c.20947 0 .40515-.0813.5526-.22875.14883-.14745.23013-.34451.23013-.5526 0-.20946-.0813-.40514-.23013-.55259-.14745-.14883-.34313-.23013-.5526-.23013-.42994 0-.78135.3514-.78135.78272 0 .20809.0813.40515.22876.5526.14745.14745.34451.22875.55259.22875"/><path d="M690.41212 474.65546h-4.6371l-2.95451 6.94118h-3.41615l-1.57372 3.74137h6.75238c.54157 0 1.49104-.51538 1.7887-1.16582l4.0404-9.51673"/><path d="M702.35007 478.61318c.10748-.24391.1695-.46026.48094-.46026h5.80291l1.47726-3.49746h-8.58104c-.81443 0-2.38677.73174-3.0372 2.16903l-2.05328 4.77215-3.54155.001 2.96415-6.94256h-4.63572l-4.58335 10.68256h8.6775l.82821-1.93752c.15709 1.12034 1.01423 1.93752 2.39778 1.93752h7.02248l2.72577-6.4258h-5.19934l-.88195 2.08773h1.16031l-.21773.59669h-1.72255c-.31143 0-.23013-.25769-.17501-.40652l1.09141-2.57693"/><path d="M707.58248 484.50016c.0827 0 .12402-.0276.12402-.10335 0-.04-.0193-.1006-.11162-.1006h-.19981v.20395zm-.34175-.33486h.38447c.20257 0 .23978.14883.23978.21497 0 .0841-.0427.1571-.11713.18191.062.0275.0965.051.0965.19292 0 .11162 0 .13918.0331.15159v.0207h-.17501c-.011-.0358-.0179-.0758-.0179-.15434 0-.10335-.005-.14469-.12402-.14469h-.16537v.29903h-.15434v-.76205"/><path d="M706.88244 484.54839c0-.17225.0675-.3321.18879-.45475.12127-.11989.28112-.18603.45199-.18603.17088 0 .33211.0661.45338.18603.12126.12265.18741.2825.18741.45475 0 .35278-.28663.64079-.64079.64079-.17087 0-.33072-.0675-.45199-.18741-.12127-.12127-.18879-.2825-.18879-.45338m.64078.78135c.20947 0 .40515-.0813.5526-.22875.14883-.14745.23013-.34451.23013-.5526 0-.20946-.0813-.40514-.23013-.55259-.14745-.14883-.34313-.23013-.5526-.23013-.42994 0-.78135.3514-.78135.78272 0 .20809.0813.40515.22876.5526.14745.14745.34451.22875.55259.22875"/></g></svg>