<svg xmlns="http://www.w3.org/2000/svg" role="img" viewBox="-14.36 -14.36 746.72 224.72"><title>Juniper logo</title><style>svg {enable-background:new 0 0 718.2 196.3}</style><style/><switch><g><linearGradient id="SVGID_1_" x1="-1224.845" x2="-1224.138" y1="404.175" y2="403.467" gradientUnits="userSpaceOnUse"><stop offset="0" stop-color="#20ac4b"/><stop offset=".983" stop-color="#19361a"/></linearGradient><path d="M352.3 157.6h4.4l22.7 31.3v-31.3h3.9v38h-3.7l-23.4-32.3v32.3h-3.9v-38zm40.7 0h25.1v3.8H397V174h20.6v3.8H397v14.1h21.3v3.7H393v-38zm45.5 3.9h-14.3v-3.8h32.6v3.8h-14.3v34.2h-4.1v-34.2zm23.2-3.9h4.2l10 31.4 10.2-31.4h3.5l10.2 31.4 10.1-31.4h3.9l-12.2 38.3H498l-10.3-31.7-10.2 31.7H474l-12.3-38.3zm55.7 19c0-13.5 6.9-19.6 19.1-19.6 12.2 0 19.2 6.1 19.2 19.6 0 13.6-7 19.6-19.2 19.6-12.2.1-19.1-6-19.1-19.6zm34.2.1c0-10.3-4.8-15.8-15.1-15.8s-15 5.5-15 15.8 4.7 15.9 15 15.9c10.3-.1 15.1-5.6 15.1-15.9zm27.6 3.4h-11.4v15.5h-4v-38h16.4c8.8 0 12.8 3.5 12.8 11.1 0 6.6-3.1 10.4-9.7 11.3l9.2 15.6h-4.3l-9-15.5zm1.2-3.7c5.4 0 8.7-1.6 8.7-7.6 0-5.9-3.2-7.4-8.9-7.4h-12.4v15.1h12.6zm32.9-.9l-7.6 8.3v11.9h-3.9v-38h3.9v21l19.2-21h4.7L616 172.5l15.5 23.1h-4.6l-13.6-20.1zm21.5 16.3l2.1-3.1c4.6 2.9 9 3.8 13.6 3.8 7.9 0 11.3-2.2 11.3-7.4 0-5.4-4.5-6.2-11.3-7.4-8.2-1.4-13.7-2.8-13.7-10.5 0-7.3 4.7-10.2 13.7-10.2 6 0 10.2 1.3 13.2 3.4l-2.2 3.3c-2.7-1.8-6.8-3-11.1-3-6.8 0-9.7 1.9-9.7 6.4 0 4.8 4 5.7 10.7 7 8.3 1.5 14.3 2.7 14.3 10.9 0 7.5-4.8 11.2-15.2 11.2-5.7-.1-10.8-1.2-15.7-4.4z"/><path d="M705.5.5c-53.4 0-55.7 23.9-55.7 57.7v82.9h12.6V58.2c0-25.5-1-45.9 43.1-45.9 4.7 0 8.9.2 12.7.7V1c-3.9-.3-8.1-.5-12.7-.5z"/><path d="M82.2 87.2V3.3h12.9v84.2c0 24.2-.2 44.6 44.1 44.6 44.1 0 43.1-20.4 43.1-45.9V3.3h12.6v82.9c0 33.8-2.3 57.7-55.7 57.7-53.7 0-57-23.9-57-56.7zm246.7-30v83.9H316V57c0-24.2.3-44.6-44.1-44.6-44.1 0-43.1 20.4-43.1 45.9v82.9h-12.6v-83c0-33.8 2.3-57.7 55.7-57.7 53.7 0 57 24 57 56.7zm23.4-53.7h12.3v137.6h-12.3V3.5zm35.4 0h64.4c32 0 46.4 15.9 46.4 44.1 0 28.4-14.3 45.7-46.6 45.7H400v47.8h-12.3V3.5zM452.3 81c22.3 0 33.3-10.8 33.3-32.8 0-21.9-11.9-32.3-33.9-32.3H400V81h52.3zm60.6-9.2c0-40.6 11.6-71.8 63.5-71.8 53.7 0 55.5 36 55.2 74.1H525.3c.3 33.5 8.6 58.5 52.2 58.5 23.2 0 33.8-6.3 45.1-14.6l7.1 9.3c-12.6 9.3-27.5 16.6-52.2 16.6-54.5 0-64.6-31.5-64.6-72.1zm12.7-9.3h93.8c-1.3-27.5-3-50.9-43.1-50.9-38.6 0-49.2 20.9-50.7 50.9z"/><path d="M4.8 171c53.4 0 55.7-23.9 55.7-57.7V3.3H47.9v110c0 25.5 1 45.9-43.1 45.9-1.7 0-3.3 0-4.8-.1V171h4.8z"/><g><path d="M690 141.8c-4.8 0-8.7-3.9-8.7-8.7 0-4.8 3.9-8.7 8.7-8.7 4.8 0 8.7 3.9 8.7 8.7 0 4.8-3.9 8.7-8.7 8.7zm0-16.3c-4.2 0-7.6 3.4-7.6 7.6 0 4.2 3.4 7.6 7.6 7.6 4.2 0 7.6-3.4 7.6-7.6 0-4.2-3.4-7.6-7.6-7.6z"/><path d="M690.6 134.2h-2.8v3.8h-1.3v-10h4.4c2.5 0 3.5 1 3.5 3 0 1.6-.7 2.7-2.4 3l2.3 3.9h-1.4l-2.3-3.7zm.3-1.2c1.4 0 2.1-.4 2.1-1.9 0-1.4-.8-1.8-2.2-1.8h-3.1v3.6h3.2z"/></g></g></switch></svg>