<svg xmlns="http://www.w3.org/2000/svg" role="img" viewBox="-5.99 -5.99 311.74 52.74"><title>Kraft Cloud logo</title><style>svg {enable-background:new 0 0 299.7 40.9}</style><style>.st0{fill:#fff}</style><path d="M92.5 29.9v10.4h-4.3V.6h4.3V25l11.8-12.2h5.3L98.4 24.2l11.6 16h-5.1L95.3 27l-2.8 2.9zm19 10.3V12.8h4.2l.1 5.3c1.7-3.8 4.7-5.9 8.5-5.9.4 0 .9 0 1.4.1v4.3c-.6-.1-1-.1-1.6-.1-5 0-8.3 3-8.3 9v14.7h-4.3zm13.8-7.1c0-4 2.4-7 6.7-7.6l11.6-1.7v-2.4c0-4-2.8-5.7-6.3-5.7-3.8 0-6.4 1.9-6.7 5.2h-4.2c.5-5.5 4.6-8.7 11-8.7 6.7 0 10.5 3.8 10.5 9.5v18.6h-4l-.2-4.3c-1.8 3.2-5.3 4.9-9.1 4.9-5.8 0-9.3-3.2-9.3-7.8zm18.3-3v-2.8l-10.2 1.5c-2.6.4-3.8 1.9-3.8 4.2 0 2.6 1.8 4.3 5.3 4.3 4.7 0 8.7-3.1 8.7-7.2zm10.9 10.1v-24H149v-3.4h5.5V7.5c0-5 2.9-7.5 8.3-7.5 1.2 0 2.9.3 4 .5v3.6c-.9-.2-2.4-.5-3.5-.5-3.6 0-4.6 1.5-4.6 4.5v4.7h7.9v3.4h-7.9v24h-4.2zm17.7-6.9V16.2h-5.5v-3.4h5.5V4.3h4.3v8.5h7.9v3.4h-7.9v16.5c0 3 1 4.5 4.6 4.5 1.1 0 2.6-.3 3.5-.5v3.6c-1.1.3-2.8.5-4 .5-5.6.1-8.4-2.4-8.4-7.5zm13.3-6.3v-1c0-8.2 4.6-13.9 12.8-13.9 6.6 0 10.9 3.9 11.7 9.8h-4.3c-.7-3.8-3.2-6.2-7.5-6.2-5.4 0-8.3 3.7-8.3 10.2v1c0 6.5 2.9 10.2 8.3 10.2 4.3 0 6.8-2.5 7.6-6.3h4.3c-1 6.1-5.3 10-11.9 10-8.1.1-12.7-5.7-12.7-13.8zM217 .6v39.6h-4.3V.6h4.3zm3.2 26.4v-1c0-8.4 5-13.9 13-13.9s13.1 5.5 13.1 13.9v1c0 8.4-5.1 13.9-13.1 13.9s-13-5.5-13-13.9zm21.7 0v-1c0-6.4-3-10.2-8.7-10.2-5.6 0-8.6 3.8-8.6 10.2v1c0 6.4 3 10.2 8.6 10.2s8.7-3.8 8.7-10.2zm7 3.5V12.8h4.3v16.9c0 4.6 1.8 7.4 6.4 7.4 4.7 0 7.4-3.6 7.4-8.9V12.8h4.3v27.4h-4.2l-.1-4.3c-1.7 2.9-4.7 5-8.7 5-6.3 0-9.4-4-9.4-10.4zm25.5-3.5v-1c0-8.2 4.5-13.9 11.8-13.9 4.7 0 7.8 2.3 9.3 5V.6h4.3v39.6h-4l-.1-4.9c-1.4 2.8-4.7 5.6-9.5 5.6-7.2 0-11.8-5.6-11.8-13.9zm21.3 0v-1c0-6.4-3.2-10.2-8.8-10.2-5.1 0-8.1 3.9-8.1 10.2v1c0 6.3 2.9 10.2 8.1 10.2 5.7 0 8.8-3.8 8.8-10.2z" class="st0"/><path d="M60 .5h20v20H60zm-20 20h20v20H40zM20 .5h20v20H20zm-20 20h20v20H0z" class="st0"/></svg>