<svg xmlns="http://www.w3.org/2000/svg" role="img" viewBox="-143.83 172.17 615.16 204.66"><title>Lubrizol logo</title><style>svg {enable-background:new -153 -46 652 652}</style><style>.st0{fill:#0068ad}</style><path d="M-70.8 184.3l-18.3 90.9h55.5l-3.7 18.3h-78l22-109.1h22.5zm128 32.9L42 294.1H21.9l3.7-13.4H25c-6.5 9.6-17.7 15-29.3 14-18.9 0-26.2-8.5-23.2-26.2l10.4-51.8H3l-9.1 47c-1.2 6.7-1.2 11 .6 12.8 3.3 2.4 7.5 3.5 11.6 3 12.8 0 20.7-7.3 23.2-21.3l8.5-42.1h19.5v1.1zm-6.1 76.9l22-109.8h20.1l-8.5 43.9h.6c4.9-7.9 14.6-12.2 28.7-12.2 12.2 0 19.5 2.4 23.2 7.9 3.7 5.5 3.7 15.2.6 29.9-3 15.9-7.3 26.8-13.4 32.3-7.7 6.3-17.5 9.4-27.4 8.5-12.8 0-20.7-4.3-22.6-12.8h-.6L72 294H51.1zm52.5-63.5c-12.8 0-20.7 7.3-23.8 22.6-2.1 7.3-2.6 15-1.2 22.6 1.8 3 6.1 4.9 14 4.9 5.8.7 11.7-.8 16.5-4.3 4.3-6.1 6.8-13.3 7.3-20.7 1.8-10.4 2.4-16.5.6-19.5-3.2-4.1-8.3-6.2-13.4-5.6zm52.4-13.4h20.1l-3.7 11h.6c5.9-7.9 15.2-12.4 25-12.2 14.6 0 20.1 8.5 16.5 25.6l-1.2 5.5h-18.9c.5-1.4.9-2.8 1.2-4.3 1.8-7.9-1.2-12.2-7.9-12.2-9.8 0-15.9 6.1-18.3 18.3l-9.1 45.1h-20.1l15.8-76.8z" class="st0"/><path id="I" d="M245.6 217.2L230.4 294h-20.1l15.2-76.8h20.1z" class="st0"/><path d="M256.6 217.2h64.6l-3 15.9-53.7 47H309l-3 14h-68.3l3-15.9 53-46.3h-40.2l3.1-14.7zm109.2-1.2c15.9 0 26.2 2.4 29.9 7.3 3.7 4.9 4.3 14.6 1.2 29.9-3.7 17.1-7.9 28-14 33.5s-16.5 7.9-32.3 7.9c-17.1 0-27.4-2.4-31.7-7.3-4.3-4.9-4.3-15.9-1.2-32.3 3-16.5 7.9-26.8 13.4-31.7 7.2-4.9 18.2-7.3 34.7-7.3zm-3.1 14.6c-8.5 0-14 1.2-16.5 4.3-4.2 5.7-6.8 12.4-7.3 19.5-2.1 7.1-2.6 14.6-1.2 22 1.8 3 6.7 4.3 15.2 4.3 5.9.8 11.9-1 16.5-4.9 3-3 5.5-10.4 7.9-22 1.7-6.2 1.9-12.6.6-18.9-1.8-3-6.7-4.3-15.2-4.3zm78.7-46.3l-22 109.8h-20.1l22-109.8h20.1zM-121.4 327c-.6.1-1.3.3-1.8.6l-8.5 37.8c255.5-75 600-27.4 600-27.4-241-61-589.7-11-589.7-11zm370.7-126.8c-.5 2.7-2.8 4.7-5.5 4.9h-11c-2.2-.1-3.8-1.9-3.8-4v-.9l2-11c.5-2.7 2.8-4.7 5.5-4.9h11c2.2.1 3.8 1.9 3.8 4v.9l-2 11z" class="st0"/></svg>