<svg xmlns="http://www.w3.org/2000/svg" role="img" viewBox="-2.45 -2.32 120.64 40.52"><title>Mint Innovation logo</title><path fill="#fff" d="M39.7266 29.2006V9.46775h2.8084V14.013c.4188-1.6506 1.1578-2.9193 2.2171-3.8062 1.084-.88686 2.4882-1.33029 4.2127-1.33029h.1478c1.6752 0 3.0424.4188 4.1017 1.25639 1.0594.8376 1.8107 2.0447 2.2542 3.6214.468-1.5767 1.2317-2.7838 2.291-3.6214 1.084-.83759 2.4636-1.25639 4.1388-1.25639h.1478c2.3403 0 4.0771.80064 5.2103 2.40189 1.1579 1.5767 1.7368 3.7939 1.7368 6.6516v11.2706h-3.5475V17.1539c0-1.6012-.3941-2.833-1.1825-3.6952-.7883-.8869-1.8845-1.3303-3.2888-1.3303-1.4534 0-2.6236.468-3.5105 1.4042-.8868.9115-1.3303 2.1925-1.3303 3.8431v11.8249h-3.5475V17.1539c0-1.6012-.3941-2.833-1.1824-3.6952-.7884-.8869-1.8846-1.3303-3.2888-1.3303-1.4535 0-2.6237.468-3.5106 1.4042-.8868.9115-1.3303 2.1925-1.3303 3.8431v11.8249h-3.5474zM75.5994 6.28981c-.7883 0-1.3796-.2094-1.7737-.6282-.3696-.4188-.5543-.94846-.5543-1.58897 0-.64052.1847-1.17017.5543-1.58897.3941-.4188.9854-.6282 1.7737-.6282s1.3672.2094 1.7368.6282c.3941.4188.5912.94845.5912 1.58897 0 .64051-.1971 1.17017-.5912 1.58897-.3696.4188-.9485.6282-1.7368.6282zm-.9977 22.91079V12.2762h-3.0302V9.46775h6.5776V29.2006h-3.5474zm8.5589 0V9.46775h2.8084v4.58215c.4434-1.6752 1.2317-2.9562 2.365-3.8431 1.1578-.88686 2.6606-1.33029 4.5082-1.33029h.1478c2.4882 0 4.3235.77601 5.506 2.32799 1.2071 1.5521 1.811 3.7939 1.811 6.7255v11.2706h-3.5478V17.1909c0-1.5274-.4311-2.7468-1.2933-3.6583-.8623-.9362-2.0448-1.4042-3.5475-1.4042-1.552 0-2.8084.4803-3.7692 1.4411-.9608.9608-1.4412 2.2418-1.4412 3.8431v11.788h-3.5474zm29.4754.2217c-1.478 0-2.759-.2094-3.843-.6282-1.059-.4188-1.885-1.1332-2.476-2.1433-.567-1.0347-.85-2.4265-.85-4.1756V12.1284h-3.4V9.46775h3.4V5.06057l3.4-1.57918v5.98636h6.799v2.66065h-6.799v10.7902c0 1.0593.283 1.8846.85 2.4758.591.5666 1.416.8499 2.475.8499h3.474v3.178h-3.03z"/><path fill="#fff" fill-rule="evenodd" d="M39.4102 29.5158V9.15135h3.44v3.04045c.4297-.8936.9946-1.6383 1.6986-2.22773l.0014-.00114.0014-.00113c1.1525-.94297 2.6326-1.4017 4.4126-1.4017h.1478c1.7288 0 3.1702.43303 4.2977 1.32449.9077.71771 1.5935 1.68601 2.0646 2.89121.4873-1.2055 1.1812-2.1736 2.0888-2.89121l.0014-.0011.0014-.00107c1.1507-.88918 2.6027-1.32232 4.3318-1.32232h.1478c2.4192 0 4.2621.83279 5.4665 2.533 1.2112 1.6505 1.7965 3.9423 1.7965 6.8363v11.5864h-4.1792V17.1534c0-1.5519-.3816-2.6968-1.0997-3.4822l-.0015-.0016-.0015-.0017c-.7173-.807-1.7206-1.2243-3.0527-1.2243-1.3789 0-2.4619.4407-3.2813 1.3056l-.0014.0015-.0015.0015c-.8139.8366-1.2408 2.0291-1.2408 3.6229v12.1407h-4.1792V17.1534c0-1.5519-.3816-2.6968-1.0997-3.4822l-.0015-.0016-.0015-.0017c-.7173-.807-1.7206-1.2243-3.0527-1.2243-1.3789 0-2.4619.4407-3.2813 1.3056l-.0014.0015-.0015.0015c-.8139.8366-1.2408 2.0291-1.2408 3.6229v12.1407h-4.1791zm27.8457-18.2379c-1.1333-1.60132-2.8701-2.40196-5.2104-2.40196h-.1478c-1.6752 0-3.0548.4188-4.1387 1.25636-.9392.7427-1.6461 1.7758-2.1205 3.0994-.0607.1692-.1175.3433-.1706.522-.0505-.1795-.105-.3542-.1635-.5242-.455-1.3225-1.1519-2.3549-2.0906-3.0972-1.0593-.83756-2.4266-1.25636-4.1018-1.25636h-.1478c-1.7245 0-3.1287.44343-4.2126 1.33026-.8308.6955-1.4645 1.6259-1.9014 2.7911-.1201.3206-.2254.6589-.3158 1.0151V9.46718H39.726V29.2h3.5475V17.3751c0-1.6506.4434-2.9316 1.3303-3.8431.8868-.9361 2.057-1.4042 3.5105-1.4042 1.4042 0 2.5005.4434 3.2888 1.3303.7883.8622 1.1825 2.094 1.1825 3.6953V29.2h3.5474V17.3751c0-1.6506.4435-2.9316 1.3304-3.8431.8868-.9361 2.057-1.4042 3.5105-1.4042 1.4042 0 2.5004.4434 3.2888 1.3303.7883.8622 1.1825 2.094 1.1825 3.6953V29.2h3.5474V17.9294c0-2.8577-.5789-5.0749-1.7367-6.6515zm6.3357-5.40409L73.5883 5.87c-.4279-.48493-.6333-1.0925-.6333-1.79793 0-.70544.2054-1.31301.6333-1.79794l.0033-.0038.0035-.0037c.4734-.50297 1.1616-.72757 2.0037-.72757.8384 0 1.5192.22287 1.9702.73123.4535.48364.6737 1.09252.6737 1.80178 0 .70927-.2203 1.31815-.6737 1.8018-.451.50835-1.1318.73121-1.9702.73121-.8421 0-1.5303-.2246-2.0037-.72758l-.0035-.00369zm3.744-.21277c.3942-.4188.5912-.94846.5912-1.58897 0-.64052-.197-1.17017-.5912-1.58897-.3695-.4188-.9485-.6282-1.7368-.6282-.7883 0-1.3796.2094-1.7737.6282-.3695.4188-.5543.94845-.5543 1.58897 0 .64051.1848 1.17017.5543 1.58897.3941.4188.9854.6282 1.7737.6282s1.3673-.2094 1.7368-.6282zM74.2853 29.5158V12.5914h-3.0302V9.15135h7.2093V29.5158h-4.1791zm.3158-17.2402V29.2h3.5475V9.46718H71.571v2.80842h3.0301zm8.2431 17.2402V9.15135h3.4401v3.13055c.4628-.9409 1.0797-1.7181 1.8544-2.32438l.0013-.00102.0013-.00099c1.2263-.93924 2.802-1.39541 4.7003-1.39541h.1479c2.5562 0 4.4978.80057 5.7561 2.4511 1.2664 1.6287 1.8764 3.95 1.8764 6.9182v11.5864h-4.1792V17.1903c0-1.4652-.4117-2.6006-1.207-3.4413l-.0014-.0015-.0014-.0015c-.7916-.8595-1.8833-1.3024-3.3152-1.3024-1.4812 0-2.6529.4557-3.5458 1.3487-.8911.891-1.3487 2.0861-1.3487 3.6197v12.1038h-4.1791zM98.4954 11.204c-1.1825-1.55205-3.0178-2.32806-5.5059-2.32806h-.1479c-1.8476 0-3.3503.44343-4.5082 1.33026-.9011.7053-1.5842 1.6598-2.0491 2.8635-.1198.31-.2251.6366-.3159.9796V9.46718H83.16V29.2h3.5475V17.412c0-1.6012.4804-2.8823 1.4411-3.8431.9608-.9607 2.2172-1.4411 3.7692-1.4411 1.5028 0 2.6853.4681 3.5475 1.4042.8622.9115 1.2933 2.1309 1.2933 3.6583V29.2h3.5474V17.9294c0-2.9316-.6034-5.1734-1.8106-6.7254zm10.1816 17.8837l-.001-.0005c-1.127-.4455-2.006-1.2082-2.632-2.2774l-.002-.0039-.003-.0039c-.601-1.0983-.888-2.549-.888-4.3274v-10.031h-3.4V9.15135h3.4V4.85847l4.031-1.8726v6.16548h6.799v3.29225h-6.799V22.918c0 .9995.265 1.736.757 2.2524.517.4922 1.253.7575 2.253.7575h3.789v3.8097h-3.346c-1.507 0-2.828-.2134-3.957-.6495l-.001-.0004zm1.039-3.6938c-.567-.5913-.85-1.4166-.85-2.4759V12.1278h6.8V9.46718h-6.8V3.48082L105.467 5.06v4.40718h-3.4v2.66062h3.4v10.3468c0 1.7491.283 3.141.849 4.1757.592 1.01 1.417 1.7244 2.476 2.1432 1.084.4188 2.365.6282 3.843.6282h3.031v-3.1779h-3.474c-1.059 0-1.885-.2833-2.476-.8499z" clip-rule="evenodd"/><circle cx="14.838" cy="15.021" r="9.896" fill="#B5D6D1"/><path fill="#0B5548" fill-rule="evenodd" d="M14.9029 5.51202c-5.18645 0-9.39088 4.20443-9.39088 9.39088 0 5.1864 4.20443 9.3908 9.39088 9.3908 5.1864 0 9.3908-4.2044 9.3908-9.3908 0-5.18645-4.2044-9.39088-9.3908-9.39088zM0 14.9029C0 6.67224 6.67224 0 14.9029 0c8.2306 0 14.9028 6.67224 14.9028 14.9029 0 8.2306-6.6722 14.9028-14.9028 14.9028C6.67224 29.8057 0 23.1335 0 14.9029z" clip-rule="evenodd"/><path fill="#B5D6D1" fill-rule="evenodd" d="M12.0039 34.108V18.2031h5.5864V34.108l-2.7932 1.8888-2.7932-1.8888z" clip-rule="evenodd"/><path fill="#0B5548" d="M19.0899 15.002c0 2.3677-1.9194 4.2871-4.2871 4.2871-2.3678 0-4.2872-1.9194-4.2872-4.2871 0-2.3677 1.9194-4.2872 4.2872-4.2872 2.3677 0 4.2871 1.9195 4.2871 4.2872z"/></svg>