<svg xmlns="http://www.w3.org/2000/svg" role="img" viewBox="69.20 344.20 2641.60 951.60"><title>Minus Materials logo</title><style>svg {shape-rendering:geometricPrecision;text-rendering:geometricPrecision;image-rendering:optimizeQuality;fill-rule:evenodd;clip-rule:evenodd}</style><g><path fill="#fefefe" d="M -0.5,-0.5 C 962.5,-0.5 1925.5,-0.5 2888.5,-0.5C 2888.5,567.5 2888.5,1135.5 2888.5,1703.5C 1925.5,1703.5 962.5,1703.5 -0.5,1703.5C -0.5,1135.5 -0.5,567.5 -0.5,-0.5 Z"/></g><g><path fill="#71d599" d="M 998.5,862.5 C 997.833,862.5 997.5,862.167 997.5,861.5C 936.861,733.301 876.195,604.967 815.5,476.5C 763.167,475.167 710.833,475.167 658.5,476.5C 633.822,528.522 609.155,580.522 584.5,632.5C 584.013,633.473 583.513,634.473 583,635.5C 579.293,629.419 576.126,623.086 573.5,616.5C 550.977,570.119 528.977,523.452 507.5,476.5C 455.167,475.167 402.833,475.167 350.5,476.5C 324.558,530.717 298.891,585.051 273.5,639.5C 297.999,692.495 322.999,745.162 348.5,797.5C 348.539,798.583 348.873,799.583 349.5,800.5C 298.833,801.167 248.167,801.833 197.5,802.5C 188.119,821.925 178.786,841.258 169.5,860.5C 159.883,719.658 205.549,600.491 306.5,503C 411.884,410.147 533.884,377.147 672.5,404C 788.563,432.743 877.729,497.91 940,599.5C 987.113,680.884 1006.61,768.551 998.5,862.5 Z"/></g><g><path fill="#72d599" d="M 1439.5,421.5 C 1459.43,420.62 1472.26,429.62 1478,448.5C 1478.53,476.635 1464.7,489.802 1436.5,488C 1415.72,481.971 1406.89,468.138 1410,446.5C 1414.9,432.087 1424.73,423.754 1439.5,421.5 Z"/></g><g><path fill="#72d599" d="M 1181.5,525.5 C 1181.29,524.078 1180.79,522.745 1180,521.5C 1179.2,524.039 1179.37,526.372 1180.5,528.5C 1181.5,553.492 1181.67,578.492 1181,603.5C 1179.32,641.829 1177.82,680.163 1176.5,718.5C 1156.83,718.5 1137.17,718.5 1117.5,718.5C 1123.13,634.133 1129.3,549.8 1136,465.5C 1148.76,464.838 1161.59,464.505 1174.5,464.5C 1187.56,464.51 1200.39,465.176 1213,466.5C 1225.17,522.195 1237.51,577.861 1250,633.5C 1261.54,577.47 1273.21,521.47 1285,465.5C 1310.67,464.167 1336.33,464.167 1362,465.5C 1368.33,549.825 1374.5,634.159 1380.5,718.5C 1360.83,718.5 1341.17,718.5 1321.5,718.5C 1317.73,653.889 1315.57,589.222 1315,524.5C 1302.78,579.486 1290.44,634.486 1278,689.5C 1268.56,690.82 1258.9,691.487 1249,691.5C 1239.1,691.487 1229.44,690.82 1220,689.5C 1207.16,634.812 1194.33,580.145 1181.5,525.5 Z"/></g><g><path fill="#7f7f7f" d="M 571.5,616.5 C 625.525,733.72 680.525,850.554 736.5,967C 711.311,1020.55 685.978,1074.05 660.5,1127.5C 609.167,1128.83 557.833,1128.83 506.5,1127.5C 455.119,1019.41 403.786,911.409 352.5,803.5C 351.674,800.515 350.341,797.849 348.5,795.5C 324.321,743.639 299.987,691.806 275.5,640C 300.715,586.228 326.048,532.395 351.5,478.5C 402.83,477.333 454.163,477.167 505.5,478C 527.915,523.995 549.915,570.162 571.5,616.5 Z"/></g><g><path fill="#7f7f7f" d="M 995.5,861.5 C 1011.96,896.247 1028.29,931.08 1044.5,966C 1018.76,1019.99 993.422,1074.15 968.5,1128.5C 917.162,1128.83 865.829,1128.5 814.5,1127.5C 737.94,965.379 661.106,803.379 584,641.5C 583.955,638.78 584.455,636.114 585.5,633.5C 610.408,582.015 635.075,530.348 659.5,478.5C 710.83,477.333 762.163,477.167 813.5,478C 874.855,605.541 935.521,733.375 995.5,861.5 Z"/></g><g><path fill="#71d599" d="M 1518.5,718.5 C 1518.5,653.833 1518.5,589.167 1518.5,524.5C 1535.17,524.5 1551.83,524.5 1568.5,524.5C 1570.09,531.679 1571.59,539.013 1573,546.5C 1595.73,519.595 1623.9,511.762 1657.5,523C 1674.88,532.572 1684.05,547.406 1685,567.5C 1685.5,617.832 1685.67,668.166 1685.5,718.5C 1666.17,718.5 1646.83,718.5 1627.5,718.5C 1627.67,671.499 1627.5,624.499 1627,577.5C 1624.24,563.353 1615.74,558.187 1601.5,562C 1591.43,567.403 1583.26,574.903 1577,584.5C 1576.5,629.165 1576.33,673.832 1576.5,718.5C 1557.17,718.5 1537.83,718.5 1518.5,718.5 Z"/></g><g><path fill="#71d599" d="M 1988.5,518.5 C 2015.71,515.597 2041.37,520.431 2065.5,533C 2069.89,535.523 2073.89,538.523 2077.5,542C 2070.71,553.113 2063.55,563.946 2056,574.5C 2041.48,565.411 2025.65,560.411 2008.5,559.5C 2002.1,559.432 1996.1,560.932 1990.5,564C 1983.14,572.752 1984.14,580.418 1993.5,587C 2009.87,593.791 2026.54,599.791 2043.5,605C 2080.97,619.783 2093.14,646.283 2080,684.5C 2071.89,700.32 2059.39,711.153 2042.5,717C 2004.81,729.572 1968.48,726.572 1933.5,708C 1927.58,704.546 1922.25,700.38 1917.5,695.5C 1926.77,684.645 1936.27,673.978 1946,663.5C 1964.69,679.505 1986.19,685.338 2010.5,681C 2022.5,677.629 2027,669.796 2024,657.5C 2022.21,654.705 2020.04,652.205 2017.5,650C 2004.18,644.339 1990.52,639.672 1976.5,636C 1961.57,631.054 1948.73,622.887 1938,611.5C 1922.73,589.167 1922.73,566.834 1938,544.5C 1951.93,530.116 1968.77,521.45 1988.5,518.5 Z"/></g><g><path fill="#a8e5c1" d="M 1181.5,525.5 C 1180.6,526.209 1180.26,527.209 1180.5,528.5C 1179.37,526.372 1179.2,524.039 1180,521.5C 1180.79,522.745 1181.29,524.078 1181.5,525.5 Z"/></g><g><path fill="#a5e5bf" d="M 1568.5,524.5 C 1551.83,524.5 1535.17,524.5 1518.5,524.5C 1518.5,589.167 1518.5,653.833 1518.5,718.5C 1517.5,653.669 1517.17,588.669 1517.5,523.5C 1534.67,523.17 1551.67,523.503 1568.5,524.5 Z"/></g><g><path fill="#71d599" d="M 1784.5,524.5 C 1785.33,570.665 1785.83,616.998 1786,663.5C 1787.37,677.205 1794.87,683.038 1808.5,681C 1820.06,677.269 1828.73,670.102 1834.5,659.5C 1835.5,614.67 1835.83,569.67 1835.5,524.5C 1854.5,524.5 1873.5,524.5 1892.5,524.5C 1892.5,589.167 1892.5,653.833 1892.5,718.5C 1875.83,718.5 1859.17,718.5 1842.5,718.5C 1841.88,710.79 1840.88,703.123 1839.5,695.5C 1821.56,718.758 1797.9,728.258 1768.5,724C 1748.32,720.153 1735.49,708.319 1730,688.5C 1728.73,682.889 1727.9,677.222 1727.5,671.5C 1727.5,622.5 1727.5,573.5 1727.5,524.5C 1746.5,524.5 1765.5,524.5 1784.5,524.5 Z"/></g><g><path fill="#bbebcf" d="M 1784.5,524.5 C 1765.5,524.5 1746.5,524.5 1727.5,524.5C 1727.5,573.5 1727.5,622.5 1727.5,671.5C 1726.5,622.336 1726.17,573.003 1726.5,523.5C 1746.01,523.17 1765.34,523.503 1784.5,524.5 Z"/></g><g><path fill="#a9e5c2" d="M 1472.5,718.5 C 1472.5,653.833 1472.5,589.167 1472.5,524.5C 1453.5,524.5 1434.5,524.5 1415.5,524.5C 1415.5,589.167 1415.5,653.833 1415.5,718.5C 1414.5,653.669 1414.17,588.669 1414.5,523.5C 1434.17,523.5 1453.83,523.5 1473.5,523.5C 1473.83,588.669 1473.5,653.669 1472.5,718.5 Z"/></g><g><path fill="#70d498" d="M 1472.5,718.5 C 1453.5,718.5 1434.5,718.5 1415.5,718.5C 1415.5,653.833 1415.5,589.167 1415.5,524.5C 1434.5,524.5 1453.5,524.5 1472.5,524.5C 1472.5,589.167 1472.5,653.833 1472.5,718.5 Z"/></g><g><path fill="#98e0b5" d="M 1892.5,524.5 C 1873.5,524.5 1854.5,524.5 1835.5,524.5C 1835.83,569.67 1835.5,614.67 1834.5,659.5C 1834.5,614.167 1834.5,568.833 1834.5,523.5C 1854.01,523.17 1873.34,523.503 1892.5,524.5 Z"/></g><g><path fill="#b9bebb" d="M 573.5,616.5 C 572.833,616.5 572.167,616.5 571.5,616.5C 549.915,570.162 527.915,523.995 505.5,478C 454.163,477.167 402.83,477.333 351.5,478.5C 326.048,532.395 300.715,586.228 275.5,640C 299.987,691.806 324.321,743.639 348.5,795.5C 348.5,796.167 348.5,796.833 348.5,797.5C 322.999,745.162 297.999,692.495 273.5,639.5C 298.891,585.051 324.558,530.717 350.5,476.5C 402.833,475.167 455.167,475.167 507.5,476.5C 528.977,523.452 550.977,570.119 573.5,616.5 Z"/></g><g><path fill="#b8beba" d="M 997.5,861.5 C 996.833,861.5 996.167,861.5 995.5,861.5C 935.521,733.375 874.855,605.541 813.5,478C 762.163,477.167 710.83,477.333 659.5,478.5C 635.075,530.348 610.408,582.015 585.5,633.5C 585.5,632.833 585.167,632.5 584.5,632.5C 609.155,580.522 633.822,528.522 658.5,476.5C 710.833,475.167 763.167,475.167 815.5,476.5C 876.195,604.967 936.861,733.301 997.5,861.5 Z"/></g><g><path fill="#7f7f7f" d="M 352.5,806.5 C 377.685,860.372 403.019,914.205 428.5,968C 403.917,1020.6 379.251,1073.1 354.5,1125.5C 353.596,1126.21 353.263,1127.21 353.5,1128.5C 302.166,1128.67 250.832,1128.5 199.5,1128C 173.429,1074.03 147.763,1019.86 122.5,965.5C 148.394,911.714 173.728,857.714 198.5,803.5C 249.5,803.5 300.5,803.5 351.5,803.5C 351.263,804.791 351.596,805.791 352.5,806.5 Z"/></g><g><path fill="#72d599" d="M 2121.5,903.5 C 2140.41,899.945 2154.58,906.278 2164,922.5C 2168.68,935.624 2166.68,947.624 2158,958.5C 2146.13,968.842 2132.63,971.675 2117.5,967C 2099.3,956.75 2093.47,941.584 2100,921.5C 2105,912.65 2112.16,906.65 2121.5,903.5 Z"/></g><g><path fill="#71d599" d="M 2451.5,922.5 C 2455.17,922.5 2458.83,922.5 2462.5,922.5C 2462.33,999.501 2462.5,1076.5 2463,1153.5C 2467.53,1159.85 2473.36,1161.18 2480.5,1157.5C 2481.09,1157.71 2481.59,1158.04 2482,1158.5C 2485.58,1171.33 2489.08,1184.16 2492.5,1197C 2492.25,1198.33 2491.58,1199.33 2490.5,1200C 2474.19,1205.52 2457.52,1206.85 2440.5,1204C 2421.48,1198.98 2409.98,1186.81 2406,1167.5C 2404.51,1087.54 2404.01,1007.54 2404.5,927.5C 2420.37,926.431 2436.04,924.764 2451.5,922.5 Z"/></g><g><path fill="#72d599" d="M 1181.5,1006.5 C 1181.11,1004.82 1180.61,1003.15 1180,1001.5C 1179.2,1004.37 1179.37,1007.03 1180.5,1009.5C 1181.52,1036.49 1181.68,1063.49 1181,1090.5C 1179.2,1126.82 1177.7,1163.15 1176.5,1199.5C 1156.83,1199.5 1137.17,1199.5 1117.5,1199.5C 1123.58,1115.17 1129.74,1030.83 1136,946.5C 1148.76,945.838 1161.59,945.505 1174.5,945.5C 1187.56,945.51 1200.39,946.176 1213,947.5C 1225.18,1003.21 1237.51,1058.88 1250,1114.5C 1261.54,1058.46 1273.21,1002.46 1285,946.5C 1310.67,945.167 1336.33,945.167 1362,946.5C 1368.38,1030.82 1374.54,1115.16 1380.5,1199.5C 1360.83,1199.5 1341.17,1199.5 1321.5,1199.5C 1317.45,1134.9 1315.28,1070.24 1315,1005.5C 1302.82,1060.9 1290.32,1116.23 1277.5,1171.5C 1258.51,1172.5 1239.51,1172.83 1220.5,1172.5C 1207.49,1117.13 1194.49,1061.8 1181.5,1006.5 Z"/></g><g><path fill="#71d599" d="M 1620.5,1138.5 C 1620.5,1107.5 1620.5,1076.5 1620.5,1045.5C 1611.5,1045.5 1602.5,1045.5 1593.5,1045.5C 1593.5,1032.17 1593.5,1018.83 1593.5,1005.5C 1602.68,1005.83 1611.68,1005.49 1620.5,1004.5C 1620.5,990.5 1620.5,976.5 1620.5,962.5C 1639.89,961.012 1659.22,959.012 1678.5,956.5C 1678.5,972.833 1678.5,989.167 1678.5,1005.5C 1693.17,1005.5 1707.83,1005.5 1722.5,1005.5C 1720.46,1018.79 1718.79,1032.12 1717.5,1045.5C 1704.5,1045.5 1691.5,1045.5 1678.5,1045.5C 1678.33,1077.5 1678.5,1109.5 1679,1141.5C 1680.42,1155.26 1687.92,1161.09 1701.5,1159C 1707.01,1157.49 1712.35,1155.83 1717.5,1154C 1724.92,1165.67 1731.09,1177.84 1736,1190.5C 1723.49,1198.89 1709.66,1203.73 1694.5,1205C 1646.34,1209.01 1621.67,1186.84 1620.5,1138.5 Z"/></g><g><path fill="#71d599" d="M 869.5,1130.5 C 788.922,1208.08 692.255,1247.08 579.5,1247.5C 470.234,1244.89 376.567,1205.89 298.5,1130.5C 317.179,1130.83 335.845,1130.5 354.5,1129.5C 355.127,1128.58 355.461,1127.58 355.5,1126.5C 380.302,1074.89 405.135,1023.23 430,971.5C 455.038,1024.41 480.205,1077.24 505.5,1130C 557.5,1130.67 609.5,1130.67 661.5,1130C 686.605,1076.73 711.939,1023.56 737.5,970.5C 762.949,1023.34 788.116,1076.34 813,1129.5C 831.757,1130.49 850.59,1130.83 869.5,1130.5 Z"/></g><g><path fill="#71d599" d="M 1482.5,1079.5 C 1492.5,1079.5 1502.5,1079.5 1512.5,1079.5C 1512.82,1073.64 1512.49,1067.98 1511.5,1062.5C 1510.36,1052.53 1505.03,1046.03 1495.5,1043C 1484.5,1041 1473.5,1041 1462.5,1043C 1451.32,1045.05 1440.32,1047.88 1429.5,1051.5C 1424.44,1038.65 1419.77,1025.65 1415.5,1012.5C 1445.2,1001.47 1475.86,997.305 1507.5,1000C 1523.41,1001.19 1537.75,1006.53 1550.5,1016C 1559.6,1025.02 1565.43,1035.85 1568,1048.5C 1569.29,1081.8 1569.96,1115.13 1570,1148.5C 1570.26,1152.38 1571.26,1156.04 1573,1159.5C 1575.75,1162.76 1578.92,1165.43 1582.5,1167.5C 1578.42,1179.67 1574.42,1191.83 1570.5,1204C 1549.47,1204.49 1533.8,1195.66 1523.5,1177.5C 1509.05,1197.05 1489.55,1206.39 1465,1205.5C 1433.04,1205.87 1412.37,1190.87 1403,1160.5C 1396.52,1125.62 1409.35,1101.12 1441.5,1087C 1454.81,1082.5 1468.48,1080 1482.5,1079.5 Z"/></g><g><path fill="#71d599" d="M 1819.5,999.5 C 1843.23,996.587 1865.56,1000.75 1886.5,1012C 1909.87,1029.55 1922.7,1053.05 1925,1082.5C 1925.65,1094.85 1925.48,1107.18 1924.5,1119.5C 1884.5,1119.5 1844.5,1119.5 1804.5,1119.5C 1806.48,1150.16 1822.81,1164.66 1853.5,1163C 1868.19,1160.41 1881.69,1154.91 1894,1146.5C 1902.67,1156.68 1910.83,1167.35 1918.5,1178.5C 1882.93,1206.04 1843.6,1212.87 1800.5,1199C 1769.75,1184.91 1751.92,1161.07 1747,1127.5C 1740.86,1094.2 1746.53,1063.2 1764,1034.5C 1777.73,1015.26 1796.23,1003.6 1819.5,999.5 Z"/></g><g><path fill="#71d599" d="M 2274.5,1079.5 C 2284.17,1079.5 2293.83,1079.5 2303.5,1079.5C 2303.82,1073.64 2303.49,1067.98 2302.5,1062.5C 2300.86,1049.69 2293.52,1042.86 2280.5,1042C 2259.92,1041.31 2239.92,1044.48 2220.5,1051.5C 2215.38,1038.68 2210.71,1025.68 2206.5,1012.5C 2223.8,1006.87 2241.46,1002.71 2259.5,1000C 2272.5,999.333 2285.5,999.333 2298.5,1000C 2314.44,1001.2 2328.77,1006.53 2341.5,1016C 2350.6,1025.02 2356.43,1035.85 2359,1048.5C 2360.29,1082.13 2360.96,1115.8 2361,1149.5C 2361.4,1153.02 2362.4,1156.35 2364,1159.5C 2366.75,1162.76 2369.92,1165.43 2373.5,1167.5C 2369.36,1179.4 2365.52,1191.4 2362,1203.5C 2340.81,1204.65 2324.98,1195.99 2314.5,1177.5C 2303.1,1193.04 2287.76,1202.21 2268.5,1205C 2240.96,1209.77 2218.8,1201.27 2202,1179.5C 2190.66,1158.65 2189.66,1137.32 2199,1115.5C 2206.73,1102.11 2217.9,1092.61 2232.5,1087C 2246.13,1082.37 2260.13,1079.87 2274.5,1079.5 Z"/></g><g><path fill="#71d599" d="M 2563.5,999.5 C 2591.04,996.503 2617.04,1001.34 2641.5,1014C 2645.89,1016.52 2649.89,1019.52 2653.5,1023C 2646.71,1034.11 2639.55,1044.95 2632,1055.5C 2617.48,1046.41 2601.65,1041.41 2584.5,1040.5C 2577.55,1040.32 2571.22,1042.15 2565.5,1046C 2559.25,1054.69 2560.59,1062.03 2569.5,1068C 2585.87,1074.79 2602.54,1080.79 2619.5,1086C 2656.99,1100.82 2669.16,1127.32 2656,1165.5C 2649.05,1179.78 2638.22,1189.95 2623.5,1196C 2595.4,1206.68 2566.73,1208.35 2537.5,1201C 2520.86,1196.18 2506.19,1188.02 2493.5,1176.5C 2502.77,1165.65 2512.27,1154.98 2522,1144.5C 2540.68,1160.5 2562.18,1166.34 2586.5,1162C 2598.5,1158.63 2603,1150.8 2600,1138.5C 2598.55,1135.38 2596.38,1132.88 2593.5,1131C 2580.17,1125.34 2566.51,1120.67 2552.5,1117C 2537.57,1112.05 2524.73,1103.89 2514,1092.5C 2498.72,1070.16 2498.72,1047.82 2514,1025.5C 2527.7,1011.4 2544.2,1002.73 2563.5,999.5 Z"/></g><g><path fill="#71d599" d="M 1957.5,1199.5 C 1957.5,1134.83 1957.5,1070.17 1957.5,1005.5C 1974.17,1005.5 1990.83,1005.5 2007.5,1005.5C 2008.83,1016.78 2010.66,1028.11 2013,1039.5C 2024.91,1007.13 2047.75,994.461 2081.5,1001.5C 2078.41,1020.43 2075.75,1039.43 2073.5,1058.5C 2048.23,1050.29 2030.73,1058.29 2021,1082.5C 2018.72,1088.33 2017.06,1094.33 2016,1100.5C 2015.5,1133.5 2015.33,1166.5 2015.5,1199.5C 1996.17,1199.5 1976.83,1199.5 1957.5,1199.5 Z"/></g><g><path fill="#a5e4bf" d="M 1181.5,1006.5 C 1180.6,1007.21 1180.26,1008.21 1180.5,1009.5C 1179.37,1007.03 1179.2,1004.37 1180,1001.5C 1180.61,1003.15 1181.11,1004.82 1181.5,1006.5 Z"/></g><g><path fill="#a5e4be" d="M 2007.5,1005.5 C 1990.83,1005.5 1974.17,1005.5 1957.5,1005.5C 1957.5,1070.17 1957.5,1134.83 1957.5,1199.5C 1956.5,1134.67 1956.17,1069.67 1956.5,1004.5C 1973.67,1004.17 1990.67,1004.5 2007.5,1005.5 Z"/></g><g><path fill="#a9e5c2" d="M 2160.5,1199.5 C 2160.5,1134.83 2160.5,1070.17 2160.5,1005.5C 2141.5,1005.5 2122.5,1005.5 2103.5,1005.5C 2103.5,1070.17 2103.5,1134.83 2103.5,1199.5C 2102.5,1134.67 2102.17,1069.67 2102.5,1004.5C 2122.17,1004.5 2141.83,1004.5 2161.5,1004.5C 2161.83,1069.67 2161.5,1134.67 2160.5,1199.5 Z"/></g><g><path fill="#71d598" d="M 2160.5,1199.5 C 2141.5,1199.5 2122.5,1199.5 2103.5,1199.5C 2103.5,1134.83 2103.5,1070.17 2103.5,1005.5C 2122.5,1005.5 2141.5,1005.5 2160.5,1005.5C 2160.5,1070.17 2160.5,1134.83 2160.5,1199.5 Z"/></g><g><path fill="#b6e9cc" d="M 1620.5,1004.5 C 1611.68,1005.49 1602.68,1005.83 1593.5,1005.5C 1593.5,1018.83 1593.5,1032.17 1593.5,1045.5C 1592.5,1032.01 1592.17,1018.34 1592.5,1004.5C 1601.83,1004.5 1611.17,1004.5 1620.5,1004.5 Z"/></g><g><path fill="#fefefe" d="M 1867.5,1072.5 C 1867.5,1076.17 1867.5,1079.83 1867.5,1083.5C 1846.5,1083.5 1825.5,1083.5 1804.5,1083.5C 1804.21,1068.47 1808.87,1055.31 1818.5,1044C 1826.74,1038.76 1835.74,1037.09 1845.5,1039C 1854.57,1041.74 1860.74,1047.57 1864,1056.5C 1865.92,1061.67 1867.08,1067.01 1867.5,1072.5 Z"/></g><g><path fill="#ddf5e7" d="M 1593.5,1045.5 C 1602.5,1045.5 1611.5,1045.5 1620.5,1045.5C 1620.5,1076.5 1620.5,1107.5 1620.5,1138.5C 1619.5,1108 1619.17,1077.34 1619.5,1046.5C 1610.65,1046.83 1601.98,1046.49 1593.5,1045.5 Z"/></g><g><path fill="#b9bbba" d="M 571.5,616.5 C 572.167,616.5 572.833,616.5 573.5,616.5C 576.126,623.086 579.293,629.419 583,635.5C 583.513,634.473 584.013,633.473 584.5,632.5C 585.167,632.5 585.5,632.833 585.5,633.5C 584.455,636.114 583.955,638.78 584,641.5C 661.106,803.379 737.94,965.379 814.5,1127.5C 865.829,1128.5 917.162,1128.83 968.5,1128.5C 993.422,1074.15 1018.76,1019.99 1044.5,966C 1028.29,931.08 1011.96,896.247 995.5,861.5C 996.167,861.5 996.833,861.5 997.5,861.5C 997.5,862.167 997.833,862.5 998.5,862.5C 1014.71,896.885 1030.71,931.385 1046.5,966C 1021.24,1020.68 995.578,1075.18 969.5,1129.5C 936.173,1130.5 902.84,1130.83 869.5,1130.5C 850.59,1130.83 831.757,1130.49 813,1129.5C 788.116,1076.34 762.949,1023.34 737.5,970.5C 711.939,1023.56 686.605,1076.73 661.5,1130C 609.5,1130.67 557.5,1130.67 505.5,1130C 480.205,1077.24 455.038,1024.41 430,971.5C 405.135,1023.23 380.302,1074.89 355.5,1126.5C 355.5,1125.83 355.167,1125.5 354.5,1125.5C 379.251,1073.1 403.917,1020.6 428.5,968C 403.019,914.205 377.685,860.372 352.5,806.5C 352.5,805.5 352.5,804.5 352.5,803.5C 403.786,911.409 455.119,1019.41 506.5,1127.5C 557.833,1128.83 609.167,1128.83 660.5,1127.5C 685.978,1074.05 711.311,1020.55 736.5,967C 680.525,850.554 625.525,733.72 571.5,616.5 Z"/></g><g><path fill="#d4f2e0" d="M 1511.5,1062.5 C 1512.49,1067.98 1512.82,1073.64 1512.5,1079.5C 1502.5,1079.5 1492.5,1079.5 1482.5,1079.5C 1491.99,1078.51 1501.65,1078.17 1511.5,1078.5C 1511.5,1073.17 1511.5,1067.83 1511.5,1062.5 Z"/></g><g><path fill="#d5f2e1" d="M 2302.5,1062.5 C 2303.49,1067.98 2303.82,1073.64 2303.5,1079.5C 2293.83,1079.5 2284.17,1079.5 2274.5,1079.5C 2283.65,1078.51 2292.99,1078.17 2302.5,1078.5C 2302.5,1073.17 2302.5,1067.83 2302.5,1062.5 Z"/></g><g><path fill="#dbf5e6" d="M 1867.5,1072.5 C 1868.48,1076.3 1868.82,1080.3 1868.5,1084.5C 1846.99,1084.83 1825.66,1084.5 1804.5,1083.5C 1825.5,1083.5 1846.5,1083.5 1867.5,1083.5C 1867.5,1079.83 1867.5,1076.17 1867.5,1072.5 Z"/></g><g><path fill="#fdfefe" d="M 1487.5,1112.5 C 1495.5,1112.5 1503.5,1112.5 1511.5,1112.5C 1511.5,1123.5 1511.5,1134.5 1511.5,1145.5C 1503.38,1159.89 1491.05,1165.72 1474.5,1163C 1464.2,1158.41 1459.2,1150.41 1459.5,1139C 1461.15,1122.19 1470.48,1113.35 1487.5,1112.5 Z"/></g><g><path fill="#fefefe" d="M 2278.5,1112.5 C 2286.5,1112.5 2294.5,1112.5 2302.5,1112.5C 2302.5,1123.5 2302.5,1134.5 2302.5,1145.5C 2294.42,1159.87 2282.09,1165.7 2265.5,1163C 2255.2,1158.41 2250.2,1150.41 2250.5,1139C 2252.15,1122.19 2261.48,1113.35 2278.5,1112.5 Z"/></g><g><path fill="#e4f7eb" d="M 2278.5,1112.5 C 2286.65,1111.51 2294.98,1111.17 2303.5,1111.5C 2303.83,1123.01 2303.49,1134.35 2302.5,1145.5C 2302.5,1134.5 2302.5,1123.5 2302.5,1112.5C 2294.5,1112.5 2286.5,1112.5 2278.5,1112.5 Z"/></g><g><path fill="#e4f7eb" d="M 1487.5,1112.5 C 1495.65,1111.51 1503.98,1111.17 1512.5,1111.5C 1512.83,1123.01 1512.49,1134.35 1511.5,1145.5C 1511.5,1134.5 1511.5,1123.5 1511.5,1112.5C 1503.5,1112.5 1495.5,1112.5 1487.5,1112.5 Z"/></g><g><path fill="#bebebe" d="M 348.5,795.5 C 350.341,797.849 351.674,800.515 352.5,803.5C 352.5,804.5 352.5,805.5 352.5,806.5C 351.596,805.791 351.263,804.791 351.5,803.5C 300.5,803.5 249.5,803.5 198.5,803.5C 173.728,857.714 148.394,911.714 122.5,965.5C 147.763,1019.86 173.429,1074.03 199.5,1128C 250.832,1128.5 302.166,1128.67 353.5,1128.5C 353.263,1127.21 353.596,1126.21 354.5,1125.5C 355.167,1125.5 355.5,1125.83 355.5,1126.5C 355.461,1127.58 355.127,1128.58 354.5,1129.5C 335.845,1130.5 317.179,1130.83 298.5,1130.5C 264.827,1130.83 231.16,1130.5 197.5,1129.5C 197,1128.5 196.5,1127.5 196,1126.5C 170.553,1073.27 145.386,1019.94 120.5,966.5C 136.458,930.944 152.791,895.61 169.5,860.5C 178.786,841.258 188.119,821.925 197.5,802.5C 248.167,801.833 298.833,801.167 349.5,800.5C 348.873,799.583 348.539,798.583 348.5,797.5C 348.5,796.833 348.5,796.167 348.5,795.5 Z"/></g></svg>