<svg xmlns="http://www.w3.org/2000/svg" role="img" viewBox="-9.01 -9.01 520.52 171.02"><title>Modine logo</title><path fill="#595959" d="M271.66834 91.9084l6.07508-30.3754h6.75009c10.80014 0 15.5252 5.40007 13.50018 15.5252-2.02503 10.12514-9.45013 14.8502-20.25027 14.8502h-6.07508l-26.32535 12.82517h33.75045c16.87522 0 23.62531-2.02502 31.72542-7.4251 5.40007-4.05005 9.45012-11.47515 11.47515-19.57526 2.02503-8.77511.67501-15.5252-2.70003-19.57526-6.07509-7.4251-16.20022-8.77512-32.40044-8.77512h-29.7004L245.343 104.73358l26.32535-12.82517zm-67.5009 2.70004c-8.10011 0-12.15017-6.07508-10.12514-17.55024 2.70004-11.47515 9.45013-16.87522 16.87523-16.87522 8.1001 0 12.15016 5.40007 10.12513 16.87522-2.70003 11.47516-9.45012 17.55024-16.87522 17.55024l-2.70004 11.47515c14.17519 0 24.30032-3.37504 31.72542-9.45012 5.40008-4.72507 9.45013-10.80015 11.47516-19.57527 3.37504-16.87522-4.05006-29.02538-31.05042-29.02538-14.17519 0-21.60029 2.02502-27.67537 6.07508-7.4251 4.05005-13.50018 12.15016-15.5252 22.9503-3.37505 16.87523 4.05005 29.0254 31.05041 29.0254l2.70004-11.47516zm130.27673-45.2256h23.62532l-12.15016 55.35073h-22.95031l11.47515-55.35074zm31.72543 0h34.42545l10.80015 37.12549 8.1001-37.1255h20.25028l-11.47516 55.35074h-33.07544l-11.47515-39.82553h-.675l-8.10012 39.82553h-20.25027l11.47516-55.35074zm82.3511 0h53.3257l-2.02502 11.47515h-31.05042l-2.02502 10.12513h29.02538L493.0713 83.1333H464.0459l-2.02503 10.12513h31.05042l-2.70004 11.47515h-53.3257l11.47514-55.35074z"/><path fill="#595959" fill-rule="evenodd" d="M76.59073 49.38283h35.10047l4.05006 37.1255 18.90025-37.1255h35.77548l-12.15017 55.35074h-21.60028l8.77511-41.85055-24.30032 41.85055h-22.2753l-5.40007-41.85055-9.45013 41.85055H64.44057l12.15017-55.35074z"/><path fill="#095ba6" fill-rule="evenodd" d="M114.39124 22.38247c34.42546-10.80014 58.05077.67501 56.70075 24.97534h28.35038v-1.35002c8.77512-36.45049-21.60029-54.67573-67.5009-39.82553-44.5506 14.17519-87.75117 54.00072-98.55131 90.4512 8.77512-29.7004 44.5506-62.10082 81.00108-74.25099z"/><path fill="#fa002c" fill-rule="evenodd" d="M86.04086 131.73393c-34.42546 10.12514-57.37576-2.02502-55.35074-27.00036H3.01475v1.35002c-10.12513 36.45049 18.90026 55.35074 64.80087 41.85056 24.30032-7.4251 48.60065-22.2753 66.82589-40.50054l1.35002-4.72506c-14.8502 12.82517-32.40044 23.62531-49.95067 29.02538z"/></svg>