<svg xmlns="http://www.w3.org/2000/svg" role="img" viewBox="-8.74 -8.74 636.48 483.48"><title>Molex logo</title><g fill="red" fill-rule="nonzero" transform="translate(-108.661 -45.172) translate(3.548 3.535)"><path stroke="none" d="M390.80259 45.17215c-102.98395 0-190.11822 67.81487-219.29437 161.1786h18.60969c28.5453-83.50692 107.55753-143.5152 200.68468-143.5152 93.12715 0 172.13938 60.00828 200.68468 143.5152h18.6097c-29.09729-93.36373-116.31042-161.1786-219.29438-161.1786"/><path stroke="none" d="M591.48727 343.39986c-28.5453 83.5069-107.55753 143.51517-200.68468 143.51517-93.12715 0-172.13938-60.00827-200.68468-143.51517h-18.60969c29.17615 93.44257 116.31042 161.17862 219.29437 161.17862 102.98396 0 190.19709-67.73605 219.29438-161.17862h-18.6097"/><path stroke="none" d="M415.32637 185.29659h34.22285V320.2955h-34.22285V185.29659z"/><path stroke="#ee2c30" stroke-dasharray="none" stroke-linecap="butt" stroke-linejoin="miter" stroke-miterlimit="4" stroke-width="1.963" d="M348.53657 242.54496c12.53788-.70969 20.50219 12.85329 20.50219 30.75326 0 23.10436-7.96431 33.11888-20.97532 33.11888-12.30129 0-20.89645-10.01452-20.89645-33.11888 0-13.72069 4.88904-30.75326 21.36958-30.75326zm-54.33073 33.43431c0 33.04003 23.89293 49.99375 54.80385 49.99375 30.91098 0 54.88277-16.55945 54.88277-51.96512 0-30.12241-20.97531-50.15145-55.04044-50.15145-32.56695 0-54.64618 18.60965-54.64618 52.12282z"/><path stroke="none" stroke-dasharray="none" stroke-linecap="butt" stroke-linejoin="miter" stroke-miterlimit="4" stroke-width=".249" d="M518.38919 301.84354c-9.77794 0-18.29424-7.57003-18.29424-18.92507h70.3382c.55199-34.8537-20.18673-59.61401-54.56731-59.61401-29.72814 0-52.51709 20.34447-52.51709 51.80741 0 32.5669 22.94668 50.23031 52.67482 50.23031 21.6061 0 45.0259-7.88545 51.41311-31.85721h-35.24797c-2.68107 5.59867-7.9643 8.35857-13.79952 8.35857zm15.2189-38.55984h-33.51314c-.07886-24.91803 33.8286-25.23345 33.51314 0"/><path stroke="none" stroke-dasharray="none" stroke-linecap="butt" stroke-linejoin="miter" stroke-miterlimit="4" stroke-width=".249" d="M694.86555 202.96v-5.59867h5.83522c2.75994 0 3.23306 1.65594 3.23306 2.75991 0 2.05022-1.18284 2.83876-3.54846 2.83876h-5.51982zm-4.57358 11.90703h4.57358v-8.35858h4.8101c3.4696 0 3.70619 1.18282 3.70619 4.02158 0 2.20793.15773 3.31189.47313 4.337h5.12556v-.63083c-.94631-.31542-.94631-1.10397-.94631-4.17929 0-3.94273-1.02505-4.57357-2.83874-5.36211 2.20795-.70969 3.39073-2.68105 3.39073-5.04669 0-1.81365-1.02511-5.99294-7.01806-5.99294h-11.27618v21.21186"/><path stroke="none" stroke-dasharray="none" stroke-linecap="butt" stroke-linejoin="miter" stroke-miterlimit="4" stroke-width=".249" d="M677.91182 204.53709c0-11.82817 9.54141-21.36957 21.36957-21.36957 11.82817 0 21.36958 9.5414 21.36958 21.36957 0 11.82818-9.54141 21.36957-21.36958 21.36957-11.82816 0-21.36957-9.54139-21.36957-21.36957zm21.36957 18.5308c10.25107 0 18.53083-8.27972 18.53083-18.5308s-8.27976-18.60966-18.53083-18.60966c-10.25106 0-18.53083 8.35858-18.53083 18.60966 0 10.25108 8.27977 18.5308 18.53083 18.5308"/><path stroke="none" stroke-dasharray="none" stroke-linecap="butt" stroke-linejoin="miter" stroke-miterlimit="4" stroke-width=".249" d="M613.09344 226.06437c4.65237 7.33347 9.22595 15.92861 14.27265 22.8678l16.16521-22.8678h32.56689c-9.46255 14.9035-21.60617 28.70303-30.67439 43.60654 0 0 22.00036 35.48452 31.22638 50.62459h-36.58854c-7.09686-11.51276-14.27265-25.39115-17.34799-29.80701l-18.53077 29.80701h-33.19774c11.7493-17.58455 33.8286-50.46688 33.8286-50.46688l-29.72815-43.76425h38.00785"/><path stroke="none" stroke-dasharray="none" stroke-linecap="butt" stroke-linejoin="miter" stroke-miterlimit="4" stroke-width=".249" d="M210.46238 320.37435v-59.29858c0-9.22598 7.49118-16.71716 16.71713-16.71716 9.22595 0 16.71714 7.49118 16.71714 16.71716v59.29858l32.80348-.07885v-70.65363c-.47313-6.62378-7.01806-16.4806-14.90351-20.8176-10.56645-5.04668-34.22285-10.88191-53.77873 10.64537-6.30841-6.70264-14.19385-11.82818-22.78895-14.19382-14.50924-3.07532-29.72814.07886-40.37353 11.11849-1.41937 1.18282-2.60221 4.10043-2.52335 1.65594v-11.98588H108.6612v94.23113h33.67086v-59.29859c0-9.22597 7.57005-16.71715 16.796-16.71715 9.22602 0 16.7172 7.49118 16.7172 16.71715v59.37744h34.61712"/></g></svg>