<svg xmlns="http://www.w3.org/2000/svg" role="img" viewBox="1.92 0.92 29.96 24.03"><title>NYC Mass Timber Lab/Studio (NYCEDC) logo</title><style>svg {enable-background:new 0 0 33.87 25.89}</style><style>.st0{fill:#231f20}.st1{fill:#563413}.st2{fill:#a98d75}</style><path d="M13.34 22.07v2.27h-.27v-2.7h.25l1.91 2.29v-2.29h.27v2.7h-.25l-1.91-2.27zm3.82 1.13l-1.13-1.53v-.03h.3l.97 1.32.97-1.32h.3v.03l-1.13 1.53v1.14h-.27V23.2h-.01zm1.87-.2c0 .16.03.32.09.45.06.14.13.26.23.36.1.1.22.17.36.25s.29.09.45.09c.2 0 .38-.03.54-.1.16-.07.29-.16.4-.27l.13.19c-.13.14-.29.25-.46.32-.17.07-.38.12-.59.12-.2 0-.38-.03-.55-.1-.17-.07-.32-.17-.45-.29-.13-.13-.22-.27-.29-.45-.07-.17-.1-.35-.1-.55 0-.2.03-.38.1-.55.07-.17.17-.32.29-.45.13-.13.27-.22.45-.29.17-.07.36-.1.55-.1.22 0 .42.04.59.12.17.07.33.19.46.32l-.14.19c-.1-.12-.25-.2-.4-.27-.16-.07-.33-.1-.54-.1-.16 0-.32.03-.45.09s-.26.14-.36.25-.17.22-.23.36c-.05.09-.08.25-.08.41z" class="st0"/><path d="M4.98 19.35l-.84 1h-.11l-.83-1v1.7h-.69v-2.77h.59l.99 1.16.99-1.16h.59v2.77h-.69v-1.7zm2.12-1.08h.81l1.05 2.77h-.7l-.19-.51H6.91l-.19.51h-.7l1.08-2.77zm-.02 1.76h.82l-.4-1.08-.42 1.08zm2.23.19c.11.07.23.13.39.19.15.06.32.09.49.09.14 0 .25-.02.33-.07.08-.04.12-.11.12-.2 0-.06-.02-.11-.07-.15-.05-.04-.13-.07-.24-.1l-.46-.12c-.47-.12-.71-.38-.71-.77 0-.12.02-.23.07-.33.05-.11.11-.2.21-.27.09-.08.21-.14.34-.18.13-.04.3-.07.49-.07.1 0 .2.01.29.02.1.01.19.03.28.05s.17.04.24.07c.07.03.14.05.19.08l-.19.59c-.11-.06-.24-.12-.39-.16-.15-.04-.3-.07-.44-.07s-.23.02-.29.06c-.06.04-.09.09-.09.16 0 .06.02.11.06.14s.1.06.19.08l.49.14c.26.07.44.17.56.3.12.13.17.29.17.48 0 .13-.03.25-.08.37-.06.11-.13.21-.24.29s-.22.14-.37.19c-.14.04-.3.07-.48.07-.1 0-.21-.01-.31-.02-.1-.02-.2-.04-.29-.06-.09-.02-.17-.05-.25-.08-.07-.03-.13-.06-.18-.08l.17-.64zm2.56 0c.11.07.23.13.39.19.15.06.32.09.49.09.14 0 .25-.02.33-.07.08-.04.12-.11.12-.2 0-.06-.02-.11-.07-.15-.05-.04-.13-.07-.24-.1l-.45-.12c-.47-.12-.71-.38-.71-.77 0-.12.02-.23.07-.33.05-.11.11-.2.21-.27.09-.08.21-.14.34-.18.13-.04.3-.07.49-.07.1 0 .2.01.29.02.1.01.19.03.28.05s.17.04.24.07c.07.03.14.05.19.08l-.19.59c-.11-.06-.24-.12-.39-.16-.15-.04-.3-.07-.44-.07s-.23.02-.29.06c-.06.04-.09.09-.09.16 0 .06.02.11.06.14s.1.06.19.08l.49.14c.26.07.44.17.56.3.12.13.17.29.17.48 0 .13-.03.25-.08.37-.06.11-.13.21-.24.29s-.22.14-.37.19c-.14.04-.3.07-.48.07-.1 0-.21-.01-.31-.02-.1-.02-.2-.04-.29-.06-.09-.02-.17-.05-.25-.08-.07-.03-.13-.06-.18-.08l.16-.64zm4.71-1.35v2.17h-.69v-2.17h-.85v-.6h2.36v.6h-.82zm1.27-.6h.68v2.77h-.68v-2.77zm3.85 1.08l-.84 1h-.12l-.83-1v1.7h-.68v-2.77h.59l.99 1.16.99-1.16h.59v2.77h-.69v-1.7zm1.38-1.08h1.23c.31 0 .55.06.72.18.17.12.25.31.25.56 0 .14-.04.26-.11.35s-.17.17-.29.23c.2.04.35.12.46.23.11.11.16.27.16.46 0 .23-.09.42-.26.55s-.42.2-.75.2h-1.42v-2.76h.01zm1.12 1.09c.12 0 .22-.02.28-.06.06-.04.1-.11.1-.21s-.03-.17-.09-.21c-.06-.04-.15-.06-.28-.06h-.44v.54h.43zm.19 1.14c.26 0 .38-.1.38-.29 0-.1-.04-.18-.11-.23s-.17-.07-.31-.07h-.6v.58h.64v.01zm1.62.54v-2.77h2.23v.59h-1.57v.48h1.27v.58h-1.27v.53h1.57v.6h-2.23v-.01zm2.79-2.77h1.32c.16 0 .31.02.44.05.13.04.25.09.34.17s.17.17.22.29c.05.12.08.25.08.41 0 .1-.02.2-.05.29-.03.09-.08.17-.14.24s-.13.13-.21.18c-.08.05-.17.09-.26.12l.81.89v.13h-.73l-.84-.98h-.28v.98h-.68v-2.77h-.02zm.68.6v.69h.62c.11 0 .2-.03.27-.09s.1-.15.1-.25c0-.11-.03-.19-.1-.25s-.16-.09-.27-.09h-.62v-.01z" class="st0"/><path d="M8.08 6.32l7.86-4.82 9.6 5.65-7.86 4.86-1.65-.98 6.02-3.66-2.18-1.28-1.84 1.12-1.98-1.17 1.84-1.12-1.9-1.11-6 3.64z" class="st0"/><path d="M18.03 7.21l-1.98-1.17-2.21 1.35-1.6-.95-1.95 1.19 5.41 3.2 1.96-1.2-1.83-1.08z" class="st0"/><path d="M9.94 8.86c1.53.47 1.84 1.14 1.88 2.21.02.88-.3 1.5-1 1.9l.58.34c.43-.12 1.08-.22 1.54.1.31.22.48.59.51 1.11l1.44.84c-.06-.37-.2-.76-.52-1.01-.69-.54-1.36-1.47-1.35-2.32 0-.23.01-1.43.02-2.32L8.08 6.76v1.08c.5.39 1.18.81 1.86 1.02z" class="st1"/><path d="M12.81 13.61c-.31-.22-.76-.19-1.12-.12l1.52.89c-.05-.36-.18-.63-.4-.77zm3.15.02c-.32-.49-.6-.93-.64-1.34-.04-.41.08-.78.36-1.02l-1.14-.67c-.22.41-.42.97-.42 1.58 0 .46.4.91.85 1.44.59.67 1.29 1.49 1.46 2.66l.69.41c-.05-1.35-.67-2.29-1.16-3.06z" class="st1"/><path d="M14.52 14.17c.42.34.58.87.64 1.34l1.03.6c-.2-1-.84-1.73-1.37-2.35-.48-.57-.9-1.05-.9-1.59 0-.66.23-1.26.45-1.7l-1.08-.64c-.01.87-.02 1.97-.02 2.19-.03.79.61 1.65 1.25 2.15zm3.16.53v-2.25l-.81-.48c-.02.63.07 1.75.81 2.73zm-9.2-3.91c-.06-.14-.22-.24-.4-.3v.87l.19.11c.21-.27.28-.51.21-.68zm3.11.28c-.04-1-.29-1.56-1.71-2-.66-.2-1.3-.58-1.81-.94v1.38c1.1.24 2.32.66 2.32 1.38 0 .46-.42.89-.97 1.25l1.16.67c.92-.43 1.02-1.16 1.01-1.74z" class="st1"/><path d="M16.65 11.84l-.61-.36c-.26.2-.51.46-.48.81.02.35.29.76.6 1.23.51.78 1.18 1.82 1.22 3.31l.3.17v-1.93c-1.02-1.15-1.08-2.54-1.03-3.23zm-6.48-.93c-.01-.54-1.04-.91-2.09-1.14v.49c.26.08.52.22.61.46.11.24.02.54-.22.89l.73.43c.55-.36.97-.74.97-1.13z" class="st1"/><g><path d="M25.07 8.48c.11.08.26.11.47.06v-.95l-.66.41c.01.21.07.37.19.48zm-2.54 4.14c-.69-.34-1.55-.2-1.83.13-.37.46-.45 1.81-.46 2.65l.82-.51c.08-.49.28-1.23.7-1.34.24-.06.51.07.79.41l.72-.45c-.11-.49-.48-.76-.74-.89z" class="st2"/><path d="M21.82 13.79c-.24.06-.41.51-.51.96l1.05-.65c-.21-.25-.39-.36-.54-.31zm2.46-2.55c.53.14.94.34 1.25.57v-.73c-.08-.08-.18-.17-.28-.25-.3-.28-.64-.59-.97-.97-.29-.37-.51-.73-.65-1.07l-1.5.93c.21.51.75 1.14 2.15 1.52zm.65-2.59c-.14-.12-.23-.31-.26-.52l-.84.52c.13.32.34.69.64 1.05.32.39.65.69.95.96.04.04.08.07.12.12V8.77c-.07.01-.13.02-.19.02-.17-.01-.3-.06-.42-.14zm-7.25 6.44V17l.7-.43c-.14-.57-.46-1.12-.7-1.48z" class="st2"/><path d="M24.23 11.45c-1.46-.39-2.03-1.07-2.26-1.59-.01-.02-.02-.04-.02-.05l-1.14.71c.18.23.45.48.85.63.17.06.4.12.63.19.87.24 1.97.55 2.39 1.34l.87-.54v-.06c-.32-.25-.75-.48-1.32-.63zm-5.66 5l.61-.37c.23-.83.36-1.91-.19-2.66-.41-.54-.57-1.03-.47-1.47v-.01l-.84.52v2.25c.23.31.7.99.89 1.74z" class="st2"/><path d="M22.21 11.55c-.24-.07-.46-.13-.64-.19-.46-.17-.77-.46-.96-.71l-1.76 1.08c-.05.07-.08.16-.11.26-.07.36.07.79.43 1.28.57.76.51 1.78.3 2.62l.55-.35c0-.84.06-2.38.51-2.92.37-.46 1.37-.54 2.09-.19.43.22.72.55.84.99l1-.63c-.36-.71-1.42-1.01-2.25-1.24z" class="st2"/></g></svg>