<svg xmlns="http://www.w3.org/2000/svg" role="img" viewBox="-7.62 -7.62 395.98 114.98"><title>OpenMP logo</title><path fill="#09747d" d="M221.2 0h31.59l11.73 45.68q.33 1.29.66 0L276.83 0h31.6l-.02 76.9q0 .63-.63.63h-18.97q-.27-.01-.27-.27.03-23.86.01-47.77c-.01-2.2.34-5.75-.14-8.66q-.1-.62-.25-.02l-14.35 56.46a.34.33-83.3 0 1-.32.26h-17.47q-.26 0-.33-.26l-14.38-56.3q-.53-2.09-.53.06l.05 55.95a.56.55 0 0 1-.56.55h-18.49q-.61 0-.61-.61L221.2 0zm94.08 0h41.21q2.12.29 4.26.48 17.92 1.63 20.25 19.4v7.3q-.85 9.67-7.29 15.25c-8.94 7.74-22.8 6.85-33.68 6.32q-.56-.02-.56.53l.01 27.74q0 .51-.51.51l-23.43-.01q-.29 0-.29-.28L315.28 0zm24.16 16.26l.06 16.24a.44.44 0 0 0 .44.44l7.79-.03a10.01 8.42-.2 0 0 9.98-8.45v-.28a10.01 8.42-.2 0 0-10.04-8.39l-7.79.03a.44.44 0 0 0-.44.44zM64.24 60.74c-6.41 13.61-20.8 19.59-35.32 17.59-13.73-1.89-24-12.52-27.16-26.07q-2.96-12.73.89-25.51 4.08-13.54 16.4-19.81C31.54.58 48.66 2.88 58.4 13.07q6.33 6.63 8.76 16.22 4.15 16.43-2.92 31.45zM11.12 49.72c2.15 12.49 11.48 20.81 24.33 20.53 20.59-.45 26-22.64 22.16-38.74-1.91-8.01-6.5-15.1-14.3-17.97-9.11-3.36-20.16-1.13-26.42 6.09Q12.18 25.06 11 33.65q-1.17 8.58.12 16.07zM75.38 100h-.39q.12-.08-.17-.2a.48.47-79 0 1-.29-.44l-.11-73.62q0-1.24 1.24-1.12 2.77.28 5.59.04 1.34-.12 1.31 1.23l-.1 4.14q-.03 1.64.92.31 5.03-7 14.55-6.82c11.52.21 18.74 9.08 20.7 20.24 1.75 9.95-.01 22.58-7.89 29.44-7.93 6.92-19.45 8.03-26.81-.22q-.64-.71-.64.25l-.08 26q0 .49-.49.51l-7.34.26zm18.69-68.72q-2.15.21-3.98 1.59c-6.06 4.57-7.73 11.53-7.71 18.92.01 7.13 1.93 14.5 8.45 18.12q3.37 1.88 7.02 1.19 6.94-1.32 9.95-7.94c2.03-4.45 2.91-9.8 2.24-14.76q-.28-2.09-.49-4.15-.34-3.35-2.49-7.09-3.42-5.97-10.92-6.41-.66-.04-1.24.27a2.3 2.3 0 0 1-.83.26zm36.83 22.86q.57 6.3 2.85 9.96 4.69 7.53 13.45 7.12 8.78-.41 12.51-10.67.07-.21.29-.18 7.84.88 9.13 1.33.06.02.04.09-5.66 17.48-23.99 16.96c-7.63-.21-14.17-3.01-18.65-9.35q-4-5.66-4.63-12.18c-1.27-13.21 1.87-28.29 16.26-32.53 14.21-4.18 26.89 2.86 30.07 17.59q1.15 5.35 1.01 10.77-.01.5-.51.5h-37.28q-.6 0-.55.59zm.91-8.04l27.64-.1a.21.21 0 0 0 .21-.21l-.01-.59a14.06 13.82 89.8 0 0-13.87-14.01h-.42a14.06 13.82 89.8 0 0-13.77 14.11l.01.59a.21.21 0 0 0 .21.21zm51.37-14.89q9.23-10.99 23.14-6.42c8.17 2.68 10.3 9.45 10.35 17.18q.13 17.28.1 35.24 0 .32-.32.32h-8.4q-.33 0-.32-.33.17-19.26-.07-35.98c-.11-8.29-9.02-11.53-15.74-8.71-7.18 3.03-8.21 9.41-8.23 16.21q-.04 14.34.02 28.39 0 .42-.42.42h-8.28q-.27 0-.27-.27V25a.27.26-90 0 1 .26-.27h7.52q.29 0 .29.29l-.14 6q-.02.82.51.19zm173.78 41.37a4.44 4.44 0 0 1-4.44 4.44 4.44 4.44 0 0 1-4.44-4.44 4.44 4.44 0 0 1 4.44-4.44 4.44 4.44 0 0 1 4.44 4.44zm-2.81-.85q-1.08 1.44.22 3.03a.44.43 46.2 0 0 .67.02q2.51-2.85-.67-4.94-1.52-1.01-.63.58.12.22.31.38.47.42.1.93zm-3.29-1.21a.23.22-88.9 0 0-.26-.28c-2.4.6-2.28 3.46-.34 4.7q.63.41.48-.33-.42-2.1.12-4.09zm.97.31a.58.57 46.4 0 0-.02.91q.42.35.91.09a.62.61 42.6 0 0-.05-1.11q-.44-.19-.84.11zm1.79 4.05q-.26-1.48-1.67-1.86a.41.41 0 0 0-.51.45q.11.85-.42 1.51-.29.36.12.56 1.08.55 2.38.2a.47.46 74.6 0 0 .32-.58q-.05-.18-.22-.28zM0 87.23h66.52q.24 0 .24.24v7.05a.28.28 0 0 1-.28.28L0 94.79v-7.56z"/><path fill="#09747d" d="M381 87.3v7.43l-291.2.11q-.21 0-.21-.21l.01-7.2q0-.23.22-.23l291.18.1z"/></svg>