<svg xmlns="http://www.w3.org/2000/svg" role="img" viewBox="17.47 18.72 196.56 36.31"><title>OpenDAC logo</title><style>svg {shape-rendering:geometricPrecision;text-rendering:geometricPrecision;image-rendering:optimizeQuality;fill-rule:evenodd;clip-rule:evenodd}</style><path fill="#fdfdfe" d="M-.5-.5h226v64H-.5v-64z"/><path fill="#4f8af1" d="M54.5 27.5c1.4079 4.1859 2.0745 8.5192 2 13 .2709 1.8797-.3958 3.213-2 4 .1495-1.052-.0172-2.052-.5-3-1.6155 1.3009-3.1155 1.3009-4.5 0 1.3221.17 2.4887-.1634 3.5-1 2.1812-6.8345.1812-11.8345-6-15-2.6484.7192-4.1484 2.3859-4.5 5-.9884-1.295-1.9884-2.6283-3-4 5.5629-5.671 10.5629-5.3377 15 1z"/><path fill="#3e60c9" d="M89.5 24.5c10.683.5062 14.516 5.8396 11.5 16-2.8966 4.6549-7.0633 6.1549-12.5 4.5-5.9003-3.81-7.4003-8.9767-4.5-15.5 1.7297-1.9019 3.563-3.5686 5.5-5z"/><path fill="#3a5fc8" d="M155.5 25.5c13.694-2.4777 18.86 2.8556 15.5 16-.833.8333-1.667 1.6667-2.5 2.5-4.23 1.2899-8.564 1.7899-13 1.5v-20z"/><path fill="#345ac7" d="M179.5 25.5c2.266-.3588 4.099.3078 5.5 2 2.069 5.7057 4.235 11.3724 6.5 17-3.574 1.3607-5.24.0273-5-4-2.687-.1641-5.354.0026-8 .5-.293 3.0944-1.959 4.5944-5 4.5l6-20z"/><path fill="#3e60c9" d="M198.5 24.5c5.363-.4502 9.363 1.5498 12 6-.667.3333-1.333.6667-2 1-9.669-5.8358-13.502-3.1691-11.5 8 1.028 2.0159 2.695 3.0159 5 3 2.547-.7132 4.714-2.0465 6.5-4 .667.3333 1.333.6667 2 1-2.533 5.7016-6.866 7.5349-13 5.5-4.653-3.7885-6.153-8.6218-4.5-14.5 1.36-2.5226 3.193-4.5226 5.5-6z"/><path fill="#edf2fd" d="M49.5 41.5c-2.0698-3.7996-4.4031-7.4662-7-11 .3516-2.6141 1.8516-4.2808 4.5-5 6.1812 3.1655 8.1812 8.1655 6 15-1.0113.8366-2.1779 1.17-3.5 1z"/><path fill="#4478e3" d="M39.5 26.5c1.0116 1.3717 2.0116 2.705 3 4 2.5969 3.5338 4.9302 7.2004 7 11 1.3845 1.3009 2.8845 1.3009 4.5 0 .4828.948.6495 1.948.5 3-2.1282 1.1291-4.4615 1.2958-7 .5-2.5083-3.3381-5.175-6.5048-8-9.5-2.825 2.9952-5.4917 6.1619-8 9.5-7.0963 1.7431-10.4296-1.0902-10-8.5.0634-7.8872 3.8968-12.5538 11.5-14 2.8366.3532 5.0032 1.6865 6.5 4z"/><path fill="#f2f5fd" d="M30.5 26.5c3.3434.0011 5.6767 1.5011 7 4.5-2.5695 3.1283-4.9028 6.4616-7 10-1.2932.49-2.6266.6567-4 .5-.165-3.3499.0017-6.6832.5-10 .6972-2.0844 1.8639-3.7511 3.5-5z"/><path fill="#f9fafd" d="M89.5 28.5c8.0623-.5768 10.896 3.0899 8.5 11-3.6667 4-7.3333 4-11 0-1.1882-4.2414-.3549-7.9081 2.5-11z"/><path fill="#f9fafd" d="M159.5 28.5c5.922-1.2218 8.922 1.1115 9 7-.444 5.3044-3.444 7.6378-9 7v-14z"/><path fill="#2e57c6" d="M105.5 30.5c3.514.2639 7.181.4306 11 .5 4 4.6667 4 9.3333 0 14-2.599.769-5.099.6023-7.5-.5-.497 2.3098-.663 4.6432-.5 7h-3v-21z"/><path fill="#345ac7" d="M125.5 30.5c6.675-1.314 10.009 1.3527 10 8h-10c.28 3.7253 2.28 4.892 6 3.5 1.333-2 2.667-2 4 0-3.973 4.4231-8.14 4.5898-12.5.5-2.489-4.7435-1.655-8.7435 2.5-12z"/><path fill="#395dc8" d="M138.5 30.5c2.654 1.3215 5.321 1.3215 8 0 1.874-.1102 3.374.5564 4.5 2 .499 4.3206.666 8.6539.5 13h-3c.165-3.6817-.001-7.3484-.5-11-1.667-1.3333-3.333-1.3333-5 0-.499 3.6516-.665 7.3183-.5 11h-4v-15z"/><path fill="#dfe5f6" d="M181.5 30.5c1.948 1.8204 2.948 4.1538 3 7-1.788.2852-3.455-.0481-5-1 .872-1.9496 1.539-3.9496 2-6z"/><path fill="#f2f4fb" d="M110.5 33.5c6.143.5262 7.476 3.3595 4 8.5-4.996.6643-6.83-1.5023-5.5-6.5.717-.5442 1.217-1.2109 1.5-2z"/><path fill="#73a3f6" d="M54.5 27.5c2.8797 4.0479 3.5464 8.3813 2 13 .0745-4.4808-.5921-8.8141-2-13z"/><path fill="#ccd6f1" d="M126.5 33.5c2.477-.4492 4.477.2175 6 2-2.333 1.3333-4.667 1.3333-7 0 .363-.6835.696-1.3501 1-2z"/></svg>