<svg xmlns="http://www.w3.org/2000/svg" role="img" viewBox="-1.13 -1.13 65.26 23.26"><title>Oshkosh Corp logo</title><defs><clipPath><path d="M541 57h6v6.3125h-6zm0 0"/></clipPath><clipPath><path d="M547 57h6v6.3125h-6zm0 0"/></clipPath><clipPath><path d="M552 57h5v6.3125h-5zm0 0"/></clipPath><clipPath><path d="M556 55h6v8.3125h-6zm0 0"/></clipPath><clipPath><path d="M562 55h2v8.3125h-2zm0 0"/></clipPath><clipPath><path d="M568 55h6v8.3125h-6zm0 0"/></clipPath><clipPath><path d="M564 57h5v6.3125h-5zm0 0"/></clipPath><clipPath><path d="M517.76562 57H523v6.3125h-5.23438zm0 0"/></clipPath><clipPath><path d="M523 57h6v6.3125h-6zm0 0"/></clipPath><clipPath><path d="M533 57h6v6.3125h-6zm0 0"/></clipPath><clipPath><path d="M528 57h6v6.3125h-6zm0 0"/></clipPath><clipPath><path d="M531 21.29297h10V31h-10zm0 0"/></clipPath><clipPath id="a"><path d="M375.69531 49.3125H403V95h-27.30469zm0 0"/></clipPath><clipPath id="b"><path d="M391 62h27v46.48828h-27zm0 0"/></clipPath></defs><g transform="translate(11.255 -127.08) translate(-119.744 94.373)"><path fill="#211e1e" fill-opacity="1" fill-rule="nonzero" stroke="none" stroke-width=".353" d="M132.22263 42.45806v4.16581c0 .23151-.113.34451-.34451.34451h-1.57371c-.22738 0-.34314-.11989-.34314-.35415v-4.15617c0-.23426.10887-.34313.34314-.34313h1.57371c.23427 0 .34451.10887.34451.34313m-.11713-1.5999h-2.02709c-1.01149 0-1.56821.5581-1.56821 1.56959v4.22644c0 1.01286.55672 1.56959 1.56821 1.56959h2.02709c1.01148 0 1.56821-.55673 1.56821-1.56959v-4.22644c0-1.01148-.55673-1.56959-1.56821-1.56959"/><path fill="#211e1e" fill-opacity="1" fill-rule="nonzero" stroke="none" stroke-width=".353" d="M138.92679 44.15167l-2.34542-.60633c-.2012-.05237-.24529-.113-.24529-.33625v-.81166c0-.2067.11024-.30317.34451-.30317h1.44005c.23426 0 .34313.09646.34313.30317v.76619h1.4304v-.78686c0-.96463-.55948-1.5186-1.53789-1.5186h-1.88102c-1.01286 0-1.56959.53881-1.56959 1.5186v1.03904c0 .95085.60634 1.2485.96877 1.34083l2.39778.627c.1943.04686.25356.11852.25356.30456v.9977c0 .20946-.10611.30316-.34451.30316h-1.5627c-.23426 0-.34313-.09646-.34313-.30317v-.70555h-1.43178v.72622c0 .97841.54708 1.51722 1.53789 1.51722h2.01607c1.01148 0 1.56959-.5388 1.56959-1.51722v-1.2857c0-.6408-.36931-1.09141-1.04042-1.26918"/><path fill="#211e1e" fill-opacity="1" fill-rule="nonzero" stroke="none" stroke-width=".353" d="M153.10267 40.85816h-1.6564l-1.97473 3.04547h-.25632v-3.04547h-1.46347v7.36562h1.46347v-3.0441h.27423l1.95819 3.0124.0179.02618h1.6564l-2.5039-3.69039zm0 0"/><path fill="#211e1e" fill-opacity="1" fill-rule="nonzero" stroke="none" stroke-width=".353" d="M157.38148 42.45806v4.16581c0 .23151-.11162.34451-.34313.34451h-1.57372c-.22876 0-.34314-.11989-.34314-.35415v-4.15617c0-.23426.10887-.34313.34314-.34313h1.57372c.23426 0 .34313.10887.34313.34313m-.11714-1.5999h-2.02571c-1.01286 0-1.56959.5581-1.56959 1.56959v4.22644c0 1.01286.55673 1.56959 1.56959 1.56959h2.02571c1.01148 0 1.56959-.55673 1.56959-1.56959v-4.22644c0-1.01148-.55811-1.56959-1.56959-1.56959"/><path fill="#211e1e" fill-opacity="1" fill-rule="nonzero" stroke="none" stroke-width=".353" d="M164.08563 44.15167l-2.34404-.60633c-.2012-.05237-.24529-.113-.24529-.33625v-.81166c0-.2067.10886-.30317.34451-.30317h1.43867c.23564 0 .34451.09646.34451.30317v.76619h1.4304v-.78686c0-.96463-.56086-1.5186-1.53789-1.5186h-1.8824c-1.01148 0-1.5682.53881-1.5682 1.5186v1.03904c0 .95085.60633 1.2485.96738 1.34083l2.39778.627c.19569.04686.25494.11852.25494.30456v.9977c0 .20946-.10611.30316-.34451.30316h-1.56269c-.23427 0-.34451-.09646-.34451-.30317v-.70555h-1.4304v.72622c0 .97841.5457 1.51722 1.53788 1.51722h2.01607c1.01148 0 1.56959-.5388 1.56959-1.51722v-1.2857c0-.6408-.36931-1.09141-1.0418-1.26918"/><path fill="#211e1e" fill-opacity="1" fill-rule="nonzero" stroke="none" stroke-width=".353" d="M144.8496 43.90362h-2.26136v-3.04546h-1.45108v7.36561h1.45108V45.1797h2.26136v3.04408h1.45245v-7.3656h-1.45245zm0 0"/><path fill="#211e1e" fill-opacity="1" fill-rule="nonzero" stroke="none" stroke-width=".353" d="M170.00982 43.90362h-2.26136v-3.04546h-1.45108v7.36561h1.45108V45.1797h2.26136v3.04408h1.45107v-7.3656h-1.45107zm0 0"/><g clip-path="url(#a)" clip-rule="nonzero" transform="translate(-23.916 15.392) scale(.35278)"><path fill="#211e1e" fill-opacity="1" fill-rule="nonzero" stroke="none" d="M391.81641 49.95703l-13.15235 11.15234c-1.88281 1.59766-2.96875 3.94141-2.96875 6.40626v19.1289c0 .82422.48047 1.57031 1.23438 1.91016l14.10937 6.39062V73.21094c0-.61719.26953-1.20313.74219-1.60156l10.30469-8.75782v-9.50781l-8.03516-3.6914c-.74219-.33985-1.61328-.22266-2.23437.30468"/></g><g clip-path="url(#b)" clip-rule="nonzero" transform="translate(-23.916 15.392) scale(.35278)"><path fill="#211e1e" fill-opacity="1" fill-rule="nonzero" stroke="none" d="M417.43359 90.28125v-19.125c0-.82422-.48437-1.57422-1.23437-1.91406l-14.11328-6.38672v21.73437c0 .6172-.26953 1.20313-.73828 1.60157l-10.30469 8.7539v9.50782l8.03515 3.69531c.73829.33984 1.60938.21875 2.23438-.3086l13.15234-11.14843c1.88282-1.59766 2.96875-3.94141 2.96875-6.41016"/></g></g></svg>