<svg xmlns="http://www.w3.org/2000/svg" role="img" viewBox="-21.48 -7.48 1064.96 576.96"><title>Ozinga logo</title><style>svg {shape-rendering:geometricPrecision;text-rendering:geometricPrecision;image-rendering:optimizeQuality;fill-rule:evenodd;clip-rule:evenodd}</style><path fill="#d62629" d="M-.5 279.5v-2c44.0168-.617 88.0168-1.783 132-3.5-11.121-8.746-16.455-20.246-16-34.5-2.424.308-4.757-.026-7-1 5.907-13.559 11.907-27.059 18-40.5 15.618-2.028 31.285-3.528 47-4.5-.635 2.993-.801 5.993-.5 9 2.333 1.333 4.667 2.667 7 4 6.692-12.182 17.025-18.182 31-18 20.364 3.925 40.364 9.258 60 16 5.967-10.435 11.801-20.935 17.5-31.5-1.853-5.388-3.186-10.888-4-16.5-1.43.079-2.764-.254-4-1-17.101 6.64-33.768 14.14-50 22.5-2.02 1.217-4.02 1.383-6 .5-2.667 1.667-5.333 3.333-8 5-8.02-4.367-16.02-8.7-24-13-2.411-8.809-4.744-17.642-7-26.5.085-1.107.419-2.107 1-3 24.635-12.651 49.302-25.318 74-38 1-.667 2-.667 3 0 1.865 2.858 4.032 5.358 6.5 7.5 3.207-1.236 6.374-2.569 9.5-4 1.141-1.921 1.308-3.921.5-6-3.732-1.188-7.232-2.8546-10.5-5a858.68918 858.68918 0 0 1-11-31c.733-4.1989 2.066-8.1989 4-12 4.296-.8275 8.629-1.3275 13-1.5-2.022-4.0291-5.188-6.5291-9.5-7.5-.333-2.3333-.667-4.6667-1-7-2.624-3.748-5.124-7.5813-7.5-11.5 1.123-1.0437 2.456-1.7104 4-2a669.0208 669.0208 0 0 0 25-5c2-.6667 3.333-2 4-4 4.371-.8275 8.705-.6609 13 .5 2.309 5.8655 5.642 6.8655 10 3 2.4.5183 4.4 1.685 6 3.5 2.244.9057 4.577 1.4057 7 1.5 4.966-2.0545 10.133-3.7212 15.5-5 11.785 2.2558 23.618 2.4225 35.5.5 14.667-.6667 29.333-.6667 44 0 16.279 4.4865 32.612 8.8199 49 13 30.82 12.0777 61.154 25.2443 91 39.5 1.365 3.1866 2.199 6.5199 2.5 10 .333 7.6667.667 15.3333 1 23 1.461-3.732 3.294-7.232 5.5-10.5 2.982-.498 5.982-.6646 9-.5-.677 5.3742-.677 10.708 0 16 4.738-1.289 7.738.544 9 5.5-1.249 1.538-1.082 2.705.5 3.5 5.539.211 10.539 1.878 15 5 1.608 3.293 1.775 6.627.5 10 1.128.762 2.295 1.429 3.5 2-1.031 8.488 1.302 15.822 7 22 .356-3.229 2.19-4.729 5.5-4.5-3.15-4.46-4.484-9.46-4-15 .352-12.865 6.686-21.365 19-25.5.886-.825 1.219-1.825 1-3h12c-.219 1.175.114 2.175 1 3 14.276 4.873 20.776 14.873 19.5 30-1.295 6.087-3.795 11.587-7.5 16.5.43 1.434 1.264 2.601 2.5 3.5.499 4.655.666 9.321.5 14h6v-33h3c-.167-18.003 0-36.003.5-54 1.333-1.3333 2.667-2.6667 4-4 .667-12.6667.667-25.3333 0-38-2.767-3.4198-4.6-7.2532-5.5-11.5.863-4.4804 1.53-8.9804 2-13.5 1.322-.17 2.489.1634 3.5 1 4.091 5.8467 8.424 11.5133 13 17 .333 15 .667 30 1 45 1.333 1.3333 2.667 2.6667 4 4 .501-7.0159 1.168-14.0159 2-21 .833-.8333 1.667-1.6667 2.5-2.5 24-1.1052 48-2.1052 72-3 1.873 1.0847 3.54 2.418 5 4 5.754 1.5835 11.254 3.7502 16.5 6.5.684 1.2839.517 2.4505-.5 3.5-2.744.8035-5.411 1.8035-8 3 5.034 10.9421 8.367 22.442 10 34.5 21.05 2.745 42.05 5.912 63 9.5 16.262 2.985 32.262 6.985 48 12 4.927 1.875 8.76 5.042 11.5 9.5.5 9.327.666 18.661.5 28 2.948-.277 5.781.056 8.5 1 .333 6.333.667 12.667 1 19 3.519 4.037 5.685 8.704 6.5 14h-4c.333 2 .667 4 1 6h4c.166 5.344-.001 10.677-.5 16-4.737.969-9.57 1.303-14.5 1 2.265 18.624-4.068 33.458-19 44.5 40.472 1.258 80.805 2.925 121 5-341 .5-682 .667-1023 .5zm367-255c18.336-.1666 36.67.0001 55 .5 14.667 4 29.333 8 44 12 7.234 2.0776 14.234 4.7443 21 8 21.79 10.3948 43.456 21.0615 65 32-1.837 1.4803-3.837 1.4803-6 0l-66-30a1986.4574 1986.4574 0 0 1-60-16c-25.967-1.8175-51.967-2.8175-78-3 8.415-1.3343 16.748-2.501 25-3.5zm-38 16c30.582 1.9719 60.916 5.8052 91 11.5 16.943 4.8697 33.943 9.5363 51 14 23.236 9.0205 46.236 18.5205 69 28.5-2.007 4.6888-4.507 9.022-7.5 13C464.354 82.63 395.188 63.13 324.5 49c-.333-.3333-.667-.6667-1-1 1.801-2.4426 3.468-4.9426 5-7.5zm-13 26c68.419 25.4402 138.419 45.607 210 60.5-2.542 6.665-4.542 13.499-6 20.5-46.958-6.824-92.958-17.658-138-32.5-23.333-10-46.667-20-70-30 1.277-6.1585 2.611-12.3252 4-18.5zm-4 38c20.451 11.729 41.118 23.229 62 34.5 20.198 6.799 40.532 13.132 61 19 26.3 3.829 52.633 7.329 79 10.5 1.685 6.989-.982 9.989-8 9-24.331-1.541-48.664-3.041-73-4.5-19.995-5.332-39.995-10.666-60-16-21.219-12.106-41.219-25.94-60-41.5-.989-3.607-1.323-7.274-1-11zm285 19c3.455.628 4.622 2.628 3.5 6-1.394-1.888-2.56-3.888-3.5-6zm-8 1c3.635 2.107 5.801 5.107 6.5 9-3.186-2.339-5.352-5.339-6.5-9zm-277 2c19.093 15.386 39.093 29.552 60 42.5 10.892 4.278 21.892 8.278 33 12-17.671.262-35.338-.071-53-1-7.67-.626-15.17-2.126-22.5-4.5-5.08-7.152-9.414-14.818-13-23-2.042-8.584-3.542-17.251-4.5-26zm-69 38c12.317-9.47 24.817-18.803 37.5-28-.457 4.77-1.957 9.27-4.5 13.5-10.546 5.903-21.546 10.736-33 14.5zm355-13h4c.165 3.682-.001 7.348-.5 11-.973-3.279-2.473-6.279-4.5-9 .363-.683.696-1.35 1-2zm8 0c3.689 4.863 7.023 10.03 10 15.5-1.722 4.408-4.722 5.575-9 3.5.153-6.369-.18-12.703-1-19zm-5 16c1.273.577 1.273 1.243 0 2-.963-.47-.963-1.137 0-2zm95 3c1.3 2.524 1.3 5.191 0 8-1.053-.938-1.72-2.105-2-3.5.914-1.406 1.58-2.906 2-4.5zm-99 3c4.567-.226 4.9 1.274 1 4.5-2.06 1.696-4.393 2.863-7 3.5-1.647-.778-2.98-1.944-4-3.5 3.922-.462 7.255-1.962 10-4.5zm16 2h3v7c-4.014.166-8.014-.001-12-.5 2.902-2.417 5.902-4.584 9-6.5zm-409 31c4.554-.245 9.054.088 13.5 1 11.052 5.109 21.885 10.609 32.5 16.5 7.438 2.788 15.105 4.621 23 5.5-1.788 2.076-3.454 4.243-5 6.5-1.293.49-2.627.657-4 .5v6c3.726.323 7.393-.011 11-1 4.755-7.176 9.755-14.176 15-21 15.319-.999 30.652-1.333 46-1v39h5v-34h3c-5.289 19.689-.289 36.189 15 49.5-59 .667-118 .667-177 0 16.427-13.988 20.593-31.154 12.5-51.5-1.377-2.254-2.877-4.42-4.5-6.5 3.902-4.439 8.569-7.606 14-9.5zm504 11c5.629 1.902 8.296 5.902 8 12h4v11c13.805.044 27.305 1.044 40.5 3 13.195-1.956 26.695-2.956 40.5-3v-15c3.467-.054 6.134 1.446 8 4.5 3.667 1.5 7.333 3 11 4.5.997 7.638 1.331 15.304 1 23 1.644.214 3.144-.12 4.5-1 .172-4.371.672-8.704 1.5-13l3 1.5c3.153 11.807 9.487 21.474 19 29-116.333.667-232.667.667-349 0 12.218-8.604 17.884-20.438 17-35.5 1.644.214 3.144-.12 4.5-1 .499-4.321.666-8.654.5-13h11v3h8v-3h47v3h9v-3c5.779-.091 11.446.575 17 2v9h14v3h8v-3h39v3h7v-3c5.011.166 10.011-.001 15-.5.797-3.745 1.297-7.579 1.5-11.5 2.843-2.663 6.009-4.663 9.5-6zm-281 21h5c-.174 14.652 5.493 26.486 17 35.5-13 .667-26 .667-39 0 12.224-8.616 17.89-20.449 17-35.5z" opacity=".931"/><path fill="#d62629" d="M-.5 489.5v-76c16.8928-35.67 45.2262-55.17 85-58.5 38.104-3.533 69.604 8.967 94.5 37.5 23.08 34.619 25.414 70.619 7 108-15.477 24.772-37.644 40.272-66.5 46.5-33.646 6.586-64.3127-.081-92-20-12.3065-10.447-21.63986-22.947-28-37.5zm92-76c25.001 1 38.668 14 41 39-2.598 26.771-17.265 39.271-44 37.5-23.9912-7.465-33.4912-23.631-28.5-48.5 5.0348-15.537 15.5348-24.871 31.5-28z" opacity=".967"/><path fill="#d62629" d="M782.5 356.5c1.373-.157 2.707.01 4 .5 10.833 8.006 21.5 16.173 32 24.5-13.294 15.629-27.294 30.629-42 45-13.593-17.285-30.26-21.118-50-11.5-15.674 11.541-21.841 27.041-18.5 46.5 6.574 24.885 22.741 35.719 48.5 32.5 7.592-1.294 13.259-5.294 17-12-13.662-.076-27.329.09-41 .5 5.642-16.424 11.975-32.591 19-48.5 28.331-.5 56.665-.667 85-.5 1.135 18.981-.698 37.648-5.5 56-12.313 31.298-35.147 49.798-68.5 55.5-40.35 5.224-73.183-7.943-98.5-39.5-18.471-29.426-21.471-60.426-9-93 15.706-32.293 41.539-50.459 77.5-54.5 15.685-1.687 31.018-.187 46 4.5 1.344-2.029 2.677-4.029 4-6z" opacity=".954"/><path fill="#d62629" d="M998.5 357.5c18.69-.814 25.86 7.853 21.5 26-8.97 10.66-18.97 11.66-30 3-6.887-12.778-4.053-22.445 8.5-29zm4 4c13.53 2.72 17.03 10.053 10.5 22-1.5-2.167-3-4.333-4.5-6.5 3.79-2.053 4.96-5.219 3.5-9.5-.83-.833-1.67-1.667-2.5-2.5-4-.333-8-.667-12-1 1.815-.757 3.48-1.59 5-2.5zm-7 3c1.154 6.487 1.321 13.154.5 20-5.766-6.497-5.933-13.163-.5-20zm6 4c2.33-.253 4.33.414 6 2-1.52 1.783-3.52 2.449-6 2v-4zm0 9c2.66 1.589 4.66 3.922 6 7 .88.751 1.88 1.251 3 1.5-4.33 2-8.67 2-13 0 1.293-.49 2.63-.657 4-.5v-8z" opacity=".566"/><path fill="#d62629" d="M222.5 362.5h120c-17.75 41.914-36.083 83.58-55 125 17.667.667 35.333 1.333 53 2-6.71 18.301-13.71 36.468-21 54.5-40.81.993-81.477.66-122-1 18.871-41.575 37.871-83.075 57-124.5-17.654-1-35.321-1.333-53-1 6.163-18.659 13.163-36.992 21-55z" opacity=".952"/><path fill="#d62629" d="M377.5 362.5c18.576-.326 37.076.007 55.5 1 .667 60 .667 120 0 180-19.757.993-39.591 1.326-59.5 1v-127c-6.845.458-13.512-.042-20-1.5 7.611-18.052 15.611-35.885 24-53.5z" opacity=".952"/><path fill="#d62629" d="M463.5 362.5c19.678-.333 39.345 0 59 1 15.418 25.168 30.585 50.501 45.5 76 .333-25.333.667-50.667 1-76 18.424-.993 36.924-1.326 55.5-1v182c-16.714.319-33.381-.015-50-1-16.303-25.468-32.803-50.802-49.5-76-.5 25.665-.667 51.331-.5 77-20.576.327-41.076-.007-61.5-1-.829-60.404-.662-120.737.5-181z" opacity=".959"/><path fill="#d62629" d="M1023.5 532.5v12c-16.34.167-32.67 0-49-.5-4.463-10.428-8.796-20.928-13-31.5-21.667-1.333-43.333-1.333-65 0-3.71 10.634-7.71 21.134-12 31.5-17.333.667-34.667.667-52 0l-1-1c15.956-41.367 31.623-82.867 47-124.5-5.963-.996-11.963-1.329-18-1 7.097-18.199 14.764-36.199 23-54 24.667-1.333 49.333-1.333 74 0 22.028 56.433 44.03 112.766 66 169zm-95-118c6.743 19.059 13.41 38.225 20 57.5-13.333.667-26.667.667-40 0a5845.0681 5845.0681 0 0 1 20-57.5z" opacity=".951"/></svg>