<svg xmlns="http://www.w3.org/2000/svg" role="img" viewBox="-7.36 -7.36 382.46 68.71"><title>Prometheus Materials logo</title><defs><radialGradient id="a" cx="92.93" cy="21.5" r="59.01" gradientUnits="userSpaceOnUse"><stop offset=".35" stop-color="#598c33"/><stop offset="1" stop-color="#fff"/></radialGradient></defs><path fill="#a5afb9" d="M279.71 54.04h-1.51v-7.69l-4.71 6.13-4.67-6.13v7.69h-1.5v-9.41h1.88l4.34 5.69 4.33-5.69h1.87zm13.37 0h-1.64l-1.05-2.12h-6.1l-1.05 2.1h-1.64l4.79-9.41h1.9zm-3.42-3.51l-2.31-4.56-2.33 4.56zm12.85-4.5h-4.33v8h-1.5v-8h-4.33v-1.4h10.16zm11.41 8.01h-9.49v-9.41h9.14v1.4h-7.64v2.42h5.31v1.41h-5.31v2.78h8zm12.45 0h-1.74l-2.46-3.59h-4.57v3.59h-1.5v-9.41h7.14a3.05 3.05 0 0 1 2.24.8 2.86 2.86 0 0 1 .82 2.16 2.73 2.73 0 0 1-.67 1.93 2.8 2.8 0 0 1-1.68.86zm-3.35-5c1.16 0 1.74-.49 1.74-1.45s-.63-1.57-1.88-1.57h-5.28v3zm7.31 5h-1.46v-9.41h1.5zm13.38 0h-1.64l-1.05-2.12h-6.1l-1.05 2.12h-1.64l4.8-9.41h1.89zm-3.42-3.51l-2.3-4.56-2.34 4.56zm13.81 3.51h-8.5v-9.41h1.51v8h7zm10.33-7.2a8.68 8.68 0 0 0-4.1-1.07 5.36 5.36 0 0 0-2.13.34 1.06 1.06 0 0 0-.74.94c0 .41.26.72.79.91a7 7 0 0 0 1.84.28c1.25.09 2.08.16 2.48.21a5.44 5.44 0 0 1 2.52.87 2.18 2.18 0 0 1 .81 1.81 2.59 2.59 0 0 1-1.28 2.31 6.77 6.77 0 0 1-3.67.82 8.28 8.28 0 0 1-5.39-1.58l.82-1.13a8.42 8.42 0 0 0 4.59 1.37 5.31 5.31 0 0 0 2.46-.46 1.33 1.33 0 0 0 .84-1.21c0-.59-.37-1-1.1-1.19a23 23 0 0 0-3.1-.33 8.77 8.77 0 0 1-3.15-.62 1.91 1.91 0 0 1-1.05-1.85 2.38 2.38 0 0 1 1.2-2.1 6.23 6.23 0 0 1 3.37-.76 8.32 8.32 0 0 1 4.91 1.39z"/><path fill="url(#a)" d="M.43 7h21.28a7.54 7.54 0 0 1 3.37.78 9.18 9.18 0 0 1 2.77 2.12 10.13 10.13 0 0 1 1.88 3.1 9.79 9.79 0 0 1 .65 3.76 9.59 9.59 0 0 1-.74 3.52 9.4 9.4 0 0 1-1.9 2.86 9 9 0 0 1-2.8 1.92 8.25 8.25 0 0 1-3.38.7H5.68a.28.28 0 0 0-.31.32v9.8c0 .21-.1.32-.3.32H.43c-.2 0-.3-.11-.3-.32V7.39q0-.39.3-.39zm4.94 13a.28.28 0 0 0 .31.32h16A3.23 3.23 0 0 0 23 20a3.9 3.9 0 0 0 1.12-.78 3.49 3.49 0 0 0 .76-1.16 3.9 3.9 0 0 0 .26-1.42 4.24 4.24 0 0 0-.28-1.54 4.63 4.63 0 0 0-.76-1.3 4.18 4.18 0 0 0-1.08-.9 2.6 2.6 0 0 0-1.3-.34h-16a.28.28 0 0 0-.31.32zm30-12.64c0-.16.07-.24.23-.24h21.31a7.65 7.65 0 0 1 3.44.78 8.91 8.91 0 0 1 2.74 2.1 10.14 10.14 0 0 1 1.82 3 9.59 9.59 0 0 1 .67 3.5 8.8 8.8 0 0 1-.65 3.4 8.41 8.41 0 0 1-1.79 2.72 8.23 8.23 0 0 1-2.71 1.82 9.34 9.34 0 0 1-3.4.7c-.1 0-.12 0 0 .12l9.27 10.65a.16.16 0 0 1 0 .2.19.19 0 0 1-.17.12H60a.22.22 0 0 1-.15-.08l-9.58-11a.22.22 0 0 0-.15-.08H40.8a.21.21 0 0 0-.23.24V36c0 .16-.07.24-.23.24h-4.78c-.16 0-.23-.08-.23-.24zm5.43 12.23h16.11a4.29 4.29 0 0 0 1.22-.18 3.47 3.47 0 0 0 1.1-.56 2.76 2.76 0 0 0 .8-1 3.1 3.1 0 0 0 .3-1.4 4 4 0 0 0-.28-1.5 3.86 3.86 0 0 0-.78-1.22 4.18 4.18 0 0 0-1.1-.84 2.74 2.74 0 0 0-1.26-.32H40.8a.21.21 0 0 0-.23.24v6.52a.21.21 0 0 0 .23.26zM122.42 7h3.77a.41.41 0 0 1 .3.16l13.11 16.67c.05.05.11.05.19 0l13.07-16.64a.41.41 0 0 1 .31-.16H157c.25 0 .38.15.38.44v28.32c0 .29-.13.44-.38.44h-4.45c-.25 0-.38-.15-.38-.44V17.15c0-.08 0-.12-.11-.12a.15.15 0 0 0-.12 0l-10.78 13.68a.41.41 0 0 1-.31.16h-2.31a.47.47 0 0 1-.35-.16l-10.75-13.64h-.08c-.07 0-.11 0-.11.12v18.6c0 .29-.14.44-.42.44h-4.41c-.28 0-.41-.15-.41-.44V7.47c-.01-.29.13-.47.41-.47zm41.83.52c0-.29.15-.44.46-.44h25.46a.27.27 0 0 1 .26.2l1.48 4.92a.24.24 0 0 1 0 .28.32.32 0 0 1-.25.12h-21.75c-.28 0-.42.15-.42.44v5.48c0 .21.09.32.27.32H186a.25.25 0 0 1 .23.12.26.26 0 0 1 0 .24l-1.48 4.92a.3.3 0 0 1-.31.24h-14.68c-.18 0-.27.09-.27.28v5.48a.5.5 0 0 0 .12.34.37.37 0 0 0 .3.14h21.74a.32.32 0 0 1 .25.12.18.18 0 0 1 0 .24l-1.48 4.92a.27.27 0 0 1-.26.2h-25.45c-.31 0-.46-.15-.46-.44zM195 11.83l1.56-4.68c0-.05 0-.08.08-.08h28.91a.07.07 0 0 1 .08.08l1.63 4.68c0 .08 0 .12-.11.12h-13.3c-.08 0-.11 0-.11.12V36c0 .16-.07.24-.19.24h-4.83c-.13 0-.19-.08-.19-.24V12.07c0-.08 0-.12-.11-.12h-13.3a.11.11 0 0 1-.12-.12zm35.87-4.4a.32.32 0 0 1 .35-.36h4.52c.25 0 .38.12.38.36v11.08c0 .27.11.4.34.4h18.39c.26 0 .38-.13.38-.4V7.43c0-.24.12-.36.34-.36h4.53c.22 0 .34.12.34.36v28.44c0 .27-.12.4-.34.4h-4.53c-.22 0-.34-.13-.34-.4V24.79c0-.24-.12-.36-.38-.36h-18.4c-.23 0-.34.12-.34.36v11.08c0 .27-.13.4-.38.4h-4.52c-.23 0-.35-.13-.35-.4zm36.45.12a.4.4 0 0 1 .46-.44h25.46a.26.26 0 0 1 .26.2l1.5 4.92a.26.26 0 0 1 0 .28.32.32 0 0 1-.25.12H273c-.27 0-.41.15-.41.44v5.48c0 .21.09.32.26.32h16.27a.28.28 0 0 1 .26.36l-1.48 4.92a.3.3 0 0 1-.3.24h-14.78c-.17 0-.26.09-.26.28v5.48a.55.55 0 0 0 .11.34.39.39 0 0 0 .3.14h21.74a.32.32 0 0 1 .25.12.2.2 0 0 1 0 .24l-1.49 4.92a.26.26 0 0 1-.26.2h-25.44a.4.4 0 0 1-.46-.44zm32.42-.48h4.33a.45.45 0 0 1 .32.14.47.47 0 0 1 .13.34v14.72a8.6 8.6 0 0 0 1 4.24 8.21 8.21 0 0 0 2.45 2.8 9.9 9.9 0 0 0 3.42 1.56 15.72 15.72 0 0 0 7.71 0 9.9 9.9 0 0 0 3.42-1.56 8.32 8.32 0 0 0 2.45-2.8 8.71 8.71 0 0 0 .95-4.24V7.55c0-.32.15-.48.46-.48h4.33q.45 0 .45.48v14.72a14.91 14.91 0 0 1-1.15 6 13.49 13.49 0 0 1-3.25 4.6 14.87 14.87 0 0 1-5 3 20.49 20.49 0 0 1-13 0 14.68 14.68 0 0 1-5-3 13.17 13.17 0 0 1-3.23-4.6 15.08 15.08 0 0 1-1.14-6V7.55c-.12-.32.03-.48.34-.48zm53.36 29.8a45.53 45.53 0 0 1-6-.36c-1.79-.24-3.33-.51-4.64-.82a29.75 29.75 0 0 1-3.11-.88c-.77-.28-1.27-.47-1.5-.58a.21.21 0 0 1-.12-.16l-.57-6.16c0-.19.07-.28.19-.28a.08.08 0 0 1 .06 0h.06c.35.21.95.53 1.78.94a22.48 22.48 0 0 0 3.23 1.22 40 40 0 0 0 4.64 1.06 35 35 0 0 0 6 .46 18.57 18.57 0 0 0 6.86-1q2.49-1 2.49-2.7a1.53 1.53 0 0 0-.61-1.14 5.38 5.38 0 0 0-1.93-1 18.84 18.84 0 0 0-3.39-.66 43.53 43.53 0 0 0-5-.24 33.77 33.77 0 0 1-6.18-.48 18.47 18.47 0 0 1-4.22-1.26 9.28 9.28 0 0 1-2.66-1.74 7.21 7.21 0 0 1-1.48-1.88 6.05 6.05 0 0 1-.59-1.86 10.89 10.89 0 0 1-.11-1.44 7.18 7.18 0 0 1 1.5-4.68 10.35 10.35 0 0 1 3.85-2.9A19.52 19.52 0 0 1 347 6.85a41.15 41.15 0 0 1 5.8-.42 30 30 0 0 1 4.73.34q2.14.35 3.78.78a22.11 22.11 0 0 1 2.66.86c.69.28 1.13.47 1.33.58s.12 0 .12.16l.38 6c0 .16 0 .24-.19.24a.08.08 0 0 1-.06 0h-.06a17.23 17.23 0 0 0-1.92-1 22.8 22.8 0 0 0-2.9-1.1 30.44 30.44 0 0 0-3.67-.88 23.63 23.63 0 0 0-4.2-.36 33.3 33.3 0 0 0-5.78.4 14 14 0 0 0-3.42 1 3.49 3.49 0 0 0-1.6 1.16 2.62 2.62 0 0 0-.4 1.3c0 1.12.89 1.93 2.66 2.44a27.5 27.5 0 0 0 7.3.76c.93 0 2 0 3.15.08a29.89 29.89 0 0 1 3.57.38 25.1 25.1 0 0 1 3.57.86A11.08 11.08 0 0 1 365 22a7.6 7.6 0 0 1 2.2 2.42 6.72 6.72 0 0 1 .84 3.44 8.27 8.27 0 0 1-.15 1.3 6.8 6.8 0 0 1-.67 1.86 8.7 8.7 0 0 1-1.5 2 10 10 0 0 1-2.64 1.9 16.86 16.86 0 0 1-4.08 1.4 27.52 27.52 0 0 1-5.91.55zM93.08 4.08c10.19 0 18.49 7.82 18.49 17.42s-8.3 17.42-18.49 17.42-18.49-7.81-18.49-17.42S82.88 4.08 93.08 4.08m0-4C80.66.08 70.59 9.67 70.59 21.5s10.07 21.42 22.49 21.42 22.49-9.59 22.49-21.42S105.5.08 93.08.08z" transform="translate(-.13 -.08)"/><path fill="#6fac41" d="M99.28 10.62a.39.39 0 0 0 .4-.38.4.4 0 0 0-.8 0 .39.39 0 0 0 .4.38zm-1.41.59a.47.47 0 0 0 .48-.46.5.5 0 0 0-1 0 .47.47 0 0 0 .52.46zm-2.16.41a.53.53 0 0 0 .55.52.53.53 0 1 0-.55-.52zm-.9 1.84a.61.61 0 1 0-.64-.6.62.62 0 0 0 .64.6zm-1.94 1.03a.73.73 0 1 0 .72-.69.71.71 0 0 0-.72.69zm3.16-5.05h.1a.41.41 0 0 0 .24-.19.35.35 0 0 0 0-.28.4.4 0 0 0-.49-.27.36.36 0 0 0-.24.18.42.42 0 0 0 0 .29.4.4 0 0 0 .39.27zm-1.27.93h.11a.46.46 0 0 0 .29-.22.48.48 0 0 0 0-.35.5.5 0 0 0-.59-.32.46.46 0 0 0-.29.22.45.45 0 0 0 .42.68zm-1.81.9a.54.54 0 0 0 .53.39h.14a.53.53 0 0 0 .34-.26.49.49 0 0 0 0-.39.56.56 0 0 0-.67-.38.53.53 0 0 0-.34.26.49.49 0 0 0 0 .38zm-.53 2.03h.16a.67.67 0 0 0 .39-.29.61.61 0 0 0 .06-.46.64.64 0 0 0-.78-.42.6.6 0 0 0-.39.29.59.59 0 0 0-.06.45.65.65 0 0 0 .62.43zm-.96.62a.68.68 0 0 0-.45.34.65.65 0 0 0-.07.51.72.72 0 0 0 .7.51h.19a.71.71 0 0 0 .44-.36.68.68 0 0 0 .07-.52.73.73 0 0 0-.88-.48zm1.1-4.82a.35.35 0 0 0 .2 0 .39.39 0 0 0 .19-.23.41.41 0 0 0 0-.29.42.42 0 0 0-.55-.14.35.35 0 0 0-.18.23.33.33 0 0 0 0 .29.4.4 0 0 0 .34.14zm-.99 1.22a.46.46 0 0 0 .23-.06.43.43 0 0 0 .23-.28.48.48 0 0 0 0-.35.49.49 0 0 0-.65-.17.51.51 0 0 0-.23.29.45.45 0 0 0 0 .34.48.48 0 0 0 .42.23zm-.9 1.6a.54.54 0 0 0 .27-.07.51.51 0 0 0 .2-.72.57.57 0 0 0-.75-.2.57.57 0 0 0-.26.33.51.51 0 0 0 .06.4.55.55 0 0 0 .48.26zm-1.16 1.51a.65.65 0 0 0 .55.3.72.72 0 0 0 .32-.08.65.65 0 0 0 .29-.38.59.59 0 0 0-.06-.45.65.65 0 0 0-.86-.23.63.63 0 0 0-.3.38.62.62 0 0 0 .06.46zm.68 2.31a.72.72 0 0 0 .34-.43.68.68 0 0 0-.08-.52.72.72 0 0 0-1-.25.68.68 0 0 0-.34.42.67.67 0 0 0 .07.52.75.75 0 0 0 .63.35.8.8 0 0 0 .38-.09zm-1.07-6.11a.41.41 0 0 0 .28-.11.36.36 0 0 0 .12-.27.34.34 0 0 0-.12-.27.4.4 0 0 0-.56 0 .37.37 0 0 0-.11.27.39.39 0 0 0 .14.27.43.43 0 0 0 .25.11zm-.65 1.43a.49.49 0 0 0 .34-.14.43.43 0 0 0 .14-.32.45.45 0 0 0-.14-.33.48.48 0 0 0-.67 0 .43.43 0 0 0-.15.33.41.41 0 0 0 .15.32.47.47 0 0 0 .33.14zm-.46 1.73a.54.54 0 0 0 .38-.15.51.51 0 0 0 0-.76.57.57 0 0 0-.77 0 .53.53 0 0 0 0 .76.58.58 0 0 0 .39.15zm-.14 1.93a.68.68 0 0 0 .45-.17.61.61 0 0 0 .19-.44.57.57 0 0 0-.19-.42.64.64 0 0 0-.89 0 .57.57 0 0 0-.19.42.61.61 0 0 0 .19.44.66.66 0 0 0 .44.17zm.86 1.89a.68.68 0 0 0 .22-.49.66.66 0 0 0-.22-.49.73.73 0 0 0-1 0 .66.66 0 0 0-.22.49.68.68 0 0 0 .22.49.74.74 0 0 0 1 0zm-2.98-5.69a.45.45 0 0 0 .19.05.42.42 0 0 0 .35-.19.37.37 0 0 0 0-.29.38.38 0 0 0-.19-.24.41.41 0 0 0-.54.14.37.37 0 0 0 0 .29.38.38 0 0 0 .19.24zm-.3 1.55a.46.46 0 0 0 .23.06.48.48 0 0 0 .42-.23.43.43 0 0 0 0-.35.44.44 0 0 0-.22-.28.48.48 0 0 0-.65.17.45.45 0 0 0-.05.34.44.44 0 0 0 .27.29zm-.04 1.78a.54.54 0 0 0 .27.07.58.58 0 0 0 .48-.26.48.48 0 0 0 .06-.4.54.54 0 0 0-.26-.33.57.57 0 0 0-.75.19.56.56 0 0 0-.06.4.54.54 0 0 0 .26.33zm.13 1.05a.61.61 0 0 0-.06.46.58.58 0 0 0 .3.37.55.55 0 0 0 .31.08.63.63 0 0 0 .55-.3.59.59 0 0 0 .06-.45.6.6 0 0 0-.3-.38.66.66 0 0 0-.86.22zm.78 1.82a.67.67 0 0 0-.07.52.62.62 0 0 0 .34.42.64.64 0 0 0 .35.1.74.74 0 0 0 .63-.35.68.68 0 0 0 .07-.52.69.69 0 0 0-.34-.43.74.74 0 0 0-.98.26zm-3.18-4.05h.1a.4.4 0 0 0 .39-.28.37.37 0 0 0 0-.29.4.4 0 0 0-.24-.18.41.41 0 0 0-.49.27.37.37 0 0 0-.03.33.4.4 0 0 0 .27.15zm-.21.99a.41.41 0 0 0 0 .34.46.46 0 0 0 .3.22h.12a.48.48 0 0 0 .46-.34.44.44 0 0 0 0-.34.5.5 0 0 0-.3-.23.48.48 0 0 0-.58.35zm.4 1.64a.51.51 0 0 0 .05.4.55.55 0 0 0 .34.25h.14a.56.56 0 0 0 .53-.39.51.51 0 0 0 0-.4.56.56 0 0 0-1 .12zm.8 1.64a.59.59 0 0 0 .06.45.58.58 0 0 0 .39.29.47.47 0 0 0 .16 0 .62.62 0 0 0 .61-.45.55.55 0 0 0 0-.45.67.67 0 0 0-.48-.26.65.65 0 0 0-.74.42zm1.74 2.41h.18a.72.72 0 0 0 .7-.51.67.67 0 0 0-.06-.52.76.76 0 0 0-.45-.33.73.73 0 0 0-.88.49.65.65 0 0 0 .06.51.74.74 0 0 0 .45.36zm-4.66-3.98a.38.38 0 1 0-.4-.38.39.39 0 0 0 .4.38zm.06 1.01a.48.48 0 1 0 .48-.46.47.47 0 0 0-.48.46zm1.38 2.02a.53.53 0 1 0 0-1.06.53.53 0 1 0 0 1.06zm1.31.25a.61.61 0 1 0 .63.6.62.62 0 0 0-.63-.6zm.99 1.8a.72.72 0 0 0 1.44 0 .72.72 0 0 0-1.44 0zm-4.98-1.93h.1a.4.4 0 0 0 .24-.18.37.37 0 0 0 0-.29.4.4 0 0 0-.73-.09.37.37 0 0 0 0 .29.4.4 0 0 0 .39.27zm.9 1.24h.12a.48.48 0 0 0 .29-.23.45.45 0 0 0 0-.34.48.48 0 0 0-.59-.32.46.46 0 0 0-.29.22.4.4 0 0 0 0 .34.47.47 0 0 0 .47.33zm1.13.24a.59.59 0 0 0-.34.26.53.53 0 0 0-.05.39.55.55 0 0 0 .54.39h.14a.59.59 0 0 0 .34-.26.49.49 0 0 0 0-.39.57.57 0 0 0-.63-.39zm1.94 2.12a.63.63 0 0 0 .39-.3.52.52 0 0 0 .06-.45.64.64 0 0 0-.77-.43.65.65 0 0 0-.39.29.61.61 0 0 0-.06.46.63.63 0 0 0 .61.45zm1.83.84h.18a.69.69 0 0 0 .45-.33.65.65 0 0 0 .06-.51.74.74 0 0 0-1.33-.16.67.67 0 0 0-.06.52.73.73 0 0 0 .7.48zM80 21.92a.37.37 0 0 0 0-.29.4.4 0 0 0-.54-.14.35.35 0 0 0-.18.23.33.33 0 0 0 0 .29.4.4 0 0 0 .34.19.35.35 0 0 0 .2-.05.39.39 0 0 0 .18-.23zm1.27.93a.41.41 0 0 0-.05-.34.48.48 0 0 0-.65-.17.44.44 0 0 0-.22.28.43.43 0 0 0 0 .35.5.5 0 0 0 .41.23.53.53 0 0 0 .24-.06.49.49 0 0 0 .27-.29zm1.6.88a.47.47 0 0 0-.06-.4.56.56 0 0 0-.75-.19.52.52 0 0 0-.26.32.53.53 0 0 0 .54.66.55.55 0 0 0 .53-.39zm2 .59a.55.55 0 0 0-.06-.45.64.64 0 0 0-.86-.22.58.58 0 0 0-.3.37.57.57 0 0 0 .07.46.63.63 0 0 0 .54.3.72.72 0 0 0 .32-.08.59.59 0 0 0 .29-.38zm1.48.77a.7.7 0 0 0 .36-.1.68.68 0 0 0 .34-.42.63.63 0 0 0-.08-.52.75.75 0 0 0-1-.26.72.72 0 0 0-.34.43.68.68 0 0 0 .07.52.75.75 0 0 0 .65.35zm-6.48-.3a.36.36 0 0 0-.12.27.38.38 0 0 0 .12.28.39.39 0 0 0 .28.11.43.43 0 0 0 .28-.11.41.41 0 0 0 .11-.28.39.39 0 0 0-.11-.27.41.41 0 0 0-.56 0zm1.38.57a.41.41 0 0 0-.15.32.43.43 0 0 0 .15.33.46.46 0 0 0 .33.13.48.48 0 0 0 .34-.13.45.45 0 0 0 .14-.33.43.43 0 0 0-.14-.32.48.48 0 0 0-.67 0zm1.53.77a.52.52 0 0 0 .16.37.56.56 0 0 0 .78 0 .52.52 0 0 0 .16-.37.55.55 0 0 0-.16-.38.58.58 0 0 0-.78 0 .55.55 0 0 0-.16.38zm2.09-.33a.57.57 0 0 0-.19.43.61.61 0 0 0 .19.43.67.67 0 0 0 .89 0 .61.61 0 0 0 .19-.43.57.57 0 0 0-.19-.43.64.64 0 0 0-.89 0zm3.23.12a.65.65 0 0 0-.21-.49.74.74 0 0 0-1 0 .68.68 0 0 0 0 1 .76.76 0 0 0 .51.2.74.74 0 0 0 .51-.2.65.65 0 0 0 .19-.51zm-6.31 1.84a.4.4 0 0 0-.54.14.37.37 0 0 0 0 .29.35.35 0 0 0 .18.23.41.41 0 0 0 .54-.14.37.37 0 0 0 0-.29.39.39 0 0 0-.18-.23zm1.8.47a.44.44 0 0 0-.23-.29.5.5 0 0 0-.65.17.45.45 0 0 0 0 .34.48.48 0 0 0 .23.29.5.5 0 0 0 .24.06.48.48 0 0 0 .41-.23.45.45 0 0 0 0-.34zm1.82.37a.51.51 0 0 0-.2-.72.54.54 0 0 0-.81.59.54.54 0 0 0 .26.33.68.68 0 0 0 .27.07.56.56 0 0 0 .48-.27zm1.12-.12a.71.71 0 0 0 .31.08.65.65 0 0 0 .55-.3.58.58 0 0 0-.23-.83.64.64 0 0 0-.86.22.56.56 0 0 0-.07.45.6.6 0 0 0 .3.38zm1.9-.74a.8.8 0 0 0 .36.09.74.74 0 0 0 .63-.34.68.68 0 0 0 .07-.52.7.7 0 0 0-.34-.43.73.73 0 0 0-1 .25.68.68 0 0 0-.08.52.7.7 0 0 0 .36.43zm-4.56 2.55a.4.4 0 0 0-.48.27.37.37 0 0 0 0 .29.38.38 0 0 0 .25.18h.1a.39.39 0 0 0 .38-.29.35.35 0 0 0 0-.28.41.41 0 0 0-.25-.17zm1.6-.21a.49.49 0 0 0-.59.33.42.42 0 0 0 0 .34.44.44 0 0 0 .29.22h.12a.47.47 0 0 0 .46-.33.43.43 0 0 0 0-.35.46.46 0 0 0-.28-.21zm2.1-.26a.49.49 0 0 0-.34-.25.54.54 0 0 0-.67.37.49.49 0 0 0 0 .39.53.53 0 0 0 .34.26h.14a.56.56 0 0 0 .53-.39.51.51 0 0 0 0-.38zm1.87-.43a.59.59 0 0 0-.06-.45.61.61 0 0 0-.39-.29.63.63 0 0 0-.77.43.55.55 0 0 0 .05.45.67.67 0 0 0 .39.29h.17a.64.64 0 0 0 .61-.43zm1.75-1.24a.72277.72277 0 0 0-1.4-.36.65.65 0 0 0 .07.51.69.69 0 0 0 .44.34h.19a.72.72 0 0 0 .7-.49zm-4.58 4.07a.39.39 0 1 0 0 .77.39.39 0 1 0 0-.77zm1.47-.59a.46.46 0 1 0 .47.46.47.47 0 0 0-.47-.46zm2.11-.4a.55.55 0 1 0-.55.53.54.54 0 0 0 .55-.53zm.9-1.85a.61.61 0 1 0 .63.6.62.62 0 0 0-.63-.6zm1.98-1.03a.72.72 0 1 0-.72.69.7.7 0 0 0 .72-.69zm-3.3 5.07a.36.36 0 0 0-.25.18.37.37 0 0 0 0 .29.38.38 0 0 0 .38.28h.1a.44.44 0 0 0 .25-.19.35.35 0 0 0 0-.28.38.38 0 0 0-.48-.28zm1.25-.94a.5.5 0 0 0-.3.23.44.44 0 0 0 0 .34.48.48 0 0 0 .46.34h.12a.46.46 0 0 0 .3-.22.41.41 0 0 0 0-.34.48.48 0 0 0-.58-.35zm1.93-.91a.55.55 0 0 0-.67-.37.52.52 0 0 0-.34.25.51.51 0 0 0 0 .4.55.55 0 0 0 .53.39h.14a.53.53 0 0 0 .26-.32.49.49 0 0 0 .08-.35zm.37-2.01a.63.63 0 0 0-.39.3.59.59 0 0 0-.06.45.63.63 0 0 0 .61.45h.16a.63.63 0 0 0 .39-.3.58.58 0 0 0 .06-.45.64.64 0 0 0-.77-.45zm1.12-.64a.76.76 0 0 0 .45-.33.67.67 0 0 0 .06-.52.72.72 0 0 0-.88-.49.74.74 0 0 0-.45.34.65.65 0 0 0-.06.51.71.71 0 0 0 .7.51.55.55 0 0 0 .18-.02zm-1.3 4.87a.38.38 0 0 0-.19.24.37.37 0 0 0 0 .29.41.41 0 0 0 .35.19.45.45 0 0 0 .19-.05.41.41 0 0 0 .19-.24.37.37 0 0 0 0-.29.41.41 0 0 0-.54-.14zm.95-1.21a.46.46 0 0 0-.22.34.41.41 0 0 0 0 .34.48.48 0 0 0 .41.23.53.53 0 0 0 .24-.06.44.44 0 0 0 .22-.28.43.43 0 0 0 0-.35.49.49 0 0 0-.65-.22zm.87-1.55a.54.54 0 0 0-.26.33.45.45 0 0 0 .06.39.55.55 0 0 0 .47.27.6.6 0 0 0 .27-.07.48.48 0 0 0 .26-.33.51.51 0 0 0 0-.4.57.57 0 0 0-.8-.19zm1.42-1.61a.64.64 0 0 0-.86-.22.61.61 0 0 0-.3.37.57.57 0 0 0 .07.46.65.65 0 0 0 .55.3.71.71 0 0 0 .31-.08.6.6 0 0 0 .3-.38.56.56 0 0 0-.07-.45zm-.67-2.31a.68.68 0 0 0-.34.42.63.63 0 0 0 .08.52.72.72 0 0 0 .62.35.77.77 0 0 0 .36-.09.72.72 0 0 0 .34-.39.64.64 0 0 0-.08-.52.72.72 0 0 0-.98-.29zm.78 6.21a.39.39 0 0 0-.11.27.41.41 0 0 0 .11.28.43.43 0 0 0 .28.11.41.41 0 0 0 .28-.11.38.38 0 0 0 .12-.28.36.36 0 0 0-.12-.27.43.43 0 0 0-.56 0zm.6-1.4a.45.45 0 0 0-.14.33.43.43 0 0 0 .14.32.47.47 0 0 0 .33.14.48.48 0 0 0 .34-.14.43.43 0 0 0 .14-.32.45.45 0 0 0-.14-.33.48.48 0 0 0-.67 0zm.41-1.71a.52.52 0 0 0-.16.37.53.53 0 0 0 .16.38.58.58 0 0 0 .78 0 .53.53 0 0 0 .16-.38.52.52 0 0 0-.16-.37.56.56 0 0 0-.78 0zm.05-1.91a.57.57 0 0 0-.19.43.61.61 0 0 0 .19.43.66.66 0 0 0 .44.17.68.68 0 0 0 .45-.17.6.6 0 0 0 .18-.43.57.57 0 0 0-.18-.43.64.64 0 0 0-.89 0zm.12-.89a.7.7 0 0 0 .51-.2.65.65 0 0 0 .21-.49.67.67 0 0 0-.21-.49.76.76 0 0 0-1 0 .71.71 0 0 0-.21.49.69.69 0 0 0 .21.49.72.72 0 0 0 .49.2zm2.48 4.51a.41.41 0 0 0-.54.14.33.33 0 0 0 0 .29.36.36 0 0 0 .18.24.49.49 0 0 0 .2.05.39.39 0 0 0 .34-.19.37.37 0 0 0 0-.29.45.45 0 0 0-.18-.24zm.3-1.54a.47.47 0 0 0-.7.51.43.43 0 0 0 .23.28.46.46 0 0 0 .23.06.5.5 0 0 0 .42-.22.48.48 0 0 0 0-.35.49.49 0 0 0-.18-.28zm.03-1.79a.57.57 0 0 0-.75.2.49.49 0 0 0 0 .39.51.51 0 0 0 .26.33.52.52 0 0 0 .27.07.56.56 0 0 0 .48-.26.51.51 0 0 0 .05-.4.53.53 0 0 0-.31-.33zm-.13-1.05a.57.57 0 0 0 .07-.46.58.58 0 0 0-.3-.37.64.64 0 0 0-.86.22.58.58 0 0 0 .23.83.6.6 0 0 0 .31.08.64.64 0 0 0 .55-.3zm-.7-2.33a.67.67 0 0 0-.34-.43.73.73 0 0 0-1 .25.64.64 0 0 0-.08.52.72.72 0 0 0 .34.43.77.77 0 0 0 .36.09.74.74 0 0 0 .63-.34.68.68 0 0 0 .09-.52zm3.1 4.56a.41.41 0 0 0-.48.27.37.37 0 0 0 0 .29.38.38 0 0 0 .25.18h.1a.41.41 0 0 0 .39-.29.39.39 0 0 0 0-.28.37.37 0 0 0-.26-.17zm-.24-.65a.47.47 0 0 0 .46-.34.45.45 0 0 0 0-.34.49.49 0 0 0-.88.1.43.43 0 0 0 0 .35.46.46 0 0 0 .29.22zm.06-1.98a.49.49 0 0 0 0-.39.56.56 0 0 0-.34-.26.54.54 0 0 0-.63.77.53.53 0 0 0 .35.25.32.32 0 0 0 .14 0 .55.55 0 0 0 .48-.37zm-.81-1.64a.55.55 0 0 0 0-.45.66.66 0 0 0-.4-.29.64.64 0 0 0-.77.43.59.59 0 0 0 .06.45.58.58 0 0 0 .39.29.44.44 0 0 0 .16 0 .62.62 0 0 0 .56-.43zm-2.64-1.92a.69.69 0 0 0 .52.85.57.57 0 0 0 .18 0 .73.73 0 0 0 .7-.52.66.66 0 0 0-.07-.51.69.69 0 0 0-.44-.34.75.75 0 0 0-.89.52zm5.57 3.49a.39.39 0 0 0-.4.38.4.4 0 0 0 .8 0 .39.39 0 0 0-.4-.38zm-.06-1.01a.48.48 0 1 0-.48.46.48.48 0 0 0 .48-.46zm-1.39-2.02a.53.53 0 1 0 .56.53.54.54 0 0 0-.56-.53zm-1.3-1.46a.61.61 0 1 0 .63.61.62.62 0 0 0-.63-.61zm-.99-.59a.73.73 0 1 0-.73.69.71.71 0 0 0 .73-.69zm4.92 1.99a.41.41 0 0 0-.25.19.35.35 0 0 0 0 .28.4.4 0 0 0 .38.29h.1a.38.38 0 0 0 .25-.18.37.37 0 0 0 0-.29.4.4 0 0 0-.48-.29zm-1-1.28a.48.48 0 0 0-.3.22.45.45 0 0 0 0 .34.47.47 0 0 0 .46.34h.12a.5.5 0 0 0 .3-.23.44.44 0 0 0 0-.34.48.48 0 0 0-.58-.33zm-1.26-1.28a.52.52 0 0 0-.39.64.55.55 0 0 0 .53.4h.14a.53.53 0 0 0 .34-.26.49.49 0 0 0 0-.39.55.55 0 0 0-.62-.39zm-.89-.66a.62.62 0 0 0-.77-.43.58.58 0 0 0-.39.29.59.59 0 0 0-.06.45.64.64 0 0 0 .61.45h.17a.67.67 0 0 0 .39-.29.55.55 0 0 0 .05-.47zm-2.59.16h.19a.65.65 0 0 0 .44-.33.66.66 0 0 0 .07-.51.73.73 0 0 0-.89-.49.71.71 0 0 0-.44.33.68.68 0 0 0-.07.52.73.73 0 0 0 .7.48zm6.5-.06a.41.41 0 0 0-.54-.14.38.38 0 0 0-.22.2.37.37 0 0 0 0 .29.41.41 0 0 0 .35.19.45.45 0 0 0 .19-.05.41.41 0 0 0 .19-.24.37.37 0 0 0 .03-.25zm-2.01-.87a.48.48 0 0 0 0 .35.5.5 0 0 0 .42.22.46.46 0 0 0 .23-.06.43.43 0 0 0 .23-.28.48.48 0 0 0-.05-.35.49.49 0 0 0-.88.12zm-1.64-.87a.54.54 0 0 0 .06.39.56.56 0 0 0 .48.27.64.64 0 0 0 .27-.07.53.53 0 0 0 .26-.33.47.47 0 0 0-.06-.4.55.55 0 0 0-.74-.19.52.52 0 0 0-.27.33zm-1.93-.6a.57.57 0 0 0 .07.46.64.64 0 0 0 .55.3.71.71 0 0 0 .31-.08.63.63 0 0 0 .3-.38.6.6 0 0 0-.07-.45.64.64 0 0 0-.86-.22.58.58 0 0 0-.3.37zm-1.86-.67a.67.67 0 0 0-.34.43.68.68 0 0 0 .07.52.74.74 0 0 0 .63.34.8.8 0 0 0 .36-.09.72.72 0 0 0 .34-.43.68.68 0 0 0-.08-.52.73.73 0 0 0-.98-.25zm6.54.31a.43.43 0 0 0 .28-.11.36.36 0 0 0 .12-.27.34.34 0 0 0-.12-.27.4.4 0 0 0-.56 0 .34.34 0 0 0-.12.27.36.36 0 0 0 .12.27.43.43 0 0 0 .28.11zm-1.42-.54a.48.48 0 0 0 .34-.14.43.43 0 0 0 .14-.32.45.45 0 0 0-.14-.33.5.5 0 0 0-.67 0 .45.45 0 0 0-.14.33.43.43 0 0 0 .14.32.47.47 0 0 0 .33.14zm-1.19-.9a.53.53 0 0 0-.16-.38.58.58 0 0 0-.78 0 .49.49 0 0 0-.16.38.49.49 0 0 0 .16.37.58.58 0 0 0 .78 0 .52.52 0 0 0 .16-.37zm-2.5.5a.66.66 0 0 0 .44-.17.57.57 0 0 0 .19-.43.54.54 0 0 0-.19-.43.64.64 0 0 0-.89 0 .57.57 0 0 0-.18.43.6.6 0 0 0 .18.43.7.7 0 0 0 .45.17zm-1.6.19a.66.66 0 0 0 .22-.49.68.68 0 0 0-.22-.49.74.74 0 0 0-1 0 .68.68 0 0 0-.22.49.66.66 0 0 0 .22.49.74.74 0 0 0 1 0zm5.09-2.33a.34.34 0 0 0 .19.05.4.4 0 0 0 .35-.19.35.35 0 0 0 0-.28.38.38 0 0 0-.19-.24.41.41 0 0 0-.54.14.37.37 0 0 0 0 .29.36.36 0 0 0 .19.23zm-1.75-.81a.4.4 0 0 0 0 .35.44.44 0 0 0 .22.28.53.53 0 0 0 .24.06.48.48 0 0 0 .41-.23.41.41 0 0 0 0-.34.46.46 0 0 0-.22-.29.49.49 0 0 0-.65.17zm-1.88-.03a.51.51 0 0 0 0 .4.55.55 0 0 0 .53.39.53.53 0 0 0 .54-.66.52.52 0 0 0-.26-.32.57.57 0 0 0-.81.19zm-1.74 1.18a.68.68 0 0 0 .31.08.64.64 0 0 0 .55-.31.55.55 0 0 0 .06-.45.61.61 0 0 0-.29-.38.66.66 0 0 0-.86.22.58.58 0 0 0-.07.46.63.63 0 0 0 .3.38zm-2 .88a.7.7 0 0 0 .36.1.75.75 0 0 0 .63-.35.68.68 0 0 0 .07-.52.72.72 0 0 0-.34-.43.74.74 0 0 0-1 .26.66.66 0 0 0 .26.94zm5.26-3.75h.11a.4.4 0 0 0 .38-.28.37.37 0 0 0 0-.29.4.4 0 0 0-.24-.18.41.41 0 0 0-.49.27.37.37 0 0 0 0 .29.4.4 0 0 0 .24.19zm-1.57.21h.12a.47.47 0 0 0 .46-.34.43.43 0 0 0 0-.35.5.5 0 0 0-.29-.22.49.49 0 0 0-.59.33.45.45 0 0 0 0 .34.44.44 0 0 0 .3.24zm-2.1.26a.53.53 0 0 0 .34.26h.14a.55.55 0 0 0 .53-.39.49.49 0 0 0 0-.39.53.53 0 0 0-.34-.26.55.55 0 0 0-.67.38.49.49 0 0 0 0 .4zm-1.87.43a.59.59 0 0 0 .06.45.58.58 0 0 0 .39.29.44.44 0 0 0 .16 0 .62.62 0 0 0 .61-.44.61.61 0 0 0-.45-.75.64.64 0 0 0-.77.45zm-1.75 1.24a.63.63 0 0 0 .07.52.68.68 0 0 0 .44.33.63.63 0 0 0 .19 0 .72.72 0 0 0 .69-.51.67.67 0 0 0-.06-.52.74.74 0 0 0-1.33.15z"/><ellipse cx="92.95" cy="21.35" fill="#598c33" rx="4.62" ry="4.4"/></svg>