<svg xmlns="http://www.w3.org/2000/svg" role="img" viewBox="-2.12 -1.62 110.11 32.23"><title>Staubli logo</title><g fill="#969A9C" fill-rule="evenodd" clip-rule="evenodd" clip-path="url(#clip0_10359_1525)"><path d="M39.1083 5.83204c-.6225-1.21344.0383-2.8125 1.4752-3.56854 1.438-.75605 3.1087-.38719 3.7302.82782.6215 1.21396-.0383 2.81145-1.4752 3.56854-1.4369.7571-3.1086.38667-3.7302-.82782z"/><path d="M47.8055 5.83204c-.6226-1.21344.0392-2.8125 1.4752-3.56854 1.4379-.75605 3.1086-.38719 3.7296.82782.6231 1.21396-.0377 2.81145-1.4747 3.56854-1.4369.7571-3.1076.38667-3.7301-.82782z"/><path d="M95.8428 23.7999h4.8332l5.248-14.8704v-.00105l-4.861-.01048-5.2202 14.88193z"/><path d="M93.9781 8.90625h-4.8206l-5.222 14.92015h10.2903l1.0549-2.9151-5.4516-.009 4.149-11.99605z"/><path d="M81.0722 16.2943c.9571-.2861 1.6205-.5062 2.5047-1.3581.8837-.8519 1.3123-2.5359 1.0874-3.7949-.2156-1.21656-1.4468-2.22409-3.5182-2.22724l-8.7018.00681-5.208 14.89713h10.0106c1.257 0 2.2074-.2022 3.21-.5873 1.002-.3862 2.0367-1.2894 2.5166-2.9325.5072-1.7379-.1252-3.4145-1.9013-4.0039zm-3.511 4.2245c-.2502.1467-.7859.3065-1.7906.3049l-3.0062-.0031 1.2456-3.4035 2.8558-.011c1.4897-.0069 1.7192 1.0264 1.5729 1.785-.1489.7592-.6262 1.1799-.8775 1.3277zm1.8238-6.3119c-.3692.2971-.7332.5737-1.8998.5968l-2.5874.0157 1.0347-3.249 2.6169.0037c.7249 0 1.2001.109 1.4286.6932.2286.5863-.2249 1.6436-.593 1.9396z"/><path d="M64.5043 8.87891l-3.3874 9.69759c-.5047 1.2181-1.0057 1.5535-1.4871 1.8332-.4793.2788-1.1629.4103-1.6712.3883-.5145-.0231-1.1024.011-1.6737-.6586-.5347-.6245-.2338-1.9171.2078-2.9823l2.9039-8.27819h-4.6004l-3.1216 8.87599c-.2559.8404-.6618 2.2362-.107 3.6791.5548 1.4461 1.8118 2.1356 2.9478 2.4678 1.1391.3332 2.1262.3369 3.892.2683 1.7669-.0708 3.6206-.6047 4.6004-1.2308.9783-.6235 1.5595-1.2328 2.3574-2.8361l3.9654-11.22429h-4.8263z"/><path d="M42.0188 8.89746L31.9121 23.8192h4.3383l2.2694-3.3081h6.1919l.1309 3.3081h4.7064l-.5668-14.92174h-6.9634zm-1.2441 8.29084l3.5989-5.3185.2063 5.3185h-3.8052z"/><path d="M37.3434 12.2156l1.3444-3.31814H24.6079L23.416 12.1055l4.7483.0068-4.0647 11.731h4.8682l4.0942-11.6005 4.2814-.0272z"/><path d="M26.151 6.96785c-1.6428-1.04002-3.9489-1.81178-6.1754-2.09209-2.1826-.27664-5.3326.41496-5.7483 2.7402-.7725 4.33974 9.9878 5.43954 8.647 12.95644-1.1795 6.6268-7.7396 8.6283-14.41292 7.7816C5.53527 27.983 2.36561 26.7392 0 25.3508l2.29787-4.2235c1.91938 1.2669 4.50991 2.4735 7.13044 2.8041 2.92409.371 5.85999-.5129 6.59789-3.371 1.0703-4.1475-10.39114-5.5066-8.72926-12.93763C8.5617 1.97576 14.75-.07126 20.5935.66907c2.6644.33793 5.2777 1.06254 7.6015 2.26917l-2.044 4.02961z"/></g><defs><clipPath id="clip0_10359_1525"><path fill="#fff" d="M0 0h109.863v29H0z"/></clipPath></defs></svg>