<svg xmlns="http://www.w3.org/2000/svg" role="img" viewBox="-13.51 -13.01 676.52 676.02"><title>Stulz logo</title><g fill="none" stroke="#f28389" stroke-width="2"><path d="M649.72 0L649.69 294.96Q649.69 295.46 649.19 295.46L0 295.49M0 649.74L649.24 649.73Q649.75 649.73 649.75 649.22L649.75 531.53A.29.29 0 0 0 649.46 531.24L0 531.25M0 513.99L649.04 514A.72.71 90 0 0 649.75 513.28L649.75 313.03A.3.3 0 0 0 649.45 312.73L0 312.74" vector-effect="non-scaling-stroke"/><path d="M108.67 375.97C112.75 377.49 117.67 381.83 117.47 386.66Q117.45 387.25 118.04 387.25L152.81 387.25Q153.47 387.25 153.33 386.61C146.72 354.98 106.28 352.02 80.75 355.17 61.54 357.55 39.52 367.84 41.32 391.11 42.06 400.66 47.78 407.01 56.11 410.7Q64.69 414.49 75.15 417.48 93.47 422.7 109 427.45 113.31 428.77 116.26 431.95C119.4 435.32 119.08 441.26 116.99 445.19 114.67 449.57 109.81 451.75 105.06 452.55Q92.99 454.58 84.36 450.28 77.42 446.82 76.68 440.12 76.61 439.5 75.99 439.5L41.79 439.51Q41.17 439.51 41.26 440.11 44.33 461 64.27 467.89C75.29 471.69 87.13 472.63 98.69 472.59 118.8 472.51 150.02 469.15 153.11 443.22 155.8 420.65 140.5 412.64 121.96 407.47Q104.53 402.61 87.3 397.73C81.26 396.02 74.29 393.19 75.1 385.63Q75.88 378.37 83.42 375.7 96.03 371.23 108.67 375.97M217.5 377.57A.32.32 0 0 1 217.82 377.25L245.68 377.25A.32.32 0 0 0 246 376.93L246.01 355.82A.32.32 0 0 0 245.69 355.5L158.07 355.5A.32.32 0 0 0 157.75 355.82L157.75 376.93A.32.32 0 0 0 158.07 377.25L185.43 377.24A.32.32 0 0 1 185.75 377.56L185.75 470.93A.32.32 0 0 0 186.07 471.25L217.18 471.25A.32.32 0 0 0 217.5 470.93L217.5 377.57M422.67 458.11Q424.89 451.5 424.92 443.93 425.09 399.51 424.95 356 424.95 355.5 424.44 355.5L376.55 355.5Q375.99 355.5 375.99 356.06 376.04 395.59 375.97 434.66C375.96 442.42 375.26 448.85 365.9 450.48Q360.2 451.48 352.77 451.51 339.14 451.56 325.99 451.39C317 451.28 307.27 449.7 307.26 439.27Q307.24 397.89 307.25 356.05 307.25 355.5 306.71 355.5L258.29 355.5A.23.23 0 0 0 258.06 355.73Q257.84 403.27 258.12 439.36C258.17 446.3 258.09 458.11 263.78 463.02Q271.54 469.73 280.82 470.96 291.74 472.4 306.86 472.47C334.47 472.59 361.93 472.92 389.13 472.15Q397.25 471.92 404.42 470.54C410.39 469.4 420.47 464.69 422.67 458.11M475.34 449.5A.34.34 0 0 1 475 449.16L475 355.84A.34.34 0 0 0 474.66 355.5L443.34 355.5A.34.34 0 0 0 443 355.84L443 470.91A.34.34 0 0 0 443.34 471.25L512.41 471.25A.34.34 0 0 0 512.75 470.91L512.75 449.84A.34.34 0 0 0 512.41 449.5L475.34 449.5M523.25 376.94A.31.31 0 0 0 523.56 377.25L567.2 377.25A.31.31 0 0 1 567.46 377.73L520.56 451.73A.31.31 0 0 0 520.51 451.9L520.5 470.94A.31.31 0 0 0 520.81 471.25L608.19 471.25A.31.31 0 0 0 608.5 470.94L608.5 449.81A.31.31 0 0 0 608.19 449.5L559.69 449.51A.31.31 0 0 1 559.43 449.03L606.7 374.3A.31.31 0 0 0 606.75 374.13L606.75 355.81A.31.31 0 0 0 606.44 355.5L523.56 355.5A.31.31 0 0 0 523.25 355.81L523.25 376.94M71.01 599.81L65.2 597Q64.9 596.85 64.74 597.15 62.03 602.27 56.08 601.41C49.68 600.48 48.53 593.71 49.06 588.25 49.5 583.76 52.11 579.69 56.92 579.45Q62.51 579.16 64.9 584.33A.3.29-24.4 0 0 65.29 584.47L71.32 581.88Q71.56 581.78 71.45 581.54C67.28 572.98 57.1 570.79 49.21 575.04 41.49 579.19 39.85 589.41 42.14 597.16 44.83 606.27 53.41 609.54 62.28 607.46Q67.94 606.14 71.15 600.25 71.31 599.95 71.01 599.81M292.44 579.75Q295.82 580.41 297.38 584.06 297.62 584.61 298.17 584.38L303.59 582.09Q304.28 581.8 303.93 581.14 300.72 575.1 295.08 573.72C280.74 570.21 271.92 581.05 274.3 594.58Q276.4 606.53 287.79 607.9 298.94 609.25 303.92 600.16 304.03 599.97 303.83 599.87L297.79 596.95Q297.58 596.84 297.47 597.05 294.62 602.49 288.46 601.34 283.93 600.5 282.52 596.07C280.2 588.83 282.08 577.73 292.44 579.75M352.38 580.7C355.89 577.96 361.6 580.01 364.53 582.68Q365.15 583.25 365.77 582.67L369.69 579.01Q370.37 578.37 369.65 577.77 362.86 572.08 353.91 573.19C346.16 574.15 340.32 581.1 344.62 588.47 347.37 593.2 355.96 593.8 360.75 594.85Q363.31 595.41 363.45 597.7C363.59 600.03 361.03 601.33 359.02 601.48Q351.85 602.03 347.96 596.92 347.37 596.15 346.63 596.78L342.43 600.38Q341.53 601.16 342.41 601.95 351.76 610.47 363.24 607.21 372 604.73 371.48 595.86C371.21 591.42 367.46 588.75 363.41 587.84Q358.94 586.84 354.29 585.9C351.91 585.42 349.97 582.57 352.38 580.7M437.2256 588.0216A14.82 14.82 0 0 0 422.3798 573.2275L419.5198 573.2325A14.82 14.82 0 0 0 404.7257 588.0784L404.7344 593.0784A14.82 14.82 0 0 0 419.5802 607.8725L422.4402 607.8675A14.82 14.82 0 0 0 437.2343 593.0216L437.2256 588.0216M85.08 600.5A.33.33 0 0 1 84.75 600.17L84.75 573.83A.33.33 0 0 0 84.42 573.5L77.33 573.5A.33.33 0 0 0 77 573.83L77 607.17A.33.33 0 0 0 77.33 607.5L97.92 607.5A.33.33 0 0 0 98.25 607.17L98.25 600.83A.33.33 0 0 0 97.92 600.5L85.08 600.5M111.5 573.8A.3.3 0 0 0 111.2 573.5L104.06 573.5A.3.3 0 0 0 103.76 573.8L103.76 607.2A.3.3 0 0 0 104.06 607.5L111.2 607.5A.3.3 0 0 0 111.5 607.2L111.5 573.8M127.01 582.63Q127.07 582.62 127.08 582.68 129.69 594.84 133.1 607.04 133.23 607.51 133.72 607.51L139.74 607.5A1.05 1.03 7.4 0 0 140.73 606.75L147.27 583.77Q147.67 582.39 147.55 583.83 146.65 595.4 147.09 607.3 147.1 607.5 147.3 607.5L154.25 607.5A.25.25 0 0 0 154.5 607.25L154.5 574Q154.5 573.5 154 573.5L144.02 573.5Q143.52 573.5 143.38 573.98 139.85 586.23 137.61 595.2 137.45 595.83 137.42 596.49 137.35 597.91 137 596.54L131.22 574.03A.7.7 0 0 0 130.54 573.5L120.25 573.5A.5.5 0 0 0 119.75 574L119.75 607.25Q119.75 607.5 120 607.5L126.71 607.5Q126.87 607.5 126.88 607.34 127.33 595.11 126.66 582.75 126.65 582.68 126.72 582.67L127.01 582.63M169.28 600.98A.32.32 0 0 1 169.59 600.75L180.65 600.75A.32.32 0 0 1 180.96 600.98L182.82 607.27A.32.32 0 0 0 183.13 607.5L190.78 607.52A.32.32 0 0 0 191.09 607.1L179.92 573.71A.32.32 0 0 0 179.62 573.49L170.89 573.51A.32.32 0 0 0 170.59 573.73L159.35 607.1A.32.32 0 0 0 159.66 607.52L167.21 607.49A.32.32 0 0 0 167.52 607.26L169.28 600.98M207 580.83A.33.33 0 0 1 207.33 580.5L215.91 580.51A.33.33 0 0 0 216.24 580.18L216.25 573.83A.33.33 0 0 0 215.92 573.5L190.33 573.5A.33.33 0 0 0 190 573.83L190.01 580.17A.33.33 0 0 0 190.34 580.5L198.92 580.51A.33.33 0 0 1 199.25 580.84L199.25 607.17A.33.33 0 0 0 199.58 607.5L206.67 607.5A.33.33 0 0 0 207 607.17L207 580.83M229 580.8A.3.3 0 0 1 229.3 580.5L244.94 580.5A.3.3 0 0 0 245.24 580.2L245.25 573.8A.3.3 0 0 0 244.95 573.5L221.55 573.5A.3.3 0 0 0 221.25 573.8L221.25 607.2A.3.3 0 0 0 221.55 607.5L245.95 607.5A.3.3 0 0 0 246.25 607.2L246.25 600.8A.3.3 0 0 0 245.95 600.5L229.3 600.5A.3.3 0 0 1 229 600.2L229 593.8A.3.3 0 0 1 229.3 593.5L243.44 593.5A.3.3 0 0 0 243.74 593.2L243.75 587.05A.3.3 0 0 0 243.45 586.75L229.3 586.76A.3.3 0 0 1 229 586.46L229 580.8M325.72 600.98C321.96 602.22 317.45 601.04 317.25 596.43Q316.8 586.25 317.05 574.04 317.07 573.49 316.52 573.49L310 573.5A.56.56 0 0 0 309.45 574.07Q309.62 583.08 309.42 593.99C309.29 601.49 311.33 606.88 319.56 607.85 324.95 608.47 332.31 608.08 335.04 602.88Q336.75 599.62 336.75 594.15 336.75 583.98 336.76 573.8 336.76 573.5 336.46 573.5L329.27 573.5A.26.26 0 0 0 329.02 573.76Q328.97 584.34 329.03 594.4C329.04 597.01 328.58 600.03 325.72 600.98M392 580.82A.32.32 0 0 1 392.32 580.5L400.93 580.5A.32.32 0 0 0 401.25 580.18L401.25 573.82A.32.32 0 0 0 400.93 573.5L375.56 573.5A.32.32 0 0 0 375.24 573.82L375.25 580.18A.32.32 0 0 0 375.57 580.5L384.18 580.51A.32.32 0 0 1 384.5 580.83L384.5 607.18A.32.32 0 0 0 384.82 607.5L391.68 607.51A.32.32 0 0 0 392 607.19L392 580.82M471.58 583.84C472.11 587.4 471.44 590.96 471.47 594.71Q471.53 601.03 471.48 607.22A.28.28 0 0 0 471.76 607.5L478.5 607.5A.25.25 0 0 0 478.75 607.25L478.75 574Q478.75 573.5 478.25 573.5L468.48 573.5Q467.93 573.5 467.79 574.03L461.68 596.54Q461.38 597.62 461.14 596.53C460.95 595.68 461.04 594.82 460.82 593.96Q458.42 584.42 455.68 574.03A.71.71 0 0 0 454.99 573.5L444.75 573.5Q444.25 573.5 444.25 574L444.25 607.25A.25.25 0 0 0 444.5 607.5L451.28 607.5A.28.28 0 0 0 451.56 607.22L451.36 583.65Q451.35 582.73 451.58 583.62L457.42 606.92Q457.57 607.5 458.16 607.5L464.47 607.51A.63.62 8 0 0 465.07 607.06Q468.19 596.45 470.94 586.64 471.32 585.28 471.36 583.85 471.4 582.56 471.58 583.84M495 573.83A.33.33 0 0 0 494.67 573.5L487.57 573.5A.33.33 0 0 0 487.24 573.83L487.24 607.17A.33.33 0 0 0 487.57 607.5L494.67 607.5A.33.33 0 0 0 495 607.17L495 573.83M512.17 600.51A.31.31 0 0 1 511.92 600.01L527.43 579.34A.31.31 0 0 0 527.49 579.16L527.5 573.81A.31.31 0 0 0 527.19 573.5L502.31 573.5A.31.31 0 0 0 502 573.81L502.02 580.19A.31.31 0 0 0 502.33 580.5L516.62 580.5A.31.31 0 0 1 516.87 581L501.56 601.14A.31.31 0 0 0 501.5 601.32L501.5 607.19A.31.31 0 0 0 501.81 607.5L527.19 607.5A.31.31 0 0 0 527.5 607.19L527.5 600.81A.31.31 0 0 0 527.19 600.5L512.17 600.51M541.75 580.81A.31.31 0 0 1 542.06 580.5L557.68 580.5A.31.31 0 0 0 557.99 580.19L558 573.81A.31.31 0 0 0 557.69 573.5L534.31 573.5A.31.31 0 0 0 534 573.81L534 607.19A.31.31 0 0 0 534.31 607.5L558.69 607.5A.31.31 0 0 0 559 607.19L559 600.81A.31.31 0 0 0 558.69 600.5L542.05 600.5A.31.31 0 0 1 541.74 600.19L541.75 593.81A.31.31 0 0 1 542.06 593.5L556.2 593.5A.31.31 0 0 0 556.51 593.19L556.49 587.06A.31.31 0 0 0 556.18 586.75L542.06 586.75A.31.31 0 0 1 541.75 586.44L541.75 580.81M565.97 574.05L566.03 607.01A.55.55 0 0 0 566.58 607.55L580.69 607.53A15.2 14.54 89.9 0 0 595.2 592.3L595.2 588.64A15.2 14.54 89.9 0 0 580.63 573.47L566.52 573.49A.55.55 0 0 0 565.97 574.05M261.7426 598.7628A.27.27 0 0 0 261.4721 598.4933L253.7522 598.5067A.27.27 0 0 0 253.4826 598.7772L253.4974 607.2372A.27.27 0 0 0 253.7679 607.5067L261.4878 607.4933A.27.27 0 0 0 261.7574 607.2228L261.7426 598.7628M608.4927 598.7928A.3.3 0 0 0 608.1921 598.4933L600.5322 598.5067A.3.3 0 0 0 600.2327 598.8072L600.2473 607.2072A.3.3 0 0 0 600.5479 607.5067L608.2078 607.4933A.3.3 0 0 0 608.5073 607.1928L608.4927 598.7928" vector-effect="non-scaling-stroke"/><path d="M420.9603 601.79A11.29 8.89 90.1 0 0 429.87 590.5155 11.29 8.89 90.1 0 0 420.9997 579.21 11.29 8.89 90.1 0 0 412.09 590.4845 11.29 8.89 90.1 0 0 420.9603 601.79M171.36 594.06A.33.33 0 0 0 171.67 594.48L178.5 594.52A.33.33 0 0 0 178.82 594.1L175.47 582.6A.33.33 0 0 0 174.83 582.6L171.36 594.06M573.48 581.4L573.52 599.92A.4.4 0 0 0 573.92 600.32L579.45 600.31A8.3 7.79 89.9 0 0 587.22 592L587.22 589.28A8.3 7.79 89.9 0 0 579.41 580.99L573.88 581A.4.4 0 0 0 573.48 581.4" vector-effect="non-scaling-stroke"/></g><path fill="#e40613" d="M 0.00 0.00 L 649.72 0.00 L 649.69 294.96 Q 649.69 295.46 649.19 295.46 L 0.00 295.49 L 0.00 0.00 Z"/><path fill="#fff" d="M 649.72 0.00 L 650.00 0.00 L 650.00 650.00 L 0.00 650.00 Q 0.00 649.87 0.00 649.74 L 649.24 649.73 Q 649.75 649.73 649.75 649.22 L 649.75 531.53 A 0.29 0.29 0.0 0 0 649.46 531.24 L 0.00 531.25 L 0.00 513.99 L 649.04 514.00 A 0.72 0.71 90.0 0 0 649.75 513.28 L 649.75 313.03 A 0.30 0.30 0.0 0 0 649.45 312.73 L 0.00 312.74 L 0.00 295.49 L 649.19 295.46 Q 649.69 295.46 649.69 294.96 L 649.72 0.00 Z"/><path fill="#e40613" d="M 0.00 312.74 L 649.45 312.73 A 0.30 0.30 0.0 0 1 649.75 313.03 L 649.75 513.28 A 0.72 0.71 90.0 0 1 649.04 514.00 L 0.00 513.99 L 0.00 312.74 Z M 108.67 375.97 C 112.75 377.49 117.67 381.83 117.47 386.66 Q 117.45 387.25 118.04 387.25 L 152.81 387.25 Q 153.47 387.25 153.33 386.61 C 146.72 354.98 106.28 352.02 80.75 355.17 C 61.54 357.55 39.52 367.84 41.32 391.11 C 42.06 400.66 47.78 407.01 56.11 410.70 Q 64.69 414.49 75.15 417.48 Q 93.47 422.70 109.00 427.45 Q 113.31 428.77 116.26 431.95 C 119.40 435.32 119.08 441.26 116.99 445.19 C 114.67 449.57 109.81 451.75 105.06 452.55 Q 92.99 454.58 84.36 450.28 Q 77.42 446.82 76.68 440.12 Q 76.61 439.50 75.99 439.50 L 41.79 439.51 Q 41.17 439.51 41.26 440.11 Q 44.33 461.00 64.27 467.89 C 75.29 471.69 87.13 472.63 98.69 472.59 C 118.80 472.51 150.02 469.15 153.11 443.22 C 155.80 420.65 140.50 412.64 121.96 407.47 Q 104.53 402.61 87.30 397.73 C 81.26 396.02 74.29 393.19 75.10 385.63 Q 75.88 378.37 83.42 375.70 Q 96.03 371.23 108.67 375.97 Z M 217.50 377.57 A 0.32 0.32 0.0 0 1 217.82 377.25 L 245.68 377.25 A 0.32 0.32 0.0 0 0 246.00 376.93 L 246.01 355.82 A 0.32 0.32 0.0 0 0 245.69 355.50 L 158.07 355.50 A 0.32 0.32 0.0 0 0 157.75 355.82 L 157.75 376.93 A 0.32 0.32 0.0 0 0 158.07 377.25 L 185.43 377.24 A 0.32 0.32 0.0 0 1 185.75 377.56 L 185.75 470.93 A 0.32 0.32 0.0 0 0 186.07 471.25 L 217.18 471.25 A 0.32 0.32 0.0 0 0 217.50 470.93 L 217.50 377.57 Z M 422.67 458.11 Q 424.89 451.50 424.92 443.93 Q 425.09 399.51 424.95 356.00 Q 424.95 355.50 424.44 355.50 L 376.55 355.50 Q 375.99 355.50 375.99 356.06 Q 376.04 395.59 375.97 434.66 C 375.96 442.42 375.26 448.85 365.90 450.48 Q 360.20 451.48 352.77 451.51 Q 339.14 451.56 325.99 451.39 C 317.00 451.28 307.27 449.70 307.26 439.27 Q 307.24 397.89 307.25 356.05 Q 307.25 355.50 306.71 355.50 L 258.29 355.50 A 0.23 0.23 0.0 0 0 258.06 355.73 Q 257.84 403.27 258.12 439.36 C 258.17 446.30 258.09 458.11 263.78 463.02 Q 271.54 469.73 280.82 470.96 Q 291.74 472.40 306.86 472.47 C 334.47 472.59 361.93 472.92 389.13 472.15 Q 397.25 471.92 404.42 470.54 C 410.39 469.40 420.47 464.69 422.67 458.11 Z M 475.34 449.50 A 0.34 0.34 0.0 0 1 475.00 449.16 L 475.00 355.84 A 0.34 0.34 0.0 0 0 474.66 355.50 L 443.34 355.50 A 0.34 0.34 0.0 0 0 443.00 355.84 L 443.00 470.91 A 0.34 0.34 0.0 0 0 443.34 471.25 L 512.41 471.25 A 0.34 0.34 0.0 0 0 512.75 470.91 L 512.75 449.84 A 0.34 0.34 0.0 0 0 512.41 449.50 L 475.34 449.50 Z M 523.25 376.94 A 0.31 0.31 0.0 0 0 523.56 377.25 L 567.20 377.25 A 0.31 0.31 0.0 0 1 567.46 377.73 L 520.56 451.73 A 0.31 0.31 0.0 0 0 520.51 451.90 L 520.50 470.94 A 0.31 0.31 0.0 0 0 520.81 471.25 L 608.19 471.25 A 0.31 0.31 0.0 0 0 608.50 470.94 L 608.50 449.81 A 0.31 0.31 0.0 0 0 608.19 449.50 L 559.69 449.51 A 0.31 0.31 0.0 0 1 559.43 449.03 L 606.70 374.30 A 0.31 0.31 0.0 0 0 606.75 374.13 L 606.75 355.81 A 0.31 0.31 0.0 0 0 606.44 355.50 L 523.56 355.50 A 0.31 0.31 0.0 0 0 523.25 355.81 L 523.25 376.94 Z"/><path fill="#fff" d="M108.67 375.97Q96.03 371.23 83.42 375.7 75.88 378.37 75.1 385.63C74.29 393.19 81.26 396.02 87.3 397.73Q104.53 402.61 121.96 407.47C140.5 412.64 155.8 420.65 153.11 443.22 150.02 469.15 118.8 472.51 98.69 472.59 87.13 472.63 75.29 471.69 64.27 467.89Q44.33 461 41.26 440.11 41.17 439.51 41.79 439.51L75.99 439.5Q76.61 439.5 76.68 440.12 77.42 446.82 84.36 450.28 92.99 454.58 105.06 452.55C109.81 451.75 114.67 449.57 116.99 445.19 119.08 441.26 119.4 435.32 116.26 431.95Q113.31 428.77 109 427.45 93.47 422.7 75.15 417.48 64.69 414.49 56.11 410.7C47.78 407.01 42.06 400.66 41.32 391.11 39.52 367.84 61.54 357.55 80.75 355.17 106.28 352.02 146.72 354.98 153.33 386.61Q153.47 387.25 152.81 387.25L118.04 387.25Q117.45 387.25 117.47 386.66C117.67 381.83 112.75 377.49 108.67 375.97zM217.5 377.57L217.5 470.93A.32.32 0 0 1 217.18 471.25L186.07 471.25A.32.32 0 0 1 185.75 470.93L185.75 377.56A.32.32 0 0 0 185.43 377.24L158.07 377.25A.32.32 0 0 1 157.75 376.93L157.75 355.82A.32.32 0 0 1 158.07 355.5L245.69 355.5A.32.32 0 0 1 246.01 355.82L246 376.93A.32.32 0 0 1 245.68 377.25L217.82 377.25A.32.32 0 0 0 217.5 377.57zM422.67 458.11C420.47 464.69 410.39 469.4 404.42 470.54Q397.25 471.92 389.13 472.15C361.93 472.92 334.47 472.59 306.86 472.47Q291.74 472.4 280.82 470.96 271.54 469.73 263.78 463.02C258.09 458.11 258.17 446.3 258.12 439.36Q257.84 403.27 258.06 355.73A.23.23 0 0 1 258.29 355.5L306.71 355.5Q307.25 355.5 307.25 356.05 307.24 397.89 307.26 439.27C307.27 449.7 317 451.28 325.99 451.39Q339.14 451.56 352.77 451.51 360.2 451.48 365.9 450.48C375.26 448.85 375.96 442.42 375.97 434.66Q376.04 395.59 375.99 356.06 375.99 355.5 376.55 355.5L424.44 355.5Q424.95 355.5 424.95 356 425.09 399.51 424.92 443.93 424.89 451.5 422.67 458.11zM475.34 449.5L512.41 449.5A.34.34 0 0 1 512.75 449.84L512.75 470.91A.34.34 0 0 1 512.41 471.25L443.34 471.25A.34.34 0 0 1 443 470.91L443 355.84A.34.34 0 0 1 443.34 355.5L474.66 355.5A.34.34 0 0 1 475 355.84L475 449.16A.34.34 0 0 0 475.34 449.5zM523.25 376.94L523.25 355.81A.31.31 0 0 1 523.56 355.5L606.44 355.5A.31.31 0 0 1 606.75 355.81L606.75 374.13A.31.31 0 0 1 606.7 374.3L559.43 449.03A.31.31 0 0 0 559.69 449.51L608.19 449.5A.31.31 0 0 1 608.5 449.81L608.5 470.94A.31.31 0 0 1 608.19 471.25L520.81 471.25A.31.31 0 0 1 520.5 470.94L520.51 451.9A.31.31 0 0 1 520.56 451.73L567.46 377.73A.31.31 0 0 0 567.2 377.25L523.56 377.25A.31.31 0 0 1 523.25 376.94z"/><path fill="#e40613" d="M 0.00 531.25 L 649.46 531.24 A 0.29 0.29 0.0 0 1 649.75 531.53 L 649.75 649.22 Q 649.75 649.73 649.24 649.73 L 0.00 649.74 L 0.00 531.25 Z M 71.01 599.81 L 65.20 597.00 Q 64.90 596.85 64.74 597.15 Q 62.03 602.27 56.08 601.41 C 49.68 600.48 48.53 593.71 49.06 588.25 C 49.50 583.76 52.11 579.69 56.92 579.45 Q 62.51 579.16 64.90 584.33 A 0.30 0.29 -24.4 0 0 65.29 584.47 L 71.32 581.88 Q 71.56 581.78 71.45 581.54 C 67.28 572.98 57.10 570.79 49.21 575.04 C 41.49 579.19 39.85 589.41 42.14 597.16 C 44.83 606.27 53.41 609.54 62.28 607.46 Q 67.94 606.14 71.15 600.25 Q 71.31 599.95 71.01 599.81 Z M 292.44 579.75 Q 295.82 580.41 297.38 584.06 Q 297.62 584.61 298.17 584.38 L 303.59 582.09 Q 304.28 581.80 303.93 581.14 Q 300.72 575.10 295.08 573.72 C 280.74 570.21 271.92 581.05 274.30 594.58 Q 276.40 606.53 287.79 607.90 Q 298.94 609.25 303.92 600.16 Q 304.03 599.97 303.83 599.87 L 297.79 596.95 Q 297.58 596.84 297.47 597.05 Q 294.62 602.49 288.46 601.34 Q 283.93 600.50 282.52 596.07 C 280.20 588.83 282.08 577.73 292.44 579.75 Z M 352.38 580.70 C 355.89 577.96 361.60 580.01 364.53 582.68 Q 365.15 583.25 365.77 582.67 L 369.69 579.01 Q 370.37 578.37 369.65 577.77 Q 362.86 572.08 353.91 573.19 C 346.16 574.15 340.32 581.10 344.62 588.47 C 347.37 593.20 355.96 593.80 360.75 594.85 Q 363.31 595.41 363.45 597.70 C 363.59 600.03 361.03 601.33 359.02 601.48 Q 351.85 602.03 347.96 596.92 Q 347.37 596.15 346.63 596.78 L 342.43 600.38 Q 341.53 601.16 342.41 601.95 Q 351.76 610.47 363.24 607.21 Q 372.00 604.73 371.48 595.86 C 371.21 591.42 367.46 588.75 363.41 587.84 Q 358.94 586.84 354.29 585.90 C 351.91 585.42 349.97 582.57 352.38 580.70 Z M 437.2256 588.0216 A 14.82 14.82 0.0 0 0 422.3798 573.2275 L 419.5198 573.2325 A 14.82 14.82 0.0 0 0 404.7257 588.0784 L 404.7344 593.0784 A 14.82 14.82 0.0 0 0 419.5802 607.8725 L 422.4402 607.8675 A 14.82 14.82 0.0 0 0 437.2343 593.0216 L 437.2256 588.0216 Z M 85.08 600.50 A 0.33 0.33 0.0 0 1 84.75 600.17 L 84.75 573.83 A 0.33 0.33 0.0 0 0 84.42 573.50 L 77.33 573.50 A 0.33 0.33 0.0 0 0 77.00 573.83 L 77.00 607.17 A 0.33 0.33 0.0 0 0 77.33 607.50 L 97.92 607.50 A 0.33 0.33 0.0 0 0 98.25 607.17 L 98.25 600.83 A 0.33 0.33 0.0 0 0 97.92 600.50 L 85.08 600.50 Z M 111.50 573.80 A 0.30 0.30 0.0 0 0 111.20 573.50 L 104.06 573.50 A 0.30 0.30 0.0 0 0 103.76 573.80 L 103.76 607.20 A 0.30 0.30 0.0 0 0 104.06 607.50 L 111.20 607.50 A 0.30 0.30 0.0 0 0 111.50 607.20 L 111.50 573.80 Z M 127.01 582.63 Q 127.07 582.62 127.08 582.68 Q 129.69 594.84 133.10 607.04 Q 133.23 607.51 133.72 607.51 L 139.74 607.50 A 1.05 1.03 7.4 0 0 140.73 606.75 L 147.27 583.77 Q 147.67 582.39 147.55 583.83 Q 146.65 595.40 147.09 607.30 Q 147.10 607.50 147.30 607.50 L 154.25 607.50 A 0.25 0.25 0.0 0 0 154.50 607.25 L 154.50 574.00 Q 154.50 573.50 154.00 573.50 L 144.02 573.50 Q 143.52 573.50 143.38 573.98 Q 139.85 586.23 137.61 595.20 Q 137.45 595.83 137.42 596.49 Q 137.35 597.91 137.00 596.54 L 131.22 574.03 A 0.70 0.70 0.0 0 0 130.54 573.50 L 120.25 573.50 A 0.50 0.50 0.0 0 0 119.75 574.00 L 119.75 607.25 Q 119.75 607.50 120.00 607.50 L 126.71 607.50 Q 126.87 607.50 126.88 607.34 Q 127.33 595.11 126.66 582.75 Q 126.65 582.68 126.72 582.67 L 127.01 582.63 Z M 169.28 600.98 A 0.32 0.32 0.0 0 1 169.59 600.75 L 180.65 600.75 A 0.32 0.32 0.0 0 1 180.96 600.98 L 182.82 607.27 A 0.32 0.32 0.0 0 0 183.13 607.50 L 190.78 607.52 A 0.32 0.32 0.0 0 0 191.09 607.10 L 179.92 573.71 A 0.32 0.32 0.0 0 0 179.62 573.49 L 170.89 573.51 A 0.32 0.32 0.0 0 0 170.59 573.73 L 159.35 607.10 A 0.32 0.32 0.0 0 0 159.66 607.52 L 167.21 607.49 A 0.32 0.32 0.0 0 0 167.52 607.26 L 169.28 600.98 Z M 207.00 580.83 A 0.33 0.33 0.0 0 1 207.33 580.50 L 215.91 580.51 A 0.33 0.33 0.0 0 0 216.24 580.18 L 216.25 573.83 A 0.33 0.33 0.0 0 0 215.92 573.50 L 190.33 573.50 A 0.33 0.33 0.0 0 0 190.00 573.83 L 190.01 580.17 A 0.33 0.33 0.0 0 0 190.34 580.50 L 198.92 580.51 A 0.33 0.33 0.0 0 1 199.25 580.84 L 199.25 607.17 A 0.33 0.33 0.0 0 0 199.58 607.50 L 206.67 607.50 A 0.33 0.33 0.0 0 0 207.00 607.17 L 207.00 580.83 Z M 229.00 580.80 A 0.30 0.30 0.0 0 1 229.30 580.50 L 244.94 580.50 A 0.30 0.30 0.0 0 0 245.24 580.20 L 245.25 573.80 A 0.30 0.30 0.0 0 0 244.95 573.50 L 221.55 573.50 A 0.30 0.30 0.0 0 0 221.25 573.80 L 221.25 607.20 A 0.30 0.30 0.0 0 0 221.55 607.50 L 245.95 607.50 A 0.30 0.30 0.0 0 0 246.25 607.20 L 246.25 600.80 A 0.30 0.30 0.0 0 0 245.95 600.50 L 229.30 600.50 A 0.30 0.30 0.0 0 1 229.00 600.20 L 229.00 593.80 A 0.30 0.30 0.0 0 1 229.30 593.50 L 243.44 593.50 A 0.30 0.30 0.0 0 0 243.74 593.20 L 243.75 587.05 A 0.30 0.30 0.0 0 0 243.45 586.75 L 229.30 586.76 A 0.30 0.30 0.0 0 1 229.00 586.46 L 229.00 580.80 Z M 325.72 600.98 C 321.96 602.22 317.45 601.04 317.25 596.43 Q 316.80 586.25 317.05 574.04 Q 317.07 573.49 316.52 573.49 L 310.00 573.50 A 0.56 0.56 0.0 0 0 309.45 574.07 Q 309.62 583.08 309.42 593.99 C 309.29 601.49 311.33 606.88 319.56 607.85 C 324.95 608.47 332.31 608.08 335.04 602.88 Q 336.75 599.62 336.75 594.15 Q 336.75 583.98 336.76 573.80 Q 336.76 573.50 336.46 573.50 L 329.27 573.50 A 0.26 0.26 0.0 0 0 329.02 573.76 Q 328.97 584.34 329.03 594.40 C 329.04 597.01 328.58 600.03 325.72 600.98 Z M 392.00 580.82 A 0.32 0.32 0.0 0 1 392.32 580.50 L 400.93 580.50 A 0.32 0.32 0.0 0 0 401.25 580.18 L 401.25 573.82 A 0.32 0.32 0.0 0 0 400.93 573.50 L 375.56 573.50 A 0.32 0.32 0.0 0 0 375.24 573.82 L 375.25 580.18 A 0.32 0.32 0.0 0 0 375.57 580.50 L 384.18 580.51 A 0.32 0.32 0.0 0 1 384.50 580.83 L 384.50 607.18 A 0.32 0.32 0.0 0 0 384.82 607.50 L 391.68 607.51 A 0.32 0.32 0.0 0 0 392.00 607.19 L 392.00 580.82 Z M 471.58 583.84 C 472.11 587.40 471.44 590.96 471.47 594.71 Q 471.53 601.03 471.48 607.22 A 0.28 0.28 0.0 0 0 471.76 607.50 L 478.50 607.50 A 0.25 0.25 0.0 0 0 478.75 607.25 L 478.75 574.00 Q 478.75 573.50 478.25 573.50 L 468.48 573.50 Q 467.93 573.50 467.79 574.03 L 461.68 596.54 Q 461.38 597.62 461.14 596.53 C 460.95 595.68 461.04 594.82 460.82 593.96 Q 458.42 584.42 455.68 574.03 A 0.71 0.71 0.0 0 0 454.99 573.50 L 444.75 573.50 Q 444.25 573.50 444.25 574.00 L 444.25 607.25 A 0.25 0.25 0.0 0 0 444.50 607.50 L 451.28 607.50 A 0.28 0.28 0.0 0 0 451.56 607.22 L 451.36 583.65 Q 451.35 582.73 451.58 583.62 L 457.42 606.92 Q 457.57 607.50 458.16 607.50 L 464.47 607.51 A 0.63 0.62 8.0 0 0 465.07 607.06 Q 468.19 596.45 470.94 586.64 Q 471.32 585.28 471.36 583.85 Q 471.40 582.56 471.58 583.84 Z M 495.00 573.83 A 0.33 0.33 0.0 0 0 494.67 573.50 L 487.57 573.50 A 0.33 0.33 0.0 0 0 487.24 573.83 L 487.24 607.17 A 0.33 0.33 0.0 0 0 487.57 607.50 L 494.67 607.50 A 0.33 0.33 0.0 0 0 495.00 607.17 L 495.00 573.83 Z M 512.17 600.51 A 0.31 0.31 0.0 0 1 511.92 600.01 L 527.43 579.34 A 0.31 0.31 0.0 0 0 527.49 579.16 L 527.50 573.81 A 0.31 0.31 0.0 0 0 527.19 573.50 L 502.31 573.50 A 0.31 0.31 0.0 0 0 502.00 573.81 L 502.02 580.19 A 0.31 0.31 0.0 0 0 502.33 580.50 L 516.62 580.50 A 0.31 0.31 0.0 0 1 516.87 581.00 L 501.56 601.14 A 0.31 0.31 0.0 0 0 501.50 601.32 L 501.50 607.19 A 0.31 0.31 0.0 0 0 501.81 607.50 L 527.19 607.50 A 0.31 0.31 0.0 0 0 527.50 607.19 L 527.50 600.81 A 0.31 0.31 0.0 0 0 527.19 600.50 L 512.17 600.51 Z M 541.75 580.81 A 0.31 0.31 0.0 0 1 542.06 580.50 L 557.68 580.50 A 0.31 0.31 0.0 0 0 557.99 580.19 L 558.00 573.81 A 0.31 0.31 0.0 0 0 557.69 573.50 L 534.31 573.50 A 0.31 0.31 0.0 0 0 534.00 573.81 L 534.00 607.19 A 0.31 0.31 0.0 0 0 534.31 607.50 L 558.69 607.50 A 0.31 0.31 0.0 0 0 559.00 607.19 L 559.00 600.81 A 0.31 0.31 0.0 0 0 558.69 600.50 L 542.05 600.50 A 0.31 0.31 0.0 0 1 541.74 600.19 L 541.75 593.81 A 0.31 0.31 0.0 0 1 542.06 593.50 L 556.20 593.50 A 0.31 0.31 0.0 0 0 556.51 593.19 L 556.49 587.06 A 0.31 0.31 0.0 0 0 556.18 586.75 L 542.06 586.75 A 0.31 0.31 0.0 0 1 541.75 586.44 L 541.75 580.81 Z M 565.97 574.05 L 566.03 607.01 A 0.55 0.55 0.0 0 0 566.58 607.55 L 580.69 607.53 A 15.20 14.54 89.9 0 0 595.20 592.30 L 595.20 588.64 A 15.20 14.54 89.9 0 0 580.63 573.47 L 566.52 573.49 A 0.55 0.55 0.0 0 0 565.97 574.05 Z M 261.7426 598.7628 A 0.27 0.27 0.0 0 0 261.4721 598.4933 L 253.7522 598.5067 A 0.27 0.27 0.0 0 0 253.4826 598.7772 L 253.4974 607.2372 A 0.27 0.27 0.0 0 0 253.7679 607.5067 L 261.4878 607.4933 A 0.27 0.27 0.0 0 0 261.7574 607.2228 L 261.7426 598.7628 Z M 608.4927 598.7928 A 0.30 0.30 0.0 0 0 608.1921 598.4933 L 600.5322 598.5067 A 0.30 0.30 0.0 0 0 600.2327 598.8072 L 600.2473 607.2072 A 0.30 0.30 0.0 0 0 600.5479 607.5067 L 608.2078 607.4933 A 0.30 0.30 0.0 0 0 608.5073 607.1928 L 608.4927 598.7928 Z"/><path fill="#fff" d="M71.01 599.81Q71.31 599.95 71.15 600.25 67.94 606.14 62.28 607.46C53.41 609.54 44.83 606.27 42.14 597.16 39.85 589.41 41.49 579.19 49.21 575.04 57.1 570.79 67.28 572.98 71.45 581.54Q71.56 581.78 71.32 581.88L65.29 584.47A.3.29-24.4 0 1 64.9 584.33Q62.51 579.16 56.92 579.45C52.11 579.69 49.5 583.76 49.06 588.25 48.53 593.71 49.68 600.48 56.08 601.41Q62.03 602.27 64.74 597.15 64.9 596.85 65.2 597L71.01 599.81zM292.44 579.75C282.08 577.73 280.2 588.83 282.52 596.07Q283.93 600.5 288.46 601.34 294.62 602.49 297.47 597.05 297.58 596.84 297.79 596.95L303.83 599.87Q304.03 599.97 303.92 600.16 298.94 609.25 287.79 607.9 276.4 606.53 274.3 594.58C271.92 581.05 280.74 570.21 295.08 573.72Q300.72 575.1 303.93 581.14 304.28 581.8 303.59 582.09L298.17 584.38Q297.62 584.61 297.38 584.06 295.82 580.41 292.44 579.75zM352.38 580.7C349.97 582.57 351.91 585.42 354.29 585.9Q358.94 586.84 363.41 587.84C367.46 588.75 371.21 591.42 371.48 595.86Q372 604.73 363.24 607.21 351.76 610.47 342.41 601.95 341.53 601.16 342.43 600.38L346.63 596.78Q347.37 596.15 347.96 596.92 351.85 602.03 359.02 601.48C361.03 601.33 363.59 600.03 363.45 597.7Q363.31 595.41 360.75 594.85C355.96 593.8 347.37 593.2 344.62 588.47 340.32 581.1 346.16 574.15 353.91 573.19Q362.86 572.08 369.65 577.77 370.37 578.37 369.69 579.01L365.77 582.67Q365.15 583.25 364.53 582.68C361.6 580.01 355.89 577.96 352.38 580.7zM437.2343 593.0216A14.82 14.82 0 0 1 422.4402 607.8675L419.5802 607.8725A14.82 14.82 0 0 1 404.7344 593.0784L404.7257 588.0784A14.82 14.82 0 0 1 419.5198 573.2325L422.3798 573.2275A14.82 14.82 0 0 1 437.2256 588.0216L437.2343 593.0216zM420.9603 601.79A11.29 8.89 90.1 0 0 429.87 590.5155 11.29 8.89 90.1 0 0 420.9997 579.21 11.29 8.89 90.1 0 0 412.09 590.4845 11.29 8.89 90.1 0 0 420.9603 601.79zM85.08 600.5L97.92 600.5A.33.33 0 0 1 98.25 600.83L98.25 607.17A.33.33 0 0 1 97.92 607.5L77.33 607.5A.33.33 0 0 1 77 607.17L77 573.83A.33.33 0 0 1 77.33 573.5L84.42 573.5A.33.33 0 0 1 84.75 573.83L84.75 600.17A.33.33 0 0 0 85.08 600.5z"/><rect width="7.74" height="34" x="103.76" y="573.5" fill="#fff" rx=".3"/><path fill="#fff" d="M126.66 582.75Q127.33 595.11 126.88 607.34 126.87 607.5 126.71 607.5L120 607.5Q119.75 607.5 119.75 607.25L119.75 574A.5.5 0 0 1 120.25 573.5L130.54 573.5A.7.7 0 0 1 131.22 574.03L137 596.54Q137.35 597.91 137.42 596.49 137.45 595.83 137.61 595.2 139.85 586.23 143.38 573.98 143.52 573.5 144.02 573.5L154 573.5Q154.5 573.5 154.5 574L154.5 607.25A.25.25 0 0 1 154.25 607.5L147.3 607.5Q147.1 607.5 147.09 607.3 146.65 595.4 147.55 583.83 147.67 582.39 147.27 583.77L140.73 606.75A1.05 1.03 7.4 0 1 139.74 607.5L133.72 607.51Q133.23 607.51 133.1 607.04 129.69 594.84 127.08 582.68 127.07 582.62 127.01 582.63L126.72 582.67Q126.65 582.68 126.66 582.75zM169.28 600.98L167.52 607.26A.32.32 0 0 1 167.21 607.49L159.66 607.52A.32.32 0 0 1 159.35 607.1L170.59 573.73A.32.32 0 0 1 170.89 573.51L179.62 573.49A.32.32 0 0 1 179.92 573.71L191.09 607.1A.32.32 0 0 1 190.78 607.52L183.13 607.5A.32.32 0 0 1 182.82 607.27L180.96 600.98A.32.32 0 0 0 180.65 600.75L169.59 600.75A.32.32 0 0 0 169.28 600.98zM171.36 594.06A.33.33 0 0 0 171.67 594.48L178.5 594.52A.33.33 0 0 0 178.82 594.1L175.47 582.6A.33.33 0 0 0 174.83 582.6L171.36 594.06zM207 580.83L207 607.17A.33.33 0 0 1 206.67 607.5L199.58 607.5A.33.33 0 0 1 199.25 607.17L199.25 580.84A.33.33 0 0 0 198.92 580.51L190.34 580.5A.33.33 0 0 1 190.01 580.17L190 573.83A.33.33 0 0 1 190.33 573.5L215.92 573.5A.33.33 0 0 1 216.25 573.83L216.24 580.18A.33.33 0 0 1 215.91 580.51L207.33 580.5A.33.33 0 0 0 207 580.83zM229 580.8L229 586.46A.3.3 0 0 0 229.3 586.76L243.45 586.75A.3.3 0 0 1 243.75 587.05L243.74 593.2A.3.3 0 0 1 243.44 593.5L229.3 593.5A.3.3 0 0 0 229 593.8L229 600.2A.3.3 0 0 0 229.3 600.5L245.95 600.5A.3.3 0 0 1 246.25 600.8L246.25 607.2A.3.3 0 0 1 245.95 607.5L221.55 607.5A.3.3 0 0 1 221.25 607.2L221.25 573.8A.3.3 0 0 1 221.55 573.5L244.95 573.5A.3.3 0 0 1 245.25 573.8L245.24 580.2A.3.3 0 0 1 244.94 580.5L229.3 580.5A.3.3 0 0 0 229 580.8zM317.25 596.43C317.45 601.04 321.96 602.22 325.72 600.98 328.58 600.03 329.04 597.01 329.03 594.4Q328.97 584.34 329.02 573.76A.26.26 0 0 1 329.27 573.5L336.46 573.5Q336.76 573.5 336.76 573.8 336.75 583.98 336.75 594.15 336.75 599.62 335.04 602.88C332.31 608.08 324.95 608.47 319.56 607.85 311.33 606.88 309.29 601.49 309.42 593.99Q309.62 583.08 309.45 574.07A.56.56 0 0 1 310 573.5L316.52 573.49Q317.07 573.49 317.05 574.04 316.8 586.25 317.25 596.43zM392 580.82L392 607.19A.32.32 0 0 1 391.68 607.51L384.82 607.5A.32.32 0 0 1 384.5 607.18L384.5 580.83A.32.32 0 0 0 384.18 580.51L375.57 580.5A.32.32 0 0 1 375.25 580.18L375.24 573.82A.32.32 0 0 1 375.56 573.5L400.93 573.5A.32.32 0 0 1 401.25 573.82L401.25 580.18A.32.32 0 0 1 400.93 580.5L392.32 580.5A.32.32 0 0 0 392 580.82zM471.36 583.85Q471.32 585.28 470.94 586.64 468.19 596.45 465.07 607.06A.63.62 8 0 1 464.47 607.51L458.16 607.5Q457.57 607.5 457.42 606.92L451.58 583.62Q451.35 582.73 451.36 583.65L451.56 607.22A.28.28 0 0 1 451.28 607.5L444.5 607.5A.25.25 0 0 1 444.25 607.25L444.25 574Q444.25 573.5 444.75 573.5L454.99 573.5A.71.71 0 0 1 455.68 574.03Q458.42 584.42 460.82 593.96C461.04 594.82 460.95 595.68 461.14 596.53Q461.38 597.62 461.68 596.54L467.79 574.03Q467.93 573.5 468.48 573.5L478.25 573.5Q478.75 573.5 478.75 574L478.75 607.25A.25.25 0 0 1 478.5 607.5L471.76 607.5A.28.28 0 0 1 471.48 607.22Q471.53 601.03 471.47 594.71C471.44 590.96 472.11 587.4 471.58 583.84Q471.4 582.56 471.36 583.85z"/><rect width="7.76" height="34" x="487.24" y="573.5" fill="#fff" rx=".33"/><path fill="#fff" d="M512.17 600.51L527.19 600.5A.31.31 0 0 1 527.5 600.81L527.5 607.19A.31.31 0 0 1 527.19 607.5L501.81 607.5A.31.31 0 0 1 501.5 607.19L501.5 601.32A.31.31 0 0 1 501.56 601.14L516.87 581A.31.31 0 0 0 516.62 580.5L502.33 580.5A.31.31 0 0 1 502.02 580.19L502 573.81A.31.31 0 0 1 502.31 573.5L527.19 573.5A.31.31 0 0 1 527.5 573.81L527.49 579.16A.31.31 0 0 1 527.43 579.34L511.92 600.01A.31.31 0 0 0 512.17 600.51zM541.75 580.81L541.75 586.44A.31.31 0 0 0 542.06 586.75L556.18 586.75A.31.31 0 0 1 556.49 587.06L556.51 593.19A.31.31 0 0 1 556.2 593.5L542.06 593.5A.31.31 0 0 0 541.75 593.81L541.74 600.19A.31.31 0 0 0 542.05 600.5L558.69 600.5A.31.31 0 0 1 559 600.81L559 607.19A.31.31 0 0 1 558.69 607.5L534.31 607.5A.31.31 0 0 1 534 607.19L534 573.81A.31.31 0 0 1 534.31 573.5L557.69 573.5A.31.31 0 0 1 558 573.81L557.99 580.19A.31.31 0 0 1 557.68 580.5L542.06 580.5A.31.31 0 0 0 541.75 580.81zM565.97 574.05A.55.55 0 0 1 566.52 573.49L580.63 573.47A15.2 14.54 89.9 0 1 595.2 588.64L595.2 592.3A15.2 14.54 89.9 0 1 580.69 607.53L566.58 607.55A.55.55 0 0 1 566.03 607.01L565.97 574.05zM573.48 581.4L573.52 599.92A.4.4 0 0 0 573.92 600.32L579.45 600.31A8.3 7.79 89.9 0 0 587.22 592L587.22 589.28A8.3 7.79 89.9 0 0 579.41 580.99L573.88 581A.4.4 0 0 0 573.48 581.4z"/><ellipse fill="#e40613" rx="11.29" ry="8.89" transform="rotate(90.1 -84.245 505.373)"/><path fill="#e40613" d="M573.48 581.4A.4.4 0 0 1 573.88 581L579.41 580.99A8.3 7.79 89.9 0 1 587.22 589.28L587.22 592A8.3 7.79 89.9 0 1 579.45 600.31L573.92 600.32A.4.4 0 0 1 573.52 599.92L573.48 581.4zM171.36 594.06L174.83 582.6A.33.33 0 0 1 175.47 582.6L178.82 594.1A.33.33 0 0 1 178.5 594.52L171.67 594.48A.33.33 0 0 1 171.36 594.06z"/><rect width="8.26" height="9" x="-4.13" y="-4.5" fill="#fff" rx=".27" transform="rotate(-.1 345622.273 -147303.85)"/><rect width="8.26" height="9" x="-4.13" y="-4.5" fill="#fff" rx=".3" transform="rotate(-.1 345795.648 -345976.915)"/></svg>