<svg xmlns="http://www.w3.org/2000/svg" role="img" viewBox="-0.78 -0.72 37.38 37.38"><title>Tetra Pak logo</title><path fill="#fff" fill-rule="evenodd" d="M35.92 17.95a17.96 17.96 0 0 1-17.96 18A17.96 17.96 0 0 1 0 17.95 17.96 17.96 0 0 1 17.96 0a17.96 17.96 0 0 1 17.96 17.95z" paint-order="markers fill stroke"/><path fill="#69cff6" d="M17.96 5.65c-6.80198 0-12.31978 5.51426-12.31978 12.31978S11.1545 30.28955 17.96 30.28955c6.80198 0 12.31978-5.51426 12.31978-12.31977S24.76198 5.65 17.96 5.65m17.96458 12.31978c0 9.92073-8.04384 17.96457-17.96458 17.96457S-.00458 27.89051-.00458 17.96978 8.03926.0052 17.96.0052s17.96458 8.04384 17.96458 17.96458"/><path fill="#ed1c24" d="M23.52 16.55l2.4636-3.07853h-2.53663l-1.2094 1.51845z"/><path fill="#2056ae" d="M20.12 19.95l.00106.03387h4.74516v-.03563s-.07127-.0127-.1457-.02505c-.31753-.04163-.56943-.12701-.74653-.2018-.71583-.29353-1.31736-.87812-1.82892-1.48247 0 0-.38032.4985-.71795.86718-.5038.55143-1.04887.78004-1.3057.8439m-2.5056 0c-.3094-.07973-.60117-.24308-.69184-.30306-.9956-.62233-1.65463-1.70684-1.65463-2.9921 0-1.97426 1.59713-3.57033 3.57034-3.57033.97373 0 1.9397.3715 2.71056 1.27361l.0434.05292.03104-.0247-3.85257-6.66439-7.07364 12.26333h6.91488l.00282-.03528m1.22316-4.8757c.4911 0 .91445.21874 1.22245.58071.10937.13442.14606.16935.22932.27977.29212.37044.39478.50557.56695.72254-.17217.2071-.2713.35139-.56695.72747-.0868.1076-.11995.145-.22932.27519-.308.3655-.73136.57859-1.22245.57859-.87177 0-1.57773-.70878-1.57773-1.5809-.0014-.87.70596-1.58513 1.57773-1.58513"/><path fill="#2056ae" d="M17.75 23.55v-.32775s-.012.02152-.06809.04198c-.09631.04057-.22967.0762-.3715.10584-.17358.03705-.52179.10549-.51226.35104.01164.2526.26848.30835.46746.28753.30728-.0307.47204-.21274.48439-.45864m-.87036-.75182l-.57506-.01658c.02187-.11395.02187-.82061 1.01042-.80544.52602.01058 1.06016.17887 1.06016.84707v1.35828c0 .05574.00635.10373.02928.15876.02188.04057.03916.05292.0762.08538h-.6742s-.02151-.04869-.03739-.15594c-.01058-.07303-.01235-.07303-.01905-.12736 0 0-.09878.32175-.63363.34398-.45829.01976-.92645-.24625-.95644-.69819-.01693-.2967.1764-.53414.40748-.64774.18029-.0875.44347-.14782.82062-.19475.23002-.03528.34362-.07126.3521-.20603.01375-.1891-.17923-.29141-.39197-.29706-.51015-.00847-.46852.35562-.46852.35562m-3.9055-.284h.3267v1.20904c0 .1958.01834.44383.20639.58248.1898.13688.44488.11995.68549.11642h.20074l.00282-.48333h-.15417c-.10549 0-.16758-.00741-.22156-.0494-.08079-.06209-.0748-.16652-.0748-.22332v-1.1519h.43536v-.44699h-.43535v-.74511l-.64492-.00494v.74652l-.3267.00353v.447m1.79576 1.91147h.65374v-1.0771c0-.29847.05927-.57189.32704-.70454.13936-.06985.25014-.07762.40537-.05715v-.5599c-.01905-.01376-.0942-.02258-.16723-.02434-.21168-.01129-.41172.10866-.53167.32493-.01058.01834-.01834.03351-.0381.08079l-.02223-.34045h-.62445v2.35776m-3.06372-1.921c-.4664.00247-.51262.45512-.51262.45512h1.04394s-.06844-.46006-.53132-.45512m-1.17659.80933c-.03633-.7176.42901-1.33535 1.16566-1.32406 1.29936.01834 1.23409 1.4313 1.23409 1.4313h-1.75306s.01658.56131.57965.56131c.36973.00283.47734-.29988.47734-.29988l.67102.04022s-.18663.7557-1.1459.78533c-.44346.012-1.18575-.3154-1.2288-1.19422m-.4992 1.11167v-2.69963h.99948v-.58635h-2.6841v.58635h.98642v2.69963h.6982m13.5722-.87565v-.32599s-.01446.01976-.06914.0434c-.09878.0388-.22932.07514-.37044.10301-.1764.0367-.52214.10655-.51156.35069.00776.2526.26742.30835.46605.28965.308-.03.47275-.21345.48722-.46076m-.87142-.75005l-.5786-.01835c.02223-.11219.02223-.8185 1.01184-.80297.52567.00988 1.06193.17781 1.06193.8446v1.35828c0 .05574.00635.10408.02928.15876.01905.04057.03669.05292.07197.08538h-.67103s-.02328-.04869-.03633-.15594c-.0127-.07303-.01412-.07303-.018-.12736 0 0-.10337.32175-.63433.34398-.45723.01976-.92787-.24625-.95574-.69819-.0194-.2967.17676-.53308.40678-.64774.17852-.08608.4417-.14782.81603-.19334.23285-.03386.34504-.06844.35703-.20744.01023-.18557-.18134-.28789-.39302-.29424-.51156-.006-.46922.35457-.46922.35457m-2.4075-1.09121v1.01183h.48968c.35915.01058.63151-.14289.62798-.50839-.00353-.36373-.24872-.52073-.6421-.50344zm-.00142 2.71691h-.69678v-3.28316h1.13707c.79733-.02928 1.35123.34857 1.35123 1.06228 0 .876-.62799 1.10145-1.42143 1.08733h-.37009v1.13355m4.3712 0l-.00071-3.28104h.65691v1.79046l.82238-.87636h.77228l-.87495.90529.97761 1.46165h-.79098l-.65374-1.04429-.2526.25472v.78957h-.6562"/><path fill="#2056ae" d="M27.92 20.95h.16194c.13759 0 .28859-.00847.28859-.17146 0-.16194-.151-.17076-.2886-.16793H27.92zm-.22262-.52779h.46782c.2907 0 .42794.13124.42794.3648 0 .21097-.12595.31364-.2907.3348l.31646.51297h-.23426l-.3027-.49674H27.92v.49674h-.22262zm.40855 1.48635c.48121 0 .87247-.39126.87247-.87318s-.39126-.87248-.87247-.87248c-.48299 0-.87318.39055-.87318.87248s.3902.87318.87318.87318m0-1.9337c.58423 0 1.06051.47593 1.06051 1.06052s-.47628 1.06157-1.06051 1.06157c-.58565 0-1.06229-.47698-1.06229-1.06157s.47664-1.06052 1.06229-1.06052"/><path fill="#fff" fill-rule="evenodd" d="M3.99 15.75c-.00811.4971-.41066.894-.91693.88482-.49886-.00811-.89117-.41948-.8834-.91587.00952-.50027.417-.89646.91445-.8887.50627.00917.89505.41948.88588.91975"/><path fill="#fff" fill-rule="evenodd" d="M31.92 15.75c.00953.4971.41242.894.9187.88482.49744-.00811.89081-.41948.88305-.91587-.00917-.50027-.4156-.89646-.9141-.8887-.50663.00917-.89647.41948-.88765.91975"/><path fill="#fff" d="M5.54 23.45l.4036.62234-1.39391 1.49305.00494.00776 2.01413-.53767.34504.53132-1.35722 1.64616.00459.00777 1.98944-.67244.37643.57824-3.08558.9254-.33022-.5091 1.42354-1.73613-.00494-.0074-2.16478.5934-.31928-.49039z"/><path fill="#fff" d="M8.28 27.35l.51826.44135-.74617.87812 1.00725.85695.74723-.87847.51932.44135-2.0025 2.35494-.51896-.44135.86506-1.01783-1.00795-.85695-.86577 1.01818-.51897-.441z"/><path fill="#fff" d="M11.35 30.65l-.77722.67808.66962.34927zm.18346-.9194l.49991.26072-.23778 3.3636-.68161-.35562.06668-.7042-1.06475-.55495-.53132.46146-.66609-.34786z"/><path fill="#fff" d="M13.55 31.25l-.84284-.2572.17534-.57611 2.33942.71195-.17534.57753-.84425-.2579-.72536 2.3814-.65162-.19756z"/><path fill="#fff" d="M15.98 32.45l-.55319-.07797.49145-1.17447.62304.0882z"/><path fill="#fff" d="M18.48 32.15c-.1076-.14147-.32458-.20992-.4904-.2131-.19297-.00317-.4604.0808-.46392.31153-.00882.56378 1.42037.22332 1.40379 1.30642-.0113.69008-.57083 1.009-1.20799.99913-.3976-.006-.74547-.12983-1.0337-.40502l.49321-.52531c.13653.18592.36197.29811.58882.30164.22262.00423.47381-.09667.47734-.31576.00882-.5673-1.44577-.28435-1.4299-1.31523.01059-.65904.58847-.9956 1.19494-.98538.34962.00494.68408.10161.94338.33763z"/><path fill="#fff" d="M24.42 32.95c-.31576.32387-.70736.54543-1.1392.6862-.91692.30129-1.78163-.08009-2.09174-1.02277-.30835-.94092.16123-1.76259 1.07815-2.06318.46358-.15205.90952-.18345 1.29337-.00635l-.29212.64704c-.23461-.1249-.47769-.151-.80509-.0434-.55178.1817-.7818.69784-.60223 1.2461.18064.54719.67209.82696 1.22351.64527.28189-.09209.46358-.23956.56272-.34504l-.157-.47734-.52708.17287-.1958-.59694 1.14871-.3775z"/><path fill="#fff" d="M26.52 31.35c.48863-.31434.58036-.87247.26883-1.35722-.31222-.48475-.858-.63116-1.34699-.31717-.48792.31505-.58106.87318-.26883 1.35793.31364.48369.85942.63116 1.34699.31646m-1.4186-2.20288c.81178-.52215 1.7453-.37009 2.28296.46287.5352.83331.28788 1.74565-.5239 2.26921-.8111.52214-1.74496.37009-2.28157-.46323-.53625-.83296-.28859-1.74636.5225-2.26885"/><path fill="#fff" d="M29.72 28.75c.39126-.42865.33834-.99172-.0875-1.38015-.42582-.38879-.99136-.39161-1.38297.0374-.3909.429-.33763.99171.08714 1.38015.42548.38878.99102.3916 1.38333-.0374m-1.9344-1.76682c.65056-.7123 1.59183-.80474 2.3239-.13583.73205.66856.72464 1.6137.07443 2.32601-.65091.71266-1.59254.80474-2.3246.13653-.731-.66855-.725-1.61406-.07373-2.32671"/><path fill="#fff" d="M31.62 25.95l.16476-.31223c.2953-.5606.30623-1.09297-.3154-1.42213-.53626-.28295-1.01466.01199-1.28384.52214l-.18699.35456zm-2.49606-.54966l.47734-.90317c.4657-.87988 1.2295-1.41896 2.23005-.89047.88411.46746.97655 1.44048.54578 2.2551l-.52073.98466z"/><path fill="#fff" d="M7.03 7.25l.32493-.31646c.17287-.16688.28718-.39196.08679-.60011-.22332-.22862-.4858-.03458-.67244.14747l-.25084.24237zm-1.40203-.46287l.82273-.80192c.46146-.4477.98678-.6689 1.498-.14465.50379.51933.30622 1.02277-.16018 1.47541l-.35598.34786.83967.86401-.48933.47593z"/><path fill="#fff" d="M9.54 5.15l.34151-.21027c.21062-.133.48087-.31046.30376-.59658-.16335-.26284-.42477-.15524-.63716-.02505l-.3782.23496zm-1.25385-.72888l1.01818-.6294c.53837-.33234 1.10497-.4276 1.48423.18204.22826.36903.20886.7797-.1203 1.07322l1.3558.69678-.6936.429-1.20093-.71018-.28612.17816.65127 1.05135-.57824.35703z"/><path fill="#fff" d="M13.86 4.55c.55566-.17076.79698-.68232.62904-1.23233-.16899-.55354-.65303-.8432-1.20904-.6735-.55496.16935-.79627.68232-.62834 1.23269.16829.55142.65339.84107 1.20834.67314m-.7631-2.507c.92292-.28153 1.77916.11996 2.06846 1.06758.28894.94656-.19898 1.75694-1.12226 2.03918-.92222.28118-1.77952-.11854-2.0674-1.06793-.29036-.94656.19897-1.75765 1.1212-2.03883"/><path fill="#fff" d="M16.66 2.05l-.88094.05116-.03634-.5987 2.44102-.15065.03705.60223-.87989.05362.15206 2.48372-.67914.04339z"/><path fill="#fff" d="M19.42 1.35l2.07658.31717-.09667.62163-1.40132-.21415-.08608.56977 1.32406.20075-.09561.62304-1.32441-.20321-.0949.62304 1.47999.22262-.09384.62304-2.15385-.3281z"/><path fill="#fff" d="M24.62 3.65c-.06633-.2025-.21274-.35915-.4477-.4544-.47664-.19264-.98678.05432-1.2027.5867-.2145.5345-.02046 1.0644.43712 1.25032.25472.10267.50662.07444.71477-.06844l.36833.60329c-.37644.2452-.84425.23814-1.23727.08079-.89506-.36162-1.3089-1.21222-.93845-2.13056.3715-.91587 1.26126-1.24186 2.1542-.88024.31963.12983.68055.40149.79838.81039z"/><path fill="#fff" d="M26.72 4.55l-.72888-.4985.33868-.4964 2.02084 1.37451-.3401.50027-.72747-.4978-1.40203 2.05647-.56307-.38384z"/><path fill="#fff" d="M29.82 7.35c.02505-.17534-.07903-.3789-.19475-.49886-.13335-.13794-.38102-.27024-.54825-.1076-.40572.39055.8439 1.16424.0635 1.91535-.49568.4798-1.11625.30764-1.55866-.15206-.27695-.28612-.4343-.61916-.44136-1.01853l.71795-.02046c-.03316.23002.0448.4664.20216.62974.15523.163.4036.26707.56095.11678.40819-.39372-.8178-1.22527-.0762-1.9404.47557-.45793 1.12049-.28824 1.54173.14994.24308.2519.4103.55884.42548.9074z"/></svg>