<svg xmlns="http://www.w3.org/2000/svg" role="img" viewBox="-21.78 150.22 1704.56 613.56"><title>Trane logo</title><g fill="none" stroke="#eeb2a5" stroke-width="2"><path d="M255.12 428.57c14.16-.45 29.41-.35 43.87-.57q127.88-2 255.78-3.99a.37.37 0 0 0 .36-.41q-1.55-13.74-4.73-27.03-.43-1.83-2.31-1.86-142.22-1.91-285.56-4-.14 0-.14-.15v-.01q0-.14.14-.14 142.3-2.2 284.66-4.67.58-.01.42-.57-3.67-12.69-8.43-25.27-.44-1.17-1.69-1.19-133.86-1.95-262.92-3.99-.16 0-.16-.16v-.01q0-.15.15-.16 130.21-2.17 260.39-4.66.61-.01.36-.56-27.14-60.31-75.93-101.36-50.27-42.31-114.36-57.22-10.39-2.42-19.83-3.8-64.28-9.36-125.24 10.23-9.93 3.19-18.75 6.84-80.44 33.24-127.57 106.21c-14.69 22.75-25.65 47.76-32.92 73.9q-3.04 10.95-4.88 22.31-.12.77.61 1.05.49.19.13.64-.63.79.38.78l390.12-5.98q.31 0 .22.3l-4.19 13.78q-.19.65-.87.64l-386.44-6.74a.42.41 4.9 0 0-.41.34q-2.63 15.5-3.4 33.07-.05 1.1 1.05 1.08l382.67-5.72q.55-.01.38.51l-4.59 14.2q-.17.53-.73.52l-378.48-6.5q-.51-.01-.57.5-.83 6.98-.44 14.36.5 9.43 1.44 18.7a.77.76 86.7 0 0 .77.69l370.48-5.74q.48-.01.34.46l-4.4 14.37q-.14.45-.61.44l-365.58-6.51q-.8-.01-.69.78 2.13 16.59 5.73 33.35a.75.74 83 0 0 .75.59l352.67-5.97q.65-.01.46.62l-4.28 14.12a.68.68 0 0 1-.66.48l-347.66-6.75q-.53-.01-.4.51 3.91 15.96 10.13 32.39a.6.59-11.1 0 0 .57.38l330.37-5.73q.69-.01.47.64l-4.71 14.66a.56.55-80.1 0 1-.54.38L31.6 559a.43.43 0 0 0-.41.59q6.92 17.2 16.07 33.26.24.42.73.42l301.24-5.74q.48 0 .34.45l-4.72 14.78a.65.65 0 0 1-.63.45l-294.23-6.48a.44.43-15.5 0 0-.38.66q10.72 17.26 22.76 32.46.34.42.88.41l264.22-5.97q.46-.01.33.43l-4.43 14.6q-.19.65-.87.63l-256-6.45a.44.43 70.6 0 0-.34.72q28.02 33.51 64.44 56.01c32.51 20.08 69.79 34.02 107.78 38.61q31.77 3.84 59.89 1.39 21.17-1.85 42.55-7.11c33.49-8.25 67.22-23.97 95.4-44.95q17.81-13.25 31.94-27.51 43.54-43.95 64.89-104.12a.61.61 0 0 0-.57-.81l-326.39-4.11q-.66-.01-.49-.65l.08-.31q.13-.51.66-.51l329.69-4.89q.52-.01.66-.51 3.38-12.81 5.88-26.09a.56.56 0 0 0-.55-.67l-324.25-3.76q-.46 0-.39-.46l.1-.54q.07-.46.54-.47l325.96-4.72a.5.49 3.4 0 0 .48-.42q1.8-12.49 2.3-25.78.03-.84-.82-.85l-315.91-4.14q-.66-.01-.81-.65l-.09-.39a.57.56 83 0 1 .54-.7q158.34-2.41 316.64-4.58.19 0 .38.06.13.05.26.11.6.25.6-.41-.1-12.77-1-25.24a2.78 2.78 0 0 0-2.73-2.57q-130.53-1.62-262.2-3.2-9.65-.12-18.24-.38-9.52-.28-18.26-.29a.02.02 0 0 1 0-.04m501.4-15.28l-39.29 126.4a.24.23-80.9 0 0 .22.31h71.02a1.03 1.02 8.4 0 0 .98-.72l40.01-126.2q.19-.58.8-.58c2.61 0 5.23-.49 7.82-.49q20.43-.05 38.85.01.62 0 .81-.59l18.57-60.6a.52.51 22.5 0 0-.26-.61q-.43-.22-.91-.22-87.08.02-174.24 0-1.37 0-1.78 1.31l-18.54 59.89a.64.64 0 0 0 .62.82q25.04-.11 49.13.04 2.99.02 5.81.6.54.11.38.63m457.65 90.92l-15.99-153.76q-.05-.45-.49-.45l-79.05-.01q-.65 0-.99.57l-89.23 151.02a.39.39 0 0 1-.68-.03l-17.67-37.03q-.33-.69.41-.91 5.46-1.61 10.37-3.49c14.5-5.54 27.58-15.85 33.97-29.51q5.78-12.37 7.12-26c2.35-23.86-10.21-41.7-32.44-49.56q-14.42-5.1-31.2-5.08-43.9.06-89.5.01a.81.8-81 0 0-.76.56l-58.89 188.67a.6.59 8.6 0 0 .57.77l71.05.02a.74.74 0 0 0 .71-.52l22.95-72.47q.3-.94.63-.01l25.24 72.5q.18.51.72.51l109-.01a1 1 0 0 0 .91-.58l15.51-32.74a1.18 1.18 0 0 1 1.07-.68l50.81-.01q.58 0 .62.58l1.97 32.66q.05.77.82.77h120.51a1.19 1.19 0 0 0 1.14-.86l26.63-91.81q.32-1.1.53.02l17.04 92.12a.66.66 0 0 0 .65.54l70.27-.01a1.13 1.12-81.1 0 0 1.07-.79q28.54-91.71 57.28-183.69.8-2.56 1.26-4.68.17-.83-.68-.83l-70.9-.01q-.52 0-.66.51l-22.69 87.73q-.31 1.18-.62 0l-23.62-87.72q-.14-.52-.67-.52l-65.52-.01a1.06 1.05-81.4 0 0-1.01.75l-47.24 153.5q-.25.81-.33-.03m281.29-34.1a.53.53 0 0 1 .51-.37l67.03.01a.53.53 0 0 0 .51-.37l16.04-49.45a.53.53 0 0 0-.5-.69h-67.76a.53.53 0 0 1-.5-.7l5.05-15.18a.53.53 0 0 1 .5-.36l66.41-.01a.53.53 0 0 0 .51-.37l16.28-51.91a.53.53 0 0 0-.5-.69l-134.87-.03a.53.53 0 0 0-.51.37l-58.36 188.95a.53.53 0 0 0 .51.69h137.24a.53.53 0 0 0 .51-.37l15.76-50.94a.53.53 0 0 0-.51-.69l-68.25.01a.53.53 0 0 1-.5-.69l5.4-17.21m152.56-85.3c6.64-12.77 1.5-32.67-15.31-34.65q-6.7-.78-11.81 1c-7.64 2.66-13.4 10.36-13.89 18.92q-.24 4.21.11 6.48 2.22 14.22 14.57 18.25c9.96 3.25 21.32-.37 26.33-10" vector-effect="non-scaling-stroke"/><path d="M956.78 426.27a.14.14 0 0 0 .13.18q10.56.36 21.26-.23c3.32-.18 7.02-1.36 10-2.9q6.87-3.52 8.23-11.74c1.14-6.89-5.22-9.43-10.78-9.54q-10.7-.22-20.92-.04a.4.37-80.3 0 0-.36.27l-7.56 24m187.54-21.43l-27.35 58.18q-.24.51.33.51l29.68.01q.52 0 .5-.52l-2.57-58.06q-.06-1.25-.59-.12m484.4387-14.4301a17.55 15.54 90.2 0 0 15.6012-17.4957 17.55 15.54 90.2 0 0-15.4786-17.6041 17.55 15.54 90.2 0 0-15.6012 17.4957 17.55 15.54 90.2 0 0 15.4786 17.6041" vector-effect="non-scaling-stroke"/><path d="M1633.79 374.25c7.46-2.42 6.51-12.38-1.19-13.63q-5.54-.89-11.5-.41-1.03.09-1.04 1.12v23.16q0 .93.93.95l3.22.07q1.25.02 1.25-1.22l-.01-8.76q0-.43.4-.55 1.26-.39 1.96.75 2.47 4.05 4.52 8.7.37.83 1.27.83l4.18-.01q1.5-.01.77-1.32l-5.02-9.02a.46.46 0 0 1 .26-.66" vector-effect="non-scaling-stroke"/><path d="M1625.36 365.57l.12 3.82q.02.75.75.88 4.13.74 6.57-2.41a.39.39 0 0 0-.08-.56q-3.02-2.12-6.44-2.56a.81.81 0 0 0-.92.83" vector-effect="non-scaling-stroke"/></g><path fill="#fff" d="M0 0h1702v824H0V0zm255.12 428.57c14.16-.45 29.41-.35 43.87-.57q127.88-2 255.78-3.99a.37.37 0 0 0 .36-.41q-1.55-13.74-4.73-27.03-.43-1.83-2.31-1.86-142.22-1.91-285.56-4-.14 0-.14-.15v-.01q0-.14.14-.14 142.3-2.2 284.66-4.67.58-.01.42-.57-3.67-12.69-8.43-25.27-.44-1.17-1.69-1.19-133.86-1.95-262.92-3.99-.16 0-.16-.16v-.01q0-.15.15-.16 130.21-2.17 260.39-4.66.61-.01.36-.56-27.14-60.31-75.93-101.36-50.27-42.31-114.36-57.22-10.39-2.42-19.83-3.8-64.28-9.36-125.24 10.23-9.93 3.19-18.75 6.84-80.44 33.24-127.57 106.21c-14.69 22.75-25.65 47.76-32.92 73.9q-3.04 10.95-4.88 22.31-.12.77.61 1.05.49.19.13.64-.63.79.38.78l390.12-5.98q.31 0 .22.3l-4.19 13.78q-.19.65-.87.64l-386.44-6.74a.42.41 4.9 0 0-.41.34q-2.63 15.5-3.4 33.07-.05 1.1 1.05 1.08l382.67-5.72q.55-.01.38.51l-4.59 14.2q-.17.53-.73.52l-378.48-6.5q-.51-.01-.57.5-.83 6.98-.44 14.36.5 9.43 1.44 18.7a.77.76 86.7 0 0 .77.69l370.48-5.74q.48-.01.34.46l-4.4 14.37q-.14.45-.61.44l-365.58-6.51q-.8-.01-.69.78 2.13 16.59 5.73 33.35a.75.74 83 0 0 .75.59l352.67-5.97q.65-.01.46.62l-4.28 14.12a.68.68 0 0 1-.66.48l-347.66-6.75q-.53-.01-.4.51 3.91 15.96 10.13 32.39a.6.59-11.1 0 0 .57.38l330.37-5.73q.69-.01.47.64l-4.71 14.66a.56.55-80.1 0 1-.54.38L31.6 559a.43.43 0 0 0-.41.59q6.92 17.2 16.07 33.26.24.42.73.42l301.24-5.74q.48 0 .34.45l-4.72 14.78a.65.65 0 0 1-.63.45l-294.23-6.48a.44.43-15.5 0 0-.38.66q10.72 17.26 22.76 32.46.34.42.88.41l264.22-5.97q.46-.01.33.43l-4.43 14.6q-.19.65-.87.63l-256-6.45a.44.43 70.6 0 0-.34.72q28.02 33.51 64.44 56.01c32.51 20.08 69.79 34.02 107.78 38.61q31.77 3.84 59.89 1.39 21.17-1.85 42.55-7.11c33.49-8.25 67.22-23.97 95.4-44.95q17.81-13.25 31.94-27.51 43.54-43.95 64.89-104.12a.61.61 0 0 0-.57-.81l-326.39-4.11q-.66-.01-.49-.65l.08-.31q.13-.51.66-.51l329.69-4.89q.52-.01.66-.51 3.38-12.81 5.88-26.09a.56.56 0 0 0-.55-.67l-324.25-3.76q-.46 0-.39-.46l.1-.54q.07-.46.54-.47l325.96-4.72a.5.49 3.4 0 0 .48-.42q1.8-12.49 2.3-25.78.03-.84-.82-.85l-315.91-4.14q-.66-.01-.81-.65l-.09-.39a.57.56 83 0 1 .54-.7q158.34-2.41 316.64-4.58.19 0 .38.06.13.05.26.11.6.25.6-.41-.1-12.77-1-25.24a2.78 2.78 0 0 0-2.73-2.57q-130.53-1.62-262.2-3.2-9.65-.12-18.24-.38-9.52-.28-18.26-.29a.02.02 0 0 1 0-.04zm501.4-15.28l-39.29 126.4a.24.23-80.9 0 0 .22.31h71.02a1.03 1.02 8.4 0 0 .98-.72l40.01-126.2q.19-.58.8-.58c2.61 0 5.23-.49 7.82-.49q20.43-.05 38.85.01.62 0 .81-.59l18.57-60.6a.52.51 22.5 0 0-.26-.61q-.43-.22-.91-.22-87.08.02-174.24 0-1.37 0-1.78 1.31l-18.54 59.89a.64.64 0 0 0 .62.82q25.04-.11 49.13.04 2.99.02 5.81.6.54.11.38.63zm457.65 90.92l-15.99-153.76q-.05-.45-.49-.45l-79.05-.01q-.65 0-.99.57l-89.23 151.02a.39.39 0 0 1-.68-.03l-17.67-37.03q-.33-.69.41-.91 5.46-1.61 10.37-3.49c14.5-5.54 27.58-15.85 33.97-29.51q5.78-12.37 7.12-26c2.35-23.86-10.21-41.7-32.44-49.56q-14.42-5.1-31.2-5.08-43.9.06-89.5.01a.81.8-81 0 0-.76.56l-58.89 188.67a.6.59 8.6 0 0 .57.77l71.05.02a.74.74 0 0 0 .71-.52l22.95-72.47q.3-.94.63-.01l25.24 72.5q.18.51.72.51l109-.01a1 1 0 0 0 .91-.58l15.51-32.74a1.18 1.18 0 0 1 1.07-.68l50.81-.01q.58 0 .62.58l1.97 32.66q.05.77.82.77h120.51a1.19 1.19 0 0 0 1.14-.86l26.63-91.81q.32-1.1.53.02l17.04 92.12a.66.66 0 0 0 .65.54l70.27-.01a1.13 1.12-81.1 0 0 1.07-.79q28.54-91.71 57.28-183.69.8-2.56 1.26-4.68.17-.83-.68-.83l-70.9-.01q-.52 0-.66.51l-22.69 87.73q-.31 1.18-.62 0l-23.62-87.72q-.14-.52-.67-.52l-65.52-.01a1.06 1.05-81.4 0 0-1.01.75l-47.24 153.5q-.25.81-.33-.03zm281.29-34.1a.53.53 0 0 1 .51-.37l67.03.01a.53.53 0 0 0 .51-.37l16.04-49.45a.53.53 0 0 0-.5-.69h-67.76a.53.53 0 0 1-.5-.7l5.05-15.18a.53.53 0 0 1 .5-.36l66.41-.01a.53.53 0 0 0 .51-.37l16.28-51.91a.53.53 0 0 0-.5-.69l-134.87-.03a.53.53 0 0 0-.51.37l-58.36 188.95a.53.53 0 0 0 .51.69h137.24a.53.53 0 0 0 .51-.37l15.76-50.94a.53.53 0 0 0-.51-.69l-68.25.01a.53.53 0 0 1-.5-.69l5.4-17.21zm152.56-85.3c6.64-12.77 1.5-32.67-15.31-34.65q-6.7-.78-11.81 1c-7.64 2.66-13.4 10.36-13.89 18.92q-.24 4.21.11 6.48 2.22 14.22 14.57 18.25c9.96 3.25 21.32-.37 26.33-10z"/><path fill="#dd654b" d="M255.12 428.61q8.74.01 18.26.29 8.59.26 18.24.38 131.67 1.58 262.2 3.2a2.78 2.78 0 0 1 2.73 2.57q.9 12.47 1 25.24 0 .66-.6.41-.13-.06-.26-.11-.19-.06-.38-.06-158.3 2.17-316.64 4.58a.57.56 83 0 0-.54.7l.09.39q.15.64.81.65l315.91 4.14q.85.01.82.85-.5 13.29-2.3 25.78a.5.49 3.4 0 1-.48.42l-325.96 4.72q-.47.01-.54.47l-.1.54q-.07.46.39.46l324.25 3.76a.56.56 0 0 1 .55.67q-2.5 13.28-5.88 26.09-.14.5-.66.51l-329.69 4.89q-.53 0-.66.51l-.08.31q-.17.64.49.65l326.39 4.11a.61.61 0 0 1 .57.81q-21.35 60.17-64.89 104.12-14.13 14.26-31.94 27.51c-28.18 20.98-61.91 36.7-95.4 44.95q-21.38 5.26-42.55 7.11-28.12 2.45-59.89-1.39c-37.99-4.59-75.27-18.53-107.78-38.61q-36.42-22.5-64.44-56.01a.44.43 70.6 0 1 .34-.72l256 6.45q.68.02.87-.63l4.43-14.6q.13-.44-.33-.43l-264.22 5.97q-.54.01-.88-.41-12.04-15.2-22.76-32.46a.44.43-15.5 0 1 .38-.66l294.23 6.48a.65.65 0 0 0 .63-.45l4.72-14.78q.14-.45-.34-.45l-301.24 5.74q-.49 0-.73-.42-9.15-16.06-16.07-33.26a.43.43 0 0 1 .41-.59l324.32 6.97a.56.55-80.1 0 0 .54-.38l4.71-14.66q.22-.65-.47-.64l-330.37 5.73a.6.59-11.1 0 1-.57-.38q-6.22-16.43-10.13-32.39-.13-.52.4-.51l347.66 6.75a.68.68 0 0 0 .66-.48l4.28-14.12q.19-.63-.46-.62L19.5 520.24a.75.74 83 0 1-.75-.59q-3.6-16.76-5.73-33.35-.11-.79.69-.78l365.58 6.51q.47.01.61-.44l4.4-14.37q.14-.47-.34-.46L13.48 482.5a.77.76 86.7 0 1-.77-.69q-.94-9.27-1.44-18.7-.39-7.38.44-14.36.06-.51.57-.5l378.48 6.5q.56.01.73-.52l4.59-14.2q.17-.52-.38-.51l-382.67 5.72q-1.1.02-1.05-1.08.77-17.57 3.4-33.07a.42.41 4.9 0 1 .41-.34l386.44 6.74q.68.01.87-.64l4.19-13.78q.09-.3-.22-.3l-390.12 5.98q-1.01.01-.38-.78.36-.45-.13-.64-.73-.28-.61-1.05 1.84-11.36 4.88-22.31c7.27-26.14 18.23-51.15 32.92-73.9q47.13-72.97 127.57-106.21 8.82-3.65 18.75-6.84 60.96-19.59 125.24-10.23 9.44 1.38 19.83 3.8 64.09 14.91 114.36 57.22 48.79 41.05 75.93 101.36.25.55-.36.56-130.18 2.49-260.39 4.66-.15.01-.15.16v.01q0 .16.16.16 129.06 2.04 262.92 3.99 1.25.02 1.69 1.19 4.76 12.58 8.43 25.27.16.56-.42.57-142.36 2.47-284.66 4.67-.14 0-.14.14v.01q0 .15.14.15 143.34 2.09 285.56 4 1.88.03 2.31 1.86 3.18 13.29 4.73 27.03a.37.37 0 0 1-.36.41Q426.87 426 298.99 428c-14.46.22-29.71.12-43.87.57a.02.02 0 0 0 0 .04zm501.02-15.95q-2.82-.58-5.81-.6-24.09-.15-49.13-.04a.64.64 0 0 1-.62-.82l18.54-59.89q.41-1.31 1.78-1.31 87.16.02 174.24 0 .48 0 .91.22a.52.51 22.5 0 1 .26.61l-18.57 60.6q-.19.59-.81.59-18.42-.06-38.85-.01c-2.59 0-5.21.49-7.82.49q-.61 0-.8.58l-40.01 126.2a1.03 1.02 8.4 0 1-.98.72h-71.02a.24.23-80.9 0 1-.22-.31l39.29-126.4q.16-.52-.38-.63zm458.36 91.58l47.24-153.5a1.06 1.05-81.4 0 1 1.01-.75l65.52.01q.53 0 .67.52l23.62 87.72q.31 1.18.62 0l22.69-87.73q.14-.51.66-.51l70.9.01q.85 0 .68.83-.46 2.12-1.26 4.68-28.74 91.98-57.28 183.69a1.13 1.12-81.1 0 1-1.07.79l-70.27.01a.66.66 0 0 1-.65-.54l-17.04-92.12q-.21-1.12-.53-.02l-26.63 91.81a1.19 1.19 0 0 1-1.14.86h-120.51q-.77 0-.82-.77l-1.97-32.66q-.04-.58-.62-.58l-50.81.01a1.18 1.18 0 0 0-1.07.68l-15.51 32.74a1 1 0 0 1-.91.58l-109 .01q-.54 0-.72-.51L945.06 467q-.33-.93-.63.01l-22.95 72.47a.74.74 0 0 1-.71.52l-71.05-.02a.6.59 8.6 0 1-.57-.77l58.89-188.67a.81.8-81 0 1 .76-.56q45.6.05 89.5-.01 16.78-.02 31.2 5.08c22.23 7.86 34.79 25.7 32.44 49.56q-1.34 13.63-7.12 26c-6.39 13.66-19.47 23.97-33.97 29.51q-4.91 1.88-10.37 3.49-.74.22-.41.91l17.67 37.03a.39.39 0 0 0 .68.03l89.23-151.02q.34-.57.99-.57l79.05.01q.44 0 .49.45l15.99 153.76q.08.84.33.03zm-257.72-77.97a.14.14 0 0 0 .13.18q10.56.36 21.26-.23c3.32-.18 7.02-1.36 10-2.9q6.87-3.52 8.23-11.74c1.14-6.89-5.22-9.43-10.78-9.54q-10.7-.22-20.92-.04a.4.37-80.3 0 0-.36.27l-7.56 24zm187.54-21.43l-27.35 58.18q-.24.51.33.51l29.68.01q.52 0 .5-.52l-2.57-58.06q-.06-1.25-.59-.12zm351.14 65.27l-5.4 17.21a.53.53 0 0 0 .5.69l68.25-.01a.53.53 0 0 1 .51.69l-15.76 50.94a.53.53 0 0 1-.51.37h-137.24a.53.53 0 0 1-.51-.69l58.36-188.95a.53.53 0 0 1 .51-.37l134.87.03a.53.53 0 0 1 .5.69l-16.28 51.91a.53.53 0 0 1-.51.37l-66.41.01a.53.53 0 0 0-.5.36l-5.05 15.18a.53.53 0 0 0 .5.7h67.76a.53.53 0 0 1 .5.69l-16.04 49.45a.53.53 0 0 1-.51.37l-67.03-.01a.53.53 0 0 0-.51.37zm152.56-85.3c-5.01 9.63-16.37 13.25-26.33 10q-12.35-4.03-14.57-18.25-.35-2.27-.11-6.48c.49-8.56 6.25-16.26 13.89-18.92q5.11-1.78 11.81-1c16.81 1.98 21.95 21.88 15.31 34.65zm-19.2613 5.5999a17.55 15.54 90.2 0 0 15.6012-17.4957 17.55 15.54 90.2 0 0-15.4786-17.6041 17.55 15.54 90.2 0 0-15.6012 17.4957 17.55 15.54 90.2 0 0 15.4786 17.6041z"/><path fill="#fff" d="M1628.7587 390.4099a17.55 15.54 90.2 0 1-15.4786-17.6041 17.55 15.54 90.2 0 1 15.6012-17.4957 17.55 15.54 90.2 0 1 15.4786 17.6041 17.55 15.54 90.2 0 1-15.6012 17.4957zm5.0313-16.1599c7.46-2.42 6.51-12.38-1.19-13.63q-5.54-.89-11.5-.41-1.03.09-1.04 1.12v23.16q0 .93.93.95l3.22.07q1.25.02 1.25-1.22l-.01-8.76q0-.43.4-.55 1.26-.39 1.96.75 2.47 4.05 4.52 8.7.37.83 1.27.83l4.18-.01q1.5-.01.77-1.32l-5.02-9.02a.46.46 0 0 1 .26-.66z"/><path fill="#dd654b" d="M1633.79 374.25a.46.46 0 0 0-.26.66l5.02 9.02q.73 1.31-.77 1.32l-4.18.01q-.9 0-1.27-.83-2.05-4.65-4.52-8.7-.7-1.14-1.96-.75-.4.12-.4.55l.01 8.76q0 1.24-1.25 1.22l-3.22-.07q-.93-.02-.93-.95v-23.16q.01-1.03 1.04-1.12 5.96-.48 11.5.41c7.7 1.25 8.65 11.21 1.19 13.63zm-8.43-8.68l.12 3.82q.02.75.75.88 4.13.74 6.57-2.41a.39.39 0 0 0-.08-.56q-3.02-2.12-6.44-2.56a.81.81 0 0 0-.92.83z"/><path fill="#fff" d="M1626.28 364.74q3.42.44 6.44 2.56a.39.39 0 0 1 .08.56q-2.44 3.15-6.57 2.41-.73-.13-.75-.88l-.12-3.82a.81.81 0 0 1 .92-.83zm-669.5 61.53l7.56-24a.4.37-80.3 0 1 .36-.27q10.22-.18 20.92.04c5.56.11 11.92 2.65 10.78 9.54q-1.36 8.22-8.23 11.74c-2.98 1.54-6.68 2.72-10 2.9q-10.7.59-21.26.23a.14.14 0 0 1-.13-.18zm160.19 36.75l27.35-58.18q.53-1.13.59.12l2.57 58.06q.02.52-.5.52l-29.68-.01q-.57 0-.33-.51z"/></svg>