<svg xmlns="http://www.w3.org/2000/svg" role="img" viewBox="8.06 22.06 282.88 65.88"><title>Wisetek logo</title><style>svg {shape-rendering:geometricPrecision;text-rendering:geometricPrecision;image-rendering:optimizeQuality;fill-rule:evenodd;clip-rule:evenodd}</style><g><path fill="#92aecb" d="M 37.5,28.5 C 42.9846,27.3483 48.6513,27.1816 54.5,28C 57.865,28.5053 60.865,29.672 63.5,31.5C 54.9296,29.7699 46.2629,28.7699 37.5,28.5 Z" opacity=".961"/></g><g><path fill="#9cb5ce" d="M 37.5,28.5 C 34.9164,30.4725 31.9164,31.4725 28.5,31.5C 31.0836,29.5275 34.0836,28.5275 37.5,28.5 Z" opacity=".643"/></g><g><path fill="#6890b8" d="M 37.5,28.5 C 46.2629,28.7699 54.9296,29.7699 63.5,31.5C 65.5496,33.5475 67.883,35.2141 70.5,36.5C 72.9,38.2964 74.5667,40.6298 75.5,43.5C 77.0068,52.2426 76.6735,60.9093 74.5,69.5C 74.573,71.0269 73.9063,72.0269 72.5,72.5C 71.1667,73.5 69.8333,74.5 68.5,75.5C 68.7148,73.8212 68.0481,72.8212 66.5,72.5C 67.6005,71.3951 68.2671,70.0618 68.5,68.5C 73.409,62.6001 74.5757,55.9334 72,48.5C 71.3028,46.4156 70.1361,44.7489 68.5,43.5C 68.1667,41.1667 66.8333,39.8333 64.5,39.5C 64.0269,38.0937 63.0269,37.427 61.5,37.5C 58.5,37.5 55.5,37.5 52.5,37.5C 49.8205,37.6726 47.4872,38.6726 45.5,40.5C 44.0488,38.4411 42.0488,37.4411 39.5,37.5C 36.5,37.5 33.5,37.5 30.5,37.5C 28.0672,37.2729 26.4006,38.2729 25.5,40.5C 25.5,40.8333 25.5,41.1667 25.5,41.5C 21.8424,42.7968 20.1758,45.4635 20.5,49.5C 20.5,49.8333 20.5,50.1667 20.5,50.5C 19.2353,51.5145 18.5687,53.0145 18.5,55C 18.336,57.5437 19.0027,59.7103 20.5,61.5C 20.5,61.8333 20.5,62.1667 20.5,62.5C 20.2865,64.1439 20.6198,65.6439 21.5,67C 21.0019,68.1581 20.1685,68.9915 19,69.5C 17.0185,65.9075 15.1852,62.2408 13.5,58.5C 13.5,56.5 13.5,54.5 13.5,52.5C 15.5581,48.71 17.3914,44.71 19,40.5C 22.0623,37.2678 25.229,34.2678 28.5,31.5C 31.9164,31.4725 34.9164,30.4725 37.5,28.5 Z"/></g><g><path fill="#b7cbdd" d="M 63.5,31.5 C 66.6743,32.0102 69.0077,33.6769 70.5,36.5C 67.883,35.2141 65.5496,33.5475 63.5,31.5 Z" opacity=".086"/></g><g><path fill="#424c6f" d="M 252.5,31.5 C 255.059,31.1984 257.393,31.5318 259.5,32.5C 257.5,32.5 255.5,32.5 253.5,32.5C 253.5,46.1667 253.5,59.8333 253.5,73.5C 255.5,73.5 257.5,73.5 259.5,73.5C 257.393,74.4682 255.059,74.8016 252.5,74.5C 252.5,60.1667 252.5,45.8333 252.5,31.5 Z" opacity=".4"/></g><g><path fill="#1d2b55" d="M 259.5,32.5 C 259.334,40.84 259.5,49.1733 260,57.5C 261.802,56.2107 262.969,54.5441 263.5,52.5C 266.243,50.7607 268.243,48.4274 269.5,45.5C 272.388,44.9898 274.721,45.6565 276.5,47.5C 276.167,48.5 275.5,49.1667 274.5,49.5C 272.086,50.9108 270.419,52.9108 269.5,55.5C 268.4,56.6049 267.733,57.9382 267.5,59.5C 267.427,61.0269 268.094,62.0269 269.5,62.5C 269.738,64.4044 270.738,65.7377 272.5,66.5C 272.738,68.4044 273.738,69.7377 275.5,70.5C 275.414,71.4959 275.748,72.3292 276.5,73C 273.177,73.932 270.177,73.432 267.5,71.5C 265.272,67.388 262.772,63.388 260,59.5C 259.501,64.1548 259.334,68.8215 259.5,73.5C 257.5,73.5 255.5,73.5 253.5,73.5C 253.5,59.8333 253.5,46.1667 253.5,32.5C 255.5,32.5 257.5,32.5 259.5,32.5 Z"/></g><g><path fill="#848da1" d="M 252.5,31.5 C 254.948,30.5269 257.615,30.1936 260.5,30.5C 260.334,38.5069 260.5,46.5069 261,54.5C 261.708,53.6195 262.542,52.9528 263.5,52.5C 262.969,54.5441 261.802,56.2107 260,57.5C 259.5,49.1733 259.334,40.84 259.5,32.5C 257.393,31.5318 255.059,31.1984 252.5,31.5 Z" opacity=".239"/></g><g><path fill="#93a3b4" d="M 275.5,31.5 C 276.29,32.6085 276.79,33.9419 277,35.5C 278,30.1667 279,30.1667 280,35.5C 281.626,35.1459 283.459,35.1459 285.5,35.5C 282.375,36.4794 279.042,36.8128 275.5,36.5C 275.5,34.8333 275.5,33.1667 275.5,31.5 Z" opacity=".239"/></g><g><path fill="#526783" d="M 285.5,35.5 C 283.459,35.1459 281.626,35.1459 280,35.5C 279,30.1667 278,30.1667 277,35.5C 276.79,33.9419 276.29,32.6085 275.5,31.5C 274.957,31.44 274.624,31.1067 274.5,30.5C 275.667,30.1667 276.833,29.8333 278,29.5C 280.006,30.0732 281.84,30.0732 283.5,29.5C 285.086,31.1727 285.753,33.1727 285.5,35.5 Z" opacity=".757"/></g><g><path fill="#8c94a8" d="M 144.5,34.5 C 142.142,34.2525 140.142,34.9192 138.5,36.5C 138.414,35.5041 138.748,34.6708 139.5,34C 141.387,33.2204 143.054,33.3871 144.5,34.5 Z" opacity=".247"/></g><g><path fill="#80889f" d="M 90.5,35.5 C 88.8333,35.5 87.1667,35.5 85.5,35.5C 89.1484,48.0899 92.1484,60.7566 94.5,73.5C 90.3882,60.732 86.7215,47.732 83.5,34.5C 86.0593,34.1984 88.3926,34.5318 90.5,35.5 Z" opacity=".6"/></g><g><path fill="#7f899f" d="M 112.5,35.5 C 110.5,35.5 108.5,35.5 106.5,35.5C 106.405,37.7857 105.738,39.7857 104.5,41.5C 104.674,39.139 105.007,36.8056 105.5,34.5C 108.059,34.1984 110.393,34.5318 112.5,35.5 Z" opacity=".6"/></g><g><path fill="#979db2" d="M 132.5,41.5 C 132.357,39.7376 132.691,38.0709 133.5,36.5C 131.955,35.5481 130.288,35.2148 128.5,35.5C 128.737,36.791 128.404,37.791 127.5,38.5C 127.5,37.1667 127.5,35.8333 127.5,34.5C 129.833,34.5 132.167,34.5 134.5,34.5C 134.59,37.1522 133.924,39.4855 132.5,41.5 Z" opacity=".192"/></g><g><path fill="#3e476c" d="M 144.5,34.5 C 147.167,36.5 147.167,38.5 144.5,40.5C 142.435,40.4828 140.435,40.1495 138.5,39.5C 137.375,38.3478 137.375,37.3478 138.5,36.5C 140.142,34.9192 142.142,34.2525 144.5,34.5 Z"/></g><g><path fill="#a0b9d2" d="M 28.5,31.5 C 25.229,34.2678 22.0623,37.2678 19,40.5C 17.3914,44.71 15.5581,48.71 13.5,52.5C 14.356,42.4274 19.356,35.4274 28.5,31.5 Z" opacity=".682"/></g><g><path fill="#bdcfe2" d="M 30.5,37.5 C 29.1007,38.8897 27.4341,39.8897 25.5,40.5C 26.4006,38.2729 28.0672,37.2729 30.5,37.5 Z" opacity=".059"/></g><g><path fill="#c4d5e5" d="M 61.5,37.5 C 63.0269,37.427 64.0269,38.0937 64.5,39.5C 62.9731,39.573 61.9731,38.9063 61.5,37.5 Z" opacity=".149"/></g><g><path fill="#212e57" d="M 205.5,37.5 C 207.5,37.5 209.5,37.5 211.5,37.5C 211.5,40.1667 211.5,42.8333 211.5,45.5C 214.167,45.5 216.833,45.5 219.5,45.5C 219.5,47.1667 219.5,48.8333 219.5,50.5C 216.833,50.5 214.167,50.5 211.5,50.5C 211.334,56.5092 211.501,62.5092 212,68.5C 214.069,69.2638 216.236,69.7638 218.5,70C 219.925,71.7141 219.592,73.0475 217.5,74C 214.518,74.498 211.518,74.6646 208.5,74.5C 208.144,72.8102 207.144,71.8102 205.5,71.5C 204.54,64.9221 204.207,58.2554 204.5,51.5C 204.548,50.4929 203.548,50.1596 201.5,50.5C 201.5,49.1667 201.5,47.8333 201.5,46.5C 202.833,46.5 204.167,46.5 205.5,46.5C 205.5,43.5 205.5,40.5 205.5,37.5 Z"/></g><g><path fill="#838ba2" d="M 204.5,37.5 C 206.948,36.5269 209.615,36.1936 212.5,36.5C 212.5,39.1667 212.5,41.8333 212.5,44.5C 215.059,44.1984 217.393,44.5318 219.5,45.5C 216.833,45.5 214.167,45.5 211.5,45.5C 211.5,42.8333 211.5,40.1667 211.5,37.5C 209.5,37.5 207.5,37.5 205.5,37.5C 205.167,37.5 204.833,37.5 204.5,37.5 Z" opacity=".4"/></g><g><path fill="#b2c8da" d="M 64.5,39.5 C 66.8333,39.8333 68.1667,41.1667 68.5,43.5C 66.8333,42.5 65.5,41.1667 64.5,39.5 Z" opacity=".451"/></g><g><path fill="#adc2d7" d="M 39.5,37.5 C 42.0488,37.4411 44.0488,38.4411 45.5,40.5C 47.4872,38.6726 49.8205,37.6726 52.5,37.5C 50.1318,38.783 47.9651,40.4497 46,42.5C 43.648,40.9697 41.4813,39.3031 39.5,37.5 Z" opacity=".118"/></g><g><path fill="#7c839a" d="M 138.5,39.5 C 140.435,40.1495 142.435,40.4828 144.5,40.5C 143.903,41.1386 143.07,41.472 142,41.5C 140.301,41.6134 139.134,40.9468 138.5,39.5 Z" opacity=".298"/></g><g><path fill="#233059" d="M 90.5,35.5 C 90.5,35.8333 90.5,36.1667 90.5,36.5C 90.8897,39.8394 91.3897,43.1727 92,46.5C 92.3826,47.056 92.8826,47.3893 93.5,47.5C 93.2938,50.4951 93.9605,53.1617 95.5,55.5C 96.4345,56.5676 96.7678,57.901 96.5,59.5C 96.6785,62.2165 97.1785,64.8832 98,67.5C 100.217,60.1767 102.051,52.8434 103.5,45.5C 103.232,43.901 103.566,42.5676 104.5,41.5C 105.738,39.7857 106.405,37.7857 106.5,35.5C 108.5,35.5 110.5,35.5 112.5,35.5C 112.171,38.2282 112.837,40.5615 114.5,42.5C 114.41,45.1522 115.076,47.4855 116.5,49.5C 117.481,55.6133 118.981,61.6133 121,67.5C 122.153,63.2128 122.987,58.8795 123.5,54.5C 123.232,52.901 123.566,51.5676 124.5,50.5C 126.04,48.1617 126.706,45.4951 126.5,42.5C 126.232,40.901 126.566,39.5676 127.5,38.5C 128.404,37.791 128.737,36.791 128.5,35.5C 130.288,35.2148 131.955,35.5481 133.5,36.5C 132.691,38.0709 132.357,39.7376 132.5,41.5C 132.5,41.8333 132.5,42.1667 132.5,42.5C 129.432,49.0911 127.432,56.0911 126.5,63.5C 125.883,63.6107 125.383,63.944 125,64.5C 124.505,66.4727 124.338,68.4727 124.5,70.5C 123.374,71.7142 122.041,72.7142 120.5,73.5C 119.416,73.315 118.416,72.9817 117.5,72.5C 117.946,69.9899 117.28,67.9899 115.5,66.5C 115.5,66.1667 115.5,65.8333 115.5,65.5C 115.289,60.4002 113.955,55.7335 111.5,51.5C 110.566,50.4324 110.232,49.099 110.5,47.5C 110.509,45.6916 110.009,44.0249 109,42.5C 106.932,46.96 105.766,51.6267 105.5,56.5C 104.883,56.6107 104.383,56.944 104,57.5C 103.304,60.4781 102.804,63.4781 102.5,66.5C 101.058,68.5396 100.058,70.873 99.5,73.5C 97.9547,74.4519 96.288,74.7852 94.5,74.5C 94.5,74.1667 94.5,73.8333 94.5,73.5C 92.1484,60.7566 89.1484,48.0899 85.5,35.5C 87.1667,35.5 88.8333,35.5 90.5,35.5 Z"/></g><g><path fill="#8089a1" d="M 112.5,35.5 C 113.924,37.5145 114.59,39.8478 114.5,42.5C 112.837,40.5615 112.171,38.2282 112.5,35.5 Z" opacity=".435"/></g><g><path fill="#b1b7c8" d="M 269.5,45.5 C 271.948,44.5269 274.615,44.1936 277.5,44.5C 277.737,45.791 277.404,46.791 276.5,47.5C 274.721,45.6565 272.388,44.9898 269.5,45.5 Z" opacity=".039"/></g><g><path fill="#707993" d="M 90.5,36.5 C 92.2576,39.8544 93.2576,43.521 93.5,47.5C 92.8826,47.3893 92.3826,47.056 92,46.5C 91.3897,43.1727 90.8897,39.8394 90.5,36.5 Z" opacity=".929"/></g><g><path fill="#7e869f" d="M 114.5,42.5 C 115.924,44.5145 116.59,46.8478 116.5,49.5C 115.076,47.4855 114.41,45.1522 114.5,42.5 Z" opacity=".533"/></g><g><path fill="#a7afbf" d="M 241.5,45.5 C 243.027,45.427 244.027,46.0937 244.5,47.5C 242.973,47.573 241.973,46.9063 241.5,45.5 Z" opacity=".008"/></g><g><path fill="#b2c8dd" d="M 25.5,41.5 C 23.3057,43.8997 21.639,46.5664 20.5,49.5C 20.1758,45.4635 21.8424,42.7968 25.5,41.5 Z" opacity=".314"/></g><g><path fill="#6f7892" d="M 126.5,42.5 C 126.706,45.4951 126.04,48.1617 124.5,50.5C 124.565,47.5718 125.232,44.9052 126.5,42.5 Z" opacity=".663"/></g><g><path fill="#989fb2" d="M 181.5,45.5 C 179.54,47.1563 177.54,48.823 175.5,50.5C 176.268,47.4384 178.268,45.7717 181.5,45.5 Z" opacity=".157"/></g><g><path fill="#a6adbe" d="M 191.5,45.5 C 193.404,45.7376 194.738,46.7376 195.5,48.5C 193.596,48.2624 192.262,47.2624 191.5,45.5 Z" opacity=".031"/></g><g><path fill="#596381" d="M 204.5,37.5 C 204.833,37.5 205.167,37.5 205.5,37.5C 205.5,40.5 205.5,43.5 205.5,46.5C 204.167,46.5 202.833,46.5 201.5,46.5C 201.5,47.8333 201.5,49.1667 201.5,50.5C 200.549,49.0813 200.216,47.4147 200.5,45.5C 201.568,44.5655 202.901,44.2322 204.5,44.5C 204.5,42.1667 204.5,39.8333 204.5,37.5 Z" opacity=".761"/></g><g><path fill="#8990a7" d="M 110.5,47.5 C 109.778,47.0825 109.278,46.4158 109,45.5C 108.096,49.3724 106.93,53.0391 105.5,56.5C 105.766,51.6267 106.932,46.96 109,42.5C 110.009,44.0249 110.509,45.6916 110.5,47.5 Z" opacity=".059"/></g><g><path fill="#525a7a" d="M 138.5,45.5 C 140.833,45.5 143.167,45.5 145.5,45.5C 145.666,55.1724 145.5,64.8391 145,74.5C 143,75.8333 141,75.8333 139,74.5C 138.5,64.8391 138.334,55.1724 138.5,45.5 Z" opacity=".761"/></g><g><path fill="#172751" d="M 140.5,46.5 C 141.5,46.5 142.5,46.5 143.5,46.5C 143.5,55.5 143.5,64.5 143.5,73.5C 142.5,73.5 141.5,73.5 140.5,73.5C 140.5,64.5 140.5,55.5 140.5,46.5 Z"/></g><g><path fill="#a5aabd" d="M 165.5,45.5 C 169.408,46.3158 170.074,47.9825 167.5,50.5C 167.608,48.4862 166.942,46.8195 165.5,45.5 Z" opacity=".306"/></g><g><path fill="#969db2" d="M 132.5,42.5 C 130.945,49.733 128.945,56.733 126.5,63.5C 127.432,56.0911 129.432,49.0911 132.5,42.5 Z" opacity=".306"/></g><g><path fill="#a5acbe" d="M 163.5,50.5 C 157.054,49.2502 155.388,51.2502 158.5,56.5C 157.504,56.5858 156.671,56.2524 156,55.5C 155.333,53.8333 155.333,52.1667 156,50.5C 158.605,49.1857 161.105,49.1857 163.5,50.5 Z" opacity=".039"/></g><g><path fill="#9ea5ba" d="M 244.5,47.5 C 245.906,47.9731 246.573,48.9731 246.5,50.5C 245.094,50.0269 244.427,49.0269 244.5,47.5 Z" opacity=".208"/></g><g><path fill="#8f96ab" d="M 269.5,45.5 C 268.243,48.4274 266.243,50.7607 263.5,52.5C 264.757,49.5726 266.757,47.2393 269.5,45.5 Z" opacity=".431"/></g><g><path fill="#9ba0b3" d="M 163.5,50.5 C 164.833,50.5 166.167,50.5 167.5,50.5C 166.366,52.7813 165.032,52.7813 163.5,50.5 Z" opacity=".314"/></g><g><path fill="#9fa7ba" d="M 200.5,45.5 C 200.216,47.4147 200.549,49.0813 201.5,50.5C 203.548,50.1596 204.548,50.4929 204.5,51.5C 202.833,51.5 201.167,51.5 199.5,51.5C 199.205,49.2646 199.539,47.2646 200.5,45.5 Z" opacity=".4"/></g><g><path fill="#a0b8d1" d="M 59.5,59.5 C 55.4899,61.5458 52.8232,60.3791 51.5,56C 53.1187,50.8478 56.1187,49.6811 60.5,52.5C 62.0785,55.2496 61.7451,57.5829 59.5,59.5 Z" opacity=".753"/></g><g><path fill="#8b92a9" d="M 93.5,47.5 C 94.7682,49.9052 95.4349,52.5718 95.5,55.5C 93.9605,53.1617 93.2938,50.4951 93.5,47.5 Z" opacity=".596"/></g><g><path fill="#29345d" d="M 191.5,45.5 C 192.262,47.2624 193.596,48.2624 195.5,48.5C 196.114,52.1352 196.448,55.8019 196.5,59.5C 190.167,59.5 183.833,59.5 177.5,59.5C 177.232,61.099 177.566,62.4324 178.5,63.5C 178.75,65.674 179.75,67.3406 181.5,68.5C 182.167,68.8333 182.833,69.1667 183.5,69.5C 183.97,70.6935 184.97,71.3601 186.5,71.5C 187.726,71.4805 188.726,71.1471 189.5,70.5C 191.144,70.7135 192.644,70.3802 194,69.5C 194.64,71.265 194.473,72.9317 193.5,74.5C 189.167,77.1667 184.833,77.1667 180.5,74.5C 180.027,73.0937 179.027,72.427 177.5,72.5C 174.302,65.457 173.635,58.1236 175.5,50.5C 177.54,48.823 179.54,47.1563 181.5,45.5C 184.731,44.2185 188.064,44.2185 191.5,45.5 Z M 189.5,50.5 C 190.153,51.8068 190.82,53.1401 191.5,54.5C 187.893,55.4892 184.226,55.8226 180.5,55.5C 180.433,54.0413 180.766,52.7079 181.5,51.5C 184.096,50.7347 186.763,50.4013 189.5,50.5 Z"/></g><g><path fill="#a6adbf" d="M 189.5,50.5 C 186.763,50.4013 184.096,50.7347 181.5,51.5C 182.492,49.9735 183.992,49.3068 186,49.5C 187.385,49.5143 188.551,49.8476 189.5,50.5 Z" opacity=".039"/></g><g><path fill="#618ab5" d="M 59.5,59.5 C 53.8419,60.3206 52.1752,58.154 54.5,53C 56.1341,52.5065 57.8008,52.3398 59.5,52.5C 59.5,54.8333 59.5,57.1667 59.5,59.5 Z"/></g><g><path fill="#9db7d2" d="M 20.5,50.5 C 19.3252,54.15 19.3252,57.8166 20.5,61.5C 19.0027,59.7103 18.336,57.5437 18.5,55C 18.5687,53.0145 19.2353,51.5145 20.5,50.5 Z" opacity=".608"/></g><g><path fill="#29345c" d="M 165.5,45.5 C 166.942,46.8195 167.608,48.4862 167.5,50.5C 166.167,50.5 164.833,50.5 163.5,50.5C 161.105,49.1857 158.605,49.1857 156,50.5C 155.333,52.1667 155.333,53.8333 156,55.5C 156.671,56.2524 157.504,56.5858 158.5,56.5C 161.528,58.8308 164.862,60.8308 168.5,62.5C 168.5,65.1667 168.5,67.8333 168.5,70.5C 166.901,70.7678 165.568,70.4345 164.5,69.5C 164.5,68.5 164.5,67.5 164.5,66.5C 164.5,65.5 164.5,64.5 164.5,63.5C 163.167,63.5 161.833,63.5 160.5,63.5C 158.967,61.7549 156.967,60.7549 154.5,60.5C 151.418,56.5941 150.751,52.2608 152.5,47.5C 153.058,46.2101 154.058,45.3768 155.5,45C 158.924,44.2534 162.257,44.42 165.5,45.5 Z"/></g><g><path fill="#9199ad" d="M 274.5,49.5 C 273.581,52.0892 271.914,54.0892 269.5,55.5C 270.419,52.9108 272.086,50.9108 274.5,49.5 Z" opacity=".047"/></g><g><path fill="#a8bfd6" d="M 31.5,52.5 C 33.5806,50.1005 35.9139,49.9338 38.5,52C 41.5,59.3333 39.1667,62 31.5,60C 28.9301,57.3575 28.9301,54.8575 31.5,52.5 Z" opacity=".62"/></g><g><path fill="#638cb5" d="M 31.5,52.5 C 37.1132,51.079 39.2799,53.079 38,58.5C 32.3222,60.6624 30.1555,58.6624 31.5,52.5 Z"/></g><g><path fill="#9fb8d1" d="M 75.5,43.5 C 79.6846,52.3278 79.3512,60.9944 74.5,69.5C 76.6735,60.9093 77.0068,52.2426 75.5,43.5 Z" opacity=".878"/></g><g><path fill="#afc4d7" d="M 47.5,57.5 C 46.0379,56.5291 44.7046,56.8624 43.5,58.5C 43.4176,56.7483 44.2509,55.7483 46,55.5C 47.0299,55.8361 47.5299,56.5028 47.5,57.5 Z" opacity=".306"/></g><g><path fill="#757e97" d="M 103.5,45.5 C 102.051,52.8434 100.217,60.1767 98,67.5C 97.1785,64.8832 96.6785,62.2165 96.5,59.5C 97.2679,60.2625 97.7679,61.2625 98,62.5C 99.5699,56.6268 101.403,50.9601 103.5,45.5 Z" opacity=".702"/></g><g><path fill="#8189a2" d="M 111.5,51.5 C 113.955,55.7335 115.289,60.4002 115.5,65.5C 113.565,61.1051 112.231,56.4385 111.5,51.5 Z" opacity=".345"/></g><g><path fill="#7a829a" d="M 152.5,47.5 C 150.751,52.2608 151.418,56.5941 154.5,60.5C 151.234,59.4632 149.567,57.1299 149.5,53.5C 149.759,51.0128 150.759,49.0128 152.5,47.5 Z" opacity=".357"/></g><g><path fill="#8b93a8" d="M 189.5,50.5 C 191.969,51.6067 192.969,53.6067 192.5,56.5C 187.786,56.8266 183.12,56.4933 178.5,55.5C 178.815,53.517 179.815,52.1837 181.5,51.5C 180.766,52.7079 180.433,54.0413 180.5,55.5C 184.226,55.8226 187.893,55.4892 191.5,54.5C 190.82,53.1401 190.153,51.8068 189.5,50.5 Z" opacity=".239"/></g><g><path fill="#747b95" d="M 229.5,45.5 C 222.28,52.6176 220.613,60.9509 224.5,70.5C 223.883,70.3893 223.383,70.056 223,69.5C 219.96,63.1244 219.96,56.7911 223,50.5C 224.777,48.2101 226.944,46.5434 229.5,45.5 Z" opacity=".475"/></g><g><path fill="#68718c" d="M 175.5,50.5 C 173.635,58.1236 174.302,65.457 177.5,72.5C 173.956,69.2265 172.29,65.0598 172.5,60C 172.427,56.3896 173.427,53.223 175.5,50.5 Z" opacity=".914"/></g><g><path fill="#4c5678" d="M 195.5,48.5 C 197.728,52.076 198.728,56.076 198.5,60.5C 192.167,60.5 185.833,60.5 179.5,60.5C 178.596,61.209 178.263,62.209 178.5,63.5C 177.566,62.4324 177.232,61.099 177.5,59.5C 183.833,59.5 190.167,59.5 196.5,59.5C 196.448,55.8019 196.114,52.1352 195.5,48.5 Z" opacity=".6"/></g><g><path fill="#8189a0" d="M 158.5,56.5 C 162.872,57.0094 166.205,59.0094 168.5,62.5C 164.862,60.8308 161.528,58.8308 158.5,56.5 Z" opacity=".784"/></g><g><path fill="#8d93a9" d="M 246.5,50.5 C 248.379,53.8561 248.879,57.5227 248,61.5C 241.915,62.3117 235.748,62.8117 229.5,63C 230.582,64.3297 231.249,65.8297 231.5,67.5C 229.179,65.9103 228.179,63.5769 228.5,60.5C 234.833,60.5 241.167,60.5 247.5,60.5C 247.384,57.1401 247.051,53.8067 246.5,50.5 Z" opacity=".761"/></g><g><path fill="#848ca2" d="M 267.5,59.5 C 268.906,59.9731 269.573,60.9731 269.5,62.5C 268.094,62.0269 267.427,61.0269 267.5,59.5 Z" opacity=".557"/></g><g><path fill="#9ba3b7" d="M 154.5,60.5 C 156.967,60.7549 158.967,61.7549 160.5,63.5C 158.033,63.2451 156.033,62.2451 154.5,60.5 Z" opacity=".271"/></g><g><path fill="#8a92a7" d="M 267.5,71.5 C 265.113,69.0869 262.946,66.4202 261,63.5C 260.501,67.4862 260.334,71.4862 260.5,75.5C 257.615,75.8064 254.948,75.4731 252.5,74.5C 255.059,74.8016 257.393,74.4682 259.5,73.5C 259.334,68.8215 259.501,64.1548 260,59.5C 262.772,63.388 265.272,67.388 267.5,71.5 Z" opacity=".239"/></g><g><path fill="#8f97ad" d="M 105.5,56.5 C 105.101,60.1165 104.101,63.4498 102.5,66.5C 102.804,63.4781 103.304,60.4781 104,57.5C 104.383,56.944 104.883,56.6107 105.5,56.5 Z" opacity=".231"/></g><g><path fill="#747c96" d="M 116.5,49.5 C 117.985,53.3904 119.485,57.3904 121,61.5C 121.698,58.9963 122.531,56.663 123.5,54.5C 122.987,58.8795 122.153,63.2128 121,67.5C 118.981,61.6133 117.481,55.6133 116.5,49.5 Z" opacity=".129"/></g><g><path fill="#5d6583" d="M 160.5,63.5 C 161.833,63.5 163.167,63.5 164.5,63.5C 164.5,64.5 164.5,65.5 164.5,66.5C 164.167,66.5 163.833,66.5 163.5,66.5C 162.694,65.2719 161.694,64.2719 160.5,63.5 Z" opacity=".992"/></g><g><path fill="#777f98" d="M 269.5,62.5 C 271.262,63.2623 272.262,64.5956 272.5,66.5C 270.738,65.7377 269.738,64.4044 269.5,62.5 Z" opacity=".718"/></g><g><path fill="#a2bbd3" d="M 68.5,43.5 C 70.1361,44.7489 71.3028,46.4156 72,48.5C 74.5757,55.9334 73.409,62.6001 68.5,68.5C 72.5,60.1667 72.5,51.8333 68.5,43.5 Z" opacity=".686"/></g><g><path fill="#78819c" d="M 126.5,63.5 C 126.279,66.0673 125.612,68.4006 124.5,70.5C 124.338,68.4727 124.505,66.4727 125,64.5C 125.383,63.944 125.883,63.6107 126.5,63.5 Z" opacity=".737"/></g><g><path fill="#8992a8" d="M 179.5,60.5 C 179.584,63.3274 180.25,65.994 181.5,68.5C 179.75,67.3406 178.75,65.674 178.5,63.5C 178.263,62.209 178.596,61.209 179.5,60.5 Z" opacity=".086"/></g><g><path fill="#a0b9d1" d="M 43.5,58.5 C 41.9023,62.8699 42.2357,67.0366 44.5,71C 44.2517,72.7491 43.2517,73.5824 41.5,73.5C 41.9528,72.5416 42.6195,71.7083 43.5,71C 39.5331,66.7152 39.5331,62.5485 43.5,58.5 Z" opacity=".404"/></g><g><path fill="#828aa1" d="M 272.5,66.5 C 274.262,67.2623 275.262,68.5956 275.5,70.5C 273.738,69.7377 272.738,68.4044 272.5,66.5 Z" opacity=".592"/></g><g><path fill="#89a7c7" d="M 13.5,58.5 C 15.1852,62.2408 17.0185,65.9075 19,69.5C 20.1685,68.9915 21.0019,68.1581 21.5,67C 20.6198,65.6439 20.2865,64.1439 20.5,62.5C 23.01,69.0096 27.6767,73.0096 34.5,74.5C 36.5477,74.3282 38.5477,73.9949 40.5,73.5C 40.3893,74.1174 40.056,74.6174 39.5,75C 35.5,75.3333 31.5,75.6667 27.5,76C 26.7476,76.6708 26.4142,77.5041 26.5,78.5C 18.2608,74.5562 13.9275,67.8895 13.5,58.5 Z"/></g><g><path fill="#7d869f" d="M 115.5,66.5 C 117.28,67.9899 117.946,69.9899 117.5,72.5C 116.262,70.7857 115.595,68.7857 115.5,66.5 Z" opacity=".533"/></g><g><path fill="#949cb0" d="M 102.5,66.5 C 102.149,69.2377 101.482,71.9044 100.5,74.5C 98.3635,75.7928 96.3635,75.7928 94.5,74.5C 96.288,74.7852 97.9547,74.4519 99.5,73.5C 100.058,70.873 101.058,68.5396 102.5,66.5 Z" opacity=".443"/></g><g><path fill="#202d56" d="M 241.5,45.5 C 241.973,46.9063 242.973,47.573 244.5,47.5C 244.427,49.0269 245.094,50.0269 246.5,50.5C 247.051,53.8067 247.384,57.1401 247.5,60.5C 241.167,60.5 234.833,60.5 228.5,60.5C 228.179,63.5769 229.179,65.9103 231.5,67.5C 235.007,71.1786 239.007,71.512 243.5,68.5C 245.596,69.6197 245.93,71.1197 244.5,73C 239.58,74.2503 234.58,74.7503 229.5,74.5C 228.415,72.4131 226.749,71.0798 224.5,70.5C 220.613,60.9509 222.28,52.6176 229.5,45.5C 233.5,44.1667 237.5,44.1667 241.5,45.5 Z M 238.5,51.5 C 239.234,52.7079 239.567,54.0413 239.5,55.5C 235.988,56.0545 232.988,55.3878 230.5,53.5C 232.798,51.0002 235.465,50.3335 238.5,51.5 Z"/></g><g><path fill="#626c86" d="M 238.5,51.5 C 240.185,52.1837 241.185,53.517 241.5,55.5C 237.167,56.8333 232.833,56.8333 228.5,55.5C 228.855,54.4777 229.522,53.811 230.5,53.5C 232.988,55.3878 235.988,56.0545 239.5,55.5C 239.567,54.0413 239.234,52.7079 238.5,51.5 Z" opacity=".24"/></g><g><path fill="#818aa2" d="M 238.5,51.5 C 235.465,50.3335 232.798,51.0002 230.5,53.5C 231.462,49.8539 233.795,48.6872 237.5,50C 238.056,50.3826 238.389,50.8826 238.5,51.5 Z" opacity=".6"/></g><g><path fill="#1f2c56" d="M 162.5,71.5 C 164.796,71.8041 165.129,72.8041 163.5,74.5C 159.131,74.5328 154.798,74.1995 150.5,73.5C 150.698,70.0756 152.032,69.2422 154.5,71C 157.146,71.4974 159.813,71.6641 162.5,71.5 Z"/></g><g><path fill="#81899f" d="M 163.5,66.5 C 163.833,66.5 164.167,66.5 164.5,66.5C 164.5,67.5 164.5,68.5 164.5,69.5C 163.5,69.8333 162.833,70.5 162.5,71.5C 159.813,71.6641 157.146,71.4974 154.5,71C 152.032,69.2422 150.698,70.0756 150.5,73.5C 149.145,71.247 149.812,69.5803 152.5,68.5C 155.852,70.3659 159.185,70.5325 162.5,69C 163.252,68.3292 163.586,67.4959 163.5,66.5 Z" opacity=".424"/></g><g><path fill="#535c7c" d="M 168.5,62.5 C 171.253,67.2713 170.253,71.2713 165.5,74.5C 164.833,74.5 164.167,74.5 163.5,74.5C 165.129,72.8041 164.796,71.8041 162.5,71.5C 162.833,70.5 163.5,69.8333 164.5,69.5C 165.568,70.4345 166.901,70.7678 168.5,70.5C 168.5,67.8333 168.5,65.1667 168.5,62.5 Z"/></g><g><path fill="#6d7690" d="M 183.5,69.5 C 185.435,70.1495 187.435,70.4828 189.5,70.5C 188.726,71.1471 187.726,71.4805 186.5,71.5C 184.97,71.3601 183.97,70.6935 183.5,69.5 Z" opacity=".408"/></g><g><path fill="#545d7c" d="M 196.5,70.5 C 196.443,71.609 196.11,72.609 195.5,73.5C 195.158,74.3382 194.492,74.6716 193.5,74.5C 194.473,72.9317 194.64,71.265 194,69.5C 192.644,70.3802 191.144,70.7135 189.5,70.5C 191.189,69.6963 192.855,68.6963 194.5,67.5C 195.919,68.0047 196.585,69.0047 196.5,70.5 Z"/></g><g><path fill="#747c96" d="M 224.5,70.5 C 226.749,71.0798 228.415,72.4131 229.5,74.5C 227.251,73.9202 225.585,72.5869 224.5,70.5 Z" opacity=".694"/></g><g><path fill="#658eb7" d="M 47.5,57.5 C 48.9063,57.9731 49.573,58.9731 49.5,60.5C 49.8056,64.1977 49.139,67.6977 47.5,71C 47.9504,72.2853 48.6171,73.452 49.5,74.5C 55.578,76.2681 61.2447,75.6014 66.5,72.5C 68.0481,72.8212 68.7148,73.8212 68.5,75.5C 68.5,75.8333 68.5,76.1667 68.5,76.5C 66.4208,78.873 63.7541,80.2064 60.5,80.5C 52.1912,81.2881 43.8578,81.6214 35.5,81.5C 32.0836,81.4725 29.0836,80.4725 26.5,78.5C 26.4142,77.5041 26.7476,76.6708 27.5,76C 31.5,75.6667 35.5,75.3333 39.5,75C 40.056,74.6174 40.3893,74.1174 40.5,73.5C 40.8333,73.5 41.1667,73.5 41.5,73.5C 43.2517,73.5824 44.2517,72.7491 44.5,71C 42.2357,67.0366 41.9023,62.8699 43.5,58.5C 44.7046,56.8624 46.0379,56.5291 47.5,57.5 Z"/></g><g><path fill="#a2a8bb" d="M 177.5,72.5 C 179.027,72.427 180.027,73.0937 180.5,74.5C 178.973,74.573 177.973,73.9063 177.5,72.5 Z" opacity=".388"/></g><g><path fill="#9ea4b6" d="M 196.5,70.5 C 197.885,71.9473 197.552,72.9473 195.5,73.5C 196.11,72.609 196.443,71.609 196.5,70.5 Z" opacity=".02"/></g><g><path fill="#878fa6" d="M 229.5,74.5 C 234.58,74.7503 239.58,74.2503 244.5,73C 245.93,71.1197 245.596,69.6197 243.5,68.5C 239.007,71.512 235.007,71.1786 231.5,67.5C 235.951,70.038 240.285,69.7046 244.5,66.5C 248.598,70.1265 248.265,72.9599 243.5,75C 238.625,77.0903 233.958,76.9236 229.5,74.5 Z" opacity=".231"/></g><g><path fill="#727a94" d="M 124.5,70.5 C 124.166,74.648 121.833,76.3147 117.5,75.5C 117.5,74.5 117.5,73.5 117.5,72.5C 118.416,72.9817 119.416,73.315 120.5,73.5C 122.041,72.7142 123.374,71.7142 124.5,70.5 Z" opacity=".878"/></g><g><path fill="#828aa0" d="M 205.5,71.5 C 207.144,71.8102 208.144,72.8102 208.5,74.5C 206.856,74.1898 205.856,73.1898 205.5,71.5 Z" opacity=".216"/></g><g><path fill="#7d859e" d="M 219.5,50.5 C 217.393,51.4682 215.059,51.8016 212.5,51.5C 212.334,56.8437 212.501,62.1771 213,67.5C 214.796,68.767 216.629,68.767 218.5,67.5C 223.082,73.4857 221.415,76.4857 213.5,76.5C 211.578,76.1992 209.912,75.5325 208.5,74.5C 211.518,74.6646 214.518,74.498 217.5,74C 219.592,73.0475 219.925,71.7141 218.5,70C 216.236,69.7638 214.069,69.2638 212,68.5C 211.501,62.5092 211.334,56.5092 211.5,50.5C 214.167,50.5 216.833,50.5 219.5,50.5 Z" opacity=".643"/></g><g><path fill="#666f8a" d="M 275.5,70.5 C 276.5,70.8333 277.167,71.5 277.5,72.5C 275.365,74.369 272.698,75.0356 269.5,74.5C 268.094,74.0269 267.427,73.0269 267.5,71.5C 270.177,73.432 273.177,73.932 276.5,73C 275.748,72.3292 275.414,71.4959 275.5,70.5 Z" opacity=".878"/></g><g><path fill="#9db7d0" d="M 49.5,60.5 C 50.9552,64.0528 50.6219,67.5528 48.5,71C 51.8693,74.2612 55.8693,75.2612 60.5,74C 63.5973,72.7266 66.2639,70.8933 68.5,68.5C 68.2671,70.0618 67.6005,71.3951 66.5,72.5C 61.2447,75.6014 55.578,76.2681 49.5,74.5C 48.6171,73.452 47.9504,72.2853 47.5,71C 49.139,67.6977 49.8056,64.1977 49.5,60.5 Z" opacity=".882"/></g><g><path fill="#c8daea" d="M 72.5,72.5 C 72.1667,74.8333 70.8333,76.1667 68.5,76.5C 68.5,76.1667 68.5,75.8333 68.5,75.5C 69.8333,74.5 71.1667,73.5 72.5,72.5 Z" opacity=".008"/></g><g><path fill="#8c93aa" d="M 150.5,73.5 C 154.798,74.1995 159.131,74.5328 163.5,74.5C 164.167,74.5 164.833,74.5 165.5,74.5C 160.338,77.2054 155.338,76.8721 150.5,73.5 Z" opacity=".761"/></g><g><path fill="#c3c8d5" d="M 277.5,72.5 C 278.404,73.209 278.737,74.209 278.5,75.5C 275.287,75.81 272.287,75.4767 269.5,74.5C 272.698,75.0356 275.365,74.369 277.5,72.5 Z" opacity=".119"/></g><g><path fill="#9eb7d2" d="M 60.5,80.5 C 55.9355,82.04 51.1021,82.7067 46,82.5C 42.3167,82.4986 38.8167,82.1652 35.5,81.5C 43.8578,81.6214 52.1912,81.2881 60.5,80.5 Z" opacity=".6"/></g></svg>