<svg xmlns="http://www.w3.org/2000/svg" role="img" viewBox="-3.24 -3.24 168.35 168.48"><title>WoodWorks logo</title><style>svg {enable-background:new 0 0 162 162}</style><style>.st0{fill:#114735}.st1{fill:#fff}</style><g id="Layer_1_00000163768684059497414750000004501886461566337677_"><path d="M81 161.1c-.6 0-1.1-.2-1.5-.6l-78-78c-.4-.4-.6-.9-.6-1.5s.2-1.1.6-1.5l78-78c.4-.4.9-.6 1.5-.6s1.1.2 1.5.6l78 78c.4.4.6.9.6 1.5s-.2 1.1-.6 1.5l-77.9 78c-.5.4-1.1.6-1.6.6z" class="st0"/><path d="M81 1.9c.3 0 .6.1.9.4l78 78c.2.2.4.5.4.9 0 .3-.1.6-.4.9l-78 78c-.2.2-.5.4-.9.4-.3 0-.6-.1-.9-.4l-78-78c-.4-.4-.4-1.2 0-1.7l78-78c.3-.4.6-.5.9-.5M81 0c-.8 0-1.6.3-2.1.9l-78 78c-.6.6-.9 1.3-.9 2.1s.3 1.6.9 2.1l78 78c.6.6 1.3.9 2.1.9s1.6-.3 2.1-.9l78-78c.6-.6.9-1.3.9-2.1s-.3-1.6-.9-2.1l-78-78C82.6.4 81.8 0 81 0z" class="st1"/><path d="M33.5 73.6l-1.7 8.9c-.2 1.3-.4 2.4-.6 3.6-.2-1.3-.4-2.4-.6-3.6l-1.9-8.9H25l-1.9 8.9c-.3 1.2-.4 2.3-.7 3.6-.1-1.2-.3-2.3-.6-3.6l-1.7-8.9h-3.5L20 88.5h4.7l1.7-8.3c.2-.8.3-1.5.4-2.2.1.7.2 1.5.4 2.2l1.7 8.3h4.7L37 73.6h-3.5zm9.9.8c-4 0-6.5 2.6-6.5 6.7s2.5 6.7 6.5 6.7 6.5-2.6 6.5-6.7-2.4-6.7-6.5-6.7zm3.4 6.6c0 2.6-1.2 4.1-3.3 4.1-2.1 0-3.4-1.5-3.4-4.1s1.2-4.1 3.4-4.1c2.1.1 3.3 1.6 3.3 4.1zm10.8-6.6c-4 0-6.5 2.6-6.5 6.7s2.5 6.7 6.5 6.7 6.5-2.6 6.5-6.7-2.5-6.7-6.5-6.7zm3.3 6.6c0 2.6-1.2 4.1-3.3 4.1s-3.4-1.5-3.4-4.1 1.2-4.1 3.4-4.1c2.1.1 3.3 1.6 3.3 4.1zm9.7-6.4H65.7v13H70.6c4.3 0 6.6-2.3 6.6-6.5 0-4.3-2.3-6.5-6.6-6.5zm3.5 6.4c0 2.7-1.1 3.9-3.4 3.9h-1.9v-7.8h1.9c2.3 0 3.4 1.2 3.4 3.9zm20.7-7.4l-1.7 8.9c-.2 1.3-.4 2.4-.6 3.6-.2-1.3-.4-2.4-.6-3.6L90 73.6h-3.7l-1.9 8.9c-.3 1.2-.4 2.3-.7 3.6-.1-1.2-.3-2.3-.6-3.6l-1.7-8.9h-3.5l3.4 14.9H86l1.7-8.3c.2-.8.3-1.5.4-2.2.1.7.2 1.5.4 2.2l1.7 8.3H95l3.4-14.9h-3.6zm9.9.8c-4 0-6.5 2.6-6.5 6.7s2.5 6.7 6.5 6.7 6.5-2.6 6.5-6.7-2.5-6.7-6.5-6.7zM108 81c0 2.6-1.2 4.1-3.4 4.1-2.1 0-3.4-1.5-3.4-4.1s1.2-4.1 3.4-4.1c2.2.1 3.4 1.6 3.4 4.1zm12.2 1.4c1.7-.6 2.6-1.9 2.6-3.7 0-2.6-1.6-4.1-4.6-4.1h-5.6v13h3.1v-4.8h1.2l2.9 4.7h3.6l-.1-.1-3.1-5zm-4.6-5.4h2.3c1.2 0 1.7.5 1.7 1.6 0 1.2-.5 1.7-1.7 1.7h-2.3V77zm15.9 2.9l4.1-5.2.1-.1H131.9l-3.9 5.5v-5.5h-3.1V87.5h3.1v-3.7l1.3-1.6 2.9 5.3h3.7v-.1zm10.8 0c-2.3-.6-2.9-.9-2.9-1.7 0-.8.6-1.2 1.7-1.2 1.4 0 2.2.8 2.4 2.3v.1h.1l2.6-.3h.1V79c-.2-3-1.9-4.5-5.1-4.5-2.9 0-4.7 1.6-4.7 3.9 0 2.5 1.7 3.4 4.4 4 1.9.5 2.6.8 2.6 1.6s-.6 1.2-1.8 1.2c-1.7 0-2.5-.7-2.6-2.3v-.1h-.1l-2.7.3h-.1v.1c.1 3 2.1 4.6 5.5 4.6 3 0 4.9-1.6 4.9-4-.2-2.4-1.8-3.2-4.3-3.9z" class="st1"/><path d="M145.2 96.5l2.1-2.1H14.7l2.1 2.1h26.6l-.1.1 51.6 51.6 1.5-1.5L83 133.4l36.9-36.9h25.3zm-63.7 35.4L46.1 96.5h70.8l-35.4 35.4zm63.4-66.6H82V47.5l8.6 9.7 1.6-1.3L82 44.3v-8.2l8.6 9.8 1.6-1.4L82 32.9v-8.1l8.6 9.7 1.6-1.4L81 20.4 69.8 33.1l1.5 1.4 8.6-9.7v8.1L69.8 44.5l1.5 1.4 8.6-9.8v8.2L69.8 55.9l1.5 1.3 8.6-9.7v17.8H17.1L15 67.4h132z" class="st1"/><path d="M38.4 100.6l-1.9 3.2 3.4-1.8.8.8-1.8 3.4 3.2-1.9.9.9-4.7 2.6-.8-.8 1.7-3.2-3.2 1.7-.8-.8 2.6-4.7.6.6zm6.6 9.9l-.4.4c-1.1 1.1-2.4 1.1-3.4 0-1.1-1.1-1.2-2.3 0-3.4l.4-.4c1.1-1.1 2.4-1 3.4 0s1.1 2.3 0 3.4zm-2.6-2.6l-.4.4c-.7.7-.7 1.3-.1 1.9.6.6 1.2.6 1.9-.1l.4-.4c.7-.7.7-1.3.1-1.9-.6-.6-1.2-.7-1.9.1zm6.6 6.5l-.4.4c-1.1 1.1-2.4 1.1-3.4 0-1.1-1.1-1.2-2.3 0-3.4l.4-.4c1.1-1.1 2.4-1 3.4 0 1 1.1 1.1 2.3 0 3.4zm-2.7-2.6l-.4.4c-.7.7-.7 1.3-.1 1.9.6.6 1.2.6 1.9-.1l.4-.4c.7-.7.7-1.3.1-1.9-.6-.6-1.2-.6-1.9.1zm6.5 3.3c1.1 1.1 1 2.3.1 3.3l-.4.4c-.9.9-2.1 1-3.3-.1l-1.5-1.5 3.6-3.6 1.5 1.5zm-3.6 2.2l.6.6c.6.6 1.3.5 1.9 0l.3-.3c.6-.6.7-1.3 0-1.9l-.6-.6-2.2 2.2zm8.9 3c.8.8.9 1.7.2 2.4l-.2.2c-.7.7-1.6.6-2.4-.2l-.9-.9-1.2 1.2-.9-.9 3.6-3.6 1.8 1.8zm-2.7.9l.7.7c.4.4.8.4 1.1.1l.1-.1c.3-.3.3-.6-.1-1.1l-.7-.7-1.1 1.1zm1.9 5.6l-.9-.9 3.6-3.6 1.8 1.8c.9.9.9 1.7.2 2.3l-.2.2c-.5.5-1.1.5-1.7.2l-.5 2.3-.9-.9.5-2.1-.7-.7-1.2 1.4zm1.9-2l.8.8c.4.4.8.4 1.1.2l.1-.1c.3-.3.3-.6-.2-1.1l-.9-.9-.9 1.1zm6.5 6.4l-.4.4c-1.1 1.1-2.4 1.1-3.4 0-1.1-1.1-1.2-2.3 0-3.4l.4-.4c1.1-1.1 2.4-1 3.4 0s1.1 2.3 0 3.4zm-2.7-2.7l-.4.4c-.7.7-.7 1.3-.1 1.9.6.6 1.2.6 1.9-.1l.4-.4c.7-.7.7-1.3.1-1.9-.5-.5-1.1-.6-1.9.1zm6.4 3.2c1.1 1.1 1 2.3.1 3.3l-.4.4c-.9.9-2.1 1-3.3-.1l-1.5-1.5 3.6-3.6 1.5 1.5zm-3.6 2.2l.6.6c.6.6 1.3.5 1.9 0l.3-.3c.6-.6.7-1.3 0-1.9l-.6-.7-2.2 2.3zm6.8.9l-2.2 2.2c-.5.5-.5 1.1 0 1.6s1.1.5 1.6 0l2.2-2.2.8.8-2.2 2.2c-1 1-2.1 1-3.1 0-1.1-1.1-1-2.1 0-3.1l2.2-2.2.7.7zm5.2 7.6l-.1.1-.9-.9.1-.1c.4-.4.4-.9-.1-1.3-.6-.6-1.3-.4-1.8.1l-.4.4c-.5.5-.7 1.3-.1 1.8.4.4 1 .4 1.3.1l.1-.1.9.9-.1.1c-.7.7-1.8.8-2.8-.3-1.1-1.1-1-2.4 0-3.4l.4-.4c1-1 2.3-1 3.4 0 .8 1.2.8 2.3.1 3zm4.7 2.4l-.7.7-1.2-1.2-2.9 2.9-.9-.9 2.9-2.9-1.2-1.2.7-.7 3.3 3.3zm2.6 4.7l-.9-.8.1-.1c.3-.3.3-.7-.2-1.2-.4-.4-.8-.5-1-.3-.3.3-.1.5.4 1.3.9 1.3.9 1.9.3 2.5-.7.7-1.8.4-2.7-.4-1.1-1.1-1.1-2.1-.4-2.8l.1-.1.9.9c-.4.4-.3.9.2 1.3.4.4.9.5 1.1.3.3-.3.2-.5-.4-1.4-.9-1.3-.9-1.9-.3-2.5.7-.7 1.7-.5 2.6.4.8 1.2.8 2.2.2 2.9z" class="st1"/><g><path d="M101 127l.1.1-.9.9-.1-.1c-.4-.4-.9-.4-1.3.1-.6.6-.4 1.3.1 1.8l.4.4c.5.5 1.3.7 1.8.1.4-.4.4-1 .1-1.3l-.1-.1.9-.9.1.1c.7.7.8 1.8-.3 2.8-1.1 1.1-2.4 1-3.4 0l-.4-.4c-1-1-1-2.3 0-3.4 1.2-.9 2.3-.9 3-.1zm4.6-3.7l.4.4c1.1 1.1 1.1 2.4 0 3.4-1.1 1.1-2.3 1.2-3.4 0l-.4-.4c-1.1-1.1-1-2.4 0-3.4 1-1.1 2.2-1.2 3.4 0zm-2.7 2.6l.4.4c.7.7 1.3.7 1.9.1.6-.6.6-1.2-.1-1.9l-.4-.4c-.7-.7-1.3-.7-1.9-.1-.5.6-.6 1.2.1 1.9zm2.6-5.9l2.2 2.2c.5.5 1.1.5 1.6 0s.5-1.1 0-1.6l-2.2-2.2.8-.8 2.2 2.2c1 1 1 2.1 0 3.1-1.1 1.1-2.1 1-3.1 0l-2.2-2.2.7-.7zm4.3-4.2l4 .7-2.3-2.3.8-.8 3.6 3.6-.8.8-4-.7 2.4 2.4-.8.8-3.6-3.6.7-.9zm7.5-5.2l.1.1-.9.9-.1-.1c-.4-.4-.9-.4-1.3.1-.6.6-.4 1.3.1 1.8l.4.4c.5.5 1.3.7 1.8.1.4-.4.4-1 .1-1.3l-.1-.1.9-.9.1.1c.7.7.8 1.8-.3 2.8-1.1 1.1-2.4 1-3.4 0l-.4-.4c-1-1-1-2.3 0-3.4 1.2-.8 2.3-.8 3-.1zm.7-3l3.6 3.6-.9.9-3.6-3.6.9-.9zm1.7-1.8l2.9 2.9 1.7-1.7.7.7-2.6 2.6-3.6-3.6.9-.9z" class="st1"/></g><g><path d="M92.8 159.9h-.7v2.1h-.6v-2.1h-.7v-.5h2.1l-.1.5zm3 2.2h-.5v-2l-.5 2h-.6l-.6-2v2H93v-2.6h.8l.6 2 .5-2h.9v2.6z" class="st0"/></g></g></svg>