<svg xmlns="http://www.w3.org/2000/svg" role="img" viewBox="-3.46 -3.46 179.92 41.67"><title>Xilinx logo</title><style>.st0{fill:#E01F27;} .st1{fill:#801517;} .st2{fill:#FFFFFF;} .st3{fill:#171C2D;}</style><style>.st0{fill:#e01f27}.st1{fill:#801517}</style><style>.st0{fill:#e01f27}.st1{fill:#801517}</style><style>.st0{fill:#e01f27}.st1{fill:#801517}</style><style>.st0{fill:#e01f27}.st1{fill:#801517}</style><style>.st0{fill:#e01f27}.st1{fill:#801517}</style><path d="M18.7 0l-7.6 8.7H0L7.6 0z" class="st0"/><path d="M18.7 17.4l-7.6-8.7H0l7.6 8.7z" class="st1"/><path d="M18.7 17.4l-7.6 8.7H0l7.6-8.7z" class="st0"/><path d="M18.7 34.8l-7.6-8.7H0l7.6 8.7z" class="st1"/><path d="M26.3 8.7L33.8 0H18.7z" class="st0"/><path d="M26.3 26.1l7.5 8.7H18.7z" class="st1"/><path fill="#fff" d="M53 34.8h-4.7L58.9 17l-10-17h4.9l7.4 13.3L68.7 0h4.8l-10 17 10.8 17.8h-4.9l-8.2-14.1zM76.8 0H81v34.8h-4.2zM91 0v31h14.2v3.8H86.8V0zm17.7 0h4.2v34.8h-4.2zm14.2 34.8h-4.2V0h3.9l17.8 26.8V0h4.1v34.8h-3.8L122.9 7.9zm28.9 0h-4.7L157.7 17l-9.9-17h4.8l7.5 13.3L167.5 0h4.9l-10.1 17 10.8 17.8h-4.9l-8.1-14.1z"/></svg>