<svg xmlns="http://www.w3.org/2000/svg" role="img" viewBox="-5.99 -5.99 311.48 63.73"><title>Zutacore (member) logo</title><path d="M51.08 1.06l-1.42 1.96m-.78.64l-8.55 8.72M12.54 39.92l-8.97 8.55m-.34.69l-1.64 1.85" vector-effect="non-scaling-stroke" fill="none" stroke="#736682" stroke-width="2"/><path fill="#e6182c" d="M3.89 0h46.37l.82 1.06-1.42 1.96q-.94.26-.78.64l-8.55 8.72-21.45.05a1.39 1.35 23.1 0 0-.93.36l-3.21 3.06q-.43.41.16.41l15.6-.01q1.58 0 .57 1.21L12.54 39.92l-8.97 8.55q-.14-.07-.27-.06a.27.27 0 0 0-.25.27q-.01.28.18.48l-1.64 1.85q-.86-.34-1.59-1.4V3.77l.63-2.48Q.75.8 1.24.67L3.89 0zM3.4 3.36a1.48 1.47 18.2 0 1 1.18-.59L48 2.69q.12 0 .12-.12V2.3q0-.23-.23-.23-20.32-.09-41.17.12-1.64.01-3.11.55-1.28.47-1.29 1.83l-.17 43.08q0 .21.21.21h.35q.07 0 .07-.07.07-20.6-.11-41.34-.02-2.09.73-3.09z"/><path fill="#00b4d8" d="M51.08 1.06q1.01.76 1.01 2.31.04 22.79.05 44.86a3.74 3.73-.2 0 1-3.72 3.74q-22.39.07-44.92 0-.58 0-1.91-.96l1.64-1.85q1.08.79 2.52.78 20.1-.05 40.94-.07 3.41-.01 3.38-3.42l-.41-43.43 1.42-1.96z"/><path fill="#00b4d8" d="M48.88 3.66l.37 43.35a2.01 2.01 0 0 1-2.01 2.03q-21.49 0-41.99.03-1.08 0-1.68-.6l8.97-8.55 21.23.05q.23 0 .39-.15l4.1-3.9a.11.1 22.3 0 0-.08-.18l-16.37.01q-.59 0-.22-.46l18.74-22.91 8.55-8.72z"/><path d="M299.6006 11.785a1.54 1.54 0 0 1-1.3853 1.6805l-.9357.0901a1.54 1.54 0 0 1-1.6805-1.3853l-.0997-1.0353a1.54 1.54 0 0 1 1.3853-1.6805l.9357-.0901a1.54 1.54 0 0 1 1.6805 1.3853l.0997 1.0353zM298.42 10.09l-2 .08a.52.52 0 0 0-.5.54l.02.44a2.1 1.39 87.9 0 0 1.47 2.04l.26-.01a2.1 1.39 87.9 0 0 1.31-2.15l-.02-.44a.52.52 0 0 0-.54-.5zM183.65 32.88q6.15 5.97 13.55-.03.29-.23.55.04l3.2 3.34a.34.33 47.8 0 1-.02.49q-9.18 7.89-18.53 3.15c-8.74-4.42-10.44-16.26-3.5-23.15 6.16-6.12 15.71-5.83 22.03.09a.34.33-49 0 1 .03.45l-3.43 4.29q-.17.21-.36 0c-3.87-4.49-10.62-4.99-14.28.03-2.38 3.25-2.21 8.42.76 11.3zm49.67-5.8931A15.42 14.75.1 0 1 217.8743 41.71 15.42 14.75.1 0 1 202.48 26.9331 15.42 14.75.1 0 1 217.9257 12.21 15.42 14.75.1 0 1 233.32 26.9869zm-14.5773 8.9474a9.03 8.78 84.9 0 0 7.9425-9.7748 9.03 8.78 84.9 0 0-9.5479-8.2138 9.03 8.78 84.9 0 0-7.9425 9.7748 9.03 8.78 84.9 0 0 9.5479 8.2138zM73.57 35.75h15.44q.38 0 .37.37l-.03 4.77q0 .36-.36.36h-24q-.51 0-.51-.51l-.01-3.15q0-.61.39-1.08l15.31-18.09a.25.25 0 0 0-.19-.41L65.24 18a.26.25-90 0 1-.25-.26V13a.26.25 0 0 1 .26-.25h23.28q.73 0 .66.72c-.17 1.64.43 2.99-.78 4.4q-7.62 8.92-15.02 17.47a.25.24-69.3 0 0 .18.41zm26.23-5.77c.05 6.81 9.82 8.28 12.04 2.48q.78-2.03.69-5.56-.19-7.67-.01-13.93a.23.23 0 0 1 .23-.22l5.72.01a.39.38 0 0 1 .39.38q.06 8.07-.02 16.39c-.06 7.1-4.39 11.73-11.65 12.16-7.76.47-13.71-3.79-13.78-11.99q-.08-8.51-.03-16.63a.33.33 0 0 1 .33-.32l5.79.01q.28 0 .27.28-.03 8.44.03 16.94zm30.48-11.73h-8.06a.34.34 0 0 1-.34-.34l-.02-4.82a.34.34 0 0 1 .34-.34h23.24a.34.34 0 0 1 .34.34v4.82a.34.34 0 0 1-.34.34h-8.08a.34.34 0 0 0-.34.34v22.32a.34.34 0 0 1-.34.34h-5.72a.34.34 0 0 1-.34-.34V18.59a.34.34 0 0 0-.34-.34zm21.58 17.69l-2.07 5.11a.31.31 0 0 1-.29.19l-5.95.02a.31.31 0 0 1-.29-.44l12.2-27.88a.31.31 0 0 1 .28-.19h6.23a.31.31 0 0 1 .28.19l11.97 27.88a.31.31 0 0 1-.28.43l-6.17-.01a.31.31 0 0 1-.29-.19l-2.12-5.11a.31.31 0 0 0-.29-.19h-12.92a.31.31 0 0 0-.29.19zm2.41-5.89a.32.32 0 0 0 .29.44l8.17.01a.32.32 0 0 0 .29-.44l-4.06-9.91a.32.32 0 0 0-.59 0l-4.1 9.9zm89.74 3.44V41q0 .25-.26.25l-5.94-.01q-.19 0-.19-.19V13.43q0-.57.57-.6 8.04-.36 14 .21 9.81.94 9.53 10.21-.17 5.53-4.82 8.31-.44.27-.17.7l5.59 8.72a.16.16 0 0 1-.14.25l-6.72.03a.36.35-13.5 0 1-.32-.19l-4.19-7.62q-.25-.45-.77-.45h-5.67a.5.49 0 0 0-.5.49zM244 18.4l.02 8.96a.41.41 0 0 0 .41.41l6.33-.01a4.94 4.72-.1 0 0 4.93-4.73v-.34a4.94 4.72-.1 0 0-4.95-4.71l-6.33.01a.41.41 0 0 0-.41.41z"/><path fill="#000001" d="M273.74 29.81l-.01 5.88a.31.31 0 0 0 .31.31h15.16a.31.31 0 0 1 .31.31v4.63a.31.31 0 0 1-.31.31h-21.64a.31.31 0 0 1-.31-.31V13.06a.31.31 0 0 1 .31-.31h21.16a.31.31 0 0 1 .31.31v4.63a.31.31 0 0 1-.31.31h-14.68a.31.31 0 0 0-.31.31l.01 5.63a.31.31 0 0 0 .31.31h13.14a.31.31 0 0 1 .31.31l.01 4.63a.31.31 0 0 1-.31.31h-13.15a.31.31 0 0 0-.31.31z"/></svg>