<?xml version="1.0" encoding="UTF-8" standalone="no"?>
<!DOCTYPE svg PUBLIC "-//W3C//DTD SVG 1.1//EN" "http://www.w3.org/Graphics/SVG/1.1/DTD/svg11.dtd">
<svg xmlns="http://www.w3.org/2000/svg" version="1.1" viewBox="0.00 0.00 642.00 454.00">
<g stroke-width="2.00" fill="none" stroke-linecap="butt">
<path stroke="#868b98" vector-effect="non-scaling-stroke" d="
  M 587.47 260.90
  A 0.74 0.74 0.0 0 0 588.21 260.16
  L 588.20 4.74
  A 0.74 0.74 0.0 0 0 587.46 4.00
  L 18.89 4.00
  A 0.74 0.74 0.0 0 0 18.15 4.74
  L 18.28 260.16
  A 0.74 0.74 0.0 0 0 19.02 260.90
  L 587.47 260.90"
/>
<path stroke="#868b98" vector-effect="non-scaling-stroke" d="
  M 34.72 399.01
  Q 35.02 398.01 36.06 398.01
  L 66.71 398.01
  A 1.04 1.04 0.0 0 1 67.74 398.90
  Q 68.04 400.99 68.86 403.09
  Q 72.60 412.69 75.52 422.79
  A 1.15 1.15 0.0 0 0 76.54 423.62
  Q 81.54 424.02 86.39 423.45
  Q 87.91 423.27 87.02 422.03
  C 86.69 421.57 86.31 421.01 86.14 420.47
  Q 72.51 379.16 59.22 338.20
  Q 58.97 337.45 58.18 337.44
  L 47.28 337.26
  Q 46.51 337.25 46.27 337.98
  Q 37.46 365.22 29.20 390.18
  C 25.66 400.86 22.53 411.58 18.54 422.18
  Q 18.03 423.55 19.49 423.59
  L 26.01 423.80
  Q 27.42 423.85 27.82 422.50
  L 34.72 399.01"
/>
<path stroke="#868b98" vector-effect="non-scaling-stroke" d="
  M 130.50 338.11
  A 0.79 0.79 0.0 0 0 129.71 337.32
  L 121.39 337.32
  A 0.79 0.79 0.0 0 0 120.60 338.11
  L 120.60 422.93
  A 0.79 0.79 0.0 0 0 121.39 423.72
  L 129.71 423.72
  A 0.79 0.79 0.0 0 0 130.50 422.93
  L 130.50 338.11"
/>
<path stroke="#868b98" vector-effect="non-scaling-stroke" d="
  M 181.76 338.03
  A 0.67 0.67 0.0 0 0 181.09 337.36
  L 172.59 337.36
  A 0.67 0.67 0.0 0 0 171.92 338.03
  L 171.92 423.03
  A 0.67 0.67 0.0 0 0 172.59 423.70
  L 181.09 423.70
  A 0.67 0.67 0.0 0 0 181.76 423.03
  L 181.76 338.03"
/>
<path stroke="#868b98" vector-effect="non-scaling-stroke" d="
  M 231.3040 337.9029
  A 0.56 0.56 0.0 0 0 230.7410 337.3458
  L 221.4812 337.3943
  A 0.56 0.56 0.0 0 0 220.9241 337.9572
  L 220.9760 347.8771
  A 0.56 0.56 0.0 0 0 221.5390 348.4342
  L 230.7988 348.3857
  A 0.56 0.56 0.0 0 0 231.3559 347.8228
  L 231.3040 337.9029"
/>
<path stroke="#868b98" vector-effect="non-scaling-stroke" d="
  M 311.05 383.56
  C 302.45 383.32 294.67 383.43 286.02 385.30
  Q 271.65 388.41 268.21 401.20
  C 265.28 412.06 271.68 422.50 282.54 425.05
  C 293.68 427.67 305.25 425.21 310.48 414.10
  Q 311.10 412.77 311.39 414.21
  Q 312.27 418.57 312.57 422.70
  Q 312.70 424.35 314.35 424.35
  L 321.01 424.34
  Q 322.77 424.34 322.32 422.64
  Q 321.25 418.57 321.23 415.38
  Q 321.15 400.17 321.13 384.45
  C 321.12 373.77 320.16 363.78 308.14 360.03
  C 299.85 357.45 290.34 358.04 282.36 360.82
  C 276.33 362.93 270.55 367.85 269.50 374.36
  Q 269.32 375.48 270.43 375.77
  Q 274.03 376.72 277.59 376.82
  Q 278.51 376.85 278.76 375.96
  Q 280.92 368.28 289.96 366.51
  C 296.69 365.19 307.62 365.53 310.40 373.31
  Q 311.91 377.52 311.79 382.85
  A 0.72 0.72 0.0 0 1 311.05 383.56"
/>
<path stroke="#868b98" vector-effect="non-scaling-stroke" d="
  M 372.84 370.59
  Q 372.22 366.28 372.59 361.07
  Q 372.60 361.01 372.54 361.00
  Q 368.47 360.61 363.35 360.83
  Q 363.18 360.83 363.18 361.01
  L 363.16 423.32
  A 0.44 0.44 0.0 0 0 363.60 423.76
  L 372.49 423.70
  A 0.63 0.63 0.0 0 0 373.12 423.07
  Q 373.22 406.17 373.13 389.56
  Q 373.10 384.13 374.54 379.93
  C 377.26 372.06 384.18 366.49 392.80 367.06
  C 403.24 367.75 405.26 375.97 405.22 385.05
  Q 405.14 403.99 405.13 423.11
  Q 405.13 423.73 405.75 423.73
  L 413.92 423.74
  Q 414.45 423.74 414.45 423.22
  Q 414.48 403.85 414.46 384.52
  C 414.46 381.75 414.16 379.18 413.88 376.45
  C 412.76 365.56 404.79 358.85 393.88 358.36
  Q 383.47 357.90 376.33 366.59
  C 375.26 367.88 374.55 369.39 373.59 370.77
  Q 372.99 371.63 372.84 370.59"
/>
<path stroke="#868b98" vector-effect="non-scaling-stroke" d="
  M 462.43 377.56
  C 464.96 370.80 470.03 366.31 477.26 366.40
  Q 481.51 366.44 485.37 369.10
  Q 491.53 373.33 492.12 382.06
  Q 492.12 382.12 492.19 382.12
  Q 496.77 382.00 500.99 380.91
  Q 501.13 380.87 501.12 380.72
  C 500.22 372.81 496.14 365.06 489.02 361.19
  C 480.37 356.50 469.17 357.89 461.36 363.40
  C 456.00 367.18 452.29 374.28 450.82 380.78
  C 447.30 396.33 450.39 419.72 468.90 424.87
  C 481.80 428.45 493.87 423.67 499.22 411.14
  Q 500.01 409.27 501.35 403.78
  Q 501.41 403.55 501.18 403.50
  L 492.76 401.88
  A 0.31 0.31 0.0 0 0 492.40 402.11
  Q 491.59 405.28 490.16 408.70
  C 484.36 422.61 466.78 420.32 462.24 406.84
  Q 457.15 391.70 462.43 377.56"
/>
<path stroke="#868b98" vector-effect="non-scaling-stroke" d="
  M 542.10 394.36
  A 0.87 0.86 -6.1 0 1 542.95 393.31
  L 588.27 393.31
  Q 589.08 393.31 589.02 392.51
  Q 588.79 389.49 588.62 386.43
  C 588.00 374.57 581.47 363.03 569.41 359.65
  C 550.47 354.34 533.61 367.52 531.84 386.48
  C 530.76 398.18 532.16 408.96 540.47 417.85
  Q 545.23 422.95 551.88 424.76
  C 566.25 428.67 580.75 423.43 587.13 409.39
  Q 588.11 407.25 585.81 406.74
  Q 583.05 406.13 579.67 405.66
  Q 578.55 405.50 578.13 406.55
  C 574.48 415.65 565.05 420.21 555.58 417.05
  C 547.63 414.40 543.52 408.19 542.92 400.09
  Q 542.71 397.20 542.10 394.36"
/>
<path stroke="#868b98" vector-effect="non-scaling-stroke" d="
  M 230.76 360.86
  A 0.77 0.77 0.0 0 0 229.99 360.09
  L 221.71 360.09
  A 0.77 0.77 0.0 0 0 220.94 360.86
  L 220.94 422.96
  A 0.77 0.77 0.0 0 0 221.71 423.73
  L 229.99 423.73
  A 0.77 0.77 0.0 0 0 230.76 422.96
  L 230.76 360.86"
/>
<path stroke="#306686" vector-effect="non-scaling-stroke" d="
  M 108.66 127.39
  L 140.37 145.82
  A 1.09 1.08 -48.2 0 0 141.55 145.75
  C 145.94 142.54 151.02 141.15 156.61 142.76
  Q 165.86 145.42 169.18 154.49
  Q 171.55 160.96 168.08 167.93
  C 161.46 181.26 143.08 180.78 136.25 167.67"
/>
<path stroke="#36727e" vector-effect="non-scaling-stroke" d="
  M 136.25 167.67
  C 134.49 163.94 134.71 161.55 134.41 157.94
  A 1.74 1.74 0.0 0 0 133.54 156.56
  L 80.92 126.14
  A 0.42 0.42 0.0 0 0 80.29 126.50
  Q 80.34 141.98 80.25 157.61
  C 80.21 163.76 81.66 168.32 85.39 172.98
  Q 87.60 175.74 95.09 180.10
  Q 104.60 185.63 114.18 191.08"
/>
<path stroke="#306686" vector-effect="non-scaling-stroke" d="
  M 114.18 191.08
  Q 136.10 203.99 141.91 207.08
  Q 147.38 209.99 154.22 209.53
  C 158.59 209.23 162.69 207.08 166.43 204.93
  Q 186.17 193.57 207.04 181.44
  C 211.06 179.11 215.15 177.01 218.32 173.88
  C 222.44 169.79 224.54 163.19 224.36 157.23
  Q 224.24 153.51 224.56 149.97
  A 2.03 2.02 17.7 0 0 223.55 148.03
  L 164.19 113.70
  Q 163.70 113.43 163.20 113.66
  C 161.53 114.42 160.13 115.56 158.37 116.17
  C 147.69 119.86 137.17 113.34 134.65 102.55"
/>
<path stroke="#39787b" vector-effect="non-scaling-stroke" d="
  M 134.65 102.55
  Q 133.40 89.19 144.54 83.48
  C 148.22 81.59 152.94 81.28 156.71 82.25
  C 165.40 84.49 170.30 92.04 170.30 101.48
  A 1.79 1.77 -75.3 0 0 171.20 103.03
  Q 195.26 116.78 217.65 129.84
  Q 220.82 131.68 224.17 133.07
  A 0.22 0.22 0.0 0 0 224.48 132.86
  Q 224.11 119.58 224.37 105.99
  Q 224.45 101.60 224.02 97.67
  C 223.19 90.08 218.56 84.48 211.61 80.51
  Q 187.00 66.40 163.85 52.94
  C 155.47 48.07 147.27 49.00 139.02 53.81
  Q 114.08 68.34 92.44 80.74
  Q 83.76 85.71 81.11 94.22
  C 79.67 98.84 80.39 104.58 80.31 109.51
  Q 80.28 110.98 81.56 111.72
  L 108.66 127.39"
/>
<path stroke="#5cc8d1" vector-effect="non-scaling-stroke" d="
  M 134.65 102.55
  Q 131.18 104.34 127.49 108.36
  Q 123.40 112.80 110.72 124.96
  Q 110.35 125.32 110.06 125.48
  Q 109.67 125.71 109.55 126.15
  Q 109.36 126.87 108.66 127.39"
/>
<path stroke="#59c2d4" vector-effect="non-scaling-stroke" d="
  M 114.18 191.08
  Q 114.55 190.46 114.51 189.76
  Q 114.48 189.23 114.99 189.08
  Q 115.67 188.88 115.88 188.17
  C 116.10 187.49 116.76 186.83 117.45 186.64
  A 0.92 0.91 -1.1 0 0 118.12 185.95
  Q 118.26 185.28 118.94 185.03
  Q 119.47 184.83 119.81 184.38
  Q 121.84 181.71 123.15 180.51
  Q 126.58 177.35 130.06 174.16
  Q 130.83 173.46 131.27 172.66
  Q 131.83 171.65 132.71 171.32
  A 5.84 4.78 6.5 0 0 134.71 170.03
  Q 135.63 169.07 136.25 167.67"
/>
<path stroke="#868b98" vector-effect="non-scaling-stroke" d="
  M 334.39 87.73
  C 322.05 83.31 304.40 84.19 295.33 94.72
  Q 285.90 105.69 289.69 120.56
  C 293.30 134.67 307.79 137.98 319.99 140.71
  C 323.97 141.59 330.26 143.27 332.52 146.78
  C 335.72 151.76 331.65 157.33 326.81 158.95
  Q 321.61 160.68 315.07 159.62
  C 308.50 158.55 304.97 154.34 302.76 148.41
  A 1.05 1.05 0.0 0 0 301.53 147.76
  L 285.46 151.71
  Q 283.93 152.09 284.40 153.59
  Q 289.65 170.67 306.96 174.87
  Q 318.35 177.64 330.45 175.06
  Q 347.00 171.53 352.33 155.92
  Q 355.02 148.03 352.78 139.99
  C 347.91 122.48 330.25 120.63 315.76 117.03
  Q 312.64 116.26 310.62 114.49
  C 307.95 112.16 307.19 107.91 309.44 104.91
  Q 311.81 101.76 316.00 101.25
  C 324.02 100.28 331.18 101.33 333.81 109.94
  Q 334.31 111.55 335.90 110.99
  L 350.69 105.81
  Q 351.37 105.58 351.14 104.89
  Q 346.90 92.20 334.39 87.73"
/>
<path stroke="#868b98" vector-effect="non-scaling-stroke" d="
  M 437.41 87.89
  Q 423.51 82.81 409.77 87.20
  Q 398.37 90.85 393.65 101.36
  C 389.15 111.37 390.68 124.64 399.57 131.81
  C 405.98 136.97 413.89 138.88 421.76 140.50
  C 427.37 141.66 437.10 144.10 436.12 151.33
  C 434.92 160.25 423.39 160.93 416.25 159.29
  C 410.75 158.03 407.02 153.57 405.38 148.34
  A 0.89 0.89 0.0 0 0 404.32 147.74
  L 387.80 151.77
  Q 386.90 151.99 387.09 152.89
  C 391.08 171.91 410.46 177.80 427.65 175.96
  C 440.05 174.64 449.93 169.21 454.48 157.26
  Q 458.13 147.66 454.82 138.20
  C 449.80 123.87 435.51 120.77 421.04 117.72
  C 418.26 117.13 414.11 115.97 412.49 113.72
  Q 408.72 108.48 412.88 103.96
  C 415.68 100.92 420.01 101.03 423.78 100.97
  C 430.15 100.86 434.69 104.09 436.56 110.19
  A 1.36 1.35 -18.1 0 0 438.30 111.07
  L 453.47 105.78
  A 0.59 0.59 0.0 0 0 453.83 105.03
  Q 449.54 92.32 437.41 87.89"
/>
<path stroke="#868b98" vector-effect="non-scaling-stroke" d="
  M 518.18 88.40
  A 0.68 0.68 0.0 0 0 517.50 87.72
  L 499.06 87.72
  A 0.68 0.68 0.0 0 0 498.38 88.40
  L 498.38 173.32
  A 0.68 0.68 0.0 0 0 499.06 174.00
  L 517.50 174.00
  A 0.68 0.68 0.0 0 0 518.18 173.32
  L 518.18 88.40"
/>
<path stroke="#39787b" vector-effect="non-scaling-stroke" d="
  M 159.33 99.35
  A 7.17 7.17 0.0 0 0 152.16 92.18
  A 7.17 7.17 0.0 0 0 144.99 99.35
  A 7.17 7.17 0.0 0 0 152.16 106.52
  A 7.17 7.17 0.0 0 0 159.33 99.35"
/>
<path stroke="#306686" vector-effect="non-scaling-stroke" d="
  M 159.35 160.00
  A 7.20 7.20 0.0 0 0 152.15 152.80
  A 7.20 7.20 0.0 0 0 144.95 160.00
  A 7.20 7.20 0.0 0 0 152.15 167.20
  A 7.20 7.20 0.0 0 0 159.35 160.00"
/>
<path stroke="#868b98" vector-effect="non-scaling-stroke" d="
  M 38.38 389.50
  A 0.38 0.38 0.0 0 0 38.74 390.00
  L 64.39 390.04
  A 0.38 0.38 0.0 0 0 64.76 389.55
  L 52.00 349.80
  A 0.38 0.38 0.0 0 0 51.27 349.80
  L 38.38 389.50"
/>
<path stroke="#868b98" vector-effect="non-scaling-stroke" d="
  M 277.93 404.96
  C 277.34 412.50 282.25 417.97 289.75 418.40
  Q 295.28 418.73 298.80 417.06
  C 308.80 412.34 312.79 402.51 311.73 391.62
  Q 311.68 391.08 311.14 391.06
  C 302.47 390.68 292.42 390.66 285.04 394.66
  C 281.45 396.60 278.25 400.95 277.93 404.96"
/>
<path stroke="#868b98" vector-effect="non-scaling-stroke" d="
  M 543.72 385.74
  L 578.10 385.74
  A 0.32 0.32 0.0 0 0 578.42 385.42
  L 578.42 384.94
  A 18.98 17.43 -90.0 0 0 560.99 365.96
  L 560.83 365.96
  A 18.98 17.43 90.0 0 0 543.40 384.94
  L 543.40 385.42
  A 0.32 0.32 0.0 0 0 543.72 385.74"
/>
</g>
<path fill="#ffffff" d="
  M 0.00 0.00
  L 642.00 0.00
  L 642.00 454.00
  L 0.00 454.00
  L 0.00 0.00
  Z
  M 587.47 260.90
  A 0.74 0.74 0.0 0 0 588.21 260.16
  L 588.20 4.74
  A 0.74 0.74 0.0 0 0 587.46 4.00
  L 18.89 4.00
  A 0.74 0.74 0.0 0 0 18.15 4.74
  L 18.28 260.16
  A 0.74 0.74 0.0 0 0 19.02 260.90
  L 587.47 260.90
  Z
  M 34.72 399.01
  Q 35.02 398.01 36.06 398.01
  L 66.71 398.01
  A 1.04 1.04 0.0 0 1 67.74 398.90
  Q 68.04 400.99 68.86 403.09
  Q 72.60 412.69 75.52 422.79
  A 1.15 1.15 0.0 0 0 76.54 423.62
  Q 81.54 424.02 86.39 423.45
  Q 87.91 423.27 87.02 422.03
  C 86.69 421.57 86.31 421.01 86.14 420.47
  Q 72.51 379.16 59.22 338.20
  Q 58.97 337.45 58.18 337.44
  L 47.28 337.26
  Q 46.51 337.25 46.27 337.98
  Q 37.46 365.22 29.20 390.18
  C 25.66 400.86 22.53 411.58 18.54 422.18
  Q 18.03 423.55 19.49 423.59
  L 26.01 423.80
  Q 27.42 423.85 27.82 422.50
  L 34.72 399.01
  Z
  M 130.50 338.11
  A 0.79 0.79 0.0 0 0 129.71 337.32
  L 121.39 337.32
  A 0.79 0.79 0.0 0 0 120.60 338.11
  L 120.60 422.93
  A 0.79 0.79 0.0 0 0 121.39 423.72
  L 129.71 423.72
  A 0.79 0.79 0.0 0 0 130.50 422.93
  L 130.50 338.11
  Z
  M 181.76 338.03
  A 0.67 0.67 0.0 0 0 181.09 337.36
  L 172.59 337.36
  A 0.67 0.67 0.0 0 0 171.92 338.03
  L 171.92 423.03
  A 0.67 0.67 0.0 0 0 172.59 423.70
  L 181.09 423.70
  A 0.67 0.67 0.0 0 0 181.76 423.03
  L 181.76 338.03
  Z
  M 231.3040 337.9029
  A 0.56 0.56 0.0 0 0 230.7410 337.3458
  L 221.4812 337.3943
  A 0.56 0.56 0.0 0 0 220.9241 337.9572
  L 220.9760 347.8771
  A 0.56 0.56 0.0 0 0 221.5390 348.4342
  L 230.7988 348.3857
  A 0.56 0.56 0.0 0 0 231.3559 347.8228
  L 231.3040 337.9029
  Z
  M 311.05 383.56
  C 302.45 383.32 294.67 383.43 286.02 385.30
  Q 271.65 388.41 268.21 401.20
  C 265.28 412.06 271.68 422.50 282.54 425.05
  C 293.68 427.67 305.25 425.21 310.48 414.10
  Q 311.10 412.77 311.39 414.21
  Q 312.27 418.57 312.57 422.70
  Q 312.70 424.35 314.35 424.35
  L 321.01 424.34
  Q 322.77 424.34 322.32 422.64
  Q 321.25 418.57 321.23 415.38
  Q 321.15 400.17 321.13 384.45
  C 321.12 373.77 320.16 363.78 308.14 360.03
  C 299.85 357.45 290.34 358.04 282.36 360.82
  C 276.33 362.93 270.55 367.85 269.50 374.36
  Q 269.32 375.48 270.43 375.77
  Q 274.03 376.72 277.59 376.82
  Q 278.51 376.85 278.76 375.96
  Q 280.92 368.28 289.96 366.51
  C 296.69 365.19 307.62 365.53 310.40 373.31
  Q 311.91 377.52 311.79 382.85
  A 0.72 0.72 0.0 0 1 311.05 383.56
  Z
  M 372.84 370.59
  Q 372.22 366.28 372.59 361.07
  Q 372.60 361.01 372.54 361.00
  Q 368.47 360.61 363.35 360.83
  Q 363.18 360.83 363.18 361.01
  L 363.16 423.32
  A 0.44 0.44 0.0 0 0 363.60 423.76
  L 372.49 423.70
  A 0.63 0.63 0.0 0 0 373.12 423.07
  Q 373.22 406.17 373.13 389.56
  Q 373.10 384.13 374.54 379.93
  C 377.26 372.06 384.18 366.49 392.80 367.06
  C 403.24 367.75 405.26 375.97 405.22 385.05
  Q 405.14 403.99 405.13 423.11
  Q 405.13 423.73 405.75 423.73
  L 413.92 423.74
  Q 414.45 423.74 414.45 423.22
  Q 414.48 403.85 414.46 384.52
  C 414.46 381.75 414.16 379.18 413.88 376.45
  C 412.76 365.56 404.79 358.85 393.88 358.36
  Q 383.47 357.90 376.33 366.59
  C 375.26 367.88 374.55 369.39 373.59 370.77
  Q 372.99 371.63 372.84 370.59
  Z
  M 462.43 377.56
  C 464.96 370.80 470.03 366.31 477.26 366.40
  Q 481.51 366.44 485.37 369.10
  Q 491.53 373.33 492.12 382.06
  Q 492.12 382.12 492.19 382.12
  Q 496.77 382.00 500.99 380.91
  Q 501.13 380.87 501.12 380.72
  C 500.22 372.81 496.14 365.06 489.02 361.19
  C 480.37 356.50 469.17 357.89 461.36 363.40
  C 456.00 367.18 452.29 374.28 450.82 380.78
  C 447.30 396.33 450.39 419.72 468.90 424.87
  C 481.80 428.45 493.87 423.67 499.22 411.14
  Q 500.01 409.27 501.35 403.78
  Q 501.41 403.55 501.18 403.50
  L 492.76 401.88
  A 0.31 0.31 0.0 0 0 492.40 402.11
  Q 491.59 405.28 490.16 408.70
  C 484.36 422.61 466.78 420.32 462.24 406.84
  Q 457.15 391.70 462.43 377.56
  Z
  M 542.10 394.36
  A 0.87 0.86 -6.1 0 1 542.95 393.31
  L 588.27 393.31
  Q 589.08 393.31 589.02 392.51
  Q 588.79 389.49 588.62 386.43
  C 588.00 374.57 581.47 363.03 569.41 359.65
  C 550.47 354.34 533.61 367.52 531.84 386.48
  C 530.76 398.18 532.16 408.96 540.47 417.85
  Q 545.23 422.95 551.88 424.76
  C 566.25 428.67 580.75 423.43 587.13 409.39
  Q 588.11 407.25 585.81 406.74
  Q 583.05 406.13 579.67 405.66
  Q 578.55 405.50 578.13 406.55
  C 574.48 415.65 565.05 420.21 555.58 417.05
  C 547.63 414.40 543.52 408.19 542.92 400.09
  Q 542.71 397.20 542.10 394.36
  Z
  M 230.76 360.86
  A 0.77 0.77 0.0 0 0 229.99 360.09
  L 221.71 360.09
  A 0.77 0.77 0.0 0 0 220.94 360.86
  L 220.94 422.96
  A 0.77 0.77 0.0 0 0 221.71 423.73
  L 229.99 423.73
  A 0.77 0.77 0.0 0 0 230.76 422.96
  L 230.76 360.86
  Z"
/>
<path fill="#0d1630" d="
  M 587.47 260.90
  L 19.02 260.90
  A 0.74 0.74 0.0 0 1 18.28 260.16
  L 18.15 4.74
  A 0.74 0.74 0.0 0 1 18.89 4.00
  L 587.46 4.00
  A 0.74 0.74 0.0 0 1 588.20 4.74
  L 588.21 260.16
  A 0.74 0.74 0.0 0 1 587.47 260.90
  Z
  M 108.66 127.39
  L 140.37 145.82
  A 1.09 1.08 -48.2 0 0 141.55 145.75
  C 145.94 142.54 151.02 141.15 156.61 142.76
  Q 165.86 145.42 169.18 154.49
  Q 171.55 160.96 168.08 167.93
  C 161.46 181.26 143.08 180.78 136.25 167.67
  C 134.49 163.94 134.71 161.55 134.41 157.94
  A 1.74 1.74 0.0 0 0 133.54 156.56
  L 80.92 126.14
  A 0.42 0.42 0.0 0 0 80.29 126.50
  Q 80.34 141.98 80.25 157.61
  C 80.21 163.76 81.66 168.32 85.39 172.98
  Q 87.60 175.74 95.09 180.10
  Q 104.60 185.63 114.18 191.08
  Q 136.10 203.99 141.91 207.08
  Q 147.38 209.99 154.22 209.53
  C 158.59 209.23 162.69 207.08 166.43 204.93
  Q 186.17 193.57 207.04 181.44
  C 211.06 179.11 215.15 177.01 218.32 173.88
  C 222.44 169.79 224.54 163.19 224.36 157.23
  Q 224.24 153.51 224.56 149.97
  A 2.03 2.02 17.7 0 0 223.55 148.03
  L 164.19 113.70
  Q 163.70 113.43 163.20 113.66
  C 161.53 114.42 160.13 115.56 158.37 116.17
  C 147.69 119.86 137.17 113.34 134.65 102.55
  Q 133.40 89.19 144.54 83.48
  C 148.22 81.59 152.94 81.28 156.71 82.25
  C 165.40 84.49 170.30 92.04 170.30 101.48
  A 1.79 1.77 -75.3 0 0 171.20 103.03
  Q 195.26 116.78 217.65 129.84
  Q 220.82 131.68 224.17 133.07
  A 0.22 0.22 0.0 0 0 224.48 132.86
  Q 224.11 119.58 224.37 105.99
  Q 224.45 101.60 224.02 97.67
  C 223.19 90.08 218.56 84.48 211.61 80.51
  Q 187.00 66.40 163.85 52.94
  C 155.47 48.07 147.27 49.00 139.02 53.81
  Q 114.08 68.34 92.44 80.74
  Q 83.76 85.71 81.11 94.22
  C 79.67 98.84 80.39 104.58 80.31 109.51
  Q 80.28 110.98 81.56 111.72
  L 108.66 127.39
  Z
  M 334.39 87.73
  C 322.05 83.31 304.40 84.19 295.33 94.72
  Q 285.90 105.69 289.69 120.56
  C 293.30 134.67 307.79 137.98 319.99 140.71
  C 323.97 141.59 330.26 143.27 332.52 146.78
  C 335.72 151.76 331.65 157.33 326.81 158.95
  Q 321.61 160.68 315.07 159.62
  C 308.50 158.55 304.97 154.34 302.76 148.41
  A 1.05 1.05 0.0 0 0 301.53 147.76
  L 285.46 151.71
  Q 283.93 152.09 284.40 153.59
  Q 289.65 170.67 306.96 174.87
  Q 318.35 177.64 330.45 175.06
  Q 347.00 171.53 352.33 155.92
  Q 355.02 148.03 352.78 139.99
  C 347.91 122.48 330.25 120.63 315.76 117.03
  Q 312.64 116.26 310.62 114.49
  C 307.95 112.16 307.19 107.91 309.44 104.91
  Q 311.81 101.76 316.00 101.25
  C 324.02 100.28 331.18 101.33 333.81 109.94
  Q 334.31 111.55 335.90 110.99
  L 350.69 105.81
  Q 351.37 105.58 351.14 104.89
  Q 346.90 92.20 334.39 87.73
  Z
  M 437.41 87.89
  Q 423.51 82.81 409.77 87.20
  Q 398.37 90.85 393.65 101.36
  C 389.15 111.37 390.68 124.64 399.57 131.81
  C 405.98 136.97 413.89 138.88 421.76 140.50
  C 427.37 141.66 437.10 144.10 436.12 151.33
  C 434.92 160.25 423.39 160.93 416.25 159.29
  C 410.75 158.03 407.02 153.57 405.38 148.34
  A 0.89 0.89 0.0 0 0 404.32 147.74
  L 387.80 151.77
  Q 386.90 151.99 387.09 152.89
  C 391.08 171.91 410.46 177.80 427.65 175.96
  C 440.05 174.64 449.93 169.21 454.48 157.26
  Q 458.13 147.66 454.82 138.20
  C 449.80 123.87 435.51 120.77 421.04 117.72
  C 418.26 117.13 414.11 115.97 412.49 113.72
  Q 408.72 108.48 412.88 103.96
  C 415.68 100.92 420.01 101.03 423.78 100.97
  C 430.15 100.86 434.69 104.09 436.56 110.19
  A 1.36 1.35 -18.1 0 0 438.30 111.07
  L 453.47 105.78
  A 0.59 0.59 0.0 0 0 453.83 105.03
  Q 449.54 92.32 437.41 87.89
  Z
  M 518.18 88.40
  A 0.68 0.68 0.0 0 0 517.50 87.72
  L 499.06 87.72
  A 0.68 0.68 0.0 0 0 498.38 88.40
  L 498.38 173.32
  A 0.68 0.68 0.0 0 0 499.06 174.00
  L 517.50 174.00
  A 0.68 0.68 0.0 0 0 518.18 173.32
  L 518.18 88.40
  Z
  M 159.33 99.35
  A 7.17 7.17 0.0 0 0 152.16 92.18
  A 7.17 7.17 0.0 0 0 144.99 99.35
  A 7.17 7.17 0.0 0 0 152.16 106.52
  A 7.17 7.17 0.0 0 0 159.33 99.35
  Z
  M 159.35 160.00
  A 7.20 7.20 0.0 0 0 152.15 152.80
  A 7.20 7.20 0.0 0 0 144.95 160.00
  A 7.20 7.20 0.0 0 0 152.15 167.20
  A 7.20 7.20 0.0 0 0 159.35 160.00
  Z"
/>
<path fill="#65dac5" d="
  M 134.65 102.55
  Q 131.18 104.34 127.49 108.36
  Q 123.40 112.80 110.72 124.96
  Q 110.35 125.32 110.06 125.48
  Q 109.67 125.71 109.55 126.15
  Q 109.36 126.87 108.66 127.39
  L 81.56 111.72
  Q 80.28 110.98 80.31 109.51
  C 80.39 104.58 79.67 98.84 81.11 94.22
  Q 83.76 85.71 92.44 80.74
  Q 114.08 68.34 139.02 53.81
  C 147.27 49.00 155.47 48.07 163.85 52.94
  Q 187.00 66.40 211.61 80.51
  C 218.56 84.48 223.19 90.08 224.02 97.67
  Q 224.45 101.60 224.37 105.99
  Q 224.11 119.58 224.48 132.86
  A 0.22 0.22 0.0 0 1 224.17 133.07
  Q 220.82 131.68 217.65 129.84
  Q 195.26 116.78 171.20 103.03
  A 1.79 1.77 -75.3 0 1 170.30 101.48
  C 170.30 92.04 165.40 84.49 156.71 82.25
  C 152.94 81.28 148.22 81.59 144.54 83.48
  Q 133.40 89.19 134.65 102.55
  Z"
/>
<path fill="#ffffff" d="
  M 334.39 87.73
  Q 346.90 92.20 351.14 104.89
  Q 351.37 105.58 350.69 105.81
  L 335.90 110.99
  Q 334.31 111.55 333.81 109.94
  C 331.18 101.33 324.02 100.28 316.00 101.25
  Q 311.81 101.76 309.44 104.91
  C 307.19 107.91 307.95 112.16 310.62 114.49
  Q 312.64 116.26 315.76 117.03
  C 330.25 120.63 347.91 122.48 352.78 139.99
  Q 355.02 148.03 352.33 155.92
  Q 347.00 171.53 330.45 175.06
  Q 318.35 177.64 306.96 174.87
  Q 289.65 170.67 284.40 153.59
  Q 283.93 152.09 285.46 151.71
  L 301.53 147.76
  A 1.05 1.05 0.0 0 1 302.76 148.41
  C 304.97 154.34 308.50 158.55 315.07 159.62
  Q 321.61 160.68 326.81 158.95
  C 331.65 157.33 335.72 151.76 332.52 146.78
  C 330.26 143.27 323.97 141.59 319.99 140.71
  C 307.79 137.98 293.30 134.67 289.69 120.56
  Q 285.90 105.69 295.33 94.72
  C 304.40 84.19 322.05 83.31 334.39 87.73
  Z"
/>
<path fill="#ffffff" d="
  M 437.41 87.89
  Q 449.54 92.32 453.83 105.03
  A 0.59 0.59 0.0 0 1 453.47 105.78
  L 438.30 111.07
  A 1.36 1.35 -18.1 0 1 436.56 110.19
  C 434.69 104.09 430.15 100.86 423.78 100.97
  C 420.01 101.03 415.68 100.92 412.88 103.96
  Q 408.72 108.48 412.49 113.72
  C 414.11 115.97 418.26 117.13 421.04 117.72
  C 435.51 120.77 449.80 123.87 454.82 138.20
  Q 458.13 147.66 454.48 157.26
  C 449.93 169.21 440.05 174.64 427.65 175.96
  C 410.46 177.80 391.08 171.91 387.09 152.89
  Q 386.90 151.99 387.80 151.77
  L 404.32 147.74
  A 0.89 0.89 0.0 0 1 405.38 148.34
  C 407.02 153.57 410.75 158.03 416.25 159.29
  C 423.39 160.93 434.92 160.25 436.12 151.33
  C 437.10 144.10 427.37 141.66 421.76 140.50
  C 413.89 138.88 405.98 136.97 399.57 131.81
  C 390.68 124.64 389.15 111.37 393.65 101.36
  Q 398.37 90.85 409.77 87.20
  Q 423.51 82.81 437.41 87.89
  Z"
/>
<rect fill="#ffffff" x="498.38" y="87.72" width="19.80" height="86.28" rx="0.68"/>
<circle fill="#65dac5" cx="152.16" cy="99.35" r="7.17"/>
<path fill="#53b6dc" d="
  M 134.65 102.55
  C 137.17 113.34 147.69 119.86 158.37 116.17
  C 160.13 115.56 161.53 114.42 163.20 113.66
  Q 163.70 113.43 164.19 113.70
  L 223.55 148.03
  A 2.03 2.02 17.7 0 1 224.56 149.97
  Q 224.24 153.51 224.36 157.23
  C 224.54 163.19 222.44 169.79 218.32 173.88
  C 215.15 177.01 211.06 179.11 207.04 181.44
  Q 186.17 193.57 166.43 204.93
  C 162.69 207.08 158.59 209.23 154.22 209.53
  Q 147.38 209.99 141.91 207.08
  Q 136.10 203.99 114.18 191.08
  Q 114.55 190.46 114.51 189.76
  Q 114.48 189.23 114.99 189.08
  Q 115.67 188.88 115.88 188.17
  C 116.10 187.49 116.76 186.83 117.45 186.64
  A 0.92 0.91 -1.1 0 0 118.12 185.95
  Q 118.26 185.28 118.94 185.03
  Q 119.47 184.83 119.81 184.38
  Q 121.84 181.71 123.15 180.51
  Q 126.58 177.35 130.06 174.16
  Q 130.83 173.46 131.27 172.66
  Q 131.83 171.65 132.71 171.32
  A 5.84 4.78 6.5 0 0 134.71 170.03
  Q 135.63 169.07 136.25 167.67
  C 143.08 180.78 161.46 181.26 168.08 167.93
  Q 171.55 160.96 169.18 154.49
  Q 165.86 145.42 156.61 142.76
  C 151.02 141.15 145.94 142.54 141.55 145.75
  A 1.09 1.08 -48.2 0 1 140.37 145.82
  L 108.66 127.39
  Q 109.36 126.87 109.55 126.15
  Q 109.67 125.71 110.06 125.48
  Q 110.35 125.32 110.72 124.96
  Q 123.40 112.80 127.49 108.36
  Q 131.18 104.34 134.65 102.55
  Z"
/>
<path fill="#5fcecc" d="
  M 136.25 167.67
  Q 135.63 169.07 134.71 170.03
  A 5.84 4.78 6.5 0 1 132.71 171.32
  Q 131.83 171.65 131.27 172.66
  Q 130.83 173.46 130.06 174.16
  Q 126.58 177.35 123.15 180.51
  Q 121.84 181.71 119.81 184.38
  Q 119.47 184.83 118.94 185.03
  Q 118.26 185.28 118.12 185.95
  A 0.92 0.91 -1.1 0 1 117.45 186.64
  C 116.76 186.83 116.10 187.49 115.88 188.17
  Q 115.67 188.88 114.99 189.08
  Q 114.48 189.23 114.51 189.76
  Q 114.55 190.46 114.18 191.08
  Q 104.60 185.63 95.09 180.10
  Q 87.60 175.74 85.39 172.98
  C 81.66 168.32 80.21 163.76 80.25 157.61
  Q 80.34 141.98 80.29 126.50
  A 0.42 0.42 0.0 0 1 80.92 126.14
  L 133.54 156.56
  A 1.74 1.74 0.0 0 1 134.41 157.94
  C 134.71 161.55 134.49 163.94 136.25 167.67
  Z"
/>
<circle fill="#53b6dc" cx="152.15" cy="160.00" r="7.20"/>
<path fill="#0d1630" d="
  M 34.72 399.01
  L 27.82 422.50
  Q 27.42 423.85 26.01 423.80
  L 19.49 423.59
  Q 18.03 423.55 18.54 422.18
  C 22.53 411.58 25.66 400.86 29.20 390.18
  Q 37.46 365.22 46.27 337.98
  Q 46.51 337.25 47.28 337.26
  L 58.18 337.44
  Q 58.97 337.45 59.22 338.20
  Q 72.51 379.16 86.14 420.47
  C 86.31 421.01 86.69 421.57 87.02 422.03
  Q 87.91 423.27 86.39 423.45
  Q 81.54 424.02 76.54 423.62
  A 1.15 1.15 0.0 0 1 75.52 422.79
  Q 72.60 412.69 68.86 403.09
  Q 68.04 400.99 67.74 398.90
  A 1.04 1.04 0.0 0 0 66.71 398.01
  L 36.06 398.01
  Q 35.02 398.01 34.72 399.01
  Z
  M 38.38 389.50
  A 0.38 0.38 0.0 0 0 38.74 390.00
  L 64.39 390.04
  A 0.38 0.38 0.0 0 0 64.76 389.55
  L 52.00 349.80
  A 0.38 0.38 0.0 0 0 51.27 349.80
  L 38.38 389.50
  Z"
/>
<rect fill="#0d1630" x="120.60" y="337.32" width="9.90" height="86.40" rx="0.79"/>
<rect fill="#0d1630" x="171.92" y="337.36" width="9.84" height="86.34" rx="0.67"/>
<rect fill="#0d1630" x="-5.19" y="-5.52" transform="translate(226.14,342.89) rotate(-0.3)" width="10.38" height="11.04" rx="0.56"/>
<path fill="#ffffff" d="
  M 38.38 389.50
  L 51.27 349.80
  A 0.38 0.38 0.0 0 1 52.00 349.80
  L 64.76 389.55
  A 0.38 0.38 0.0 0 1 64.39 390.04
  L 38.74 390.00
  A 0.38 0.38 0.0 0 1 38.38 389.50
  Z"
/>
<path fill="#0d1630" d="
  M 311.79 382.85
  Q 311.91 377.52 310.40 373.31
  C 307.62 365.53 296.69 365.19 289.96 366.51
  Q 280.92 368.28 278.76 375.96
  Q 278.51 376.85 277.59 376.82
  Q 274.03 376.72 270.43 375.77
  Q 269.32 375.48 269.50 374.36
  C 270.55 367.85 276.33 362.93 282.36 360.82
  C 290.34 358.04 299.85 357.45 308.14 360.03
  C 320.16 363.78 321.12 373.77 321.13 384.45
  Q 321.15 400.17 321.23 415.38
  Q 321.25 418.57 322.32 422.64
  Q 322.77 424.34 321.01 424.34
  L 314.35 424.35
  Q 312.70 424.35 312.57 422.70
  Q 312.27 418.57 311.39 414.21
  Q 311.10 412.77 310.48 414.10
  C 305.25 425.21 293.68 427.67 282.54 425.05
  C 271.68 422.50 265.28 412.06 268.21 401.20
  Q 271.65 388.41 286.02 385.30
  C 294.67 383.43 302.45 383.32 311.05 383.56
  A 0.72 0.72 0.0 0 0 311.79 382.85
  Z
  M 277.93 404.96
  C 277.34 412.50 282.25 417.97 289.75 418.40
  Q 295.28 418.73 298.80 417.06
  C 308.80 412.34 312.79 402.51 311.73 391.62
  Q 311.68 391.08 311.14 391.06
  C 302.47 390.68 292.42 390.66 285.04 394.66
  C 281.45 396.60 278.25 400.95 277.93 404.96
  Z"
/>
<path fill="#0d1630" d="
  M 373.59 370.77
  C 374.55 369.39 375.26 367.88 376.33 366.59
  Q 383.47 357.90 393.88 358.36
  C 404.79 358.85 412.76 365.56 413.88 376.45
  C 414.16 379.18 414.46 381.75 414.46 384.52
  Q 414.48 403.85 414.45 423.22
  Q 414.45 423.74 413.92 423.74
  L 405.75 423.73
  Q 405.13 423.73 405.13 423.11
  Q 405.14 403.99 405.22 385.05
  C 405.26 375.97 403.24 367.75 392.80 367.06
  C 384.18 366.49 377.26 372.06 374.54 379.93
  Q 373.10 384.13 373.13 389.56
  Q 373.22 406.17 373.12 423.07
  A 0.63 0.63 0.0 0 1 372.49 423.70
  L 363.60 423.76
  A 0.44 0.44 0.0 0 1 363.16 423.32
  L 363.18 361.01
  Q 363.18 360.83 363.35 360.83
  Q 368.47 360.61 372.54 361.00
  Q 372.60 361.01 372.59 361.07
  Q 372.22 366.28 372.84 370.59
  Q 372.99 371.63 373.59 370.77
  Z"
/>
<path fill="#0d1630" d="
  M 462.43 377.56
  Q 457.15 391.70 462.24 406.84
  C 466.78 420.32 484.36 422.61 490.16 408.70
  Q 491.59 405.28 492.40 402.11
  A 0.31 0.31 0.0 0 1 492.76 401.88
  L 501.18 403.50
  Q 501.41 403.55 501.35 403.78
  Q 500.01 409.27 499.22 411.14
  C 493.87 423.67 481.80 428.45 468.90 424.87
  C 450.39 419.72 447.30 396.33 450.82 380.78
  C 452.29 374.28 456.00 367.18 461.36 363.40
  C 469.17 357.89 480.37 356.50 489.02 361.19
  C 496.14 365.06 500.22 372.81 501.12 380.72
  Q 501.13 380.87 500.99 380.91
  Q 496.77 382.00 492.19 382.12
  Q 492.12 382.12 492.12 382.06
  Q 491.53 373.33 485.37 369.10
  Q 481.51 366.44 477.26 366.40
  C 470.03 366.31 464.96 370.80 462.43 377.56
  Z"
/>
<path fill="#0d1630" d="
  M 542.10 394.36
  Q 542.71 397.20 542.92 400.09
  C 543.52 408.19 547.63 414.40 555.58 417.05
  C 565.05 420.21 574.48 415.65 578.13 406.55
  Q 578.55 405.50 579.67 405.66
  Q 583.05 406.13 585.81 406.74
  Q 588.11 407.25 587.13 409.39
  C 580.75 423.43 566.25 428.67 551.88 424.76
  Q 545.23 422.95 540.47 417.85
  C 532.16 408.96 530.76 398.18 531.84 386.48
  C 533.61 367.52 550.47 354.34 569.41 359.65
  C 581.47 363.03 588.00 374.57 588.62 386.43
  Q 588.79 389.49 589.02 392.51
  Q 589.08 393.31 588.27 393.31
  L 542.95 393.31
  A 0.87 0.86 -6.1 0 0 542.10 394.36
  Z
  M 543.72 385.74
  L 578.10 385.74
  A 0.32 0.32 0.0 0 0 578.42 385.42
  L 578.42 384.94
  A 18.98 17.43 -90.0 0 0 560.99 365.96
  L 560.83 365.96
  A 18.98 17.43 90.0 0 0 543.40 384.94
  L 543.40 385.42
  A 0.32 0.32 0.0 0 0 543.72 385.74
  Z"
/>
<rect fill="#0d1630" x="220.94" y="360.09" width="9.82" height="63.64" rx="0.77"/>
<path fill="#ffffff" d="
  M 543.72 385.74
  A 0.32 0.32 0.0 0 1 543.40 385.42
  L 543.40 384.94
  A 18.98 17.43 90.0 0 1 560.83 365.96
  L 560.99 365.96
  A 18.98 17.43 90.0 0 1 578.42 384.94
  L 578.42 385.42
  A 0.32 0.32 0.0 0 1 578.10 385.74
  L 543.72 385.74
  Z"
/>
<path fill="#ffffff" d="
  M 277.93 404.96
  C 278.25 400.95 281.45 396.60 285.04 394.66
  C 292.42 390.66 302.47 390.68 311.14 391.06
  Q 311.68 391.08 311.73 391.62
  C 312.79 402.51 308.80 412.34 298.80 417.06
  Q 295.28 418.73 289.75 418.40
  C 282.25 417.97 277.34 412.50 277.93 404.96
  Z"
/>
</svg>

